<svg width="24" height="25" viewBox="0 0 24 25" fill="none" xmlns="http://www.w3.org/2000/svg">
<path d="M16.5 18.5H13.5V17H16.5V14H18V17C17.9995 17.3977 17.8413 17.7789 17.5601 18.0601C17.2789 18.3413 16.8977 18.4995 16.5 18.5V18.5ZM7.5 11H6V8C6.00053 7.60234 6.15873 7.22111 6.43992 6.93992C6.72111 6.65873 7.10234 6.50053 7.5 6.5H10.5V8H7.5V11Z" fill="black"/>
<path d="M21 6.5H18V3.5C17.9995 3.10234 17.8413 2.72111 17.5601 2.43992C17.2789 2.15873 16.8977 2.00053 16.5 2H3C2.60234 2.00053 2.22111 2.15873 1.93992 2.43992C1.65873 2.72111 1.50053 3.10234 1.5 3.5V17C1.50053 17.3977 1.65873 17.7789 1.93992 18.0601C2.22111 18.3413 2.60234 18.4995 3 18.5H6V21.5C6.00053 21.8977 6.15873 22.2789 6.43992 22.5601C6.72111 22.8413 7.10234 22.9995 7.5 23H21C21.3977 22.9995 21.7789 22.8413 22.0601 22.5601C22.3413 22.2789 22.4995 21.8977 22.5 21.5V8C22.4995 7.60234 22.3413 7.22111 22.0601 6.93992C21.7789 6.65873 21.3977 6.50053 21 6.5V6.5ZM21 21.5H7.5V18.5H10.5V17H7.5V14H6V17H3V3.5H16.5V6.5H13.5V8H16.5V11H18V8H21V21.5Z" fill="black"/>
</svg>
