<svg width="44" height="44" viewBox="0 0 44 44" fill="none" xmlns="http://www.w3.org/2000/svg">
<g clip-path="url(#clip0_2607_100853)">
<path d="M34.6409 16.9088C34.4485 17.0528 31.052 18.8992 31.052 23.0048C31.052 27.7536 35.374 29.4336 35.5033 29.4752C35.4834 29.5776 34.8167 31.776 33.2246 34.016C31.8049 35.9872 30.3222 37.9552 28.0667 37.9552C25.8112 37.9552 25.2307 36.6912 22.6269 36.6912C20.0894 36.6912 19.1872 37.9968 17.1241 37.9968C15.0609 37.9968 13.6214 36.1728 11.9662 33.9328C10.049 31.3024 8.5 27.216 8.5 23.3376C8.5 17.1168 12.6926 13.8176 16.8189 13.8176C19.0114 13.8176 20.8391 15.2064 22.2156 15.2064C23.5258 15.2064 25.569 13.7344 28.0634 13.7344C29.0087 13.7344 32.4053 13.8176 34.6409 16.9088V16.9088ZM26.8792 11.1008C27.9108 9.92 28.6405 8.2816 28.6405 6.6432C28.6405 6.416 28.6206 6.1856 28.5775 6C26.8991 6.0608 24.9023 7.0784 23.6983 8.4256C22.7529 9.4624 21.8706 11.1008 21.8706 12.7616C21.8706 13.0112 21.9138 13.2608 21.9337 13.3408C22.0398 13.36 22.2123 13.3824 22.3848 13.3824C23.8907 13.3824 25.7846 12.4096 26.8792 11.1008Z" fill="black"/>
</g>
<defs>
<clipPath id="clip0_2607_100853">
<rect width="27" height="32" fill="white" transform="translate(8.5 6)"/>
</clipPath>
</defs>
</svg>
