<svg width="20" height="20" viewBox="0 0 20 20" fill="none" xmlns="http://www.w3.org/2000/svg">
<path d="M13.75 15H11.25V13.75H13.75V11.25H15V13.75C14.9996 14.0814 14.8677 14.3991 14.6334 14.6334C14.3991 14.8677 14.0814 14.9996 13.75 15V15ZM6.25 8.75H5V6.25C5.00044 5.91861 5.13228 5.60093 5.3666 5.3666C5.60093 5.13228 5.91861 5.00044 6.25 5H8.75V6.25H6.25V8.75Z" fill="white"/>
<path d="M17.5 5H15V2.5C14.9996 2.16861 14.8677 1.85093 14.6334 1.6166C14.3991 1.38228 14.0814 1.25044 13.75 1.25H2.5C2.16861 1.25044 1.85093 1.38228 1.6166 1.6166C1.38228 1.85093 1.25044 2.16861 1.25 2.5V13.75C1.25044 14.0814 1.38228 14.3991 1.6166 14.6334C1.85093 14.8677 2.16861 14.9996 2.5 15H5V17.5C5.00044 17.8314 5.13228 18.1491 5.3666 18.3834C5.60093 18.6177 5.91861 18.7496 6.25 18.75H17.5C17.8314 18.7496 18.1491 18.6177 18.3834 18.3834C18.6177 18.1491 18.7496 17.8314 18.75 17.5V6.25C18.7496 5.91861 18.6177 5.60093 18.3834 5.3666C18.1491 5.13228 17.8314 5.00044 17.5 5V5ZM17.5 17.5H6.25V15H8.75V13.75H6.25V11.25H5V13.75H2.5V2.5H13.75V5H11.25V6.25H13.75V8.75H15V6.25H17.5V17.5Z" fill="white"/>
</svg>
