<svg width="21" height="20" viewBox="0 0 21 20" fill="none" xmlns="http://www.w3.org/2000/svg">
<path d="M17.0625 18.4549H3.9375C3.58955 18.4545 3.25597 18.3192 3.00993 18.0788C2.76389 17.8384 2.62546 17.5124 2.625 17.1724V4.34744C2.62546 4.00744 2.76389 3.68149 3.00993 3.44108C3.25597 3.20066 3.58955 3.06539 3.9375 3.06494H10.5V4.34744H3.9375V17.1724H17.0625V10.7599H18.375V17.1724C18.3745 17.5124 18.2361 17.8384 17.9901 18.0788C17.744 18.3192 17.4105 18.4545 17.0625 18.4549Z" fill="#121417"/>
<path d="M13.125 1.78247V3.06497H17.4475L11.8125 8.57117L12.74 9.47747L18.375 3.97127V8.19497H19.6875V1.78247H13.125Z" fill="#121417"/>
</svg>
