<svg width="44" height="44" viewBox="0 0 44 44" fill="none" xmlns="http://www.w3.org/2000/svg">
<path d="M22 38C30.8366 38 38 30.8366 38 22C38 13.1634 30.8366 6 22 6C13.1634 6 6 13.1634 6 22C6 30.8366 13.1634 38 22 38Z" fill="#FFD500"/>
<path d="M25.2561 18.8249L24.4796 20.7501C25.3289 21.2729 25.8143 22.1999 25.8143 23.1744C25.7658 24.6955 24.4796 25.8839 22.9264 25.8364C21.3733 25.7888 20.1599 24.5291 20.2084 23.008C20.2569 21.5819 21.4218 20.4173 22.8779 20.346L23.6059 18.3733C20.6937 17.993 18 20.037 18 23.0318V27.9992H20.2084V27.2149C21.0335 27.7378 22.0285 27.9992 22.9992 27.9992C25.7172 28.0468 27.9741 25.9077 27.9984 23.2219C28.0469 21.368 26.9792 19.6567 25.2561 18.8249ZM18 18.5872C18.631 17.9692 19.3833 17.4701 20.2084 17.1136V14H18V18.5872Z" fill="#002840"/>
</svg>
