<svg width="16" height="16" viewBox="0 0 16 16" fill="none" xmlns="http://www.w3.org/2000/svg">
<path d="M8.00001 1C6.54186 1.00176 5.14394 1.58179 4.11287 2.61286C3.0818 3.64393 2.50177 5.04185 2.50001 6.5C2.49822 7.69162 2.88746 8.85091 3.60801 9.8C3.60801 9.8 3.75801 9.99733 3.78201 10.026L8.00001 15L12.22 10.024C12.242 9.99733 12.392 9.8 12.392 9.8V9.79867C13.1124 8.85001 13.5016 7.69119 13.5 6.5C13.4982 5.04185 12.9182 3.64393 11.8871 2.61286C10.8561 1.58179 9.45816 1.00176 8.00001 1V1ZM8.00001 8.5C7.73433 8.50485 7.47036 8.45671 7.2235 8.3584C6.97664 8.26008 6.75185 8.11357 6.56225 7.9274C6.37265 7.74123 6.22205 7.51915 6.11925 7.27413C6.01644 7.0291 5.96349 6.76605 5.96349 6.50033C5.96349 6.23462 6.01644 5.97156 6.11925 5.72654C6.22205 5.48152 6.37265 5.25944 6.56225 5.07327C6.75185 4.8871 6.97664 4.74058 7.2235 4.64227C7.47036 4.54395 7.73433 4.49582 8.00001 4.50067C8.52403 4.51024 9.02336 4.72512 9.39056 5.09909C9.75776 5.47306 9.96349 5.97622 9.96349 6.50033C9.96349 7.02444 9.75776 7.52761 9.39056 7.90158C9.02336 8.27555 8.52403 8.49043 8.00001 8.5Z" fill="white"/>
</svg>
