<svg width="28" height="28" viewBox="0 0 28 28" fill="none" xmlns="http://www.w3.org/2000/svg">
<g opacity="0.8">
<path fill-rule="evenodd" clip-rule="evenodd" d="M12.6 13.2297C12.46 13.1597 12.39 13.1597 12.32 13.1597C12.32 13.1597 12.39 13.1597 12.39 13.0897C12.53 13.0197 12.67 12.9497 12.74 12.8797C12.81 12.8097 12.95 12.6697 13.16 12.5297C13.37 12.3197 13.51 12.1797 13.65 11.9697C13.79 11.7597 13.86 11.4797 14 11.1997C14.07 10.8497 14.14 10.4997 14.14 10.0797C14.14 8.81967 13.72 7.83967 12.88 7.20967C12.04 6.50967 10.92 6.15967 9.51999 6.15967H2.23999V21.2097H9.02998C10.08 21.2097 10.92 21.0697 11.69 20.8597C12.46 20.5797 13.02 20.2297 13.44 19.8097C13.86 19.3897 14.14 18.8997 14.35 18.4097C14.56 17.9197 14.63 17.3597 14.63 16.7297C14.63 16.1697 14.56 15.6797 14.35 15.2597C14.21 14.8397 14 14.4897 13.79 14.2097C13.58 13.9997 13.37 13.7897 13.09 13.5797C12.88 13.3697 12.74 13.2997 12.6 13.2297ZM24.43 8.18967V6.71967H17.92V8.18967H24.43ZM5.80997 8.81967V12.1097H9.02998C10.5 12.1097 11.2 11.5497 11.2 10.4297C11.2 9.79967 10.99 9.37967 10.57 9.16967C10.15 8.95967 9.51997 8.81967 8.60997 8.81967H5.80997ZM26.39 16.5197V15.8197C26.39 13.9997 25.9 12.5997 24.99 11.5497C24.08 10.4997 22.75 10.0097 21 10.0097C20.23 10.0097 19.53 10.1497 18.9 10.3597C18.27 10.5697 17.71 10.9897 17.22 11.4097C16.73 11.8997 16.38 12.4597 16.1 13.2297C15.82 13.9997 15.68 14.8397 15.68 15.7497C15.68 17.5697 16.17 18.8997 17.15 19.8797C18.13 20.8597 19.46 21.3497 21.07 21.3497C22.4 21.3497 23.52 20.9997 24.43 20.3697C25.34 19.7397 25.97 18.8997 26.18 17.8497H23.31L23.24 17.9897C23.17 18.0597 23.1 18.1997 23.03 18.2697C22.89 18.4097 22.82 18.4797 22.61 18.6197C22.47 18.7597 22.26 18.8297 21.98 18.8997C21.7 18.9697 21.42 19.0397 21.14 19.0397C20.37 19.0397 19.74 18.8297 19.25 18.3397C18.76 17.8497 18.48 17.2197 18.48 16.3797H26.39V16.5197ZM18.62 14.6297H23.52C23.52 13.9997 23.31 13.4397 22.82 13.0197C22.4 12.5997 21.77 12.3897 21.07 12.3897C20.37 12.3897 19.81 12.5997 19.39 13.0197C18.9 13.4397 18.69 13.9997 18.62 14.6297ZM10.92 18.0597C10.57 18.4097 9.86997 18.6197 8.95997 18.6197H5.73999V14.6297H9.02998C10.64 14.6297 11.48 15.2597 11.48 16.5197C11.48 17.1497 11.34 17.7097 10.92 18.0597Z" fill="white"/>
</g>
</svg>
