<svg width="28" height="28" viewBox="0 0 28 28" fill="none" xmlns="http://www.w3.org/2000/svg">
<g opacity="0.8">
<path d="M17.0799 4.06023C17.2899 4.06023 17.4999 4.06023 17.9199 4.06023V7.21023C17.7099 7.21023 17.2899 7.21023 16.8699 7.21023C16.4499 7.21023 16.0299 7.21023 15.8199 7.42023C15.6099 7.63023 15.6099 7.84023 15.6099 8.33023C15.6099 8.75023 15.6099 9.03023 15.6099 9.45023H17.9199V12.1102H15.6099V23.6602H12.0399V12.0402H10.1499V9.38023H12.0399V8.47023C12.0399 6.93023 12.2499 5.81023 12.6699 5.32023C13.2999 4.41023 14.5599 3.99023 16.4499 3.99023C16.6599 4.06023 16.8699 4.06023 17.0799 4.06023Z" fill="white"/>
</g>
</svg>
