<svg width="21" height="19" viewBox="0 0 21 19" fill="none" xmlns="http://www.w3.org/2000/svg">
<path d="M17.0625 17.9549H3.9375C3.58955 17.9545 3.25597 17.8192 3.00993 17.5788C2.76389 17.3384 2.62546 17.0124 2.625 16.6724V3.84744C2.62546 3.50744 2.76389 3.18149 3.00993 2.94108C3.25597 2.70066 3.58955 2.56539 3.9375 2.56494H10.5V3.84744H3.9375V16.6724H17.0625V10.2599H18.375V16.6724C18.3745 17.0124 18.2361 17.3384 17.9901 17.5788C17.744 17.8192 17.4105 17.9545 17.0625 17.9549V17.9549Z" fill="white"/>
<path d="M13.125 1.28247V2.56497H17.4475L11.8125 8.07117L12.74 8.97747L18.375 3.47127V7.69497H19.6875V1.28247H13.125Z" fill="white"/>
</svg>
