<svg width="28" height="28" viewBox="0 0 28 28" fill="none" xmlns="http://www.w3.org/2000/svg">
<g opacity="0.8">
<path fill-rule="evenodd" clip-rule="evenodd" d="M9.02998 7.00008C9.02998 7.63008 8.81996 8.12008 8.39996 8.54008C7.97996 8.96008 7.41995 9.17008 6.71995 9.17008C6.01995 9.17008 5.52995 8.96008 5.10995 8.54008C4.68995 8.12008 4.47998 7.63008 4.47998 7.00008C4.47998 6.37008 4.68995 5.88008 5.10995 5.46008C5.52995 5.04008 6.08997 4.83008 6.78997 4.83008C7.48997 4.83008 8.04995 5.04008 8.46995 5.46008C8.81995 5.88008 9.02998 6.37008 9.02998 7.00008ZM4.75995 10.9901H8.60996V22.9601H4.75995V10.9901ZM14.7699 22.9601V16.0301C14.7699 15.2601 14.98 14.7001 15.4 14.3501C15.82 13.9301 16.31 13.7201 16.94 13.7201C17.57 13.7201 18.06 13.9301 18.48 14.3501C18.9 14.7701 19.04 15.4701 19.04 16.3801V22.8901H22.89V15.9601C22.89 14.2801 22.47 12.9501 21.63 11.9701C20.79 10.9901 19.6699 10.5701 18.2699 10.5701C17.5699 10.5701 16.87 10.7801 16.31 11.1301C15.75 11.4801 15.26 11.9701 14.84 12.6001L14.7 10.9201H10.9199C10.9199 11.2001 10.92 12.1101 10.99 13.6501V22.8901H14.7699V22.9601Z" fill="white"/>
</g>
</svg>
