<svg width="32" height="32" viewBox="0 0 32 32" fill="none" xmlns="http://www.w3.org/2000/svg">
<path fill-rule="evenodd" clip-rule="evenodd" d="M15.9999 3.84004C9.28414 3.84004 3.83992 9.28426 3.83992 16C3.83992 22.7157 9.28414 28.16 15.9999 28.16C22.7157 28.16 28.16 22.7157 28.16 16C28.16 9.28426 22.7157 3.84004 15.9999 3.84004ZM1.91992 16C1.91992 8.22386 8.22375 1.92004 15.9999 1.92004C23.776 1.92004 30.08 8.22386 30.08 16C30.08 23.7762 23.776 30.08 15.9999 30.08C8.22375 30.08 1.91992 23.7762 1.91992 16Z" fill="white"/>
<path fill-rule="evenodd" clip-rule="evenodd" d="M28.7999 16.8533H3.19995V15.1466H28.7999V16.8533Z" fill="white"/>
<path fill-rule="evenodd" clip-rule="evenodd" d="M15.1465 28.8V3.19998H16.8532V28.8H15.1465ZM22.1334 15.9999C22.1334 11.3648 20.4665 6.77924 17.1986 3.74731L18.2143 2.65259C21.8445 6.02063 23.6267 11.0351 23.6267 15.9999C23.6267 20.9648 21.8445 25.9793 18.2143 29.3474L17.1986 28.2526C20.4665 25.2207 22.1334 20.6351 22.1334 15.9999ZM8.53271 16C8.53271 11.0423 10.2568 6.03044 13.7764 2.66065L14.8092 3.73931C11.6442 6.76954 10.026 11.3576 10.026 16C10.0261 20.6423 11.6442 25.2305 14.8092 28.2607L13.7764 29.3393C10.2569 25.9695 8.53274 20.9576 8.53271 16Z" fill="white"/>
<path fill-rule="evenodd" clip-rule="evenodd" d="M15.9998 8.44373C20.6277 8.44373 25.3339 9.29949 28.5239 11.0815C28.884 11.2826 29.0128 11.7375 28.8117 12.0975C28.6107 12.4575 28.1557 12.5864 27.7958 12.3853C24.916 10.7766 20.497 9.93706 15.9998 9.93706C11.5027 9.93706 7.0837 10.7766 4.20395 12.3853C3.84393 12.5864 3.38906 12.4575 3.18795 12.0975C2.98686 11.7375 3.11567 11.2826 3.47569 11.0815C6.66586 9.29949 11.3719 8.44373 15.9998 8.44373ZM15.9998 23.1466C20.6277 23.1466 25.3339 22.2907 28.5239 20.5088C28.884 20.3077 29.0128 19.8528 28.8117 19.4928C28.6107 19.1328 28.1557 19.004 27.7958 19.2051C24.916 20.8137 20.497 21.6533 15.9998 21.6533C11.5027 21.6533 7.0837 20.8137 4.20395 19.2051C3.84393 19.004 3.38906 19.1328 3.18795 19.4928C2.98686 19.8528 3.11567 20.3077 3.47569 20.5088C6.66586 22.2907 11.3719 23.1466 15.9998 23.1466Z" fill="white"/>
</svg>
