<svg width="28" height="28" viewBox="0 0 28 28" fill="none" xmlns="http://www.w3.org/2000/svg">
<g opacity="0.8">
<path d="M25.1279 9.41127C25.1142 8.47121 24.9401 7.5386 24.6067 6.65939C24.0233 5.15803 22.8354 3.97084 21.3315 3.38967C20.4621 3.06307 19.5428 2.88797 18.6124 2.86811C17.4158 2.81471 17.0364 2.7998 13.9988 2.7998C10.9612 2.7998 10.5719 2.7998 9.38397 2.86811C8.45478 2.88797 7.53554 3.06307 6.66606 3.38967C5.1622 3.97084 3.97304 5.15803 3.3909 6.65939C3.06375 7.52743 2.88712 8.44513 2.86971 9.37277C2.81622 10.5687 2.80005 10.9474 2.80005 13.9799C2.80005 17.0125 2.80005 17.3999 2.86971 18.5871C2.88837 19.516 3.06375 20.4325 3.3909 21.303C3.97428 22.8031 5.1622 23.9903 6.66731 24.5714C7.53306 24.9092 8.45229 25.1005 9.38521 25.1303C10.5831 25.1837 10.9625 25.1998 14.0001 25.1998C17.0376 25.1998 17.427 25.1998 18.6149 25.1303C19.5441 25.1116 20.4633 24.9365 21.334 24.6099C22.8379 24.0275 24.0258 22.8403 24.6092 21.3402C24.9363 20.4709 25.1117 19.5545 25.1304 18.6244C25.1839 17.4297 25.2001 17.051 25.2001 14.0172C25.1976 10.9847 25.1976 10.5997 25.1279 9.41127ZM13.9913 19.7147C10.8144 19.7147 8.24083 17.1453 8.24083 13.9737C8.24083 10.8021 10.8144 8.23278 13.9913 8.23278C17.1658 8.23278 19.7419 10.8021 19.7419 13.9737C19.7419 17.1453 17.1658 19.7147 13.9913 19.7147ZM19.9707 9.35911C19.2281 9.35911 18.6298 8.76056 18.6298 8.02043C18.6298 7.2803 19.2281 6.68174 19.9707 6.68174C20.7108 6.68174 21.3104 7.2803 21.3104 8.02043C21.3104 8.76056 20.7108 9.35911 19.9707 9.35911Z" fill="white"/>
<path d="M13.993 17.4792C15.9279 17.4792 17.4965 15.9106 17.4965 13.9757C17.4965 12.0407 15.9279 10.4722 13.993 10.4722C12.0581 10.4722 10.4895 12.0407 10.4895 13.9757C10.4895 15.9106 12.0581 17.4792 13.993 17.4792Z" fill="white"/>
</g>
</svg>
