<svg width="57" height="16" viewBox="0 0 57 16" fill="none" xmlns="http://www.w3.org/2000/svg">
<path d="M14.6479 0H17.2395V15.9998H14.6479V0Z" fill="#17313B"/>
<path d="M26.2533 10.9295C26.2533 13.4083 24.2251 13.6337 23.5491 13.6337C21.9716 13.6337 21.7463 12.1689 21.7463 11.3802V5.18311H19.1548V11.2675C19.1548 12.7323 19.6055 14.0844 20.5069 14.8731C21.2956 15.6618 22.3097 15.9999 23.5491 15.9999C24.4505 15.9999 25.5772 15.7745 26.2533 15.0985V15.9999H28.8448V5.18311H26.2533V10.9295Z" fill="#17313B"/>
<path d="M33.9152 1.23926H31.3237V5.18287H29.4082V7.66171H31.3237V15.9996H33.9152V7.66171H35.8307V5.18287H33.9152V1.23926Z" fill="#17313B"/>
<path d="M43.9431 12.7321C43.3797 13.1828 42.591 13.5208 41.8023 13.5208C39.9995 13.5208 38.7601 12.1687 38.7601 10.3659C38.7601 8.5631 39.9995 7.32368 41.8023 7.32368C42.591 7.32368 43.3797 7.54903 43.9431 8.1124L44.2811 8.45043L46.0839 6.76031L45.6332 6.42229C44.6192 5.52089 43.2671 4.95752 41.8023 4.95752C38.6474 4.95752 36.2812 7.32368 36.2812 10.4786C36.2812 13.6335 38.6474 15.9996 41.8023 15.9996C43.2671 15.9996 44.6192 15.4363 45.6332 14.5349L46.0839 14.1968L44.2811 12.394L43.9431 12.7321Z" fill="#17313B"/>
<path d="M55.2105 6.08443C54.4217 5.2957 53.633 4.95768 52.3936 4.95768C51.4922 4.95768 50.5908 5.18303 49.9148 5.85908V0H47.3232V15.9998H49.9148V10.028C49.9148 7.5492 51.6049 7.32384 52.2809 7.32384C53.8584 7.32384 53.7457 8.78861 53.7457 9.57734V15.8871H56.3372V9.69001C56.3372 8.22524 55.9992 6.87315 55.2105 6.08443Z" fill="#17313B"/>
<path d="M41.6895 12.2814C42.6852 12.2814 43.4923 11.4742 43.4923 10.4786C43.4923 9.48292 42.6852 8.67578 41.6895 8.67578C40.6939 8.67578 39.8867 9.48292 39.8867 10.4786C39.8867 11.4742 40.6939 12.2814 41.6895 12.2814Z" fill="#EF4335"/>
<path d="M11.0421 12.0563C10.1407 12.9577 8.78861 13.5211 7.32385 13.5211C4.50698 13.5211 2.47884 11.2676 2.47884 8.2254C2.47884 5.18318 4.50698 2.92969 7.43652 2.92969C8.78861 2.92969 10.1407 3.49307 11.1548 4.50714L11.4928 4.84516L13.1829 3.15504L12.8449 2.81702C11.3801 1.35225 9.46466 0.563528 7.43652 0.563528C3.15489 0.450853 0 3.83109 0 8.2254C0 12.6197 3.15489 15.9999 7.32385 15.9999C9.35199 15.9999 11.3801 15.2112 12.7322 13.7464L13.0702 13.4084L11.3801 11.7183L11.0421 12.0563Z" fill="#17313B"/>
</svg>
