<svg width="44" height="44" viewBox="0 0 44 44" fill="none" xmlns="http://www.w3.org/2000/svg">
<g clip-path="url(#clip0_2491_104928)">
<path d="M9.44741 25.5085C9.44741 26.7732 9.7149 27.7442 10.0645 28.3316C10.5229 29.101 11.2066 29.427 11.9037 29.427C12.8027 29.427 13.6251 29.1955 15.2101 26.9206C16.4799 25.0973 17.976 22.5379 18.9827 20.9334L20.6876 18.2151C21.8718 16.3272 23.2426 14.2286 24.8142 12.8061C26.0973 11.645 27.4814 11 28.8743 11C31.2129 11 33.4405 12.4064 35.1454 15.0441C37.0111 17.9329 37.9168 21.5715 37.9168 25.3265C37.9168 27.5587 37.4928 29.199 36.7714 30.4948C36.0744 31.748 34.7158 33 32.4305 33V29.427C34.3873 29.427 34.8757 27.561 34.8757 25.4255C34.8757 22.3824 34.1919 19.0052 32.6858 16.5921C31.6169 14.8805 30.2318 13.8347 28.7078 13.8347C27.0596 13.8347 25.7333 15.1247 24.2426 17.4249C23.4502 18.647 22.6366 20.1363 21.7231 21.8169L20.7175 23.6655C18.6975 27.3825 18.1858 28.2291 17.1758 29.6263C15.4055 32.0728 13.8937 33 11.9037 33C9.54286 33 8.05002 31.9392 7.12546 30.3404C6.37071 29.0377 6 27.3284 6 25.3806L9.44741 25.5085Z" fill="#0081FB"/>
<path d="M8.71826 15.2963C10.2988 12.7681 12.5797 11 15.1957 11C16.7108 11 18.2169 11.4653 19.7897 12.798C21.5101 14.2551 23.3437 16.6543 25.6312 20.6086L26.4514 22.0276C28.4315 25.4509 29.5581 27.212 30.2174 28.0425C31.0654 29.1091 31.6592 29.427 32.4306 29.427C34.3874 29.427 34.8757 27.561 34.8757 25.4255L37.9169 25.3265C37.9169 27.5587 37.4929 29.199 36.7715 30.4948C36.0744 31.748 34.7159 33 32.4306 33C31.0099 33 29.7512 32.6798 28.3594 31.3172C27.2894 30.2713 26.0385 28.4134 25.0762 26.7432L22.2138 21.7812C20.7775 19.2909 19.4601 17.4341 18.6975 16.5933C17.8773 15.6891 16.8229 14.5972 15.1403 14.5972C13.7784 14.5972 12.6218 15.5889 11.654 17.1059L8.71826 15.2963Z" fill="url(#paint0_linear_2491_104928)"/>
<path d="M15.1402 14.5972C13.7783 14.5972 12.6218 15.5889 11.6539 17.1059C10.2854 19.2494 9.44741 22.4423 9.44741 25.5085C9.44741 26.7732 9.7149 27.7442 10.0645 28.3316L7.12546 30.3404C6.37071 29.0377 6 27.3284 6 25.3806C6 21.8387 6.93677 18.1471 8.71819 15.2963C10.2987 12.7681 12.5796 11 15.1957 11L15.1402 14.5972Z" fill="url(#paint1_linear_2491_104928)"/>
</g>
<defs>
<linearGradient id="paint0_linear_2491_104928" x1="12.7706" y1="24.4764" x2="34.751" y2="25.5462" gradientUnits="userSpaceOnUse">
<stop stop-color="#0064E1"/>
<stop offset="0.4" stop-color="#0064E1"/>
<stop offset="0.83" stop-color="#0073EE"/>
<stop offset="1" stop-color="#0082FB"/>
</linearGradient>
<linearGradient id="paint1_linear_2491_104928" x1="10.9946" y1="27.0105" x2="10.9946" y2="18.6021" gradientUnits="userSpaceOnUse">
<stop stop-color="#0082FB"/>
<stop offset="1" stop-color="#0064E0"/>
</linearGradient>
<clipPath id="clip0_2491_104928">
<rect width="32" height="22" fill="white" transform="translate(6 11)"/>
</clipPath>
</defs>
</svg>
