<svg width="44" height="44" viewBox="0 0 44 44" fill="none" xmlns="http://www.w3.org/2000/svg">
<path fill-rule="evenodd" clip-rule="evenodd" d="M29.3659 21.1484C29.5922 21.1215 29.8089 21.1202 30.0083 21.1484C30.1237 20.8839 30.1433 20.4282 30.0396 19.9318C29.8857 19.194 29.6769 18.7476 29.2457 18.8172C28.8145 18.8868 28.7986 19.4214 28.9529 20.1588C29.0397 20.5739 29.194 20.9286 29.3659 21.1484Z" fill="#231F20"/>
<path fill-rule="evenodd" clip-rule="evenodd" d="M25.6662 21.7323C25.9745 21.8676 26.1643 21.9575 26.2383 21.879C26.2862 21.8301 26.2717 21.7367 26.198 21.6165C26.0458 21.3682 25.7327 21.1161 25.4003 20.9745C24.7211 20.6821 23.9106 20.7792 23.2854 21.2283C23.0791 21.3796 22.8835 21.589 22.9114 21.7161C22.9203 21.7571 22.9513 21.7881 23.0237 21.7984C23.1938 21.8177 23.7883 21.5173 24.4734 21.4753C24.9567 21.4457 25.3576 21.5969 25.6662 21.7323Z" fill="#231F20"/>
<path fill-rule="evenodd" clip-rule="evenodd" d="M25.0471 22.0864C24.6451 22.1498 24.4236 22.2824 24.2814 22.4053C24.1601 22.5114 24.085 22.6289 24.0857 22.7112C24.0861 22.7505 24.1029 22.7732 24.1164 22.7846C24.1346 22.8008 24.1563 22.8097 24.1825 22.8097C24.2731 22.8097 24.4767 22.7281 24.4767 22.7281C25.0357 22.528 25.4046 22.5524 25.77 22.5937C25.9719 22.6165 26.0676 22.6289 26.1117 22.5596C26.1248 22.5397 26.1407 22.4966 26.1004 22.4312C26.0063 22.2786 25.6002 22.0206 25.0471 22.0864Z" fill="#231F20"/>
<path fill-rule="evenodd" clip-rule="evenodd" d="M28.1175 23.3857C28.3903 23.5197 28.6906 23.467 28.7885 23.2683C28.8863 23.0695 28.7444 22.7995 28.4716 22.6655C28.1988 22.5315 27.8984 22.5842 27.8006 22.7829C27.7028 22.982 27.8447 23.2517 28.1175 23.3857Z" fill="#231F20"/>
<path fill-rule="evenodd" clip-rule="evenodd" d="M29.8716 21.8534C29.6501 21.8496 29.4662 22.0928 29.461 22.3969C29.4559 22.7011 29.6315 22.9501 29.853 22.9539C30.0745 22.9577 30.2584 22.7145 30.2636 22.4103C30.2688 22.1065 30.0931 21.8572 29.8716 21.8534Z" fill="#231F20"/>
<path fill-rule="evenodd" clip-rule="evenodd" d="M14.9848 27.3333C14.9297 27.264 14.8392 27.2851 14.7513 27.3057C14.69 27.3202 14.6208 27.336 14.5446 27.335C14.3817 27.3319 14.2436 27.2623 14.1661 27.1431C14.0652 26.9881 14.071 26.757 14.1823 26.4925L14.2343 26.374C14.412 25.9751 14.7093 25.308 14.3755 24.6721C14.1241 24.1933 13.7142 23.8954 13.2213 23.8327C12.748 23.7728 12.261 23.9481 11.9503 24.2908C11.4602 24.8316 11.3834 25.5677 11.4781 25.8277C11.5129 25.9228 11.5673 25.9493 11.6066 25.9548C11.6899 25.9658 11.8132 25.9052 11.8904 25.6975L11.9124 25.63C11.9469 25.5201 12.0109 25.3155 12.116 25.1516C12.2427 24.9539 12.4398 24.8178 12.6712 24.7679C12.9068 24.7172 13.1479 24.7624 13.3498 24.8946C13.6932 25.1192 13.8255 25.5401 13.6787 25.9414C13.6029 26.1491 13.4796 26.5462 13.5068 26.8724C13.562 27.5327 13.9681 27.7979 14.3328 27.8262C14.6876 27.8396 14.9356 27.6402 14.9983 27.4948C15.0351 27.4087 15.0041 27.3564 14.9838 27.334" fill="#231F20"/>
<path fill-rule="evenodd" clip-rule="evenodd" d="M18.3592 15.2056C19.5165 13.8684 20.9408 12.7059 22.217 12.0532C22.2611 12.0305 22.3079 12.0784 22.2841 12.1218C22.1829 12.3054 21.9876 12.6984 21.9259 12.9963C21.9163 13.0428 21.9669 13.0776 22.0062 13.0511C22.8001 12.51 24.181 11.9299 25.3924 11.8555C25.4444 11.8524 25.4695 11.9189 25.4282 11.9509C25.2439 12.0921 25.0424 12.2878 24.8954 12.4855C24.8702 12.5193 24.894 12.5675 24.936 12.5678C25.7864 12.574 26.9854 12.8716 27.767 13.3101C27.8197 13.3397 27.7821 13.442 27.7229 13.4286C26.5404 13.1575 24.605 12.9519 22.5941 13.4424C20.7993 13.8801 19.4291 14.5563 18.4298 15.2831C18.3792 15.3199 18.3182 15.2527 18.3592 15.2056ZM24.1224 28.1607L24.1228 28.1614L24.1235 28.1628L24.1224 28.1607ZM28.8943 28.7239C28.9288 28.7094 28.9522 28.6705 28.9484 28.6316C28.9436 28.5837 28.9009 28.5489 28.853 28.5537C28.853 28.5537 26.3837 28.9192 24.0508 28.0653C24.305 27.2394 24.9804 27.5376 26.0017 27.62C27.8424 27.7298 29.4923 27.4608 30.7116 27.1109C31.768 26.8078 33.1558 26.2098 34.2335 25.359C34.5969 26.1575 34.7254 27.0365 34.7254 27.0365C34.7254 27.0365 35.0068 26.9862 35.2421 27.1309C35.4642 27.2676 35.6272 27.5518 35.5159 28.2868C35.2893 29.6598 34.7058 30.7744 33.7248 31.7998C33.1275 32.4425 32.4028 33.0012 31.5734 33.4076C31.1329 33.6391 30.6641 33.8392 30.1684 34.0008C26.4705 35.2087 22.6851 33.8809 21.4651 31.0296C21.3676 30.8154 21.2853 30.5908 21.2205 30.3562C20.7007 28.4773 21.142 26.2229 22.5218 24.8038C22.6069 24.7136 22.6937 24.6064 22.6937 24.4724C22.6937 24.3605 22.6224 24.2424 22.5607 24.1583C22.0778 23.4581 20.4056 22.2649 20.7414 19.9558C20.9825 18.2969 22.4333 17.1286 23.7859 17.1978L24.1286 17.2174C24.7149 17.2522 25.226 17.3273 25.7086 17.3476C26.5163 17.3828 27.2424 17.2653 28.1028 16.5485C28.3928 16.3067 28.6257 16.097 29.0194 16.0305C29.0607 16.0233 29.1637 15.9864 29.3693 15.9961C29.5794 16.0074 29.7792 16.0649 29.9587 16.1845C30.6482 16.6433 30.7461 17.7548 30.7819 18.5677C30.8022 19.0316 30.8583 20.1545 30.8776 20.4769C30.9214 21.214 31.1153 21.3177 31.5073 21.4469C31.7277 21.5195 31.9323 21.5736 32.2341 21.6583C33.1468 21.9146 33.6879 22.1747 34.0293 22.5088C34.2329 22.7175 34.3276 22.9393 34.3569 23.1508C34.4643 23.9361 33.7472 24.9061 31.8483 25.7875C29.7727 26.7509 27.2544 26.9948 25.5147 26.8009L24.905 26.732C23.5135 26.5446 22.7195 28.3429 23.5548 29.5754C24.0932 30.3696 25.5594 30.8863 27.0264 30.8866C30.3899 30.887 32.9753 29.4507 33.937 28.2103L34.0138 28.1008C34.0613 28.0295 34.0221 27.9902 33.9632 28.0305C33.1775 28.5682 29.6876 30.7027 25.9545 30.0603C25.9545 30.0603 25.5009 29.9856 25.0869 29.8247C24.7579 29.6966 24.069 29.3797 23.9853 28.6733C26.9978 29.605 28.8943 28.7239 28.8943 28.7239ZM12.3477 21.5647C11.2999 21.7682 10.3764 22.362 9.81188 23.1825C9.47433 22.9011 8.84572 22.3562 8.73446 22.1437C7.83306 20.4318 9.71819 17.1038 11.0353 15.2242C14.2903 10.5793 19.3881 7.06362 21.7478 7.70153C22.1316 7.81003 23.4022 9.28321 23.4022 9.28321C23.4022 9.28321 21.0431 10.5921 18.8556 12.4166C15.9078 14.6861 13.6817 17.9849 12.3477 21.5647ZM14.1081 29.4197C13.9497 29.4469 13.7878 29.4576 13.6245 29.4534C12.048 29.4111 10.3454 27.992 10.1763 26.309C9.98927 24.4487 10.9399 23.0172 12.6229 22.6776C12.824 22.6369 13.0672 22.6135 13.3293 22.6273C14.2724 22.6789 15.6619 23.4029 15.9791 25.4572C16.2602 27.2765 15.8138 29.129 14.1081 29.4197ZM35.4622 26.1254C35.4487 26.0775 35.3606 25.7562 35.2397 25.3687C35.1188 24.9808 34.9937 24.7084 34.9937 24.7084C35.4787 23.9826 35.4873 23.3334 35.4226 22.9658C35.3537 22.5102 35.1639 22.122 34.7815 21.7203C34.3992 21.3191 33.617 20.9078 32.5179 20.5992L31.9413 20.439C31.9385 20.4153 31.911 19.0795 31.8862 18.506C31.8679 18.0913 31.8324 17.4441 31.6316 16.8069C31.3922 15.944 30.9755 15.189 30.455 14.7061C31.8913 13.2174 32.7879 11.5772 32.7855 10.1705C32.7814 7.4649 29.4585 6.64616 25.3635 8.34185L24.4958 8.71006C24.492 8.70627 22.9272 7.17109 22.9038 7.15042C18.2349 3.07808 3.6374 19.3037 8.30425 23.2445L9.32415 24.1087C9.05962 24.7942 8.95559 25.5795 9.04067 26.4237C9.14952 27.5084 9.70889 28.5479 10.6158 29.3511C11.4766 30.1137 12.6084 30.5966 13.7065 30.5956C15.5227 34.7809 19.6726 37.3484 24.5382 37.4931C29.7575 37.6481 34.1388 35.1991 35.9747 30.7999C36.0949 30.4912 36.6043 29.1 36.6043 27.8717C36.6043 26.6376 35.9065 26.1254 35.4622 26.1254Z" fill="#231F20"/>
</svg>
