<svg width="20" height="21" viewBox="0 0 20 21" fill="none" xmlns="http://www.w3.org/2000/svg">
<path d="M5.71339 4.96339C5.68995 4.98683 5.65815 5 5.625 5C5.59185 5 5.56005 4.98683 5.53661 4.96339C5.51317 4.93995 5.5 4.90815 5.5 4.875C5.5 4.84185 5.51317 4.81005 5.53661 4.78661C5.56005 4.76317 5.59185 4.75 5.625 4.75C5.65815 4.75 5.68995 4.76317 5.71339 4.78661C5.73683 4.81005 5.75 4.84185 5.75 4.875C5.75 4.90815 5.73683 4.93995 5.71339 4.96339Z" fill="#121417" stroke="#121417"/>
<path d="M16.875 14.25V11.75C16.875 11.4185 16.7433 11.1005 16.5089 10.8661C16.2745 10.6317 15.9565 10.5 15.625 10.5H10.625V8H16.25C16.5815 8 16.8995 7.8683 17.1339 7.63388C17.3683 7.39946 17.5 7.08152 17.5 6.75V3C17.5 2.66848 17.3683 2.35054 17.1339 2.11612C16.8995 1.8817 16.5815 1.75 16.25 1.75H3.75C3.41848 1.75 3.10054 1.8817 2.86612 2.11612C2.6317 2.35054 2.5 2.66848 2.5 3V6.75C2.5 7.08152 2.6317 7.39946 2.86612 7.63388C3.10054 7.8683 3.41848 8 3.75 8H9.375V10.5H4.375C4.04348 10.5 3.72554 10.6317 3.49112 10.8661C3.2567 11.1005 3.125 11.4185 3.125 11.75V14.25H1.25V19.25H6.25V14.25H4.375V11.75H9.375V14.25H7.5V19.25H12.5V14.25H10.625V11.75H15.625V14.25H13.75V19.25H18.75V14.25H16.875ZM5 18H2.5V15.5H5V18ZM11.25 15.5V18H8.75V15.5H11.25ZM3.75 6.75V3H16.25V6.75H3.75ZM17.5 18H15V15.5H17.5V18Z" fill="#121417"/>
</svg>
