<svg width="20" height="21" viewBox="0 0 20 21" fill="none" xmlns="http://www.w3.org/2000/svg">
<path d="M13.7507 18.7501H17.4993C17.6983 18.7498 17.8891 18.6706 18.0298 18.5299C18.1704 18.3893 18.2496 18.1988 18.25 18.0001C18.25 17.9998 18.25 17.9996 18.25 17.9994M13.7507 18.7501L17.5 13.0001C17.8314 13.0005 18.1491 13.1323 18.3834 13.3667C18.6177 13.601 18.7496 13.9187 18.75 14.2501V18.0001L18.25 17.9994M13.7507 18.7501C13.5517 18.7498 13.3609 18.6706 13.2202 18.5299C13.0794 18.3892 13.0003 18.1984 13 17.9994V14.2507C13.0003 14.0517 13.0794 13.8609 13.2202 13.7202C13.3607 13.5796 13.5513 13.5005 13.7501 13.5001C13.7503 13.5001 13.7505 13.5001 13.7507 13.5001H17.4993C17.4995 13.5001 17.4997 13.5001 17.4999 13.5001M13.7507 18.7501L17.4999 13.5001M18.25 17.9994V14.2507M18.25 17.9994V14.2507M17.4999 13.5001C17.6987 13.5005 17.8893 13.5796 18.0298 13.7202C18.1704 13.8608 18.2496 14.0513 18.25 14.2501C18.25 14.2503 18.25 14.2505 18.25 14.2507M17.4999 13.5001L18.25 14.2507M13.75 13.7501H13.25V14.2501V18.0001V18.5001H13.75H17.5H18V18.0001V14.2501V13.7501H17.5H13.75ZM4.84631 4.97541L6.13768 2.32018C6.13773 2.32009 6.13777 2.31999 6.13782 2.3199C6.14798 2.2992 6.16367 2.28172 6.18316 2.26938C6.20273 2.25699 6.22536 2.25029 6.24853 2.25001C6.27169 2.24973 6.29447 2.2559 6.31434 2.26782C6.33414 2.2797 6.35025 2.29683 6.36091 2.31731C6.36094 2.31738 6.36098 2.31744 6.36102 2.31751L7.73901 4.98769L7.85314 5.20885L8.09839 5.25113L10.6455 5.69023C10.6456 5.69023 10.6456 5.69024 10.6456 5.69025C10.6678 5.6941 10.6885 5.70386 10.7055 5.71849C10.7226 5.73315 10.7355 5.75216 10.7426 5.7735C10.7498 5.79484 10.7511 5.81773 10.7464 5.83974C10.7416 5.86175 10.731 5.88208 10.7157 5.89856L8.9544 7.78648L8.77273 7.98121L8.83295 8.24062L9.49628 11.0981L9.49635 11.0984C9.50061 11.1167 9.50068 11.1358 9.49656 11.1541C9.49243 11.1725 9.48422 11.1897 9.47252 11.2044C9.46082 11.2192 9.44595 11.2311 9.42901 11.2393C9.41817 11.2445 9.40666 11.2481 9.39485 11.2501L9.37542 11.2501C9.35383 11.25 9.33262 11.2444 9.31392 11.2336L9.31246 11.2327L6.49829 9.62273L6.25 9.48069L6.00171 9.62273L3.18754 11.2327L3.18689 11.2331C3.16578 11.2452 3.14159 11.2509 3.1173 11.2495C3.093 11.2481 3.06965 11.2396 3.05011 11.2251C3.03058 11.2105 3.0157 11.1906 3.00731 11.1678C2.99892 11.1449 2.99738 11.1202 3.00289 11.0964L3.66702 8.23823L3.72735 7.97862L3.54545 7.78382L1.78379 5.89715L1.78352 5.89687C1.76808 5.88036 1.75741 5.85997 1.75263 5.83788C1.74786 5.81578 1.74917 5.79281 1.75642 5.77139C1.76367 5.74998 1.77659 5.73094 1.79381 5.71629C1.81098 5.70168 1.83179 5.69198 1.85402 5.68823C1.85407 5.68822 1.85413 5.68821 1.85419 5.6882L4.47902 5.2499L4.73348 5.20741L4.84631 4.97541ZM6.31075 9.22637L6.31229 9.22724L8.19312 10.3047L9.18747 10.8744L8.92876 9.75802L8.49969 7.9065L9.74393 6.57281L10.3755 5.89586L9.46307 5.73896L7.68766 5.43366L6.71101 3.5408L6.2533 2.65371L5.81696 3.5515L4.90223 5.43364L3.04418 5.74441L2.12588 5.89801L2.76112 6.5787L4.00022 7.90646L3.57045 9.75783L3.31126 10.8744L4.30596 10.3048L6.18763 9.22729L6.18763 9.22729L6.18924 9.22636C6.20536 9.21705 6.22636 9.20532 6.25 9.19232C6.27363 9.20532 6.29464 9.21706 6.31075 9.22637ZM10.75 16.2501L7.50066 16.2501C7.50046 16.2501 7.50026 16.2501 7.50005 16.2501C7.50003 16.2501 7.50002 16.2501 7.5 16.2501C7.13554 16.2494 6.78618 16.1043 6.52846 15.8466C6.27065 15.5888 6.12557 15.2393 6.125 14.8747C6.125 14.8746 6.125 14.8745 6.125 14.8744L6.125 12.8751H6.375V14.8751C6.375 15.1734 6.49353 15.4596 6.7045 15.6706C6.91548 15.8815 7.20163 16.0001 7.5 16.0001H10.75V16.2501ZM15.75 11.2501H15.5V9.87506C15.5 9.57669 15.3815 9.29055 15.1705 9.07957C14.9595 8.86859 14.6734 8.75006 14.375 8.75006H11.75V8.50006L14.3743 8.50006C14.3744 8.50006 14.3746 8.50006 14.3747 8.50006C14.7392 8.50063 15.0887 8.64572 15.3465 8.90352C15.6043 9.16125 15.7493 9.5106 15.75 9.87506C15.75 9.87508 15.75 9.8751 15.75 9.87511C15.75 9.87532 15.75 9.87552 15.75 9.87573L15.75 11.2501Z" fill="#121417" stroke="#121417"/>
</svg>
