<svg width="20" height="21" viewBox="0 0 20 21" fill="none" xmlns="http://www.w3.org/2000/svg">
<path d="M2.5 2.5H2V3V6.875H1.75V2.25H6.375V2.5H2.5ZM2 18V18.5H2.5H6.375V18.75H1.75V14.125H2V18ZM18 3V2.5H17.5H13.625V2.25H18.25V6.875H18V3ZM17.5 18.5H18V18V14.125H18.25V18.75H13.625V18.5H17.5ZM10.0558 4.14135L10.0558 4.1414L10.063 4.14541L15.6862 7.26938C15.6864 7.26949 15.6866 7.2696 15.6868 7.26971C15.7058 7.28055 15.7217 7.29622 15.7328 7.31515C15.744 7.33428 15.75 7.35604 15.75 7.37822V13.6275H15.75L15.75 13.6323C15.7502 13.6541 15.7447 13.6757 15.734 13.6948C15.724 13.7125 15.7098 13.7276 15.6926 13.7386L10.0763 16.8588L10.0763 16.8587L10.0692 16.8628C10.0502 16.8738 10.0286 16.8796 10.0067 16.8796C9.98472 16.8796 9.96317 16.8738 9.94417 16.8628L9.9442 16.8628L9.93699 16.8588L4.31383 13.7348C4.31365 13.7347 4.31346 13.7346 4.31328 13.7345C4.29422 13.7236 4.27833 13.708 4.26722 13.6891C4.25607 13.6701 4.25014 13.6485 4.25 13.6265V7.3775H4.25003L4.24997 7.37207C4.24973 7.35016 4.25526 7.32858 4.26599 7.30947C4.276 7.29167 4.29021 7.27661 4.30735 7.26558L9.92365 4.14541L9.92369 4.14547L9.93083 4.14135C9.94983 4.13038 9.97139 4.1246 9.99333 4.1246C10.0153 4.1246 10.0368 4.13038 10.0558 4.14135ZM10.243 4.52804L10 4.39286L9.75696 4.52804L5.41946 6.94054L4.63384 7.3775L5.41946 7.81446L9.75696 10.227L10 10.3621L10.243 10.227L14.5805 7.81446L15.3662 7.3775L14.5805 6.94054L10.243 4.52804ZM9.875 10.8708V10.5766L9.61784 10.4338L5.24284 8.00293L5 8.44H4.5V13.2583V13.5525L4.75709 13.6954L9.13209 16.127L9.875 16.5399V15.69V10.8708ZM10.3822 10.4338L10.125 10.5766V10.8708V15.69H10.625L10.8679 16.127L15.2429 13.6954L15.5 13.5525V13.2583V8.44V7.5902L14.7572 8.00293L10.3822 10.4338Z" fill="#121417" stroke="#121417"/>
</svg>
