<svg width="20" height="21" viewBox="0 0 20 21" fill="none" xmlns="http://www.w3.org/2000/svg">
<path d="M13.0207 12.7034L12.7288 13.0542L13.0514 13.3768L17.4183 17.7437L17.2417 17.9203L12.8752 13.5539L12.5523 13.2309L12.2015 13.5234C10.9391 14.576 9.31948 15.1013 7.67961 14.9902C6.03975 14.879 4.50586 14.1399 3.39705 12.9266C2.28824 11.7133 1.68988 10.1193 1.72644 8.47605C1.763 6.83283 2.43166 5.26696 3.59334 4.10419C4.75501 2.94142 6.32025 2.27127 7.96344 2.23316C9.60663 2.19506 11.2013 2.79192 12.4156 3.89958C13.6299 5.00725 14.3705 6.54043 14.4832 8.1802C14.5959 9.81996 14.072 11.44 13.0207 12.7034ZM8.1244 14.7524H8.12499C9.3364 14.7524 10.5206 14.3932 11.5279 13.7202C12.5351 13.0472 13.3202 12.0906 13.7838 10.9714C14.2473 9.85217 14.3686 8.62064 14.1323 7.4325C13.896 6.24437 13.3126 5.153 12.456 4.2964C11.5994 3.4398 10.5081 2.85645 9.31992 2.62012C8.13179 2.38379 6.90026 2.50508 5.78106 2.96867C4.66186 3.43225 3.70527 4.21731 3.03224 5.22456C2.35922 6.23181 1.99999 7.41602 1.99999 8.62743H2.49999L1.99999 8.62802C2.00192 10.2517 2.64778 11.8084 3.79591 12.9565C4.94405 14.1046 6.5007 14.7505 8.1244 14.7524Z" fill="#121417" stroke="#121417"/>
</svg>
