<svg width="20" height="21" viewBox="0 0 20 21" fill="none" xmlns="http://www.w3.org/2000/svg">
<path d="M3.75 14.75H8.875V15H3.75C3.21957 15 2.71086 14.7893 2.33579 14.4142C1.96071 14.0391 1.75 13.5304 1.75 13V5.5C1.75 4.96957 1.96071 4.46086 2.33579 4.08579C2.71086 3.71071 3.21957 3.5 3.75 3.5H16.25C16.7804 3.5 17.2891 3.71071 17.6642 4.08579C18.0393 4.46086 18.25 4.96957 18.25 5.5V13C18.25 13.5304 18.0393 14.0391 17.6642 14.4142C17.2891 14.7893 16.7804 15 16.25 15H13.225H12.9345L12.7906 15.2524L10.9016 18.5665L10.6816 18.44L12.7902 14.75H16.25C16.7141 14.75 17.1592 14.5656 17.4874 14.2374C17.8156 13.9092 18 13.4641 18 13V5.5C18 5.03587 17.8156 4.59075 17.4874 4.26256C17.1592 3.93437 16.7141 3.75 16.25 3.75H3.75C3.28587 3.75 2.84075 3.93437 2.51256 4.26256C2.18437 4.59075 2 5.03587 2 5.5V13C2 13.4641 2.18437 13.9092 2.51256 14.2374C2.84075 14.5656 3.28587 14.75 3.75 14.75Z" fill="#121417" stroke="#121417"/>
<path d="M15 6.75H5V8H15V6.75ZM11.25 10.5H5V11.75H11.25V10.5Z" fill="#121417"/>
</svg>
