<svg width="20" height="21" viewBox="0 0 20 21" fill="none" xmlns="http://www.w3.org/2000/svg">
<path d="M14.875 6.875V5.375H16.375V6.875H14.875ZM14.875 10.625V9.125H16.375V10.625H14.875ZM11.125 6.875V5.375H12.625V6.875H11.125ZM11.125 10.625V9.125H12.625V10.625H11.125ZM9.37186 16.1219C9.28981 16.2039 9.17853 16.25 9.0625 16.25C8.94647 16.25 8.83519 16.2039 8.75314 16.1219C8.67109 16.0398 8.625 15.9285 8.625 15.8125C8.625 15.6965 8.67109 15.5852 8.75314 15.5031C8.83519 15.4211 8.94647 15.375 9.0625 15.375C9.17853 15.375 9.28981 15.4211 9.37186 15.5031C9.45391 15.5852 9.5 15.6965 9.5 15.8125C9.5 15.9285 9.45391 16.0398 9.37186 16.1219Z" fill="#121417" stroke="#121417"/>
<path d="M13.125 19.25H5C4.66861 19.2496 4.35093 19.1177 4.1166 18.8834C3.88228 18.6491 3.75044 18.3314 3.75 18V3C3.75044 2.66861 3.88228 2.35093 4.1166 2.1166C4.35093 1.88228 4.66861 1.75044 5 1.75H13.125V3H5V18H13.125V13H14.375V18C14.3746 18.3314 14.2427 18.6491 14.0084 18.8834C13.7741 19.1177 13.4564 19.2496 13.125 19.25V19.25Z" fill="#121417"/>
</svg>
