<svg width="20" height="21" viewBox="0 0 20 21" fill="none" xmlns="http://www.w3.org/2000/svg">
<path d="M17.5554 11.0139L17.5558 11.0141C17.5766 11.0245 17.5941 11.0404 17.6063 11.0602C17.6185 11.0799 17.625 11.1026 17.625 11.1258L17.625 15.5001L17.625 15.5008C17.625 15.524 17.6186 15.5468 17.6064 15.5666C17.5941 15.5864 17.5766 15.6024 17.5558 15.6128L17.5556 15.6129L13.8064 17.4875C13.8064 17.4875 13.8063 17.4875 13.8063 17.4875C13.7888 17.4962 13.7695 17.5007 13.75 17.5007C13.7305 17.5007 13.7113 17.4963 13.6939 17.4876C13.6938 17.4876 13.6937 17.4875 13.6936 17.4875L10.2236 15.7529L10.0001 15.6412L9.77661 15.7528L6.30613 17.486C6.30608 17.486 6.30603 17.486 6.30598 17.486C6.28859 17.4947 6.26943 17.4992 6.25 17.4992C6.23056 17.4992 6.21138 17.4947 6.19398 17.486C6.19394 17.486 6.1939 17.486 6.19387 17.486L2.44444 15.6112L2.44417 15.6111C2.42341 15.6007 2.40595 15.5848 2.39373 15.5651C2.38155 15.5454 2.37507 15.5228 2.375 15.4997V11.126C2.375 11.126 2.375 11.126 2.375 11.126C2.375 11.1027 2.38148 11.08 2.39369 11.0602C2.40591 11.0405 2.42339 11.0245 2.44417 11.0141L2.44457 11.0139L5.84874 9.3106L6.125 9.17237V8.86346L6.125 4.87581C6.125 4.87573 6.125 4.87566 6.125 4.87559C6.12507 4.85247 6.13156 4.82982 6.14373 4.81015C6.15595 4.79043 6.17341 4.7745 6.19417 4.76414L6.19444 4.764L9.94417 2.88914C9.94421 2.88912 9.94425 2.8891 9.94429 2.88908C9.9616 2.88046 9.98067 2.87598 10 2.87598C10.0194 2.87598 10.0385 2.88048 10.0558 2.88914L10.2791 3.00079L9.77646 3.25204L7.42396 4.42788L6.52915 4.87512L7.42396 5.32237L9.77646 6.4982L9.99992 6.60989L10.2234 6.49826L12.5759 5.32326L13.4712 4.87611L12.576 4.42871L10.5 3.39106V3.11122L13.8056 4.764L13.8058 4.76414C13.8266 4.7745 13.8441 4.79044 13.8563 4.81015C13.8685 4.82988 13.875 4.85261 13.875 4.87581V8.86346V9.17237L14.1513 9.3106L17.5554 11.0139ZM10.125 10.1135V10.9225L10.8486 10.5607L13.3486 9.31067L13.125 8.86346H13.625V5.88679V5.07777L12.9014 5.43957L10.4014 6.68958L10.125 6.82777V7.13679V10.1135ZM7.09861 5.43957L6.375 5.07777V5.88679V8.86346V9.17247L6.65139 9.31067L9.15139 10.5607L9.875 10.9225V10.1135V7.13679V6.82777L9.59861 6.68958L7.09861 5.43957ZM5.40139 16.8107L6.125 17.1725V16.3635V13.3868V13.0778L5.84861 12.9396L3.34861 11.6896L2.625 11.3278V12.1368V15.1135V15.4225L2.90139 15.5607L5.40139 16.8107ZM3.67396 10.6779L2.77915 11.1251L3.67396 11.5724L6.02646 12.7482L6.25 12.301L6.47354 12.7482L8.82604 11.5724L9.72085 11.1251L8.82604 10.6779L6.47354 9.50204L6.25 9.39031L6.02646 9.50204L3.67396 10.6779ZM6.65139 12.9396L6.375 13.0778V13.3868V16.3635V17.1725L7.09861 16.8107L9.59861 15.5607L9.875 15.4225V15.1135V12.1368V11.3278L9.15139 11.6896L6.65139 12.9396ZM12.9014 16.8107L13.625 17.1725V16.3635V13.3868V13.0778L13.3486 12.9396L10.8486 11.6896L10.125 11.3278V12.1368V15.1135V15.4225L10.4014 15.5607L12.9014 16.8107ZM13.5265 12.7482L13.75 12.8599L13.9735 12.7482L16.326 11.5724L17.2208 11.1251L16.326 10.6779L13.9735 9.50204L13.75 9.39031L13.5265 9.50204L11.174 10.6779L10.2791 11.1251L11.174 11.5724L13.5265 12.7482ZM17.0986 15.5607L17.375 15.4225V15.1135V12.1368V11.3278L16.6514 11.6896L14.1514 12.9396L13.875 13.0778V13.3868V16.3635V17.1725L14.5986 16.8107L17.0986 15.5607Z" fill="#121417" stroke="#121417"/>
</svg>
