<svg width="20" height="21" viewBox="0 0 20 21" fill="none" xmlns="http://www.w3.org/2000/svg">
<path d="M16.4095 5.91119L17.7265 5H16.125H3.875H2.27347L3.59053 5.91119L9.71553 10.1487L10 10.3455L10.2845 10.1487L16.4095 5.91119ZM2 15.5V16H2.5H17.5H18V15.5V6.06833V5.11418L17.2154 5.6572L10.0721 10.6014L10.0713 10.6019C10.0504 10.6165 10.0255 10.6243 10 10.6243C9.9745 10.6243 9.94961 10.6165 9.92867 10.6019L9.92786 10.6013L2.78453 5.65802L2 5.11511V6.06917V15.5ZM2.5 4.75H17.5C17.6989 4.75 17.8897 4.82902 18.0303 4.96967C18.171 5.11032 18.25 5.30109 18.25 5.5V15.5C18.25 15.6989 18.171 15.8897 18.0303 16.0303C17.8897 16.171 17.6989 16.25 17.5 16.25H2.5C2.30109 16.25 2.11032 16.171 1.96967 16.0303C1.82902 15.8897 1.75 15.6989 1.75 15.5V5.5C1.75 5.30109 1.82902 5.11032 1.96967 4.96967C2.11032 4.82902 2.30109 4.75 2.5 4.75Z" fill="#121417" stroke="#121417"/>
</svg>
