<svg width="30" height="30" viewBox="0 0 30 30" fill="none" xmlns="http://www.w3.org/2000/svg">
<path d="M6 24H2C1.46978 23.9993 0.961486 23.7884 0.586566 23.4134C0.211646 23.0385 0.000705545 22.5302 0 22V18H2V22H6V24ZM2 10H0V14H2V10ZM24 6H22V2H18V0H22C22.5302 0.000705545 23.0385 0.211646 23.4134 0.586566C23.7884 0.961486 23.9993 1.46978 24 2V6ZM14 0H10V2H14V0ZM2 6H0V2C0.000705545 1.46978 0.211646 0.961486 0.586566 0.586566C0.961486 0.211646 1.46978 0.000705545 2 0H6V2H2V6ZM25 30C24.8687 30.0001 24.7387 29.9742 24.6174 29.9239C24.4961 29.8736 24.386 29.7997 24.2933 29.7067L18.156 23.5693L14.832 28.556C14.7265 28.7137 14.5784 28.8382 14.4048 28.9148C14.2313 28.9915 14.0395 29.0172 13.8519 28.989C13.6643 28.9607 13.4886 28.8797 13.3453 28.7554C13.202 28.631 13.097 28.4684 13.0427 28.2867L7.04267 8.28667C6.99117 8.11391 6.98733 7.93044 7.03155 7.75568C7.07577 7.58092 7.16642 7.42136 7.29389 7.29389C7.42136 7.16642 7.58092 7.07577 7.75568 7.03155C7.93044 6.98733 8.11391 6.99117 8.28667 7.04267L28.2867 13.0427C28.4684 13.0972 28.6308 13.2023 28.755 13.3456C28.8792 13.489 28.9601 13.6647 28.9882 13.8523C29.0163 14.0399 28.9904 14.2317 28.9137 14.4051C28.8369 14.5786 28.7124 14.7266 28.5547 14.832L23.5693 18.156L29.7067 24.2933C29.8939 24.4808 29.9991 24.735 29.9991 25C29.9991 25.265 29.8939 25.5192 29.7067 25.7067L25.7067 29.7067C25.5193 29.8943 25.2651 29.9998 25 30V30ZM25 27.5867L27.5867 25L20.4307 17.8453L25.6773 14.348L9.49067 9.492L14.348 25.6773L17.8453 20.4307L25 27.5853V27.5867Z" fill="#121417"/>
</svg>
