<svg width="142" height="27" viewBox="0 0 142 27" fill="none" xmlns="http://www.w3.org/2000/svg">
<path d="M70.3769 8.78796C69.0572 7.51503 67.4278 6.89514 65.4886 6.89514C63.5495 6.89514 61.9217 7.51669 60.6004 8.78796C59.2791 10.0592 58.6052 11.6985 58.6052 13.7338C58.6052 15.7692 59.2791 17.4349 60.6284 18.7361C61.9481 20.009 63.5775 20.6571 65.4886 20.6571C67.3998 20.6571 69.0275 20.0073 70.3489 18.7361C71.6982 17.4366 72.372 15.7692 72.372 13.7338C72.372 11.6985 71.6982 10.0592 70.3769 8.78796ZM68.4015 16.7869C67.6173 17.5609 66.6403 17.9454 65.4886 17.9454C64.337 17.9454 63.36 17.5609 62.5758 16.7869C61.7767 15.9979 61.3681 14.9869 61.3681 13.7338C61.3681 12.4808 61.7817 11.5327 62.5758 10.767C63.365 10.0062 64.337 9.61835 65.4886 9.61835C66.6403 9.61835 67.6123 10.0079 68.4015 10.767C69.1956 11.5327 69.6091 12.509 69.6091 13.7338C69.6091 14.9587 69.1989 15.9963 68.4015 16.7869Z" fill="#FB1E00"/>
<path d="M108.525 8.78796C107.206 7.51503 105.576 6.89514 103.637 6.89514C101.698 6.89514 100.069 7.51669 98.7488 8.78796C97.4275 10.0592 96.7537 11.6985 96.7537 13.7338C96.7537 15.7692 97.4275 17.4349 98.7768 18.7361C100.097 20.009 101.726 20.6571 103.637 20.6571C105.548 20.6571 107.176 20.0073 108.497 18.7361C109.847 17.4366 110.52 15.7692 110.52 13.7338C110.52 11.6985 109.847 10.0592 108.525 8.78796ZM106.55 16.7869C105.766 17.5609 104.789 17.9454 103.637 17.9454C102.485 17.9454 101.508 17.5609 100.724 16.7869C99.9268 15.9979 99.5166 14.9869 99.5166 13.7338C99.5166 12.4808 99.9301 11.5327 100.724 10.767C101.513 10.0062 102.485 9.61835 103.637 9.61835C104.789 9.61835 105.761 10.0079 106.55 10.767C107.344 11.5327 107.758 12.509 107.758 13.7338C107.758 14.9587 107.347 15.9963 106.55 16.7869Z" fill="#FB1E00"/>
<path d="M140.005 8.78796C138.685 7.51503 137.056 6.89514 135.117 6.89514C133.177 6.89514 131.548 7.51669 130.228 8.78796C128.907 10.0592 128.233 11.6985 128.233 13.7338C128.233 15.7692 128.907 17.4349 130.256 18.7361C131.578 20.009 133.205 20.6571 135.117 20.6571C137.028 20.6571 138.655 20.0073 139.977 18.7361C141.326 17.4366 142 15.7692 142 13.7338C142 11.6985 141.326 10.0592 140.005 8.78796ZM138.029 16.7869C137.245 17.5609 136.268 17.9454 135.118 17.9454C133.968 17.9454 132.99 17.5609 132.205 16.7869C131.406 15.9979 130.998 14.9869 130.998 13.7338C130.998 12.4808 131.411 11.5327 132.205 10.767C132.995 10.0062 133.967 9.61835 135.118 9.61835C136.27 9.61835 137.242 10.0079 138.029 10.767C138.824 11.5327 139.237 12.509 139.237 13.7338C139.237 14.9587 138.827 15.9963 138.029 16.7869Z" fill="#FB1E00"/>
<path d="M45.9471 8.83093C44.6274 7.558 42.998 6.93811 41.0589 6.93811C39.5333 6.93811 37.5974 7.61767 36.3914 8.83093C35.1854 10.0442 34.3699 11.5028 34.3699 14.2956V24.8835C34.3699 25.6625 34.9778 26.3288 35.7505 26.3288C36.5232 26.3288 37.1311 25.6625 37.1311 24.8835V14.2956C37.1311 12.6663 37.5579 11.5873 38.3322 10.8099C39.1049 10.0326 40.1857 9.66132 41.0589 9.66132C42.2105 9.66132 43.1826 10.0492 43.9717 10.8099C44.7658 11.5757 45.1794 12.5536 45.1794 13.7785C45.1794 15.0033 44.7691 16.0409 43.9717 16.8315C43.1875 17.6055 42.2105 17.9801 41.0589 17.9801H40.3208C39.5629 17.9801 38.9138 18.5785 38.9138 19.3409C38.9138 20.1033 39.5629 20.7033 40.3208 20.7033H41.0589C42.97 20.7033 44.5978 20.0536 45.9191 18.7823C47.2684 17.4829 47.9423 15.8155 47.9423 13.7801C47.9423 11.7448 47.2684 10.1055 45.9471 8.83425V8.83093Z" fill="#FB1E00"/>
<path d="M114.425 18.7639C115.745 20.0369 117.376 20.6568 119.313 20.6568C120.839 20.6568 122.775 19.9772 123.983 18.7639C125.189 17.5507 126.004 16.0921 126.004 13.2993V2.71142C126.004 1.93241 125.396 1.26611 124.623 1.26611C123.851 1.26611 123.243 1.93241 123.243 2.71142V13.2993C123.243 14.9286 122.816 16.0076 122.042 16.7849C121.269 17.5623 120.188 17.9335 119.315 17.9335C118.163 17.9335 117.191 17.544 116.402 16.7849C115.608 16.0192 115.195 15.0413 115.195 13.8164C115.195 12.5916 115.605 11.554 116.402 10.7634C117.186 9.98934 118.163 9.61475 119.315 9.61475H120.053C120.811 9.61475 121.46 9.01641 121.46 8.25397C121.46 7.49154 120.811 6.89154 120.053 6.89154H119.315C117.404 6.89154 115.776 7.54126 114.455 8.81254C113.105 10.112 112.432 11.7794 112.432 13.8148C112.432 15.8501 113.105 17.4894 114.427 18.7606L114.425 18.7639Z" fill="#FB1E00"/>
<path d="M56.5289 7.03589H56.1977C54.7809 7.03589 53.7759 7.60937 53.0213 9.17236V8.4812C53.0213 7.70385 52.4133 7.03589 51.6406 7.03589C50.868 7.03589 50.26 7.70219 50.26 8.4812V19.1072C50.26 19.8862 50.868 20.5525 51.6406 20.5525C52.4133 20.5525 53.0213 19.8862 53.0213 19.1072V15.3862C53.0213 11.642 54.3854 9.67125 56.5289 9.67125C57.262 9.67125 57.8898 9.0928 57.8898 8.35523C57.8898 7.61766 57.262 7.03755 56.5289 7.03755V7.03589Z" fill="#FB1E00"/>
<path d="M92.8785 8.60735C91.7878 7.48028 90.4434 6.92834 88.842 6.92834C87.2406 6.92834 85.626 7.60956 84.5255 9.12614C83.4249 7.60956 81.8103 6.92834 80.2089 6.92834C78.6075 6.92834 77.2631 7.47862 76.1724 8.60735C75.0818 9.73443 74.5249 11.1864 74.5249 12.9913V19.1074C74.5249 19.8864 75.1328 20.5527 75.9055 20.5527C76.6782 20.5527 77.2878 19.8864 77.2878 19.1074V12.9913C77.2878 11.9985 77.5811 11.2046 78.1462 10.583C78.7064 9.96647 79.3967 9.65156 80.2155 9.65156C81.0343 9.65156 81.7246 9.96647 82.2848 10.583C82.8499 11.2046 83.1432 11.9969 83.1432 12.9913V19.1074C83.1432 19.8864 83.7511 20.5527 84.5238 20.5527C85.2965 20.5527 85.9044 19.8864 85.9044 19.1074V12.9913C85.9044 11.9985 86.1994 11.2046 86.7628 10.583C87.323 9.96647 88.0133 9.65156 88.8321 9.65156C89.6509 9.65156 90.3413 9.96647 90.9014 10.583C91.4665 11.2046 91.7598 11.9969 91.7598 12.9913V19.1074C91.7598 19.8864 92.3677 20.5527 93.1404 20.5527C93.9131 20.5527 94.5211 19.8864 94.5211 19.1074V12.9913C94.5211 11.188 93.9658 9.73443 92.8735 8.60735H92.8785Z" fill="#FB1E00"/>
<path d="M21.2932 12.358C20.5155 12.358 19.8829 12.9928 19.8829 13.7768C19.8829 15.5254 19.2058 17.1696 17.9767 18.4044C16.7476 19.6409 15.1133 20.3221 13.3751 20.3221C11.637 20.3221 10.0026 19.6409 8.7752 18.4044C7.54613 17.168 6.86899 15.5238 6.86899 13.7752C6.86899 12.0265 7.54613 10.3823 8.7752 9.14752C10.0043 7.91105 11.6386 7.22983 13.3751 7.22983C14.1544 7.22983 14.7854 6.59502 14.7854 5.81104C14.7854 5.02707 14.1544 4.39226 13.3751 4.39226C11.6238 4.39226 9.9466 4.87624 8.49182 5.77955C7.45552 6.40276 6.17044 5.48452 6.4291 4.29281C6.65811 3.24032 6.36814 2.09501 5.55426 1.27789C4.28401 -1.7792e-05 2.22294 -1.7792e-05 0.952689 1.27789C-0.317563 2.55579 -0.317563 4.62927 0.952689 5.90718C1.76657 6.72596 2.90008 7.02099 3.94626 6.79061C5.13084 6.53038 6.04687 7.81989 5.42905 8.86243C4.53114 10.326 4.04841 12.0133 4.04841 13.7768C4.04841 16.2829 5.01881 18.6398 6.78003 20.4116C8.54125 22.1835 10.884 23.1597 13.3751 23.1597C15.8662 23.1597 18.209 22.1835 19.9702 20.4116C21.7314 18.6398 22.7018 16.2829 22.7018 13.7768C22.7018 12.9928 22.0708 12.358 21.2915 12.358H21.2932Z" fill="#FB1E00"/>
<path d="M25.7991 1.2779C24.1054 -0.425968 21.359 -0.425968 19.6653 1.2779C18.8004 2.14807 18.3769 3.29006 18.3951 4.4304C18.4429 7.54974 16.1182 10.1934 13.034 10.5216C12.319 10.5978 11.6237 10.9094 11.0767 11.4614C9.80646 12.7393 9.80646 14.8127 11.0767 16.0906C12.347 17.3685 14.408 17.3685 15.6783 16.0906C16.2253 15.5387 16.5366 14.8393 16.6108 14.1199C16.9386 11.0172 19.5648 8.68013 22.6655 8.7282C23.799 8.74643 24.9341 8.32046 25.7991 7.45029C27.4944 5.74476 27.4944 2.98343 25.7991 1.2779Z" fill="#FB1E00"/>
</svg>
