<svg width="196" height="48" viewBox="0 0 196 48" fill="none" xmlns="http://www.w3.org/2000/svg">
<path d="M14.4276 2.36694C20.8064 -0.747725 28.5456 -0.76946 34.9856 2.18951C30.0062 1.77567 25.0291 3.42526 20.8836 6.11633C16.5762 8.8899 13.4065 13.3388 12.1153 18.2867C11.2025 21.813 11.3586 25.6568 12.817 29.0163C14.8259 33.8099 19.7144 37.3761 24.9736 37.3898C27.9739 37.4213 30.9998 36.426 33.3121 34.496C36.0737 32.221 37.8301 28.7595 38.0116 25.184C38.1415 22.2822 37.4301 19.2425 35.5653 16.9582C33.5387 14.4308 30.4538 13.0216 27.3688 12.2725C27.061 7.6262 30.6707 3.21059 35.1888 2.30395C40.3571 4.7484 44.5975 9.09083 46.888 14.3306C49.1253 19.3627 49.5294 25.1738 48.0333 30.473C46.6907 35.302 43.7774 39.6808 39.8426 42.787C35.6656 46.1319 30.3393 48.0068 24.9856 47.9988C20.2764 48.0463 15.5689 46.6504 11.6443 44.0507C6.84409 40.9103 3.23087 35.9984 1.70725 30.465C0.295851 25.4421 0.581945 19.954 2.52562 15.1108C4.71546 9.57386 9.05789 4.93735 14.4276 2.36694Z" fill="#8D96A5"/>
<path d="M133.598 11.5868C134.369 10.2721 135.832 9.48744 137.32 9.31223C139.043 9.09533 140.821 9.29804 142.44 9.94075C142.296 11.1965 142.103 12.446 141.937 13.7021C140.711 13.2328 139.181 12.866 137.996 13.6112C137.078 14.2322 137.147 15.4484 137.18 16.4242C138.432 16.4163 139.686 16.422 140.941 16.4185C140.941 17.6405 140.941 18.8625 140.94 20.0827C139.689 20.0809 138.442 20.0867 137.194 20.0769C137.188 24.7055 137.192 29.3318 137.192 33.9585C135.694 33.9603 134.196 33.9541 132.7 33.9625C132.694 29.3318 132.703 24.7037 132.694 20.0752C131.915 20.0867 131.136 20.0827 130.358 20.0827C130.354 18.8607 130.355 17.6405 130.358 16.4185C131.136 16.4202 131.917 16.4185 132.698 16.4242C132.654 14.7804 132.696 13.0279 133.598 11.5868Z" fill="#8D96A5"/>
<path d="M101.706 20.3093C100.411 21.0682 99.7029 22.5328 99.4864 23.9717C99.3383 25.3871 99.4412 26.8633 100.024 28.1784C100.462 29.1716 101.286 30.0409 102.348 30.3528C103.78 30.7724 105.39 30.1616 106.293 28.9986C106.269 26.0906 106.291 23.1831 106.281 20.2756C104.834 19.726 103.101 19.5029 101.706 20.3093ZM106.285 9.6883C107.791 9.69806 109.299 9.69407 110.805 9.69185V33.9598C109.423 33.958 108.044 33.95 106.664 33.966C106.587 33.5144 106.523 33.0611 106.48 32.606C104.409 34.9338 100.569 34.8291 98.2542 32.925C95.9637 31.09 94.9998 28.0303 95.0158 25.1782C94.9564 22.1483 96.2063 18.9099 98.8379 17.2323C101.01 15.7792 103.847 15.7083 106.285 16.477C106.283 14.2144 106.281 11.9513 106.285 9.6883Z" fill="#8D96A5"/>
<path d="M83.2021 19.9409C81.8777 20.3747 80.9843 21.6202 80.6454 22.9291C80.2156 24.5791 80.2494 26.3844 80.8881 27.9772C81.3077 29.0537 82.1731 30.0234 83.3223 30.3174C84.5723 30.6936 86.0249 30.325 86.8983 29.3434C88.0693 28.0784 88.3549 26.2527 88.268 24.5889C88.2015 23.1185 87.7477 21.5514 86.5807 20.5734C85.6701 19.7714 84.3376 19.6135 83.2021 19.9409ZM82.0431 16.2505C84.2764 15.7541 86.7781 15.9058 88.7395 17.1788C90.7816 18.4367 92.0906 20.6563 92.5341 22.9823C93.0167 25.59 92.6286 28.4115 91.1955 30.6718C90.1052 32.4266 88.2959 33.7435 86.2613 34.1556C84.2214 34.5552 81.9859 34.3742 80.1704 33.2977C78.4396 32.3179 77.1839 30.627 76.5434 28.7623C75.5654 26.0318 75.7273 22.8958 77.054 20.3077C78.0435 18.3285 79.8905 16.7907 82.0431 16.2505Z" fill="#8D96A5"/>
<path d="M119.079 26.6171C118.174 27.1356 117.739 28.3163 118.058 29.3024C118.337 30.0923 119.195 30.4947 119.987 30.5341C121.279 30.6818 122.536 30.1278 123.506 29.3059C123.496 28.1114 123.504 26.9191 123.5 25.7242C122.012 25.8843 120.433 25.9016 119.079 26.6171ZM114.799 18.1092C117.225 16.3354 120.409 15.6097 123.362 16.1855C124.868 16.4694 126.283 17.3662 127.052 18.7124C127.94 20.1713 128.046 21.9335 128.003 23.5973C128 27.0513 128.004 30.5026 128 33.9562C126.621 33.95 125.241 33.95 123.861 33.9562C123.816 33.5202 123.759 33.089 123.684 32.6592C121.401 34.9675 117.224 34.8983 114.988 32.559C113.697 31.1964 113.212 29.1524 113.709 27.3485C114.111 25.8009 115.357 24.6122 116.769 23.9442C118.856 22.9528 121.196 22.7497 123.467 22.574C123.52 21.5845 123.28 20.3665 122.252 19.9526C120.214 19.0793 117.943 20.0529 116.283 21.2908C115.799 20.2245 115.288 19.172 114.799 18.1092Z" fill="#8D96A5"/>
<path d="M149.244 19.905C148.073 20.2559 147.176 21.2494 146.763 22.377C146.148 24.0683 146.128 25.9707 146.707 27.6739C146.993 28.4737 147.435 29.2543 148.134 29.7649C149.457 30.7806 151.517 30.6777 152.698 29.4814C153.879 28.3237 154.232 26.5859 154.241 24.9886C154.188 23.3683 153.778 21.5803 152.448 20.522C151.574 19.7751 150.328 19.6429 149.244 19.905ZM148.085 16.2266C150.273 15.7653 152.706 15.9214 154.63 17.1514C156.709 18.4049 158.046 20.6657 158.468 23.0255C158.988 25.4894 158.559 28.1406 157.332 30.3348C156.301 32.1956 154.486 33.6149 152.412 34.1095C150.193 34.5965 147.722 34.3854 145.795 33.1084C143.857 31.8824 142.617 29.7711 142.13 27.5653C141.486 24.8844 141.929 21.9392 143.397 19.5976C144.442 17.9241 146.163 16.6821 148.085 16.2266Z" fill="#8D96A5"/>
<path d="M165.836 17.7886C167.664 16.316 170.137 15.6715 172.446 16.1368C173.94 16.3732 175.331 17.2719 176.086 18.5928C177.072 20.2761 177.242 22.285 177.198 24.1949C177.196 27.4475 177.198 30.7024 177.198 33.9567C175.692 33.9625 174.186 33.9528 172.681 33.9625C172.676 30.7064 172.675 27.4497 172.682 24.1931C172.681 22.9964 172.54 21.6857 171.732 20.7374C171.188 20.0774 170.317 19.742 169.471 19.7913C168.101 19.7398 166.972 20.6527 166.01 21.5181C166.014 25.6653 166.01 29.813 166.012 33.9625C164.509 33.9567 163.009 33.9567 161.507 33.9603C161.507 28.1138 161.508 22.265 161.509 16.4185C162.882 16.4225 164.254 16.4242 165.625 16.4167C165.702 16.8718 165.769 17.3291 165.836 17.7886Z" fill="#8D96A5"/>
<path d="M185.832 20.4273C185.014 21.066 184.652 22.0849 184.515 23.0785C186.761 23.0807 189.005 23.0807 191.253 23.0785C191.123 21.813 190.545 20.4468 189.316 19.9008C188.184 19.29 186.778 19.6329 185.832 20.4273ZM182.248 18.4362C185.028 15.377 190.423 15.0913 193.394 18.0166C195.489 20.2064 195.913 23.4213 195.82 26.3293C192.03 26.3116 188.239 26.3231 184.45 26.3231C184.446 27.8569 185.229 29.4652 186.717 30.0468C189.088 30.9654 191.876 30.3901 193.918 28.9467C194.273 30.1847 194.742 31.3854 195.079 32.6291C193.218 33.8396 190.967 34.261 188.781 34.3501C186.461 34.4074 183.993 33.7389 182.361 32.0082C180.393 30.0272 179.733 27.0958 179.938 24.3834C180.013 22.2251 180.762 20.033 182.248 18.4362Z" fill="#8D96A5"/>
<path d="M57.0633 16.4205C58.6756 16.4205 60.2862 16.4223 61.8967 16.4187C63.3041 20.016 64.735 23.6057 66.1447 27.2051C66.2489 27.4673 66.3753 27.7219 66.5057 27.9721C67.9699 24.122 69.4367 20.2706 70.9169 16.4245C72.4507 16.4147 73.9841 16.4267 75.5179 16.4187C73.1329 22.2595 70.7515 28.1002 68.378 33.9468C67.0695 33.9743 65.7583 33.949 64.4472 33.9605C61.9699 28.122 59.5472 22.2573 57.0633 16.4205Z" fill="#8D96A5"/>
</svg>
