<svg width="265" height="48" viewBox="0 0 265 48" fill="none" xmlns="http://www.w3.org/2000/svg">
<path d="M265 37.1644H229.288V35.9538H265V37.1644ZM247.204 30.3852L250.594 27.1167L251.926 28.4483L248.294 31.4747C248.052 31.8379 247.81 32.4432 247.568 32.8063H244.904C245.332 31.7343 246.156 30.8676 247.204 30.3852V30.3852ZM235.825 9.80558C235.704 9.80558 233.041 10.5319 233.041 10.5319C232.419 10.7786 231.813 11.0615 231.225 11.3793C230.62 11.7425 230.014 12.3478 230.014 12.7109L232.436 13.3162C232.768 12.9234 233.132 12.5589 233.525 12.2267L234.13 11.9846L236.067 9.92664C236.188 9.80558 236.188 9.68452 235.765 9.80558H235.825ZM252.168 16.3426C250.694 14.7326 249.32 13.0347 248.052 11.2583C248.964 8.99518 249.297 6.5402 249.02 4.11592C248.526 3.22341 247.959 2.37314 247.326 1.57374C247.083 1.21057 245.994 0 245.51 0C245.389 0 245.268 -4.50971e-08 245.268 0.121057L245.389 1.45268C243.815 2.42113 241.999 3.6317 240.425 4.84226C240.394 5.3298 240.435 5.81926 240.546 6.29494C240.801 6.50096 241.087 6.66447 241.394 6.77917C242.472 6.51903 243.563 6.31698 244.662 6.17388L242.604 9.2003L240.183 10.8951L237.278 9.92664C237.036 9.92664 236.915 9.92664 236.794 10.0477L234.615 12.3478C234.541 12.4054 234.481 12.4788 234.439 12.5625C234.397 12.6463 234.374 12.7384 234.372 12.832L234.251 15.3742V16.2216C234.211 17.2187 234.51 18.2001 235.099 19.0059L236.43 16.9479C236.157 16.4969 235.953 16.0072 235.825 15.4952V13.3162L237.157 12.3478L240.788 14.89C241.34 15.918 241.989 16.8909 242.725 17.7953C244.34 19.206 246.082 20.4624 247.931 21.5481C248.086 22.4967 248.329 23.4289 248.657 24.3324L253.015 28.8115L250.473 32.08C249.983 32.3383 249.569 32.7197 249.272 33.1868C248.975 33.6538 248.805 34.1903 248.778 34.7432H251.805L252.168 33.0484L255.799 29.0536C256.042 28.8115 256.042 28.6904 255.921 28.4483L254.952 25.0587C255.871 24.0126 256.424 22.6949 256.526 21.306C256.526 18.0374 253.257 17.19 252.168 16.2821V16.3426ZM257.615 21.6691C257.393 20.8816 257.11 20.1126 256.768 19.369C256.768 19.369 256.889 19.248 257.252 19.369C257.615 19.4901 259.431 20.8217 259.431 20.8217C260.4 22.1534 261.005 27.9641 261.005 30.022C259.944 29.5786 258.963 28.9653 258.1 28.2062L257.615 21.6691Z" fill="#8D96A5"/>
<path d="M164.886 20.3375C164.886 18.1585 164.16 16.4637 162.344 16.4637C160.528 16.4637 159.681 18.1585 159.681 20.3375V34.7432H161.86V37.0433H149.633V34.7432H151.933V14.89H149.633V12.6504H159.196V16.4032H159.318C159.855 15.1467 160.75 14.0756 161.89 13.3224C163.031 12.5693 164.367 12.1673 165.733 12.1662C167.241 12.0757 168.729 12.5444 169.913 13.4824C171.097 14.4205 171.893 15.7621 172.149 17.2506C172.385 18.5693 172.507 19.9058 172.513 21.2454V34.8038H175.418V37.1038H164.765L164.886 20.277M115.374 20.277C115.374 18.098 114.648 16.4032 112.832 16.4032C111.016 16.4032 110.169 18.098 110.169 20.277V34.6827H112.348V36.9828H100.121V34.6827H102.421V14.89H100.121V12.6504H109.684V16.4032H109.805C110.343 15.1467 111.237 14.0756 112.378 13.3224C113.518 12.5693 114.855 12.1673 116.221 12.1662C117.729 12.0757 119.217 12.5444 120.401 13.4824C121.585 14.4205 122.381 15.7621 122.637 17.2506C122.873 18.5693 122.994 19.9058 123.001 21.2454V34.8038H125.906V37.1038H115.253L115.374 20.277V20.277ZM185.95 14.8294V32.8669C185.931 33.0782 185.959 33.291 186.032 33.4903C186.105 33.6896 186.22 33.8706 186.37 34.0206C186.52 34.1706 186.701 34.286 186.9 34.3585C187.1 34.4311 187.312 34.4591 187.524 34.4406C188.017 34.4282 188.506 34.3467 188.976 34.1985V36.3775C187.519 37.1203 185.887 37.455 184.255 37.346C180.502 37.346 178.202 35.5301 178.202 31.5352V14.89H175.66V13.3162C178.565 11.0161 181.955 8.3529 184.618 6.17388H186.071V12.6504H189.763V14.8294H185.95ZM33.2976 0C33.2976 0 39.2294 5.93177 41.8926 8.95819V11.2583C38.4508 8.10929 33.9675 6.34186 29.3027 6.29494C18.2866 6.29494 11.3864 14.6478 11.3864 24.9377C11.3864 35.2275 17.9234 43.4593 29.3027 43.4593C31.6774 43.4792 34.0307 43.0113 36.2172 42.0847C38.4036 41.1581 40.3765 39.7924 42.0137 38.0723V40.2513C38.6241 44.9725 32.3292 47.9989 24.4605 47.9989C10.4179 48.12 0.733398 37.9512 0.733398 24.9982C0.755465 21.9113 1.38779 18.8592 2.59399 16.0176C3.80018 13.176 5.55643 10.601 7.76166 8.44073C9.96689 6.28051 12.5776 4.57772 15.4434 3.43036C18.3093 2.28301 21.3738 1.71374 24.4605 1.75532C27.4649 1.76458 30.4484 2.25502 33.2976 3.208V0ZM146.001 30.6273C145.352 31.3963 144.532 32.0042 143.608 32.4032C142.684 32.8023 141.68 32.9817 140.675 32.9274C138.496 32.9274 134.985 31.7168 134.864 26.0272H147.938C147.938 25.5429 148.059 24.6955 148.059 24.2113C148.059 17.3111 145.275 12.2267 137.89 12.2267C130.506 12.2267 126.753 17.9164 126.753 24.9377C126.753 31.9589 130.506 37.5275 137.89 37.5275C139.869 37.6333 141.834 37.149 143.537 36.136C145.24 35.123 146.603 33.627 147.454 31.8379L146.001 30.6273ZM134.743 23.606C134.743 17.19 135.227 14.7689 137.406 14.7689C139.585 14.7689 140.07 17.069 140.191 23.606H134.743ZM26.8816 24.8166C26.8816 17.3111 27.608 14.0426 30.1501 14.0426C32.6923 14.0426 33.4187 17.3111 33.4187 24.8166C33.4187 32.3221 32.6923 35.5906 30.1501 35.5906C27.608 35.5906 26.8816 32.3221 26.8816 24.8166M17.8024 24.9377C17.8024 32.3221 22.2815 38.3749 30.1501 38.3749C38.0188 38.3749 42.4979 32.3221 42.4979 24.9377C42.4979 17.5532 38.0188 11.4398 30.1501 11.4398C22.2815 11.4398 17.8024 17.4927 17.8024 24.8771M59.6879 20.277C59.6879 18.098 58.9616 16.4032 57.1458 16.4032C55.3299 16.4032 54.4825 18.098 54.4825 20.277V34.6827H56.601V36.9828H44.4348V34.6827H46.7349V14.89H44.4348V12.6504H53.9983V16.4032H54.1193C54.657 15.1467 55.5515 14.0756 56.6919 13.3224C57.8324 12.5693 59.1687 12.1673 60.5353 12.1662C62.043 12.0757 63.5311 12.5444 64.7148 13.4824C65.8986 14.4205 66.6949 15.7621 66.9513 17.2506C67.1869 18.5693 67.3084 19.9058 67.3145 21.2454V34.8038H70.2199V37.1038H59.5669V20.3375L59.6879 20.277ZM87.4099 6.11336C87.4099 8.29237 89.3468 9.74505 92.1311 9.74505C94.9154 9.74505 96.8523 8.29237 96.8523 6.11336C96.8523 3.93434 94.9154 2.48166 92.1311 2.48166C89.3468 2.48166 87.4099 4.05539 87.4099 6.11336ZM80.7518 14.8294V32.8669C80.7333 33.0782 80.7613 33.291 80.8339 33.4903C80.9064 33.6896 81.0218 33.8706 81.1717 34.0206C81.3217 34.1706 81.5028 34.286 81.7021 34.3585C81.9014 34.4311 82.1142 34.4591 82.3255 34.4406C82.8187 34.4282 83.3077 34.3467 83.7782 34.1985V36.3775C82.3206 37.1203 80.6893 37.455 79.057 37.346C75.3043 37.346 73.0042 35.5301 73.0042 31.5352V14.89H70.462V13.3162C73.3673 11.0161 76.7569 8.3529 79.4202 6.17388H80.8123V12.6504H83.8387V14.8294H80.7518ZM223.599 34.8038H226.625V37.1038H215.851V5.93177H213.188V3.6317H223.659V34.8643L223.599 34.8038ZM202.898 24.9982C202.419 24.6193 201.81 24.4453 201.203 24.514C198.903 24.514 198.419 26.814 198.419 29.1141C198.419 31.4142 199.145 33.23 201.082 33.23C201.421 33.2628 201.762 33.2139 202.078 33.0875C202.394 32.9611 202.675 32.761 202.898 32.5037V24.9982ZM203.14 34.1985C202.446 35.2614 201.493 36.1302 200.37 36.7232C199.248 37.3162 197.993 37.6138 196.724 37.5881C192.729 37.5881 190.308 34.1985 190.308 30.0826C190.308 25.2403 193.819 22.0928 199.387 22.0928C200.577 22.0505 201.764 22.2143 202.898 22.5771V21.0033C202.949 20.4021 202.869 19.7969 202.662 19.23C202.455 18.6631 202.127 18.1483 201.7 17.7217C201.274 17.295 200.759 16.9667 200.192 16.7599C199.625 16.553 199.02 16.4726 198.419 16.5242C197.326 16.5264 196.249 16.7915 195.28 17.2972C194.311 17.8028 193.477 18.5342 192.85 19.4296L191.519 17.7348C192.536 16.0685 193.956 14.6851 195.649 13.712C197.341 12.7388 199.251 12.2072 201.203 12.1662C207.135 12.1662 210.645 15.6768 210.645 21.0033V34.8038H213.188V37.1038H203.261L203.14 34.1985V34.1985ZM86.0783 37.1038V34.8038H88.2573V14.89H86.0783V12.6504H96.0049V34.8038H98.305V37.1038H86.0783Z" fill="#8D96A5"/>
</svg>
