<svg width="227" height="48" viewBox="0 0 227 48" fill="none" xmlns="http://www.w3.org/2000/svg">
<path d="M95.2116 10.2954C91.1334 10.2954 86.496 12.242 83.6622 16.1394L83.664 16.1315L83.6622 16.1333L83.664 10.9074H73.9377V47.38H83.6622V26.6263C83.6622 22.8913 86.4749 18.9209 91.6819 18.9209C95.7062 18.9209 99.8706 21.8033 99.8706 26.6263V47.38H109.596V24.7708C109.596 16.3822 103.768 10.2954 95.2116 10.2954Z" fill="#8D96A5"/>
<path d="M178.723 10.9092L169.93 35.7536L161.138 10.9092H150.028L164.6 47.3697H175.258L189.831 10.9092H178.723Z" fill="#8D96A5"/>
<path d="M63.5872 36.1665C59.4937 39.2857 57.155 40.03 53.4219 40.03C50.063 40.03 47.4323 38.9559 45.5783 37.0727L70.4434 26.4511C69.9007 22.4923 68.4416 18.9567 66.1968 16.2676C62.9295 12.3606 58.0939 10.2937 52.2063 10.2937C41.5118 10.2937 33.4481 18.4178 33.4481 29.1476C33.4481 40.1563 41.5311 48 53.2782 48C59.8599 48 66.5898 44.7882 69.7376 41.0348L63.5872 36.1665ZM44.9017 21.8964C46.5581 19.6061 49.1964 18.2619 52.3828 18.2619C55.8873 18.2619 58.5468 20.3227 59.9214 23.3652L42.9287 30.6246C42.4646 26.8994 43.3905 23.985 44.9017 21.8964Z" fill="#8D96A5"/>
<path d="M32.521 38.1841H10.4151V0H0.556641V47.38H32.521V38.1841Z" fill="#8D96A5"/>
<path d="M207.296 47.9938C196.659 47.9938 188.325 39.8342 188.325 29.1437C188.325 18.5735 196.716 10.2936 207.426 10.2936C218.063 10.2936 226.396 18.4532 226.396 29.1437C226.396 39.712 218.006 47.9938 207.296 47.9938ZM207.296 18.8756C201.864 18.8756 197.92 23.1143 197.92 29.1437C197.92 34.9006 202.098 39.4118 207.426 39.4118C212.86 39.4118 216.801 35.0565 216.801 29.1437C216.801 23.3867 212.626 18.8756 207.296 18.8756Z" fill="#8D96A5"/>
<path d="M132.414 47.9938C121.776 47.9938 113.444 39.8342 113.444 29.1437C113.444 18.5735 121.834 10.2936 132.546 10.2936C143.181 10.2936 151.515 18.4532 151.515 29.1437C151.515 39.712 143.124 47.9938 132.414 47.9938ZM132.414 18.8756C126.982 18.8756 123.04 23.1143 123.04 29.1437C123.04 34.9006 127.216 39.4118 132.546 39.4118C137.978 39.4118 141.919 35.0565 141.919 29.1437C141.919 23.3867 137.744 18.8756 132.414 18.8756Z" fill="#8D96A5"/>
</svg>
