<svg width="223" height="48" viewBox="0 0 223 48" fill="none" xmlns="http://www.w3.org/2000/svg">
<path d="M36.8843 20.3904V34.7285H31.9552V22.0346C31.9552 18.1981 30.0102 16.0589 26.7241 16.0589C23.5542 16.0589 20.9067 18.1805 20.9067 22.0817V34.7285H15.9776V22.0346C15.9776 18.1981 14.0326 16.0589 10.7466 16.0589C7.57658 16.0589 4.92913 18.1805 4.92913 22.0817V34.7285H0V11.9101H4.88268V14.6976C6.68829 12.0044 9.48089 11.3149 11.78 11.3149C15.2054 11.3149 17.998 12.8648 19.5482 15.3871C21.4931 12.1223 24.9708 11.3149 27.7576 11.3149C33.1047 11.3149 36.8843 15.0571 36.8843 20.3904V20.3904ZM63.1672 34.7285H58.2613V31.9881C56.7111 34.0154 54.3888 35.3237 51.2014 35.3237C44.9137 35.3237 39.9614 30.2968 39.9614 23.3193C39.9614 16.3418 44.9137 11.3149 51.2014 11.3149C54.3946 11.3149 56.7169 12.6468 58.2613 14.674V11.9101H63.1672V34.7285V34.7285ZM45.0066 23.3193C45.0066 27.3208 47.567 30.6327 51.7878 30.6327C55.8461 30.6327 58.569 27.4917 58.569 23.3193C58.569 19.1528 55.8461 16.0059 51.7878 16.0059C47.567 16.0059 45.0066 19.3178 45.0066 23.3193ZM86.6807 14.9628L83.534 18.369C81.9606 16.8663 80.2943 16.0118 78.1346 16.0118C74.355 16.0118 71.4927 19.0114 71.4927 23.3252C71.4927 27.6331 74.355 30.6386 78.1346 30.6386C80.2943 30.6386 82.2161 29.6132 83.6501 28.2578L86.6749 31.6876C84.6313 34.092 81.6297 35.3296 78.2739 35.3296C71.1154 35.3296 66.4475 30.1613 66.4475 23.3252C66.4475 16.4891 71.1154 11.3208 78.2739 11.3208C81.6355 11.3149 84.6835 12.5525 86.6807 14.9628Z" fill="#8D96A5"/>
<path d="M94.0423 20.5789H96.504L103.918 11.9101H110.09L100.678 22.6474L110.182 34.7225H103.964L96.4807 25.1049H94.0423V34.7284H89.1132V0H94.0423V20.5789V20.5789Z" fill="#8D96A5"/>
<path d="M130.584 23.2957C130.584 23.9381 130.538 24.5804 130.491 25.1521H113.881C114.537 29.2478 117.376 30.9627 120.569 30.9627C122.822 30.9627 125.214 30.0552 127.066 28.5583L129.504 32.106C126.758 34.4868 123.663 35.3237 120.261 35.3237C113.527 35.3237 108.766 30.562 108.766 23.3193C108.766 16.1709 113.341 11.3149 119.954 11.3149C126.241 11.3149 130.561 16.1768 130.584 23.2957V23.2957ZM113.904 21.3687H125.568C125.028 17.821 122.99 15.7466 119.866 15.7466C116.366 15.7466 114.421 18.0331 113.904 21.3687ZM154.266 23.2957C154.266 23.9381 154.219 24.5804 154.173 25.1521H137.563C138.219 29.2478 141.058 30.9627 144.251 30.9627C146.503 30.9627 148.895 30.0552 150.748 28.5583L153.186 32.106C150.44 34.4868 147.345 35.3237 143.943 35.3237C137.208 35.3237 132.448 30.562 132.448 23.3193C132.448 16.1709 137.023 11.3149 143.635 11.3149C149.923 11.3149 154.243 16.1768 154.266 23.2957V23.2957ZM137.586 21.3687H149.25C148.71 17.821 146.672 15.7466 143.548 15.7466C140.047 15.7466 138.102 18.0331 137.586 21.3687ZM180.735 23.3193C180.735 30.2968 175.782 35.3237 169.494 35.3237C166.307 35.3237 164.002 34.0154 162.458 32.0117V44.2518H157.552V11.9101H162.458V14.6269C164.008 12.6232 166.307 11.3149 169.494 11.3149C175.788 11.3149 180.735 16.3418 180.735 23.3193V23.3193ZM162.133 23.3193C162.133 27.4858 164.856 30.6327 168.914 30.6327C173.135 30.6327 175.695 27.3208 175.695 23.3193C175.695 19.3178 173.135 16.0059 168.914 16.0059C164.856 16.0059 162.133 19.1528 162.133 23.3193V23.3193ZM204.422 23.2957C204.422 23.9381 204.376 24.5804 204.329 25.1521H187.719C188.375 29.2478 191.214 30.9627 194.407 30.9627C196.66 30.9627 199.052 30.0552 200.904 28.5583L203.342 32.106C200.596 34.4868 197.502 35.3237 194.1 35.3237C187.365 35.3237 182.604 30.562 182.604 23.3193C182.604 16.1709 187.179 11.3149 193.792 11.3149C200.085 11.3149 204.405 16.1768 204.422 23.2957V23.2957ZM187.742 21.3687H199.406C198.866 17.821 196.828 15.7466 193.705 15.7466C190.21 15.7466 188.259 18.0331 187.742 21.3687ZM222.873 11.9573L221.7 16.8899C220.667 16.3418 219.169 16.0589 217.973 16.0589C214.855 16.0589 212.626 18.2983 212.626 22.1819V34.7344H207.72V11.9101H212.574V14.4796C214.054 12.3109 216.353 11.3149 219.099 11.3149C220.597 11.3149 221.747 11.5094 222.873 11.9573V11.9573Z" fill="#8D96A5"/>
</svg>
