<svg width="22" height="22" viewBox="0 0 22 22" fill="none" xmlns="http://www.w3.org/2000/svg">
<path d="M11 16C13.7614 16 16 13.7614 16 11C16 8.23858 13.7614 6 11 6M11 16V12M11 16C9.2474 16 7.70541 15.0983 6.81266 13.7335M11 6V10M11 6C9.0742 6 7.40273 7.08872 6.56745 8.68424M11 12C11.5523 12 12 11.5523 12 11C12 10.4477 11.5523 10 11 10M11 12C10.4477 12 10 11.5523 10 11C10 10.4477 10.4477 10 11 10M6.81266 13.7335C6.29877 12.9479 6 12.0088 6 11C6 10.1644 6.205 9.3766 6.56745 8.68424M6.81266 13.7335L10 11.5M6.56745 8.68424L10 10.5M15.1159 8.16029L12 10.5M15.3311 13.5L12 11.5M10 1L12 3M21 10L19 12M12 21L10 19M1 12L3 10M17.364 3.22183V6.05025M18.7782 17.364H15.9497M4.63604 18.7782V15.9497M3.22183 4.63604H6.05025M21 11C21 16.5228 16.5228 21 11 21C5.47715 21 1 16.5228 1 11C1 5.47715 5.47715 1 11 1C16.5228 1 21 5.47715 21 11Z" stroke="white" stroke-width="1.5"/>
</svg>
