<svg width="22" height="20" viewBox="0 0 22 20" fill="none" xmlns="http://www.w3.org/2000/svg">
<path d="M6.25 9C6.66421 9 7 8.6642 7 8.25C7 7.8358 6.66421 7.5 6.25 7.5V9ZM3.25 7.5C2.83579 7.5 2.5 7.8358 2.5 8.25C2.5 8.6642 2.83579 9 3.25 9V7.5ZM2.75 5.85526V6.60526H3.5V5.85526H2.75ZM6.75 18H2.75V19.5H6.75V18ZM1.5 16.75V7.8553H0V16.75H1.5ZM2.75 6.60526H6.75V5.10526H2.75V6.60526ZM3.5 5.85526V2.75H2V5.85526H3.5ZM4.75 1.5H18.75V0H4.75V1.5ZM20 2.75V11.0658H21.5V2.75H20ZM8 7.8553V13.0658H9.5V7.8553H8ZM8 13.0658V16.75H9.5V13.0658H8ZM18.75 12.3158H11.75V13.8158H18.75V12.3158ZM11.75 12.3158H8.75V13.8158H11.75V12.3158ZM11 13.0658V17.8026H12.5V13.0658H11ZM16.75 17.0526H8.75V18.5526H16.75V17.0526ZM6.25 7.5H3.25V9H6.25V7.5ZM20 11.0658C20 11.7561 19.4404 12.3158 18.75 12.3158V13.8158C20.2688 13.8158 21.5 12.5846 21.5 11.0658H20ZM18.75 1.5C19.4404 1.5 20 2.05964 20 2.75H21.5C21.5 1.23122 20.2688 0 18.75 0V1.5ZM2.75 18C2.05964 18 1.5 17.4404 1.5 16.75H0C0 18.2688 1.23122 19.5 2.75 19.5V18ZM6.75 19.5C8.26878 19.5 9.5 18.2688 9.5 16.75H8C8 17.4404 7.44036 18 6.75 18V19.5ZM6.75 6.60526C7.44036 6.60526 8 7.16491 8 7.8553H9.5C9.5 6.33648 8.26878 5.10526 6.75 5.10526V6.60526ZM3.5 2.75C3.5 2.05964 4.05964 1.5 4.75 1.5V0C3.23122 0 2 1.23121 2 2.75H3.5ZM1.5 7.8553C1.5 7.16491 2.05964 6.60526 2.75 6.60526V5.10526C1.23122 5.10526 0 6.33648 0 7.8553H1.5Z" fill="white"/>
</svg>
