<svg width="22" height="22" viewBox="0 0 22 22" fill="none" xmlns="http://www.w3.org/2000/svg">
<path d="M12.821 12.8063L16.6197 16.6412C17.2491 17.2766 17.2491 18.3067 16.6197 18.9421C15.9903 19.5775 14.9699 19.5775 14.3405 18.9421L10.5417 15.1072M12.821 12.8063L12.9318 12.6944C13.7951 11.8228 15.0948 11.5745 16.3105 11.4611C17.3136 11.3675 18.6393 10.7107 19.5 9.8418C21.3994 7.92434 21.5577 4.75247 19.2788 2.45198C17 0.151509 13.5195 0.918069 12 2.45204C11.2223 3.23714 10.5509 4.53494 10.464 5.70285C10.3833 6.78779 10.084 7.89947 9.3219 8.6688L9.0222 8.9713M12.821 12.8063L9.0222 8.9713M10.5417 15.1072C10.9216 18.5586 6.51501 23.3139 2.5643 19.3256C-1.38641 15.3373 2.94418 10.5053 6.74294 11.2723M10.5417 15.1072L9.4021 13.9567M9.0222 8.9713L5.22343 5.13642C4.59404 4.50103 3.57358 4.50103 2.94418 5.13642C2.31478 5.77181 2.31478 6.80198 2.94418 7.43737L6.74294 11.2723M6.74294 11.2723L7.88257 12.4228M7.88257 12.4228C4.46368 12.8063 1.42468 15.1072 4.08381 17.7916C6.36306 20.0926 9.0222 17.4081 9.4021 13.9567M7.88257 12.4228L9.4021 13.9567" stroke="white" stroke-width="1.5" stroke-linejoin="round"/>
</svg>
