<svg width="22" height="22" viewBox="0 0 22 22" fill="none" xmlns="http://www.w3.org/2000/svg">
<path d="M12.821 12.9645L16.6197 16.7994C17.2491 17.4348 17.2491 18.4649 16.6197 19.1003C15.9903 19.7357 14.9699 19.7357 14.3405 19.1003L10.5417 15.2654M12.821 12.9645L12.9318 12.8526C13.7951 11.981 15.0948 11.7327 16.3105 11.6193C17.3136 11.5257 18.6393 10.8689 19.5 10C21.3994 8.08254 21.5577 4.91067 19.2788 2.61018C17 0.309712 13.5195 1.07627 12 2.61024C11.2223 3.39534 10.5509 4.69314 10.464 5.86105C10.3833 6.94599 10.084 8.05767 9.3219 8.827L9.0222 9.1295M12.821 12.9645L9.0222 9.1295M10.5417 15.2654C10.9216 18.7168 6.51501 23.4721 2.5643 19.4838C-1.38641 15.4955 2.94418 10.6635 6.74294 11.4305M10.5417 15.2654L9.4021 14.1149M9.0222 9.1295L5.22343 5.29462C4.59404 4.65923 3.57358 4.65923 2.94418 5.29462C2.31478 5.93001 2.31478 6.96018 2.94418 7.59557L6.74294 11.4305M6.74294 11.4305L7.88257 12.581M7.88257 12.581C4.46368 12.9645 1.42468 15.2654 4.08381 17.9498C6.36306 20.2508 9.0222 17.5663 9.4021 14.1149M7.88257 12.581L9.4021 14.1149" stroke="black" stroke-width="1.5" stroke-linejoin="round"/>
</svg>
