<svg width="22" height="20" viewBox="0 0 22 20" fill="none" xmlns="http://www.w3.org/2000/svg">
<path d="M1 5.73684V8.25C1 9.2165 1.7835 10 2.75 10M1 5.73684H21M1 5.73684L3 1H19L21 5.73684M2.75 10H3.30458C4.07218 10 4.81058 9.7058 5.36782 9.1779L5.5 9.0526L5.95554 9.4842C6.30514 9.8154 6.76841 10 7.25 10C7.73159 10 8.19485 9.8154 8.54446 9.4842L9 9.0526L9.4555 9.4842C9.8051 9.8154 10.2684 10 10.75 10C11.2316 10 11.6949 9.8154 12.0445 9.4842L12.5 9.0526L12.9555 9.4842C13.3051 9.8154 13.7684 10 14.25 10C14.7316 10 15.1949 9.8154 15.5445 9.4842L16 9.0526L16.1322 9.1779C16.6894 9.7058 17.4278 10 18.1954 10H19M2.75 10V19H8M21 5.73684V8C21 9.1046 20.1046 10 19 10M19 10V19H13.5M8 19V11.8947H13.5V19M8 19H13.5" stroke="black" stroke-width="1.5" stroke-linejoin="round"/>
</svg>
