<svg width="22" height="20" viewBox="0 0 22 20" fill="none" xmlns="http://www.w3.org/2000/svg">
<path d="M2.95122 10.4737H1V7.63158H3.43903M2.95122 10.4737L4.90244 19H16.6098L18.561 10.4737M2.95122 10.4737H18.561M3.43903 7.63158H8.8049M3.43903 7.63158L2.37942 6.60264C1.35717 5.60999 1.35717 3.96896 2.37942 2.9763L2.43628 2.92109C3.29489 2.08733 4.63218 2.00132 5.59053 2.71821M18.561 10.4737H20.5122V7.63158H18.561M18.561 7.63158H14.6585M18.561 7.63158L19.0488 4.31579M6.85366 12.3684V16.6316M14.6585 12.3684V16.6316M10.7561 12.3684V16.6316M8.8049 7.63158H14.6585M8.8049 7.63158C8.8049 6.74797 9.0171 6.0704 9.4414 5.59886M14.6585 7.63158C14.6585 6.81113 14.3333 5.99069 13.6829 5.44373M9.4414 5.59886C9.927 5.05927 10.6904 4.78947 11.7317 4.78947C12.5564 4.78947 13.2068 5.04332 13.6829 5.44373M9.4414 5.59886L7.25423 3.96274M13.6829 5.44373L16.6098 2.89474M13.6829 5.44373L10.5122 1L5.59053 2.71821M7.25423 3.96274L5.39025 5.59886M7.25423 3.96274L5.59053 2.71821M19.0488 4.31579L16.6098 2.89474M19.0488 4.31579H20.0244L20.5122 2.89474L17.5854 1L16.122 1.94737L16.6098 2.89474" stroke="white" stroke-width="1.5" stroke-linejoin="round"/>
</svg>
