<svg width="18" height="22" viewBox="0 0 18 22" fill="none" xmlns="http://www.w3.org/2000/svg">
<path d="M5.5 2.64018C5.47707 3.63132 4.43504 4.90244 3.13343 4.90244C2.38058 4.90244 2.09267 4.47719 2.10563 3.92683M5.5 2.64018C5.51466 2.00683 5.03187 1.4878 4.2001 1.4878C3.16474 1.4878 2.12938 2.91765 2.10563 3.92683M5.5 2.64018V9.5M2.10563 3.92683L2.06667 9.5M5.5 9.5L5.28313 9.5577C4.22658 9.8388 3.11246 9.8188 2.06667 9.5M5.5 9.5H6.86667V13.6829M2.06667 9.5H1V13.6829M6.86667 13.6829V20.0244L6.14251 20.2652C4.70835 20.7422 3.15832 20.7422 1.72416 20.2652L1 20.0244V13.6829M6.86667 13.6829C5.01966 14.6044 2.84701 14.6044 1 13.6829M11.1333 13.1951V20.0244L11.8575 20.2652C13.2917 20.7422 14.8417 20.7422 16.2758 20.2652L17 20.0244V13.1951M14.0667 13.1951V1M12.4667 2.46341H15.6667M11.9333 4.41463H16.2M11.9333 6.36585H16.2M11.9333 8.31707H16.2M12.4667 10.2683H15.6667M14 14.5C11.5 14.5 11.1333 13.5 11.1333 13C11.1333 12.5 11.8667 11.5 14.0667 11.5C16.2667 11.5 17 12.5 17 13C17 13.5 16 14.5 14 14.5Z" stroke="black" stroke-width="1.5" stroke-linejoin="round"/>
</svg>
