<svg width="22" height="22" viewBox="0 0 22 22" fill="none" xmlns="http://www.w3.org/2000/svg">
<path d="M9.5 8.5V18M9.5 8.5H12.5M9.5 8.5H6.5M9.5 18H12.5M9.5 18H6.5M12.5 8.5V18M12.5 8.5H15.5M6.5 8.5V18M6.5 8.5H3.75M12.5 18H15.5M6.5 18H3.75V8.5M15.5 8.5V18M15.5 8.5H18.25M15.5 18H18.25V8.5M18.25 8.5H21V6.5L11 1L1 6.5V8.5H3.75M1 21V18H2H20H21V21H1ZM11 3.5C10 3.5 9.5 4.33034 9.5 5C9.5 5.66966 10 6.5 11 6.5C12 6.5 12.5 5.74794 12.5 5C12.5 4.25206 12 3.5 11 3.5Z" stroke="white" stroke-width="1.5" stroke-linejoin="round"/>
</svg>
