<svg width="22" height="20" viewBox="0 0 22 20" fill="none" xmlns="http://www.w3.org/2000/svg">
<path d="M6.25 9.25C6.66421 9.25 7 8.9142 7 8.5C7 8.0858 6.66421 7.75 6.25 7.75V9.25ZM3.25 7.75C2.83579 7.75 2.5 8.0858 2.5 8.5C2.5 8.9142 2.83579 9.25 3.25 9.25V7.75ZM2.75 6.10526V6.85526H3.5V6.10526H2.75ZM6.75 18.25H2.75V19.75H6.75V18.25ZM1.5 17V8.1053H0V17H1.5ZM2.75 6.85526H6.75V5.35526H2.75V6.85526ZM3.5 6.10526V3H2V6.10526H3.5ZM4.75 1.75H18.75V0.25H4.75V1.75ZM20 3V11.3158H21.5V3H20ZM8 8.1053V13.3158H9.5V8.1053H8ZM8 13.3158V17H9.5V13.3158H8ZM18.75 12.5658H11.75V14.0658H18.75V12.5658ZM11.75 12.5658H8.75V14.0658H11.75V12.5658ZM11 13.3158V18.0526H12.5V13.3158H11ZM16.75 17.3026H8.75V18.8026H16.75V17.3026ZM6.25 7.75H3.25V9.25H6.25V7.75ZM20 11.3158C20 12.0061 19.4404 12.5658 18.75 12.5658V14.0658C20.2688 14.0658 21.5 12.8346 21.5 11.3158H20ZM18.75 1.75C19.4404 1.75 20 2.30964 20 3H21.5C21.5 1.48122 20.2688 0.25 18.75 0.25V1.75ZM2.75 18.25C2.05964 18.25 1.5 17.6904 1.5 17H0C0 18.5188 1.23122 19.75 2.75 19.75V18.25ZM6.75 19.75C8.26878 19.75 9.5 18.5188 9.5 17H8C8 17.6904 7.44036 18.25 6.75 18.25V19.75ZM6.75 6.85526C7.44036 6.85526 8 7.41491 8 8.1053H9.5C9.5 6.58648 8.26878 5.35526 6.75 5.35526V6.85526ZM3.5 3C3.5 2.30964 4.05964 1.75 4.75 1.75V0.25C3.23122 0.25 2 1.48121 2 3H3.5ZM1.5 8.1053C1.5 7.41491 2.05964 6.85526 2.75 6.85526V5.35526C1.23122 5.35526 0 6.58648 0 8.1053H1.5Z" fill="black"/>
</svg>
