<svg width="22" height="19" viewBox="0 0 22 19" fill="none" xmlns="http://www.w3.org/2000/svg">
<path d="M5.7619 11.2162V13.6486H15.7619V11.2162M5.7619 11.2162V9.2188C5.7619 7.90383 4.69592 6.83784 3.38095 6.83784M5.7619 11.2162H15.7619M15.7619 11.2162V9.4569C15.7619 8.0104 16.9345 6.83784 18.381 6.83784M3.38095 6.83784V4C3.38095 2.34315 4.7241 1 6.38095 1H15.381C17.0378 1 18.381 2.34314 18.381 4V6.83784M3.38095 6.83784H2.58282C1.70865 6.83784 1 7.54649 1 8.4207C1 9.1923 1.55644 9.8515 2.31714 9.981L2.42857 10V16.112C2.42857 16.9009 3.06816 17.5405 3.85714 17.5405M18.381 6.83784H19.4172C20.2913 6.83784 21 7.54649 21 8.4207C21 9.1923 20.4436 9.8515 19.6829 9.981L19.5714 10V16.112C19.5714 16.9009 18.9318 17.5405 18.1429 17.5405M18.1429 17.5405H3.85714M18.1429 17.5405V19M3.85714 17.5405V19" stroke="white" stroke-width="1.5" stroke-linejoin="round"/>
</svg>
