<svg width="24" height="24" viewBox="0 0 24 24" fill="none" xmlns="http://www.w3.org/2000/svg">
<path d="M10.419 5.25902C10.419 6.50664 9.50762 7.51804 8.38334 7.51804C7.25907 7.51804 6.34766 6.50664 6.34766 5.25902C6.34766 4.0114 7.25907 3 8.38334 3C9.50762 3 10.419 4.0114 10.419 5.25902Z" stroke="white" stroke-width="1.5" stroke-linejoin="round"/>
<path d="M18.0812 5.46018C18.0812 6.70781 17.1698 7.7192 16.0455 7.7192C14.9212 7.7192 14.0098 6.70781 14.0098 5.46018C14.0098 4.21256 14.9212 3.20117 16.0455 3.20117C17.1698 3.20117 18.0812 4.21256 18.0812 5.46018Z" stroke="white" stroke-width="1.5" stroke-linejoin="round"/>
<path d="M10.9873 19.7931L11.0479 19.7236C11.5772 19.1163 12.547 19.1406 13.0436 19.7736C14.1434 21.1757 16.2165 21.4118 17.6187 20.2947L18.3971 19.6745C19.8356 18.5284 20.0383 16.4591 18.8483 15.0685L15.8886 11.6101C13.9049 9.29208 10.2502 9.29208 8.26648 11.6101L5.23001 15.1583C4.07282 16.5105 4.24014 18.5164 5.60624 19.6689L6.17947 20.1524C7.6059 21.3557 9.76593 21.1943 10.9873 19.7931Z" stroke="white" stroke-width="1.5" stroke-linejoin="round"/>
<path d="M22.0008 10.5681C22.0008 11.4717 21.2433 12.3753 20.2255 12.3753C19.2076 12.3753 18.3965 11.4717 18.3965 10.5681C18.3965 9.66454 19.2076 8.68652 20.2255 8.68652C21.2433 8.68652 22.0008 9.52403 22.0008 10.5681Z" stroke="white" stroke-width="1.5" stroke-linejoin="round"/>
<path d="M5.60433 10.5681C5.60433 11.4717 4.84682 12.3753 3.82898 12.3753C2.81114 12.3753 2 11.4717 2 10.5681C2 9.66454 2.81114 8.68652 3.82898 8.68652C4.84682 8.68652 5.60433 9.52403 5.60433 10.5681Z" stroke="white" stroke-width="1.5" stroke-linejoin="round"/>
</svg>
