<svg width="28" height="24" viewBox="0 0 28 24" fill="none" xmlns="http://www.w3.org/2000/svg">
<path d="M21.2932 12.358C20.5155 12.358 19.8829 12.9928 19.8829 13.7768C19.8829 15.5254 19.2058 17.1696 17.9767 18.4044C16.7476 19.6409 15.1133 20.3221 13.3751 20.3221C11.637 20.3221 10.0026 19.6409 8.7752 18.4044C7.54613 17.168 6.86899 15.5238 6.86899 13.7752C6.86899 12.0265 7.54613 10.3823 8.7752 9.14752C10.0043 7.91105 11.6386 7.22983 13.3751 7.22983C14.1544 7.22983 14.7854 6.59502 14.7854 5.81104C14.7854 5.02707 14.1544 4.39226 13.3751 4.39226C11.6238 4.39226 9.9466 4.87624 8.49182 5.77955C7.45552 6.40276 6.17044 5.48452 6.4291 4.29281C6.65811 3.24032 6.36814 2.09501 5.55426 1.27789C4.28401 -1.89543e-05 2.22294 -1.89543e-05 0.952689 1.27789C-0.317563 2.55579 -0.317563 4.62927 0.952689 5.90718C1.76657 6.72596 2.90008 7.02099 3.94626 6.79061C5.13084 6.53038 6.04687 7.81989 5.42905 8.86243C4.53114 10.326 4.04841 12.0133 4.04841 13.7768C4.04841 16.2829 5.01881 18.6398 6.78003 20.4116C8.54125 22.1835 10.884 23.1597 13.3751 23.1597C15.8662 23.1597 18.209 22.1835 19.9702 20.4116C21.7314 18.6398 22.7018 16.2829 22.7018 13.7768C22.7018 12.9928 22.0708 12.358 21.2915 12.358H21.2932Z" fill="#FB1E00"/>
<path d="M25.7991 1.2779C24.1054 -0.425967 21.359 -0.425967 19.6653 1.2779C18.8004 2.14807 18.3769 3.29006 18.3951 4.4304C18.4429 7.54974 16.1182 10.1934 13.034 10.5216C12.319 10.5978 11.6237 10.9094 11.0767 11.4614C9.80646 12.7393 9.80646 14.8127 11.0767 16.0906C12.347 17.3685 14.408 17.3685 15.6783 16.0906C16.2253 15.5387 16.5366 14.8393 16.6108 14.1199C16.9386 11.0172 19.5648 8.68013 22.6655 8.7282C23.799 8.74643 24.9341 8.32046 25.7991 7.45029C27.4944 5.74476 27.4944 2.98343 25.7991 1.2779Z" fill="#FB1E00"/>
</svg>
