<svg width="654" height="152" viewBox="0 0 654 152" fill="none" xmlns="http://www.w3.org/2000/svg">
<path d="M219.159 46.0216C211.149 38.3416 201.259 34.6016 189.489 34.6016C177.719 34.6016 167.839 38.3516 159.819 46.0216C151.799 53.6916 147.709 63.5816 147.709 75.8616C147.709 88.1416 151.799 98.1916 159.989 106.042C167.999 113.722 177.889 117.632 189.489 117.632C201.089 117.632 210.969 113.712 218.989 106.042C227.179 98.2016 231.269 88.1416 231.269 75.8616C231.269 63.5816 227.179 53.6916 219.159 46.0216ZM207.169 94.2816C202.409 98.9516 196.479 101.272 189.489 101.272C182.499 101.272 176.569 98.9516 171.809 94.2816C166.959 89.5216 164.479 83.4216 164.479 75.8616C164.479 68.3016 166.989 62.5816 171.809 57.9616C176.599 53.3716 182.499 51.0316 189.489 51.0316C196.479 51.0316 202.379 53.3816 207.169 57.9616C211.989 62.5816 214.499 68.4716 214.499 75.8616C214.499 83.2516 212.009 89.5116 207.169 94.2816Z" fill="#FB1E00"/>
<path d="M450.71 46.0216C442.7 38.3416 432.81 34.6016 421.04 34.6016C409.27 34.6016 399.38 38.3516 391.37 46.0216C383.35 53.6916 379.26 63.5816 379.26 75.8616C379.26 88.1416 383.35 98.1916 391.54 106.042C399.55 113.722 409.44 117.632 421.04 117.632C432.64 117.632 442.52 113.712 450.54 106.042C458.73 98.2016 462.82 88.1416 462.82 75.8616C462.82 63.5816 458.73 53.6916 450.71 46.0216ZM438.72 94.2816C433.96 98.9516 428.03 101.272 421.04 101.272C414.05 101.272 408.12 98.9516 403.36 94.2816C398.52 89.5216 396.03 83.4216 396.03 75.8616C396.03 68.3016 398.54 62.5816 403.36 57.9616C408.15 53.3716 414.05 51.0316 421.04 51.0316C428.03 51.0316 433.93 53.3816 438.72 57.9616C443.54 62.5816 446.05 68.4716 446.05 75.8616C446.05 83.2516 443.56 89.5116 438.72 94.2816Z" fill="#FB1E00"/>
<path d="M641.78 46.0216C633.77 38.3416 623.88 34.6016 612.11 34.6016C600.34 34.6016 590.45 38.3516 582.44 46.0216C574.42 53.6916 570.33 63.5816 570.33 75.8616C570.33 88.1416 574.42 98.1916 582.61 106.042C590.63 113.722 600.51 117.632 612.11 117.632C623.71 117.632 633.59 113.712 641.61 106.042C649.8 98.2016 653.89 88.1416 653.89 75.8616C653.89 63.5816 649.8 53.6916 641.78 46.0216ZM629.79 94.2816C625.03 98.9516 619.1 101.272 612.12 101.272C605.14 101.272 599.2 98.9516 594.44 94.2816C589.59 89.5216 587.11 83.4216 587.11 75.8616C587.11 68.3016 589.62 62.5816 594.44 57.9616C599.23 53.3716 605.13 51.0316 612.12 51.0316C619.11 51.0316 625.01 53.3816 629.79 57.9616C634.61 62.5816 637.12 68.4716 637.12 75.8616C637.12 83.2516 634.63 89.5116 629.79 94.2816Z" fill="#FB1E00"/>
<path d="M70.8794 46.2813C62.8694 38.6013 52.9794 34.8613 41.2094 34.8613C31.9494 34.8613 20.1994 38.9613 12.8794 46.2813C5.55938 53.6013 0.609375 62.4013 0.609375 79.2513V143.131C0.609375 147.831 4.29938 151.851 8.98938 151.851C13.6794 151.851 17.3694 147.831 17.3694 143.131V79.2513C17.3694 69.4213 19.9594 62.9113 24.6594 58.2213C29.3494 53.5313 35.9094 51.2913 41.2094 51.2913C48.1994 51.2913 54.0994 53.6313 58.8894 58.2213C63.7094 62.8413 66.2194 68.7413 66.2194 76.1313C66.2194 83.5213 63.7294 89.7813 58.8894 94.5513C54.1294 99.2213 48.1994 101.481 41.2094 101.481H36.7294C32.1294 101.481 28.1894 105.091 28.1894 109.691C28.1894 114.291 32.1294 117.911 36.7294 117.911H41.2094C52.8094 117.911 62.6894 113.991 70.7094 106.321C78.8994 98.4813 82.9894 88.4213 82.9894 76.1413C82.9894 63.8613 78.8994 53.9713 70.8794 46.3013V46.2813Z" fill="#FB1E00"/>
<path d="M486.52 106.211C494.53 113.891 504.43 117.631 516.19 117.631C525.45 117.631 537.2 113.531 544.53 106.211C551.85 98.8906 556.8 90.0906 556.8 73.2406V9.36063C556.8 4.66063 553.11 0.640625 548.42 0.640625C543.73 0.640625 540.04 4.66063 540.04 9.36063V73.2406C540.04 83.0706 537.45 89.5806 532.75 94.2706C528.06 98.9606 521.5 101.201 516.2 101.201C509.21 101.201 503.31 98.8506 498.52 94.2706C493.7 89.6506 491.19 83.7506 491.19 76.3606C491.19 68.9706 493.68 62.7106 498.52 57.9406C503.28 53.2706 509.21 51.0106 516.2 51.0106H520.68C525.28 51.0106 529.22 47.4006 529.22 42.8006C529.22 38.2006 525.28 34.5806 520.68 34.5806H516.2C504.6 34.5806 494.72 38.5006 486.7 46.1706C478.51 54.0106 474.42 64.0706 474.42 76.3506C474.42 88.6306 478.51 98.5206 486.53 106.191L486.52 106.211Z" fill="#FB1E00"/>
<path d="M135.109 35.4512H133.099C124.499 35.4512 118.399 38.9112 113.819 48.3412V44.1712C113.819 39.4812 110.129 35.4512 105.439 35.4512C100.749 35.4512 97.0586 39.4712 97.0586 44.1712V108.281C97.0586 112.981 100.749 117.001 105.439 117.001C110.129 117.001 113.819 112.981 113.819 108.281V85.8312C113.819 63.2412 122.099 51.3512 135.109 51.3512C139.559 51.3512 143.369 47.8612 143.369 43.4112C143.369 38.9612 139.559 35.4612 135.109 35.4612V35.4512Z" fill="#FB1E00"/>
<path d="M355.74 44.9308C349.12 38.1308 340.96 34.8008 331.24 34.8008C321.52 34.8008 311.72 38.9108 305.04 48.0608C298.36 38.9108 288.56 34.8008 278.84 34.8008C269.12 34.8008 260.96 38.1208 254.34 44.9308C247.72 51.7308 244.34 60.4908 244.34 71.3808V108.281C244.34 112.981 248.03 117.001 252.72 117.001C257.41 117.001 261.11 112.981 261.11 108.281V71.3808C261.11 65.3908 262.89 60.6008 266.32 56.8508C269.72 53.1308 273.91 51.2308 278.88 51.2308C283.85 51.2308 288.04 53.1308 291.44 56.8508C294.87 60.6008 296.65 65.3808 296.65 71.3808V108.281C296.65 112.981 300.34 117.001 305.03 117.001C309.72 117.001 313.41 112.981 313.41 108.281V71.3808C313.41 65.3908 315.2 60.6008 318.62 56.8508C322.02 53.1308 326.21 51.2308 331.18 51.2308C336.15 51.2308 340.34 53.1308 343.74 56.8508C347.17 60.6008 348.95 65.3808 348.95 71.3808V108.281C348.95 112.981 352.64 117.001 357.33 117.001C362.02 117.001 365.71 112.981 365.71 108.281V71.3808C365.71 60.5008 362.34 51.7308 355.71 44.9308H355.74Z" fill="#FB1E00"/>
</svg>
