<?xml version="1.0" encoding="UTF-8"?><svg id="_лой_2" xmlns="http://www.w3.org/2000/svg" viewBox="0 0 861.89 158.84"><defs><style>.cls-1{fill:#fff;}</style></defs><g id="_лой_1-2"><g><path class="cls-1" d="M427.16,53.02c-8.01-7.68-17.9-11.42-29.67-11.42s-21.65,3.75-29.67,11.42c-8.02,7.67-12.11,17.56-12.11,29.84s4.09,22.33,12.28,30.18c8.01,7.68,17.9,11.59,29.5,11.59s21.48-3.92,29.5-11.59c8.19-7.84,12.28-17.9,12.28-30.18s-4.09-22.17-12.11-29.84Zm-11.99,48.26c-4.76,4.67-10.69,6.99-17.68,6.99s-12.92-2.32-17.68-6.99c-4.85-4.76-7.33-10.86-7.33-18.42s2.51-13.28,7.33-17.9c4.79-4.59,10.69-6.93,17.68-6.93s12.89,2.35,17.68,6.93c4.82,4.62,7.33,10.51,7.33,17.9s-2.49,13.65-7.33,18.42Z"/><path class="cls-1" d="M658.71,53.02c-8.01-7.68-17.9-11.42-29.67-11.42s-21.66,3.75-29.67,11.42c-8.02,7.67-12.11,17.56-12.11,29.84s4.09,22.33,12.28,30.18c8.01,7.68,17.9,11.59,29.5,11.59s21.48-3.92,29.5-11.59c8.19-7.84,12.28-17.9,12.28-30.18s-4.09-22.17-12.11-29.84Zm-11.99,48.26c-4.76,4.67-10.69,6.99-17.68,6.99s-12.92-2.32-17.68-6.99c-4.84-4.76-7.33-10.86-7.33-18.42s2.51-13.28,7.33-17.9c4.79-4.59,10.69-6.93,17.68-6.93s12.89,2.35,17.68,6.93c4.82,4.62,7.33,10.51,7.33,17.9s-2.49,13.65-7.33,18.42Z"/><path class="cls-1" d="M849.78,53.02c-8.01-7.68-17.9-11.42-29.67-11.42s-21.66,3.75-29.67,11.42c-8.02,7.67-12.11,17.56-12.11,29.84s4.09,22.33,12.28,30.18c8.02,7.68,17.9,11.59,29.5,11.59s21.48-3.92,29.5-11.59c8.19-7.84,12.28-17.9,12.28-30.18s-4.09-22.17-12.11-29.84Zm-11.99,48.26c-4.76,4.67-10.69,6.99-17.67,6.99s-12.92-2.32-17.68-6.99c-4.85-4.76-7.33-10.86-7.33-18.42s2.51-13.28,7.33-17.9c4.79-4.59,10.69-6.93,17.68-6.93s12.89,2.35,17.67,6.93c4.82,4.62,7.33,10.51,7.33,17.9s-2.49,13.65-7.33,18.42Z"/><path class="cls-1" d="M278.88,53.28c-8.01-7.68-17.9-11.42-29.67-11.42-9.26,0-21.01,4.1-28.33,11.42-7.32,7.32-12.27,16.12-12.27,32.97v63.88c0,4.7,3.69,8.72,8.38,8.72s8.38-4.02,8.38-8.72v-63.88c0-9.83,2.59-16.34,7.29-21.03,4.69-4.69,11.25-6.93,16.55-6.93,6.99,0,12.89,2.34,17.68,6.93,4.82,4.62,7.33,10.52,7.33,17.91s-2.49,13.65-7.33,18.42c-4.76,4.67-10.69,6.93-17.68,6.93h-4.48c-4.6,0-8.54,3.61-8.54,8.21s3.94,8.22,8.54,8.22h4.48c11.6,0,21.48-3.92,29.5-11.59,8.19-7.84,12.28-17.9,12.28-30.18s-4.09-22.17-12.11-29.84Z"/><path class="cls-1" d="M694.52,113.21c8.01,7.68,17.91,11.42,29.67,11.42,9.26,0,21.01-4.1,28.34-11.42,7.32-7.32,12.27-16.12,12.27-32.97V16.36c0-4.7-3.69-8.72-8.38-8.72s-8.38,4.02-8.38,8.72v63.88c0,9.83-2.59,16.34-7.29,21.03-4.69,4.69-11.25,6.93-16.55,6.93-6.99,0-12.89-2.35-17.68-6.93-4.82-4.62-7.33-10.52-7.33-17.91s2.49-13.65,7.33-18.42c4.76-4.67,10.69-6.93,17.68-6.93h4.48c4.6,0,8.54-3.61,8.54-8.21s-3.94-8.22-8.54-8.22h-4.48c-11.6,0-21.48,3.92-29.5,11.59-8.19,7.84-12.28,17.9-12.28,30.18s4.09,22.17,12.11,29.84Z"/><path class="cls-1" d="M343.11,42.45h-2.01c-8.6,0-14.7,3.46-19.28,12.89v-4.17c0-4.69-3.69-8.72-8.38-8.72s-8.38,4.02-8.38,8.72V115.28c0,4.7,3.69,8.72,8.38,8.72s8.38-4.02,8.38-8.72v-22.45c0-22.59,8.28-34.48,21.29-34.48,4.45,0,8.26-3.49,8.26-7.94s-3.81-7.95-8.26-7.95Z"/><path class="cls-1" d="M563.74,51.93c-6.62-6.8-14.78-10.13-24.5-10.13s-19.52,4.11-26.2,13.26c-6.68-9.15-16.48-13.26-26.2-13.26s-17.88,3.32-24.5,10.13c-6.62,6.8-10,15.56-10,26.45v36.9c0,4.7,3.69,8.72,8.38,8.72s8.39-4.02,8.39-8.72v-36.9c0-5.99,1.78-10.78,5.21-14.53,3.4-3.72,7.59-5.62,12.56-5.62s9.16,1.9,12.56,5.62c3.43,3.75,5.21,8.53,5.21,14.53v36.9c0,4.7,3.69,8.72,8.38,8.72s8.38-4.02,8.38-8.72v-36.9c0-5.99,1.79-10.78,5.21-14.53,3.4-3.72,7.59-5.62,12.56-5.62s9.16,1.9,12.56,5.62c3.43,3.75,5.21,8.53,5.21,14.53v36.9c0,4.7,3.69,8.72,8.38,8.72s8.38-4.02,8.38-8.72v-36.9c0-10.88-3.37-19.65-10-26.45Z"/><g><path class="cls-1" d="M129.24,74.56c-4.72,0-8.56,3.83-8.56,8.56,0,10.55-4.11,20.47-11.57,27.92-7.46,7.46-17.38,11.57-27.93,11.57h0c-10.55,0-20.47-4.11-27.92-11.57-7.46-7.46-11.57-17.38-11.57-27.93s4.11-20.47,11.57-27.92c7.46-7.46,17.38-11.57,27.92-11.57,4.73,0,8.56-3.83,8.56-8.56s-3.83-8.56-8.56-8.56c-10.63,0-20.81,2.92-29.64,8.37-6.29,3.76-14.09-1.78-12.52-8.97,1.39-6.35-.37-13.26-5.31-18.19C26,0,13.49,0,5.78,7.71c-7.71,7.71-7.71,20.22,0,27.93,4.94,4.94,11.82,6.72,18.17,5.33,7.19-1.57,12.75,6.21,9,12.5-5.45,8.83-8.38,19.01-8.38,29.65,0,15.12,5.89,29.34,16.58,40.03,10.69,10.69,24.91,16.58,40.03,16.58h0c15.12,0,29.34-5.89,40.03-16.58,10.69-10.69,16.58-24.91,16.58-40.03,0-4.73-3.83-8.56-8.56-8.56Z"/><path class="cls-1" d="M156.59,7.71c-10.28-10.28-26.95-10.28-37.23,0-5.25,5.25-7.82,12.14-7.71,19.02,.29,18.82-13.82,34.77-32.54,36.75-4.34,.46-8.56,2.34-11.88,5.67-7.71,7.71-7.71,20.22,0,27.93,7.71,7.71,20.22,7.71,27.93,0,3.32-3.33,5.21-7.55,5.66-11.89,1.99-18.72,17.93-32.82,36.75-32.53,6.88,.11,13.77-2.46,19.02-7.71,10.29-10.29,10.29-26.95,0-37.24Z"/></g></g></g></svg>