<svg width="28" height="28" viewBox="0 0 28 28" fill="none" xmlns="http://www.w3.org/2000/svg">
<path d="M25 7.1164C24.1906 7.47544 23.3206 7.71799 22.4077 7.82711C23.3395 7.26853 24.0553 6.38402 24.3922 5.33C23.5201 5.84733 22.5541 6.22287 21.526 6.42527C20.7027 5.54802 19.5297 5 18.2315 5C15.7389 5 13.7178 7.02081 13.7178 9.51342C13.7178 9.86718 13.7578 10.2117 13.8348 10.542C10.0835 10.3538 6.75779 8.55685 4.53161 5.8261C4.14309 6.4927 3.92044 7.26798 3.92044 8.09519C3.92044 9.66115 4.71729 11.0426 5.92839 11.852C5.18853 11.8286 4.49256 11.6255 3.88403 11.2875C3.88352 11.3063 3.88352 11.3252 3.88352 11.3443C3.88352 13.5311 5.43937 15.3552 7.50418 15.7701C7.12545 15.8733 6.7267 15.9284 6.31507 15.9284C6.02423 15.9284 5.74154 15.9 5.46588 15.8474C6.0403 17.6406 7.70713 18.9455 9.68229 18.9818C8.13756 20.1925 6.19144 20.9141 4.07668 20.9141C3.71236 20.9141 3.3531 20.8926 3 20.8509C4.99749 22.1317 7.36998 22.8789 9.9189 22.8789C18.2209 22.8789 22.761 16.0013 22.761 10.0367C22.761 9.841 22.7566 9.64641 22.7479 9.4527C23.6297 8.81645 24.3949 8.02159 25 7.1164Z" fill="#D0D0D1"/>
</svg>
