<svg width="34" height="35" viewBox="0 0 34 35" fill="none" xmlns="http://www.w3.org/2000/svg">
<path d="M32.9968 15.94C32.5918 15.6333 32.0668 15.5283 31.5735 15.6533C31.0968 15.7766 30.7035 15.8333 30.3335 15.8333C27.5768 15.8333 25.3335 13.59 25.3285 10.9366C25.3368 10.88 25.3552 10.7133 25.3568 10.6566C25.3785 10.1283 25.1468 9.62163 24.7352 9.29163C24.3235 8.96163 23.7785 8.84163 23.2668 8.97996C22.7785 9.10663 22.3768 9.16663 22.0002 9.16663C19.2435 9.16663 17.0002 6.9233 17.0002 4.16663C17.0002 3.80496 17.0518 3.42663 17.1652 2.9733C17.2952 2.4483 17.1618 1.8933 16.8085 1.4833C16.4568 1.07496 15.9402 0.868298 15.3868 0.913298C6.80516 1.73996 0.333496 8.86996 0.333496 17.5C0.333496 26.69 7.81016 34.1666 17.0002 34.1666C26.1902 34.1666 33.6668 26.69 33.6668 17.5C33.6668 17.4183 33.6618 17.3383 33.6552 17.2333C33.6435 16.725 33.4018 16.2483 32.9968 15.94ZM11.1668 7.49996C12.5468 7.49996 13.6668 8.6183 13.6668 9.99996C13.6668 11.3816 12.5468 12.5 11.1668 12.5C9.78683 12.5 8.66683 11.3816 8.66683 9.99996C8.66683 8.6183 9.78683 7.49996 11.1668 7.49996ZM7.83349 20.8333C6.4535 20.8333 5.3335 19.715 5.3335 18.3333C5.3335 16.9516 6.4535 15.8333 7.83349 15.8333C9.21349 15.8333 10.3335 16.9516 10.3335 18.3333C10.3335 19.715 9.21349 20.8333 7.83349 20.8333ZM12.8335 27.5C11.4535 27.5 10.3335 26.3816 10.3335 25C10.3335 23.6183 11.4535 22.5 12.8335 22.5C14.2135 22.5 15.3335 23.6183 15.3335 25C15.3335 26.3816 14.2135 27.5 12.8335 27.5ZM17.0002 16.6666C17.0002 15.285 18.1202 14.1666 19.5002 14.1666C20.8802 14.1666 22.0002 15.285 22.0002 16.6666C22.0002 18.0483 20.8802 19.1666 19.5002 19.1666C18.1202 19.1666 17.0002 18.0483 17.0002 16.6666ZM22.8335 27.5C21.4535 27.5 20.3335 26.3816 20.3335 25C20.3335 23.6183 21.4535 22.5 22.8335 22.5C24.2135 22.5 25.3335 23.6183 25.3335 25C25.3335 26.3816 24.2135 27.5 22.8335 27.5Z" fill="black"/>
</svg>
