<svg width="256" height="256" viewBox="0 0 256 256" fill="none" xmlns="http://www.w3.org/2000/svg">
<g clip-path="url(#clip0_2036_42480)">
<path d="M183.615 133.565C178.005 133.565 173.441 138.115 173.441 143.733C173.441 156.265 168.556 168.048 159.689 176.898C150.822 185.759 139.032 190.641 126.492 190.641C113.953 190.641 102.162 185.759 93.3068 176.898C84.4399 168.037 79.5549 156.253 79.5549 143.722C79.5549 131.19 84.4399 119.406 93.3068 110.557C102.174 101.695 113.964 96.8134 126.492 96.8134C132.114 96.8134 136.666 92.2639 136.666 86.6454C136.666 81.0269 132.114 76.4775 126.492 76.4775C113.857 76.4775 101.758 79.946 91.2624 86.4197C83.7863 90.886 74.5153 84.3053 76.3814 75.7647C78.0335 68.2219 75.9416 60.0138 70.07 54.1578C60.9061 44.9995 46.0369 44.9995 36.873 54.1578C27.709 63.3161 27.709 78.176 36.873 87.3344C42.7445 93.2023 50.922 95.3167 58.4694 93.6656C67.0153 91.8007 73.6239 101.042 69.1667 108.514C62.6889 119.003 59.2064 131.095 59.2064 143.733C59.2064 161.694 66.2071 178.585 78.9131 191.283C91.619 203.981 108.52 210.977 126.492 210.977C144.463 210.977 161.365 203.981 174.071 191.283C186.777 178.585 193.777 161.694 193.777 143.733C193.777 138.115 189.225 133.565 183.603 133.565H183.615Z" fill="#FB1E00"/>
<path d="M216.122 54.1583C203.903 41.9472 184.089 41.9472 171.871 54.1583C165.631 60.3945 162.576 68.5788 162.707 76.7512C163.052 99.1065 146.281 118.053 124.031 120.405C118.872 120.951 113.856 123.184 109.91 127.14C100.746 136.298 100.746 151.158 109.91 160.316C119.074 169.474 133.943 169.474 143.107 160.316C147.053 156.361 149.299 151.348 149.835 146.193C152.199 123.957 171.146 107.208 193.515 107.552C201.692 107.683 209.881 104.63 216.122 98.3937C228.352 86.1708 228.352 66.3813 216.122 54.1583Z" fill="#FB1E00"/>
</g>
<defs>
<clipPath id="clip0_2036_42480">
<rect width="196" height="166" fill="white" transform="translate(30 45)"/>
</clipPath>
</defs>
</svg>
