<svg width="280" height="58" viewBox="0 0 280 58" fill="none" xmlns="http://www.w3.org/2000/svg">
<path opacity="0.7" d="M41.5898 57.5283H37.0062C25.1931 57.5283 15.625 47.9536 15.625 36.1472V0.0664062H28.5673V36.1472C28.5673 39.3944 29.2021 42.5415 30.4582 45.5081C31.6676 48.3745 33.4048 50.947 35.6097 53.1519C37.3804 54.9225 39.3848 56.3925 41.5898 57.5283Z" fill="white"/>
<path opacity="0.3" d="M25.9715 57.4619H21.3812C9.57476 57.4619 0 47.8872 0 36.0808V0H12.949V36.0808C12.949 39.328 13.5837 42.4751 14.8399 45.4417C16.0493 48.3081 17.7865 50.8805 19.9914 53.0855C21.762 54.8561 23.7665 56.3261 25.9715 57.4619Z" fill="white"/>
<path d="M64.7026 21.4476V57.5283H52.6156C40.8091 57.5283 31.2344 47.9536 31.2344 36.1472V0.0664062H43.3214C55.1278 0.0664062 64.7026 9.64117 64.7026 21.4476Z" fill="white"/>
<path d="M89.6094 18.5813H98.536V22.6705C99.7788 20.3186 102.939 17.833 107.463 17.833C111.679 17.833 115.153 19.5702 116.763 23.2318C118.935 19.3831 121.848 17.833 126.312 17.833C134.496 17.833 136.975 23.5992 136.975 30.9156V48.7155H127.681V31.1695C127.681 28.3766 126.626 26.018 123.585 26.018C119.309 26.018 117.946 29.0581 117.946 32.7798V48.7155H108.645V32.7798C108.645 30.5481 108.766 26.018 104.489 26.018C99.6518 26.018 98.9102 29.7998 98.9102 33.7085V48.7155H89.6094V18.5813Z" fill="white"/>
<path d="M143.305 18.5811V48.7152H152.605V18.5811H143.305Z" fill="white"/>
<path d="M153.404 9.04678C153.404 12.0602 150.966 14.499 147.952 14.499C144.939 14.499 142.5 12.0602 142.5 9.04678C142.5 6.03336 144.939 3.58789 147.952 3.58789C150.966 3.58789 153.404 6.03336 153.404 9.04678Z" fill="white"/>
<path d="M159.07 18.5813H167.997V22.6705C169.24 20.3186 172.4 17.833 176.93 17.833C186.351 17.833 188.089 24.0336 188.089 32.0983V48.7155H178.788V33.9558C178.788 30.488 178.728 26.018 173.95 26.018C169.113 26.018 168.371 29.7998 168.371 33.7085V48.7155H159.07V18.5813Z" fill="white"/>
<path d="M214.314 26.0184H206.129V36.0676C206.129 39.2881 206.503 41.6467 210.532 41.6467C211.528 41.6467 213.512 41.5198 214.314 40.7781V48.5288C212.27 49.2705 209.978 49.4575 207.806 49.4575C201.606 49.4575 196.828 46.9185 196.828 40.3438V26.0184H190.875V18.5818H196.828V9.64844H206.129V18.5818H214.314V26.0184Z" fill="white"/>
<path fill-rule="evenodd" clip-rule="evenodd" d="M240.19 38.7403L246.698 43.5043C243.725 47.2927 238.827 49.4576 233.996 49.4576C224.702 49.4576 217.266 43.2637 217.266 33.6555C217.266 26.4461 220.479 17.8535 233.161 17.8535H245.97C245.97 18.8558 245.97 21.4616 245.97 24.5485C245.97 30.5753 242.455 37.2235 232.974 37.2235H226.647C227.495 40.5376 230.094 42.3951 233.562 42.3951C236.596 42.3951 238.647 40.845 240.19 38.7403ZM233.028 30.5286C237.017 30.5286 237.738 28.0363 237.738 24.5485C237.738 24.5485 234.892 24.5485 233.028 24.5485C228.03 24.5485 226.627 27.7156 226.627 30.5286C228.03 30.5286 231.511 30.5286 233.028 30.5286Z" fill="white"/>
<path fill-rule="evenodd" clip-rule="evenodd" d="M273.487 38.7403L279.995 43.5043C277.022 47.2927 272.124 49.4576 267.293 49.4576C257.999 49.4576 250.562 43.2637 250.562 33.6555C250.562 26.4461 253.776 17.8535 266.458 17.8535H279.267C279.267 18.8558 279.267 21.4616 279.267 24.5485C279.267 30.5753 275.752 37.2235 266.271 37.2235H259.944C260.792 40.5376 263.391 42.3951 266.859 42.3951C269.892 42.3951 271.944 40.845 273.487 38.7403ZM266.324 30.5286C270.313 30.5286 271.035 28.0363 271.035 24.5485C271.035 24.5485 268.189 24.5485 266.324 24.5485C261.327 24.5485 259.923 27.7156 259.923 30.5286C261.327 30.5286 264.808 30.5286 266.324 30.5286Z" fill="white"/>
</svg>
