<svg width="50" height="50" viewBox="0 0 50 50" fill="none" xmlns="http://www.w3.org/2000/svg">
<path d="M36.8958 33.9375C37.2881 34.3298 37.5085 34.8619 37.5085 35.4166C37.5085 35.9714 37.2881 36.5035 36.8958 36.8958C36.5035 37.2881 35.9714 37.5085 35.4166 37.5085C34.8619 37.5085 34.3298 37.2881 33.9375 36.8958L25 27.9375L16.0625 36.8958C15.6702 37.2881 15.1381 37.5085 14.5833 37.5085C14.0285 37.5085 13.4964 37.2881 13.1041 36.8958C12.7118 36.5035 12.4915 35.9714 12.4915 35.4166C12.4915 34.8619 12.7118 34.3298 13.1041 33.9375L22.0625 25L13.1041 16.0625C12.7118 15.6702 12.4915 15.1381 12.4915 14.5833C12.4915 14.0285 12.7118 13.4964 13.1041 13.1041C13.4964 12.7118 14.0285 12.4915 14.5833 12.4915C15.1381 12.4915 15.6702 12.7118 16.0625 13.1041L25 22.0625L33.9375 13.1041C34.3298 12.7118 34.8619 12.4915 35.4166 12.4915C35.9714 12.4915 36.5035 12.7118 36.8958 13.1041C37.2881 13.4964 37.5085 14.0285 37.5085 14.5833C37.5085 15.1381 37.2881 15.6702 36.8958 16.0625L27.9375 25L36.8958 33.9375Z" fill="white"/>
</svg>
