<svg width="538" height="450" viewBox="0 0 538 450" fill="none" xmlns="http://www.w3.org/2000/svg">
<rect width="538" height="450" rx="20" fill="#191AFF"/>
<path d="M214.264 202H210.184V190.512H214.264C217.912 190.512 220.12 192.848 220.12 196.192C220.12 199.536 217.832 202 214.264 202ZM212.616 192.608V199.904H214.136C216.424 199.904 217.624 198.576 217.624 196.192C217.624 193.904 216.424 192.608 214.136 192.608H212.616ZM224.241 202H221.809V190.512H226.305C229.201 190.512 230.881 191.856 230.881 194.24C230.881 195.792 229.921 197.024 228.289 197.568L231.249 202H228.353L225.761 197.936H224.241V202ZM224.241 192.528V195.936H226.193C227.665 195.936 228.449 195.36 228.449 194.24C228.449 193.104 227.665 192.528 226.193 192.528H224.241ZM240.364 202L239.5 199.536H235.036L234.156 202H231.708L236.028 190.512H238.684L242.972 202H240.364ZM237.292 193.168L235.724 197.6H238.828L237.292 193.168ZM246.804 202H244.372V190.512H246.804V202ZM256.641 202L251.377 193.984V202H249.153V190.512H251.777L256.785 198.128V190.512H259.025V202H256.641ZM269.115 199.888V202H261.387V190.512H269.003V192.624H263.819V195.04H268.523V197.136H263.819V199.888H269.115ZM273.429 202H270.997V190.512H275.493C278.389 190.512 280.069 191.856 280.069 194.24C280.069 195.792 279.109 197.024 277.477 197.568L280.437 202H277.541L274.949 197.936H273.429V202ZM273.429 192.528V195.936H275.381C276.853 195.936 277.637 195.36 277.637 194.24C277.637 193.104 276.853 192.528 275.381 192.528H273.429ZM290.429 202H287.997V192.704H284.381V190.512H294.061V192.704H290.429V202ZM300.072 202.24C296.76 202.24 294.2 199.68 294.2 196.24C294.2 192.8 296.76 190.272 300.072 190.272C303.4 190.272 305.976 192.8 305.976 196.24C305.976 199.68 303.4 202.24 300.072 202.24ZM300.072 200.064C302.184 200.064 303.464 198.352 303.464 196.24C303.464 194.128 302.184 192.448 300.072 192.448C297.976 192.448 296.696 194.128 296.696 196.24C296.696 198.352 297.976 200.064 300.072 200.064ZM312.853 202.24C309.541 202.24 306.981 199.68 306.981 196.24C306.981 192.8 309.541 190.272 312.853 190.272C316.181 190.272 318.757 192.8 318.757 196.24C318.757 199.68 316.181 202.24 312.853 202.24ZM312.853 200.064C314.965 200.064 316.245 198.352 316.245 196.24C316.245 194.128 314.965 192.448 312.853 192.448C310.757 192.448 309.477 194.128 309.477 196.24C309.477 198.352 310.757 200.064 312.853 200.064ZM327.858 202H320.434V190.512H322.866V199.808H327.858V202Z" fill="white"/>
<path d="M106.844 254H97.664V228.152H106.844C115.052 228.152 120.02 233.408 120.02 240.932C120.02 248.456 114.872 254 106.844 254ZM103.136 232.868V249.284H106.556C111.704 249.284 114.404 246.296 114.404 240.932C114.404 235.784 111.704 232.868 106.556 232.868H103.136ZM129.292 254H123.82V228.152H133.936C140.452 228.152 144.232 231.176 144.232 236.54C144.232 240.032 142.072 242.804 138.4 244.028L145.06 254H138.544L132.712 244.856H129.292V254ZM129.292 232.688V240.356H133.684C136.996 240.356 138.76 239.06 138.76 236.54C138.76 233.984 136.996 232.688 133.684 232.688H129.292ZM165.569 254L163.625 248.456H153.581L151.601 254H146.093L155.813 228.152H161.789L171.437 254H165.569ZM158.657 234.128L155.129 244.1H162.113L158.657 234.128ZM180.058 254H174.586V228.152H180.058V254ZM202.192 254L190.348 235.964V254H185.344V228.152H191.248L202.516 245.288V228.152H207.556V254H202.192ZM230.259 249.248V254H212.871V228.152H230.007V232.904H218.343V238.34H228.927V243.056H218.343V249.248H230.259ZM239.964 254H234.492V228.152H244.608C251.124 228.152 254.904 231.176 254.904 236.54C254.904 240.032 252.744 242.804 249.072 244.028L255.732 254H249.216L243.384 244.856H239.964V254ZM239.964 232.688V240.356H244.356C247.668 240.356 249.432 239.06 249.432 236.54C249.432 233.984 247.668 232.688 244.356 232.688H239.964ZM266.843 246.332H255.863V241.868H266.843V246.332ZM275.964 254H270.492V228.152H275.964V238.34H287.16V228.152H292.632V254H287.16V243.056H275.964V254ZM319.153 228.152V244.172C319.153 250.292 315.265 254.54 308.533 254.54C301.693 254.54 297.877 250.292 297.877 244.172V228.152H303.349V244.28C303.349 247.484 304.897 249.644 308.533 249.644C312.133 249.644 313.681 247.484 313.681 244.28V228.152H319.153ZM335.835 254.54C328.563 254.54 322.875 248.636 322.875 241.04C322.875 233.48 328.563 227.612 335.835 227.612C342.639 227.612 347.967 232.148 348.867 238.772H343.071C342.459 235.064 339.579 232.508 335.907 232.508C331.479 232.508 328.491 236 328.491 241.04C328.491 246.116 331.479 249.644 335.907 249.644C339.579 249.644 342.423 247.052 343.071 243.344H348.867C347.967 250.04 342.639 254.54 335.835 254.54ZM358.159 254H352.687V228.152H358.159V239.528L367.555 228.152H373.819L363.559 240.536L374.107 254H367.375L358.159 242.192V254ZM382.873 250.796C382.873 252.776 381.505 254.18 379.525 254.18C377.545 254.18 376.141 252.776 376.141 250.796C376.141 248.78 377.545 247.376 379.525 247.376C381.505 247.376 382.873 248.78 382.873 250.796ZM396.434 245.576H392.366V254H386.894V228.152H396.434C402.734 228.152 406.658 231.14 406.658 236.756C406.658 242.372 402.734 245.576 396.434 245.576ZM396.398 232.76H392.366V240.968H396.398C399.494 240.968 401.222 239.348 401.222 236.792C401.222 234.236 399.494 232.76 396.398 232.76ZM429.999 254L425.175 235.928L420.351 254H414.807L408.183 228.152H413.511L417.687 245.684L422.439 228.152H428.019L432.627 245.756L436.839 228.152H442.203L435.543 254H429.999Z" fill="white"/>
</svg>
