<svg width="264" height="1752" viewBox="0 0 264 1752" fill="none" xmlns="http://www.w3.org/2000/svg" preserveAspectRatio="none">
<path d="M0 49H264V144H0V49Z" fill="#F8F8FF"/>
<path d="M0 384H264V479H0V384Z" fill="#F8F8FF"/>
<path d="M0 719H264V814H0V719Z" fill="#F8F8FF"/>
<path d="M0 1054H264V1149H0V1054Z" fill="#F8F8FF"/>
<path d="M0 1389H264V1484H0V1389Z" fill="#F8F8FF"/>
<path d="M0 1724H264V1819H0V1724Z" fill="#F8F8FF"/>
<path d="M264 1L-6.10352e-05 1M264 575.286L-8.6138e-05 575.286M264 96.7143L-6.5219e-05 96.7143M264 671L-9.03218e-05 671M264 192.429L-6.94028e-05 192.429M264 766.714L-9.45056e-05 766.714M264 288.143L-7.35866e-05 288.143M264 862.429L-9.86894e-05 862.429M264 431.714L-7.98623e-05 431.714M264 1006L-0.000104965 1006M264 527.429L-8.40461e-05 527.429M264 1101.71L-0.000109149 1101.71M264 144.571L-6.73109e-05 144.571M264 718.857L-9.24137e-05 718.857M264 240.286L-7.14947e-05 240.286M264 814.571L-9.65975e-05 814.571M264 383.857L-7.77704e-05 383.857M264 958.143L-0.000102873 958.143M264 336L-7.56785e-05 336M264 910.286L-0.000100781 910.286M264 479.571L-8.19542e-05 479.571M264 1053.86L-0.000107057 1053.86M264 48.8571L-6.31271e-05 48.8571M264 623.143L-8.82299e-05 623.143M264 1245.29L-0.000115425 1245.29M264 1341L-0.000119608 1341M264 1197.43L-0.000113333 1197.43M264 1149.57L-0.000111241 1149.57M264 1293.14L-0.000117517 1293.14M264 1431.29L-6.25198e-05 1431.29M264 1527L-6.67036e-05 1527M264 1383.43L-6.04279e-05 1383.43M264 1479.14L-6.46117e-05 1479.14M264 1619.29L-9.70236e-06 1619.29M264 1715L-1.38862e-05 1715M264 1571.43L-7.61046e-06 1571.43M264 1667.14L-1.17943e-05 1667.14" stroke="url(#paint0_linear_3051_5312)" stroke-opacity="0.4"/>
<defs>
<linearGradient id="paint0_linear_3051_5312" x1="264" y1="623.382" x2="3.76551e-05" y2="623.382" gradientUnits="userSpaceOnUse">
<stop stop-color="white" stop-opacity="0"/>
<stop offset="0.503237" stop-color="#A0A0A0"/>
<stop offset="1" stop-color="white" stop-opacity="0"/>
</linearGradient>
</defs>
</svg>
