<svg width="2771" height="513" viewBox="0 0 2771 513" fill="none" xmlns="http://www.w3.org/2000/svg">
<g clip-path="url(#clip0_1523_9639)">
<rect width="2771" height="513" fill="white"/>
<rect x="879" width="200" height="513" fill="#F8F8FF"/>
<rect x="1578" width="200" height="513" fill="#F8F8FF"/>
<rect x="180" width="200" height="513" fill="#F8F8FF"/>
<path d="M79 -17L79 535M1279 -17V535M279 -17L279 535M1479 -17V535M479 -17L479 535M1679 -17V535M679 -17V535M1879 -17V535M979 -17V535M2179 -17V535M1179 -17V535M2379 -17V535M379 -17L379 535M1579 -17V535M579 -17L579 535M1779 -17V535M879 -17V535M2079 -17V535M779 -17V535M1979 -17V535M1079 -17V535M2279 -17V535M179 -17L179 535M1379 -17V535M2679 -17V535M2879 -17V535M2579 -17V535M2479 -17V535M2779 -17V535" stroke="url(#paint0_linear_1523_9639)" stroke-opacity="0.4"/>
<path d="M9.26491 481.614V480.364H17.9922V481.614H14.3331V492H12.924V481.614H9.26491ZM21.326 486.75V492H19.9851V480.364H21.326V484.636H21.4396C21.6442 484.186 21.951 483.828 22.3601 483.562C22.773 483.294 23.3222 483.159 24.0078 483.159C24.6025 483.159 25.1233 483.278 25.5703 483.517C26.0173 483.752 26.3639 484.114 26.6101 484.602C26.8601 485.087 26.9851 485.705 26.9851 486.455V492H25.6442V486.545C25.6442 485.852 25.4643 485.316 25.1044 484.938C24.7483 484.555 24.254 484.364 23.6214 484.364C23.1821 484.364 22.7881 484.456 22.4396 484.642C22.0949 484.828 21.8222 485.098 21.6214 485.455C21.4245 485.811 21.326 486.242 21.326 486.75ZM34.9382 488.432V483.273H36.2791V492H34.9382V490.523H34.8473C34.6428 490.966 34.3246 491.343 33.8928 491.653C33.4609 491.96 32.9155 492.114 32.2564 492.114C31.7109 492.114 31.2261 491.994 30.8018 491.756C30.3776 491.513 30.0443 491.15 29.8018 490.665C29.5594 490.176 29.4382 489.561 29.4382 488.818V483.273H30.7791V488.727C30.7791 489.364 30.9571 489.871 31.3132 490.25C31.6731 490.629 32.1314 490.818 32.6882 490.818C33.0215 490.818 33.3606 490.733 33.7053 490.562C34.0537 490.392 34.3454 490.131 34.5803 489.778C34.8189 489.426 34.9382 488.977 34.9382 488.432Z" fill="#B5B5B5"/>
<path d="M111.886 492V480.364H118.863V481.614H113.295V485.545H118.34V486.795H113.295V492H111.886ZM121.001 492V483.273H122.296V484.591H122.387C122.546 484.159 122.834 483.809 123.251 483.54C123.667 483.271 124.137 483.136 124.66 483.136C124.758 483.136 124.881 483.138 125.029 483.142C125.177 483.146 125.289 483.152 125.364 483.159V484.523C125.319 484.511 125.215 484.494 125.052 484.472C124.893 484.445 124.724 484.432 124.546 484.432C124.122 484.432 123.743 484.521 123.41 484.699C123.08 484.873 122.819 485.116 122.626 485.426C122.436 485.733 122.342 486.083 122.342 486.477V492H121.001ZM126.954 492V483.273H128.295V492H126.954ZM127.636 481.818C127.374 481.818 127.149 481.729 126.96 481.551C126.774 481.373 126.681 481.159 126.681 480.909C126.681 480.659 126.774 480.445 126.96 480.267C127.149 480.089 127.374 480 127.636 480C127.897 480 128.121 480.089 128.306 480.267C128.496 480.445 128.59 480.659 128.59 480.909C128.59 481.159 128.496 481.373 128.306 481.551C128.121 481.729 127.897 481.818 127.636 481.818Z" fill="#B5B5B5"/>
<path d="M210.257 483.273C210.189 482.697 209.912 482.25 209.428 481.932C208.943 481.614 208.348 481.455 207.643 481.455C207.128 481.455 206.678 481.538 206.291 481.705C205.909 481.871 205.609 482.1 205.393 482.392C205.181 482.684 205.075 483.015 205.075 483.386C205.075 483.697 205.149 483.964 205.297 484.188C205.448 484.407 205.642 484.591 205.876 484.739C206.111 484.883 206.357 485.002 206.615 485.097C206.873 485.187 207.109 485.261 207.325 485.318L208.507 485.636C208.81 485.716 209.147 485.826 209.518 485.966C209.893 486.106 210.251 486.297 210.592 486.54C210.937 486.778 211.221 487.085 211.445 487.46C211.668 487.835 211.78 488.295 211.78 488.841C211.78 489.47 211.615 490.038 211.286 490.545C210.96 491.053 210.482 491.456 209.854 491.756C209.229 492.055 208.469 492.205 207.575 492.205C206.742 492.205 206.02 492.07 205.411 491.801C204.804 491.532 204.327 491.157 203.979 490.676C203.634 490.195 203.439 489.636 203.393 489H204.848C204.886 489.439 205.034 489.803 205.291 490.091C205.553 490.375 205.882 490.587 206.28 490.727C206.681 490.864 207.113 490.932 207.575 490.932C208.113 490.932 208.596 490.845 209.024 490.67C209.452 490.492 209.791 490.246 210.041 489.932C210.291 489.614 210.416 489.242 210.416 488.818C210.416 488.432 210.308 488.117 210.092 487.875C209.876 487.633 209.592 487.436 209.24 487.284C208.888 487.133 208.507 487 208.098 486.886L206.666 486.477C205.757 486.216 205.037 485.843 204.507 485.358C203.977 484.873 203.712 484.239 203.712 483.455C203.712 482.803 203.888 482.235 204.24 481.75C204.596 481.261 205.073 480.883 205.672 480.614C206.274 480.341 206.946 480.205 207.689 480.205C208.439 480.205 209.106 480.339 209.689 480.608C210.272 480.873 210.734 481.237 211.075 481.699C211.42 482.161 211.602 482.686 211.621 483.273H210.257ZM216.483 492.205C215.93 492.205 215.428 492.1 214.977 491.892C214.527 491.68 214.169 491.375 213.903 490.977C213.638 490.576 213.506 490.091 213.506 489.523C213.506 489.023 213.604 488.617 213.801 488.307C213.998 487.992 214.261 487.746 214.591 487.568C214.92 487.39 215.284 487.258 215.682 487.17C216.083 487.08 216.487 487.008 216.892 486.955C217.422 486.886 217.852 486.835 218.182 486.801C218.515 486.763 218.758 486.701 218.909 486.614C219.064 486.527 219.142 486.375 219.142 486.159V486.114C219.142 485.553 218.989 485.117 218.682 484.807C218.379 484.496 217.919 484.341 217.301 484.341C216.661 484.341 216.159 484.481 215.795 484.761C215.432 485.042 215.176 485.341 215.028 485.659L213.756 485.205C213.983 484.674 214.286 484.261 214.665 483.966C215.047 483.667 215.464 483.458 215.915 483.341C216.369 483.22 216.816 483.159 217.256 483.159C217.536 483.159 217.858 483.193 218.222 483.261C218.589 483.326 218.943 483.46 219.284 483.665C219.629 483.869 219.915 484.178 220.142 484.591C220.369 485.004 220.483 485.557 220.483 486.25V492H219.142V490.818H219.074C218.983 491.008 218.831 491.21 218.619 491.426C218.407 491.642 218.125 491.826 217.773 491.977C217.42 492.129 216.991 492.205 216.483 492.205ZM216.688 491C217.218 491 217.665 490.896 218.028 490.688C218.396 490.479 218.672 490.21 218.858 489.881C219.047 489.551 219.142 489.205 219.142 488.841V487.614C219.085 487.682 218.96 487.744 218.767 487.801C218.578 487.854 218.358 487.902 218.108 487.943C217.862 487.981 217.621 488.015 217.386 488.045C217.155 488.072 216.968 488.095 216.824 488.114C216.475 488.159 216.15 488.233 215.847 488.335C215.547 488.434 215.305 488.583 215.119 488.784C214.938 488.981 214.847 489.25 214.847 489.591C214.847 490.057 215.019 490.409 215.364 490.648C215.712 490.883 216.153 491 216.688 491ZM226.726 483.273V484.409H222.203V483.273H226.726ZM223.521 481.182H224.862V489.5C224.862 489.879 224.917 490.163 225.027 490.352C225.141 490.538 225.285 490.663 225.459 490.727C225.637 490.788 225.824 490.818 226.021 490.818C226.169 490.818 226.29 490.811 226.385 490.795C226.48 490.777 226.555 490.761 226.612 490.75L226.885 491.955C226.794 491.989 226.667 492.023 226.504 492.057C226.341 492.095 226.135 492.114 225.885 492.114C225.506 492.114 225.135 492.032 224.771 491.869C224.411 491.706 224.112 491.458 223.874 491.125C223.639 490.792 223.521 490.371 223.521 489.864V481.182Z" fill="#B5B5B5"/>
<path d="M307.843 483.273C307.775 482.697 307.498 482.25 307.013 481.932C306.529 481.614 305.934 481.455 305.229 481.455C304.714 481.455 304.263 481.538 303.877 481.705C303.495 481.871 303.195 482.1 302.979 482.392C302.767 482.684 302.661 483.015 302.661 483.386C302.661 483.697 302.735 483.964 302.883 484.188C303.034 484.407 303.228 484.591 303.462 484.739C303.697 484.883 303.943 485.002 304.201 485.097C304.459 485.187 304.695 485.261 304.911 485.318L306.093 485.636C306.396 485.716 306.733 485.826 307.104 485.966C307.479 486.106 307.837 486.297 308.178 486.54C308.523 486.778 308.807 487.085 309.031 487.46C309.254 487.835 309.366 488.295 309.366 488.841C309.366 489.47 309.201 490.038 308.871 490.545C308.546 491.053 308.068 491.456 307.44 491.756C306.815 492.055 306.055 492.205 305.161 492.205C304.328 492.205 303.606 492.07 302.996 491.801C302.39 491.532 301.913 491.157 301.565 490.676C301.22 490.195 301.025 489.636 300.979 489H302.434C302.472 489.439 302.62 489.803 302.877 490.091C303.138 490.375 303.468 490.587 303.866 490.727C304.267 490.864 304.699 490.932 305.161 490.932C305.699 490.932 306.182 490.845 306.61 490.67C307.038 490.492 307.377 490.246 307.627 489.932C307.877 489.614 308.002 489.242 308.002 488.818C308.002 488.432 307.894 488.117 307.678 487.875C307.462 487.633 307.178 487.436 306.826 487.284C306.474 487.133 306.093 487 305.684 486.886L304.252 486.477C303.343 486.216 302.623 485.843 302.093 485.358C301.563 484.873 301.298 484.239 301.298 483.455C301.298 482.803 301.474 482.235 301.826 481.75C302.182 481.261 302.659 480.883 303.258 480.614C303.86 480.341 304.532 480.205 305.275 480.205C306.025 480.205 306.692 480.339 307.275 480.608C307.858 480.873 308.32 481.237 308.661 481.699C309.006 482.161 309.188 482.686 309.207 483.273H307.843ZM317.001 488.432V483.273H318.342V492H317.001V490.523H316.91C316.705 490.966 316.387 491.343 315.955 491.653C315.523 491.96 314.978 492.114 314.319 492.114C313.773 492.114 313.289 491.994 312.864 491.756C312.44 491.513 312.107 491.15 311.864 490.665C311.622 490.176 311.501 489.561 311.501 488.818V483.273H312.842V488.727C312.842 489.364 313.02 489.871 313.376 490.25C313.736 490.629 314.194 490.818 314.751 490.818C315.084 490.818 315.423 490.733 315.768 490.562C316.116 490.392 316.408 490.131 316.643 489.778C316.881 489.426 317.001 488.977 317.001 488.432ZM322.138 486.75V492H320.798V483.273H322.093V484.636H322.207C322.411 484.193 322.722 483.837 323.138 483.568C323.555 483.295 324.093 483.159 324.752 483.159C325.343 483.159 325.86 483.28 326.303 483.523C326.746 483.761 327.091 484.125 327.337 484.614C327.584 485.098 327.707 485.712 327.707 486.455V492H326.366V486.545C326.366 485.86 326.188 485.326 325.832 484.943C325.476 484.557 324.987 484.364 324.366 484.364C323.938 484.364 323.555 484.456 323.218 484.642C322.885 484.828 322.621 485.098 322.428 485.455C322.235 485.811 322.138 486.242 322.138 486.75Z" fill="#B5B5B5"/>
<path d="M402.839 480.364H404.521L408.475 490.023H408.612L412.566 480.364H414.248V492H412.93V483.159H412.816L409.18 492H407.907L404.271 483.159H404.157V492H402.839V480.364ZM420.437 492.182C419.649 492.182 418.958 491.994 418.363 491.619C417.772 491.244 417.31 490.72 416.977 490.045C416.647 489.371 416.482 488.583 416.482 487.682C416.482 486.773 416.647 485.979 416.977 485.301C417.31 484.623 417.772 484.097 418.363 483.722C418.958 483.347 419.649 483.159 420.437 483.159C421.225 483.159 421.914 483.347 422.505 483.722C423.1 484.097 423.562 484.623 423.891 485.301C424.225 485.979 424.391 486.773 424.391 487.682C424.391 488.583 424.225 489.371 423.891 490.045C423.562 490.72 423.1 491.244 422.505 491.619C421.914 491.994 421.225 492.182 420.437 492.182ZM420.437 490.977C421.035 490.977 421.528 490.824 421.914 490.517C422.3 490.21 422.586 489.807 422.772 489.307C422.958 488.807 423.05 488.265 423.05 487.682C423.05 487.098 422.958 486.555 422.772 486.051C422.586 485.547 422.3 485.14 421.914 484.83C421.528 484.519 421.035 484.364 420.437 484.364C419.838 484.364 419.346 484.519 418.96 484.83C418.573 485.14 418.287 485.547 418.102 486.051C417.916 486.555 417.823 487.098 417.823 487.682C417.823 488.265 417.916 488.807 418.102 489.307C418.287 489.807 418.573 490.21 418.96 490.517C419.346 490.824 419.838 490.977 420.437 490.977ZM427.779 486.75V492H426.438V483.273H427.734V484.636H427.847C428.052 484.193 428.362 483.837 428.779 483.568C429.196 483.295 429.734 483.159 430.393 483.159C430.984 483.159 431.501 483.28 431.944 483.523C432.387 483.761 432.732 484.125 432.978 484.614C433.224 485.098 433.347 485.712 433.347 486.455V492H432.006V486.545C432.006 485.86 431.828 485.326 431.472 484.943C431.116 484.557 430.628 484.364 430.006 484.364C429.578 484.364 429.196 484.456 428.859 484.642C428.525 484.828 428.262 485.098 428.069 485.455C427.876 485.811 427.779 486.242 427.779 486.75Z" fill="#B5B5B5"/>
<path d="M507.929 481.614V480.364H516.656V481.614H512.997V492H511.588V481.614H507.929ZM522.962 488.432V483.273H524.303V492H522.962V490.523H522.871C522.666 490.966 522.348 491.343 521.916 491.653C521.484 491.96 520.939 492.114 520.28 492.114C519.734 492.114 519.25 491.994 518.825 491.756C518.401 491.513 518.068 491.15 517.825 490.665C517.583 490.176 517.462 489.561 517.462 488.818V483.273H518.803V488.727C518.803 489.364 518.981 489.871 519.337 490.25C519.696 490.629 520.155 490.818 520.712 490.818C521.045 490.818 521.384 490.733 521.729 490.562C522.077 490.392 522.369 490.131 522.604 489.778C522.842 489.426 522.962 488.977 522.962 488.432ZM530.418 492.182C529.577 492.182 528.851 491.996 528.241 491.625C527.635 491.25 527.168 490.727 526.838 490.057C526.512 489.383 526.349 488.598 526.349 487.705C526.349 486.811 526.512 486.023 526.838 485.341C527.168 484.655 527.626 484.121 528.213 483.739C528.804 483.352 529.493 483.159 530.281 483.159C530.736 483.159 531.185 483.235 531.628 483.386C532.071 483.538 532.474 483.784 532.838 484.125C533.202 484.462 533.491 484.909 533.707 485.466C533.923 486.023 534.031 486.708 534.031 487.523V488.091H527.304V486.932H532.668C532.668 486.439 532.569 486 532.372 485.614C532.179 485.227 531.902 484.922 531.543 484.699C531.187 484.475 530.766 484.364 530.281 484.364C529.747 484.364 529.285 484.496 528.895 484.761C528.509 485.023 528.211 485.364 528.003 485.784C527.795 486.205 527.69 486.655 527.69 487.136V487.909C527.69 488.568 527.804 489.127 528.031 489.585C528.262 490.04 528.582 490.386 528.991 490.625C529.401 490.86 529.876 490.977 530.418 490.977C530.77 490.977 531.088 490.928 531.372 490.83C531.66 490.727 531.908 490.576 532.116 490.375C532.325 490.17 532.486 489.917 532.599 489.614L533.895 489.977C533.759 490.417 533.529 490.803 533.207 491.136C532.885 491.466 532.488 491.723 532.014 491.909C531.541 492.091 531.009 492.182 530.418 492.182Z" fill="#B5B5B5"/>
<path d="M610.71 492L607.528 480.364H608.96L611.392 489.841H611.506L613.983 480.364H615.574L618.051 489.841H618.165L620.597 480.364H622.028L618.847 492H617.392L614.824 482.727H614.733L612.165 492H610.71ZM626.449 492.182C625.608 492.182 624.883 491.996 624.273 491.625C623.667 491.25 623.199 490.727 622.869 490.057C622.544 489.383 622.381 488.598 622.381 487.705C622.381 486.811 622.544 486.023 622.869 485.341C623.199 484.655 623.657 484.121 624.244 483.739C624.835 483.352 625.525 483.159 626.312 483.159C626.767 483.159 627.216 483.235 627.659 483.386C628.102 483.538 628.506 483.784 628.869 484.125C629.233 484.462 629.523 484.909 629.739 485.466C629.955 486.023 630.062 486.708 630.062 487.523V488.091H623.335V486.932H628.699C628.699 486.439 628.6 486 628.403 485.614C628.21 485.227 627.934 484.922 627.574 484.699C627.218 484.475 626.797 484.364 626.312 484.364C625.778 484.364 625.316 484.496 624.926 484.761C624.54 485.023 624.242 485.364 624.034 485.784C623.826 486.205 623.722 486.655 623.722 487.136V487.909C623.722 488.568 623.835 489.127 624.062 489.585C624.294 490.04 624.614 490.386 625.023 490.625C625.432 490.86 625.907 490.977 626.449 490.977C626.801 490.977 627.119 490.928 627.403 490.83C627.691 490.727 627.939 490.576 628.148 490.375C628.356 490.17 628.517 489.917 628.631 489.614L629.926 489.977C629.79 490.417 629.561 490.803 629.239 491.136C628.917 491.466 628.519 491.723 628.045 491.909C627.572 492.091 627.04 492.182 626.449 492.182ZM635.398 492.182C634.67 492.182 634.028 491.998 633.472 491.631C632.915 491.259 632.479 490.737 632.165 490.062C631.85 489.384 631.693 488.583 631.693 487.659C631.693 486.742 631.85 485.947 632.165 485.273C632.479 484.598 632.917 484.078 633.477 483.71C634.038 483.343 634.686 483.159 635.42 483.159C635.989 483.159 636.438 483.254 636.767 483.443C637.1 483.629 637.354 483.841 637.528 484.08C637.706 484.314 637.845 484.508 637.943 484.659H638.057V480.364H639.398V492H638.102V490.659H637.943C637.845 490.818 637.705 491.019 637.523 491.261C637.341 491.5 637.081 491.714 636.744 491.903C636.407 492.089 635.958 492.182 635.398 492.182ZM635.58 490.977C636.117 490.977 636.572 490.837 636.943 490.557C637.314 490.273 637.597 489.881 637.79 489.381C637.983 488.877 638.08 488.295 638.08 487.636C638.08 486.985 637.985 486.415 637.795 485.926C637.606 485.434 637.326 485.051 636.955 484.778C636.583 484.502 636.125 484.364 635.58 484.364C635.011 484.364 634.538 484.509 634.159 484.801C633.784 485.089 633.502 485.481 633.312 485.977C633.127 486.47 633.034 487.023 633.034 487.636C633.034 488.258 633.129 488.822 633.318 489.33C633.511 489.833 633.795 490.235 634.17 490.534C634.549 490.83 635.019 490.977 635.58 490.977Z" fill="#B5B5B5"/>
<path d="M714.265 481.614V480.364H722.992V481.614H719.333V492H717.924V481.614H714.265ZM726.326 486.75V492H724.985V480.364H726.326V484.636H726.44C726.644 484.186 726.951 483.828 727.36 483.562C727.773 483.294 728.322 483.159 729.008 483.159C729.603 483.159 730.123 483.278 730.57 483.517C731.017 483.752 731.364 484.114 731.61 484.602C731.86 485.087 731.985 485.705 731.985 486.455V492H730.644V486.545C730.644 485.852 730.464 485.316 730.104 484.938C729.748 484.555 729.254 484.364 728.621 484.364C728.182 484.364 727.788 484.456 727.44 484.642C727.095 484.828 726.822 485.098 726.621 485.455C726.424 485.811 726.326 486.242 726.326 486.75ZM739.938 488.432V483.273H741.279V492H739.938V490.523H739.847C739.643 490.966 739.325 491.343 738.893 491.653C738.461 491.96 737.915 492.114 737.256 492.114C736.711 492.114 736.226 491.994 735.802 491.756C735.378 491.513 735.044 491.15 734.802 490.665C734.559 490.176 734.438 489.561 734.438 488.818V483.273H735.779V488.727C735.779 489.364 735.957 489.871 736.313 490.25C736.673 490.629 737.131 490.818 737.688 490.818C738.022 490.818 738.361 490.733 738.705 490.562C739.054 490.392 739.345 490.131 739.58 489.778C739.819 489.426 739.938 488.977 739.938 488.432Z" fill="#B5B5B5"/>
<path d="M816.886 492V480.364H823.863V481.614H818.295V485.545H823.34V486.795H818.295V492H816.886ZM826.001 492V483.273H827.296V484.591H827.387C827.546 484.159 827.834 483.809 828.251 483.54C828.667 483.271 829.137 483.136 829.66 483.136C829.758 483.136 829.881 483.138 830.029 483.142C830.177 483.146 830.289 483.152 830.364 483.159V484.523C830.319 484.511 830.215 484.494 830.052 484.472C829.893 484.445 829.724 484.432 829.546 484.432C829.122 484.432 828.743 484.521 828.41 484.699C828.08 484.873 827.819 485.116 827.626 485.426C827.436 485.733 827.342 486.083 827.342 486.477V492H826.001ZM831.954 492V483.273H833.295V492H831.954ZM832.636 481.818C832.374 481.818 832.149 481.729 831.96 481.551C831.774 481.373 831.681 481.159 831.681 480.909C831.681 480.659 831.774 480.445 831.96 480.267C832.149 480.089 832.374 480 832.636 480C832.897 480 833.121 480.089 833.306 480.267C833.496 480.445 833.59 480.659 833.59 480.909C833.59 481.159 833.496 481.373 833.306 481.551C833.121 481.729 832.897 481.818 832.636 481.818Z" fill="#B5B5B5"/>
<path d="M915.257 483.273C915.189 482.697 914.912 482.25 914.428 481.932C913.943 481.614 913.348 481.455 912.643 481.455C912.128 481.455 911.678 481.538 911.291 481.705C910.909 481.871 910.609 482.1 910.393 482.392C910.181 482.684 910.075 483.015 910.075 483.386C910.075 483.697 910.149 483.964 910.297 484.188C910.448 484.407 910.642 484.591 910.876 484.739C911.111 484.883 911.357 485.002 911.615 485.097C911.873 485.187 912.109 485.261 912.325 485.318L913.507 485.636C913.81 485.716 914.147 485.826 914.518 485.966C914.893 486.106 915.251 486.297 915.592 486.54C915.937 486.778 916.221 487.085 916.445 487.46C916.668 487.835 916.78 488.295 916.78 488.841C916.78 489.47 916.615 490.038 916.286 490.545C915.96 491.053 915.482 491.456 914.854 491.756C914.229 492.055 913.469 492.205 912.575 492.205C911.742 492.205 911.02 492.07 910.411 491.801C909.804 491.532 909.327 491.157 908.979 490.676C908.634 490.195 908.439 489.636 908.393 489H909.848C909.886 489.439 910.034 489.803 910.291 490.091C910.553 490.375 910.882 490.587 911.28 490.727C911.681 490.864 912.113 490.932 912.575 490.932C913.113 490.932 913.596 490.845 914.024 490.67C914.452 490.492 914.791 490.246 915.041 489.932C915.291 489.614 915.416 489.242 915.416 488.818C915.416 488.432 915.308 488.117 915.092 487.875C914.876 487.633 914.592 487.436 914.24 487.284C913.888 487.133 913.507 487 913.098 486.886L911.666 486.477C910.757 486.216 910.037 485.843 909.507 485.358C908.977 484.873 908.712 484.239 908.712 483.455C908.712 482.803 908.888 482.235 909.24 481.75C909.596 481.261 910.073 480.883 910.672 480.614C911.274 480.341 911.946 480.205 912.689 480.205C913.439 480.205 914.106 480.339 914.689 480.608C915.272 480.873 915.734 481.237 916.075 481.699C916.42 482.161 916.602 482.686 916.621 483.273H915.257ZM921.483 492.205C920.93 492.205 920.428 492.1 919.977 491.892C919.527 491.68 919.169 491.375 918.903 490.977C918.638 490.576 918.506 490.091 918.506 489.523C918.506 489.023 918.604 488.617 918.801 488.307C918.998 487.992 919.261 487.746 919.591 487.568C919.92 487.39 920.284 487.258 920.682 487.17C921.083 487.08 921.487 487.008 921.892 486.955C922.422 486.886 922.852 486.835 923.182 486.801C923.515 486.763 923.758 486.701 923.909 486.614C924.064 486.527 924.142 486.375 924.142 486.159V486.114C924.142 485.553 923.989 485.117 923.682 484.807C923.379 484.496 922.919 484.341 922.301 484.341C921.661 484.341 921.159 484.481 920.795 484.761C920.432 485.042 920.176 485.341 920.028 485.659L918.756 485.205C918.983 484.674 919.286 484.261 919.665 483.966C920.047 483.667 920.464 483.458 920.915 483.341C921.369 483.22 921.816 483.159 922.256 483.159C922.536 483.159 922.858 483.193 923.222 483.261C923.589 483.326 923.943 483.46 924.284 483.665C924.629 483.869 924.915 484.178 925.142 484.591C925.369 485.004 925.483 485.557 925.483 486.25V492H924.142V490.818H924.074C923.983 491.008 923.831 491.21 923.619 491.426C923.407 491.642 923.125 491.826 922.773 491.977C922.42 492.129 921.991 492.205 921.483 492.205ZM921.688 491C922.218 491 922.665 490.896 923.028 490.688C923.396 490.479 923.672 490.21 923.858 489.881C924.047 489.551 924.142 489.205 924.142 488.841V487.614C924.085 487.682 923.96 487.744 923.767 487.801C923.578 487.854 923.358 487.902 923.108 487.943C922.862 487.981 922.621 488.015 922.386 488.045C922.155 488.072 921.968 488.095 921.824 488.114C921.475 488.159 921.15 488.233 920.847 488.335C920.547 488.434 920.305 488.583 920.119 488.784C919.938 488.981 919.847 489.25 919.847 489.591C919.847 490.057 920.019 490.409 920.364 490.648C920.712 490.883 921.153 491 921.688 491ZM931.726 483.273V484.409H927.203V483.273H931.726ZM928.521 481.182H929.862V489.5C929.862 489.879 929.917 490.163 930.027 490.352C930.141 490.538 930.285 490.663 930.459 490.727C930.637 490.788 930.824 490.818 931.021 490.818C931.169 490.818 931.29 490.811 931.385 490.795C931.48 490.777 931.555 490.761 931.612 490.75L931.885 491.955C931.794 491.989 931.667 492.023 931.504 492.057C931.341 492.095 931.135 492.114 930.885 492.114C930.506 492.114 930.135 492.032 929.771 491.869C929.411 491.706 929.112 491.458 928.874 491.125C928.639 490.792 928.521 490.371 928.521 489.864V481.182Z" fill="#B5B5B5"/>
<path d="M1012.84 483.273C1012.77 482.697 1012.5 482.25 1012.01 481.932C1011.53 481.614 1010.93 481.455 1010.23 481.455C1009.71 481.455 1009.26 481.538 1008.88 481.705C1008.49 481.871 1008.2 482.1 1007.98 482.392C1007.77 482.684 1007.66 483.015 1007.66 483.386C1007.66 483.697 1007.74 483.964 1007.88 484.188C1008.03 484.407 1008.23 484.591 1008.46 484.739C1008.7 484.883 1008.94 485.002 1009.2 485.097C1009.46 485.187 1009.7 485.261 1009.91 485.318L1011.09 485.636C1011.4 485.716 1011.73 485.826 1012.1 485.966C1012.48 486.106 1012.84 486.297 1013.18 486.54C1013.52 486.778 1013.81 487.085 1014.03 487.46C1014.25 487.835 1014.37 488.295 1014.37 488.841C1014.37 489.47 1014.2 490.038 1013.87 490.545C1013.55 491.053 1013.07 491.456 1012.44 491.756C1011.81 492.055 1011.06 492.205 1010.16 492.205C1009.33 492.205 1008.61 492.07 1008 491.801C1007.39 491.532 1006.91 491.157 1006.56 490.676C1006.22 490.195 1006.02 489.636 1005.98 489H1007.43C1007.47 489.439 1007.62 489.803 1007.88 490.091C1008.14 490.375 1008.47 490.587 1008.87 490.727C1009.27 490.864 1009.7 490.932 1010.16 490.932C1010.7 490.932 1011.18 490.845 1011.61 490.67C1012.04 490.492 1012.38 490.246 1012.63 489.932C1012.88 489.614 1013 489.242 1013 488.818C1013 488.432 1012.89 488.117 1012.68 487.875C1012.46 487.633 1012.18 487.436 1011.83 487.284C1011.47 487.133 1011.09 487 1010.68 486.886L1009.25 486.477C1008.34 486.216 1007.62 485.843 1007.09 485.358C1006.56 484.873 1006.3 484.239 1006.3 483.455C1006.3 482.803 1006.47 482.235 1006.83 481.75C1007.18 481.261 1007.66 480.883 1008.26 480.614C1008.86 480.341 1009.53 480.205 1010.27 480.205C1011.02 480.205 1011.69 480.339 1012.27 480.608C1012.86 480.873 1013.32 481.237 1013.66 481.699C1014.01 482.161 1014.19 482.686 1014.21 483.273H1012.84ZM1022 488.432V483.273H1023.34V492H1022V490.523H1021.91C1021.71 490.966 1021.39 491.343 1020.96 491.653C1020.52 491.96 1019.98 492.114 1019.32 492.114C1018.77 492.114 1018.29 491.994 1017.86 491.756C1017.44 491.513 1017.11 491.15 1016.86 490.665C1016.62 490.176 1016.5 489.561 1016.5 488.818V483.273H1017.84V488.727C1017.84 489.364 1018.02 489.871 1018.38 490.25C1018.74 490.629 1019.19 490.818 1019.75 490.818C1020.08 490.818 1020.42 490.733 1020.77 490.562C1021.12 490.392 1021.41 490.131 1021.64 489.778C1021.88 489.426 1022 488.977 1022 488.432ZM1027.14 486.75V492H1025.8V483.273H1027.09V484.636H1027.21C1027.41 484.193 1027.72 483.837 1028.14 483.568C1028.56 483.295 1029.09 483.159 1029.75 483.159C1030.34 483.159 1030.86 483.28 1031.3 483.523C1031.75 483.761 1032.09 484.125 1032.34 484.614C1032.58 485.098 1032.71 485.712 1032.71 486.455V492H1031.37V486.545C1031.37 485.86 1031.19 485.326 1030.83 484.943C1030.48 484.557 1029.99 484.364 1029.37 484.364C1028.94 484.364 1028.56 484.456 1028.22 484.642C1027.88 484.828 1027.62 485.098 1027.43 485.455C1027.24 485.811 1027.14 486.242 1027.14 486.75Z" fill="#B5B5B5"/>
<path d="M1107.84 480.364H1109.52L1113.48 490.023H1113.61L1117.57 480.364H1119.25V492H1117.93V483.159H1117.82L1114.18 492H1112.91L1109.27 483.159H1109.16V492H1107.84V480.364ZM1125.44 492.182C1124.65 492.182 1123.96 491.994 1123.36 491.619C1122.77 491.244 1122.31 490.72 1121.98 490.045C1121.65 489.371 1121.48 488.583 1121.48 487.682C1121.48 486.773 1121.65 485.979 1121.98 485.301C1122.31 484.623 1122.77 484.097 1123.36 483.722C1123.96 483.347 1124.65 483.159 1125.44 483.159C1126.22 483.159 1126.91 483.347 1127.5 483.722C1128.1 484.097 1128.56 484.623 1128.89 485.301C1129.22 485.979 1129.39 486.773 1129.39 487.682C1129.39 488.583 1129.22 489.371 1128.89 490.045C1128.56 490.72 1128.1 491.244 1127.5 491.619C1126.91 491.994 1126.22 492.182 1125.44 492.182ZM1125.44 490.977C1126.04 490.977 1126.53 490.824 1126.91 490.517C1127.3 490.21 1127.59 489.807 1127.77 489.307C1127.96 488.807 1128.05 488.265 1128.05 487.682C1128.05 487.098 1127.96 486.555 1127.77 486.051C1127.59 485.547 1127.3 485.14 1126.91 484.83C1126.53 484.519 1126.04 484.364 1125.44 484.364C1124.84 484.364 1124.35 484.519 1123.96 484.83C1123.57 485.14 1123.29 485.547 1123.1 486.051C1122.92 486.555 1122.82 487.098 1122.82 487.682C1122.82 488.265 1122.92 488.807 1123.1 489.307C1123.29 489.807 1123.57 490.21 1123.96 490.517C1124.35 490.824 1124.84 490.977 1125.44 490.977ZM1132.78 486.75V492H1131.44V483.273H1132.73V484.636H1132.85C1133.05 484.193 1133.36 483.837 1133.78 483.568C1134.2 483.295 1134.73 483.159 1135.39 483.159C1135.98 483.159 1136.5 483.28 1136.94 483.523C1137.39 483.761 1137.73 484.125 1137.98 484.614C1138.22 485.098 1138.35 485.712 1138.35 486.455V492H1137.01V486.545C1137.01 485.86 1136.83 485.326 1136.47 484.943C1136.12 484.557 1135.63 484.364 1135.01 484.364C1134.58 484.364 1134.2 484.456 1133.86 484.642C1133.53 484.828 1133.26 485.098 1133.07 485.455C1132.88 485.811 1132.78 486.242 1132.78 486.75Z" fill="#B5B5B5"/>
<path d="M1212.93 481.614V480.364H1221.66V481.614H1218V492H1216.59V481.614H1212.93ZM1227.96 488.432V483.273H1229.3V492H1227.96V490.523H1227.87C1227.67 490.966 1227.35 491.343 1226.92 491.653C1226.48 491.96 1225.94 492.114 1225.28 492.114C1224.73 492.114 1224.25 491.994 1223.83 491.756C1223.4 491.513 1223.07 491.15 1222.83 490.665C1222.58 490.176 1222.46 489.561 1222.46 488.818V483.273H1223.8V488.727C1223.8 489.364 1223.98 489.871 1224.34 490.25C1224.7 490.629 1225.15 490.818 1225.71 490.818C1226.04 490.818 1226.38 490.733 1226.73 490.562C1227.08 490.392 1227.37 490.131 1227.6 489.778C1227.84 489.426 1227.96 488.977 1227.96 488.432ZM1235.42 492.182C1234.58 492.182 1233.85 491.996 1233.24 491.625C1232.64 491.25 1232.17 490.727 1231.84 490.057C1231.51 489.383 1231.35 488.598 1231.35 487.705C1231.35 486.811 1231.51 486.023 1231.84 485.341C1232.17 484.655 1232.63 484.121 1233.21 483.739C1233.8 483.352 1234.49 483.159 1235.28 483.159C1235.74 483.159 1236.18 483.235 1236.63 483.386C1237.07 483.538 1237.47 483.784 1237.84 484.125C1238.2 484.462 1238.49 484.909 1238.71 485.466C1238.92 486.023 1239.03 486.708 1239.03 487.523V488.091H1232.3V486.932H1237.67C1237.67 486.439 1237.57 486 1237.37 485.614C1237.18 485.227 1236.9 484.922 1236.54 484.699C1236.19 484.475 1235.77 484.364 1235.28 484.364C1234.75 484.364 1234.29 484.496 1233.89 484.761C1233.51 485.023 1233.21 485.364 1233 485.784C1232.79 486.205 1232.69 486.655 1232.69 487.136V487.909C1232.69 488.568 1232.8 489.127 1233.03 489.585C1233.26 490.04 1233.58 490.386 1233.99 490.625C1234.4 490.86 1234.88 490.977 1235.42 490.977C1235.77 490.977 1236.09 490.928 1236.37 490.83C1236.66 490.727 1236.91 490.576 1237.12 490.375C1237.32 490.17 1237.49 489.917 1237.6 489.614L1238.89 489.977C1238.76 490.417 1238.53 490.803 1238.21 491.136C1237.89 491.466 1237.49 491.723 1237.01 491.909C1236.54 492.091 1236.01 492.182 1235.42 492.182Z" fill="#B5B5B5"/>
<path d="M1313.84 480.364H1315.52L1319.48 490.023H1319.61L1323.57 480.364H1325.25V492H1323.93V483.159H1323.82L1320.18 492H1318.91L1315.27 483.159H1315.16V492H1313.84V480.364ZM1331.44 492.182C1330.65 492.182 1329.96 491.994 1329.36 491.619C1328.77 491.244 1328.31 490.72 1327.98 490.045C1327.65 489.371 1327.48 488.583 1327.48 487.682C1327.48 486.773 1327.65 485.979 1327.98 485.301C1328.31 484.623 1328.77 484.097 1329.36 483.722C1329.96 483.347 1330.65 483.159 1331.44 483.159C1332.22 483.159 1332.91 483.347 1333.5 483.722C1334.1 484.097 1334.56 484.623 1334.89 485.301C1335.22 485.979 1335.39 486.773 1335.39 487.682C1335.39 488.583 1335.22 489.371 1334.89 490.045C1334.56 490.72 1334.1 491.244 1333.5 491.619C1332.91 491.994 1332.22 492.182 1331.44 492.182ZM1331.44 490.977C1332.04 490.977 1332.53 490.824 1332.91 490.517C1333.3 490.21 1333.59 489.807 1333.77 489.307C1333.96 488.807 1334.05 488.265 1334.05 487.682C1334.05 487.098 1333.96 486.555 1333.77 486.051C1333.59 485.547 1333.3 485.14 1332.91 484.83C1332.53 484.519 1332.04 484.364 1331.44 484.364C1330.84 484.364 1330.35 484.519 1329.96 484.83C1329.57 485.14 1329.29 485.547 1329.1 486.051C1328.92 486.555 1328.82 487.098 1328.82 487.682C1328.82 488.265 1328.92 488.807 1329.1 489.307C1329.29 489.807 1329.57 490.21 1329.96 490.517C1330.35 490.824 1330.84 490.977 1331.44 490.977ZM1338.78 486.75V492H1337.44V483.273H1338.73V484.636H1338.85C1339.05 484.193 1339.36 483.837 1339.78 483.568C1340.2 483.295 1340.73 483.159 1341.39 483.159C1341.98 483.159 1342.5 483.28 1342.94 483.523C1343.39 483.761 1343.73 484.125 1343.98 484.614C1344.22 485.098 1344.35 485.712 1344.35 486.455V492H1343.01V486.545C1343.01 485.86 1342.83 485.326 1342.47 484.943C1342.12 484.557 1341.63 484.364 1341.01 484.364C1340.58 484.364 1340.2 484.456 1339.86 484.642C1339.53 484.828 1339.26 485.098 1339.07 485.455C1338.88 485.811 1338.78 486.242 1338.78 486.75Z" fill="#B5B5B5"/>
<path d="M1418.93 481.614V480.364H1427.66V481.614H1424V492H1422.59V481.614H1418.93ZM1433.96 488.432V483.273H1435.3V492H1433.96V490.523H1433.87C1433.67 490.966 1433.35 491.343 1432.92 491.653C1432.48 491.96 1431.94 492.114 1431.28 492.114C1430.73 492.114 1430.25 491.994 1429.83 491.756C1429.4 491.513 1429.07 491.15 1428.83 490.665C1428.58 490.176 1428.46 489.561 1428.46 488.818V483.273H1429.8V488.727C1429.8 489.364 1429.98 489.871 1430.34 490.25C1430.7 490.629 1431.15 490.818 1431.71 490.818C1432.04 490.818 1432.38 490.733 1432.73 490.562C1433.08 490.392 1433.37 490.131 1433.6 489.778C1433.84 489.426 1433.96 488.977 1433.96 488.432ZM1441.42 492.182C1440.58 492.182 1439.85 491.996 1439.24 491.625C1438.64 491.25 1438.17 490.727 1437.84 490.057C1437.51 489.383 1437.35 488.598 1437.35 487.705C1437.35 486.811 1437.51 486.023 1437.84 485.341C1438.17 484.655 1438.63 484.121 1439.21 483.739C1439.8 483.352 1440.49 483.159 1441.28 483.159C1441.74 483.159 1442.18 483.235 1442.63 483.386C1443.07 483.538 1443.47 483.784 1443.84 484.125C1444.2 484.462 1444.49 484.909 1444.71 485.466C1444.92 486.023 1445.03 486.708 1445.03 487.523V488.091H1438.3V486.932H1443.67C1443.67 486.439 1443.57 486 1443.37 485.614C1443.18 485.227 1442.9 484.922 1442.54 484.699C1442.19 484.475 1441.77 484.364 1441.28 484.364C1440.75 484.364 1440.29 484.496 1439.89 484.761C1439.51 485.023 1439.21 485.364 1439 485.784C1438.79 486.205 1438.69 486.655 1438.69 487.136V487.909C1438.69 488.568 1438.8 489.127 1439.03 489.585C1439.26 490.04 1439.58 490.386 1439.99 490.625C1440.4 490.86 1440.88 490.977 1441.42 490.977C1441.77 490.977 1442.09 490.928 1442.37 490.83C1442.66 490.727 1442.91 490.576 1443.12 490.375C1443.32 490.17 1443.49 489.917 1443.6 489.614L1444.89 489.977C1444.76 490.417 1444.53 490.803 1444.21 491.136C1443.89 491.466 1443.49 491.723 1443.01 491.909C1442.54 492.091 1442.01 492.182 1441.42 492.182Z" fill="#B5B5B5"/>
<path d="M1521.71 492L1518.53 480.364H1519.96L1522.39 489.841H1522.51L1524.98 480.364H1526.57L1529.05 489.841H1529.16L1531.6 480.364H1533.03L1529.85 492H1528.39L1525.82 482.727H1525.73L1523.16 492H1521.71ZM1537.45 492.182C1536.61 492.182 1535.88 491.996 1535.27 491.625C1534.67 491.25 1534.2 490.727 1533.87 490.057C1533.54 489.383 1533.38 488.598 1533.38 487.705C1533.38 486.811 1533.54 486.023 1533.87 485.341C1534.2 484.655 1534.66 484.121 1535.24 483.739C1535.84 483.352 1536.52 483.159 1537.31 483.159C1537.77 483.159 1538.22 483.235 1538.66 483.386C1539.1 483.538 1539.51 483.784 1539.87 484.125C1540.23 484.462 1540.52 484.909 1540.74 485.466C1540.95 486.023 1541.06 486.708 1541.06 487.523V488.091H1534.34V486.932H1539.7C1539.7 486.439 1539.6 486 1539.4 485.614C1539.21 485.227 1538.93 484.922 1538.57 484.699C1538.22 484.475 1537.8 484.364 1537.31 484.364C1536.78 484.364 1536.32 484.496 1535.93 484.761C1535.54 485.023 1535.24 485.364 1535.03 485.784C1534.83 486.205 1534.72 486.655 1534.72 487.136V487.909C1534.72 488.568 1534.84 489.127 1535.06 489.585C1535.29 490.04 1535.61 490.386 1536.02 490.625C1536.43 490.86 1536.91 490.977 1537.45 490.977C1537.8 490.977 1538.12 490.928 1538.4 490.83C1538.69 490.727 1538.94 490.576 1539.15 490.375C1539.36 490.17 1539.52 489.917 1539.63 489.614L1540.93 489.977C1540.79 490.417 1540.56 490.803 1540.24 491.136C1539.92 491.466 1539.52 491.723 1539.05 491.909C1538.57 492.091 1538.04 492.182 1537.45 492.182ZM1546.4 492.182C1545.67 492.182 1545.03 491.998 1544.47 491.631C1543.91 491.259 1543.48 490.737 1543.16 490.062C1542.85 489.384 1542.69 488.583 1542.69 487.659C1542.69 486.742 1542.85 485.947 1543.16 485.273C1543.48 484.598 1543.92 484.078 1544.48 483.71C1545.04 483.343 1545.69 483.159 1546.42 483.159C1546.99 483.159 1547.44 483.254 1547.77 483.443C1548.1 483.629 1548.35 483.841 1548.53 484.08C1548.71 484.314 1548.84 484.508 1548.94 484.659H1549.06V480.364H1550.4V492H1549.1V490.659H1548.94C1548.84 490.818 1548.7 491.019 1548.52 491.261C1548.34 491.5 1548.08 491.714 1547.74 491.903C1547.41 492.089 1546.96 492.182 1546.4 492.182ZM1546.58 490.977C1547.12 490.977 1547.57 490.837 1547.94 490.557C1548.31 490.273 1548.6 489.881 1548.79 489.381C1548.98 488.877 1549.08 488.295 1549.08 487.636C1549.08 486.985 1548.98 486.415 1548.8 485.926C1548.61 485.434 1548.33 485.051 1547.95 484.778C1547.58 484.502 1547.13 484.364 1546.58 484.364C1546.01 484.364 1545.54 484.509 1545.16 484.801C1544.78 485.089 1544.5 485.481 1544.31 485.977C1544.13 486.47 1544.03 487.023 1544.03 487.636C1544.03 488.258 1544.13 488.822 1544.32 489.33C1544.51 489.833 1544.8 490.235 1545.17 490.534C1545.55 490.83 1546.02 490.977 1546.58 490.977Z" fill="#B5B5B5"/>
<path d="M1625.26 481.614V480.364H1633.99V481.614H1630.33V492H1628.92V481.614H1625.26ZM1637.33 486.75V492H1635.99V480.364H1637.33V484.636H1637.44C1637.64 484.186 1637.95 483.828 1638.36 483.562C1638.77 483.294 1639.32 483.159 1640.01 483.159C1640.6 483.159 1641.12 483.278 1641.57 483.517C1642.02 483.752 1642.36 484.114 1642.61 484.602C1642.86 485.087 1642.99 485.705 1642.99 486.455V492H1641.64V486.545C1641.64 485.852 1641.46 485.316 1641.1 484.938C1640.75 484.555 1640.25 484.364 1639.62 484.364C1639.18 484.364 1638.79 484.456 1638.44 484.642C1638.09 484.828 1637.82 485.098 1637.62 485.455C1637.42 485.811 1637.33 486.242 1637.33 486.75ZM1650.94 488.432V483.273H1652.28V492H1650.94V490.523H1650.85C1650.64 490.966 1650.32 491.343 1649.89 491.653C1649.46 491.96 1648.92 492.114 1648.26 492.114C1647.71 492.114 1647.23 491.994 1646.8 491.756C1646.38 491.513 1646.04 491.15 1645.8 490.665C1645.56 490.176 1645.44 489.561 1645.44 488.818V483.273H1646.78V488.727C1646.78 489.364 1646.96 489.871 1647.31 490.25C1647.67 490.629 1648.13 490.818 1648.69 490.818C1649.02 490.818 1649.36 490.733 1649.71 490.562C1650.05 490.392 1650.35 490.131 1650.58 489.778C1650.82 489.426 1650.94 488.977 1650.94 488.432Z" fill="#B5B5B5"/>
<path d="M1727.89 492V480.364H1734.86V481.614H1729.29V485.545H1734.34V486.795H1729.29V492H1727.89ZM1737 492V483.273H1738.3V484.591H1738.39C1738.55 484.159 1738.83 483.809 1739.25 483.54C1739.67 483.271 1740.14 483.136 1740.66 483.136C1740.76 483.136 1740.88 483.138 1741.03 483.142C1741.18 483.146 1741.29 483.152 1741.36 483.159V484.523C1741.32 484.511 1741.21 484.494 1741.05 484.472C1740.89 484.445 1740.72 484.432 1740.55 484.432C1740.12 484.432 1739.74 484.521 1739.41 484.699C1739.08 484.873 1738.82 485.116 1738.63 485.426C1738.44 485.733 1738.34 486.083 1738.34 486.477V492H1737ZM1742.95 492V483.273H1744.29V492H1742.95ZM1743.64 481.818C1743.37 481.818 1743.15 481.729 1742.96 481.551C1742.77 481.373 1742.68 481.159 1742.68 480.909C1742.68 480.659 1742.77 480.445 1742.96 480.267C1743.15 480.089 1743.37 480 1743.64 480C1743.9 480 1744.12 480.089 1744.31 480.267C1744.5 480.445 1744.59 480.659 1744.59 480.909C1744.59 481.159 1744.5 481.373 1744.31 481.551C1744.12 481.729 1743.9 481.818 1743.64 481.818Z" fill="#B5B5B5"/>
<path d="M1826.26 483.273C1826.19 482.697 1825.91 482.25 1825.43 481.932C1824.94 481.614 1824.35 481.455 1823.64 481.455C1823.13 481.455 1822.68 481.538 1822.29 481.705C1821.91 481.871 1821.61 482.1 1821.39 482.392C1821.18 482.684 1821.08 483.015 1821.08 483.386C1821.08 483.697 1821.15 483.964 1821.3 484.188C1821.45 484.407 1821.64 484.591 1821.88 484.739C1822.11 484.883 1822.36 485.002 1822.62 485.097C1822.87 485.187 1823.11 485.261 1823.33 485.318L1824.51 485.636C1824.81 485.716 1825.15 485.826 1825.52 485.966C1825.89 486.106 1826.25 486.297 1826.59 486.54C1826.94 486.778 1827.22 487.085 1827.44 487.46C1827.67 487.835 1827.78 488.295 1827.78 488.841C1827.78 489.47 1827.62 490.038 1827.29 490.545C1826.96 491.053 1826.48 491.456 1825.85 491.756C1825.23 492.055 1824.47 492.205 1823.58 492.205C1822.74 492.205 1822.02 492.07 1821.41 491.801C1820.8 491.532 1820.33 491.157 1819.98 490.676C1819.63 490.195 1819.44 489.636 1819.39 489H1820.85C1820.89 489.439 1821.03 489.803 1821.29 490.091C1821.55 490.375 1821.88 490.587 1822.28 490.727C1822.68 490.864 1823.11 490.932 1823.58 490.932C1824.11 490.932 1824.6 490.845 1825.02 490.67C1825.45 490.492 1825.79 490.246 1826.04 489.932C1826.29 489.614 1826.42 489.242 1826.42 488.818C1826.42 488.432 1826.31 488.117 1826.09 487.875C1825.88 487.633 1825.59 487.436 1825.24 487.284C1824.89 487.133 1824.51 487 1824.1 486.886L1822.67 486.477C1821.76 486.216 1821.04 485.843 1820.51 485.358C1819.98 484.873 1819.71 484.239 1819.71 483.455C1819.71 482.803 1819.89 482.235 1820.24 481.75C1820.6 481.261 1821.07 480.883 1821.67 480.614C1822.27 480.341 1822.95 480.205 1823.69 480.205C1824.44 480.205 1825.11 480.339 1825.69 480.608C1826.27 480.873 1826.73 481.237 1827.08 481.699C1827.42 482.161 1827.6 482.686 1827.62 483.273H1826.26ZM1832.48 492.205C1831.93 492.205 1831.43 492.1 1830.98 491.892C1830.53 491.68 1830.17 491.375 1829.9 490.977C1829.64 490.576 1829.51 490.091 1829.51 489.523C1829.51 489.023 1829.6 488.617 1829.8 488.307C1830 487.992 1830.26 487.746 1830.59 487.568C1830.92 487.39 1831.28 487.258 1831.68 487.17C1832.08 487.08 1832.49 487.008 1832.89 486.955C1833.42 486.886 1833.85 486.835 1834.18 486.801C1834.52 486.763 1834.76 486.701 1834.91 486.614C1835.06 486.527 1835.14 486.375 1835.14 486.159V486.114C1835.14 485.553 1834.99 485.117 1834.68 484.807C1834.38 484.496 1833.92 484.341 1833.3 484.341C1832.66 484.341 1832.16 484.481 1831.8 484.761C1831.43 485.042 1831.18 485.341 1831.03 485.659L1829.76 485.205C1829.98 484.674 1830.29 484.261 1830.66 483.966C1831.05 483.667 1831.46 483.458 1831.91 483.341C1832.37 483.22 1832.82 483.159 1833.26 483.159C1833.54 483.159 1833.86 483.193 1834.22 483.261C1834.59 483.326 1834.94 483.46 1835.28 483.665C1835.63 483.869 1835.91 484.178 1836.14 484.591C1836.37 485.004 1836.48 485.557 1836.48 486.25V492H1835.14V490.818H1835.07C1834.98 491.008 1834.83 491.21 1834.62 491.426C1834.41 491.642 1834.13 491.826 1833.77 491.977C1833.42 492.129 1832.99 492.205 1832.48 492.205ZM1832.69 491C1833.22 491 1833.66 490.896 1834.03 490.688C1834.4 490.479 1834.67 490.21 1834.86 489.881C1835.05 489.551 1835.14 489.205 1835.14 488.841V487.614C1835.09 487.682 1834.96 487.744 1834.77 487.801C1834.58 487.854 1834.36 487.902 1834.11 487.943C1833.86 487.981 1833.62 488.015 1833.39 488.045C1833.16 488.072 1832.97 488.095 1832.82 488.114C1832.48 488.159 1832.15 488.233 1831.85 488.335C1831.55 488.434 1831.3 488.583 1831.12 488.784C1830.94 488.981 1830.85 489.25 1830.85 489.591C1830.85 490.057 1831.02 490.409 1831.36 490.648C1831.71 490.883 1832.15 491 1832.69 491ZM1842.73 483.273V484.409H1838.2V483.273H1842.73ZM1839.52 481.182H1840.86V489.5C1840.86 489.879 1840.92 490.163 1841.03 490.352C1841.14 490.538 1841.28 490.663 1841.46 490.727C1841.64 490.788 1841.82 490.818 1842.02 490.818C1842.17 490.818 1842.29 490.811 1842.38 490.795C1842.48 490.777 1842.56 490.761 1842.61 490.75L1842.88 491.955C1842.79 491.989 1842.67 492.023 1842.5 492.057C1842.34 492.095 1842.13 492.114 1841.88 492.114C1841.51 492.114 1841.13 492.032 1840.77 491.869C1840.41 491.706 1840.11 491.458 1839.87 491.125C1839.64 490.792 1839.52 490.371 1839.52 489.864V481.182Z" fill="#B5B5B5"/>
<path d="M1923.84 483.273C1923.77 482.697 1923.5 482.25 1923.01 481.932C1922.53 481.614 1921.93 481.455 1921.23 481.455C1920.71 481.455 1920.26 481.538 1919.88 481.705C1919.49 481.871 1919.2 482.1 1918.98 482.392C1918.77 482.684 1918.66 483.015 1918.66 483.386C1918.66 483.697 1918.74 483.964 1918.88 484.188C1919.03 484.407 1919.23 484.591 1919.46 484.739C1919.7 484.883 1919.94 485.002 1920.2 485.097C1920.46 485.187 1920.7 485.261 1920.91 485.318L1922.09 485.636C1922.4 485.716 1922.73 485.826 1923.1 485.966C1923.48 486.106 1923.84 486.297 1924.18 486.54C1924.52 486.778 1924.81 487.085 1925.03 487.46C1925.25 487.835 1925.37 488.295 1925.37 488.841C1925.37 489.47 1925.2 490.038 1924.87 490.545C1924.55 491.053 1924.07 491.456 1923.44 491.756C1922.81 492.055 1922.06 492.205 1921.16 492.205C1920.33 492.205 1919.61 492.07 1919 491.801C1918.39 491.532 1917.91 491.157 1917.56 490.676C1917.22 490.195 1917.02 489.636 1916.98 489H1918.43C1918.47 489.439 1918.62 489.803 1918.88 490.091C1919.14 490.375 1919.47 490.587 1919.87 490.727C1920.27 490.864 1920.7 490.932 1921.16 490.932C1921.7 490.932 1922.18 490.845 1922.61 490.67C1923.04 490.492 1923.38 490.246 1923.63 489.932C1923.88 489.614 1924 489.242 1924 488.818C1924 488.432 1923.89 488.117 1923.68 487.875C1923.46 487.633 1923.18 487.436 1922.83 487.284C1922.47 487.133 1922.09 487 1921.68 486.886L1920.25 486.477C1919.34 486.216 1918.62 485.843 1918.09 485.358C1917.56 484.873 1917.3 484.239 1917.3 483.455C1917.3 482.803 1917.47 482.235 1917.83 481.75C1918.18 481.261 1918.66 480.883 1919.26 480.614C1919.86 480.341 1920.53 480.205 1921.27 480.205C1922.02 480.205 1922.69 480.339 1923.27 480.608C1923.86 480.873 1924.32 481.237 1924.66 481.699C1925.01 482.161 1925.19 482.686 1925.21 483.273H1923.84ZM1933 488.432V483.273H1934.34V492H1933V490.523H1932.91C1932.71 490.966 1932.39 491.343 1931.96 491.653C1931.52 491.96 1930.98 492.114 1930.32 492.114C1929.77 492.114 1929.29 491.994 1928.86 491.756C1928.44 491.513 1928.11 491.15 1927.86 490.665C1927.62 490.176 1927.5 489.561 1927.5 488.818V483.273H1928.84V488.727C1928.84 489.364 1929.02 489.871 1929.38 490.25C1929.74 490.629 1930.19 490.818 1930.75 490.818C1931.08 490.818 1931.42 490.733 1931.77 490.562C1932.12 490.392 1932.41 490.131 1932.64 489.778C1932.88 489.426 1933 488.977 1933 488.432ZM1938.14 486.75V492H1936.8V483.273H1938.09V484.636H1938.21C1938.41 484.193 1938.72 483.837 1939.14 483.568C1939.56 483.295 1940.09 483.159 1940.75 483.159C1941.34 483.159 1941.86 483.28 1942.3 483.523C1942.75 483.761 1943.09 484.125 1943.34 484.614C1943.58 485.098 1943.71 485.712 1943.71 486.455V492H1942.37V486.545C1942.37 485.86 1942.19 485.326 1941.83 484.943C1941.48 484.557 1940.99 484.364 1940.37 484.364C1939.94 484.364 1939.56 484.456 1939.22 484.642C1938.88 484.828 1938.62 485.098 1938.43 485.455C1938.24 485.811 1938.14 486.242 1938.14 486.75Z" fill="#B5B5B5"/>
<path d="M2018.84 480.364H2020.52L2024.48 490.023H2024.61L2028.57 480.364H2030.25V492H2028.93V483.159H2028.82L2025.18 492H2023.91L2020.27 483.159H2020.16V492H2018.84V480.364ZM2036.44 492.182C2035.65 492.182 2034.96 491.994 2034.36 491.619C2033.77 491.244 2033.31 490.72 2032.98 490.045C2032.65 489.371 2032.48 488.583 2032.48 487.682C2032.48 486.773 2032.65 485.979 2032.98 485.301C2033.31 484.623 2033.77 484.097 2034.36 483.722C2034.96 483.347 2035.65 483.159 2036.44 483.159C2037.22 483.159 2037.91 483.347 2038.5 483.722C2039.1 484.097 2039.56 484.623 2039.89 485.301C2040.22 485.979 2040.39 486.773 2040.39 487.682C2040.39 488.583 2040.22 489.371 2039.89 490.045C2039.56 490.72 2039.1 491.244 2038.5 491.619C2037.91 491.994 2037.22 492.182 2036.44 492.182ZM2036.44 490.977C2037.04 490.977 2037.53 490.824 2037.91 490.517C2038.3 490.21 2038.59 489.807 2038.77 489.307C2038.96 488.807 2039.05 488.265 2039.05 487.682C2039.05 487.098 2038.96 486.555 2038.77 486.051C2038.59 485.547 2038.3 485.14 2037.91 484.83C2037.53 484.519 2037.04 484.364 2036.44 484.364C2035.84 484.364 2035.35 484.519 2034.96 484.83C2034.57 485.14 2034.29 485.547 2034.1 486.051C2033.92 486.555 2033.82 487.098 2033.82 487.682C2033.82 488.265 2033.92 488.807 2034.1 489.307C2034.29 489.807 2034.57 490.21 2034.96 490.517C2035.35 490.824 2035.84 490.977 2036.44 490.977ZM2043.78 486.75V492H2042.44V483.273H2043.73V484.636H2043.85C2044.05 484.193 2044.36 483.837 2044.78 483.568C2045.2 483.295 2045.73 483.159 2046.39 483.159C2046.98 483.159 2047.5 483.28 2047.94 483.523C2048.39 483.761 2048.73 484.125 2048.98 484.614C2049.22 485.098 2049.35 485.712 2049.35 486.455V492H2048.01V486.545C2048.01 485.86 2047.83 485.326 2047.47 484.943C2047.12 484.557 2046.63 484.364 2046.01 484.364C2045.58 484.364 2045.2 484.456 2044.86 484.642C2044.53 484.828 2044.26 485.098 2044.07 485.455C2043.88 485.811 2043.78 486.242 2043.78 486.75Z" fill="#B5B5B5"/>
<path d="M2123.93 481.614V480.364H2132.66V481.614H2129V492H2127.59V481.614H2123.93ZM2138.96 488.432V483.273H2140.3V492H2138.96V490.523H2138.87C2138.67 490.966 2138.35 491.343 2137.92 491.653C2137.48 491.96 2136.94 492.114 2136.28 492.114C2135.73 492.114 2135.25 491.994 2134.83 491.756C2134.4 491.513 2134.07 491.15 2133.83 490.665C2133.58 490.176 2133.46 489.561 2133.46 488.818V483.273H2134.8V488.727C2134.8 489.364 2134.98 489.871 2135.34 490.25C2135.7 490.629 2136.15 490.818 2136.71 490.818C2137.04 490.818 2137.38 490.733 2137.73 490.562C2138.08 490.392 2138.37 490.131 2138.6 489.778C2138.84 489.426 2138.96 488.977 2138.96 488.432ZM2146.42 492.182C2145.58 492.182 2144.85 491.996 2144.24 491.625C2143.64 491.25 2143.17 490.727 2142.84 490.057C2142.51 489.383 2142.35 488.598 2142.35 487.705C2142.35 486.811 2142.51 486.023 2142.84 485.341C2143.17 484.655 2143.63 484.121 2144.21 483.739C2144.8 483.352 2145.49 483.159 2146.28 483.159C2146.74 483.159 2147.18 483.235 2147.63 483.386C2148.07 483.538 2148.47 483.784 2148.84 484.125C2149.2 484.462 2149.49 484.909 2149.71 485.466C2149.92 486.023 2150.03 486.708 2150.03 487.523V488.091H2143.3V486.932H2148.67C2148.67 486.439 2148.57 486 2148.37 485.614C2148.18 485.227 2147.9 484.922 2147.54 484.699C2147.19 484.475 2146.77 484.364 2146.28 484.364C2145.75 484.364 2145.29 484.496 2144.89 484.761C2144.51 485.023 2144.21 485.364 2144 485.784C2143.79 486.205 2143.69 486.655 2143.69 487.136V487.909C2143.69 488.568 2143.8 489.127 2144.03 489.585C2144.26 490.04 2144.58 490.386 2144.99 490.625C2145.4 490.86 2145.88 490.977 2146.42 490.977C2146.77 490.977 2147.09 490.928 2147.37 490.83C2147.66 490.727 2147.91 490.576 2148.12 490.375C2148.32 490.17 2148.49 489.917 2148.6 489.614L2149.89 489.977C2149.76 490.417 2149.53 490.803 2149.21 491.136C2148.89 491.466 2148.49 491.723 2148.01 491.909C2147.54 492.091 2147.01 492.182 2146.42 492.182Z" fill="#B5B5B5"/>
<path d="M2226.71 492L2223.53 480.364H2224.96L2227.39 489.841H2227.51L2229.98 480.364H2231.57L2234.05 489.841H2234.16L2236.6 480.364H2238.03L2234.85 492H2233.39L2230.82 482.727H2230.73L2228.16 492H2226.71ZM2242.45 492.182C2241.61 492.182 2240.88 491.996 2240.27 491.625C2239.67 491.25 2239.2 490.727 2238.87 490.057C2238.54 489.383 2238.38 488.598 2238.38 487.705C2238.38 486.811 2238.54 486.023 2238.87 485.341C2239.2 484.655 2239.66 484.121 2240.24 483.739C2240.84 483.352 2241.52 483.159 2242.31 483.159C2242.77 483.159 2243.22 483.235 2243.66 483.386C2244.1 483.538 2244.51 483.784 2244.87 484.125C2245.23 484.462 2245.52 484.909 2245.74 485.466C2245.95 486.023 2246.06 486.708 2246.06 487.523V488.091H2239.34V486.932H2244.7C2244.7 486.439 2244.6 486 2244.4 485.614C2244.21 485.227 2243.93 484.922 2243.57 484.699C2243.22 484.475 2242.8 484.364 2242.31 484.364C2241.78 484.364 2241.32 484.496 2240.93 484.761C2240.54 485.023 2240.24 485.364 2240.03 485.784C2239.83 486.205 2239.72 486.655 2239.72 487.136V487.909C2239.72 488.568 2239.84 489.127 2240.06 489.585C2240.29 490.04 2240.61 490.386 2241.02 490.625C2241.43 490.86 2241.91 490.977 2242.45 490.977C2242.8 490.977 2243.12 490.928 2243.4 490.83C2243.69 490.727 2243.94 490.576 2244.15 490.375C2244.36 490.17 2244.52 489.917 2244.63 489.614L2245.93 489.977C2245.79 490.417 2245.56 490.803 2245.24 491.136C2244.92 491.466 2244.52 491.723 2244.05 491.909C2243.57 492.091 2243.04 492.182 2242.45 492.182ZM2251.4 492.182C2250.67 492.182 2250.03 491.998 2249.47 491.631C2248.91 491.259 2248.48 490.737 2248.16 490.062C2247.85 489.384 2247.69 488.583 2247.69 487.659C2247.69 486.742 2247.85 485.947 2248.16 485.273C2248.48 484.598 2248.92 484.078 2249.48 483.71C2250.04 483.343 2250.69 483.159 2251.42 483.159C2251.99 483.159 2252.44 483.254 2252.77 483.443C2253.1 483.629 2253.35 483.841 2253.53 484.08C2253.71 484.314 2253.84 484.508 2253.94 484.659H2254.06V480.364H2255.4V492H2254.1V490.659H2253.94C2253.84 490.818 2253.7 491.019 2253.52 491.261C2253.34 491.5 2253.08 491.714 2252.74 491.903C2252.41 492.089 2251.96 492.182 2251.4 492.182ZM2251.58 490.977C2252.12 490.977 2252.57 490.837 2252.94 490.557C2253.31 490.273 2253.6 489.881 2253.79 489.381C2253.98 488.877 2254.08 488.295 2254.08 487.636C2254.08 486.985 2253.98 486.415 2253.8 485.926C2253.61 485.434 2253.33 485.051 2252.95 484.778C2252.58 484.502 2252.13 484.364 2251.58 484.364C2251.01 484.364 2250.54 484.509 2250.16 484.801C2249.78 485.089 2249.5 485.481 2249.31 485.977C2249.13 486.47 2249.03 487.023 2249.03 487.636C2249.03 488.258 2249.13 488.822 2249.32 489.33C2249.51 489.833 2249.8 490.235 2250.17 490.534C2250.55 490.83 2251.02 490.977 2251.58 490.977Z" fill="#B5B5B5"/>
<path d="M2330.26 481.614V480.364H2338.99V481.614H2335.33V492H2333.92V481.614H2330.26ZM2342.33 486.75V492H2340.99V480.364H2342.33V484.636H2342.44C2342.64 484.186 2342.95 483.828 2343.36 483.562C2343.77 483.294 2344.32 483.159 2345.01 483.159C2345.6 483.159 2346.12 483.278 2346.57 483.517C2347.02 483.752 2347.36 484.114 2347.61 484.602C2347.86 485.087 2347.99 485.705 2347.99 486.455V492H2346.64V486.545C2346.64 485.852 2346.46 485.316 2346.1 484.938C2345.75 484.555 2345.25 484.364 2344.62 484.364C2344.18 484.364 2343.79 484.456 2343.44 484.642C2343.09 484.828 2342.82 485.098 2342.62 485.455C2342.42 485.811 2342.33 486.242 2342.33 486.75ZM2355.94 488.432V483.273H2357.28V492H2355.94V490.523H2355.85C2355.64 490.966 2355.32 491.343 2354.89 491.653C2354.46 491.96 2353.92 492.114 2353.26 492.114C2352.71 492.114 2352.23 491.994 2351.8 491.756C2351.38 491.513 2351.04 491.15 2350.8 490.665C2350.56 490.176 2350.44 489.561 2350.44 488.818V483.273H2351.78V488.727C2351.78 489.364 2351.96 489.871 2352.31 490.25C2352.67 490.629 2353.13 490.818 2353.69 490.818C2354.02 490.818 2354.36 490.733 2354.71 490.562C2355.05 490.392 2355.35 490.131 2355.58 489.778C2355.82 489.426 2355.94 488.977 2355.94 488.432Z" fill="#B5B5B5"/>
<path d="M2432.89 492V480.364H2439.86V481.614H2434.29V485.545H2439.34V486.795H2434.29V492H2432.89ZM2442 492V483.273H2443.3V484.591H2443.39C2443.55 484.159 2443.83 483.809 2444.25 483.54C2444.67 483.271 2445.14 483.136 2445.66 483.136C2445.76 483.136 2445.88 483.138 2446.03 483.142C2446.18 483.146 2446.29 483.152 2446.36 483.159V484.523C2446.32 484.511 2446.21 484.494 2446.05 484.472C2445.89 484.445 2445.72 484.432 2445.55 484.432C2445.12 484.432 2444.74 484.521 2444.41 484.699C2444.08 484.873 2443.82 485.116 2443.63 485.426C2443.44 485.733 2443.34 486.083 2443.34 486.477V492H2442ZM2447.95 492V483.273H2449.29V492H2447.95ZM2448.64 481.818C2448.37 481.818 2448.15 481.729 2447.96 481.551C2447.77 481.373 2447.68 481.159 2447.68 480.909C2447.68 480.659 2447.77 480.445 2447.96 480.267C2448.15 480.089 2448.37 480 2448.64 480C2448.9 480 2449.12 480.089 2449.31 480.267C2449.5 480.445 2449.59 480.659 2449.59 480.909C2449.59 481.159 2449.5 481.373 2449.31 481.551C2449.12 481.729 2448.9 481.818 2448.64 481.818Z" fill="#B5B5B5"/>
<path d="M2531.26 483.273C2531.19 482.697 2530.91 482.25 2530.43 481.932C2529.94 481.614 2529.35 481.455 2528.64 481.455C2528.13 481.455 2527.68 481.538 2527.29 481.705C2526.91 481.871 2526.61 482.1 2526.39 482.392C2526.18 482.684 2526.08 483.015 2526.08 483.386C2526.08 483.697 2526.15 483.964 2526.3 484.188C2526.45 484.407 2526.64 484.591 2526.88 484.739C2527.11 484.883 2527.36 485.002 2527.62 485.097C2527.87 485.187 2528.11 485.261 2528.33 485.318L2529.51 485.636C2529.81 485.716 2530.15 485.826 2530.52 485.966C2530.89 486.106 2531.25 486.297 2531.59 486.54C2531.94 486.778 2532.22 487.085 2532.44 487.46C2532.67 487.835 2532.78 488.295 2532.78 488.841C2532.78 489.47 2532.62 490.038 2532.29 490.545C2531.96 491.053 2531.48 491.456 2530.85 491.756C2530.23 492.055 2529.47 492.205 2528.58 492.205C2527.74 492.205 2527.02 492.07 2526.41 491.801C2525.8 491.532 2525.33 491.157 2524.98 490.676C2524.63 490.195 2524.44 489.636 2524.39 489H2525.85C2525.89 489.439 2526.03 489.803 2526.29 490.091C2526.55 490.375 2526.88 490.587 2527.28 490.727C2527.68 490.864 2528.11 490.932 2528.58 490.932C2529.11 490.932 2529.6 490.845 2530.02 490.67C2530.45 490.492 2530.79 490.246 2531.04 489.932C2531.29 489.614 2531.42 489.242 2531.42 488.818C2531.42 488.432 2531.31 488.117 2531.09 487.875C2530.88 487.633 2530.59 487.436 2530.24 487.284C2529.89 487.133 2529.51 487 2529.1 486.886L2527.67 486.477C2526.76 486.216 2526.04 485.843 2525.51 485.358C2524.98 484.873 2524.71 484.239 2524.71 483.455C2524.71 482.803 2524.89 482.235 2525.24 481.75C2525.6 481.261 2526.07 480.883 2526.67 480.614C2527.27 480.341 2527.95 480.205 2528.69 480.205C2529.44 480.205 2530.11 480.339 2530.69 480.608C2531.27 480.873 2531.73 481.237 2532.08 481.699C2532.42 482.161 2532.6 482.686 2532.62 483.273H2531.26ZM2537.48 492.205C2536.93 492.205 2536.43 492.1 2535.98 491.892C2535.53 491.68 2535.17 491.375 2534.9 490.977C2534.64 490.576 2534.51 490.091 2534.51 489.523C2534.51 489.023 2534.6 488.617 2534.8 488.307C2535 487.992 2535.26 487.746 2535.59 487.568C2535.92 487.39 2536.28 487.258 2536.68 487.17C2537.08 487.08 2537.49 487.008 2537.89 486.955C2538.42 486.886 2538.85 486.835 2539.18 486.801C2539.52 486.763 2539.76 486.701 2539.91 486.614C2540.06 486.527 2540.14 486.375 2540.14 486.159V486.114C2540.14 485.553 2539.99 485.117 2539.68 484.807C2539.38 484.496 2538.92 484.341 2538.3 484.341C2537.66 484.341 2537.16 484.481 2536.8 484.761C2536.43 485.042 2536.18 485.341 2536.03 485.659L2534.76 485.205C2534.98 484.674 2535.29 484.261 2535.66 483.966C2536.05 483.667 2536.46 483.458 2536.91 483.341C2537.37 483.22 2537.82 483.159 2538.26 483.159C2538.54 483.159 2538.86 483.193 2539.22 483.261C2539.59 483.326 2539.94 483.46 2540.28 483.665C2540.63 483.869 2540.91 484.178 2541.14 484.591C2541.37 485.004 2541.48 485.557 2541.48 486.25V492H2540.14V490.818H2540.07C2539.98 491.008 2539.83 491.21 2539.62 491.426C2539.41 491.642 2539.13 491.826 2538.77 491.977C2538.42 492.129 2537.99 492.205 2537.48 492.205ZM2537.69 491C2538.22 491 2538.66 490.896 2539.03 490.688C2539.4 490.479 2539.67 490.21 2539.86 489.881C2540.05 489.551 2540.14 489.205 2540.14 488.841V487.614C2540.09 487.682 2539.96 487.744 2539.77 487.801C2539.58 487.854 2539.36 487.902 2539.11 487.943C2538.86 487.981 2538.62 488.015 2538.39 488.045C2538.16 488.072 2537.97 488.095 2537.82 488.114C2537.48 488.159 2537.15 488.233 2536.85 488.335C2536.55 488.434 2536.3 488.583 2536.12 488.784C2535.94 488.981 2535.85 489.25 2535.85 489.591C2535.85 490.057 2536.02 490.409 2536.36 490.648C2536.71 490.883 2537.15 491 2537.69 491ZM2547.73 483.273V484.409H2543.2V483.273H2547.73ZM2544.52 481.182H2545.86V489.5C2545.86 489.879 2545.92 490.163 2546.03 490.352C2546.14 490.538 2546.28 490.663 2546.46 490.727C2546.64 490.788 2546.82 490.818 2547.02 490.818C2547.17 490.818 2547.29 490.811 2547.38 490.795C2547.48 490.777 2547.56 490.761 2547.61 490.75L2547.88 491.955C2547.79 491.989 2547.67 492.023 2547.5 492.057C2547.34 492.095 2547.13 492.114 2546.88 492.114C2546.51 492.114 2546.13 492.032 2545.77 491.869C2545.41 491.706 2545.11 491.458 2544.87 491.125C2544.64 490.792 2544.52 490.371 2544.52 489.864V481.182Z" fill="#B5B5B5"/>
<path d="M2628.84 483.273C2628.77 482.697 2628.5 482.25 2628.01 481.932C2627.53 481.614 2626.93 481.455 2626.23 481.455C2625.71 481.455 2625.26 481.538 2624.88 481.705C2624.49 481.871 2624.2 482.1 2623.98 482.392C2623.77 482.684 2623.66 483.015 2623.66 483.386C2623.66 483.697 2623.74 483.964 2623.88 484.188C2624.03 484.407 2624.23 484.591 2624.46 484.739C2624.7 484.883 2624.94 485.002 2625.2 485.097C2625.46 485.187 2625.7 485.261 2625.91 485.318L2627.09 485.636C2627.4 485.716 2627.73 485.826 2628.1 485.966C2628.48 486.106 2628.84 486.297 2629.18 486.54C2629.52 486.778 2629.81 487.085 2630.03 487.46C2630.25 487.835 2630.37 488.295 2630.37 488.841C2630.37 489.47 2630.2 490.038 2629.87 490.545C2629.55 491.053 2629.07 491.456 2628.44 491.756C2627.81 492.055 2627.06 492.205 2626.16 492.205C2625.33 492.205 2624.61 492.07 2624 491.801C2623.39 491.532 2622.91 491.157 2622.56 490.676C2622.22 490.195 2622.02 489.636 2621.98 489H2623.43C2623.47 489.439 2623.62 489.803 2623.88 490.091C2624.14 490.375 2624.47 490.587 2624.87 490.727C2625.27 490.864 2625.7 490.932 2626.16 490.932C2626.7 490.932 2627.18 490.845 2627.61 490.67C2628.04 490.492 2628.38 490.246 2628.63 489.932C2628.88 489.614 2629 489.242 2629 488.818C2629 488.432 2628.89 488.117 2628.68 487.875C2628.46 487.633 2628.18 487.436 2627.83 487.284C2627.47 487.133 2627.09 487 2626.68 486.886L2625.25 486.477C2624.34 486.216 2623.62 485.843 2623.09 485.358C2622.56 484.873 2622.3 484.239 2622.3 483.455C2622.3 482.803 2622.47 482.235 2622.83 481.75C2623.18 481.261 2623.66 480.883 2624.26 480.614C2624.86 480.341 2625.53 480.205 2626.27 480.205C2627.02 480.205 2627.69 480.339 2628.27 480.608C2628.86 480.873 2629.32 481.237 2629.66 481.699C2630.01 482.161 2630.19 482.686 2630.21 483.273H2628.84ZM2638 488.432V483.273H2639.34V492H2638V490.523H2637.91C2637.71 490.966 2637.39 491.343 2636.96 491.653C2636.52 491.96 2635.98 492.114 2635.32 492.114C2634.77 492.114 2634.29 491.994 2633.86 491.756C2633.44 491.513 2633.11 491.15 2632.86 490.665C2632.62 490.176 2632.5 489.561 2632.5 488.818V483.273H2633.84V488.727C2633.84 489.364 2634.02 489.871 2634.38 490.25C2634.74 490.629 2635.19 490.818 2635.75 490.818C2636.08 490.818 2636.42 490.733 2636.77 490.562C2637.12 490.392 2637.41 490.131 2637.64 489.778C2637.88 489.426 2638 488.977 2638 488.432ZM2643.14 486.75V492H2641.8V483.273H2643.09V484.636H2643.21C2643.41 484.193 2643.72 483.837 2644.14 483.568C2644.56 483.295 2645.09 483.159 2645.75 483.159C2646.34 483.159 2646.86 483.28 2647.3 483.523C2647.75 483.761 2648.09 484.125 2648.34 484.614C2648.58 485.098 2648.71 485.712 2648.71 486.455V492H2647.37V486.545C2647.37 485.86 2647.19 485.326 2646.83 484.943C2646.48 484.557 2645.99 484.364 2645.37 484.364C2644.94 484.364 2644.56 484.456 2644.22 484.642C2643.88 484.828 2643.62 485.098 2643.43 485.455C2643.24 485.811 2643.14 486.242 2643.14 486.75Z" fill="#B5B5B5"/>
<path d="M2723.84 480.364H2725.52L2729.48 490.023H2729.61L2733.57 480.364H2735.25V492H2733.93V483.159H2733.82L2730.18 492H2728.91L2725.27 483.159H2725.16V492H2723.84V480.364ZM2741.44 492.182C2740.65 492.182 2739.96 491.994 2739.36 491.619C2738.77 491.244 2738.31 490.72 2737.98 490.045C2737.65 489.371 2737.48 488.583 2737.48 487.682C2737.48 486.773 2737.65 485.979 2737.98 485.301C2738.31 484.623 2738.77 484.097 2739.36 483.722C2739.96 483.347 2740.65 483.159 2741.44 483.159C2742.22 483.159 2742.91 483.347 2743.5 483.722C2744.1 484.097 2744.56 484.623 2744.89 485.301C2745.22 485.979 2745.39 486.773 2745.39 487.682C2745.39 488.583 2745.22 489.371 2744.89 490.045C2744.56 490.72 2744.1 491.244 2743.5 491.619C2742.91 491.994 2742.22 492.182 2741.44 492.182ZM2741.44 490.977C2742.04 490.977 2742.53 490.824 2742.91 490.517C2743.3 490.21 2743.59 489.807 2743.77 489.307C2743.96 488.807 2744.05 488.265 2744.05 487.682C2744.05 487.098 2743.96 486.555 2743.77 486.051C2743.59 485.547 2743.3 485.14 2742.91 484.83C2742.53 484.519 2742.04 484.364 2741.44 484.364C2740.84 484.364 2740.35 484.519 2739.96 484.83C2739.57 485.14 2739.29 485.547 2739.1 486.051C2738.92 486.555 2738.82 487.098 2738.82 487.682C2738.82 488.265 2738.92 488.807 2739.1 489.307C2739.29 489.807 2739.57 490.21 2739.96 490.517C2740.35 490.824 2740.84 490.977 2741.44 490.977ZM2748.78 486.75V492H2747.44V483.273H2748.73V484.636H2748.85C2749.05 484.193 2749.36 483.837 2749.78 483.568C2750.2 483.295 2750.73 483.159 2751.39 483.159C2751.98 483.159 2752.5 483.28 2752.94 483.523C2753.39 483.761 2753.73 484.125 2753.98 484.614C2754.22 485.098 2754.35 485.712 2754.35 486.455V492H2753.01V486.545C2753.01 485.86 2752.83 485.326 2752.47 484.943C2752.12 484.557 2751.63 484.364 2751.01 484.364C2750.58 484.364 2750.2 484.456 2749.86 484.642C2749.53 484.828 2749.26 485.098 2749.07 485.455C2748.88 485.811 2748.78 486.242 2748.78 486.75Z" fill="#B5B5B5"/>
</g>
<defs>
<linearGradient id="paint0_linear_1523_9639" x1="1379.5" y1="-17" x2="1379.5" y2="535" gradientUnits="userSpaceOnUse">
<stop stop-color="white" stop-opacity="0"/>
<stop offset="0.503237" stop-color="#A0A0A0"/>
<stop offset="1" stop-color="white" stop-opacity="0"/>
</linearGradient>
<clipPath id="clip0_1523_9639">
<rect width="2771" height="513" fill="white"/>
</clipPath>
</defs>
</svg>
