<svg width="216" height="80" viewBox="0 0 216 80" fill="none" xmlns="http://www.w3.org/2000/svg">
<path fill-rule="evenodd" clip-rule="evenodd" d="M6.75391 31.441H14.0265C18.0716 31.441 20.1868 33.5325 20.1868 36.1009C20.1868 37.8738 19.187 39.078 17.8006 39.715V39.7609C19.5736 40.3978 20.5734 41.8064 20.5734 43.6016C20.5734 46.17 18.596 48.4199 14.3228 48.4199H6.75391V31.441ZM13.7999 38.1686C15.0041 38.1686 15.5507 37.5554 15.5507 36.8726C15.5507 36.1897 15.0056 35.5543 13.7999 35.5543H11.664V38.1686H13.7999ZM13.868 44.3051C15.1404 44.3051 15.7551 43.6919 15.7551 42.8965C15.7551 42.1011 15.1182 41.4879 13.8917 41.4879H11.664V44.3066H13.868V44.3051ZM21.6176 41.5101V31.441H26.5722V41.4642C26.5722 43.3513 27.5038 44.3511 29.0946 44.3511C30.6854 44.3511 31.6852 43.3513 31.6852 41.442V31.441H36.6635V41.5101C36.6635 45.7834 33.8004 48.8524 29.0946 48.8524C24.3889 48.8524 21.6161 45.7834 21.6161 41.5101H21.6176ZM49.2787 32.2587V36.6222C48.2108 35.8728 46.3919 35.3499 44.9152 35.3499C43.5747 35.3499 42.8919 35.7824 42.8919 36.3497C42.8919 36.917 43.6414 37.2132 44.9833 37.6902C47.2569 38.4856 50.3467 39.5535 50.3467 43.1676C50.3467 46.3951 47.9146 48.7813 43.6413 48.7813C41.4373 48.7813 39.414 48.1444 38.1639 47.3045V42.7129C39.3918 43.7127 41.2552 44.5081 43.0504 44.5081C44.573 44.5081 45.2781 43.9393 45.2781 43.3039C45.2781 42.4862 44.1183 42.1219 42.7319 41.6212C40.913 40.9621 38.0277 39.7801 38.0277 36.4845C38.0277 33.5073 40.3694 31.0752 44.5508 31.0752C46.3919 31.0752 48.0508 31.5521 49.2787 32.2572V32.2587ZM51.619 31.441H56.5736V48.4199H51.619V31.441ZM74.1893 48.4199H69.4614L63.347 39.3061H63.3248V48.4199H58.6206V31.441H63.3485L69.4629 40.3963H69.4851V31.441H74.1893V48.4199ZM76.2348 31.441H87.9629V35.8505H81.1894V37.8961H87.28V41.8967H81.1894V44.0104H87.9629V48.4199H76.2348V31.441ZM100.396 32.2587V36.6222C99.328 35.8728 97.5091 35.3499 96.0324 35.3499C94.6919 35.3499 94.0091 35.7824 94.0091 36.3497C94.0091 36.917 94.7586 37.2132 96.1005 37.6902C98.3741 38.4856 101.464 39.5535 101.464 43.1676C101.464 46.3951 99.0318 48.7813 94.7586 48.7813C92.5545 48.7813 90.5312 48.1444 89.2811 47.3045V42.7129C90.509 43.7127 92.3724 44.5081 94.1675 44.5081C95.6902 44.5081 96.3953 43.9393 96.3953 43.3039C96.3953 42.4862 95.2355 42.1219 93.8491 41.6212C92.0302 40.9621 89.1449 39.7801 89.1449 36.4845C89.1449 33.5073 91.4866 31.0752 95.668 31.0752C97.5091 31.0752 99.168 31.5521 100.396 32.2572V32.2587ZM113.51 32.2587V36.6222C112.442 35.8728 110.624 35.3499 109.147 35.3499C107.806 35.3499 107.123 35.7824 107.123 36.3497C107.123 36.917 107.873 37.2132 109.215 37.6902C111.489 38.4856 114.578 39.5535 114.578 43.1676C114.578 46.3951 112.146 48.7813 107.873 48.7813C105.669 48.7813 103.646 48.1444 102.396 47.3045V42.7129C103.623 43.7127 105.487 44.5081 107.282 44.5081C108.805 44.5081 109.51 43.9393 109.51 43.3039C109.51 42.4862 108.35 42.1219 106.964 41.6212C105.145 40.9621 102.259 39.7801 102.259 36.4845C102.259 33.5073 104.601 31.0752 108.782 31.0752C110.624 31.0752 112.282 31.5521 113.51 32.2572V32.2587ZM120.319 48.4525H125.274V31.4751H120.319V48.4539V48.4525ZM142.887 31.4751H138.182V40.4304H138.16L132.046 31.4751H127.318V48.4539H132.022V39.3402H132.044L138.159 48.4539H142.887V31.4751ZM150.861 31.1107C146.679 31.1107 144.338 33.5429 144.338 36.52C144.338 39.8157 147.225 40.9977 149.043 41.6568C150.429 42.1574 151.589 42.5203 151.589 43.3394C151.589 43.9763 150.884 44.5436 149.361 44.5436C147.566 44.5436 145.701 43.7482 144.475 42.7484V47.3401C145.725 48.1814 147.748 48.8168 149.952 48.8168C154.225 48.8168 156.657 46.4306 156.657 43.2031C156.657 39.5891 153.566 38.5211 151.294 37.7257C149.953 37.2488 149.202 36.9762 149.202 36.3852C149.202 35.7943 149.884 35.3854 151.226 35.3854C152.703 35.3854 154.521 35.9083 155.589 36.6578V32.2927C154.361 31.5877 152.703 31.1107 150.861 31.1107ZM157.814 48.4525H162.769V31.4751H157.814V48.4539V48.4525ZM169.769 43.9748H170.724C173.292 43.9748 174.951 42.5203 174.951 39.9742C174.951 37.428 173.292 35.9513 170.724 35.9513H169.769V43.9748ZM179.952 39.9742C179.952 45.0887 176.087 48.4525 170.542 48.4525H164.814V31.4751H170.542C176.087 31.4751 179.952 34.8611 179.952 39.9756V39.9742ZM181.295 48.4525H193.023V44.043H186.25V41.9293H192.341V37.9286H186.25V35.8831H193.023V31.4751H181.295V48.4539V48.4525ZM200.822 39.4972C202.072 39.4972 203.049 38.9062 203.049 37.7242C203.049 36.5423 202.072 35.9513 200.8 35.9513H199.754V39.4972H200.822ZM208.936 48.4525H203.094L199.866 43.2017H199.752V48.4525H194.798V31.4751H200.844C205.095 31.4751 208.049 33.3621 208.049 37.385C208.049 38.9758 207.343 41.2939 204.525 42.4759L208.934 48.4539L208.936 48.4525Z" fill="white"/>
</svg>
