<svg width="216" height="80" viewBox="0 0 216 80" fill="none" xmlns="http://www.w3.org/2000/svg">
<path fill-rule="evenodd" clip-rule="evenodd" d="M122.619 33.1045C120.582 33.1045 118.977 33.5366 117.372 34.4627C117.372 29.8119 117.372 25.4903 117.536 24.0498L107.638 25.8196V26.6633L108.646 26.8279C110.005 27.0749 110.416 27.8363 110.684 29.6266C110.931 33.1868 110.848 51.8929 110.684 55.0208C113.318 55.6176 116.096 56.0292 118.895 56.0292C126.673 56.0292 131.345 51.1932 131.345 43.579C131.427 37.5083 127.599 33.1045 122.619 33.1045ZM119.224 54.3417C118.627 54.3417 117.866 54.3417 117.454 54.1771C117.289 52.1398 117.207 43.5173 117.289 35.8826C118.133 35.6356 118.73 35.4504 119.491 35.4504C122.702 35.4504 124.492 39.2575 124.492 43.9083C124.471 49.8556 122.27 54.3417 119.224 54.3417Z" fill="white"/>
<path fill-rule="evenodd" clip-rule="evenodd" d="M70.7198 24.626H44.8934V25.9842L46.3339 26.1488C48.2889 26.3957 48.968 27.5893 49.2973 30.388C49.7294 35.6356 49.5442 45.2047 49.2973 49.7732C49.0503 52.5719 48.2889 53.8272 46.3339 54.0124L44.8934 54.2594V55.4529H61.4799V54.2594L59.7101 54.0124C57.7552 53.8478 57.0761 52.5719 56.7468 49.7732C56.5822 47.8182 56.4998 44.7726 56.4998 40.9655L60.06 41.1301C62.2619 41.1301 63.2703 42.8999 63.7024 45.3694H65.0606V34.8742H63.7024C63.2703 37.3231 62.2619 39.1134 60.06 39.1134L56.4998 39.278C56.4998 34.2774 56.6645 29.6266 56.7468 26.8279H61.9121C65.8838 26.8279 67.9211 29.2768 69.3616 33.6806L70.8021 33.2485L70.7198 24.626Z" fill="white"/>
<path fill-rule="evenodd" clip-rule="evenodd" d="M79.013 32.8369C86.3802 32.8369 90.0226 37.8376 90.0226 44.4433C90.0226 50.6993 85.9686 56.0497 78.6014 56.0497C71.2342 56.0497 67.5918 51.0491 67.5918 44.4433C67.5918 38.0845 71.7281 32.8369 79.013 32.8369ZM78.5808 34.2774C75.3706 34.2774 74.5268 38.6813 74.5268 44.361C74.5268 49.9584 75.9673 54.4446 78.9307 54.4446C82.3262 54.4446 83.1699 50.0408 83.1699 44.361C83.1699 38.8459 81.7294 34.2774 78.5808 34.2774Z" fill="white"/>
<path fill-rule="evenodd" clip-rule="evenodd" d="M133.279 44.5259C133.279 38.5169 137.086 32.7549 144.536 32.7549C150.709 32.7549 153.59 37.3234 153.59 43.3324H139.967C139.803 48.7446 142.416 52.7369 147.746 52.7369C150.113 52.7369 151.306 52.1401 152.747 51.1317L153.343 51.8931C151.903 53.9304 148.693 55.9471 144.536 55.9471C138.012 56.05 133.279 51.2963 133.279 44.5259ZM140.05 41.8095L146.902 41.6449C146.902 38.6816 146.47 34.2777 143.939 34.2777C141.49 34.2777 140.214 38.4346 140.05 41.8095Z" fill="white"/>
<path fill-rule="evenodd" clip-rule="evenodd" d="M171.123 34.0305C169.354 33.2691 167.069 32.8369 164.353 32.8369C158.941 32.8369 155.545 36.0472 155.545 39.8543C155.545 43.6613 157.994 45.2665 161.554 46.4601C165.197 47.8182 166.205 48.8266 166.205 50.5141C166.205 52.2838 164.847 53.9096 162.563 53.9096C159.764 53.9096 157.727 52.3044 156.122 47.9006L155.113 48.1475L155.278 54.5887C157.048 55.3501 160.278 55.9469 163.057 55.9469C168.819 55.9469 172.461 52.9835 172.461 48.4973C172.461 45.4517 170.856 43.6613 167.049 42.2414C162.995 40.6363 161.451 39.6073 161.451 37.6729C161.451 35.7179 162.81 34.4626 164.497 34.4626C167.131 34.4626 168.901 36.0678 170.259 40.0601L171.267 39.8131L171.123 34.0305Z" fill="white"/>
<path fill-rule="evenodd" clip-rule="evenodd" d="M109.078 33.4336C106.63 31.9931 102.226 32.6722 99.8592 38.0021L100.024 32.8368L90.2078 34.7918V35.6355L91.2161 35.8001C92.5743 35.9648 93.1711 36.6439 93.2534 38.5989C93.5004 42.159 93.418 48.2503 93.2534 51.3783C93.0888 53.148 92.492 54.0123 91.2161 54.177L90.2078 54.3416V55.5352H103.831V54.3416L102.061 54.177C100.621 54.0123 100.106 53.1686 100.024 51.3783C99.7769 48.5796 99.7769 43.0027 99.8592 39.5249C100.621 38.5165 103.831 37.5699 106.712 39.5249L109.078 33.4336Z" fill="white"/>
</svg>
