<svg width="1440" height="1053" viewBox="0 0 1440 1053" fill="none" xmlns="http://www.w3.org/2000/svg">
<rect width="1440" height="1053" fill="#000B36"/>
<g filter="url(#filter0_df_1654_26671)">
<path fill-rule="evenodd" clip-rule="evenodd" d="M410.492 524.925C408.192 509.781 407 494.279 407 478.5C407 307.568 546.911 169 719.5 169C841.507 169 947.184 238.248 998.647 339.225H887.066C846.939 291.919 786.765 261.85 719.5 261.85C614.778 261.85 527.243 334.732 505.784 432.075H1028.51C1030.81 447.219 1032 462.721 1032 478.5C1032 649.432 892.089 788 719.5 788C597.286 788 491.459 718.518 440.092 617.263L550.081 615.561C580.747 652.699 623.616 679.568 672.627 690.165V524.925H410.492ZM766.377 690.164C849.562 672.176 915.055 607.312 933.216 524.925H766.377V690.164Z" fill="#000019" shape-rendering="crispEdges"/>
<path fill-rule="evenodd" clip-rule="evenodd" d="M410.492 524.925C408.192 509.781 407 494.279 407 478.5C407 307.568 546.911 169 719.5 169C841.507 169 947.184 238.248 998.647 339.225H887.066C846.939 291.919 786.765 261.85 719.5 261.85C614.778 261.85 527.243 334.732 505.784 432.075H1028.51C1030.81 447.219 1032 462.721 1032 478.5C1032 649.432 892.089 788 719.5 788C597.286 788 491.459 718.518 440.092 617.263L550.081 615.561C580.747 652.699 623.616 679.568 672.627 690.165V524.925H410.492ZM766.377 690.164C849.562 672.176 915.055 607.312 933.216 524.925H766.377V690.164Z" stroke="url(#paint0_linear_1654_26671)" stroke-opacity="0.42" stroke-width="2" shape-rendering="crispEdges"/>
<path fill-rule="evenodd" clip-rule="evenodd" d="M410.492 524.925C408.192 509.781 407 494.279 407 478.5C407 307.568 546.911 169 719.5 169C841.507 169 947.184 238.248 998.647 339.225H887.066C846.939 291.919 786.765 261.85 719.5 261.85C614.778 261.85 527.243 334.732 505.784 432.075H1028.51C1030.81 447.219 1032 462.721 1032 478.5C1032 649.432 892.089 788 719.5 788C597.286 788 491.459 718.518 440.092 617.263L550.081 615.561C580.747 652.699 623.616 679.568 672.627 690.165V524.925H410.492ZM766.377 690.164C849.562 672.176 915.055 607.312 933.216 524.925H766.377V690.164Z" stroke="url(#paint1_linear_1654_26671)" stroke-opacity="0.42" stroke-width="2" shape-rendering="crispEdges"/>
<path fill-rule="evenodd" clip-rule="evenodd" d="M410.492 524.925C408.192 509.781 407 494.279 407 478.5C407 307.568 546.911 169 719.5 169C841.507 169 947.184 238.248 998.647 339.225H887.066C846.939 291.919 786.765 261.85 719.5 261.85C614.778 261.85 527.243 334.732 505.784 432.075H1028.51C1030.81 447.219 1032 462.721 1032 478.5C1032 649.432 892.089 788 719.5 788C597.286 788 491.459 718.518 440.092 617.263L550.081 615.561C580.747 652.699 623.616 679.568 672.627 690.165V524.925H410.492ZM766.377 690.164C849.562 672.176 915.055 607.312 933.216 524.925H766.377V690.164Z" stroke="url(#paint2_linear_1654_26671)" stroke-opacity="0.6" stroke-width="2" shape-rendering="crispEdges"/>
<path fill-rule="evenodd" clip-rule="evenodd" d="M410.492 524.925C408.192 509.781 407 494.279 407 478.5C407 307.568 546.911 169 719.5 169C841.507 169 947.184 238.248 998.647 339.225H887.066C846.939 291.919 786.765 261.85 719.5 261.85C614.778 261.85 527.243 334.732 505.784 432.075H1028.51C1030.81 447.219 1032 462.721 1032 478.5C1032 649.432 892.089 788 719.5 788C597.286 788 491.459 718.518 440.092 617.263L550.081 615.561C580.747 652.699 623.616 679.568 672.627 690.165V524.925H410.492ZM766.377 690.164C849.562 672.176 915.055 607.312 933.216 524.925H766.377V690.164Z" stroke="url(#paint3_linear_1654_26671)" stroke-opacity="0.8" stroke-width="2" shape-rendering="crispEdges"/>
</g>
<g filter="url(#filter1_i_1654_26671)">
<path fill-rule="evenodd" clip-rule="evenodd" d="M410.492 524.925C408.192 509.781 407 494.279 407 478.5C407 307.568 546.911 169 719.5 169C841.507 169 947.184 238.248 998.647 339.225H887.066C846.939 291.919 786.765 261.85 719.5 261.85C614.778 261.85 527.243 334.732 505.784 432.075H1028.51C1030.81 447.219 1032 462.721 1032 478.5C1032 649.432 892.089 788 719.5 788C597.286 788 491.459 718.518 440.092 617.263L550.081 615.561C580.747 652.699 623.616 679.568 672.627 690.165V524.925H410.492ZM766.377 690.164C849.562 672.176 915.055 607.312 933.216 524.925H766.377V690.164Z" fill="#000019"/>
</g>
<path fill-rule="evenodd" clip-rule="evenodd" d="M410.492 524.925C408.192 509.781 407 494.279 407 478.5C407 307.568 546.911 169 719.5 169C841.507 169 947.184 238.248 998.647 339.225H887.066C846.939 291.919 786.765 261.85 719.5 261.85C614.778 261.85 527.243 334.732 505.784 432.075H1028.51C1030.81 447.219 1032 462.721 1032 478.5C1032 649.432 892.089 788 719.5 788C597.286 788 491.459 718.518 440.092 617.263L550.081 615.561C580.747 652.699 623.616 679.568 672.627 690.165V524.925H410.492ZM766.377 690.164C849.562 672.176 915.055 607.312 933.216 524.925H766.377V690.164Z" stroke="url(#paint4_linear_1654_26671)" stroke-opacity="0.42" stroke-width="2"/>
<path fill-rule="evenodd" clip-rule="evenodd" d="M410.492 524.925C408.192 509.781 407 494.279 407 478.5C407 307.568 546.911 169 719.5 169C841.507 169 947.184 238.248 998.647 339.225H887.066C846.939 291.919 786.765 261.85 719.5 261.85C614.778 261.85 527.243 334.732 505.784 432.075H1028.51C1030.81 447.219 1032 462.721 1032 478.5C1032 649.432 892.089 788 719.5 788C597.286 788 491.459 718.518 440.092 617.263L550.081 615.561C580.747 652.699 623.616 679.568 672.627 690.165V524.925H410.492ZM766.377 690.164C849.562 672.176 915.055 607.312 933.216 524.925H766.377V690.164Z" stroke="url(#paint5_linear_1654_26671)" stroke-opacity="0.42" stroke-width="2"/>
<path fill-rule="evenodd" clip-rule="evenodd" d="M410.492 524.925C408.192 509.781 407 494.279 407 478.5C407 307.568 546.911 169 719.5 169C841.507 169 947.184 238.248 998.647 339.225H887.066C846.939 291.919 786.765 261.85 719.5 261.85C614.778 261.85 527.243 334.732 505.784 432.075H1028.51C1030.81 447.219 1032 462.721 1032 478.5C1032 649.432 892.089 788 719.5 788C597.286 788 491.459 718.518 440.092 617.263L550.081 615.561C580.747 652.699 623.616 679.568 672.627 690.165V524.925H410.492ZM766.377 690.164C849.562 672.176 915.055 607.312 933.216 524.925H766.377V690.164Z" stroke="url(#paint6_linear_1654_26671)" stroke-opacity="0.6" stroke-width="2"/>
<path fill-rule="evenodd" clip-rule="evenodd" d="M410.492 524.925C408.192 509.781 407 494.279 407 478.5C407 307.568 546.911 169 719.5 169C841.507 169 947.184 238.248 998.647 339.225H887.066C846.939 291.919 786.765 261.85 719.5 261.85C614.778 261.85 527.243 334.732 505.784 432.075H1028.51C1030.81 447.219 1032 462.721 1032 478.5C1032 649.432 892.089 788 719.5 788C597.286 788 491.459 718.518 440.092 617.263L550.081 615.561C580.747 652.699 623.616 679.568 672.627 690.165V524.925H410.492ZM766.377 690.164C849.562 672.176 915.055 607.312 933.216 524.925H766.377V690.164Z" stroke="url(#paint7_linear_1654_26671)" stroke-opacity="0.8" stroke-width="2"/>
<mask id="mask0_1654_26671" style="mask-type:alpha" maskUnits="userSpaceOnUse" x="407" y="169" width="625" height="619">
<path fill-rule="evenodd" clip-rule="evenodd" d="M410.492 524.925C408.192 509.781 407 494.279 407 478.5C407 307.568 546.911 169 719.5 169C841.507 169 947.184 238.248 998.647 339.225H887.066C846.939 291.919 786.765 261.85 719.5 261.85C614.778 261.85 527.243 334.732 505.784 432.075H1028.51C1030.81 447.219 1032 462.721 1032 478.5C1032 649.432 892.089 788 719.5 788C597.286 788 491.459 718.518 440.092 617.263L550.081 615.561C580.747 652.699 623.616 679.568 672.627 690.165V524.925H410.492ZM766.377 690.164C849.562 672.176 915.055 607.312 933.216 524.925H766.377V690.164Z" fill="#000019"/>
</mask>
<g mask="url(#mask0_1654_26671)">
<circle cx="525" cy="703" r="271" fill="url(#paint8_linear_1654_26671)"/>
<circle cx="455.001" cy="455" r="271" transform="rotate(55.4467 455.001 455)" fill="url(#paint9_linear_1654_26671)"/>
<circle cx="578.118" cy="184.117" r="271" transform="rotate(106.245 578.118 184.117)" fill="url(#paint10_linear_1654_26671)"/>
<g style="mix-blend-mode:color-dodge">
<circle cx="633.991" cy="193.992" r="271" transform="rotate(118.131 633.991 193.992)" fill="url(#paint11_linear_1654_26671)"/>
</g>
<circle cx="278.24" cy="510.117" r="271" transform="rotate(40.8341 278.24 510.117)" fill="url(#paint12_linear_1654_26671)"/>
<circle cx="968" cy="631" r="271" transform="rotate(-75 968 631)" fill="url(#paint13_linear_1654_26671)"/>
<circle cx="665.906" cy="746.906" r="271" transform="rotate(-45.0254 665.906 746.906)" fill="url(#paint14_linear_1654_26671)"/>
</g>
<g filter="url(#filter2_f_1654_26671)">
<ellipse cx="634.5" cy="188.187" rx="149.711" ry="38.5" transform="rotate(-16.283 634.5 188.187)" fill="url(#paint15_radial_1654_26671)" fill-opacity="0.32"/>
</g>
<g filter="url(#filter3_f_1654_26671)">
<ellipse cx="815.5" cy="769.494" rx="149.711" ry="38.5" transform="rotate(163.717 815.5 769.494)" fill="url(#paint16_radial_1654_26671)" fill-opacity="0.56"/>
</g>
<g filter="url(#filter4_f_1654_26671)">
<ellipse cx="494.5" cy="264.932" rx="149.711" ry="38.5" transform="rotate(-41.4148 494.5 264.932)" fill="url(#paint17_radial_1654_26671)" fill-opacity="0.56"/>
</g>
<g filter="url(#filter5_f_1654_26671)">
<ellipse cx="955.5" cy="692.75" rx="149.711" ry="38.5" transform="rotate(138.585 955.5 692.75)" fill="url(#paint18_radial_1654_26671)" fill-opacity="0.56"/>
</g>
<g style="mix-blend-mode:lighten" filter="url(#filter6_f_1654_26671)">
<ellipse cx="450.742" cy="341.907" rx="149.711" ry="38.5" transform="rotate(-66.8078 450.742 341.907)" fill="url(#paint19_radial_1654_26671)" fill-opacity="0.56"/>
</g>
<g style="mix-blend-mode:lighten" filter="url(#filter7_f_1654_26671)">
<ellipse cx="998.258" cy="584.775" rx="149.711" ry="38.5" transform="rotate(104.085 998.258 584.775)" fill="url(#paint20_radial_1654_26671)" fill-opacity="0.56"/>
</g>
<g filter="url(#filter8_f_1654_26671)">
<ellipse cx="721.5" cy="472" rx="605.5" ry="271" fill="url(#paint21_radial_1654_26671)"/>
</g>
<defs>
<filter id="filter0_df_1654_26671" x="374" y="136" width="691" height="685" filterUnits="userSpaceOnUse" color-interpolation-filters="sRGB">
<feFlood flood-opacity="0" result="BackgroundImageFix"/>
<feColorMatrix in="SourceAlpha" type="matrix" values="0 0 0 0 0 0 0 0 0 0 0 0 0 0 0 0 0 0 127 0" result="hardAlpha"/>
<feOffset dy="4"/>
<feGaussianBlur stdDeviation="2"/>
<feComposite in2="hardAlpha" operator="out"/>
<feColorMatrix type="matrix" values="0 0 0 0 0 0 0 0 0 0 0 0 0 0 0 0 0 0 0.25 0"/>
<feBlend mode="normal" in2="BackgroundImageFix" result="effect1_dropShadow_1654_26671"/>
<feBlend mode="normal" in="SourceGraphic" in2="effect1_dropShadow_1654_26671" result="shape"/>
<feGaussianBlur stdDeviation="16" result="effect2_foregroundBlur_1654_26671"/>
</filter>
<filter id="filter1_i_1654_26671" x="406" y="168" width="627" height="625" filterUnits="userSpaceOnUse" color-interpolation-filters="sRGB">
<feFlood flood-opacity="0" result="BackgroundImageFix"/>
<feBlend mode="normal" in="SourceGraphic" in2="BackgroundImageFix" result="shape"/>
<feColorMatrix in="SourceAlpha" type="matrix" values="0 0 0 0 0 0 0 0 0 0 0 0 0 0 0 0 0 0 127 0" result="hardAlpha"/>
<feOffset dy="4"/>
<feGaussianBlur stdDeviation="20.05"/>
<feComposite in2="hardAlpha" operator="arithmetic" k2="-1" k3="1"/>
<feColorMatrix type="matrix" values="0 0 0 0 0.0366345 0 0 0 0 0.0366345 0 0 0 0 0.582812 0 0 0 1 0"/>
<feBlend mode="normal" in2="shape" result="effect1_innerShadow_1654_26671"/>
</filter>
<filter id="filter2_f_1654_26671" x="426.883" y="68.7607" width="415.234" height="238.854" filterUnits="userSpaceOnUse" color-interpolation-filters="sRGB">
<feFlood flood-opacity="0" result="BackgroundImageFix"/>
<feBlend mode="normal" in="SourceGraphic" in2="BackgroundImageFix" result="shape"/>
<feGaussianBlur stdDeviation="31.75" result="effect1_foregroundBlur_1654_26671"/>
</filter>
<filter id="filter3_f_1654_26671" x="607.883" y="650.067" width="415.234" height="238.854" filterUnits="userSpaceOnUse" color-interpolation-filters="sRGB">
<feFlood flood-opacity="0" result="BackgroundImageFix"/>
<feBlend mode="normal" in="SourceGraphic" in2="BackgroundImageFix" result="shape"/>
<feGaussianBlur stdDeviation="31.75" result="effect1_foregroundBlur_1654_26671"/>
</filter>
<filter id="filter4_f_1654_26671" x="315.848" y="98.248" width="357.305" height="333.368" filterUnits="userSpaceOnUse" color-interpolation-filters="sRGB">
<feFlood flood-opacity="0" result="BackgroundImageFix"/>
<feBlend mode="normal" in="SourceGraphic" in2="BackgroundImageFix" result="shape"/>
<feGaussianBlur stdDeviation="31.75" result="effect1_foregroundBlur_1654_26671"/>
</filter>
<filter id="filter5_f_1654_26671" x="776.848" y="526.065" width="357.305" height="333.368" filterUnits="userSpaceOnUse" color-interpolation-filters="sRGB">
<feFlood flood-opacity="0" result="BackgroundImageFix"/>
<feBlend mode="normal" in="SourceGraphic" in2="BackgroundImageFix" result="shape"/>
<feGaussianBlur stdDeviation="31.75" result="effect1_foregroundBlur_1654_26671"/>
</filter>
<filter id="filter6_f_1654_26671" x="318.467" y="139.949" width="264.549" height="403.915" filterUnits="userSpaceOnUse" color-interpolation-filters="sRGB">
<feFlood flood-opacity="0" result="BackgroundImageFix"/>
<feBlend mode="normal" in="SourceGraphic" in2="BackgroundImageFix" result="shape"/>
<feGaussianBlur stdDeviation="31.75" result="effect1_foregroundBlur_1654_26671"/>
</filter>
<filter id="filter7_f_1654_26671" x="882.586" y="375.757" width="231.344" height="418.035" filterUnits="userSpaceOnUse" color-interpolation-filters="sRGB">
<feFlood flood-opacity="0" result="BackgroundImageFix"/>
<feBlend mode="normal" in="SourceGraphic" in2="BackgroundImageFix" result="shape"/>
<feGaussianBlur stdDeviation="31.75" result="effect1_foregroundBlur_1654_26671"/>
</filter>
<filter id="filter8_f_1654_26671" x="112" y="197" width="1219" height="550" filterUnits="userSpaceOnUse" color-interpolation-filters="sRGB">
<feFlood flood-opacity="0" result="BackgroundImageFix"/>
<feBlend mode="normal" in="SourceGraphic" in2="BackgroundImageFix" result="shape"/>
<feGaussianBlur stdDeviation="2" result="effect1_foregroundBlur_1654_26671"/>
</filter>
<linearGradient id="paint0_linear_1654_26671" x1="542.5" y1="735" x2="671.5" y2="538.5" gradientUnits="userSpaceOnUse">
<stop stop-color="white"/>
<stop offset="1" stop-color="white" stop-opacity="0"/>
</linearGradient>
<linearGradient id="paint1_linear_1654_26671" x1="975" y1="235.5" x2="757" y2="528" gradientUnits="userSpaceOnUse">
<stop stop-color="white"/>
<stop offset="1" stop-color="white" stop-opacity="0"/>
</linearGradient>
<linearGradient id="paint2_linear_1654_26671" x1="628" y1="366.5" x2="757" y2="528" gradientUnits="userSpaceOnUse">
<stop stop-color="#1A22FF"/>
<stop offset="1" stop-color="white" stop-opacity="0"/>
</linearGradient>
<linearGradient id="paint3_linear_1654_26671" x1="510.5" y1="222.5" x2="577.5" y2="298" gradientUnits="userSpaceOnUse">
<stop stop-color="white"/>
<stop offset="1" stop-color="white" stop-opacity="0"/>
</linearGradient>
<linearGradient id="paint4_linear_1654_26671" x1="542.5" y1="735" x2="671.5" y2="538.5" gradientUnits="userSpaceOnUse">
<stop stop-color="white"/>
<stop offset="1" stop-color="white" stop-opacity="0"/>
</linearGradient>
<linearGradient id="paint5_linear_1654_26671" x1="1032" y1="619" x2="954.5" y2="585" gradientUnits="userSpaceOnUse">
<stop stop-color="white"/>
<stop offset="1" stop-color="white" stop-opacity="0"/>
</linearGradient>
<linearGradient id="paint6_linear_1654_26671" x1="882" y1="683.5" x2="819" y2="607" gradientUnits="userSpaceOnUse">
<stop stop-color="#1A22FF"/>
<stop offset="1" stop-color="white" stop-opacity="0"/>
</linearGradient>
<linearGradient id="paint7_linear_1654_26671" x1="510.5" y1="222.5" x2="577.5" y2="298" gradientUnits="userSpaceOnUse">
<stop stop-color="white"/>
<stop offset="1" stop-color="white" stop-opacity="0"/>
</linearGradient>
<linearGradient id="paint8_linear_1654_26671" x1="589" y1="703" x2="467" y2="853.5" gradientUnits="userSpaceOnUse">
<stop stop-color="#1A22FF" stop-opacity="0"/>
<stop offset="1" stop-color="white"/>
</linearGradient>
<linearGradient id="paint9_linear_1654_26671" x1="519.001" y1="455" x2="397.001" y2="605.5" gradientUnits="userSpaceOnUse">
<stop stop-color="#1A22FF" stop-opacity="0"/>
<stop offset="1" stop-color="white"/>
</linearGradient>
<linearGradient id="paint10_linear_1654_26671" x1="642.118" y1="184.117" x2="520.118" y2="334.617" gradientUnits="userSpaceOnUse">
<stop stop-color="#D700FA" stop-opacity="0"/>
<stop offset="1" stop-color="white"/>
</linearGradient>
<linearGradient id="paint11_linear_1654_26671" x1="697.991" y1="193.992" x2="575.991" y2="344.492" gradientUnits="userSpaceOnUse">
<stop stop-color="#D700FA" stop-opacity="0"/>
<stop offset="1" stop-color="white"/>
</linearGradient>
<linearGradient id="paint12_linear_1654_26671" x1="342.24" y1="510.117" x2="220.24" y2="660.617" gradientUnits="userSpaceOnUse">
<stop stop-color="#D700FA" stop-opacity="0"/>
<stop offset="1" stop-color="white"/>
</linearGradient>
<linearGradient id="paint13_linear_1654_26671" x1="1032" y1="631" x2="910" y2="781.5" gradientUnits="userSpaceOnUse">
<stop stop-color="#1A22FF" stop-opacity="0"/>
<stop offset="1" stop-color="white"/>
</linearGradient>
<linearGradient id="paint14_linear_1654_26671" x1="729.906" y1="746.906" x2="607.906" y2="897.406" gradientUnits="userSpaceOnUse">
<stop stop-color="#1A22FF" stop-opacity="0"/>
<stop offset="1" stop-color="white"/>
</linearGradient>
<radialGradient id="paint15_radial_1654_26671" cx="0" cy="0" r="1" gradientUnits="userSpaceOnUse" gradientTransform="translate(634.5 188.187) rotate(-0.584436) scale(126.439 32.5154)">
<stop stop-color="#D700FA"/>
<stop offset="1" stop-color="#7F0094"/>
</radialGradient>
<radialGradient id="paint16_radial_1654_26671" cx="0" cy="0" r="1" gradientUnits="userSpaceOnUse" gradientTransform="translate(815.5 769.494) rotate(-0.584436) scale(126.439 32.5154)">
<stop stop-color="#1A22FF"/>
<stop offset="1" stop-color="#1A22FF" stop-opacity="0"/>
</radialGradient>
<radialGradient id="paint17_radial_1654_26671" cx="0" cy="0" r="1" gradientUnits="userSpaceOnUse" gradientTransform="translate(494.5 264.932) rotate(-0.584436) scale(126.439 32.5154)">
<stop stop-color="#D700FA"/>
<stop offset="1" stop-color="#7F0094" stop-opacity="0"/>
</radialGradient>
<radialGradient id="paint18_radial_1654_26671" cx="0" cy="0" r="1" gradientUnits="userSpaceOnUse" gradientTransform="translate(955.5 692.75) rotate(-0.584436) scale(126.439 32.5154)">
<stop stop-color="#1A22FF"/>
<stop offset="1" stop-color="#1A22FF" stop-opacity="0"/>
</radialGradient>
<radialGradient id="paint19_radial_1654_26671" cx="0" cy="0" r="1" gradientUnits="userSpaceOnUse" gradientTransform="translate(450.742 341.907) rotate(-0.584436) scale(126.439 32.5154)">
<stop stop-color="#D700FA"/>
<stop offset="1" stop-color="#7F0094" stop-opacity="0"/>
</radialGradient>
<radialGradient id="paint20_radial_1654_26671" cx="0" cy="0" r="1" gradientUnits="userSpaceOnUse" gradientTransform="translate(998.258 584.775) rotate(-0.584436) scale(126.439 32.5154)">
<stop stop-color="#1A22FF"/>
<stop offset="1" stop-color="#1A22FF" stop-opacity="0"/>
</radialGradient>
<radialGradient id="paint21_radial_1654_26671" cx="0" cy="0" r="1" gradientUnits="userSpaceOnUse" gradientTransform="translate(707 420.646) rotate(89.5382) scale(248.115 543.354)">
<stop stop-color="#010113"/>
<stop offset="1" stop-color="#00019E" stop-opacity="0"/>
</radialGradient>
</defs>
</svg>
