<svg width="286" height="80" viewBox="0 0 286 80" fill="none" xmlns="http://www.w3.org/2000/svg">
<path d="M177.477 60.4525C174.035 60.4525 171.508 59.7894 169.835 58.4631C168.414 57.3894 167.624 55.7157 167.624 53.9157H174.477C174.793 55.242 175.361 55.9999 177.572 55.9999C180.003 55.9999 181.014 54.6736 181.014 51.6736V49.021H180.887C180.035 51.1999 177.824 52.5578 175.456 52.3368C169.803 52.3368 166.929 49.1157 166.929 42.8315C166.803 40.1473 167.719 37.5578 169.487 35.5368C171.066 33.8946 173.277 32.9789 175.582 33.0104C177.793 32.7894 179.94 33.9262 180.982 35.8841H181.108V33.4525H187.866V51.042C187.866 54.2631 187.077 56.5683 185.435 58.021C183.666 59.6631 181.108 60.4525 177.477 60.4525ZM177.698 37.7789C175.487 37.7789 174.161 39.6736 174.161 42.8631C174.161 46.1789 175.361 47.9473 177.572 47.9473C179.466 47.9473 180.982 46.3999 180.982 44.5052V41.9789C180.982 39.3262 179.782 37.7789 177.698 37.7789ZM113.119 53.7894C110.687 54.0104 108.287 53.3789 106.266 52.021C104.94 50.8841 104.15 49.242 104.056 47.4736H110.372C110.498 48.7999 111.382 49.4631 113.024 49.4631C114.572 49.4631 115.55 48.8946 115.55 47.821C115.55 46.9368 114.982 46.4947 113.561 46.2736L110.34 45.8315C106.487 45.3894 104.372 43.1789 104.372 39.7368C104.34 37.9683 105.066 36.2946 106.361 35.0946C110.182 32.442 115.235 32.3157 119.182 34.7789C120.508 35.8841 121.266 37.4946 121.266 39.1999H115.045C115.014 38.0631 114.066 37.1789 112.961 37.2104H112.835C111.066 37.2104 110.719 37.9999 110.719 38.7578C110.719 39.5157 111.035 40.0841 112.614 40.3052L116.056 40.7473C117.572 40.8104 119.024 41.4104 120.161 42.3894C121.266 43.4631 121.835 44.9789 121.708 46.4946C121.993 51.042 118.55 53.821 113.119 53.7894ZM93.2241 53.6947C86.8136 53.6947 83.1505 49.9368 83.1505 43.1789C83.0557 40.4631 84.0031 37.8104 85.8031 35.7578C87.761 33.8315 90.4768 32.821 93.2241 32.9789C96.6663 32.9789 99.3189 33.9578 100.961 35.8525C102.635 37.9999 103.487 40.6525 103.393 43.3683V44.9157H90.2241C90.4452 47.7894 91.3294 49.1157 93.4452 49.1157C94.7084 49.3368 95.9399 48.5157 96.2241 47.221H103.203C102.729 51.3578 99.2873 53.6947 93.2241 53.6947ZM93.2241 37.2104C91.3294 37.2104 90.4452 38.5368 90.2241 41.1894H96.1926V40.9683C95.9715 38.442 94.9926 37.2104 93.2241 37.2104ZM220.045 53.5999C217.898 53.7262 215.814 52.9052 214.298 51.3894C212.845 49.7157 212.087 47.5368 212.182 45.2946C212.056 43.1157 212.814 40.9683 214.298 39.3262C215.845 37.842 217.898 37.0525 220.045 37.1157C224.908 37.1157 227.908 40.2104 227.908 45.2946C227.908 50.3789 224.782 53.5999 220.045 53.5999ZM220.045 40.3368C217.487 40.3368 216.95 43.1157 216.95 45.421C216.95 48.8631 218.056 50.5052 220.045 50.5052C222.035 50.5052 223.14 48.7368 223.14 45.421C223.14 42.1052 222.035 40.3368 220.045 40.3368ZM204.224 53.5999C202.077 53.7262 199.993 52.9052 198.477 51.3894C197.087 49.7157 196.361 47.5999 196.487 45.421C196.487 40.3368 199.487 37.242 204.35 37.242C208.772 37.242 211.424 39.4525 211.55 43.2104H207.035C206.94 41.8841 206.372 40.3368 204.382 40.3368C201.603 40.3368 201.287 43.5262 201.287 45.421C201.287 48.8631 202.298 50.5052 204.382 50.5052C205.898 50.5052 207.129 49.3052 207.161 47.7894C207.161 47.7578 207.161 47.7578 207.161 47.7262V47.4104H211.582C211.582 49.2104 210.824 50.8841 209.466 52.0841C207.887 53.0947 206.087 53.6315 204.224 53.5999ZM129.919 53.4736C128.214 53.6315 126.508 53.1262 125.15 52.0525C123.824 50.6631 123.129 48.7683 123.256 46.842V28.0525H130.14V33.4841H134.245V38.3473H130.266V45.5473C130.266 47.6315 130.929 48.421 132.824 48.421C133.266 48.4525 133.708 48.3894 134.15 48.2946V53.2525C132.698 53.3473 131.372 53.4736 129.919 53.4736ZM244.14 53.1578H239.498V43.9683C239.593 43.0841 239.435 42.2315 239.056 41.442C238.614 40.7789 237.856 40.4315 237.066 40.5578C235.172 40.5578 234.066 41.8841 234.066 44.0946V53.1578H229.424V37.5578H233.845V40.1157C234.761 38.2841 236.656 37.1473 238.708 37.242C241.361 37.242 242.908 38.3473 243.572 40.4631H243.666C244.55 38.442 246.572 37.1789 248.75 37.242C252.287 37.242 253.961 39.1367 253.961 42.9894V53.1578H249.319V43.9999C249.414 43.1157 249.256 42.2631 248.877 41.4736C248.435 40.8104 247.677 40.4631 246.887 40.5894C244.993 40.5894 243.887 41.9157 243.887 44.1262L244.14 53.1578ZM152.372 53.1578H145.298V33.4841H152.15V36.6736H152.277C153.508 34.3367 156.035 32.9157 158.687 33.1368C161.214 33.1368 163.014 33.7999 164.119 35.1262C165.256 36.8315 165.761 38.8525 165.54 40.8736V53.1578H158.466V41.9789C158.561 40.9999 158.372 39.9894 157.898 39.1052C157.393 38.4104 156.54 38.0315 155.687 38.1262C153.603 38.1262 152.498 39.4525 152.498 42.1052L152.372 53.1578ZM49.961 53.1578H42.8873V33.4841H49.7399V36.6736H49.8347C51.0663 34.3367 53.5926 32.9157 56.2452 33.1368C58.7715 33.1368 60.5715 33.7999 61.6768 35.1262C62.8136 36.8315 63.3189 38.8525 63.1294 40.8736V53.1578H56.0557V41.9789C56.1505 40.9999 55.961 39.9894 55.4873 39.1052C54.982 38.4104 54.1294 38.0315 53.2768 38.1262C51.161 38.1262 50.0557 39.4525 50.0557 42.1052L49.961 53.1578ZM195.066 53.1578H190.203V48.5157H195.066V53.1578ZM142.961 53.1578H135.887V33.4841H142.961V53.1578ZM77.0557 53.1578H69.761L62.782 33.4841H69.8873L72.4136 42.0104C73.0768 44.442 73.6452 46.9999 73.6452 47.0946H73.7715C74.1189 45.421 74.4347 43.7789 74.8768 42.1052L77.4347 33.5789H84.2873L77.0557 53.1578ZM40.2347 53.1578H32.9399V25.3052H40.2347V53.1578Z" fill="white"/>
<path d="M135.666 31.3686L142.961 30.0423V22.8423L135.666 24.1686V31.3686Z" fill="#FF883D"/>
</svg>
