<svg width="216" height="80" viewBox="0 0 216 80" fill="none" xmlns="http://www.w3.org/2000/svg">
<mask id="mask0_1039_8382" style="mask-type:alpha" maskUnits="userSpaceOnUse" x="6" y="25" width="203" height="30">
<path d="M54.0749 45.6424C53.8685 46.787 53.276 47.8262 52.3961 48.5869C51.5163 49.3475 50.4023 49.7836 49.2399 49.8224C48.73 49.8381 48.2235 49.7352 47.7601 49.5217C47.2968 49.3082 46.8894 48.99 46.57 48.5922C46.2507 48.1944 46.0281 47.7278 45.9198 47.2293C45.8115 46.7308 45.8205 46.2139 45.946 45.7195C46.1443 44.578 46.7292 43.5396 47.6026 42.7785C48.476 42.0173 49.5846 41.5798 50.7424 41.5394C51.2592 41.5048 51.7767 41.5946 52.2515 41.8015C52.7263 42.0083 53.1445 42.3261 53.471 42.7281C53.7975 43.1301 54.0228 43.6046 54.1278 44.1117C54.2329 44.6188 54.2148 45.1438 54.0749 45.6424ZM55.6159 37.5521L55.2692 39.2472C54.8453 38.4731 54.1971 37.8453 53.4098 37.4465C52.6225 37.0477 51.7329 36.8965 50.858 37.0127C48.4817 37.1081 46.212 38.0239 44.4349 39.6043C42.6578 41.1847 41.4832 43.3321 41.1111 45.6809C40.2635 50.3233 42.498 54.3877 47.6411 54.3877C48.6241 54.4241 49.6023 54.2347 50.5005 53.834C51.3988 53.4333 52.1933 52.8319 52.8228 52.0762L52.5146 53.8098H57.311L60.3353 37.6098H55.6159V37.5521ZM63.1284 37.5713H67.6551L67.3469 39.2664C67.8396 38.5243 68.5193 37.9251 69.3174 37.5294C70.1156 37.1337 71.0039 36.9555 71.8929 37.0127L71.0068 41.8862C68.7338 41.8862 67.1543 42.387 66.6342 44.8719L64.9776 53.7713H60.1041L63.1284 37.5713Z" fill="#363333"/>
<path d="M75.1485 31.2148L70.9685 53.7715H75.842L77.2867 45.9508H77.3637L80.4843 53.7715H85.9742L81.7364 44.6795L89.1525 37.5716H83.4315L77.826 43.4467H77.749L80.022 31.2148H75.1485Z" fill="#363333"/>
<path d="M92.0229 43.8712C92.3732 43.0437 92.9609 42.3385 93.7117 41.8448C94.4626 41.3511 95.3429 41.091 96.2415 41.0974C96.6341 41.0513 97.0321 41.0886 97.4093 41.2067C97.7866 41.3248 98.1347 41.5212 98.431 41.7829C98.7273 42.0447 98.965 42.3659 99.1288 42.7257C99.2925 43.0856 99.3786 43.4759 99.3813 43.8712H92.0229ZM96.9349 37.0137C94.52 37.1427 92.2168 38.0725 90.389 39.6561C88.5612 41.2397 87.3129 43.387 86.8413 45.759C86.5881 46.8013 86.5795 47.8881 86.8161 48.9344C87.0527 49.9806 87.5282 50.9579 88.2053 51.7899C88.8825 52.6218 89.7429 53.2858 90.7193 53.73C91.6957 54.1741 92.7616 54.3864 93.8336 54.3501C95.5645 54.337 97.2555 53.8291 98.7071 52.8862C100.374 51.8517 101.769 50.4312 102.772 48.7447H97.821C97.4229 49.2199 96.9246 49.6011 96.3617 49.8608C95.7989 50.1206 95.1855 50.2526 94.5656 50.2472C94.1446 50.2962 93.7179 50.2519 93.3159 50.1176C92.9139 49.9832 92.5463 49.762 92.2393 49.4698C91.9323 49.1775 91.6934 48.8212 91.5395 48.4263C91.3856 48.0313 91.3205 47.6073 91.3487 47.1844H103.504C103.667 46.7752 103.784 46.3487 103.85 45.9131C104.775 40.8662 101.885 37.0137 96.9349 37.0137Z" fill="#363333"/>
<path d="M34.658 31.2148L26.1054 44.0631H26.0283V31.2148H21.8868L6.72705 53.7715H12.6022L21.1163 40.9233H21.1934V53.7715H25.3734L33.8875 40.9233H33.9646V53.7715H38.8381V31.2148H34.658ZM116.159 37.5716H113.096L113.982 32.7751H109.725L109.378 34.7014C109.277 35.5423 108.861 36.3136 108.214 36.8604C107.568 37.4071 106.738 37.6887 105.892 37.6486L105.16 41.2315H107.568L105.237 53.7715H110.072L112.402 41.2315H115.504L116.159 37.5716Z" fill="#363333"/>
<path d="M195.752 31.2339H200.587L199.123 39.2665C199.624 38.5093 200.319 37.9007 201.135 37.5042C201.952 37.1077 202.86 36.938 203.765 37.0127C204.543 36.9703 205.32 37.1122 206.033 37.4268C206.746 37.7415 207.375 38.22 207.868 38.8234C208.908 40.403 208.793 41.8477 208.253 44.7371L206.597 53.7906H201.762L203.38 44.9682C203.534 44.1977 203.996 41.5587 201.453 41.5587C200.598 41.5661 199.776 41.8951 199.151 42.4803C198.527 43.0656 198.145 43.8643 198.082 44.7178L196.407 53.7713H191.649L195.752 31.2339ZM175.372 37.5713H172.386L173.214 32.7749H168.957L168.533 34.6241C168.432 35.465 168.016 36.2364 167.369 36.7831C166.723 37.3299 165.893 37.6115 165.047 37.5713L164.392 41.2313H166.781L164.469 53.7713H169.304L171.615 41.2313H174.717L175.372 37.5713ZM152.045 49.8225C153.224 49.8055 154.36 49.3794 155.26 48.6168C156.159 47.8543 156.766 46.8029 156.976 45.6424C157.116 45.1438 157.134 44.6189 157.029 44.1117C156.924 43.6046 156.698 43.1301 156.372 42.7281C156.045 42.3261 155.627 42.0083 155.152 41.8015C154.678 41.5947 154.16 41.5048 153.643 41.5395C152.486 41.5799 151.377 42.0174 150.503 42.7785C149.63 43.5396 149.045 44.5781 148.847 45.7195C148.721 46.2139 148.712 46.7308 148.821 47.2293C148.929 47.7278 149.152 48.1944 149.471 48.5922C149.79 48.99 150.198 49.3082 150.661 49.5217C151.124 49.7352 151.631 49.8381 152.141 49.8225M160.308 53.675H155.415L155.724 51.9414C155.096 52.7253 154.293 53.3514 153.38 53.7695C152.467 54.1876 151.469 54.3862 150.465 54.3492C145.322 54.3492 143.068 50.2848 143.935 45.6424C144.314 43.3037 145.49 41.1678 147.262 39.5954C149.034 38.0231 151.295 37.1108 153.663 37.0127C154.529 36.9162 155.405 37.0811 156.177 37.4861C156.95 37.8911 157.583 38.5179 157.997 39.2857L158.343 37.5906H163.14L160.308 53.675ZM151.004 25.4551L141.566 31.2339H144.243L135.69 44.0629V31.2339H131.433L122.881 44.0629V31.2339H117.93V53.7713H122.149L130.701 40.8653V53.7713H134.881L150.08 31.2339H152.468L151.004 25.4551ZM191.186 47.6265C190.374 49.5613 189.024 51.2229 187.297 52.4143C185.569 53.6057 183.537 54.2772 181.439 54.3492C180.341 54.4101 179.243 54.2101 178.237 53.7657C177.23 53.3213 176.343 52.6449 175.648 51.792C174.953 50.9391 174.47 49.9338 174.238 48.8583C174.005 47.7828 174.031 46.6676 174.312 45.6039C174.792 43.2249 176.065 41.0792 177.923 39.5183C179.781 37.9575 182.115 37.074 184.541 37.0127C185.475 36.9523 186.411 37.0836 187.292 37.3986C188.173 37.7136 188.981 38.2057 189.665 38.8445C190.349 39.4832 190.895 40.2553 191.269 41.113C191.643 41.9707 191.838 42.8959 191.841 43.8317H186.929C186.789 43.1327 186.394 42.5109 185.821 42.0871C185.248 41.6634 184.537 41.4682 183.828 41.5395C182.696 41.5575 181.608 41.9818 180.763 42.735C179.918 43.4882 179.372 44.5201 179.224 45.6424C179.061 46.1249 179.018 46.6397 179.099 47.1426C179.179 47.6454 179.381 48.1211 179.686 48.5287C179.991 48.9363 180.391 49.2635 180.851 49.4822C181.311 49.7009 181.817 49.8044 182.326 49.7839C183.097 49.7742 183.853 49.5717 184.526 49.1949C185.199 48.8181 185.767 48.2789 186.178 47.6265H191.129H191.186Z" fill="#4DB84D"/>
</mask>
<g mask="url(#mask0_1039_8382)">
<rect x="-23.469" y="14.1543" width="262.929" height="51.2374" fill="white"/>
</g>
</svg>
