<svg width="941" height="493" viewBox="0 0 941 493" fill="none" xmlns="http://www.w3.org/2000/svg">
<g clip-path="url(#clip0_1021_5874)">
<path d="M20 423V424H21H74.5463H75.5463V423V299.232H147.328C174.939 299.232 197.935 294.186 216.261 284.03L216.263 284.029C234.675 273.775 248.452 259.889 257.56 242.374C266.769 224.772 271.363 204.972 271.363 182.995C271.363 161.134 266.827 141.45 257.734 123.963C248.628 106.334 234.908 92.4461 216.608 82.3055C198.281 72.1498 175.227 67.1041 147.501 67.1041H21H20V68.1041V423ZM142.476 251.83H75.5463V115.026H141.782C159.475 115.026 173.618 117.957 184.281 123.742L184.285 123.744C195.09 129.545 202.963 137.542 207.947 147.736C212.953 157.977 215.47 169.722 215.47 182.995C215.47 196.267 212.953 208.072 207.945 218.43C202.957 228.746 195.136 236.916 184.444 242.946C173.781 248.844 159.814 251.83 142.476 251.83ZM312.617 423V424H313.617H367.164H368.164V423V289.701H439.945C440.903 289.701 441.854 289.695 442.801 289.684L514.618 423.473L514.901 424H515.499H576.497H578.185L577.374 422.52L499.379 280.095C502.661 278.824 505.816 277.428 508.844 275.904C527.259 266.696 541.048 253.795 550.166 237.198C559.386 220.508 563.98 201.218 563.98 179.356C563.98 157.382 559.445 137.979 550.344 121.177C541.231 104.235 527.446 90.9851 509.03 81.4274C490.709 71.8584 467.722 67.1041 440.118 67.1041H313.617H312.617V68.1041V423ZM435.093 241.606H368.164V115.026H434.4C451.988 115.026 466.088 117.672 476.763 122.895L476.774 122.901C487.572 128.015 495.429 135.378 500.401 144.984L500.406 144.992C505.514 154.641 508.087 166.084 508.087 179.356C508.087 192.514 505.57 203.723 500.582 213.021C495.615 222.277 487.763 229.355 476.963 234.244L476.96 234.245C466.276 239.132 452.338 241.606 435.093 241.606ZM896.995 343.742V343.74C910.945 316.306 917.899 283.565 917.899 245.552C917.899 207.539 910.945 174.855 896.995 147.535C883.055 120.121 863.928 99.0658 839.611 84.405C815.412 69.6299 787.907 62.252 757.126 62.252C726.23 62.252 698.611 69.6296 674.296 84.4043C650.093 99.0655 631.024 120.121 617.085 147.535C603.134 174.855 596.181 207.539 596.181 245.552C596.181 283.45 603.134 316.133 617.084 343.567C631.023 370.981 650.092 392.094 674.293 406.871L674.298 406.874C698.612 421.532 726.231 428.852 757.126 428.852C787.906 428.852 815.411 421.532 839.61 406.873L839.611 406.872C863.927 392.096 883.054 371.042 896.995 343.742ZM848.929 173.019L848.932 173.025C858.209 192.611 862.872 216.773 862.872 245.552C862.872 274.331 858.209 298.552 848.931 318.254L848.93 318.256C839.757 337.863 827.168 352.724 811.177 362.891C795.29 372.948 777.283 377.984 757.126 377.984C736.854 377.984 718.791 372.948 702.906 362.892C687.029 352.727 674.438 337.865 665.149 318.256C655.985 298.553 651.38 274.331 651.38 245.552C651.38 216.773 655.985 192.61 665.148 173.023C674.438 153.297 687.028 138.437 702.902 128.387L702.906 128.384C718.792 118.213 736.855 113.119 757.126 113.119C777.281 113.119 795.287 118.212 811.173 128.384L811.18 128.389C827.168 138.438 839.756 153.297 848.929 173.019Z" fill="white" fill-opacity="0.2"/>
<path d="M20 423V424H21H74.5463H75.5463V423V299.232H147.328C174.939 299.232 197.935 294.186 216.261 284.03L216.263 284.029C234.675 273.775 248.452 259.889 257.56 242.374C266.769 224.772 271.363 204.972 271.363 182.995C271.363 161.134 266.827 141.45 257.734 123.963C248.628 106.334 234.908 92.4461 216.608 82.3055C198.281 72.1498 175.227 67.1041 147.501 67.1041H21H20V68.1041V423ZM142.476 251.83H75.5463V115.026H141.782C159.475 115.026 173.618 117.957 184.281 123.742L184.285 123.744C195.09 129.545 202.963 137.542 207.947 147.736C212.953 157.977 215.47 169.722 215.47 182.995C215.47 196.267 212.953 208.072 207.945 218.43C202.957 228.746 195.136 236.916 184.444 242.946C173.781 248.844 159.814 251.83 142.476 251.83ZM312.617 423V424H313.617H367.164H368.164V423V289.701H439.945C440.903 289.701 441.854 289.695 442.801 289.684L514.618 423.473L514.901 424H515.499H576.497H578.185L577.374 422.52L499.379 280.095C502.661 278.824 505.816 277.428 508.844 275.904C527.259 266.696 541.048 253.795 550.166 237.198C559.386 220.508 563.98 201.218 563.98 179.356C563.98 157.382 559.445 137.979 550.344 121.177C541.231 104.235 527.446 90.9851 509.03 81.4274C490.709 71.8584 467.722 67.1041 440.118 67.1041H313.617H312.617V68.1041V423ZM435.093 241.606H368.164V115.026H434.4C451.988 115.026 466.088 117.672 476.763 122.895L476.774 122.901C487.572 128.015 495.429 135.378 500.401 144.984L500.406 144.992C505.514 154.641 508.087 166.084 508.087 179.356C508.087 192.514 505.57 203.723 500.582 213.021C495.615 222.277 487.763 229.355 476.963 234.244L476.96 234.245C466.276 239.132 452.338 241.606 435.093 241.606ZM896.995 343.742V343.74C910.945 316.306 917.899 283.565 917.899 245.552C917.899 207.539 910.945 174.855 896.995 147.535C883.055 120.121 863.928 99.0658 839.611 84.405C815.412 69.6299 787.907 62.252 757.126 62.252C726.23 62.252 698.611 69.6296 674.296 84.4043C650.093 99.0655 631.024 120.121 617.085 147.535C603.134 174.855 596.181 207.539 596.181 245.552C596.181 283.45 603.134 316.133 617.084 343.567C631.023 370.981 650.092 392.094 674.293 406.871L674.298 406.874C698.612 421.532 726.231 428.852 757.126 428.852C787.906 428.852 815.411 421.532 839.61 406.873L839.611 406.872C863.927 392.096 883.054 371.042 896.995 343.742ZM848.929 173.019L848.932 173.025C858.209 192.611 862.872 216.773 862.872 245.552C862.872 274.331 858.209 298.552 848.931 318.254L848.93 318.256C839.757 337.863 827.168 352.724 811.177 362.891C795.29 372.948 777.283 377.984 757.126 377.984C736.854 377.984 718.791 372.948 702.906 362.892C687.029 352.727 674.438 337.865 665.149 318.256C655.985 298.553 651.38 274.331 651.38 245.552C651.38 216.773 655.985 192.61 665.148 173.023C674.438 153.297 687.028 138.437 702.902 128.387L702.906 128.384C718.792 118.213 736.855 113.119 757.126 113.119C777.281 113.119 795.287 118.212 811.173 128.384L811.18 128.389C827.168 138.438 839.756 153.297 848.929 173.019Z" fill="#585858" fill-opacity="0.18"/>
<path fill-rule="evenodd" clip-rule="evenodd" d="M20 424V423V68.1041V67.1041H21H147.501C175.227 67.1041 198.281 72.1498 216.608 82.3055C234.908 92.4461 248.628 106.334 257.734 123.963C266.827 141.45 271.363 161.134 271.363 182.995C271.363 204.972 266.769 224.772 257.56 242.374C248.452 259.889 234.675 273.775 216.263 284.029L216.261 284.03C197.935 294.186 174.939 299.232 147.328 299.232H75.5463V423V424H74.5463H21H20ZM75.5463 251.83H142.476C159.814 251.83 173.781 248.844 184.444 242.946C195.136 236.916 202.957 228.746 207.945 218.43C212.953 208.072 215.47 196.267 215.47 182.995C215.47 169.722 212.953 157.977 207.947 147.736C202.963 137.542 195.09 129.545 184.285 123.744L184.281 123.742C173.618 117.957 159.475 115.026 141.782 115.026H75.5463V251.83ZM312.617 424V423V68.1041V67.1041H313.617H440.118C467.722 67.1041 490.709 71.8584 509.03 81.4274C527.446 90.9851 541.231 104.235 550.344 121.177C559.445 137.979 563.98 157.382 563.98 179.356C563.98 201.218 559.386 220.508 550.166 237.198C541.048 253.795 527.259 266.696 508.844 275.904C505.816 277.428 502.661 278.824 499.379 280.095L577.374 422.52L578.185 424H576.497H515.499H514.901L514.618 423.473L442.801 289.684C441.854 289.695 440.903 289.701 439.945 289.701H368.164V423V424H367.164H313.617H312.617ZM368.164 241.606H435.093C452.338 241.606 466.276 239.132 476.96 234.245L476.963 234.244C487.763 229.355 495.615 222.277 500.582 213.021C505.57 203.723 508.087 192.514 508.087 179.356C508.087 166.084 505.514 154.641 500.406 144.992L500.401 144.984C495.429 135.378 487.572 128.015 476.774 122.901L476.763 122.895C466.088 117.672 451.988 115.026 434.4 115.026H368.164V241.606ZM896.995 343.74V343.742C883.054 371.042 863.927 392.096 839.611 406.872L839.61 406.873C815.411 421.532 787.906 428.852 757.126 428.852C726.231 428.852 698.612 421.532 674.298 406.874L674.293 406.871C650.092 392.094 631.023 370.981 617.084 343.567C603.134 316.133 596.181 283.45 596.181 245.552C596.181 207.539 603.134 174.855 617.085 147.535C631.024 120.121 650.093 99.0655 674.296 84.4043C698.611 69.6296 726.23 62.252 757.126 62.252C787.907 62.252 815.412 69.6299 839.611 84.405C863.928 99.0658 883.055 120.121 896.995 147.535C910.945 174.855 917.899 207.539 917.899 245.552C917.899 283.565 910.945 316.306 896.995 343.74ZM848.932 173.025L848.929 173.019C839.756 153.297 827.168 138.438 811.18 128.389L811.173 128.384C795.287 118.212 777.281 113.119 757.126 113.119C736.886 113.119 718.848 118.197 702.98 128.337C702.955 128.353 702.931 128.368 702.906 128.384L702.902 128.387C687.028 138.437 674.438 153.297 665.148 173.023C655.985 192.61 651.38 216.773 651.38 245.552C651.38 274.331 655.985 298.553 665.149 318.256C674.438 337.865 687.029 352.727 702.906 362.892C718.791 372.948 736.854 377.984 757.126 377.984C777.283 377.984 795.29 372.948 811.177 362.891C827.168 352.724 839.757 337.863 848.93 318.256L848.931 318.254C849.004 318.099 849.076 317.944 849.149 317.789C850.227 315.473 851.242 313.094 852.194 310.654C859.302 292.426 862.872 270.734 862.872 245.552C862.872 216.773 858.209 192.611 848.932 173.025Z" fill="url(#paint0_radial_1021_5874)"/>
<path d="M20 423V424H21H74.5463H75.5463V423V299.232H147.328C174.939 299.232 197.935 294.186 216.261 284.03L216.263 284.029C234.675 273.775 248.452 259.889 257.56 242.374C266.769 224.772 271.363 204.972 271.363 182.995C271.363 161.134 266.827 141.45 257.734 123.963C248.628 106.334 234.908 92.4461 216.608 82.3055C198.281 72.1498 175.227 67.1041 147.501 67.1041H21H20V68.1041V423ZM142.476 251.83H75.5463V115.026H141.782C159.475 115.026 173.618 117.957 184.281 123.742L184.285 123.744C195.09 129.545 202.963 137.542 207.947 147.736C212.953 157.977 215.47 169.722 215.47 182.995C215.47 196.267 212.953 208.072 207.945 218.43C202.957 228.746 195.136 236.916 184.444 242.946C173.781 248.844 159.814 251.83 142.476 251.83ZM312.617 423V424H313.617H367.164H368.164V423V289.701H439.945C440.903 289.701 441.854 289.695 442.801 289.684L514.618 423.473L514.901 424H515.499H576.497H578.185L577.374 422.52L499.379 280.095C502.661 278.824 505.816 277.428 508.844 275.904C527.259 266.696 541.048 253.795 550.166 237.198C559.386 220.508 563.98 201.218 563.98 179.356C563.98 157.382 559.445 137.979 550.344 121.177C541.231 104.235 527.446 90.9851 509.03 81.4274C490.709 71.8584 467.722 67.1041 440.118 67.1041H313.617H312.617V68.1041V423ZM435.093 241.606H368.164V115.026H434.4C451.988 115.026 466.088 117.672 476.763 122.895L476.774 122.901C487.572 128.015 495.429 135.378 500.401 144.984L500.406 144.992C505.514 154.641 508.087 166.084 508.087 179.356C508.087 192.514 505.57 203.723 500.582 213.021C495.615 222.277 487.763 229.355 476.963 234.244L476.96 234.245C466.276 239.132 452.338 241.606 435.093 241.606ZM896.995 343.742V343.74C910.945 316.306 917.899 283.565 917.899 245.552C917.899 207.539 910.945 174.855 896.995 147.535C883.055 120.121 863.928 99.0658 839.611 84.405C815.412 69.6299 787.907 62.252 757.126 62.252C726.23 62.252 698.611 69.6296 674.296 84.4043C650.093 99.0655 631.024 120.121 617.085 147.535C603.134 174.855 596.181 207.539 596.181 245.552C596.181 283.45 603.134 316.133 617.084 343.567C631.023 370.981 650.092 392.094 674.293 406.871L674.298 406.874C698.612 421.532 726.231 428.852 757.126 428.852C787.906 428.852 815.411 421.532 839.61 406.873L839.611 406.872C863.927 392.096 883.054 371.042 896.995 343.742ZM848.929 173.019L848.932 173.025C858.209 192.611 862.872 216.773 862.872 245.552C862.872 274.331 858.209 298.552 848.931 318.254L848.93 318.256C839.757 337.863 827.168 352.724 811.177 362.891C795.29 372.948 777.283 377.984 757.126 377.984C736.854 377.984 718.791 372.948 702.906 362.892C687.029 352.727 674.438 337.865 665.149 318.256C655.985 298.553 651.38 274.331 651.38 245.552C651.38 216.773 655.985 192.61 665.148 173.023C674.438 153.297 687.028 138.437 702.902 128.387L702.906 128.384C718.792 118.213 736.855 113.119 757.126 113.119C777.281 113.119 795.287 118.212 811.173 128.384L811.18 128.389C827.168 138.438 839.756 153.297 848.929 173.019Z" fill="url(#paint1_linear_1021_5874)"/>
<path d="M702.367 127.542C718.425 117.26 736.678 112.119 757.126 112.119C777.459 112.119 795.654 117.26 811.712 127.542C827.886 137.708 840.594 152.727 849.836 172.597C859.193 192.352 863.872 216.67 863.872 245.552C863.872 274.433 859.193 298.809 849.836 318.68M20 423V424H21H74.5463H75.5463V423V299.232H147.328C174.939 299.232 197.935 294.186 216.261 284.03L216.263 284.029C234.675 273.775 248.452 259.889 257.56 242.374C266.769 224.772 271.363 204.972 271.363 182.995C271.363 161.134 266.827 141.45 257.734 123.963C248.628 106.334 234.908 92.4461 216.608 82.3055C198.281 72.1498 175.227 67.1041 147.501 67.1041H21H20V68.1041V423ZM142.476 251.83H75.5463V115.026H141.782C159.475 115.026 173.618 117.957 184.281 123.742L184.285 123.744C195.09 129.545 202.963 137.542 207.947 147.736C212.953 157.977 215.47 169.722 215.47 182.995C215.47 196.267 212.953 208.072 207.945 218.43C202.957 228.746 195.136 236.916 184.444 242.946C173.781 248.844 159.814 251.83 142.476 251.83ZM312.617 423V424H313.617H367.164H368.164V423V289.701H439.945C440.903 289.701 441.854 289.695 442.801 289.684L514.618 423.473L514.901 424H515.499H576.497H578.185L577.374 422.52L499.379 280.095C502.661 278.824 505.816 277.428 508.844 275.904C527.259 266.696 541.048 253.795 550.166 237.198C559.386 220.508 563.98 201.218 563.98 179.356C563.98 157.382 559.445 137.979 550.344 121.177C541.231 104.235 527.446 90.9851 509.03 81.4274C490.709 71.8584 467.722 67.1041 440.118 67.1041H313.617H312.617V68.1041V423ZM435.093 241.606H368.164V115.026H434.4C451.988 115.026 466.088 117.672 476.763 122.895L476.774 122.901C487.572 128.015 495.429 135.378 500.401 144.984L500.406 144.992C505.514 154.641 508.087 166.084 508.087 179.356C508.087 192.514 505.57 203.723 500.582 213.021C495.615 222.277 487.763 229.355 476.963 234.244L476.96 234.245C466.276 239.132 452.338 241.606 435.093 241.606ZM896.995 343.742V343.74C910.945 316.306 917.899 283.565 917.899 245.552C917.899 207.539 910.945 174.855 896.995 147.535C883.055 120.121 863.928 99.0658 839.611 84.405C815.412 69.6299 787.907 62.252 757.126 62.252C726.23 62.252 698.611 69.6296 674.296 84.4043C650.093 99.0655 631.024 120.121 617.085 147.535C603.134 174.855 596.181 207.539 596.181 245.552C596.181 283.45 603.134 316.133 617.084 343.567C631.023 370.981 650.092 392.094 674.293 406.871L674.298 406.874C698.612 421.532 726.231 428.852 757.126 428.852C787.906 428.852 815.411 421.532 839.61 406.873L839.611 406.872C863.927 392.096 883.054 371.042 896.995 343.742ZM848.929 173.019L848.932 173.025C858.209 192.611 862.872 216.773 862.872 245.552C862.872 274.331 858.209 298.552 848.931 318.254L848.93 318.256C839.757 337.863 827.168 352.724 811.177 362.891C795.29 372.948 777.283 377.984 757.126 377.984C736.854 377.984 718.791 372.948 702.906 362.892C687.029 352.727 674.438 337.865 665.149 318.256C655.985 298.553 651.38 274.331 651.38 245.552C651.38 216.773 655.985 192.61 665.148 173.023C674.438 153.297 687.028 138.437 702.902 128.387L702.906 128.384C718.792 118.213 736.855 113.119 757.126 113.119C777.281 113.119 795.287 118.212 811.173 128.384L811.18 128.389C827.168 138.438 839.756 153.297 848.929 173.019Z" stroke="url(#paint2_linear_1021_5874)" stroke-width="2"/>
<path d="M702.367 127.542C718.425 117.26 736.678 112.119 757.126 112.119C777.459 112.119 795.654 117.26 811.712 127.542C827.886 137.708 840.594 152.727 849.836 172.597C859.193 192.352 863.872 216.67 863.872 245.552C863.872 274.433 859.193 298.809 849.836 318.68M20 423V424H21H74.5463H75.5463V423V299.232H147.328C174.939 299.232 197.935 294.186 216.261 284.03L216.263 284.029C234.675 273.775 248.452 259.889 257.56 242.374C266.769 224.772 271.363 204.972 271.363 182.995C271.363 161.134 266.827 141.45 257.734 123.963C248.628 106.334 234.908 92.4461 216.608 82.3055C198.281 72.1498 175.227 67.1041 147.501 67.1041H21H20V68.1041V423ZM142.476 251.83H75.5463V115.026H141.782C159.475 115.026 173.618 117.957 184.281 123.742L184.285 123.744C195.09 129.545 202.963 137.542 207.947 147.736C212.953 157.977 215.47 169.722 215.47 182.995C215.47 196.267 212.953 208.072 207.945 218.43C202.957 228.746 195.136 236.916 184.444 242.946C173.781 248.844 159.814 251.83 142.476 251.83ZM312.617 423V424H313.617H367.164H368.164V423V289.701H439.945C440.903 289.701 441.854 289.695 442.801 289.684L514.618 423.473L514.901 424H515.499H576.497H578.185L577.374 422.52L499.379 280.095C502.661 278.824 505.816 277.428 508.844 275.904C527.259 266.696 541.048 253.795 550.166 237.198C559.386 220.508 563.98 201.218 563.98 179.356C563.98 157.382 559.445 137.979 550.344 121.177C541.231 104.235 527.446 90.9851 509.03 81.4274C490.709 71.8584 467.722 67.1041 440.118 67.1041H313.617H312.617V68.1041V423ZM435.093 241.606H368.164V115.026H434.4C451.988 115.026 466.088 117.672 476.763 122.895L476.774 122.901C487.572 128.015 495.429 135.378 500.401 144.984L500.406 144.992C505.514 154.641 508.087 166.084 508.087 179.356C508.087 192.514 505.57 203.723 500.582 213.021C495.615 222.277 487.763 229.355 476.963 234.244L476.96 234.245C466.276 239.132 452.338 241.606 435.093 241.606ZM896.995 343.742V343.74C910.945 316.306 917.899 283.565 917.899 245.552C917.899 207.539 910.945 174.855 896.995 147.535C883.055 120.121 863.928 99.0658 839.611 84.405C815.412 69.6299 787.907 62.252 757.126 62.252C726.23 62.252 698.611 69.6296 674.296 84.4043C650.093 99.0655 631.024 120.121 617.085 147.535C603.134 174.855 596.181 207.539 596.181 245.552C596.181 283.45 603.134 316.133 617.084 343.567C631.023 370.981 650.092 392.094 674.293 406.871L674.298 406.874C698.612 421.532 726.231 428.852 757.126 428.852C787.906 428.852 815.411 421.532 839.61 406.873L839.611 406.872C863.927 392.096 883.054 371.042 896.995 343.742ZM848.929 173.019L848.932 173.025C858.209 192.611 862.872 216.773 862.872 245.552C862.872 274.331 858.209 298.552 848.931 318.254L848.93 318.256C839.757 337.863 827.168 352.724 811.177 362.891C795.29 372.948 777.283 377.984 757.126 377.984C736.854 377.984 718.791 372.948 702.906 362.892C687.029 352.727 674.438 337.865 665.149 318.256C655.985 298.553 651.38 274.331 651.38 245.552C651.38 216.773 655.985 192.61 665.148 173.023C674.438 153.297 687.028 138.437 702.902 128.387L702.906 128.384C718.792 118.213 736.855 113.119 757.126 113.119C777.281 113.119 795.287 118.212 811.173 128.384L811.18 128.389C827.168 138.438 839.756 153.297 848.929 173.019Z" stroke="url(#paint3_linear_1021_5874)" stroke-width="2"/>
</g>
<g filter="url(#filter0_f_1021_5874)">
<rect x="10.5" y="10" width="920" height="473" fill="url(#paint4_linear_1021_5874)"/>
</g>
<defs>
<filter id="filter0_f_1021_5874" x="0.5" y="0" width="940" height="493" filterUnits="userSpaceOnUse" color-interpolation-filters="sRGB">
<feFlood flood-opacity="0" result="BackgroundImageFix"/>
<feBlend mode="normal" in="SourceGraphic" in2="BackgroundImageFix" result="shape"/>
<feGaussianBlur stdDeviation="5" result="effect1_foregroundBlur_1021_5874"/>
</filter>
<radialGradient id="paint0_radial_1021_5874" cx="0" cy="0" r="1" gradientUnits="userSpaceOnUse" gradientTransform="translate(-18.1609 -34.4999) rotate(37.4387) scale(606.42 3309.02)">
<stop offset="0.0346697" stop-color="white"/>
<stop offset="0.505" stop-color="#ACACAC" stop-opacity="0.26"/>
<stop offset="1" stop-color="#A4A4A4" stop-opacity="0"/>
</radialGradient>
<linearGradient id="paint1_linear_1021_5874" x1="1.2656" y1="87" x2="691.744" y2="668.075" gradientUnits="userSpaceOnUse">
<stop stop-color="#0F0F0F"/>
<stop offset="0.207365" stop-color="#B9B9B9"/>
<stop offset="0.488263" stop-color="white"/>
<stop offset="0.672236" stop-color="#C5C5C5"/>
<stop offset="1" stop-color="#0F0F0F"/>
</linearGradient>
<linearGradient id="paint2_linear_1021_5874" x1="75.3391" y1="24.5" x2="290.339" y2="323" gradientUnits="userSpaceOnUse">
<stop stop-color="white"/>
<stop offset="1" stop-color="white" stop-opacity="0"/>
</linearGradient>
<linearGradient id="paint3_linear_1021_5874" x1="890.839" y1="51.0001" x2="437.339" y2="275.5" gradientUnits="userSpaceOnUse">
<stop stop-color="white"/>
<stop offset="1" stop-color="white" stop-opacity="0"/>
</linearGradient>
<linearGradient id="paint4_linear_1021_5874" x1="470.5" y1="483" x2="470.5" y2="10" gradientUnits="userSpaceOnUse">
<stop stop-color="#0F0F0F"/>
<stop offset="0.141679" stop-color="#0F0F0F"/>
<stop offset="0.43426" stop-color="#0F0F0F" stop-opacity="0.89"/>
<stop offset="1" stop-color="#0F0F0F" stop-opacity="0"/>
</linearGradient>
<clipPath id="clip0_1021_5874">
<rect width="900" height="369" fill="white" transform="translate(19 61)"/>
</clipPath>
</defs>
</svg>
