<?xml version="1.0" standalone="no"?>
<!DOCTYPE svg PUBLIC "-//W3C//DTD SVG 20010904//EN"
 "http://www.w3.org/TR/2001/REC-SVG-20010904/DTD/svg10.dtd">
<svg version="1.0" xmlns="http://www.w3.org/2000/svg"
 width="512.000000pt" height="512.000000pt" viewBox="0 0 512.000000 512.000000"
 preserveAspectRatio="xMidYMid meet">
<metadata>
Created by potrace 1.14, written by Peter Selinger 2001-2017
</metadata>
<g transform="translate(0.000000,512.000000) scale(0.100000,-0.100000)"
fill="#000000" stroke="none">
<path d="M2350 5110 c0 -3 -19 -5 -42 -4 -24 1 -47 -1 -53 -4 -5 -3 -23 -7
-40 -9 -16 -2 -41 -5 -55 -6 -14 -2 -31 -7 -38 -11 -7 -4 -12 -2 -12 6 0 8 -3
9 -8 3 -4 -6 -23 -12 -42 -14 -19 -1 -41 -8 -47 -13 -7 -6 -13 -8 -13 -5 0 3
-20 -1 -44 -8 -24 -8 -47 -11 -50 -8 -3 4 -6 1 -6 -4 0 -6 -8 -10 -17 -9 -9 2
-45 -7 -79 -20 -34 -12 -65 -20 -68 -16 -3 3 -6 0 -6 -7 0 -7 -8 -11 -17 -10
-10 2 -32 -4 -49 -14 -17 -9 -34 -13 -38 -10 -3 4 -6 0 -6 -7 0 -7 -3 -10 -7
-7 -3 4 -12 2 -20 -5 -8 -6 -24 -13 -37 -14 -12 -1 -46 -16 -74 -33 -29 -17
-59 -31 -67 -31 -8 0 -15 -4 -15 -10 0 -5 -3 -9 -7 -8 -13 3 -87 -36 -96 -49
-4 -7 -14 -13 -21 -13 -8 0 -19 -7 -26 -15 -7 -8 -16 -12 -21 -9 -5 3 -12 -2
-15 -10 -3 -9 -12 -16 -20 -16 -8 0 -14 -4 -14 -9 0 -6 -10 -8 -21 -6 -12 3
-19 2 -16 -2 7 -7 -44 -49 -55 -46 -4 2 -12 -6 -18 -17 -6 -11 -15 -18 -19
-15 -5 3 -12 -2 -15 -11 -3 -8 -10 -12 -16 -9 -5 3 -10 -1 -10 -9 0 -9 -6 -16
-12 -16 -7 0 -31 -16 -52 -35 -22 -19 -44 -35 -48 -35 -5 0 -6 -4 -3 -10 3 -5
-1 -10 -9 -10 -9 0 -16 -3 -16 -7 0 -5 -13 -17 -29 -28 -16 -10 -27 -23 -25
-27 3 -4 1 -8 -4 -8 -13 0 -62 -47 -62 -60 0 -5 -7 -10 -15 -10 -8 0 -15 -7
-15 -16 0 -8 -3 -13 -7 -11 -5 3 -14 -1 -21 -9 -7 -8 -9 -14 -5 -14 4 0 -7
-12 -25 -26 -17 -15 -29 -30 -27 -35 3 -4 -4 -10 -15 -14 -11 -4 -18 -11 -15
-16 4 -5 -1 -9 -10 -9 -9 0 -14 -4 -11 -9 3 -4 -4 -17 -15 -27 -29 -26 -79
-100 -74 -108 3 -3 2 -4 -1 -1 -8 5 -34 -20 -34 -33 0 -8 -9 -21 -49 -68 -5
-7 -7 -15 -4 -18 4 -3 1 -6 -5 -6 -7 0 -12 -6 -12 -13 0 -7 -9 -23 -20 -35
-12 -12 -18 -22 -14 -22 4 0 0 -8 -9 -18 -10 -10 -14 -22 -10 -25 3 -4 1 -7
-6 -7 -7 0 -9 -4 -6 -10 3 -5 2 -10 -4 -10 -6 0 -13 -11 -17 -25 -4 -15 -11
-22 -18 -18 -6 3 -8 3 -4 -1 3 -4 -2 -26 -12 -49 -10 -23 -16 -46 -13 -52 4
-5 2 -6 -2 -2 -10 9 -67 -111 -59 -124 3 -5 1 -9 -5 -9 -8 0 -20 -23 -27 -52
-1 -5 -3 -10 -4 -13 -1 -3 -4 -9 -5 -15 -1 -5 -4 -12 -5 -15 -3 -6 -5 -12 -15
-42 -4 -13 -12 -20 -19 -16 -8 5 -8 3 0 -8 11 -14 -6 -86 -18 -74 -3 3 -4 -6
-3 -20 2 -14 -1 -27 -5 -30 -5 -3 -7 -14 -5 -25 2 -11 0 -20 -4 -20 -4 0 -8
-6 -8 -12 -1 -23 -8 -43 -18 -50 -6 -5 -5 -8 3 -8 9 0 10 -5 3 -17 -5 -10 -10
-31 -12 -48 -2 -16 -8 -36 -14 -44 -8 -12 -7 -13 5 -6 12 6 13 5 3 -6 -7 -7
-13 -35 -13 -62 0 -26 -3 -46 -8 -43 -4 2 -6 -13 -5 -35 1 -28 -1 -38 -10 -32
-9 5 -9 3 0 -8 10 -12 10 -18 1 -27 -9 -9 -9 -12 1 -12 10 0 11 -3 2 -13 -6
-8 -8 -17 -4 -21 9 -9 11 -46 2 -41 -9 6 -8 -296 2 -316 4 -8 4 -21 -1 -29 -5
-8 -6 -19 -2 -25 3 -5 7 -21 7 -35 1 -14 7 -36 15 -50 12 -23 12 -24 -4 -11
-15 13 -16 12 -7 -13 6 -14 7 -26 3 -26 -4 0 -2 -4 5 -8 6 -4 491 -7 1077 -7
712 0 1067 -3 1069 -10 2 -5 3 -311 3 -679 -1 -629 -2 -669 -18 -672 -10 -1
-20 2 -24 7 -3 5 -15 9 -28 9 -12 0 -28 6 -35 13 -11 10 -12 9 -6 -3 7 -12 6
-13 -7 -3 -8 7 -18 10 -21 6 -4 -3 -7 0 -7 8 0 11 -2 11 -10 -1 -7 -11 -10
-11 -10 -2 0 7 -5 10 -10 7 -6 -3 -10 -1 -10 5 0 6 -4 8 -10 5 -5 -3 -10 -1
-10 4 0 6 -3 10 -7 9 -12 -2 -64 14 -92 28 -13 7 -28 11 -33 8 -4 -3 -8 -1 -8
4 0 10 -80 49 -92 45 -5 -2 -8 1 -8 6 0 5 -21 18 -47 30 -27 12 -64 33 -83 47
-19 13 -43 30 -54 37 -10 6 -25 18 -32 25 -8 7 -14 11 -14 7 0 -4 -6 0 -14 7
-32 31 -76 68 -82 68 -10 0 -34 28 -34 39 0 6 -3 10 -8 8 -11 -3 -51 40 -44
49 4 4 2 4 -4 1 -13 -7 -57 36 -47 46 3 4 1 7 -6 7 -6 0 -30 19 -54 43 l-42
44 -160 -2 c-89 -1 -166 -4 -172 -8 -7 -4 -14 -3 -17 2 -7 10 -25 9 -43 -2 -8
-5 -13 -3 -13 3 0 8 -6 7 -21 -1 -12 -6 -24 -7 -28 -2 -7 10 -37 9 -65 -3 -15
-6 -17 -4 -11 6 6 10 4 11 -6 4 -20 -12 -51 -12 -68 0 -11 8 -13 8 -7 -2 8
-14 -19 -12 -43 2 -9 6 -12 5 -7 -2 4 -8 -4 -10 -26 -7 -18 2 -38 -1 -45 -7
-9 -7 -14 -6 -19 6 -5 14 -9 14 -22 4 -8 -7 -17 -12 -19 -10 -1 1 -4 2 -5 1
-18 -5 -58 -3 -58 4 0 5 -6 4 -14 -2 -15 -13 -10 -51 6 -51 6 0 8 -6 5 -13 -3
-8 3 -20 13 -27 11 -8 17 -17 15 -20 -2 -4 6 -21 18 -40 12 -18 27 -41 32 -51
6 -9 17 -24 24 -33 7 -9 10 -16 6 -16 -5 0 2 -9 15 -20 13 -11 19 -20 14 -20
-5 0 -1 -7 9 -14 10 -8 18 -17 17 -20 0 -7 13 -25 45 -58 11 -11 13 -17 5 -13
-8 5 -5 -2 7 -16 55 -59 95 -106 116 -136 12 -18 27 -33 33 -33 6 0 17 -11 24
-25 7 -13 17 -22 22 -19 4 3 8 -2 8 -11 0 -9 8 -19 18 -22 9 -2 28 -19 42 -38
14 -18 28 -31 33 -28 4 2 7 -4 7 -13 0 -10 3 -14 6 -11 4 3 15 -5 26 -18 11
-14 26 -25 34 -25 8 0 14 -7 14 -15 0 -8 4 -15 10 -15 9 0 35 -19 65 -48 8 -6
16 -12 20 -12 3 0 16 -11 29 -25 13 -13 26 -22 29 -18 4 3 7 1 7 -5 0 -7 7
-12 15 -12 8 0 15 -4 15 -10 0 -5 5 -10 11 -10 6 0 17 -6 24 -13 34 -30 43
-35 49 -30 3 4 6 1 6 -5 0 -7 7 -12 15 -12 8 0 15 -4 15 -10 0 -5 7 -10 15
-10 8 0 15 -4 15 -10 0 -5 7 -10 15 -10 8 0 15 -4 15 -10 0 -5 6 -7 13 -5 6 3
24 -6 39 -20 15 -14 34 -25 43 -25 8 0 15 -5 15 -11 0 -5 4 -8 9 -4 5 3 17 -2
25 -11 9 -8 16 -13 16 -10 0 4 19 -3 41 -15 23 -11 51 -22 63 -25 11 -2 22 -8
24 -14 2 -5 15 -10 28 -10 17 0 23 -4 18 -12 -4 -6 -3 -8 3 -5 5 3 21 0 36 -8
15 -8 27 -11 27 -8 0 3 7 0 15 -7 9 -7 18 -10 22 -7 3 3 18 0 33 -8 15 -8 30
-11 34 -8 3 4 6 1 6 -6 0 -7 5 -9 10 -6 5 3 10 0 10 -7 0 -10 2 -10 9 1 6 10
10 10 13 1 2 -6 16 -13 31 -13 15 -1 27 -4 27 -7 0 -3 8 -7 18 -8 21 -2 57
-10 57 -12 0 -1 9 -3 20 -5 11 -3 34 -7 50 -10 17 -4 44 -7 60 -8 17 -1 32 -4
35 -8 5 -6 79 -16 160 -22 19 -1 38 -6 42 -12 5 -6 8 -5 8 3 0 8 5 10 13 5 13
-9 407 -12 407 -3 0 3 24 4 52 4 29 -1 57 1 63 4 5 4 21 7 35 9 38 4 54 8 68
16 7 5 12 3 12 -4 0 -8 5 -7 17 2 15 12 16 12 8 -1 -8 -13 -7 -13 8 -1 9 7 26
11 37 8 11 -3 20 -2 20 2 0 9 100 32 111 25 5 -3 9 -1 9 4 0 6 7 13 16 16 10
4 13 2 8 -7 -5 -7 0 -5 11 3 10 8 20 14 22 12 6 -5 58 11 72 22 12 9 13 8 6
-4 -6 -11 -3 -10 12 3 11 9 23 14 26 11 4 -4 12 -2 19 3 7 6 25 13 41 17 15 3
27 10 27 15 0 5 11 8 25 7 14 -2 30 3 36 10 6 8 15 11 20 8 5 -3 9 0 9 5 0 6
3 10 8 10 4 -1 10 0 15 1 4 1 10 3 15 5 32 9 71 33 65 40 -5 4 0 5 9 2 9 -3
22 1 28 8 7 8 16 12 21 9 5 -3 9 0 9 5 0 6 9 11 20 11 11 0 20 4 20 10 0 5 3
9 8 8 10 -4 72 35 72 45 0 4 4 6 9 3 4 -3 23 6 41 19 19 14 39 25 46 25 6 0
15 8 18 17 6 15 8 15 16 3 8 -13 10 -12 10 3 0 9 5 17 11 17 7 0 22 11 34 24
13 14 26 22 29 19 3 -4 6 -1 6 5 0 7 6 12 14 12 8 0 17 7 20 16 3 8 10 13 15
10 5 -3 12 1 15 10 4 9 9 14 12 11 4 -3 21 10 39 29 18 18 35 34 39 34 4 0 26
18 48 40 23 22 45 40 49 40 4 0 11 9 14 20 4 11 10 18 15 15 5 -3 11 4 15 15
3 11 12 19 18 17 7 -1 11 3 10 10 -2 6 6 15 17 18 11 4 20 13 20 21 0 8 4 13
9 10 4 -3 13 6 19 19 7 14 19 25 27 25 9 0 14 4 11 8 -3 5 6 20 19 34 13 14
21 29 17 33 -4 4 -2 6 3 5 20 -4 36 0 31 8 -3 5 4 18 14 30 11 12 20 26 20 32
0 5 5 10 10 10 6 0 10 5 10 11 0 7 10 22 23 34 36 35 56 63 50 69 -4 3 -1 6 5
6 6 0 9 7 6 15 -4 9 0 15 10 15 14 0 20 12 17 33 0 4 3 7 8 7 5 0 13 10 17 22
3 12 15 31 25 42 11 11 18 25 15 31 -4 12 19 36 28 29 3 -2 4 -1 1 2 -2 4 4
23 15 44 11 21 16 41 12 45 -4 5 -1 5 6 1 6 -4 13 -2 13 3 4 33 20 74 35 89 8
7 12 17 9 22 -3 5 -1 10 4 12 6 1 12 15 15 30 2 14 12 38 21 52 10 14 15 26
12 26 -4 0 2 20 13 44 10 24 16 47 13 50 -4 3 -1 6 5 6 6 0 9 7 6 15 -4 8 -1
15 6 15 7 0 10 7 7 15 -4 8 -2 17 4 20 5 4 7 10 4 15 -3 5 -1 11 4 15 6 3 8
12 4 20 -3 8 -1 15 4 15 7 0 13 22 16 68 0 6 3 12 7 12 3 0 7 10 7 23 2 22 10
62 13 62 1 0 3 14 5 30 2 17 6 39 11 49 6 15 4 17 -7 11 -12 -8 -12 -6 0 8 7
9 11 23 8 31 -3 8 -3 17 1 20 9 9 13 33 17 101 2 33 5 60 6 60 1 0 3 79 5 175
2 124 -1 179 -9 189 -9 12 -9 13 1 7 12 -7 17 5 6 17 -5 5 -16 115 -15 159 0
10 -8 22 -17 26 -9 5 -973 8 -2142 8 l-2125 -1 -1 22 c-1 13 2 23 7 23 5 0 9
13 9 29 0 17 5 33 10 36 6 3 10 16 10 28 0 12 9 41 20 65 11 23 16 41 11 38
-4 -3 8 27 27 67 19 40 35 77 35 84 0 7 5 11 11 10 6 -1 10 9 8 22 -2 15 0 21
7 17 7 -4 11 1 11 13 0 12 5 21 10 21 6 0 9 3 8 8 -1 4 3 17 10 28 6 12 8 25
4 29 -4 5 -2 5 5 2 7 -4 17 5 25 23 7 16 16 30 20 30 5 0 8 7 8 15 0 8 4 15 8
15 9 0 47 62 44 73 -1 4 4 7 11 7 8 0 20 11 27 25 7 13 18 22 23 18 6 -3 7 -1
4 4 -4 6 45 63 108 128 63 65 115 114 115 110 0 -3 6 0 13 7 8 7 29 24 47 38
19 14 42 32 51 42 10 9 20 14 23 11 3 -4 6 -1 6 5 0 7 7 12 15 12 8 0 15 5 15
10 0 6 6 10 14 10 7 0 19 7 26 15 6 8 17 13 23 12 7 -1 11 4 10 10 -2 7 0 13
5 12 16 -2 51 14 47 22 -3 4 4 6 15 4 11 -2 20 0 20 5 0 9 39 25 53 22 4 -1 7
4 7 11 0 7 9 14 20 15 43 4 50 6 50 14 0 4 6 8 13 8 6 0 25 7 41 15 16 9 39
17 50 20 12 2 21 4 21 5 0 2 38 11 53 12 6 1 12 5 12 10 0 5 5 6 10 3 6 -4 17
-1 26 5 8 7 29 14 47 16 17 1 43 5 57 8 26 6 87 16 130 21 14 1 34 6 44 10 15
7 17 5 11 -6 -8 -12 -6 -12 9 0 15 13 19 13 27 0 6 -10 9 -11 9 -1 0 8 13 13
38 12 20 0 60 0 89 0 29 -1 61 -3 72 -5 12 -2 21 1 21 6 0 6 5 7 11 3 11 -6
85 -15 156 -18 17 0 29 -5 26 -9 -2 -4 7 -6 20 -3 14 2 28 2 31 -2 8 -8 33
-13 74 -15 17 -1 32 -5 32 -9 0 -5 9 -8 21 -8 13 0 18 -4 13 -12 -6 -10 -4
-10 8 0 10 8 17 9 20 3 1 -5 14 -12 28 -15 59 -12 74 -16 101 -28 16 -7 29
-16 29 -19 0 -3 7 -6 15 -7 8 -1 22 -3 30 -4 8 -1 15 -5 15 -10 0 -4 11 -8 24
-8 13 0 27 -7 30 -16 3 -8 10 -12 16 -9 5 3 10 1 10 -4 0 -6 7 -11 15 -11 9 0
45 -18 81 -40 36 -22 68 -40 71 -40 2 0 11 -7 20 -15 8 -8 19 -12 25 -9 6 4 9
3 6 -2 -6 -9 22 -41 32 -36 5 3 59 -38 97 -75 13 -13 26 -23 28 -23 11 0 125
-119 125 -130 0 -6 5 -8 10 -5 6 3 14 -4 19 -17 6 -13 10 -19 10 -14 1 5 9 0
19 -11 17 -20 27 -21 464 -20 246 0 453 4 460 8 7 5 8 9 2 9 -10 0 -36 44 -38
62 -1 4 -9 16 -18 28 -10 11 -15 20 -11 20 3 0 0 8 -8 18 -8 9 -21 29 -29 45
-7 15 -17 27 -22 27 -4 0 -8 7 -8 15 0 8 -4 15 -10 15 -5 0 -7 7 -4 15 4 9 0
15 -10 15 -9 0 -16 7 -16 15 0 9 -10 27 -22 41 -13 14 -33 36 -44 49 -12 13
-20 26 -18 28 2 2 -12 20 -31 40 -20 21 -34 37 -31 37 4 0 -36 44 -130 143
-25 26 -50 47 -55 47 -5 0 -9 6 -9 14 0 8 -9 18 -20 21 -11 4 -18 11 -15 16 4
5 -1 9 -9 9 -9 0 -16 4 -16 10 0 5 -16 20 -35 33 -19 13 -32 27 -28 30 3 4 2
7 -4 7 -9 0 -22 9 -69 49 -7 5 -15 7 -18 4 -3 -4 -6 1 -6 10 0 10 -7 17 -15
17 -8 0 -15 5 -15 10 0 6 -7 10 -15 10 -8 0 -15 4 -15 9 0 5 -13 14 -30 21
-17 7 -27 17 -23 24 3 6 3 8 -2 4 -5 -5 -23 3 -41 17 -18 14 -37 25 -43 25 -6
0 -11 5 -11 10 0 6 -7 10 -15 10 -8 0 -15 4 -15 8 0 7 -53 33 -75 36 -5 1 -9
8 -7 15 1 7 -2 10 -7 7 -5 -3 -21 4 -35 15 -15 11 -32 22 -39 23 -28 5 -62 20
-74 32 -8 7 -20 11 -28 8 -8 -4 -15 -2 -15 4 0 8 -42 28 -80 37 -3 1 -18 8
-35 15 -37 16 -45 19 -70 22 -11 2 -23 7 -26 11 -3 4 -16 9 -27 10 -12 1 -22
5 -22 10 0 4 -6 7 -12 6 -24 -3 -39 1 -35 9 3 4 -5 7 -16 8 -12 0 -33 4 -47 7
-14 4 -42 10 -62 16 -20 5 -39 6 -42 3 -4 -3 -6 0 -6 7 0 7 -4 9 -10 6 -5 -3
-10 -1 -10 6 0 8 -3 9 -13 0 -8 -6 -17 -8 -21 -4 -4 4 -17 8 -29 10 -105 12
-127 17 -127 24 0 5 -11 4 -25 -1 -14 -5 -25 -6 -25 -1 0 4 -15 8 -32 8 -18 0
-44 3 -57 7 -18 6 -22 5 -15 -5 6 -11 5 -12 -7 -3 -9 7 -69 12 -164 13 -99 0
-145 -3 -135 -9 8 -5 10 -10 4 -10 -6 0 -14 3 -18 7 -8 8 -76 11 -76 3z m1953
-2964 c-1 -16 -6 -32 -11 -35 -4 -3 -7 -16 -6 -29 1 -12 -3 -25 -8 -28 -4 -3
-6 -10 -3 -15 4 -5 1 -9 -5 -9 -6 0 -8 -5 -5 -10 4 -6 1 -18 -6 -26 -6 -8 -9
-17 -6 -21 4 -3 0 -18 -7 -32 -8 -14 -20 -41 -26 -58 -7 -18 -17 -33 -22 -33
-6 0 -8 -7 -5 -15 4 -8 2 -17 -4 -20 -5 -4 -7 -10 -4 -15 3 -4 -2 -11 -10 -14
-8 -3 -14 -9 -13 -13 1 -4 -3 -18 -10 -29 -6 -12 -8 -25 -4 -29 4 -5 2 -5 -4
-2 -7 4 -16 -10 -24 -33 -7 -22 -17 -37 -21 -34 -5 3 -9 -3 -9 -14 0 -10 -9
-27 -19 -36 -11 -10 -22 -29 -25 -42 -4 -14 -11 -22 -16 -19 -6 3 -10 -1 -10
-9 0 -9 -5 -16 -11 -16 -5 0 -8 -4 -5 -8 3 -5 -5 -18 -17 -29 -12 -11 -33 -36
-47 -54 -14 -18 -34 -42 -45 -54 -11 -11 -19 -23 -18 -27 2 -5 0 -7 -5 -6 -4
2 -44 -34 -89 -80 -45 -45 -87 -82 -93 -82 -6 0 -21 -11 -34 -25 -13 -14 -28
-25 -34 -25 -5 0 -13 -7 -16 -16 -4 -9 -9 -14 -12 -11 -4 3 -18 -5 -33 -19
-14 -13 -34 -27 -43 -30 -10 -3 -18 -9 -18 -14 0 -5 -9 -7 -20 -5 -11 2 -18 0
-15 -6 4 -5 2 -9 -3 -9 -4 0 -18 -9 -30 -20 -13 -12 -22 -16 -22 -8 0 6 -7 3
-16 -8 -8 -10 -12 -12 -8 -4 7 13 6 13 -12 0 -10 -8 -22 -19 -25 -23 -3 -5
-10 -9 -15 -9 -10 -1 -36 -10 -81 -30 -16 -6 -31 -11 -35 -10 -5 1 -8 -3 -8
-8 0 -6 -8 -10 -17 -10 -10 0 -31 -7 -48 -16 -16 -8 -42 -16 -57 -17 -15 -1
-28 -4 -28 -7 0 -3 -8 -7 -17 -8 -21 -2 -57 -10 -60 -12 -2 -2 -6 -3 -10 -4
-5 -1 -13 -4 -18 -8 -7 -4 -10 219 -9 675 1 375 2 684 3 687 0 3 306 5 679 5
l677 0 -2 -29z"/>
</g>
</svg>
