<svg width="217" height="80" viewBox="0 0 217 80" fill="none" xmlns="http://www.w3.org/2000/svg">
<path d="M58.8534 47.3632H62.7959V31.8963H67.9515V28.156H53.7314V31.8963H58.8534V47.3632ZM67.9515 47.3632H71.6582V40.8934C71.6582 38.6357 72.8039 37.2878 74.5898 37.2878C75.1964 37.2878 75.7018 37.3889 76.2747 37.5911V33.8171C75.8703 33.716 75.4322 33.6486 75.0279 33.6486C73.5115 33.6486 72.1299 34.6595 71.6582 35.9737V33.8171H67.9515V47.3632ZM83.3847 47.6665C85.238 47.6665 86.6533 46.723 87.2936 45.8469V47.3632H91.0002V33.8507H87.2936V35.3671C86.687 34.491 85.2717 33.5475 83.3847 33.5475C79.7791 33.5475 77.016 36.7824 77.016 40.6238C77.016 44.4316 79.7791 47.6665 83.3847 47.6665ZM84.1597 44.2968C82.1042 44.2968 80.7564 42.7467 80.7564 40.6238C80.7564 38.5009 82.1042 36.9509 84.1597 36.9509C86.2153 36.9509 87.5631 38.5009 87.5631 40.6238C87.5631 42.7467 86.2153 44.2968 84.1597 44.2968ZM99.7951 47.6665C101.648 47.6665 103.064 46.723 103.704 45.8469V47.3632H107.411V27.0777H103.704V35.3671C103.097 34.491 101.682 33.5475 99.7951 33.5475C96.1895 33.5475 93.4264 36.7824 93.4264 40.6238C93.4601 44.4316 96.1895 47.6665 99.7951 47.6665ZM100.604 44.2968C98.5483 44.2968 97.2004 42.7467 97.2004 40.6238C97.2004 38.5009 98.5483 36.9509 100.604 36.9509C102.659 36.9509 104.007 38.5009 104.007 40.6238C104.007 42.7467 102.659 44.2968 100.604 44.2968ZM112.566 31.7952C113.88 31.7952 114.959 30.7506 114.959 29.4365C114.959 28.1223 113.88 27.0777 112.566 27.0777C111.286 27.0777 110.207 28.1223 110.207 29.4365C110.241 30.7169 111.286 31.7615 112.566 31.7952ZM110.747 47.3632H114.453V33.9855H110.747V47.3632ZM117.722 47.3632H121.429V40.7586C121.429 38.164 122.709 36.9172 124.428 36.9172C125.978 36.9172 126.82 38.0966 126.82 40.051V47.3632H130.527V39.4444C130.527 35.94 128.572 33.5475 125.304 33.5475C123.551 33.5475 122.17 34.2888 121.429 35.4008V33.8507H117.722V47.3632ZM139.962 43.7577C138.108 43.7577 136.525 42.3424 136.525 40.2869C136.525 38.1977 138.075 36.8161 139.962 36.8161C141.815 36.8161 143.399 38.1977 143.399 40.2869C143.399 42.3761 141.849 43.7577 139.962 43.7577ZM139.524 53.2265C143.668 53.2265 146.802 51.1036 146.802 46.2512V33.7834H143.096V35.2997C142.354 34.2551 140.905 33.4801 139.187 33.4801C135.649 33.4801 132.818 36.5128 132.818 40.3206C132.818 44.0946 135.649 47.1274 139.187 47.1274C140.905 47.1274 142.388 46.3523 143.096 45.3414V46.2512C143.096 48.4078 141.647 49.9579 139.456 49.9579C137.94 49.9579 136.424 49.4524 135.244 48.2731L133.222 51.0362C134.772 52.5526 137.165 53.2265 139.524 53.2265ZM154.654 47.3632H158.158L166.111 28.156H161.797L156.44 41.5L151.014 28.156H146.769L154.654 47.3632ZM169.48 31.6268C170.794 31.6268 171.839 30.5821 171.873 29.268C171.873 27.9538 170.794 26.9092 169.48 26.9092C168.2 26.9092 167.121 27.9538 167.121 29.268C167.121 30.5821 168.233 31.6268 169.48 31.6268ZM167.661 47.3632H171.367V33.8171H167.661V47.3632ZM180.937 47.6665C183.768 47.6665 185.924 46.4871 187.205 44.6338L184.442 42.5783C183.835 43.5218 182.656 44.2968 180.937 44.2968C179.151 44.2968 177.568 43.2859 177.332 41.4663H187.441C187.508 40.8934 187.508 40.5228 187.508 40.1858C187.508 35.7715 184.408 33.5475 180.836 33.5475C176.725 33.5475 173.726 36.6139 173.726 40.5901C173.793 44.8697 176.927 47.6665 180.937 47.6665ZM177.5 38.9727C177.871 37.3215 179.387 36.6139 180.769 36.6139C182.15 36.6139 183.498 37.3552 183.835 38.9727H177.5ZM201.425 47.3632H205.098L209.546 33.8171H205.57L203.042 42.4772L200.279 33.8171H197.449L194.719 42.4772L192.158 33.8171H188.216L192.697 47.3632H196.37L198.898 39.6803L201.425 47.3632Z" fill="white"/>
<path d="M22.3249 47.3645H14.8442V35.638H7.36353V28.1572H22.2913V47.3645H22.3249ZM37.2864 47.3645H28.7611L36.7809 28.1572H45.3062L37.2864 47.3645ZM28.7274 28.1572C31.0861 28.1572 33.0069 30.078 33.0069 32.4367C33.0069 34.7955 31.0861 36.7163 28.7274 36.7163C26.3686 36.7163 24.4479 34.7955 24.4479 32.4367C24.4815 30.078 26.3686 28.1572 28.7274 28.1572Z" fill="white"/>
</svg>
