<svg width="24" height="24" viewBox="0 0 24 24" fill="none" xmlns="http://www.w3.org/2000/svg">
<path d="M20.9999 12C21.0174 14.0246 20.3516 15.996 19.1103 17.5955C17.8689 19.195 16.1245 20.3292 14.1589 20.8148C12.1933 21.3005 10.1214 21.1091 8.27796 20.2717C6.43455 19.4343 4.92735 17.9998 3.99993 16.2V16.2C3.93518 16.0835 3.89438 15.9552 3.87992 15.8227C3.86547 15.6902 3.87765 15.5561 3.91575 15.4284C3.95385 15.3007 4.01711 15.1818 4.10179 15.0789C4.18648 14.976 4.2909 14.891 4.4089 14.829C4.52689 14.767 4.6561 14.7292 4.78891 14.7179C4.92172 14.7065 5.05546 14.7218 5.18227 14.7629C5.30907 14.804 5.42638 14.87 5.5273 14.9571C5.62822 15.0442 5.71072 15.1506 5.76993 15.27C6.19254 16.0639 6.76273 16.7698 7.44993 17.35C8.48262 18.2293 9.74853 18.7897 11.0938 18.963C12.439 19.1363 13.8056 18.915 15.0274 18.3261C16.2492 17.7372 17.2736 16.806 17.9761 15.6457C18.6786 14.4855 19.0288 13.1461 18.9843 11.7905C18.9398 10.4349 18.5024 9.12142 17.7253 8.00977C16.9482 6.89811 15.8648 6.03617 14.607 5.52871C13.3492 5.02126 11.971 4.89016 10.64 5.15136C9.30909 5.41256 8.08269 6.0548 7.10993 7H8.99993C9.26515 7 9.5195 7.10536 9.70704 7.29289C9.89457 7.48043 9.99993 7.73478 9.99993 8C9.99993 8.26522 9.89457 8.51957 9.70704 8.70711C9.5195 8.89464 9.26515 9 8.99993 9H4.99993C4.73472 9 4.48036 8.89464 4.29283 8.70711C4.10529 8.51957 3.99993 8.26522 3.99993 8V4C3.99993 3.73478 4.10529 3.48043 4.29283 3.29289C4.48036 3.10536 4.73472 3 4.99993 3C5.26515 3 5.5195 3.10536 5.70704 3.29289C5.89457 3.48043 5.99993 3.73478 5.99993 4V5.3C7.29438 4.14221 8.89616 3.38366 10.6121 3.11585C12.328 2.84804 14.0847 3.08241 15.6704 3.79069C17.2561 4.49896 18.603 5.65089 19.5487 7.10754C20.4943 8.56418 20.9983 10.2633 20.9999 12V12ZM11.9999 9C11.7347 9 11.4804 9.10536 11.2928 9.29289C11.1053 9.48043 10.9999 9.73478 10.9999 10V12C11.001 12.2623 11.1052 12.5137 11.2899 12.7L13.2899 14.7C13.4782 14.8883 13.7336 14.9941 13.9999 14.9941C14.2662 14.9941 14.5216 14.8883 14.7099 14.7C14.8982 14.5117 15.004 14.2563 15.004 13.99C15.004 13.7237 14.8982 13.4683 14.7099 13.28L12.9999 11.59V10C12.9999 9.73478 12.8946 9.48043 12.707 9.29289C12.5195 9.10536 12.2651 9 11.9999 9Z" fill="#0052FF"/>
</svg>
