<svg width="16" height="16" viewBox="0 0 16 16" fill="none" xmlns="http://www.w3.org/2000/svg">
<g clip-path="url(#clip0_0_130)">
<path d="M8 0C3.57844 0 0 3.57812 0 8C0 12.4216 3.57812 16 8 16C12.4216 16 16 12.4219 16 8C16 3.57844 12.4219 0 8 0ZM6.09644 11.3747C6.09644 11.3747 3.33325 8.61037 3.13462 8.41212C2.69278 7.97028 2.69278 7.25128 3.13462 6.80981C3.57759 6.36684 4.29397 6.36684 4.73694 6.80981L6.52581 8.59869C6.74825 8.82113 7.10925 8.81959 7.32981 8.59603L11.2576 4.61159C11.6991 4.16372 12.4204 4.16069 12.8656 4.60594C13.304 5.04437 13.3067 5.76038 12.8713 6.20222C8.60584 10.5299 7.79581 11.3743 7.79581 11.3743C7.32753 11.8426 6.56509 11.843 6.09644 11.3747Z" fill="url(#paint0_linear_0_130)"/>
</g>
<defs>
<linearGradient id="paint0_linear_0_130" x1="0" y1="8" x2="16" y2="8" gradientUnits="userSpaceOnUse">
<stop stop-color="#E018FF"/>
<stop offset="1" stop-color="#823FFF"/>
</linearGradient>
<clipPath id="clip0_0_130">
<rect width="16" height="16" fill="white"/>
</clipPath>
</defs>
</svg>
