<svg width="30" height="30" viewBox="0 0 30 30" fill="none" xmlns="http://www.w3.org/2000/svg">
<rect width="30" height="30" rx="5" fill="#CE0927"/>
<path d="M21 6H13C12.2044 6 11.4413 6.31607 10.8787 6.87868C10.3161 7.44129 10 8.20435 10 9V10H9C8.20435 10 7.44129 10.3161 6.87868 10.8787C6.31607 11.4413 6 12.2044 6 13V21C6 21.7956 6.31607 22.5587 6.87868 23.1213C7.44129 23.6839 8.20435 24 9 24H17C17.7956 24 18.5587 23.6839 19.1213 23.1213C19.6839 22.5587 20 21.7956 20 21V20H21C21.7956 20 22.5587 19.6839 23.1213 19.1213C23.6839 18.5587 24 17.7956 24 17V9C24 8.20435 23.6839 7.44129 23.1213 6.87868C22.5587 6.31607 21.7956 6 21 6ZM18 21C18 21.2652 17.8946 21.5196 17.7071 21.7071C17.5196 21.8946 17.2652 22 17 22H9C8.73478 22 8.48043 21.8946 8.29289 21.7071C8.10536 21.5196 8 21.2652 8 21V13C8 12.7348 8.10536 12.4804 8.29289 12.2929C8.48043 12.1054 8.73478 12 9 12H17C17.2652 12 17.5196 12.1054 17.7071 12.2929C17.8946 12.4804 18 12.7348 18 13V21ZM22 17C22 17.2652 21.8946 17.5196 21.7071 17.7071C21.5196 17.8946 21.2652 18 21 18H20V13C20 12.2044 19.6839 11.4413 19.1213 10.8787C18.5587 10.3161 17.7956 10 17 10H12V9C12 8.73478 12.1054 8.48043 12.2929 8.29289C12.4804 8.10536 12.7348 8 13 8H21C21.2652 8 21.5196 8.10536 21.7071 8.29289C21.8946 8.48043 22 8.73478 22 9V17Z" fill="white"/>
</svg>
