<svg width="20" height="20" viewBox="0 0 20 20" fill="none" xmlns="http://www.w3.org/2000/svg">
<path d="M14.1505 0.0378418H5.25212C2.35605 0.0378418 0 2.39389 0 5.28996V14.1885C0 17.0844 2.35605 19.4404 5.25212 19.4404H14.1507C17.0466 19.4404 19.4026 17.0844 19.4026 14.1885V5.28996C19.4026 2.39389 17.0466 0.0378418 14.1505 0.0378418ZM18.2652 14.1885C18.2652 16.4572 16.4194 18.303 14.1505 18.303H5.25212C2.98325 18.303 1.13746 16.4572 1.13746 14.1885V5.28996C1.13746 3.0211 2.98325 1.17531 5.25212 1.17531H14.1507C16.4194 1.17531 18.2652 3.0211 18.2652 5.28996V14.1885Z" fill="white"/>
<path d="M9.70133 4.43408C6.77594 4.43408 4.39606 6.81397 4.39606 9.73934C4.39606 12.6647 6.77594 15.0446 9.70133 15.0446C12.6267 15.0446 15.0066 12.6647 15.0066 9.73934C15.0066 6.81397 12.6267 4.43408 9.70133 4.43408ZM9.70133 13.9071C7.4033 13.9071 5.53353 12.0375 5.53353 9.73934C5.53353 7.44132 7.4033 5.57154 9.70133 5.57154C11.9995 5.57154 13.8691 7.44132 13.8691 9.73934C13.8691 12.0375 11.9995 13.9071 9.70133 13.9071Z" fill="white"/>
<path d="M15.1335 2.55005C14.2689 2.55005 13.5658 3.25334 13.5658 4.1177C13.5658 4.98219 14.2689 5.68548 15.1335 5.68548C15.9979 5.68548 16.7013 4.98219 16.7013 4.1177C16.7013 3.2532 15.9979 2.55005 15.1335 2.55005ZM15.1335 4.54786C14.8963 4.54786 14.7033 4.35483 14.7033 4.1177C14.7033 3.8804 14.8963 3.68752 15.1335 3.68752C15.3707 3.68752 15.5638 3.8804 15.5638 4.1177C15.5638 4.35483 15.3707 4.54786 15.1335 4.54786Z" fill="white"/>
</svg>
