<svg width="20" height="20" viewBox="0 0 20 20" fill="none" xmlns="http://www.w3.org/2000/svg">
<path d="M13.0333 7.79996C13.1738 7.94193 13.2525 8.13358 13.2525 8.33329C13.2525 8.533 13.1738 8.72465 13.0333 8.86663L9.69996 12.2C9.55799 12.3404 9.36634 12.4192 9.16663 12.4192C8.96692 12.4192 8.77527 12.3404 8.6333 12.2L6.96663 10.5333C6.8485 10.3877 6.78851 10.2034 6.79824 10.0162C6.80797 9.82893 6.88674 9.65192 7.01933 9.51933C7.15192 9.38674 7.32893 9.30797 7.51619 9.29824C7.70345 9.28851 7.88767 9.3485 8.0333 9.46663L9.16663 10.6083L11.9666 7.79996C12.1086 7.6595 12.3003 7.58072 12.5 7.58072C12.6997 7.58072 12.8913 7.6595 13.0333 7.79996ZM18.3333 9.99996C18.3333 11.6481 17.8446 13.2593 16.9289 14.6297C16.0132 16.0001 14.7117 17.0682 13.189 17.699C11.6663 18.3297 9.99072 18.4947 8.37421 18.1732C6.7577 17.8516 5.27284 17.058 4.10741 15.8925C2.94197 14.7271 2.1483 13.2422 1.82675 11.6257C1.50521 10.0092 1.67024 8.33365 2.30097 6.81093C2.9317 5.28821 3.9998 3.98672 5.37021 3.07105C6.74062 2.15537 8.35179 1.66663 9.99996 1.66663C11.0943 1.66663 12.1779 1.88217 13.189 2.30096C14.2 2.71975 15.1187 3.33358 15.8925 4.1074C16.6663 4.88122 17.2802 5.79988 17.699 6.81093C18.1177 7.82198 18.3333 8.90561 18.3333 9.99996ZM16.6666 9.99996C16.6666 8.68142 16.2756 7.39249 15.5431 6.29616C14.8105 5.19983 13.7694 4.34535 12.5512 3.84076C11.333 3.33618 9.99257 3.20416 8.69936 3.46139C7.40615 3.71863 6.21827 4.35356 5.28592 5.28591C4.35357 6.21826 3.71863 7.40615 3.46139 8.69936C3.20416 9.99256 3.33618 11.333 3.84077 12.5512C4.34535 13.7694 5.19983 14.8105 6.29616 15.5431C7.39249 16.2756 8.68142 16.6666 9.99996 16.6666C11.7681 16.6666 13.4638 15.9642 14.714 14.714C15.9643 13.4638 16.6666 11.7681 16.6666 9.99996Z" fill="#959595"/>
</svg>
