<svg width="30" height="30" viewBox="0 0 30 30" fill="none" xmlns="http://www.w3.org/2000/svg">
<path d="M19.7125 24.7376C21.6694 23.4969 23.281 21.7819 24.3977 19.7517C25.5144 17.7216 26.1 15.4421 26.1 13.1251V9.2251C26.0984 8.46463 25.8655 7.72263 25.4324 7.09754C24.9993 6.47244 24.3864 5.9938 23.675 5.7251L16.3375 2.9251C15.4762 2.59626 14.5239 2.59626 13.6625 2.9251H13.5375L6.32501 5.7251C5.61592 5.99581 5.00568 6.47531 4.57493 7.10024C4.14417 7.72517 3.91319 8.4661 3.91251 9.2251V13.1251C3.91122 15.441 4.49487 17.7196 5.60934 19.7497C6.7238 21.7798 8.33295 23.4955 10.2875 24.7376L12.9875 26.4501C13.589 26.8327 14.2871 27.0359 15 27.0359C15.7129 27.0359 16.411 26.8327 17.0125 26.4501L19.7125 24.7376ZM23.6 13.1251C23.5999 15.0205 23.1209 16.8852 22.2074 18.5461C21.294 20.2069 19.9757 21.61 18.375 22.6251L15.675 24.3501C15.4736 24.4793 15.2393 24.548 15 24.548C14.7607 24.548 14.5264 24.4793 14.325 24.3501L11.625 22.6251C10.0266 21.6085 8.71081 20.2048 7.7996 18.544C6.88839 16.8833 6.41128 15.0194 6.41251 13.1251V9.2251C6.41072 8.97117 6.48632 8.72272 6.62923 8.51281C6.77214 8.30291 6.97559 8.14151 7.21251 8.0501L14.55 5.2626C14.8396 5.15085 15.1604 5.15085 15.45 5.2626L22.7875 8.0501C23.0268 8.13949 23.2329 8.30002 23.3781 8.51009C23.5234 8.72017 23.6008 8.9697 23.6 9.2251V13.1251Z" fill="white"/>
</svg>
