<svg width="20" height="15" viewBox="0 0 20 15" fill="none" xmlns="http://www.w3.org/2000/svg">
<g clip-path="url(#clip0_225_72)">
<path d="M19.8349 0.260473C19.639 0.0262048 19.3142 -0.0606719 19.0253 0.0435801L0.679363 6.55169C0.312847 6.68245 0.0555848 6.99955 0.00782491 7.37927C-0.0394773 7.75718 0.1302 8.12384 0.448498 8.33495L3.07087 10.0922C3.32493 10.2625 3.65162 10.2808 3.92368 10.1398L9.61216 7.19518L5.17871 10.4448C4.97058 10.5974 4.84622 10.8408 4.84622 11.0958V14.1059C4.84622 14.4164 5.01972 14.7009 5.29895 14.8486C5.57865 14.9963 5.91647 14.9816 6.18213 14.8097L8.17448 13.5123L10.1337 14.8237C10.3054 14.9392 10.5098 15 10.7161 15C10.7858 15 10.8559 14.993 10.9249 14.9788C11.2 14.9226 11.4434 14.7557 11.5927 14.5211L19.893 1.0855C20.0546 0.826816 20.0314 0.495788 19.8349 0.260473ZM10.6723 13.7912L8.64336 12.4331C8.50224 12.3384 8.3396 12.2911 8.17704 12.2911C8.01808 12.2911 7.85891 12.3365 7.7196 12.4273L6.01871 13.5348V11.2656L13.8472 5.52744C14.1968 5.27116 14.2848 4.80472 14.0518 4.44253C13.8187 4.08035 13.3519 3.95797 12.966 4.15779L3.56052 9.02661L1.34251 7.54029L18.2366 1.5473L10.6723 13.7912Z" fill="white"/>
</g>
<defs>
<clipPath id="clip0_225_72">
<rect width="20" height="15" fill="white"/>
</clipPath>
</defs>
</svg>
