<svg width="132" height="22" viewBox="0 0 132 22" fill="none" xmlns="http://www.w3.org/2000/svg">
<path d="M7.87 22H0.22V0.459998H7.87C14.71 0.459998 18.85 4.84 18.85 11.11C18.85 17.38 14.56 22 7.87 22ZM4.78 4.39V18.07H7.63C11.92 18.07 14.17 15.58 14.17 11.11C14.17 6.82 11.92 4.39 7.63 4.39H4.78Z" fill="#1A1AFF"/>
<path d="M26.5769 22H22.0169V0.459998H30.4469C35.8769 0.459998 39.0269 2.98 39.0269 7.45C39.0269 10.36 37.2269 12.67 34.1669 13.69L39.7169 22H34.2869L29.4269 14.38H26.5769V22ZM26.5769 4.24V10.63H30.2369C32.9969 10.63 34.4669 9.55 34.4669 7.45C34.4669 5.32 32.9969 4.24 30.2369 4.24H26.5769ZM56.8075 22L55.1875 17.38H46.8175L45.1675 22H40.5775L48.6775 0.459998H53.6575L61.6975 22H56.8075ZM51.0475 5.44L48.1075 13.75H53.9275L51.0475 5.44ZM68.8816 22H64.3216V0.459998H68.8816V22ZM87.3264 22L77.4564 6.97V22H73.2864V0.459998H78.2064L87.5964 14.74V0.459998H91.7964V22H87.3264ZM110.716 18.04V22H96.2259V0.459998H110.506V4.42H100.786V8.95H109.606V12.88H100.786V18.04H110.716ZM118.803 22H114.243V0.459998H122.673C128.103 0.459998 131.253 2.98 131.253 7.45C131.253 10.36 129.453 12.67 126.393 13.69L131.943 22H126.513L121.653 14.38H118.803V22ZM118.803 4.24V10.63H122.463C125.223 10.63 126.693 9.55 126.693 7.45C126.693 5.32 125.223 4.24 122.463 4.24H118.803Z" fill="black"/>
</svg>
