<svg id="Capa_1" xmlns="http://www.w3.org/2000/svg" viewBox="0 0 393.2 492.5"><style>.st0{opacity:.5}.st1{fill:#7f96a3}</style><g class="st0"><path class="st1" d="M196.6 110.1c-47.7 0-86.5 38.8-86.5 86.6 0 47.7 38.8 86.5 86.5 86.5s86.5-38.8 86.5-86.5c0-47.8-38.8-86.6-86.5-86.6zm0 150.1c-35 0-63.5-28.5-63.5-63.5s28.5-63.5 63.5-63.5 63.5 28.5 63.5 63.5-28.5 63.5-63.5 63.5z"/></g><g class="st0"><path class="st1" d="M196.6 0C88.2 0 0 88.2 0 196.6v5.7c0 55.1 32.1 119.9 95.4 192.5 46.3 53.1 92.1 90.3 94 91.9l7.2 5.8 7.2-5.8c1.9-1.6 47.6-38.7 94-91.9 63.3-72.7 95.4-137.5 95.4-192.5v-5.7C393.2 88.2 305 0 196.6 0zm173.6 202.3c0 43.4-23.3 94.8-69.2 152.8-36.3 45.9-77.5 84.1-98.8 102.8l-5.6 4.9-5.6-4.9c-21.3-18.7-62.5-56.8-98.8-102.8C46.3 297.1 23 245.7 23 202.3v-5.7C23 100.9 100.9 23 196.6 23s173.6 77.9 173.6 173.6v5.7z"/></g></svg>