<?xml version="1.0" encoding="utf-8"?>
<!-- Generator: Adobe Illustrator 25.2.0, SVG Export Plug-In . SVG Version: 6.00 Build 0)  -->
<svg version="1.1" id="Слой_1" xmlns="http://www.w3.org/2000/svg" xmlns:xlink="http://www.w3.org/1999/xlink" x="0px" y="0px"
	 viewBox="0 0 40 40" style="enable-background:new 0 0 40 40;" xml:space="preserve">
<style type="text/css">
	.st0{fill:#FFD71C;}
	.st1{fill:#010101;}
	.st2{fill:none;stroke:#010101;stroke-width:0.4044;stroke-miterlimit:10;}
	.st3{fill:none;stroke:#010101;stroke-width:0.534;stroke-linecap:round;stroke-linejoin:round;stroke-miterlimit:10;}
	.st4{fill:#010101;stroke:#010101;stroke-width:0.178;stroke-miterlimit:10;}
	.st5{fill:none;stroke:#010101;stroke-width:0.395;stroke-linecap:round;stroke-linejoin:round;stroke-miterlimit:10;}
	.st6{fill:none;stroke:#010101;stroke-width:0.3256;stroke-linecap:round;stroke-linejoin:round;stroke-miterlimit:10;}
	.st7{fill:none;stroke:#010101;stroke-width:1.0195;stroke-linecap:round;stroke-linejoin:round;stroke-miterlimit:10;}
	.st8{fill:#FFFFFF;}
	.st9{fill:none;stroke:#010101;stroke-width:0.5279;stroke-linecap:round;stroke-linejoin:round;stroke-miterlimit:10;}
	.st10{fill:none;stroke:#010101;stroke-width:0.7388;stroke-miterlimit:10;}
	.st11{fill:none;stroke:#010101;stroke-width:0.7604;stroke-linecap:round;stroke-linejoin:round;stroke-miterlimit:10;}
	.st12{fill:none;stroke:#010101;stroke-width:0.8761;stroke-linecap:round;stroke-linejoin:round;stroke-miterlimit:10;}
	.st13{fill:none;stroke:#010101;stroke-width:0.7244;stroke-linecap:round;stroke-linejoin:round;stroke-miterlimit:10;}
	.st14{fill:none;stroke:#010101;stroke-width:0.5433;stroke-linecap:round;stroke-linejoin:round;stroke-miterlimit:10;}
	.st15{fill:#010101;stroke:#010101;stroke-width:0.5962;stroke-miterlimit:10;}
	.st16{fill:#010101;stroke:#010101;stroke-width:0.5962;stroke-linecap:round;stroke-linejoin:round;stroke-miterlimit:10;}
	.st17{opacity:0.51;enable-background:new    ;}
	.st18{fill:none;stroke:#000000;stroke-width:0.911;stroke-linecap:round;stroke-linejoin:round;stroke-miterlimit:10;}
	.st19{fill:none;stroke:#000000;stroke-width:0.8728;stroke-linecap:round;stroke-linejoin:round;stroke-miterlimit:10;}
	.st20{fill:none;stroke:#000000;stroke-width:0.7103;stroke-linecap:round;stroke-linejoin:round;stroke-miterlimit:10;}
	.st21{fill:none;stroke:#010101;stroke-width:0.8441;stroke-linecap:round;stroke-linejoin:round;stroke-miterlimit:10;}
</style>
<circle class="st0" cx="22.7" cy="15.8" r="11"/>
<g>
	<g id="Слой_2_12_">
		<g class="st17">
			<g>
				<defs>
					<rect id="SVGID_1_" x="4.4" y="10.6" width="26.5" height="24.9"/>
				</defs>
				<clipPath id="SVGID_2_">
					<use xlink:href="#SVGID_1_"  style="overflow:visible;"/>
				</clipPath>
			</g>
		</g>
		<g>
			<g>
				<g>
					<path d="M28.5,9.1l-6.9,8.3c-0.1,0.2-0.2,0.2-0.4,0.2h-0.1l0,0c-1.5-0.4-3.4-0.2-4.5,0.9c-1.2,1.1-2.3,2.5-3,3.9
						c-0.3,0.7-0.5,1.5-0.2,2.1c0.1,0.3,0.3,0.5,0.6,0.7c0.2,0.1,0.3,0.2,0.5,0.2c0.2,0.1,0.2,0.1,0.3,0c0.2-0.1,0.6-0.2,0.9-0.6
						c0.3-0.2,0.6-0.6,0.9-0.9c0.6-0.6,1.1-1.4,1.8-2c0.3-0.3,0.7-0.6,1.2-0.9c0.2-0.1,0.6-0.2,0.8-0.2c0.2,0,0.3,0,0.5,0
						c0.2,0,0.2,0.1,0.4,0.1c1,0.3,1.7,1,2.4,1.5c1.3,1.2,2.6,2.4,3.6,3.9c0.2,0.4,0.5,0.7,0.7,1.2c0.2,0.4,0.4,1,0.2,1.5
						c-0.1,0.3-0.2,0.6-0.3,0.8s-0.4,0.5-0.7,0.6c-0.6,0.2-1.1-0.1-1.5-0.3c-1.5-1-2.6-2.4-3.8-3.7c-0.1-0.1-0.1-0.2,0-0.2
						c0.1-0.1,0.2-0.1,0.2,0c1.3,1.2,2.6,2.4,4,3.3c0.3,0.2,0.7,0.3,1,0.2c0.2-0.1,0.4-0.4,0.5-0.6c0.1-0.6-0.4-1.3-0.9-2
						c-1-1.4-2.2-2.6-3.6-3.6c-0.6-0.6-1.4-1-2-1.2c-0.1,0-0.2-0.1-0.2-0.1s-0.2,0-0.2,0c-0.2,0-0.2,0.1-0.4,0.1
						c-0.3,0.2-0.6,0.4-0.9,0.6c-0.6,0.6-1.1,1.2-1.8,1.9c-0.3,0.3-0.6,0.6-1,1c-0.4,0.3-0.7,0.6-1.4,0.8c-0.3,0.1-0.7,0.1-1-0.1
						c-0.2-0.1-0.5-0.2-0.7-0.3c-0.4-0.3-0.9-0.7-1-1.3c-0.2-0.6-0.2-1.1-0.2-1.6c0.1-0.5,0.2-1,0.5-1.4c0.8-1.7,1.9-3,3.4-4.3
						c0.7-0.6,1.7-1,2.6-1.1c1-0.1,1.8,0,2.8,0.2l0,0L21.2,17L28.5,9.1z"/>
				</g>
				<g>
					<path d="M19.7,27.8c0.7,0.6,1.4,1.1,2,1.7c0.6,0.6,1.3,1.2,1.9,1.8c0.1,0.1,0.2,0.2,0.2,0.2s0.2,0.1,0.2,0.1
						c0.2,0.1,0.2,0.1,0.4,0.1c0.3,0,0.6-0.2,0.7-0.4c0.2-0.2,0.2-0.6,0.2-0.9c0-0.2-0.1-0.3-0.2-0.5c-0.2-0.2-0.2-0.4-0.3-0.6
						c0-0.1,0-0.1,0-0.1h0.1c0.2,0.1,0.4,0.2,0.6,0.3c0.2,0.2,0.4,0.3,0.6,0.6c0.2,0.5,0.2,1.1-0.1,1.6c-0.3,0.5-0.9,0.8-1.4,0.8
						c-0.3,0-0.6-0.1-0.9-0.2c-0.2-0.1-0.2-0.2-0.4-0.2C23,32,23,31.9,22.9,31.9c-0.6-0.6-1.2-1.3-1.8-1.9c-0.6-0.6-1.2-1.3-1.8-2
						c-0.1-0.1,0-0.2,0-0.2C19.6,27.8,19.7,27.8,19.7,27.8z"/>
				</g>
				<g>
					<path d="M17.7,29.8c1.4,1,2.7,2.2,4,3.4c0.1,0.1,0.2,0.2,0.2,0.2c0.1,0,0.1,0.1,0.2,0.1c0.2,0.1,0.2,0.1,0.4,0.1
						c0.3,0,0.6-0.2,0.7-0.4c0.2-0.2,0.2-0.5,0.2-0.8c0-0.2-0.1-0.3-0.2-0.5c-0.2-0.2-0.2-0.4-0.3-0.6v-0.1c0,0,0,0,0.1,0
						c0.2,0.1,0.4,0.2,0.6,0.3c0.2,0.2,0.4,0.3,0.6,0.6c0.2,0.5,0.2,1.2-0.1,1.7c-0.3,0.5-0.9,0.8-1.5,0.8c-0.3,0-0.6-0.1-0.9-0.2
						c-0.2-0.1-0.2-0.2-0.4-0.2c-0.1-0.1-0.2-0.2-0.2-0.2C19.8,32.6,18.6,31.3,17.7,29.8C17.6,29.8,17.6,29.8,17.7,29.8
						C17.6,29.8,17.7,29.8,17.7,29.8z"/>
				</g>
				<path class="st18" d="M18.5,34.6l1.3,1.2c0.6,0.5,1.4,0.5,1.9-0.1l0,0c0.6-0.6,0.6-1.4,0-1.9l-0.6-0.5"/>
				<g>
					<path d="M31.7,19.7l-3.4,4.2l0.2-0.5l0,0c0,0.8,0.1,1.5,0,2.2c0,0.4-0.1,0.8-0.1,1.1c-0.1,0.4-0.1,0.8-0.4,1.3
						c-0.2,0.2-0.5,0.3-0.7,0.2c-0.2-0.2-0.3-0.4-0.2-0.7v-0.1c0.1-0.2,0.2-0.6,0.2-0.9c0-0.3,0-0.7,0-1c0-0.7-0.1-1.4-0.1-2.2l0,0
						v-0.2c0-0.2,0.1-0.2,0.2-0.3L31.7,19.7z"/>
				</g>
				<g>
					<path d="M7.3,9.4l7.2,7l-0.5-0.2l0,0c0.3-0.1,0.6-0.1,1-0.1c0.3,0,0.6,0,1,0.1c0.6,0.1,1.3,0.3,1.8,0.6
						c0.2,0.2,0.3,0.4,0.2,0.6c-0.2,0.2-0.4,0.3-0.6,0.2l0,0c-0.5-0.2-1-0.5-1.4-0.6C15.6,17,15.3,17,15,17s-0.6,0-0.7,0.1l0,0h-0.1
						c-0.2,0-0.2-0.1-0.3-0.2L7.3,9.4z"/>
				</g>
				<g>
					<path d="M4.4,19.7l3.7,2.6c0.1,0.1,0.2,0.2,0.2,0.2v0.2l0,0c0,0.3,0,0.7,0,1c0.1,0.3,0.2,0.7,0.2,1c0.2,0.3,0.2,0.6,0.5,1
						c0.2,0.3,0.4,0.6,0.6,0.9l0,0c0.2,0.2,0.1,0.5-0.2,0.6c-0.2,0.1-0.4,0.1-0.6-0.1c-0.3-0.3-0.6-0.6-0.8-1
						c-0.2-0.4-0.4-0.7-0.6-1.2c-0.2-0.4-0.2-0.8-0.2-1.3c-0.1-0.4-0.1-0.8,0-1.3l0,0l0.2,0.4L4.4,19.7z"/>
				</g>
				<path class="st18" d="M12.4,28.7l-0.7,0.6c-0.6,0.5-1.5,0.4-2-0.2l0,0c-0.5-0.6-0.4-1.5,0.2-2l0.7-0.6c0.6-0.5,1.5-0.4,2,0.2
					l0,0C13.1,27.3,13,28.2,12.4,28.7z"/>
				<path class="st18" d="M14.3,30.8l-0.7,0.6c-0.6,0.5-1.5,0.4-2-0.2l0,0c-0.5-0.6-0.4-1.5,0.2-2l0.7-0.6c0.6-0.5,1.5-0.4,2,0.2
					l0,0C15,29.4,14.9,30.3,14.3,30.8z"/>
				<path class="st19" d="M16.3,32.7l-0.9,0.7c-0.6,0.5-1.4,0.4-1.8-0.2l0,0c-0.5-0.6-0.4-1.4,0.2-1.8l0.9-0.7
					c0.6-0.5,1.4-0.4,1.8,0.2l0,0C16.9,31.4,16.9,32.2,16.3,32.7z"/>
				<path class="st18" d="M18.4,34.8l-0.7,0.6c-0.6,0.5-1.5,0.4-2-0.2l0,0c-0.5-0.6-0.4-1.5,0.2-2l0.7-0.6c0.6-0.5,1.5-0.4,2,0.2
					l0,0C19,33.5,18.9,34.3,18.4,34.8z"/>
				<line class="st18" x1="20.6" y1="14" x2="22.3" y2="12.3"/>
				<line class="st18" x1="18.5" y1="13.8" x2="18.5" y2="11"/>
				<line class="st18" x1="16.7" y1="14" x2="15.1" y2="11.6"/>
			</g>
		</g>
	</g>
</g>
</svg>
