<?xml version="1.0" encoding="utf-8"?>
<!-- Generator: Adobe Illustrator 25.2.0, SVG Export Plug-In . SVG Version: 6.00 Build 0)  -->
<svg version="1.1" id="Слой_1" xmlns="http://www.w3.org/2000/svg" xmlns:xlink="http://www.w3.org/1999/xlink" x="0px" y="0px"
	 viewBox="0 0 40 40" style="enable-background:new 0 0 40 40;" xml:space="preserve">
<style type="text/css">
	.st0{fill:#FFD71C;}
	.st1{fill:#010101;}
	.st2{fill:none;stroke:#010101;stroke-width:0.4044;stroke-miterlimit:10;}
	.st3{fill:none;stroke:#010101;stroke-width:0.534;stroke-linecap:round;stroke-linejoin:round;stroke-miterlimit:10;}
	.st4{fill:#010101;stroke:#010101;stroke-width:0.178;stroke-miterlimit:10;}
	.st5{fill:none;stroke:#010101;stroke-width:0.395;stroke-linecap:round;stroke-linejoin:round;stroke-miterlimit:10;}
	.st6{fill:none;stroke:#010101;stroke-width:0.3256;stroke-linecap:round;stroke-linejoin:round;stroke-miterlimit:10;}
	.st7{fill:none;stroke:#010101;stroke-width:1.0195;stroke-linecap:round;stroke-linejoin:round;stroke-miterlimit:10;}
	.st8{fill:#FFFFFF;}
	.st9{fill:none;stroke:#010101;stroke-width:0.5279;stroke-linecap:round;stroke-linejoin:round;stroke-miterlimit:10;}
	.st10{fill:none;stroke:#010101;stroke-width:0.7388;stroke-miterlimit:10;}
	.st11{fill:none;stroke:#010101;stroke-width:0.7604;stroke-linecap:round;stroke-linejoin:round;stroke-miterlimit:10;}
	.st12{fill:none;stroke:#010101;stroke-width:0.8761;stroke-linecap:round;stroke-linejoin:round;stroke-miterlimit:10;}
	.st13{fill:none;stroke:#010101;stroke-width:0.7244;stroke-linecap:round;stroke-linejoin:round;stroke-miterlimit:10;}
	.st14{fill:none;stroke:#010101;stroke-width:0.5433;stroke-linecap:round;stroke-linejoin:round;stroke-miterlimit:10;}
	.st15{fill:#010101;stroke:#010101;stroke-width:0.5962;stroke-miterlimit:10;}
	.st16{fill:#010101;stroke:#010101;stroke-width:0.5962;stroke-linecap:round;stroke-linejoin:round;stroke-miterlimit:10;}
	.st17{opacity:0.51;enable-background:new    ;}
	.st18{fill:none;stroke:#000000;stroke-width:0.911;stroke-linecap:round;stroke-linejoin:round;stroke-miterlimit:10;}
	.st19{fill:none;stroke:#000000;stroke-width:0.8728;stroke-linecap:round;stroke-linejoin:round;stroke-miterlimit:10;}
	.st20{fill:none;stroke:#000000;stroke-width:0.7103;stroke-linecap:round;stroke-linejoin:round;stroke-miterlimit:10;}
	.st21{fill:none;stroke:#010101;stroke-width:0.8441;stroke-linecap:round;stroke-linejoin:round;stroke-miterlimit:10;}
</style>
<circle class="st0" cx="23.8" cy="14.4" r="11"/>
<g>
	<g id="Слой_1_14_">
		<g>
			<g>
				<g>
					<g>
						<g>
							<g>
								<path class="st1" d="M3.5,23.2c-0.1-1.3-0.1-2.7-0.1-4.1c0-0.2,0.2-0.4,0.4-0.5l2.2-0.7c0.2-0.1,0.4-0.2,0.4-0.2
									c0.1-0.1,0.2-0.2,0.2-0.2l0.4-1.1l0.4-1.1c0.1-0.2,0.1-0.2,0.1-0.3c0-0.1,0-0.1,0-0.1l-0.2-0.2l-1.1-2.2
									c-0.1-0.2-0.1-0.5,0.1-0.7l2.7-2.7C9.4,8.9,9.6,8.8,9.9,9l2.2,1.1l0.2,0.2c0.1,0,0.1,0,0.1,0s0,0,0.1,0c0.1,0,0.1,0,0.1,0
									s0.1,0,0.2-0.1l1.1-0.4l1.1-0.4c0.2-0.1,0.2-0.2,0.2,0l0.2-0.6L16,6.4C16,6.2,16.3,6,16.5,6h3.7l0,0l0,0
									c0.2,0,0.4,0.2,0.5,0.4l0.8,2.7l0.1,0.2c-0.1-0.1-0.1-0.1-0.1-0.1s0.2,0.1,0.2,0.1l0.7,0.2l1.3,0.6c0.5,0.2,0.7,0.3,1.1,0.2
									l1.3-0.6l0.7-0.3c0.1-0.1,0.2-0.2,0.5-0.2c0.2,0,0.4,0.2,0.6,0.2l1,1.1l1,1.1c0.1,0.1,0.2,0.3,0.2,0.6
									c0,0.2-0.1,0.3-0.2,0.5l-0.3,0.7L29,14.7c0.2-0.1,0.2,0,0.2,0.1c0,0.1,0,0.2,0,0.2c0,0.1,0.1,0.2,0.1,0.2l0.2,0.3l0.5,1.3
									c0.2,0.4,0.3,1.1,0.6,1l2.7,0.9l0,0c0.2,0.1,0.2,0.2,0.2,0.3l0,0l0.1,3.7l0,0l0,0c0,0.2-0.1,0.3-0.2,0.3
									c-0.9,0.2-1.8,0.5-2.7,0.8l-0.2,0.1c0.1,0,0,0,0,0c0,0.1-0.1,0.2-0.1,0.2l-0.2,0.7c-0.2,0.4-0.3,0.9-0.5,1.3
									c-0.2,0.5-0.3,0.8-0.1,1.2l0.7,1.2l0.3,0.7c0.1,0.1,0.2,0.3,0.2,0.6s-0.2,0.5-0.2,0.7l-1,1.1L29,32.3l-0.2,0.2
									c-0.1,0.1-0.2,0.2-0.3,0.3c-0.2,0.2-0.4,0.2-0.7,0.2c-0.2,0-0.4-0.1-0.6-0.2l-0.7-0.3L25,32.1L24.9,32h-0.1
									c-0.1,0-0.2,0-0.2,0s0,0-0.1,0l-0.2,0.1l-0.2,0.1l-1.3,0.5c-0.4,0.2-1.1,0.4-0.8,0.4L21,35.8l0,0l0,0
									c-0.1,0.2-0.3,0.4-0.5,0.4h-3.7c-0.2,0-0.4-0.2-0.5-0.4l-0.9-2.7l-0.1-0.2c0.1,0.2,0.1,0.2,0.1,0.2S15.2,33,15.1,33
									l-0.7-0.2l-1.4-0.6c-0.5-0.2-0.7-0.3-1-0.2l-1.2,0.7L10.1,33c-0.1,0.1-0.3,0.2-0.6,0.2c-0.3,0-0.6-0.2-0.7-0.2l-1.1-1.1
									l-0.6-0.5L7,31.1c-0.1-0.1-0.2-0.2-0.3-0.3c-0.2-0.2-0.2-0.4-0.2-0.7c0-0.2,0.1-0.4,0.2-0.6l0.3-0.7l0.7-1.2
									c0.1-0.2,0.1-0.2,0.1-0.2c0-0.1,0-0.2,0-0.2s-0.1-0.2-0.1-0.2l-0.2-0.3l-0.5-1.3l-0.2-0.7c0-0.1-0.1-0.2-0.1-0.2
									s0,0,0.1,0.1l-0.2-0.1C5.5,24,4.5,23.7,3.5,23.2z M4.4,22.6c0.8,0.2,1.7,0.4,2.5,0.7l0.2,0.1c0.2,0.1,0.3,0.2,0.3,0.3
									c0.2,0.2,0.2,0.3,0.2,0.4l0.2,0.7l0.5,1.3l0.2,0.3l0.1,0.2c0,0,0.1,0.2,0.1,0.2c0,0.2,0,0.3,0,0.6c0,0.2-0.1,0.4-0.2,0.5
									l-0.7,1.3L7.6,30c0,0.1,0,0.2,0,0.1V30l1,1l1,1c0.1,0,0,0,0,0c-0.1,0,0,0,0.1,0l0.7-0.3l1.3-0.7c0.1-0.1,0.3-0.2,0.5-0.2
									s0.3,0,0.5,0c0.4,0.1,0.5,0.2,0.8,0.2l1.3,0.5l0.7,0.2c0.1,0.1,0.2,0.1,0.4,0.2c0.1,0.1,0.2,0.1,0.3,0.4l0.1,0.2l0.9,2.7
									L16.7,35h3.7l-0.6,0.5l0,0l0.9-2.8v-0.1c0,0,0-0.1,0.1-0.2c0.1-0.2,0.2-0.2,0.3-0.3c0.2-0.1,0.3-0.2,0.4-0.2l0.7-0.2
									l1.3-0.5l0.3-0.2l0.2-0.1c0.1,0,0.2-0.1,0.3-0.1c0.2,0,0.3,0,0.6,0c0.1,0,0.2,0.1,0.2,0.1l0.2,0.1l1.3,0.7l0.7,0.3
									c0.1,0.1,0.2,0.1,0.1,0.1c-0.1,0-0.1,0-0.1,0l1-1l1-1c0.1-0.1,0,0,0,0s0,0-0.1-0.2L29,29.2l-0.6-1.3
									c-0.1-0.1-0.1-0.3-0.2-0.4c0-0.2,0-0.3,0-0.5c0.1-0.3,0.2-0.5,0.2-0.7c0.2-0.4,0.4-0.9,0.6-1.3l0.2-0.7
									c0.1-0.1,0.1-0.2,0.2-0.4c0.1-0.1,0.1-0.2,0.2-0.2l0.2-0.1c0.9-0.3,1.8-0.7,2.7-1l-0.2,0.4l0,0l0.1-3.7l0.2,0.3l0,0L30,18.5
									c-0.1,0-0.1,0-0.2-0.1c-0.2-0.1-0.2-0.2-0.2-0.2c-0.1-0.2-0.2-0.2-0.2-0.4l-0.1-0.6l-0.5-1.3l-0.2-0.3
									c0-0.1-0.1-0.2-0.1-0.4s0-0.3,0-0.5s0.1-0.3,0.2-0.4l0.7-1.3l0.3-0.7c0.1-0.1,0.1-0.2,0.1-0.2c0,0,0-0.1-0.1-0.1l-1-1l-1-1
									c-0.1-0.1-0.1-0.1-0.1-0.1s-0.1,0-0.2,0.1l-0.7,0.3l-1.3,0.7c-0.1,0.1-0.3,0.2-0.4,0.2c-0.2,0-0.3,0-0.5,0
									c-0.3-0.1-0.5-0.2-0.7-0.2l-1.4-0.5l-0.7-0.2c-0.1-0.1-0.2-0.1-0.4-0.2c-0.1-0.1-0.2-0.1-0.3-0.3l-0.1-0.2l-1-2.7L20.4,7
									l0,0h-3.7l0.5-0.4l-0.7,2.3l-0.2,0.6v0.1c0,0.1,0,0.1-0.1,0.1C16,9.8,16,9.8,16,9.8c-0.1,0.1-0.2,0.2-0.2,0.2
									c-0.2,0.1-0.2,0.2-0.3,0.2l-1.2,0.5l-1.2,0.5c-0.1,0-0.2,0.1-0.4,0.2c-0.2,0-0.3,0-0.5,0c-0.1,0-0.2,0-0.2-0.1
									c-0.1,0-0.2-0.1-0.2-0.1L11.5,11L9.3,9.9L10,9.8l-2.7,2.7l0.1-0.7l1.1,2.2l0.2,0.2c0.1,0.2,0.1,0.3,0.1,0.5
									c0,0.2,0,0.6-0.2,0.8L8,16.8L7.7,18c-0.2,0.2-0.3,0.5-0.6,0.7c-0.3,0.2-0.5,0.2-0.7,0.3l-2.3,0.7l0.4-0.5
									C4.5,20.3,4.5,21.4,4.4,22.6z"/>
							</g>
						</g>
					</g>
					<g>
						<path class="st1" d="M28.8,21.1c0,2.7-1.1,5.3-3,7.2s-4.6,3.1-7.2,3.1c-2.7,0-5.4-1.1-7.3-3s-3.1-4.6-3.1-7.3s1.2-5.4,3.1-7.3
							s4.7-3,7.3-3c2.7,0,5.4,1.2,7.2,3.1C27.7,15.7,28.8,18.4,28.8,21.1z M28.2,21.1c0-2.5-1.1-5-2.8-6.8c-1.7-1.7-4.3-2.8-6.8-2.7
							c-2.5,0-5,1.1-6.7,2.8s-2.7,4.2-2.7,6.7s1,5,2.7,6.7c1.7,1.7,4.2,2.8,6.7,2.8s5-1,6.8-2.7C27.1,26.1,28.2,23.6,28.2,21.1z"/>
					</g>
				</g>
				<g>
					<g>
						<path d="M15.6,25.7c-0.9,0-1.7,0-2.7,0c-0.3,0-0.7-0.3-0.7-0.7c0-0.1,0-0.2,0-0.2v-0.2v-0.3v-1.3v-2.6V19v-0.3
							c0-0.1,0-0.3,0.1-0.4c0.2-0.3,0.4-0.5,0.7-0.5h2.6c0.3,0,0.6,0.2,0.7,0.6c0,0.1,0,0.2,0,0.2v0.2v0.3v1.3V23v1.3v0.3
							c0,0.1,0,0.3-0.1,0.4C16.3,25.4,16,25.7,15.6,25.7z M15.6,25c0.1,0,0.2-0.1,0.2-0.2c0,0,0-0.3,0-0.5V23v-2.6v-1.3v-0.3v-0.2
							v-0.1c0-0.1-0.2-0.2-0.2-0.2h-2.6c-0.1,0-0.2,0.1-0.2,0.2c0,0.1,0,0.3,0,0.5v1.3v2.6v1.3v0.3v0.2c0,0,0,0,0,0.1
							c0,0.1,0.1,0.2,0.2,0.2L15.6,25z"/>
					</g>
					<g>
						<path d="M22,19.8H23h0.6c0.2,0,0.3,0,0.4-0.1c0.2-0.1,0.4-0.3,0.4-0.6c0-0.2-0.2-0.5-0.4-0.6c-0.1,0-0.1,0-0.2,0h-0.2H23H22
							h-1.1h-0.6h-0.1l0,0l0,0h-0.1c-0.2-0.1-0.3-0.3-0.2-0.5l0.1-0.2c0.2-0.6,0.4-1.3,0.2-1.9c-0.1-0.6-0.7-1.1-0.9-0.6
							c-0.3,0.5-0.6,1.3-1.1,1.9c-0.5,0.6-1.1,1.1-1.8,1.4c-0.2,0.1-0.4,0-0.5-0.2c-0.1-0.2,0-0.4,0.2-0.5l0,0l0,0
							c0.6-0.3,1.2-0.7,1.6-1.2c0.4-0.5,0.7-1.2,1.1-1.8c0.1-0.2,0.3-0.4,0.7-0.5c0.3,0,0.6,0.1,0.7,0.2c0.4,0.2,0.6,0.7,0.7,1.1
							c0.2,0.8,0,1.6-0.3,2.3l-0.1,0.2c0.1-0.1,0-0.2-0.2-0.3c0,0,0,0-0.1,0l0,0l0,0h0.1h0.6h1.1H23h0.6h0.2c0.1,0,0.2,0,0.3,0.1
							c0.4,0.2,0.7,0.6,0.7,1.1c0,0.5-0.3,0.9-0.7,1.1c-0.2,0.1-0.5,0.1-0.6,0.1H23h-1.1c-0.2,0-0.2-0.1-0.2-0.2
							C21.8,19.9,21.9,19.8,22,19.8z"/>
					</g>
					<g>
						<path d="M22.1,19.8H24h0.5c0.2,0,0.4,0.1,0.6,0.2c0.3,0.2,0.6,0.7,0.5,1.1c0,0.4-0.2,0.8-0.7,1c-0.2,0.1-0.5,0.1-0.7,0.1h-0.4
							H22c-0.2,0-0.4-0.2-0.4-0.4s0.2-0.4,0.4-0.4l0,0l1.8,0.1h0.4c0.2,0,0.2,0,0.2,0c0.2-0.1,0.2-0.2,0.2-0.4
							c0-0.2-0.1-0.3-0.2-0.5c-0.1-0.1-0.2-0.1-0.2-0.1h-0.4H22c-0.2,0-0.2-0.2-0.2-0.2C21.8,19.9,22,19.8,22.1,19.8z"/>
					</g>
					<g>
						<path d="M22.1,21.5h1.5c0.1,0,0.3,0,0.5,0.1c0.2,0.1,0.3,0.2,0.4,0.2c0.2,0.2,0.4,0.6,0.3,0.9c0,0.3-0.2,0.7-0.5,0.9
							c-0.2,0.2-0.7,0.2-0.9,0.2H22c-0.2,0-0.4-0.2-0.4-0.4s0.2-0.4,0.4-0.4l0,0l1.5,0.1c0.3,0,0.4,0,0.5-0.1
							c0.1-0.1,0.2-0.2,0.2-0.3c0-0.3-0.2-0.6-0.6-0.6h-1.5c-0.2,0-0.2-0.2-0.2-0.3C21.9,21.7,22,21.5,22.1,21.5z"/>
					</g>
					<path class="st20" d="M16.4,24.2c0,0,0.4,0.7,1.7,1c0.9,0.2,3.6,0.1,4.9,0c0.4,0,0.7-0.3,0.7-0.7l0,0c0.1-0.6-0.3-1-0.7-1H22"
						/>
					<circle cx="14.4" cy="23.8" r="0.7"/>
				</g>
			</g>
		</g>
	</g>
</g>
</svg>
