<?xml version="1.0" encoding="utf-8"?>
<!-- Generator: Adobe Illustrator 25.2.0, SVG Export Plug-In . SVG Version: 6.00 Build 0)  -->
<svg version="1.1" id="Слой_1" xmlns="http://www.w3.org/2000/svg" xmlns:xlink="http://www.w3.org/1999/xlink" x="0px" y="0px"
	 viewBox="0 0 40 40" style="enable-background:new 0 0 40 40;" xml:space="preserve">
<style type="text/css">
	.st0{fill:#FFD71C;}
	.st1{fill:#010101;}
	.st2{fill:none;stroke:#010101;stroke-width:0.4044;stroke-miterlimit:10;}
	.st3{fill:none;stroke:#010101;stroke-width:0.534;stroke-linecap:round;stroke-linejoin:round;stroke-miterlimit:10;}
	.st4{fill:#010101;stroke:#010101;stroke-width:0.178;stroke-miterlimit:10;}
	.st5{fill:none;stroke:#010101;stroke-width:0.395;stroke-linecap:round;stroke-linejoin:round;stroke-miterlimit:10;}
	.st6{fill:none;stroke:#010101;stroke-width:0.3256;stroke-linecap:round;stroke-linejoin:round;stroke-miterlimit:10;}
	.st7{fill:none;stroke:#010101;stroke-width:1.0195;stroke-linecap:round;stroke-linejoin:round;stroke-miterlimit:10;}
	.st8{fill:#FFFFFF;}
	.st9{fill:none;stroke:#010101;stroke-width:0.5279;stroke-linecap:round;stroke-linejoin:round;stroke-miterlimit:10;}
	.st10{fill:none;stroke:#010101;stroke-width:0.7388;stroke-miterlimit:10;}
	.st11{fill:none;stroke:#010101;stroke-width:0.7604;stroke-linecap:round;stroke-linejoin:round;stroke-miterlimit:10;}
	.st12{fill:none;stroke:#010101;stroke-width:0.8761;stroke-linecap:round;stroke-linejoin:round;stroke-miterlimit:10;}
	.st13{fill:none;stroke:#010101;stroke-width:0.7244;stroke-linecap:round;stroke-linejoin:round;stroke-miterlimit:10;}
	.st14{fill:none;stroke:#010101;stroke-width:0.5433;stroke-linecap:round;stroke-linejoin:round;stroke-miterlimit:10;}
	.st15{fill:#010101;stroke:#010101;stroke-width:0.5962;stroke-miterlimit:10;}
	.st16{fill:#010101;stroke:#010101;stroke-width:0.5962;stroke-linecap:round;stroke-linejoin:round;stroke-miterlimit:10;}
	.st17{opacity:0.51;enable-background:new    ;}
	.st18{fill:none;stroke:#000000;stroke-width:0.911;stroke-linecap:round;stroke-linejoin:round;stroke-miterlimit:10;}
	.st19{fill:none;stroke:#000000;stroke-width:0.8728;stroke-linecap:round;stroke-linejoin:round;stroke-miterlimit:10;}
	.st20{fill:none;stroke:#000000;stroke-width:0.7103;stroke-linecap:round;stroke-linejoin:round;stroke-miterlimit:10;}
	.st21{fill:none;stroke:#010101;stroke-width:0.8441;stroke-linecap:round;stroke-linejoin:round;stroke-miterlimit:10;}
</style>
<circle class="st0" cx="23.5" cy="20.2" r="12.3"/>
<g>
	<g id="Слой_1_1_">
		<g>
			<g>
				<g>
					<path class="st1" d="M11.3,14.7c0.1-0.3,0.2-0.5,0.4-0.7l0,0c0.1-0.1,0.2-0.1,0.3-0.1l2.1,1l-0.3,0.1c0.1-0.4,0.4-0.5,0.6-0.7
						c0.3-0.1,0.6-0.2,0.9-0.2c0.3,0,0.6,0.1,0.8,0.2l0.7,0.3l0,0c0.1,0,0.1,0.1,0.1,0.1c0.1,0.1,0.1,0.3,0.1,0.4c0,0.1,0,0.3,0,0.4
						l-0.1-0.2l3.3,1.8c0.1,0,0.1,0.1,0.1,0.1l0.1,0.5l-0.1-0.1l1,0.5h-0.3c0.3-0.2,0.5-0.1,0.7-0.1c0.1,0,0.2,0,0.4,0.1
						c0.1,0,0.2,0.1,0.3,0.1c0.4,0.1,0.6,0.4,1,0.6c0.3,0.2,0.6,0.4,0.9,0.6c0.1,0.1,0.1,0.1,0.2,0.3c0.1,0.1,0.1,0.1,0.1,0.3
						c0.1,0.2,0.1,0.4,0.2,0.6c0.1,0.4,0.1,0.8,0,1.2c-0.1,0.4-0.2,0.8-0.3,1.1c-0.3,0.7-0.6,1.4-0.9,2.1c-0.4,0.6-0.7,1.3-1.1,1.9
						c-0.2,0.3-0.4,0.6-0.7,0.9c-0.3,0.3-0.6,0.6-1,0.7c-0.4,0.1-0.9,0.2-1.3,0.1c-0.4-0.1-0.8-0.2-1.1-0.4c-0.4-0.1-0.7-0.4-1-0.6
						c-0.3-0.3-0.6-0.4-0.8-0.9l0.1,0.1c-0.3-0.1-0.6-0.3-0.9-0.5h0.4c-0.4,0.2-0.7,0.1-1.1,0.1c-0.4-0.1-0.6-0.3-0.8-0.4l-1.5-0.8
						l0.4-0.1c-0.3,0.4-0.6,0.9-0.9,1.4c-0.1,0.1-0.1,0.1-0.2,0.1l0,0c-0.9,0.1-1.7,0.4-2.6,0.4c-0.1,0-0.3-0.1-0.4-0.1
						c-0.9-1-1.8-2-2.7-3.1c-0.1-0.1-0.3-0.3-0.4-0.5S6,23.1,5.9,22.9c0-0.4,0.1-0.9,0.4-1.2c0.4-0.5,0.9-1.1,1.3-1.6l0.1,0.4
						L4.9,19h0.2c-0.3,0.1-0.6,0.1-0.9,0.1s-0.6-0.2-0.9-0.5c-0.2-0.3-0.2-0.6-0.3-0.9c0-0.3,0-0.6,0.1-0.9l0.4,0.2
						c-0.1,0.1-0.4,0.1-0.6,0s-0.3-0.4-0.4-0.5c-0.1-0.4,0-0.6,0.1-0.9c0.1-0.6,0.4-1.1,0.6-1.5c0.3-0.5,0.5-0.9,0.9-1.4
						c0.2-0.2,0.4-0.4,0.8-0.5c0.1,0,0.1-0.1,0.3,0c0.1,0,0.3,0.1,0.3,0.2c0.1,0.2,0.1,0.4,0.1,0.6L5.3,13c0.2-0.2,0.4-0.4,0.6-0.5
						c0.2-0.1,0.5-0.3,0.8-0.3c0.3-0.1,0.7,0.1,0.9,0.4c0.1,0.3,0.2,0.5,0.3,0.8l-0.1-0.1C9,13.7,10.2,14.2,11.3,14.7z M11.5,15.2
						c-1.3-0.5-2.5-1.1-3.8-1.6c-0.1,0-0.1-0.1-0.1-0.1l0,0c-0.1-0.2-0.1-0.5-0.2-0.6c-0.1-0.1-0.3-0.3-0.4-0.2
						c-0.4,0-0.9,0.4-1.1,0.6l0,0c-0.1,0.1-0.2,0.1-0.3,0c-0.1-0.1-0.1-0.1-0.1-0.2c0-0.1,0-0.2,0-0.2s0,0-0.1,0
						c-0.2,0.1-0.4,0.2-0.6,0.4c-0.4,0.4-0.6,0.8-0.9,1.3c-0.2,0.4-0.4,0.9-0.6,1.4c-0.1,0.2-0.1,0.5-0.1,0.7c0,0.1,0.1,0.1,0.1,0.1
						s0.1,0,0.2,0c0.1-0.1,0.3,0,0.3,0.1s0,0.1,0,0.1l0,0c0,0.2-0.1,0.5-0.1,0.7c0,0.2,0.1,0.5,0.2,0.6c0.1,0.1,0.3,0.3,0.5,0.3
						c0.2,0,0.4,0,0.6-0.1l0,0c0.1,0,0.1,0,0.2,0L8,20c0.1,0.1,0.1,0.2,0.1,0.4l0,0l0,0c-0.4,0.6-0.8,1.1-1.1,1.7
						c-0.1,0.2-0.2,0.5-0.1,0.7c0,0.1,0.1,0.2,0.1,0.4c0.1,0.1,0.1,0.1,0.3,0.3c0.9,1,1.9,2,2.7,3l-0.4-0.1c0.9-0.1,1.7-0.1,2.6-0.2
						L12,26.2c0.4-0.4,0.6-0.9,0.9-1.4c0.1-0.1,0.3-0.2,0.4-0.1l0,0l1.5,0.7c0.2,0.1,0.5,0.3,0.7,0.4s0.4,0.1,0.6,0l0,0
						c0.1-0.1,0.2,0,0.4,0c0.3,0.2,0.6,0.4,0.9,0.6c0.1,0,0.1,0.1,0.1,0.1l0,0c0.1,0.2,0.4,0.4,0.6,0.6c0.3,0.2,0.6,0.4,0.9,0.4
						c0.6,0.2,1.4,0.3,1.9,0.1c0.5-0.2,1-0.8,1.4-1.4c0.4-0.6,0.8-1.2,1.1-1.9c0.4-0.6,0.6-1.3,0.9-1.9c0.1-0.4,0.3-0.7,0.3-1
						c0.1-0.4,0.1-0.7,0-1c0-0.1-0.1-0.3-0.1-0.4c0-0.1-0.1-0.1-0.1-0.2c0-0.1-0.1-0.1-0.1-0.1c-0.2-0.2-0.6-0.4-0.9-0.6
						c-0.6-0.4-1.3-0.9-1.7-0.6h-0.1c-0.1,0-0.1,0-0.2,0L20.4,18c-0.1,0-0.1-0.1-0.1-0.1l-0.1-0.5l0.1,0.1l-3.4-1.6
						c-0.1-0.1-0.1-0.1-0.1-0.2c0-0.1,0-0.2,0-0.4c0-0.1-0.1-0.2-0.1-0.3l0.1,0.1L16,14.9c-0.3-0.1-0.4-0.2-0.7-0.2
						c-0.2,0-0.4,0-0.6,0.1c-0.2,0.1-0.4,0.3-0.4,0.4l0,0c-0.1,0.1-0.2,0.2-0.3,0.1l0,0l-2.1-1l0.3-0.1
						C11.9,14.6,11.7,14.9,11.5,15.2z"/>
				</g>
				<g>
					<path class="st1" d="M21.9,27.2c0.4,0.1,0.9,0.4,1.2,0.6h-0.3c0.1-0.1,0.3-0.2,0.4-0.3l0.1-0.1c0.1,0,0.1,0,0.2,0l0,0
						c0.5,0.2,0.9,0.4,1.4,0.7c0.1,0.1,0.1,0.1,0.1,0.3l0,0c0,0.1,0.1,0.3,0.1,0.4c0.1,0.1,0.1,0.1,0.3,0.2c0.1,0,0.3,0,0.4-0.1
						c0.1-0.1,0.4-0.1,0.5-0.2l0,0c0.1-0.1,0.2-0.1,0.4,0L27,29c0.1,0,0.1,0.1,0.1,0h0.1l0,0l0.1-0.1l0.3-0.2l0,0
						c0.1-0.1,0.3-0.1,0.4-0.1c0.2,0.1,0.4,0.1,0.5,0.1s0.3,0,0.4-0.1c0.1-0.1,0.3-0.1,0.4-0.3l0.1-0.1l0.1-0.1l0.1-0.3
						c0.1-0.2,0.2-0.4,0.3-0.6c0.1-0.1,0.1-0.3,0.1-0.4c0-0.1-0.1-0.3-0.2-0.4c-0.1-0.1-0.2-0.2-0.4-0.3l0,0l0,0
						c-0.1-0.1-0.2-0.2-0.1-0.4l0.1-0.4v-0.1v-0.1v-0.1c0-0.1-0.1-0.1-0.1-0.1L28.8,25l0,0l0,0c-0.1-0.1-0.1-0.1-0.1-0.2
						c0-0.2,0-0.4-0.1-0.6c-0.1-0.1-0.1-0.4-0.2-0.4c-0.1-0.1-0.2-0.1-0.4-0.1s-0.4,0-0.5,0.1l0,0c-0.1,0.1-0.1,0.1-0.2,0l0,0
						l-1.4-0.9l0,0c-0.1,0-0.1-0.1-0.1-0.1v-0.5l0,0l0.1,0.1l-1.2-0.9l1.4,0.6c0.1,0,0.1,0.1,0.1,0.1l0,0l0,0v0.5l-0.1-0.1l0,0
						l1.4,0.6h-0.2l0,0c0.2-0.1,0.4-0.1,0.7-0.1c0.3,0,0.5,0.1,0.7,0.3s0.3,0.4,0.4,0.6c0.1,0.2,0.1,0.4,0.1,0.6l-0.1-0.2l0,0
						l0.4,0.1c0.1,0.1,0.4,0.2,0.4,0.4c0.1,0.1,0.1,0.2,0.1,0.3s0,0.1,0,0.1v0.1v0.4l-0.1-0.4l0,0c0.1,0.1,0.4,0.3,0.6,0.5
						c0.2,0.2,0.3,0.5,0.4,0.8c0.1,0.3,0,0.6-0.1,0.9c-0.1,0.3-0.2,0.4-0.3,0.6l-0.1,0.3l-0.2,0.1c-0.1,0.1-0.1,0.1-0.1,0.2
						c-0.1,0.2-0.4,0.4-0.6,0.5c-0.3,0.1-0.6,0.1-0.9,0.1s-0.6-0.1-0.7-0.2l0.4-0.1l-0.3,0.3l-0.1,0.1c-0.1,0-0.1,0.1-0.1,0.1
						c-0.1,0.1-0.2,0.1-0.3,0.1c-0.2,0-0.4,0-0.6-0.1l-0.4-0.2h0.4c-0.2,0.1-0.4,0.2-0.6,0.3c-0.2,0.1-0.5,0.1-0.8,0.1
						c-0.3-0.1-0.6-0.2-0.7-0.5c-0.1-0.2-0.2-0.5-0.3-0.8l0.1,0.3c-0.4-0.3-0.9-0.5-1.3-0.9l0,0h0.3c-0.1,0.1-0.3,0.2-0.4,0.3l0,0
						c-0.1,0.1-0.2,0.1-0.3,0c-0.4-0.2-0.8-0.5-1.1-0.8c-0.1-0.1-0.1-0.2-0.1-0.3C21.7,27.2,21.8,27.2,21.9,27.2z"/>
				</g>
				<g>
					<path class="st1" d="M14,17.1l-3.9,0.4l0.3-0.1l-3.5,4.8c-0.1,0.1-0.4,0.2-0.5,0.1c-0.1-0.1-0.2-0.4-0.1-0.5L9.8,17l0,0
						c0.1-0.1,0.1-0.1,0.3-0.1L14,17.1z"/>
				</g>
				<path class="st3" d="M10.3,17.4l2.7,2.5c0.5,0.4,0.6,1.2,0.2,1.7l-3.4,5.1"/>
				<g>
					<path class="st1" d="M9.9,18.9c0.5,0.4,1,0.7,1.5,1.1c0.1,0.1,0.2,0.1,0.4,0.3c0.1,0.1,0.2,0.3,0.3,0.5c0.1,0.2,0,0.4,0,0.6
						c-0.1,0.2-0.2,0.4-0.3,0.5c-0.7,1-1.5,2-2.3,2.8c0.6-1.1,1.2-2.1,1.9-3.1c0.1-0.1,0.1-0.2,0.2-0.3c0.1-0.1,0.1-0.2,0-0.4
						c0-0.1-0.1-0.2-0.1-0.3s-0.2-0.2-0.3-0.3C10.7,19.8,10.3,19.3,9.9,18.9z"/>
				</g>
				<path class="st4" d="M21.7,20.3c-0.4,1.4-0.9,2.6-1.6,3.8c-0.4,0.6-0.8,1.1-1.2,1.7c-0.2,0.3-0.5,0.5-0.8,0.7
					c-0.3,0.2-0.4,0.4-0.9,0.4c-0.1,0-0.2-0.1-0.2-0.2s0-0.2,0.1-0.2l0,0l0,0c0.2,0,0.6-0.1,0.9-0.3c0.3-0.1,0.5-0.4,0.8-0.6
					c0.5-0.5,0.9-1,1.3-1.6C20.7,22.9,21.3,21.6,21.7,20.3z"/>
				<path class="st4" d="M18.9,23.3c-0.4,0.6-0.8,1.1-1.3,1.6c-0.1,0.1-0.4,0.4-0.6,0.5c0,0-0.8,0.4-1.1,0.6c-0.1,0-0.1,0-0.1,0.1
					c-0.1,0.1-0.1,0.1-0.1,0.1c0,0.1,0.2,0.2,0.4,0.2c0.4,0,0.7-0.2,1-0.4c0.3-0.2,0.6-0.5,0.8-0.8c0.5-0.5,0.8-1.1,1.1-1.7
					c0.7-1.2,1.2-2.5,1.6-3.8C20.3,20.8,19.7,22.1,18.9,23.3z"/>
				<g>
					<path class="st1" d="M24.6,28.2c0.3-0.1,0.6-0.4,0.8-0.6c0.3-0.3,0.5-0.6,0.7-0.9c0.4-0.6,0.7-1.4,1-2.1
						c-0.1,0.8-0.4,1.5-0.6,2.3c-0.1,0.4-0.4,0.7-0.6,1.1s-0.5,0.6-0.9,0.9c-0.1,0.1-0.4,0.1-0.5-0.1C24.4,28.7,24.5,28.5,24.6,28.2
						C24.6,28.2,24.6,28.2,24.6,28.2L24.6,28.2z"/>
				</g>
				<g>
					<path class="st1" d="M26.2,28.9c0.3-0.1,0.6-0.4,0.8-0.6c0.3-0.3,0.5-0.6,0.7-0.9c0.4-0.6,0.7-1.4,1-2.1
						c-0.1,0.8-0.4,1.5-0.6,2.3c-0.1,0.4-0.4,0.7-0.6,1.1c-0.2,0.4-0.5,0.6-0.9,0.9c-0.1,0.1-0.4,0.1-0.5-0.1
						C26,29.3,26.1,29.1,26.2,28.9C26.1,28.9,26.2,28.9,26.2,28.9L26.2,28.9z"/>
				</g>
				<g>
					<path class="st1" d="M5.2,18.4C5.5,18.3,5.8,18,6,17.7c0.2-0.3,0.4-0.6,0.6-0.9c0.4-0.6,0.6-1.4,0.8-2.1l0,0l0,0
						c-0.1,0.7-0.4,1.4-0.6,2.1c-0.1,0.4-0.4,0.6-0.6,1c-0.2,0.3-0.5,0.6-0.8,0.9c-0.1,0.1-0.2,0.1-0.3-0.1
						C5.1,18.6,5.1,18.5,5.2,18.4C5.1,18.4,5.1,18.4,5.2,18.4L5.2,18.4z"/>
				</g>
				<g>
					<path class="st1" d="M3.5,16.6c0.2-0.1,0.4-0.3,0.6-0.4c0.2-0.2,0.4-0.4,0.6-0.6c0.4-0.4,0.6-1,0.7-1.5l0,0l0,0
						c-0.1,0.6-0.2,1.1-0.4,1.7c-0.1,0.3-0.3,0.6-0.5,0.8c-0.2,0.2-0.4,0.5-0.7,0.7c-0.1,0.1-0.4,0.1-0.5-0.1
						c-0.1-0.1-0.1-0.4,0.1-0.5C3.4,16.6,3.5,16.6,3.5,16.6L3.5,16.6z"/>
				</g>
			</g>
			<g>
				<g>
					<circle class="st0" cx="23.6" cy="16.8" r="5.8"/>
					<path class="st1" d="M29.1,14.3c0.6,1.4,0.7,3.1,0.1,4.6c-0.6,1.5-1.7,2.7-3.2,3.4c-1.4,0.6-3.2,0.7-4.7,0.1
						c-1.5-0.6-2.8-1.8-3.4-3.2c-0.6-1.5-0.6-3.2-0.1-4.7c0.6-1.5,1.8-2.7,3.3-3.3c1.5-0.6,3.2-0.6,4.6-0.1
						C27.3,11.7,28.5,12.9,29.1,14.3z M28.7,14.5c-0.6-1.4-1.7-2.4-3.1-2.9c-1.4-0.5-2.9-0.5-4.2,0.1c-1.4,0.6-2.3,1.7-2.9,3.1
						c-0.5,1.4-0.5,2.8,0.1,4.2c0.6,1.3,1.6,2.4,3,2.9c1.4,0.6,2.9,0.5,4.2-0.1c1.4-0.6,2.4-1.7,2.9-3.1
						C29.3,17.4,29.3,15.9,28.7,14.5z"/>
				</g>
				<g>
					<g>
						<g>
							<g>
								<path class="st1" d="M19.4,17.4c0-0.4-0.1-0.8-0.1-1.2c0-0.1,0.1-0.2,0.2-0.2l0,0l0.6-0.2c0.1,0,0.1-0.1,0.1,0
									c0,0,0,0,0-0.1l0.1-0.3l0.1-0.3c0-0.1,0-0.1,0-0.1l0,0V15l-0.3-0.6l0,0l0,0c-0.1-0.1,0-0.1,0.1-0.2l0.7-0.7
									c0.1-0.1,0.1-0.1,0.2-0.1l0.6,0.3c0.1,0.1,0.1,0.1,0.1,0l0.3-0.1l0.3-0.1c0.1,0,0.1-0.1,0,0l0.1-0.1l0.2-0.6
									c0-0.1,0.1-0.1,0.2-0.1h1l0,0l0,0c0.1,0,0.1,0.1,0.2,0.1l0.2,0.8c-0.1-0.1,0.1,0.1,0.2,0.1l0.4,0.1c0.1,0.1,0.2,0.1,0.3,0.1
									l0.4-0.1l0.1-0.1c0,0,0.1-0.1,0.1-0.1c0.1,0,0.1,0.1,0.1,0.1l0.3,0.3l0.3,0.3c0,0,0.1,0.1,0.1,0.1s0,0.1-0.1,0.1l-0.1,0.1
									l-0.1,0.4c-0.1,0.1,0,0.1,0,0.3l0.1,0.4c0.1,0.1,0.1,0.3,0.1,0.3l0.8,0.2l0,0c0.1,0,0.1,0.1,0.1,0.1v1l0,0
									c0,0.1-0.1,0.1-0.1,0.1l0,0l-0.7,0.3c0-0.1-0.1,0.1-0.1,0.2l-0.1,0.4c-0.1,0.1-0.1,0.2-0.1,0.3l0.2,0.4l0.1,0.1
									c0,0,0.1,0.1,0.1,0.1s-0.1,0.1-0.1,0.2l-0.2,0.4L26.3,20c-0.1,0.1-0.1,0.1-0.2,0.1s-0.1,0-0.2-0.1l-0.1-0.1l-0.4-0.1
									c-0.1-0.1-0.1,0-0.2,0l-0.4,0.1c-0.1,0-0.3,0.1-0.2,0.1l-0.2,0.7l0,0c0,0.1-0.1,0.1-0.2,0.1h-1l0,0c-0.1,0-0.1-0.1-0.2-0.1
									L22.7,20c0.1,0.1-0.1,0-0.2-0.1l-0.4-0.1c-0.1-0.1-0.1-0.1-0.2-0.1l-0.4,0.1l-0.1,0.1c-0.1,0-0.1,0.1-0.2,0.1
									S21,19.9,21,19.9l-0.3-0.3l-0.4-0.2c-0.1,0-0.1-0.1-0.1-0.2s0.1-0.1,0.1-0.2l0.1-0.1l0.1-0.4c0-0.1,0,0,0-0.1l0,0
									c0,0,0,0,0-0.1l-0.1-0.1l-0.1-0.4l-0.1-0.2c0,0,0-0.1,0,0c0,0,0,0,0.1,0.1c0,0,0,0-0.1,0C20,17.6,19.7,17.5,19.4,17.4z
									 M19.9,17.1c0.2,0.1,0.4,0.1,0.6,0.1h0.1c0.1,0.1,0.1,0.1,0.1,0.1c0.1,0.1,0.1,0.1,0.1,0.1l0.1,0.2l0.1,0.4v0.1
									c0,0,0,0.1,0.1,0.1c0,0.1,0,0.1,0,0.2S21,18.6,21,18.6L20.8,19l-0.1,0.2l0,0v-0.1l0.3,0.3l0.3,0.3c0,0,0,0-0.1,0
									c0,0-0.1,0,0,0l0.2-0.1l0.4-0.1c0.2-0.1,0.4,0,0.6,0l0.4,0.1l0.2,0.1c0,0,0.1,0,0.1,0.1c0,0,0.1,0.1,0.1,0.1V20l0.2,0.8
									l-0.2-0.1l0,0h1L24,20.8l0,0l0.2-0.8c0,0,0,0,0.1-0.1c0-0.1,0.1-0.1,0.1-0.1c0.1,0,0.1-0.1,0.1-0.1l0.2-0.1l0.4-0.1
									c0.1,0,0.1-0.1,0.2-0.1c0.1,0,0.1,0,0.1,0c0.1,0,0.1,0.1,0.1,0.1l0.4,0.2l0.1,0.1l0,0H26l0.3-0.3l0.3-0.3c0,0,0,0,0,0.1l0,0
									l-0.1-0.2l-0.1-0.4c-0.1-0.2,0-0.4,0.1-0.5l0.1-0.4l0.1-0.2c0,0,0-0.1,0.1-0.1c0,0,0.1-0.1,0.1-0.1h0.1l0.8-0.2h-0.2l0,0v-1
									l0.1,0.1l0,0l-0.8-0.2l-0.1-0.1c0-0.1-0.1-0.1-0.1-0.1l-0.1-0.2l-0.1-0.4c0-0.1-0.1-0.1-0.1-0.2c0-0.1,0-0.2,0.1-0.2
									l0.1-0.4l0.1-0.2c0-0.1,0,0,0-0.1l-0.3-0.3l-0.1-0.4c0,0,0,0-0.1,0l-0.1,0.1L25.6,14c-0.1,0.1-0.4,0-0.5,0l-0.4-0.1
									l-0.2-0.1c0,0-0.1,0-0.1-0.1c0,0-0.1-0.1-0.1-0.1v-0.1L24,12.7l0.2,0.1l0,0h-1l0.2-0.1l-0.4,0.7v0.2
									c-0.1,0.2-0.2,0.2-0.2,0.2L22.6,14l-0.3,0.1c0,0-0.2,0.1-0.3,0.1c-0.1,0-0.1,0-0.1-0.1l-0.1-0.1l-0.6-0.3l0.2-0.1l-0.7,0.7
									l0.1-0.2l0,0l0.3,0.6l0.1,0.1c0,0.1,0,0.1,0.1,0.1c0,0.1,0,0.2-0.1,0.3L21,15.6l-0.1,0.4c-0.1,0.1-0.1,0.1-0.1,0.2
									c-0.1,0.1-0.1,0.1-0.2,0.1l-0.6,0.2l0,0l0.2-0.2C19.9,16.5,19.9,16.8,19.9,17.1z"/>
							</g>
						</g>
					</g>
					<g>
						<path class="st1" d="M26,16.7c0.1,1.3-1.1,2.4-2.3,2.4c-0.6,0-1.3-0.2-1.7-0.7c-0.4-0.4-0.7-1.1-0.7-1.7s0.3-1.3,0.7-1.7
							c0.4-0.4,1.1-0.7,1.7-0.7C24.9,14.3,26.1,15.5,26,16.7z M25.7,16.7c0-0.6-0.2-1.1-0.6-1.4c-0.4-0.4-0.9-0.6-1.4-0.6
							c-1.1,0-2,1-2,2c0,1.1,0.9,2,2,2c0.5,0,1.1-0.2,1.4-0.6C25.5,17.9,25.7,17.3,25.7,16.7z"/>
					</g>
				</g>
			</g>
		</g>
	</g>
</g>
</svg>
