<?xml version="1.0" encoding="utf-8"?>
<!-- Generator: Adobe Illustrator 25.2.0, SVG Export Plug-In . SVG Version: 6.00 Build 0)  -->
<svg version="1.1" id="Слой_1" xmlns="http://www.w3.org/2000/svg" xmlns:xlink="http://www.w3.org/1999/xlink" x="0px" y="0px"
	 viewBox="0 0 40 40" style="enable-background:new 0 0 40 40;" xml:space="preserve">
<style type="text/css">
	.st0{fill:#FFD71C;}
	.st1{fill:#010101;}
	.st2{fill:none;stroke:#010101;stroke-width:0.4044;stroke-miterlimit:10;}
	.st3{fill:none;stroke:#010101;stroke-width:0.534;stroke-linecap:round;stroke-linejoin:round;stroke-miterlimit:10;}
	.st4{fill:#010101;stroke:#010101;stroke-width:0.178;stroke-miterlimit:10;}
	.st5{fill:none;stroke:#010101;stroke-width:0.395;stroke-linecap:round;stroke-linejoin:round;stroke-miterlimit:10;}
	.st6{fill:none;stroke:#010101;stroke-width:0.3256;stroke-linecap:round;stroke-linejoin:round;stroke-miterlimit:10;}
	.st7{fill:none;stroke:#010101;stroke-width:1.0195;stroke-linecap:round;stroke-linejoin:round;stroke-miterlimit:10;}
	.st8{fill:#FFFFFF;}
	.st9{fill:none;stroke:#010101;stroke-width:0.5279;stroke-linecap:round;stroke-linejoin:round;stroke-miterlimit:10;}
	.st10{fill:none;stroke:#010101;stroke-width:0.7388;stroke-miterlimit:10;}
	.st11{fill:none;stroke:#010101;stroke-width:0.7604;stroke-linecap:round;stroke-linejoin:round;stroke-miterlimit:10;}
	.st12{fill:none;stroke:#010101;stroke-width:0.8761;stroke-linecap:round;stroke-linejoin:round;stroke-miterlimit:10;}
	.st13{fill:none;stroke:#010101;stroke-width:0.7244;stroke-linecap:round;stroke-linejoin:round;stroke-miterlimit:10;}
	.st14{fill:none;stroke:#010101;stroke-width:0.5433;stroke-linecap:round;stroke-linejoin:round;stroke-miterlimit:10;}
	.st15{fill:#010101;stroke:#010101;stroke-width:0.5962;stroke-miterlimit:10;}
	.st16{fill:#010101;stroke:#010101;stroke-width:0.5962;stroke-linecap:round;stroke-linejoin:round;stroke-miterlimit:10;}
	.st17{opacity:0.51;enable-background:new    ;}
	.st18{fill:none;stroke:#000000;stroke-width:0.911;stroke-linecap:round;stroke-linejoin:round;stroke-miterlimit:10;}
	.st19{fill:none;stroke:#000000;stroke-width:0.8728;stroke-linecap:round;stroke-linejoin:round;stroke-miterlimit:10;}
	.st20{fill:none;stroke:#000000;stroke-width:0.7103;stroke-linecap:round;stroke-linejoin:round;stroke-miterlimit:10;}
	.st21{fill:none;stroke:#010101;stroke-width:0.8441;stroke-linecap:round;stroke-linejoin:round;stroke-miterlimit:10;}
</style>
<circle class="st0" cx="17" cy="20.2" r="13.2"/>
<g>
	<g id="Слой_1_7_">
		<g>
			<g>
				<g>
					<g>
						<path class="st1" d="M29.1,18.7c-0.1-0.1-0.1-0.2-0.1-0.3c-0.3-0.2-0.7-0.3-1-0.4c-0.6-0.2-1.1-0.3-1.7-0.3h-9.6
							c-0.6,0-1.1,0-1.7,0.1c-2.2,0.3-4.1,2-4.7,4.1H9.1c-0.3-0.4-0.6-0.7-1-0.8C7.8,21,7.5,21,7.3,21l-0.7,0.1L4,21.2
							c-0.1,0.1,0,0.1,0,0.1l2.8,0.1c0.4,0.1,0.9,0,1.2,0.2c0.3,0.1,0.5,0.3,0.6,0.7c0,0.2,0.2,0.3,0.3,0.3h1.7
							c0.2,0,0.3-0.2,0.4-0.3c0.4-1.9,2.1-3.5,4.1-3.8c0.4-0.1,1-0.1,1.5-0.1h9.6c0.5,0,1,0.1,1.5,0.3c0.7,0.2,1.4,0.6,1.9,1.1
							C29.4,19.3,29.2,19,29.1,18.7z"/>
					</g>
					<g>
						<path class="st1" d="M4,26.3L6.6,26c0.4-0.1,0.9-0.1,1.2-0.2c0.3-0.2,0.5-0.4,0.6-0.7l0,0l0,0c0.1-0.2,0.3-0.3,0.4-0.3h1.8
							l0,0c0.2,0,0.3,0.2,0.4,0.3c0.5,1.6,1.9,2.9,3.5,3.2c0.4,0.1,0.8,0.1,1.3,0.1h1.3h2.8h5.5h0.7c0.2,0,0.4,0,0.6-0.1
							c0.4-0.1,0.8-0.2,1.2-0.3c0.8-0.3,1.4-0.8,1.9-1.4l0,0v-0.1c0.2-0.3,0.6-0.3,0.8-0.1c0.1,0.1,0.1,0.1,0.2,0.2l2.2,4.1l0,0
							c0,0.1,0,0.1,0,0.2l0,0c0,0.3-0.1,0.6,0,0.8c0.1,0.2,0.2,0.2,0.5,0.3c0.6,0,1.2-0.3,1.7-0.5c0.5-0.3,1-0.7,1.4-1.2
							c0.4-0.4,0.8-1,0.7-1.5l0,0l0,0c0-0.1-0.1-0.2-0.3-0.3c-0.2,0-0.4,0-0.7,0l0,0l0,0c-0.1,0-0.2,0-0.3-0.1l-3.6-4.7l4.1,4.3
							L36.3,28l0,0c0.3-0.1,0.6-0.1,0.8-0.1c0.2,0,0.3,0.1,0.5,0.3c0.2,0.2,0.3,0.3,0.3,0.6v-0.1c0.1,0.4-0.1,0.8-0.3,1.1
							c-0.2,0.3-0.3,0.6-0.6,0.8c-0.4,0.5-1,0.9-1.6,1.3s-1.3,0.6-2,0.6c-0.1,0-0.2,0-0.3,0s-0.3,0-0.3-0.1
							c-0.3-0.1-0.4-0.3-0.4-0.6c-0.1-0.4,0-0.8,0.1-1.1v0.2l0,0l-2.7-3.7l0.9,0.1l0,0c-0.7,0.8-1.4,1.4-2.4,1.8
							c-0.5,0.2-0.9,0.3-1.4,0.4c-0.3,0-0.5,0.1-0.8,0.1h-0.7h-5.5h-2.8h-1.3c-0.5,0-1-0.1-1.4-0.2c-1.9-0.5-3.5-2-4.1-3.9l0.4,0.3
							l0,0H8.9l0.4-0.3l0,0c-0.3,0.5-0.7,0.9-1.3,1.1c-0.3,0.1-0.6,0.1-0.8,0.1l-0.7-0.1L4,26.3z"/>
					</g>
					<g>
						<g>
							<circle class="st1" cx="14.4" cy="20.2" r="0.8"/>
							<circle class="st1" cx="17" cy="20.2" r="0.8"/>
							<circle class="st1" cx="19.6" cy="20.2" r="0.8"/>
						</g>
						<g>
							<circle class="st1" cx="14.4" cy="22.5" r="0.8"/>
							<circle class="st1" cx="17" cy="22.5" r="0.8"/>
							<circle class="st1" cx="19.6" cy="22.5" r="0.8"/>
							<circle class="st1" cx="22.2" cy="22.5" r="0.8"/>
						</g>
						<g>
							<circle class="st1" cx="14.4" cy="24.8" r="0.8"/>
							<circle class="st1" cx="17" cy="24.8" r="0.8"/>
							<circle class="st1" cx="19.6" cy="24.8" r="0.8"/>
							<circle class="st1" cx="22.2" cy="24.8" r="0.8"/>
							<path class="st1" d="M25,24.9c0,0.4,0.2,0.6-0.2,0.6c-0.4,0-0.8-0.3-0.8-0.8c0-0.4-0.3-0.4,0.2-0.4
								C24.6,24.3,25,24.5,25,24.9z"/>
						</g>
						<g>
							<circle class="st1" cx="14.4" cy="27" r="0.8"/>
							<circle class="st1" cx="17" cy="27" r="0.8"/>
							<circle class="st1" cx="19.6" cy="27" r="0.8"/>
							<circle class="st1" cx="22.2" cy="27" r="0.8"/>
							<circle class="st1" cx="24.8" cy="27" r="0.8"/>
						</g>
					</g>
					<path class="st10" d="M19.6,18.1c0.1,0.3,8.1,10.7,8.1,10.7"/>
				</g>
			</g>
			<g>
				<g>
					<path class="st0" d="M29.9,20.7c-0.1-1.4-0.2-2.6-0.5-4c-0.3-1.2-0.3-2.2-1.1-3.2c-0.7-0.9-1.5-1.6-2.1-2.5
						c-1.8,1.3-3,3.4-3,5.8c0,3.9,2.2,7,6.1,7.1C29.5,23,29.9,21.7,29.9,20.7z"/>
					<path class="st1" d="M37.1,13.9c0.8,1.8,0.9,3.9,0.2,5.7c-0.7,1.9-2.1,3.4-4,4.2c-1.8,0.8-4,0.8-5.8,0.2
						c-1.9-0.7-3.5-2.2-4.2-4c-0.8-1.9-0.8-4-0.1-5.8s2.2-3.4,4-4.1c1.9-0.8,4-0.8,5.7-0.1C34.9,10.6,36.3,12.1,37.1,13.9z
						 M36.6,14.1c-0.8-1.7-2.1-2.9-3.8-3.6c-1.7-0.7-3.6-0.6-5.2,0.2c-1.6,0.8-2.9,2.1-3.5,3.8c-0.7,1.7-0.6,3.5,0.2,5.1
						c0.8,1.6,2,2.9,3.7,3.5c1.6,0.7,3.5,0.6,5.1-0.1c1.6-0.7,2.9-2,3.6-3.7C37.4,17.7,37.4,15.8,36.6,14.1z"/>
				</g>
			</g>
			<g>
				<g>
					<path class="st1" d="M29.4,16.3c-0.3,0.7-0.8,1.3-1.5,1.8c-0.7,0.4-1.5,0.7-2.4,0.6l0,0l0.4-0.7c0.3,0.3,0.6,0.8,1,1.1
						c0.3,0.3,0.8,0.6,1.3,0.8c0.8,0.5,1.9,0.8,2.9,0.8l0,0l-0.3,0.2c0.7-1.2,1.3-2.4,1.6-3.6l0.7-0.2c-0.2,0.8-0.4,1.7-0.8,2.3
						c-0.3,0.6-0.7,1.2-1.1,1.8c-0.1,0.1-0.2,0.2-0.3,0.2l0,0l0,0c-1.1,0-2.2-0.3-3.2-0.8c-0.5-0.3-0.9-0.5-1.4-0.9
						c-0.4-0.3-0.8-0.8-1.2-1.2c-0.2-0.2-0.1-0.4,0.1-0.6c0.1-0.1,0.2-0.1,0.3-0.1h0.1l0,0c0.3,0,0.7,0,1,0c0.3,0,0.7-0.1,1-0.2
						C28.3,17.2,28.9,16.8,29.4,16.3z"/>
				</g>
				<g>
					<path class="st1" d="M29.5,15.9c0-0.1,0.1-0.3,0.1-0.3c0-0.1,0.1-0.1,0.1-0.2c0.1-0.1,0.2-0.2,0.3-0.3c0.2-0.2,0.4-0.2,0.6-0.3
						c0.3,0,0.4,0,0.7,0.1l0.5,0.3l0.5,0.3c0.2,0.1,0.4,0.3,0.5,0.4c0.3,0.3,0.4,0.9,0.3,1.3l0,0c-0.1,0.2-0.3,0.3-0.4,0.2l0,0
						C31.5,17,30.5,16.4,29.5,15.9z M29.9,15.8l3,1.2l-0.4,0.2l0,0c0.1-0.3,0.1-0.5-0.1-0.8c-0.1-0.1-0.2-0.3-0.3-0.3l-0.5-0.3
						L31,15.5c-0.1-0.1-0.3-0.1-0.4-0.1s-0.3,0.1-0.4,0.2c-0.1,0-0.2,0.1-0.2,0.2C30,15.8,30,15.8,29.9,15.8
						C29.9,15.8,30,15.8,29.9,15.8z"/>
				</g>
				<path class="st1" d="M28.4,20.1c0,0,1.3-0.1,2-1.1c0,0-0.4,1.3-1.2,1.4L28.4,20.1z"/>
				<path class="st1" d="M27.4,19.9c0,0,0.6-0.6,0.8-1c0,0-0.8,0.6-1.3,0.4C26.3,19,27.5,19.9,27.4,19.9"/>
				<g>
					<path class="st1" d="M31,14.8l0.8-1.8l0.4-0.8c0.1-0.3,0.5-0.8,1-0.6c0.6,0.3,0.5,0.9,0.4,1.2l-0.3,0.8l-0.5,1.8l0,0l0,0
						c-0.1,0.2-0.3,0.3-0.4,0.2l0,0C32,15.3,31.5,15.1,31,14.8z M31.5,14.7c0.4,0.1,0.8,0.2,1.2,0.3l-0.4,0.2l0,0l0.6-1.7l0.3-0.8
						c0.1-0.3,0-0.4,0-0.4c-0.2-0.2-0.4,0.6-0.8,1L31.5,14.7z"/>
				</g>
			</g>
			<g>
				<path class="st1" d="M33.2,31c0,0,0-0.1,0-0.2c0-0.1-0.2-0.2-0.2-0.2c-0.2,0-0.1,0-0.1,0l0,0c0,0,0,0,0.1,0h0.1
					c0.1,0,0.2,0,0.3-0.1c0.2,0,0.3-0.1,0.5-0.2c0.3-0.1,0.7-0.3,0.9-0.5c0.6-0.4,1.1-0.9,1.4-1.6c0-0.1,0.1-0.1,0.2-0.1
					c0.1,0,0.1,0.1,0.1,0.2c-0.3,0.7-0.8,1.3-1.3,1.9c-0.3,0.3-0.6,0.5-1,0.7c-0.2,0.1-0.3,0.2-0.6,0.3c-0.1,0-0.2,0.1-0.3,0.1
					s-0.1,0-0.2,0h-0.1H33c0,0,0,0-0.2,0c-0.1,0-0.2-0.1-0.3-0.2c0-0.1,0-0.2,0-0.2c0-0.2,0.3-0.3,0.4-0.3
					C33.1,30.7,33.2,30.8,33.2,31z"/>
			</g>
		</g>
	</g>
</g>
</svg>
