<?xml version="1.0" encoding="utf-8"?>
<!-- Generator: Adobe Illustrator 25.2.0, SVG Export Plug-In . SVG Version: 6.00 Build 0)  -->
<svg version="1.1" id="Слой_1" xmlns="http://www.w3.org/2000/svg" xmlns:xlink="http://www.w3.org/1999/xlink" x="0px" y="0px"
	 viewBox="0 0 40 40" style="enable-background:new 0 0 40 40;" xml:space="preserve">
<style type="text/css">
	.st0{fill:#FFD71C;}
	.st1{fill:#010101;}
	.st2{fill:none;stroke:#010101;stroke-width:0.4044;stroke-miterlimit:10;}
	.st3{fill:none;stroke:#010101;stroke-width:0.534;stroke-linecap:round;stroke-linejoin:round;stroke-miterlimit:10;}
	.st4{fill:#010101;stroke:#010101;stroke-width:0.178;stroke-miterlimit:10;}
	.st5{fill:none;stroke:#010101;stroke-width:0.395;stroke-linecap:round;stroke-linejoin:round;stroke-miterlimit:10;}
	.st6{fill:none;stroke:#010101;stroke-width:0.3256;stroke-linecap:round;stroke-linejoin:round;stroke-miterlimit:10;}
	.st7{fill:none;stroke:#010101;stroke-width:1.0195;stroke-linecap:round;stroke-linejoin:round;stroke-miterlimit:10;}
	.st8{fill:#FFFFFF;}
	.st9{fill:none;stroke:#010101;stroke-width:0.5279;stroke-linecap:round;stroke-linejoin:round;stroke-miterlimit:10;}
	.st10{fill:none;stroke:#010101;stroke-width:0.7388;stroke-miterlimit:10;}
	.st11{fill:none;stroke:#010101;stroke-width:0.7604;stroke-linecap:round;stroke-linejoin:round;stroke-miterlimit:10;}
	.st12{fill:none;stroke:#010101;stroke-width:0.8761;stroke-linecap:round;stroke-linejoin:round;stroke-miterlimit:10;}
	.st13{fill:none;stroke:#010101;stroke-width:0.7244;stroke-linecap:round;stroke-linejoin:round;stroke-miterlimit:10;}
	.st14{fill:none;stroke:#010101;stroke-width:0.5433;stroke-linecap:round;stroke-linejoin:round;stroke-miterlimit:10;}
	.st15{fill:#010101;stroke:#010101;stroke-width:0.5962;stroke-miterlimit:10;}
	.st16{fill:#010101;stroke:#010101;stroke-width:0.5962;stroke-linecap:round;stroke-linejoin:round;stroke-miterlimit:10;}
	.st17{opacity:0.51;enable-background:new    ;}
	.st18{fill:none;stroke:#000000;stroke-width:0.911;stroke-linecap:round;stroke-linejoin:round;stroke-miterlimit:10;}
	.st19{fill:none;stroke:#000000;stroke-width:0.8728;stroke-linecap:round;stroke-linejoin:round;stroke-miterlimit:10;}
	.st20{fill:none;stroke:#000000;stroke-width:0.7103;stroke-linecap:round;stroke-linejoin:round;stroke-miterlimit:10;}
	.st21{fill:none;stroke:#010101;stroke-width:0.8441;stroke-linecap:round;stroke-linejoin:round;stroke-miterlimit:10;}
</style>
<circle class="st0" cx="17.1" cy="21.7" r="11.5"/>
<g>
	<g id="Слой_1_5_">
		<g>
			<g>
				<path class="st1" d="M16.1,13.7l10.3,10c0.1,0.1,0.1,0.3,0.1,0.4l0,0l0,0c-0.1,0.5-0.1,1.2-0.1,1.7c0.1,0.6,0.3,1,0.7,1.4
					c0.4,0.4,1,0.7,1.5,0.9c0.3,0.1,0.5,0.1,0.8,0.2c0.1,0,0.3,0,0.4,0c0.1,0,0.3-0.1,0.3-0.1l0,0L30,29l-2.1-2.6l0,0
					c-0.1-0.1-0.1-0.1-0.1-0.2l0.4-2.3l0,0c0-0.1,0.1-0.1,0.2-0.2l0,0l2.2-0.7l0,0c0.1-0.1,0.3,0,0.4,0.1l0,0l2.6,2.3l-0.8,0.2
					c0.1-0.6,0.1-1.2,0.1-1.8c-0.1-0.6-0.4-1.1-0.9-1.4c-0.5-0.4-1.1-0.6-1.7-0.7c-0.6-0.1-1.2-0.1-1.8-0.1l0,0
					c-0.1,0-0.3,0-0.4-0.1l-9.9-9.8c-0.1-0.1-0.1-0.3-0.1-0.4l0,0c0.1-0.6,0.1-1.2-0.1-1.8s-0.4-1.1-0.7-1.5c-0.4-0.4-0.8-0.8-1.3-1
					C15.7,7,15.3,7,15,6.9c-0.3,0-0.6-0.1-0.9-0.1L14.5,6l2.2,2.6l0,0l0,0c0.1,0.1,0.1,0.3,0.1,0.4l-0.9,2.1l0,0l0,0
					c0,0.1-0.1,0.1-0.1,0.1l-2.1,0.5l0,0c-0.1,0-0.1,0-0.1,0l0,0l-2.9-2.3l0,0l0.8-0.3c-0.1,0.6,0,1.2,0.2,1.8
					c0.1,0.6,0.5,1.1,1,1.5c0.4,0.4,1,0.7,1.6,0.9c0.3,0.1,0.6,0.1,1,0.1L16.1,13.7z M16,14.2c-0.3,0-0.6,0.1-1,0.1
					c-0.4-0.1-0.7-0.1-1-0.1c-0.7-0.1-1.4-0.4-1.9-0.9c-0.6-0.4-1-1.1-1.2-1.8c-0.2-0.7-0.4-1.4-0.4-2.1l0,0c0-0.2,0.2-0.4,0.4-0.4
					c0.1,0,0.2,0.1,0.3,0.1l0,0l2.5,2.7h-0.1l0,0l2-0.7l-0.1,0.1l0,0l0.4-2.3l0.1,0.4l0,0l-2.2-2.6l0,0c-0.1-0.2-0.1-0.5,0.1-0.7
					C13.8,5.9,14,5.8,14,5.9c0.4,0,0.7,0,1,0.1c0.4,0.1,0.7,0.1,1,0.3c0.7,0.2,1.3,0.7,1.8,1.2s0.7,1.2,0.9,2s0.1,1.4,0.1,2.1
					l-0.1-0.4l10,9.9l-0.4-0.1c0.8-0.1,1.5-0.1,2.2,0.1c0.7,0.1,1.4,0.4,2.1,0.9c0.3,0.2,0.6,0.5,0.8,0.9c0.2,0.4,0.4,0.7,0.4,1.1
					c0.1,0.7,0.1,1.5-0.1,2.3c-0.1,0.2-0.3,0.4-0.6,0.4c-0.1,0-0.1-0.1-0.2-0.1l0,0l-2.6-2.3l0.4,0.1l0,0l-2.3,0.3l0.2-0.2l0,0
					l-0.6,2.3v-0.4l0,0l2.5,2.2c0.2,0.1,0.2,0.4,0.1,0.7c-0.1,0.1-0.1,0.1-0.1,0.1l0,0l0,0c-0.5,0.1-0.8,0.1-1.2,0.1
					c-0.4-0.1-0.7-0.1-1-0.3c-0.7-0.3-1.2-0.5-1.8-1c-0.6-0.5-0.9-1.2-1-1.9c-0.1-0.7-0.1-1.4,0.1-2.1l0,0l0.1,0.4L16,14.2z"/>
			</g>
			<g>
				<path class="st1" d="M15.4,20.4c-1.7,1.6-3.3,3.2-4.9,4.8l-0.6,0.6c-0.2,0.2-0.4,0.4-0.4,0.6c-0.1,0.2-0.1,0.4,0,0.7
					c0.1,0.2,0.2,0.4,0.4,0.6l0.7,0.6l0.3,0.3c0.1,0.1,0.1,0.1,0.3,0.1c0.4,0.1,0.7,0.1,1-0.2l5-4.8l0.6-0.6
					c0.2-0.2,0.4-0.4,0.4-0.5c0.1-0.2,0.1-0.4,0-0.6c0-0.1-0.1-0.2-0.1-0.3c0-0.1-0.1-0.1-0.1-0.1l-0.1-0.1l-0.6-0.5
					c-0.2-0.2-0.4-0.4-0.6-0.5C16.2,20,15.7,20.1,15.4,20.4z M15,20c0.5-0.5,1.3-0.7,1.9-0.2c0.3,0.2,0.4,0.4,0.7,0.6l0.7,0.6
					l0.1,0.1c0.1,0.1,0.1,0.1,0.1,0.2c0.1,0.1,0.2,0.3,0.3,0.5c0.1,0.4,0.1,0.7,0,1.1c-0.1,0.1-0.1,0.4-0.3,0.5
					c-0.1,0.1-0.2,0.2-0.3,0.4l-0.6,0.6l-4.8,4.9c-0.6,0.6-1.5,0.7-2.2,0.2c-0.1-0.1-0.3-0.3-0.4-0.4l-0.3-0.3l-0.6-0.7
					C9.4,28,9.1,27.7,9,27.4c-0.1-0.4-0.1-0.7,0.1-1c0.1-0.3,0.4-0.6,0.6-0.7l0.6-0.6C11.8,23.3,13.4,21.6,15,20z"/>
			</g>
			<g>
				<path class="st1" d="M17.1,19.4l2.1,1.7l-0.4,0.1l0,0c0.1-0.1,0.2-0.4,0.2-0.7c-0.1-0.2-0.2-0.5-0.4-0.7s-0.4-0.4-0.7-0.4
					c-0.1,0-0.3-0.1-0.4,0C17.2,19.4,17.1,19.4,17.1,19.4z M16.8,19.4c0.1-0.2,0.3-0.3,0.5-0.4c0.1-0.1,0.4-0.1,0.5,0
					c0.4,0.1,0.7,0.2,0.9,0.4c0.2,0.2,0.5,0.4,0.6,0.8c0.1,0.4,0.1,0.7-0.1,1.1l0,0l0,0c-0.1,0.1-0.2,0.1-0.4,0.1l0,0L16.8,19.4z"/>
			</g>
			<g>
				<path class="st0" d="M24.6,13.1l-6.3,6.2l1,0.9l6.3-6.2C25.2,13.7,24.9,13.4,24.6,13.1z"/>
				<path class="st1" d="M19,20L29.6,9.5l0.1-0.1L32,8v0.6l-1.8-1.8l0.4-0.1c-0.4,0.8-1,1.5-1.4,2.3c0,0,0,0-0.1,0.1L18.5,19.4
					c-0.1,0.1-0.2,0.1-0.4,0c-0.1-0.1-0.1-0.2,0-0.4L28.8,8.6l-0.1,0.1c0.5-0.7,1-1.5,1.5-2.3c0.1-0.1,0.2-0.1,0.4-0.1l0,0l2,1.6
					c0.1,0.1,0.1,0.4,0.1,0.5l-0.1,0.1l0,0L30,10.1l0.1-0.1L19.5,20.5c-0.1,0.1-0.4,0.1-0.5,0C18.8,20.3,18.8,20,19,20z"/>
			</g>
			<g>
				<path class="st1" d="M16.8,23.5l-3.2,3.1l-1.6,1.5l-0.8,0.8c-0.1,0.1-0.4,0.1-0.5-0.1c-0.1-0.1-0.1-0.4,0-0.5
					c1-1,2.1-2.1,3.1-3.2l1.5-1.6l0.8-0.8c0.2-0.2,0.6-0.1,0.8,0.1C17,22.9,17,23.3,16.8,23.5z M16.5,23.2c0.1-0.1-0.1-0.4-0.2-0.2
					l-0.8,0.7l-1.6,1.5c-1.1,1-2.2,2.1-3.2,3.1c-0.1,0.1-0.1,0.4,0,0.5c0.1,0.1,0.4,0.1,0.5,0l0.8-0.8l1.5-1.6L16.5,23.2z"/>
			</g>
			<g>
				<path class="st1" d="M15.6,22.3l-3.2,3.1l-1.7,1.5l-0.8,0.8c-0.1,0.1-0.4,0.1-0.5-0.1c-0.1-0.1-0.1-0.4,0-0.5
					c1-1,2.1-2.1,3.1-3.2l1.5-1.6l0.8-0.8c0.2-0.2,0.6-0.1,0.8,0.1C15.8,21.7,15.8,22.1,15.6,22.3z M15.3,22
					c0.1-0.1-0.1-0.4-0.2-0.2l-0.8,0.7l-1.6,1.5c-1.1,1-2.2,2.1-3.2,3.1c-0.1,0.1-0.1,0.4,0,0.5c0.1,0.1,0.4,0.1,0.5,0l0.8-0.8
					l1.5-1.6L15.3,22z"/>
			</g>
		</g>
	</g>
</g>
</svg>
