<?xml version="1.0" encoding="utf-8"?>
<!-- Generator: Adobe Illustrator 25.2.0, SVG Export Plug-In . SVG Version: 6.00 Build 0)  -->
<svg version="1.1" id="Слой_1" xmlns="http://www.w3.org/2000/svg" xmlns:xlink="http://www.w3.org/1999/xlink" x="0px" y="0px"
	 viewBox="0 0 40 40" style="enable-background:new 0 0 40 40;" xml:space="preserve">
<style type="text/css">
	.st0{fill:#FFD71C;}
	.st1{fill:#010101;}
	.st2{fill:none;stroke:#010101;stroke-width:0.4044;stroke-miterlimit:10;}
	.st3{fill:none;stroke:#010101;stroke-width:0.534;stroke-linecap:round;stroke-linejoin:round;stroke-miterlimit:10;}
	.st4{fill:#010101;stroke:#010101;stroke-width:0.178;stroke-miterlimit:10;}
	.st5{fill:none;stroke:#010101;stroke-width:0.395;stroke-linecap:round;stroke-linejoin:round;stroke-miterlimit:10;}
	.st6{fill:none;stroke:#010101;stroke-width:0.3256;stroke-linecap:round;stroke-linejoin:round;stroke-miterlimit:10;}
	.st7{fill:none;stroke:#010101;stroke-width:1.0195;stroke-linecap:round;stroke-linejoin:round;stroke-miterlimit:10;}
	.st8{fill:#FFFFFF;}
	.st9{fill:none;stroke:#010101;stroke-width:0.5279;stroke-linecap:round;stroke-linejoin:round;stroke-miterlimit:10;}
	.st10{fill:none;stroke:#010101;stroke-width:0.7388;stroke-miterlimit:10;}
	.st11{fill:none;stroke:#010101;stroke-width:0.7604;stroke-linecap:round;stroke-linejoin:round;stroke-miterlimit:10;}
	.st12{fill:none;stroke:#010101;stroke-width:0.8761;stroke-linecap:round;stroke-linejoin:round;stroke-miterlimit:10;}
	.st13{fill:none;stroke:#010101;stroke-width:0.7244;stroke-linecap:round;stroke-linejoin:round;stroke-miterlimit:10;}
	.st14{fill:none;stroke:#010101;stroke-width:0.5433;stroke-linecap:round;stroke-linejoin:round;stroke-miterlimit:10;}
	.st15{fill:#010101;stroke:#010101;stroke-width:0.5962;stroke-miterlimit:10;}
	.st16{fill:#010101;stroke:#010101;stroke-width:0.5962;stroke-linecap:round;stroke-linejoin:round;stroke-miterlimit:10;}
	.st17{opacity:0.51;enable-background:new    ;}
	.st18{fill:none;stroke:#000000;stroke-width:0.911;stroke-linecap:round;stroke-linejoin:round;stroke-miterlimit:10;}
	.st19{fill:none;stroke:#000000;stroke-width:0.8728;stroke-linecap:round;stroke-linejoin:round;stroke-miterlimit:10;}
	.st20{fill:none;stroke:#000000;stroke-width:0.7103;stroke-linecap:round;stroke-linejoin:round;stroke-miterlimit:10;}
	.st21{fill:none;stroke:#010101;stroke-width:0.8441;stroke-linecap:round;stroke-linejoin:round;stroke-miterlimit:10;}
</style>
<circle class="st0" cx="14.6" cy="18" r="11"/>
<g>
	<g id="Слой_1_4_">
		<g>
			<g>
				<path class="st1" d="M12.1,24.1l0.1,4.2v0.2c0,0.1,0,0.2,0,0.2c0,0.2,0.1,0.2,0.2,0.3c0.2,0.2,0.3,0.4,0.5,0.4
					c0.2,0.1,0.6,0,0.9,0c0.4,0,0.7,0,1.1,0c0.3,0,0.5,0.2,0.5,0.5s-0.2,0.5-0.5,0.5h-0.1c-0.4,0-0.7-0.1-1.1-0.1
					c-0.4,0-0.7,0-1.1-0.1c-0.5-0.2-0.8-0.4-1.1-0.8c-0.2-0.2-0.2-0.4-0.2-0.6c0-0.1,0-0.2,0-0.4v-0.2l0.1-4.2
					c0-0.2,0.2-0.4,0.5-0.4C12,23.7,12.1,23.8,12.1,24.1z"/>
			</g>
			<g>
				<path class="st1" d="M32.4,29.6c0.5,0,0.9-0.1,1.4-0.1c0.2,0,0.5,0,0.7,0c0.2,0,0.3-0.1,0.5-0.2c0.2-0.2,0.5-0.5,0.5-0.8v-1.3
					v-2.7c0-0.3-0.2-0.6-0.5-0.8c-0.2-0.1-0.3-0.2-0.5-0.2c-0.2,0-0.5,0-0.7,0h-5.5c-0.5,0-1.2-0.2-1.5-0.7
					c-0.2-0.2-0.3-0.5-0.4-0.8s0-0.5,0-0.8v-2.7v-2.7c0-0.2,0-0.5,0-0.7c0-0.2-0.1-0.3-0.2-0.5c-0.2-0.3-0.5-0.5-0.8-0.5l-5.5-0.1
					l-5.5-0.1h-0.7c-0.2,0-0.5,0-0.6,0c-0.4,0.1-0.7,0.3-0.8,0.7c-0.2,0.3-0.1,0.8-0.2,1.3c0,0.5-0.1,0.9-0.2,1.4
					c0-0.5,0-0.9-0.1-1.4c0-0.2,0-0.5,0-0.7c0-0.2,0-0.5,0.1-0.8c0.2-0.5,0.6-0.9,1.1-1c0.3-0.1,0.5,0,0.8-0.1h0.7l5.5-0.1l5.5-0.1
					c0.6,0,1.1,0.3,1.4,0.8c0.2,0.2,0.2,0.5,0.3,0.8c0,0.3,0,0.5,0,0.7v2.7v2.7c0,0.5,0,0.8,0.2,1.1c0.2,0.2,0.5,0.4,0.9,0.4h5.5
					c0.2,0,0.5,0,0.7,0c0.3,0,0.6,0.2,0.8,0.3c0.5,0.3,0.8,0.9,0.8,1.5v2.7c0,0.5,0,0.8,0,1.4c-0.1,0.6-0.5,1.2-1,1.4
					c-0.3,0.2-0.6,0.2-0.9,0.2c-0.2,0-0.5,0-0.7,0c-0.5,0-0.9-0.1-1.4-0.1c-0.2,0-0.4-0.2-0.3-0.4C32.1,29.8,32.3,29.6,32.4,29.6z"
					/>
			</g>
			<line class="st11" x1="20.8" y1="30" x2="26.9" y2="30"/>
			<polyline class="st12" points="27.2,16 32.4,16 34.5,23.1 			"/>
			<g>
				<path class="st1" d="M20.8,30c0.1,1.5-1.3,3-2.9,3c-0.8,0-1.5-0.3-2.1-0.8c-0.5-0.5-0.9-1.3-0.9-2.1c0-0.8,0.3-1.6,0.9-2.1
					c0.5-0.5,1.4-0.8,2.1-0.8C19.5,27,20.8,28.5,20.8,30z M20.2,30c0-0.6-0.2-1.2-0.7-1.6c-0.5-0.5-1.1-0.6-1.6-0.6
					c-1.2,0-2.2,1.1-2.2,2.3c-0.1,1.1,1,2.2,2.2,2.3c0.6,0,1.2-0.2,1.6-0.6C20,31.2,20.2,30.6,20.2,30z"/>
			</g>
			<g>
				<path class="st1" d="M32.5,30c0.1,1.5-1.3,3-2.9,3c-0.8,0-1.5-0.3-2.1-0.8c-0.5-0.5-0.9-1.3-0.9-2.1c0-0.8,0.3-1.6,0.9-2.1
					c0.5-0.5,1.4-0.8,2.1-0.8C31.1,27,32.5,28.5,32.5,30z M31.9,30c0-0.6-0.2-1.2-0.7-1.6c-0.5-0.5-1.1-0.6-1.6-0.6
					c-1.2,0-2.2,1.1-2.2,2.3c-0.1,1.1,1,2.2,2.2,2.3c0.6,0,1.2-0.2,1.6-0.6C31.6,31.2,31.9,30.6,31.9,30z"/>
			</g>
			<line class="st13" x1="13.6" y1="18" x2="6.7" y2="18"/>
			<line class="st13" x1="13.6" y1="21.9" x2="8.4" y2="21.9"/>
			<line class="st13" x1="13.6" y1="24.1" x2="5.6" y2="24.1"/>
			<g>
				<path class="st1" d="M23.4,20.4c0,1.2-0.4,2.4-1.2,3.3c-0.8,0.9-2.1,1.4-3.3,1.4c-1.2,0-2.5-0.5-3.3-1.4
					c-0.8-0.9-1.4-2.1-1.4-3.3s0.5-2.4,1.4-3.3c0.8-0.8,2.1-1.4,3.3-1.3c1.2,0,2.4,0.5,3.2,1.4C22.9,18,23.4,19.1,23.4,20.4z
					 M23,20.4c0-1.1-0.5-2.1-1.2-2.9c-0.8-0.8-1.8-1.1-2.9-1.1c-1.1,0-2.1,0.5-2.8,1.2c-0.8,0.8-1.1,1.7-1.1,2.8
					c0,1.1,0.5,2.1,1.1,2.7c0.8,0.7,1.7,1.1,2.7,1.1c1.1,0,2.1-0.5,2.8-1.1C22.4,22.5,23,21.4,23,20.4z"/>
			</g>
			<path d="M20.7,21.4c0-0.7-0.5-1.2-1.4-1.4l-0.7-0.2c-0.5-0.1-0.7-0.4-0.7-0.7s0.4-0.7,0.7-0.8c0.3-0.1,0.6,0,0.6,0
				c0.5,0.2,0.7,0.5,0.8,0.8l0.7-0.2c-0.2-0.5-0.5-1.1-1.4-1.2v-0.6c0-0.2-0.2-0.3-0.3-0.3c-0.2,0-0.3,0.2-0.3,0.3v0.6
				c-0.8,0.1-1.4,0.7-1.4,1.4c0,0.8,0.5,1.2,1.3,1.4h0.2l0.6,0.2c0.5,0.1,0.7,0.4,0.7,0.8c0,0.4-0.2,0.6-0.7,0.8c0,0-0.4,0.1-0.6,0
				c-0.7-0.2-0.9-0.6-0.9-1.1l-0.7,0.2c0.1,0.7,0.6,1.4,1.6,1.5v0.7c0,0.2,0.2,0.3,0.3,0.3c0.2,0,0.2-0.1,0.3-0.2l0,0l0,0v-0.1v-0.7
				C20.2,22.8,20.7,22.1,20.7,21.4z"/>
			<circle class="st14" cx="18" cy="30" r="1"/>
			<circle class="st14" cx="29.6" cy="29.9" r="1"/>
		</g>
	</g>
</g>
</svg>
