<svg width="264" height="131" viewBox="0 0 264 131" fill="none" xmlns="http://www.w3.org/2000/svg">
<path d="M51.1429 48.7863C51.7746 52.0917 52.8518 56.7976 54.3743 62.9039C55.8967 69.0103 57.155 73.6711 58.149 76.8861L48.3684 79.3247L46.7333 72.2707C44.3515 74.9532 41.2589 76.7687 37.4553 77.717C33.4189 78.7234 30.2854 78.5015 28.055 77.0514C25.8505 75.5948 24.2999 73.0682 23.4031 69.4716L22.2613 64.8918C21.3839 61.3729 20.6225 58.5946 19.977 56.5569L29.1754 54.2634C29.9685 58.1057 30.7747 61.6699 31.594 64.9559C31.923 66.2755 32.3686 67.2912 32.9309 68.003C33.519 68.7084 34.3013 69.1454 35.2778 69.3142C36.2802 69.4765 37.5835 69.3577 39.1877 68.9577C41.801 68.3062 43.7195 66.9621 44.9432 64.9256L43.9949 61.122C42.8401 56.4905 41.9626 53.1914 41.3623 51.2249L51.1429 48.7863ZM68.6547 66.8051C78.4741 64.3018 85.5671 62.3822 89.9336 61.0462C90.017 62.1522 90.1747 63.2809 90.4068 64.4323C90.6583 65.5513 90.997 66.9647 91.4228 68.6724L61.266 76.1914C60.2214 71.1201 59.154 66.3981 58.0638 62.0253C56.9735 57.6525 55.6991 52.982 54.2406 48.014L84.3974 40.4951L86.1489 47.52L65.1517 52.7552L66.0807 56.4811C67.3291 56.1973 69.1694 55.7522 71.6016 55.1458C75.7157 54.1201 79.9527 52.9812 84.3126 51.7293L85.9771 58.4049C81.5397 59.3464 77.264 60.33 73.1499 61.3557C70.7177 61.9621 68.8838 62.4331 67.6483 62.7686L68.6547 66.8051ZM105.528 35.2678C110.677 33.984 114.49 34.0091 116.966 35.343C119.436 36.651 121.083 38.961 121.909 42.2729C122.477 44.5499 122.56 46.5905 122.158 48.3947C121.749 50.173 120.649 51.7666 118.856 53.1754C117.057 54.5583 114.385 55.6917 110.841 56.5755L102.768 58.5883L104.471 65.4192L94.9231 67.7997C93.8786 62.7284 92.8112 58.0064 91.7209 53.6336C90.6306 49.2608 89.3562 44.5904 87.8977 39.6223L97.4454 37.2418L97.4551 37.2806L105.528 35.2678ZM106.256 49.7622C108.404 49.2268 109.989 48.7492 111.011 48.3294C112.052 47.8774 112.725 47.3798 113.03 46.8367C113.36 46.2871 113.418 45.5854 113.206 44.7316C112.993 43.8777 112.628 43.2954 112.11 42.9846C111.613 42.6415 110.801 42.5278 109.676 42.6435C108.576 42.7528 106.926 43.0816 104.727 43.63L99.3711 44.9654L100.9 51.0976L106.256 49.7622ZM154.913 22.9135C155.822 27.3315 156.902 32.0503 158.154 37.07C159.406 42.0896 160.667 46.7633 161.938 51.0909L152.818 53.365L150.186 42.8082L135.903 46.3693L138.535 56.9261L129.414 59.2001C128.37 54.1289 127.302 49.4068 126.212 45.034C125.122 40.6612 123.847 35.9908 122.389 31.0228L131.509 28.7487L134.142 39.3055L148.424 35.7444L145.792 25.1876L154.913 22.9135ZM189.532 44.211C188.673 42.8587 187.552 41.1732 186.169 39.1544L173.788 42.2413L173.231 48.2753L163.49 50.7042L167.332 19.8172L181.614 16.2561L199.585 41.7047L189.532 44.211ZM182.447 33.6513C180.787 31.1797 179.1 28.7144 177.388 26.2556L175.827 23.9651C175.509 26.5455 175.063 30.4355 174.491 35.6351L182.447 33.6513ZM225.796 5.24039C226.705 9.65834 227.786 14.3772 229.037 19.3968C230.289 24.4165 231.55 29.0901 232.822 33.4178L223.662 35.7015L221.417 26.6972L215.712 28.1197C214.221 32.6137 213.171 36.0635 212.562 38.4691L202.005 41.1012L206.115 30.8009C206.186 30.5358 206.326 30.1575 206.533 29.6661C203.694 29.632 201.524 28.9774 200.025 27.7023C198.551 26.4208 197.533 24.6545 196.972 22.4034C196.256 19.5313 196.723 16.9963 198.374 14.7983C200.024 12.6004 203.463 10.8499 208.69 9.5467L216.646 7.56294L216.637 7.52413L225.796 5.24039ZM219.607 19.4394L218.504 15.0148L213.265 16.3212C211.039 16.876 209.374 17.36 208.267 17.7732C207.161 18.1865 206.44 18.5999 206.103 19.0137C205.767 19.4274 205.669 19.9188 205.811 20.4881C205.96 21.0832 206.292 21.4812 206.81 21.682C207.327 21.8828 208.161 21.9222 209.313 21.8C210.483 21.6455 212.168 21.2941 214.368 20.7457L219.607 19.4394ZM39.6447 86.694C40.5539 91.112 41.6342 95.8308 42.8857 100.85C44.1373 105.87 45.3987 110.544 46.6701 114.871L37.5493 117.145L32.4787 96.8081L19.3603 100.079L24.431 120.416L15.3102 122.69C14.2656 117.619 13.1982 112.897 12.108 108.524C11.0177 104.151 9.7433 99.481 8.28476 94.5129L39.6447 86.694ZM73.9037 78.1523C74.8129 82.5702 75.8932 87.289 77.1448 92.3087C78.3963 97.3284 79.6578 102.002 80.9291 106.33L71.7696 108.613L69.5245 99.6091L63.8192 101.032C62.3288 105.526 61.2789 108.975 60.6694 111.381L50.1126 114.013L54.2228 103.713C54.2941 103.448 54.4334 103.069 54.6407 102.578C51.8014 102.544 49.6319 101.889 48.1322 100.614C46.6584 99.3327 45.6409 97.5664 45.0796 95.3153C44.3636 92.4432 44.8308 89.9082 46.4815 87.7102C48.1321 85.5123 51.5707 83.7617 56.7974 82.4586L64.7538 80.4748L64.7441 80.436L73.9037 78.1523ZM67.7149 92.3513L66.6118 87.9267L61.3722 89.2331C59.147 89.7879 57.4813 90.2719 56.375 90.6851C55.2688 91.0984 54.5474 91.5118 54.2108 91.9255C53.8742 92.3393 53.7769 92.8307 53.9189 93.4C54.0672 93.9951 54.4001 94.3931 54.9173 94.5939C55.4346 94.7947 56.2689 94.834 57.4202 94.7119C58.591 94.5574 60.276 94.206 62.4753 93.6576L67.7149 92.3513ZM112.373 77.218C108.278 78.1015 104.313 79.0077 100.477 79.9366L105.529 100.196L95.8256 102.616L90.7743 82.3558C86.9254 83.3429 83.0118 84.4011 79.0335 85.5304L77.0014 77.3799L110.341 69.0675L112.373 77.218ZM145.988 60.1798C146.897 64.5977 147.977 69.3165 149.229 74.3362C150.48 79.3558 151.742 84.0295 153.013 88.3571L143.892 90.6312L141.26 80.0744L126.977 83.6355L129.609 94.1923L120.489 96.4664C119.444 91.3951 118.377 86.6731 117.286 82.3003C116.196 77.9275 114.922 73.257 113.463 68.289L122.584 66.0149L125.216 76.5717L139.499 73.0106L136.867 62.4538L145.988 60.1798ZM158.61 57.0739L163.379 79.0118L167.381 54.8869L181.664 51.3258C182.573 55.7438 183.65 60.4496 184.895 65.4434C186.147 70.4631 187.409 75.1368 188.68 79.4644L178.705 81.9513L174.12 60.5859L170.011 84.119L156.117 87.5833C155.072 82.512 154.005 77.79 152.915 73.4172C151.831 69.0703 150.56 64.4128 149.101 59.4447L158.61 57.0739ZM222.76 62.5575L226.621 78.0434L218.199 80.1433L216.312 72.575L191.783 78.6908C190.738 73.6195 189.671 68.8975 188.58 64.5247C187.49 60.1519 186.216 55.4814 184.757 50.5134L193.878 48.2393L198.949 68.5767L212.067 65.3059L206.996 44.9685L216.117 42.6945C217.039 47.1642 218.126 51.9089 219.378 56.9285C220.055 59.6454 220.574 61.6733 220.936 63.0123L222.76 62.5575ZM251.939 63.6921C251.08 62.3399 249.959 60.6543 248.576 58.6356L236.195 61.7225L235.638 67.7564L225.896 70.1853L229.738 39.2984L244.021 35.7373L261.991 61.1858L251.939 63.6921ZM244.854 53.1325C243.193 50.6608 241.507 48.1956 239.794 45.7368L238.234 43.4463C237.915 46.0267 237.47 49.9167 236.897 55.1163L244.854 53.1325Z" fill="#FFD71C"/>
</svg>
