<svg id="Слой_1" xmlns="http://www.w3.org/2000/svg" viewBox="0 0 512 512"><style>.st0{fill:#7f96a3}</style><g id="Capa_1"><path class="st0" d="M187.5 50.2H27c-6.6 0-12 5.4-12 12v160.6c0 6.6 5.4 12 12 12h160.5c6.6 0 12-5.4 12-12.1V62.2c0-6.6-5.4-12-12-12zm2.5 172.5c0 1.4-1.1 2.5-2.5 2.5H27c-1.4 0-2.5-1.1-2.5-2.5V62.2c0-1.4 1.1-2.5 2.5-2.5h160.5c1.4 0 2.5 1.1 2.5 2.5v160.5z"/><path class="st0" d="M187.5 40.7H27c-11.9 0-21.5 9.6-21.5 21.5v160.6c0 11.9 9.6 21.5 21.5 21.5h160.5c11.8 0 21.5-9.7 21.5-21.6V62.2c0-11.9-9.6-21.5-21.5-21.5zm2.5 182c0 1.4-1.1 2.5-2.5 2.5H27c-1.4 0-2.5-1.1-2.5-2.5V62.2c0-1.4 1.1-2.5 2.5-2.5h160.5c1.4 0 2.5 1.1 2.5 2.5v160.5zM495.9 134L382.4 20.5c-4.7-4.7-12.3-4.7-17 0L251.9 134c-4.7 4.7-4.7 12.3 0 17l113.5 113.5c4.7 4.7 12.3 4.7 17 0L495.9 151c4.7-4.7 4.7-12.3 0-17zm-6.8 10.3L375.6 257.8c-.9 1-2.5 1-3.5 0L258.6 144.3c-.6-.7-.7-1.4-.7-1.8 0-.4.1-1.2.7-1.8L372.1 27.2c.5-.5 1.2-.7 1.8-.7.6 0 1.3.3 1.7.7l113.5 113.5c.6.7.7 1.4.7 1.8 0 .4-.1 1.2-.7 1.8z"/><path class="st0" d="M502.6 127.3L389.1 13.8c-8.4-8.4-22-8.4-30.4 0L245.2 127.3c-4.1 4-6.3 9.4-6.3 15.2 0 5.7 2.2 11.1 6.3 15.2l113.5 113.5c4.2 4.2 9.7 6.3 15.2 6.3s11-2.1 15.2-6.3l113.5-113.5c4.1-4 6.3-9.4 6.3-15.2 0-5.8-2.2-11.1-6.3-15.2zm-13.5 17L375.6 257.8c-.9 1-2.5 1-3.5 0L258.6 144.3c-.6-.7-.7-1.4-.7-1.8 0-.4.1-1.2.7-1.8L372.1 27.2c.5-.5 1.2-.7 1.8-.7.6 0 1.3.3 1.7.7l113.5 113.5c.6.7.7 1.4.7 1.8 0 .4-.1 1.2-.7 1.8zm-301.6 161H27c-6.6 0-12 5.4-12 12v160.5c0 6.6 5.4 12 12 12h160.5c6.6 0 12-5.4 12-12V317.3c0-6.6-5.4-12-12-12zm2.5 172.5c0 1.4-1.1 2.5-2.5 2.5H27c-1.4 0-2.5-1.1-2.5-2.5V317.3c0-1.4 1.1-2.5 2.5-2.5h160.5c1.4 0 2.5 1.1 2.5 2.5v160.5z"/><path class="st0" d="M187.5 295.8H27c-11.9 0-21.5 9.6-21.5 21.5v160.5c0 11.9 9.6 21.5 21.5 21.5h160.5c11.8 0 21.5-9.7 21.5-21.5V317.3c0-11.9-9.6-21.5-21.5-21.5zm2.5 182c0 1.4-1.1 2.5-2.5 2.5H27c-1.4 0-2.5-1.1-2.5-2.5V317.3c0-1.4 1.1-2.5 2.5-2.5h160.5c1.4 0 2.5 1.1 2.5 2.5v160.5zm264.1-172.5H293.6c-6.6 0-12 5.4-12 12v160.5c0 6.6 5.4 12 12 12h160.5c6.6 0 12-5.4 12-12V317.3c0-6.6-5.4-12-12-12zm2.5 172.5c0 1.4-1.1 2.5-2.5 2.5H293.6c-1.4 0-2.5-1.1-2.5-2.5V317.3c0-1.4 1.1-2.5 2.5-2.5h160.5c1.4 0 2.5 1.1 2.5 2.5v160.5z"/><path class="st0" d="M454.1 295.8H293.6c-11.9 0-21.5 9.6-21.5 21.5v160.5c0 11.9 9.6 21.5 21.5 21.5h160.5c11.9 0 21.5-9.7 21.5-21.5V317.3c0-11.9-9.6-21.5-21.5-21.5zm2.5 182c0 1.4-1.1 2.5-2.5 2.5H293.6c-1.4 0-2.5-1.1-2.5-2.5V317.3c0-1.4 1.1-2.5 2.5-2.5h160.5c1.4 0 2.5 1.1 2.5 2.5v160.5z"/></g></svg>