<?xml version="1.0" encoding="utf-8"?>
<!-- Generator: Adobe Illustrator 26.1.0, SVG Export Plug-In . SVG Version: 6.00 Build 0)  -->
<svg version="1.1" id="Слой_1" xmlns="http://www.w3.org/2000/svg" xmlns:xlink="http://www.w3.org/1999/xlink" x="0px" y="0px"
	 viewBox="0 0 512 512" style="enable-background:new 0 0 512 512;" xml:space="preserve">
<style type="text/css">
	.st0{fill:#7F96A3;}
</style>
<path class="st0" d="M471.3,406.8c0.4,0,0.9,0,1.3,0c7.1,0,11.6-2.5,14.4-8.1v-61.8c-2.8-5.6-7.2-8.1-14.4-8.1c-0.4,0-0.8,0-1.3,0
	c-4.4,0.2-9.1,0.3-14.8,0.3c-3.7,0-7.4,0-10.9-0.1c-3.6,0-7.4-0.1-11.1-0.1H433h-1.5v-1.5V297v-1.4l1.4-0.1l1.4-0.1
	c0.3,0,0.7-0.1,1-0.1l0.1,0c0.9-0.1,1.9-0.2,2.9-0.2c3.2,0,6.5,0,9.4-0.1l0.1,0c3.4,0,6.9-0.1,10.3-0.1c5.1,0,9.4,0.1,13.3,0.3
	c0.5,0,1,0,1.5,0c7,0,11.4-2.5,14.2-8.1v-6.1c-2.8-5.7-7.1-8.1-14.4-8.1c-0.4,0-0.9,0-1.3,0c-4.4,0.2-9.1,0.3-14.7,0.3
	c-3.6,0-7.2,0-11-0.1l-0.1,0c-3.7,0-7.5-0.1-11.3-0.1h-1.5h-1.5v-1.5v-7.3c0-11.4,0-22.7,0-34.1c0-27,0-54.8,0.1-82.5
	c0.1-18.3-8-31.1-24.6-38.9c-2.3-1.1-3.9-4.2-4.1-6.5c-0.2-2.7-0.2-5.5-0.3-8.2c0-4-0.1-8.1-0.7-11.9c-2.9-18.3-19.3-32.1-38.1-32.1
	l0-0.7c0,0,0,0,0,0v0.7c-1.1,0-2.1,0-3.2,0.1c-19.5,1.6-35.2,18.3-35.6,37.9c-0.1,3.2-0.1,6.4,0,9.7l0,0.4c0,1.4,0,2.9,0,4.4v1.5
	v1.5h-1.5h-30.8H291v-1.5v-1.5c0-1.4,0-2.8,0-4.2c0-3,0-6.2,0-9.3c-0.3-19.6-13.4-35-32.6-38.4c-2.1-0.4-4.3-0.6-6.4-0.6
	c-8.7,0-17.3,3.1-24.2,8.7c-8.7,7.1-14,17.4-14.4,28.4c-0.1,3.4-0.1,6.7-0.1,10.3c0,1.7,0,3.4,0,5.1v1.5v1.5h-1.5h-30.4h-1.4
	l-0.1-1.4l-0.1-1.4c-0.1-2.3-0.2-4.5-0.2-6.7c-0.1-4.8-0.2-9.3-1-13.8c-3-18.7-19-32.2-38.1-32.2c-1,0-2.1,0-3.1,0.1
	c-19.6,1.5-35.3,18.1-35.7,37.8c0,1.5,0.1,3.2,0.2,4.8c0.3,3.9,0.7,8-1,11.5c-1.6,3.3-5,5.3-8.2,7.1c-1.4,0.8-2.9,1.7-4.1,2.6
	c-10.4,8-15.7,18.5-15.7,31.2c0,15,0,30.1,0,44.7l0,0.3c0,6.2,0,12.4,0,18.7v6.7v1.5h-1.5H40.8h-1.5l0-1.5l0-5c0-2.7,0-5.4,0-8.1
	c0-7.1-3-11.4-8.8-12.8c-0.9-0.2-1.7-0.3-2.5-0.3c-5.2,0-8.5,4.4-10.4,8.1c-0.1,0.2-0.2,0.4-0.4,0.6v116.7l0.1,0.1
	c0.4,0.6,0.8,1.3,1.2,1.9c2.1,3.8,5.8,6.1,9.7,6.1c0.8,0,1.5-0.1,2.3-0.3c5.1-1.2,8.5-5.4,8.7-10.5c0.1-3.1,0.1-6.2,0.1-9.4l0-0.1
	c0-1.4,0-2.9,0-4.4v-1.5v-1.5h1.5h30.8H73l0,1.5l0,25.5c0,14.4,0,28.7,0,43.1c0,24.2,17,41.1,41.3,41.2c14.4,0,29.9,0,48.9,0
	c11.4,0,22.8,0,34,0l0.5,0c11.5,0,23,0,34.5,0h6.9h1.4l0.1,1.4l0.1,1.4c0.1,2.3,0.2,4.7,0.2,6.9l0,0.1c0.1,4.8,0.2,9.4,1,13.8
	c3,18.5,18.7,32,37.2,32.1c20.6,0.1,40.3,0.2,58.6,0.2c19.3,0,37.2-0.1,54.7-0.2c21.5-0.2,38.6-17.5,38.8-39.4c0-2.9,0-5.9,0-8.8
	c0-1.4,0-2.9,0-4.4v-1.5v-1.5h1.5h1.5c3.8,0,7.6,0,11.3-0.1c3.6,0,7.4-0.1,11.1-0.1C462.3,406.5,466.9,406.6,471.3,406.8z
	 M72.6,241.2v30.4v1.5h-1.5h-30h-1.5v-1.5v-30.4v-1.5h1.5h30h1.5V241.2z M346.9,87.3c0.7-8.3,8.2-15,16.6-15l0.2,0
	c8.6,0.1,15.9,6.8,16.5,15.3c0.3,3.5,0.2,6.9,0.1,10.5c0,1.6-0.1,3.2-0.1,4.8v1.5v1.5h-1.5h-30.6h-1.5v-1.5v-1.5
	c0-1.6,0-3.2-0.1-4.8C346.7,94.5,346.6,90.9,346.9,87.3z M235.9,85.6c1.1-7.6,8.1-13.3,16.2-13.3c0.3,0,0.6,0,1,0
	c8.1,0.5,14.9,6.7,15.7,14.4c0.4,3.7,0.3,7.5,0.2,11.2l0,0.1c0,1.6-0.1,3.2-0.1,4.9v1.5v1.5h-1.5h-30.3h-1.5v-1.5v-1.5
	c0-1.7-0.1-3.4-0.1-5.1C235.4,93.8,235.3,89.7,235.9,85.6z M124,87.3c0.7-8.3,8.2-15,16.7-15l0.2,0c8.5,0.1,15.8,6.8,16.6,15.3
	c0.2,2.6,0.2,5.2,0.2,7.7c0,1.1,0,2.2,0,3.2c0,0.8,0,1.7,0,2.6l0,0.2l0,3l0,1.5h-1.5h-30.7h-1.5v-1.5v-1.5c0-1.6,0-3.2-0.1-4.8
	C123.8,94.5,123.7,90.9,124,87.3z M95.1,145.6c0.2-9.4,7.1-16.8,16.6-17.5c0.6,0,1.3-0.1,2.1-0.1c0.4,0,0.8,0,1.2,0
	c0.4,0,0.7,0,1.1,0l158,0l114.1,0c14.4,0,21,6.6,21,20.9v11v1.5h-1.5H96.5H95v-1.5v-1.5c0-1.4,0-2.8,0-4.2
	C95,151.3,95,148.5,95.1,145.6z M346.7,230.1c0-7.5-4.3-12.5-10.8-12.6l-0.3,0c-2.9,0-5.5,1-7.4,2.9c-2.3,2.3-3.5,5.7-3.5,9.6
	c0.1,11.2,0.5,22.1,0.9,34.2c0,0.9,0.3,1.9,0.6,3.1c0.2,0.7,0.3,1.4,0.5,2.2l0.4,1.8l0.4,1.8h-1.8h-1.8c-1.9,0-3.8,0-5.6,0.1
	c-1.8,0-3.7,0.1-5.5,0.1c-2.7,0-4.9-0.1-7-0.3c-8.4-0.7-14.6-7.9-14.8-17c-0.1-5,0-10.1,0-15l0-0.1c0-3.6,0-7.3,0-10.9
	c0-7.3-4.5-12.4-11-12.4c-3,0-5.7,1-7.6,3c-2.2,2.2-3.4,5.5-3.4,9.3c0.1,9.4,0.2,19,0.4,28.2c0.1,4,0.1,8.1,0.2,12.2l0,1.5l0,1.5
	h-1.5h-1.5c-1.3,0-2.8,0-4.3,0.1l-0.1,0c-1.6,0-3.4,0.1-5.2,0.1c-2.6,0-4.8-0.1-6.8-0.2c-8.6-0.7-14.9-7.7-15.1-16.8
	c-0.1-5.3-0.1-10.6,0-15.7c0-3.5,0-7.2,0-10.8c0-3.6-1.2-6.8-3.2-9c-2-2.1-4.7-3.3-7.8-3.3l-0.1,0c-3,0-5.6,1.1-7.6,3.1
	c-2.2,2.2-3.4,5.6-3.4,9.4c0.1,11.4,0.5,22.7,0.8,34.2c0,0.9,0.3,1.9,0.6,3.1c0.2,0.7,0.4,1.4,0.5,2.2l0.4,1.8l0.4,1.8h-1.8h-1.8
	c-1.9,0-3.9,0.1-5.7,0.1c-1.9,0.1-3.8,0.1-5.7,0.1c-2.9,0-5.3-0.1-7.4-0.4c-8.1-0.9-13.8-7.8-13.9-16.7c-0.1-5.2-0.1-10.5,0-15.6
	l0-0.1c0-3.4,0-6.9,0-10.3c0-4-1.3-7.5-3.6-9.7c-1.9-1.9-4.4-2.9-7.3-2.9c-0.1,0-0.2,0-0.3,0c-6.6,0.1-10.8,5.1-10.8,12.6
	c0,2.9,0,5.9-0.1,8.6c-0.1,7-0.2,14.3,0.3,21.3c1.7,20.3,18.3,35.1,39.5,35.2c18.4,0,38.6,0,63.7,0c13.1,0,26.1,0,39,0l3.7,0
	c14.4,0,28.7,0,43.1,0h60.6h1.5v1.5v30.6v1.5h-1.5H96.9h-1.5v-1.5V185.5v-1.5h1.5h310.7h1.5v1.5v86.1v1.5h-1.5h-1.5
	c-4.2,0-8.5,0-12.6,0l-0.4,0c-4.2,0-8.4,0.1-12.8,0.1c-7.2,0-13.1-0.1-18.5-0.2c-8.5-0.3-14.9-7.5-15.1-16.9
	c-0.1-5.2-0.1-10.6,0-15.7l0-0.1C346.7,237.3,346.7,233.6,346.7,230.1z M409.1,424.1c-0.1,9.1-8.2,16.2-18.5,16.3
	c-8.7,0-17.9,0-29.2,0c-5.1,0-10.1,0-15.1,0l-3.4,0l-18.7,0l-12.8,0c-4.3,0-8.7,0-13,0c-5.6,0-11.2,0-16.9,0
	c-11.5,0-18.3-7-18.4-18.5c0-4,0-7.9,0-11.9c0-3.9,0-8.3,0-12.7c0-8.2-4.4-12.6-12.6-12.6c-19.5,0-39,0-58.5,0l-30.4,0h-45.7h0
	c-14.2,0-20.9-6.7-20.9-21v-10.9v-1.5h1.5h311.3h1.5v1.5v1.5c0,6.1,0,12.3,0,18.4l0,1.4C409.3,390.4,409.3,407.4,409.1,424.1z
	 M433,384.4h-1.5V383v-30.2v-1.5h1.5h30.2h1.5v1.5V383v1.5h-1.5H433z"/>
</svg>
