<svg id="Capa_1" xmlns="http://www.w3.org/2000/svg" viewBox="0 0 57 57"><style>.st0{fill:#ffd71c}</style><path class="st0" d="M52 14H38.2c3.6-1.7 5.9-3.8 6.8-6.1 1-2.4.3-4.5-.4-5.8-.5-1-1.5-1.7-2.6-1.9-5.2-1-9.8 1.3-13.3 6.8-2.7-4-7-8-13.3-6.8-1.1.2-2.1.9-2.6 1.9-1 1.9-1.2 3.9-.4 5.8.9 2.3 3.2 4.4 6.8 6.1H5c-1.4 0-2.5 1.1-2.5 2.5v8.1C2.5 25.9 3.6 27 5 27h.5v30h46V27h.5c1.4 0 2.5-1.1 2.5-2.5v-8.1c0-1.3-1.1-2.4-2.5-2.4zM41.6 2.2c.5.1 1 .4 1.2.9.5 1 1 2.4.3 4.1-1.1 2.6-4.7 5-10.5 6.8H32c-.3-.8-1-2.8-2.2-5.1 2.3-3.8 6.1-7.8 11.8-6.7zM29 26.5l-4.5 7.1V30h-3.8l5.1-5.8c.1-.1.2-.2.3-.2h5.7c.1 0 .3.1.3.2l5.1 5.8h-3.7v3.6L29 26.5zm1.5-4.5h-3v-6h3v6zM14.3 7.2c-.7-1.7-.2-3.1.3-4.1.2-.5.7-.8 1.2-.9 8.6-1.7 13 8.6 14.1 11.8h-5.2c-5.7-1.8-9.4-4.2-10.4-6.8zM5 25c-.3 0-.5-.2-.5-.5v-8.1c0-.2.2-.4.5-.4h20.5v6H25l-.7.8-1.7 2c-.1.1-.2.2-.3.2H5zm2.5 30V27h13.2l-4.4 5h6.2v8.4l3-4.7V55h-18zm20 0V32.6l1.5-2.4 1.5 2.3V55h-3zm22 0h-17V35.6l3.1 4.8V32h6.1l-4.4-5h12.2v28zm3-30.5c0 .3-.2.5-.5.5H35.8c-.1 0-.3-.1-.3-.2l-1.7-2-.8-.8h-.5v-6H52c.3 0 .5.2.5.5v8z"/></svg>