<svg width="32" height="32" viewBox="0 0 32 32" fill="none" xmlns="http://www.w3.org/2000/svg">
<g id="icon_5">
<g id="Group 30700">
<path id="Vector" d="M12 24C18.0751 24 23 19.0751 23 13C23 6.92487 18.0751 2 12 2C5.92487 2 1 6.92487 1 13C1 19.0751 5.92487 24 12 24Z" fill="#FFD71C"/>
<path id="Vector_2" d="M29.5188 17.9203C29.5988 18.0003 29.8388 17.9203 29.9988 17.7603C30.0788 17.6803 30.1588 17.6003 30.2388 17.4403C30.4788 17.2003 30.6388 16.9603 30.7987 16.7203C31.1188 16.3203 31.4388 15.8403 31.5988 15.3603C31.7588 14.8803 31.7588 14.4003 31.5988 13.9203C31.4388 13.5203 31.1987 13.1203 30.8787 12.7203C29.5187 11.1203 26.8787 7.60029 24.6388 8.72029C24.0788 8.96029 22.4788 9.76029 22.4788 10.5603C22.4788 10.6403 22.4788 10.7203 22.4788 10.8003C22.4788 10.8803 22.4788 10.9603 22.5588 11.0403C22.5588 11.2003 22.6388 11.2003 22.7987 11.2803C22.8787 11.3603 22.9588 11.3603 22.9588 11.4403C22.9588 11.4403 22.9588 11.4403 22.9588 11.5203C22.3988 12.8003 20.5588 14.0003 19.1988 13.9203C17.6788 13.7603 16.7188 12.4803 15.6788 11.3603C15.8388 11.2003 15.9988 11.0403 16.1588 10.8003C16.1588 10.6403 16.1588 10.5603 16.0788 10.4803C15.8388 10.1603 15.2788 9.84029 14.8788 9.60029C14.2388 9.20029 13.5988 8.56029 12.7987 8.48029C11.9187 8.40029 11.5187 9.36029 10.9587 9.84029L11.5187 9.36029C11.6787 9.20029 11.9188 9.04029 12.0788 8.88029C12.4788 8.64029 12.9587 8.80029 13.3587 9.04029C13.5987 9.28029 13.9988 9.52029 14.3187 9.84029C12.2387 12.0003 10.1587 14.0803 8.07875 16.2403C7.75875 15.8403 7.51875 15.4403 7.19875 15.1203C7.03875 14.8803 7.03875 14.6403 7.03875 14.4003C7.11875 14.1603 7.19875 13.9203 7.27875 13.6803C7.43875 13.5203 7.59875 13.2803 7.83875 13.1203C8.23875 12.6403 8.63875 12.2403 9.03875 11.7603C9.11875 11.6803 9.67875 11.0403 9.67875 11.0403C9.19875 11.4403 8.63875 11.8403 8.15875 12.2403C7.91875 12.4803 7.67875 12.6403 7.43875 12.8803C7.19875 13.1203 6.95875 13.2803 6.71875 13.6003C6.87875 14.0003 6.79875 14.3203 6.79875 14.6403C6.71875 15.0403 7.11875 15.5203 7.35875 15.8403C7.83875 16.5603 8.31875 17.2803 8.95875 17.8403C9.19875 17.9203 9.19875 17.8403 9.27875 17.7603C9.51875 17.6003 9.83875 17.2803 10.0788 17.0403C10.0788 17.1203 10.0787 17.2003 10.1587 17.2003C10.3187 17.3603 10.5587 17.5203 10.7187 17.7603C8.23875 20.0803 9.27875 24.0803 12.6388 24.8803C13.0388 26.0003 13.5988 26.9603 14.7188 27.2803C14.7188 27.6803 14.7188 28.0803 14.7188 28.5603C14.7188 28.7203 14.7188 28.4003 14.7188 28.6403C14.7188 28.7203 14.7188 28.8803 14.7988 28.9603C14.8788 29.2803 15.0388 29.5203 15.3588 29.6003C15.9988 29.8403 16.2388 29.5203 16.3988 29.0403C16.7188 28.8003 17.1187 28.8803 17.4388 29.0403C17.6788 29.6003 18.0788 30.0003 18.7188 29.6003C18.8787 29.4403 18.9587 29.2803 19.0387 29.1203C19.3588 28.9603 19.6788 29.0403 19.9988 29.1203C20.0788 29.5203 20.3188 29.7603 20.7988 29.7603C21.2788 29.7603 21.4388 29.4403 21.5988 29.1203C21.9188 28.9603 22.3188 28.9603 22.5588 29.1203C22.6388 29.4403 22.8788 29.7603 23.3588 29.7603C23.8388 29.7603 24.0788 29.3603 24.2388 28.9603C24.2388 28.8003 24.2388 28.6403 24.3188 28.4803C24.3188 28.4003 24.3188 28.4803 24.3188 28.2403C24.3188 27.3603 24.3188 26.5603 24.3188 25.6803C24.4788 25.6803 24.6388 25.6803 24.7987 25.6003C26.8787 25.1203 29.5187 24.4803 30.2388 22.1603C30.7188 20.5603 30.2387 18.9603 29.2787 17.6803C29.3587 17.8403 29.2788 17.8403 29.5188 17.9203ZM25.1187 9.36029C26.7188 8.88029 27.6787 10.3203 28.6388 11.3603C29.2787 12.0003 30.7188 12.9603 31.1188 13.8403C31.2788 14.1603 31.0387 15.4403 30.6388 16.2403C28.4788 14.0803 26.3188 11.9203 24.2388 9.84029C24.4788 9.60029 24.7987 9.44029 25.1187 9.36029ZM23.6788 10.0803C25.9188 12.3203 28.0788 14.4803 30.2388 16.6403C29.8388 17.1203 29.3587 17.2003 28.8787 16.5603C27.1187 14.8003 25.2787 13.0403 23.5188 11.2003C23.1187 10.8003 23.2788 10.4003 23.6788 10.0803ZM27.2788 15.8403C27.1188 16.0003 26.8787 16.2403 26.7188 16.4003C26.4788 16.6403 26.1588 17.1203 25.7588 16.9603C25.0388 16.7203 25.6788 16.3203 25.9188 16.0803C26.1588 15.8403 26.4788 15.5203 26.7188 15.2803C26.9587 15.4403 27.1188 15.6803 27.2788 15.8403ZM25.1187 13.6803C24.9587 13.8403 24.7988 14.0003 24.5588 14.2403C24.2388 14.5603 24.0788 14.8003 23.6788 14.8003C23.3588 14.8003 23.0387 14.5603 23.1988 14.3203C23.2788 14.1603 23.4387 14.0803 23.5188 14.0003C23.8388 13.6803 24.1588 13.4403 24.3988 13.1203C24.7188 13.2803 24.8787 13.4403 25.1187 13.6803ZM23.4387 12.0003C23.6787 12.2403 23.8388 12.4003 24.0788 12.6403C23.3588 13.2803 22.3188 14.1603 23.0387 15.2003C23.3587 15.7603 23.9988 15.6003 24.3988 15.2003C24.7987 14.8003 25.1187 14.4803 25.5188 14.0803C25.7588 14.3203 26.0788 14.6403 26.3188 14.8803C25.5988 15.5203 24.7188 16.2403 25.1988 17.2003C25.3588 17.5203 25.7588 17.8403 26.1588 17.7603C26.3988 17.6803 26.4788 17.5203 26.6388 17.3603C26.9587 16.9603 27.3587 16.6403 27.6787 16.2403C27.9187 16.4803 28.0788 16.6403 28.3188 16.8803C27.7588 17.4403 27.1987 17.9203 26.7188 18.4803L26.6388 18.5603C26.3988 18.8003 26.1588 19.1203 25.9988 19.4403C24.3188 17.7603 22.6388 16.0803 20.8788 14.3203C21.9188 13.8403 22.5588 12.8803 23.4387 12.0003ZM26.5588 22.7203C26.4788 22.4803 26.4788 22.2403 26.3188 22.0003C26.1588 21.6803 25.9988 21.4403 25.7588 21.2003C25.9188 20.4803 26.3188 19.9203 26.7987 19.3603C28.0788 20.1603 27.9988 22.1603 26.5588 22.7203ZM19.5988 14.7203C19.8388 14.7203 20.1588 14.6403 20.3988 14.5603C20.3988 14.5603 20.3988 14.6403 20.4788 14.6403C22.2388 16.4003 23.9988 18.1603 25.8388 20.0003C25.7588 20.2403 25.5988 20.5603 25.5988 20.8003C24.7188 20.0003 23.4388 19.3603 22.5588 18.7203C21.1188 17.6803 19.8387 16.3203 18.2387 17.6803C16.7987 18.8803 15.5988 20.3203 14.3187 21.6003C14.2387 21.6803 14.1588 21.6803 13.9988 21.7603C13.9188 21.1203 13.7587 20.4803 13.4387 19.9203C15.1987 18.1603 16.8787 16.4803 18.6388 14.7203C18.6388 14.7203 18.6388 14.6403 18.7188 14.6403C18.8787 14.6403 19.1988 14.7203 19.5988 14.7203ZM19.3588 25.1203C20.1588 24.4003 20.8788 23.6803 21.6788 22.9603C21.5988 23.7603 21.9188 24.6403 22.3988 25.2003C21.3588 25.2003 20.3188 25.1203 19.3588 25.1203ZM21.9187 21.8403C20.7987 22.8803 19.6788 24.0003 18.4788 25.0403C18.4788 25.0403 18.4788 25.0403 18.3988 25.0403C18.5588 24.1603 18.3988 23.1203 17.8387 22.4003C17.1987 21.6003 16.2388 21.2003 15.2788 21.2803C15.6788 20.8803 16.0788 20.4803 16.4788 20.0803C16.7988 19.8403 17.1187 19.3603 17.4388 19.0403C17.5988 20.2403 18.3188 21.3603 19.6788 21.2803C20.8788 21.2003 21.2788 19.8403 21.3588 18.7203C22.3188 19.3603 23.1988 20.0803 23.7588 20.5603C22.9588 20.6403 22.3188 21.1203 21.9187 21.8403ZM13.1988 22.8803C12.6388 22.8003 12.0788 22.5603 11.6788 22.1603C11.1988 21.6803 11.0387 21.0403 11.3587 20.4003C11.5987 20.0003 11.9188 19.6803 12.2387 19.4403C12.3988 19.6003 12.6388 19.7603 12.7987 20.0003C12.8787 20.1603 12.9588 20.4003 13.0388 20.5603C13.1988 20.8803 13.6788 21.8403 13.5988 22.2403C13.4388 22.4003 13.2788 22.6403 13.1988 22.8803ZM17.8387 18.6403C18.0787 18.4003 18.3988 18.0803 18.7188 18.0003C19.4388 17.6803 20.2387 18.0003 21.0387 18.4803C21.0387 19.3603 20.7188 20.4003 19.7588 20.4803C18.6388 20.5603 17.8387 19.6803 17.8387 18.6403ZM15.4388 11.8403C16.3187 12.8003 17.0388 13.7603 17.9988 14.3203C16.3188 16.0003 14.6388 17.6803 13.0388 19.3603C12.9588 19.2803 12.8788 19.2003 12.8788 19.1203C12.1588 18.2403 11.2788 17.5203 10.4788 16.8003C10.7188 16.5603 10.9587 16.4003 11.1187 16.1603C11.5987 16.7203 12.9588 18.5603 13.6788 17.3603C14.3188 16.3203 13.1988 15.4403 12.4788 14.7203C12.5588 14.6403 12.6387 14.5603 12.7187 14.4803C12.8787 14.3203 13.1188 14.0803 13.2788 13.9203C13.2788 14.0003 13.2787 14.0003 13.3587 14.0003C13.7587 14.4003 14.1587 14.8003 14.5587 15.1203C14.6387 15.2003 14.7988 15.3603 14.8788 15.4403C15.2788 15.6003 15.6788 15.3603 15.8387 15.0403C16.4788 14.0003 15.3587 13.1203 14.5587 12.4003C14.9587 12.2403 15.1987 12.0003 15.4388 11.8403ZM12.1588 15.1203C12.4787 15.4403 12.7188 15.7603 13.0388 16.0003C13.1988 16.1603 13.3587 16.3203 13.4387 16.4803C13.4387 16.4803 13.5188 16.4803 13.5188 16.5603C13.5988 16.8003 13.3587 16.9603 13.1187 17.0403C12.7187 17.0403 12.4788 16.7203 12.2387 16.4803C11.9988 16.2403 11.8387 16.0003 11.5988 15.8403C11.7587 15.5203 11.9987 15.2803 12.1588 15.1203ZM14.3187 12.8803C14.3187 12.9603 14.3187 12.9603 14.3187 12.8803C14.6388 13.2003 14.9588 13.5203 15.1988 13.8403C15.3588 14.0003 15.5988 14.1603 15.6788 14.3203C15.8388 14.5603 15.4388 14.8003 15.1988 14.8003C14.8788 14.7203 14.6388 14.4003 14.3988 14.1603C14.1588 13.9203 13.9187 13.7603 13.7587 13.5203C13.9187 13.2803 14.1588 13.1203 14.3187 12.8803ZM9.11875 17.3603C8.95875 17.1203 8.87875 16.9603 8.71875 16.7203C10.7987 14.5603 12.8788 12.4003 14.9588 10.2403V10.1603C15.0388 10.2403 15.1988 10.3203 15.2788 10.4003C15.3588 10.4803 15.5188 10.5603 15.6788 10.7203C13.5188 12.8003 11.3588 14.9603 9.27875 17.1203C9.27875 17.2003 9.19875 17.2803 9.11875 17.3603ZM11.6788 23.9203C11.1988 23.6803 10.7988 23.3603 10.4788 22.9603C9.27875 21.4403 9.75875 19.3603 11.1988 18.2403C11.4387 18.4803 11.5988 18.6403 11.8388 18.8803C10.9588 19.6803 10.5588 20.8003 11.0388 22.0003C11.3588 22.7203 11.9988 23.3603 12.7987 23.5203C12.7987 23.6003 12.7187 23.6803 12.7187 23.7603C12.6387 23.8403 12.7188 24.2403 12.5587 24.2403C12.4787 24.3203 11.8388 24.0003 11.6788 23.9203ZM12.9587 24.5603C12.9587 24.4803 12.9588 24.4803 13.0388 24.4003C13.2788 23.6803 13.5188 23.0403 14.0788 22.4803C15.9988 21.2803 18.7988 22.9603 18.0788 25.2803C16.6388 27.6003 13.9187 26.8803 12.9587 24.5603ZM15.0387 28.7203C15.0387 28.8003 15.0387 28.8803 15.0387 28.7203V28.7203ZM15.2788 28.9603C15.1988 28.8803 15.1187 28.8003 15.0387 28.7203C15.0387 28.5603 15.0387 28.4003 15.0387 28.3203C15.0387 28.0803 15.0387 27.7603 15.0387 27.5203C15.1187 27.5203 15.1188 27.5203 15.1988 27.5203C15.5988 27.6003 15.9188 27.5203 16.1588 27.4403C16.2388 28.2403 16.2388 29.5203 15.2788 28.9603ZM16.5588 28.3203C16.5588 27.9203 16.5588 27.5203 16.5588 27.2803C16.8788 27.1203 17.1188 26.8803 17.3588 26.6403C17.3588 27.2003 17.3588 27.7603 17.3588 28.3203C17.0388 28.2403 16.7988 28.2403 16.5588 28.3203ZM17.5988 28.5603C17.5988 28.4003 17.5988 28.3203 17.5988 28.1603C17.5988 27.5203 17.5988 26.9603 17.5988 26.3203V26.2403C17.7588 26.0803 17.9987 25.9203 18.2387 25.8403C18.3988 25.7603 18.6388 25.6803 18.7988 25.6803C18.7988 26.5603 18.9588 27.7603 18.7988 28.4803C18.6388 29.2003 17.7588 29.2803 17.5988 28.5603ZM19.1188 28.3203C19.1188 28.2403 19.1188 28.1603 19.1188 28.0803C19.1188 27.2803 19.1188 26.4803 19.1188 25.6803C19.3588 25.6803 19.5988 25.6003 19.8387 25.6003C19.8387 26.4803 19.8387 27.3603 19.8387 28.2403V28.3203C19.5988 28.3203 19.3588 28.3203 19.1188 28.3203ZM20.7988 29.0403C19.9988 29.0403 20.2387 28.0803 20.2387 27.6003C20.2387 26.9603 20.2387 26.3203 20.2387 25.6803C20.6388 25.6803 21.0387 25.6803 21.4388 25.7603C21.4388 26.4003 21.4388 26.9603 21.4388 27.6003C21.3588 28.0003 21.5988 29.0403 20.7988 29.0403ZM21.6788 28.4003C21.6788 28.3203 21.6788 28.3203 21.6788 28.4003C21.6788 27.4403 21.6788 26.6403 21.6788 25.7603C21.9188 25.7603 22.1588 25.8403 22.3988 25.8403C22.3988 26.6403 22.3988 27.4403 22.3988 28.3203V28.4003C22.2388 28.2403 21.9188 28.3203 21.6788 28.4003ZM23.3588 29.0403C22.5588 29.0403 22.7987 28.0003 22.7987 27.5203C22.7987 26.9603 22.7987 26.3203 22.7987 25.7603C23.1187 25.7603 23.4388 25.7603 23.6788 25.7603C23.7588 25.7603 23.8388 25.7603 23.9188 25.7603C23.9188 26.3203 23.9188 26.8803 23.9188 27.3603C23.9188 28.0003 24.1588 29.0403 23.3588 29.0403ZM23.7588 25.0403C22.3188 24.9603 21.4388 23.3603 22.2387 22.0803C22.7987 21.2803 23.8388 21.0403 24.7188 21.2803C25.9188 22.4003 27.0388 23.9203 24.8788 24.8003C24.5588 24.9603 24.1588 25.0403 23.7588 25.0403ZM27.0387 24.2403C26.7987 24.3203 26.5588 24.4003 26.3188 24.4803C26.4788 24.1603 26.5588 23.8403 26.6388 23.4403C28.3988 22.7203 28.6388 20.0803 27.2788 18.8003C27.5188 18.6403 27.6788 18.4003 27.9188 18.1603C28.1588 17.9203 28.3187 17.6803 28.4788 17.6003C30.7188 20.1603 30.0788 23.2803 27.0387 24.2403Z" fill="#010101"/>
</g>
</g>
</svg>
