<svg width="32" height="32" viewBox="0 0 32 32" fill="none" xmlns="http://www.w3.org/2000/svg">
<g id="icon_4">
<g id="Group 30701">
<path id="Vector" d="M12 24C18.0751 24 23 19.0751 23 13C23 6.92487 18.0751 2 12 2C5.92487 2 1 6.92487 1 13C1 19.0751 5.92487 24 12 24Z" fill="#FFD71C"/>
<g id="Group">
<g id="&#208;&#161;&#208;&#187;&#208;&#190;&#208;&#185;_1_7_">
<g id="Group_2">
<g id="Group_3">
<g id="Group_4">
<g id="Group_5">
<path id="Vector_2" d="M24.5765 18.6521C24.4965 18.5721 24.4965 18.492 24.4965 18.412C24.2565 18.252 23.9365 18.1721 23.6965 18.0921C23.2165 17.9321 22.8165 17.8521 22.3365 17.8521H14.6565C14.1765 17.8521 13.7765 17.852 13.2965 17.932C11.5365 18.172 10.0165 19.532 9.53649 21.212H8.57649C8.33649 20.892 8.09649 20.6521 7.77649 20.5721C7.53649 20.4921 7.29649 20.492 7.13649 20.492L6.57649 20.5721L4.49649 20.6521C4.41649 20.7321 4.49649 20.732 4.49649 20.732L6.73649 20.812C7.05649 20.892 7.45649 20.8121 7.69649 20.9721C7.93649 21.0521 8.09649 21.212 8.17649 21.532C8.17649 21.692 8.33649 21.7721 8.41649 21.7721H9.77649C9.93649 21.7721 10.0165 21.612 10.0965 21.532C10.4165 20.012 11.7765 18.7321 13.3765 18.4921C13.6965 18.4121 14.1765 18.412 14.5765 18.412H22.2565C22.6565 18.412 23.0565 18.4921 23.4565 18.6521C24.0165 18.8121 24.5765 19.132 24.9765 19.532C24.8165 19.132 24.6565 18.8921 24.5765 18.6521Z" fill="#010101"/>
</g>
<g id="Group_6">
<path id="Vector_3" d="M4.5 24.7319L6.58 24.4919C6.9 24.4119 7.3 24.4119 7.54 24.3319C7.78 24.1719 7.94 24.0119 8.02 23.7719C8.1 23.6119 8.26 23.5319 8.34 23.5319H9.78C9.94 23.5319 10.02 23.6919 10.1 23.7719C10.5 25.0519 11.62 26.0919 12.9 26.3319C13.22 26.4119 13.54 26.4119 13.94 26.4119H14.98H17.22H21.62H22.18C22.34 26.4119 22.5 26.4119 22.66 26.3319C22.98 26.2519 23.3 26.1719 23.62 26.0919C24.26 25.8519 24.74 25.4519 25.14 24.9719V24.8919C25.3 24.6519 25.62 24.6519 25.78 24.8119C25.86 24.8919 25.86 24.8919 25.94 24.9719L27.7 28.2519C27.7 28.3319 27.7 28.3319 27.7 28.4119C27.7 28.6519 27.62 28.8919 27.7 29.0519C27.78 29.2119 27.86 29.2119 28.1 29.2919C28.58 29.2919 29.06 29.0519 29.46 28.8919C29.86 28.6519 30.26 28.3319 30.58 27.9319C30.9 27.6119 31.22 27.1319 31.14 26.7319C31.14 26.6519 31.06 26.5719 30.9 26.4919C30.74 26.4919 30.58 26.4919 30.34 26.4919C30.26 26.4919 30.18 26.4919 30.1 26.4119L27.22 22.6519L30.5 26.0919H30.34C30.58 26.0119 30.82 26.0119 30.98 26.0119C31.14 26.0119 31.22 26.0919 31.38 26.2519C31.54 26.4119 31.62 26.4919 31.62 26.7319V26.6519C31.7 26.9719 31.54 27.2919 31.38 27.5319C31.22 27.7719 31.14 28.0119 30.9 28.1719C30.58 28.5719 30.1 28.8919 29.62 29.2119C29.14 29.5319 28.58 29.6919 28.02 29.6919C27.94 29.6919 27.86 29.6919 27.78 29.6919C27.7 29.6919 27.54 29.6919 27.54 29.6119C27.3 29.5319 27.22 29.3719 27.22 29.1319C27.14 28.8119 27.22 28.4919 27.3 28.2519V28.4119L25.14 25.4519L25.86 25.5319C25.3 26.1719 24.74 26.6519 23.94 26.9719C23.54 27.1319 23.22 27.2119 22.82 27.2919C22.58 27.2919 22.42 27.3719 22.18 27.3719H21.62H17.22H14.98H13.94C13.54 27.3719 13.14 27.2919 12.82 27.2119C11.3 26.8119 10.02 25.6119 9.54 24.0919L9.86 24.3319H8.42L8.74 24.0919C8.5 24.4919 8.18 24.8119 7.7 24.9719C7.46 25.0519 7.22 25.0519 7.06 25.0519L6.5 24.9719L4.5 24.7319Z" fill="#010101"/>
</g>
<g id="Group_7">
<g id="Group_8">
<path id="Vector_4" d="M12.8197 20.4919C13.1731 20.4919 13.4597 20.2054 13.4597 19.8519C13.4597 19.4985 13.1731 19.2119 12.8197 19.2119C12.4662 19.2119 12.1797 19.4985 12.1797 19.8519C12.1797 20.2054 12.4662 20.4919 12.8197 20.4919Z" fill="#010101"/>
<path id="Vector_5" d="M14.8978 20.4919C15.2513 20.4919 15.5378 20.2054 15.5378 19.8519C15.5378 19.4985 15.2513 19.2119 14.8978 19.2119C14.5443 19.2119 14.2578 19.4985 14.2578 19.8519C14.2578 20.2054 14.5443 20.4919 14.8978 20.4919Z" fill="#010101"/>
<path id="Vector_6" d="M16.9759 20.4919C17.3294 20.4919 17.6159 20.2054 17.6159 19.8519C17.6159 19.4985 17.3294 19.2119 16.9759 19.2119C16.6225 19.2119 16.3359 19.4985 16.3359 19.8519C16.3359 20.2054 16.6225 20.4919 16.9759 20.4919Z" fill="#010101"/>
</g>
<g id="Group_9">
<path id="Vector_7" d="M12.8197 22.3318C13.1731 22.3318 13.4597 22.0452 13.4597 21.6918C13.4597 21.3383 13.1731 21.0518 12.8197 21.0518C12.4662 21.0518 12.1797 21.3383 12.1797 21.6918C12.1797 22.0452 12.4662 22.3318 12.8197 22.3318Z" fill="#010101"/>
<path id="Vector_8" d="M14.8978 22.3318C15.2513 22.3318 15.5378 22.0452 15.5378 21.6918C15.5378 21.3383 15.2513 21.0518 14.8978 21.0518C14.5443 21.0518 14.2578 21.3383 14.2578 21.6918C14.2578 22.0452 14.5443 22.3318 14.8978 22.3318Z" fill="#010101"/>
<path id="Vector_9" d="M16.9759 22.3318C17.3294 22.3318 17.6159 22.0452 17.6159 21.6918C17.6159 21.3383 17.3294 21.0518 16.9759 21.0518C16.6225 21.0518 16.3359 21.3383 16.3359 21.6918C16.3359 22.0452 16.6225 22.3318 16.9759 22.3318Z" fill="#010101"/>
<path id="Vector_10" d="M19.0619 22.3318C19.4153 22.3318 19.7019 22.0452 19.7019 21.6918C19.7019 21.3383 19.4153 21.0518 19.0619 21.0518C18.7084 21.0518 18.4219 21.3383 18.4219 21.6918C18.4219 22.0452 18.7084 22.3318 19.0619 22.3318Z" fill="#010101"/>
</g>
<g id="Group_10">
<path id="Vector_11" d="M12.8197 24.1721C13.1731 24.1721 13.4597 23.8856 13.4597 23.5321C13.4597 23.1786 13.1731 22.8921 12.8197 22.8921C12.4662 22.8921 12.1797 23.1786 12.1797 23.5321C12.1797 23.8856 12.4662 24.1721 12.8197 24.1721Z" fill="#010101"/>
<path id="Vector_12" d="M14.8978 24.1721C15.2513 24.1721 15.5378 23.8856 15.5378 23.5321C15.5378 23.1786 15.2513 22.8921 14.8978 22.8921C14.5443 22.8921 14.2578 23.1786 14.2578 23.5321C14.2578 23.8856 14.5443 24.1721 14.8978 24.1721Z" fill="#010101"/>
<path id="Vector_13" d="M16.9759 24.1721C17.3294 24.1721 17.6159 23.8856 17.6159 23.5321C17.6159 23.1786 17.3294 22.8921 16.9759 22.8921C16.6225 22.8921 16.3359 23.1786 16.3359 23.5321C16.3359 23.8856 16.6225 24.1721 16.9759 24.1721Z" fill="#010101"/>
<path id="Vector_14" d="M19.0619 24.1721C19.4153 24.1721 19.7019 23.8856 19.7019 23.5321C19.7019 23.1786 19.4153 22.8921 19.0619 22.8921C18.7084 22.8921 18.4219 23.1786 18.4219 23.5321C18.4219 23.8856 18.7084 24.1721 19.0619 24.1721Z" fill="#010101"/>
<path id="Vector_15" d="M21.3011 23.6123C21.3011 23.9323 21.4611 24.0923 21.1411 24.0923C20.8211 24.0923 20.5011 23.8523 20.5011 23.4523C20.5011 23.1323 20.2611 23.1323 20.6611 23.1323C20.9811 23.1323 21.3011 23.2923 21.3011 23.6123Z" fill="#010101"/>
</g>
<g id="Group_11">
<path id="Vector_16" d="M12.8197 25.9319C13.1731 25.9319 13.4597 25.6453 13.4597 25.2919C13.4597 24.9384 13.1731 24.6519 12.8197 24.6519C12.4662 24.6519 12.1797 24.9384 12.1797 25.2919C12.1797 25.6453 12.4662 25.9319 12.8197 25.9319Z" fill="#010101"/>
<path id="Vector_17" d="M14.8978 25.9319C15.2513 25.9319 15.5378 25.6453 15.5378 25.2919C15.5378 24.9384 15.2513 24.6519 14.8978 24.6519C14.5443 24.6519 14.2578 24.9384 14.2578 25.2919C14.2578 25.6453 14.5443 25.9319 14.8978 25.9319Z" fill="#010101"/>
<path id="Vector_18" d="M16.9759 25.9319C17.3294 25.9319 17.6159 25.6453 17.6159 25.2919C17.6159 24.9384 17.3294 24.6519 16.9759 24.6519C16.6225 24.6519 16.3359 24.9384 16.3359 25.2919C16.3359 25.6453 16.6225 25.9319 16.9759 25.9319Z" fill="#010101"/>
<path id="Vector_19" d="M19.0619 25.9319C19.4153 25.9319 19.7019 25.6453 19.7019 25.2919C19.7019 24.9384 19.4153 24.6519 19.0619 24.6519C18.7084 24.6519 18.4219 24.9384 18.4219 25.2919C18.4219 25.6453 18.7084 25.9319 19.0619 25.9319Z" fill="#010101"/>
<path id="Vector_20" d="M21.14 25.9319C21.4935 25.9319 21.78 25.6453 21.78 25.2919C21.78 24.9384 21.4935 24.6519 21.14 24.6519C20.7865 24.6519 20.5 24.9384 20.5 25.2919C20.5 25.6453 20.7865 25.9319 21.14 25.9319Z" fill="#010101"/>
</g>
</g>
<path id="Vector_21" d="M16.9766 18.1719C17.0566 18.4119 23.4566 26.7319 23.4566 26.7319" stroke="#010101" stroke-width="0.7388" stroke-miterlimit="10"/>
</g>
</g>
<g id="Group_12">
<g id="Group_13">
<path id="Vector_22" d="M30.9758 14.8122C31.6158 16.2522 31.6958 17.9322 31.1358 19.3722C30.5758 20.8922 29.4558 22.0922 27.9358 22.7322C26.4958 23.3722 24.7358 23.3722 23.2958 22.8922C21.7758 22.3322 20.4958 21.1322 19.9358 19.6922C19.2958 18.1722 19.2958 16.4922 19.8558 15.0522C20.4158 13.6122 21.6158 12.3322 23.0558 11.7722C24.5758 11.1322 26.2558 11.1322 27.6158 11.6922C29.2158 12.1722 30.3358 13.3722 30.9758 14.8122ZM30.5758 14.9722C29.9358 13.6122 28.8958 12.6522 27.5358 12.0922C26.1758 11.5322 24.6558 11.6122 23.3758 12.2522C22.0958 12.8922 21.0558 13.9322 20.5758 15.2922C20.0158 16.6522 20.0958 18.0922 20.7358 19.3722C21.3758 20.6522 22.3358 21.6922 23.6958 22.1722C24.9758 22.7322 26.4958 22.6522 27.7758 22.0922C29.0558 21.5322 30.0958 20.4922 30.6558 19.1322C31.2158 17.8522 31.2158 16.3322 30.5758 14.9722Z" fill="#010101"/>
</g>
</g>
<g id="Group_14">
<g id="Group_15">
<path id="Vector_23" d="M24.8163 16.7324C24.5763 17.2924 24.1763 17.7724 23.6163 18.1724C23.0563 18.4924 22.4163 18.7324 21.6963 18.6524L22.0163 18.0924C22.2563 18.3324 22.4963 18.7324 22.8163 18.9724C23.0563 19.2124 23.4563 19.4524 23.8563 19.6124C24.4963 20.0124 25.3763 20.2524 26.1763 20.2524L25.9363 20.4124C26.4963 19.4524 26.9763 18.4924 27.2163 17.5324L27.7763 17.3724C27.6163 18.0124 27.4563 18.7324 27.1363 19.2124C26.8963 19.6924 26.5763 20.1724 26.2563 20.6524C26.1763 20.7324 26.0963 20.8124 26.0163 20.8124C25.1363 20.8124 24.2563 20.5724 23.4563 20.1724C23.0563 19.9324 22.7363 19.7724 22.3363 19.4524C22.0163 19.2124 21.6963 18.8124 21.3763 18.4924C21.2163 18.3324 21.2963 18.1724 21.4563 18.0124C21.5363 17.9324 21.6163 17.9324 21.6963 17.9324H21.7763C22.0163 17.9324 22.3363 17.9324 22.5763 17.9324C22.8163 17.9324 23.1363 17.8524 23.3763 17.7724C23.9363 17.4524 24.4163 17.1324 24.8163 16.7324Z" fill="#010101"/>
</g>
<g id="Group_16">
<path id="Vector_24" d="M24.8984 16.4122C24.8984 16.3322 24.9784 16.1722 24.9784 16.1722C24.9784 16.0922 25.0584 16.0922 25.0584 16.0122C25.1384 15.9322 25.2184 15.8522 25.2984 15.7722C25.4584 15.6122 25.6184 15.6122 25.7784 15.5322C26.0184 15.5322 26.0984 15.5322 26.3384 15.6122L26.7384 15.8522L27.1384 16.0922C27.2984 16.1722 27.4584 16.3322 27.5384 16.4122C27.7784 16.6522 27.8584 17.1322 27.7784 17.4522C27.6984 17.6122 27.5384 17.6922 27.4584 17.6122C26.4984 17.2922 25.6984 16.8122 24.8984 16.4122ZM25.2184 16.3322L27.6184 17.2922L27.2984 17.4522C27.3784 17.2122 27.3784 17.0522 27.2184 16.8122C27.1384 16.7322 27.0584 16.5722 26.9784 16.5722L26.5784 16.3322L26.0984 16.0922C26.0184 16.0122 25.8584 16.0122 25.7784 16.0122C25.6984 16.0122 25.5384 16.0922 25.4584 16.1722C25.3784 16.1722 25.2984 16.2522 25.2984 16.3322C25.2984 16.3322 25.2984 16.3322 25.2184 16.3322Z" fill="#010101"/>
</g>
<path id="Vector_25" d="M24.0156 19.7721C24.0156 19.7721 25.0556 19.6921 25.6156 18.8921C25.6156 18.8921 25.2956 19.9321 24.6556 20.0121L24.0156 19.7721Z" fill="#010101"/>
<path id="Vector_26" d="M23.2147 19.6125C23.2147 19.6125 23.6947 19.1325 23.8547 18.8125C23.8547 18.8125 23.2147 19.2925 22.8147 19.1325C22.3347 18.8925 23.2947 19.6125 23.2147 19.6125Z" fill="#010101"/>
<g id="Group_17">
<path id="Vector_27" d="M26.0938 15.5323L26.7337 14.0923L27.0538 13.4523C27.1338 13.2123 27.4538 12.8123 27.8538 12.9723C28.3338 13.2123 28.2537 13.6923 28.1737 13.9323L27.9337 14.5723L27.5337 16.0123C27.4537 16.1723 27.2938 16.2523 27.2138 16.1723C26.8938 15.9323 26.4938 15.7723 26.0938 15.5323ZM26.4938 15.4523C26.8138 15.5323 27.1338 15.6123 27.4538 15.6923L27.1337 15.8523L27.6138 14.4923L27.8538 13.8523C27.9338 13.6123 27.8538 13.5323 27.8538 13.5323C27.6938 13.3723 27.5338 14.0123 27.2138 14.3323L26.4938 15.4523Z" fill="#010101"/>
</g>
</g>
<g id="Group_18">
<path id="Vector_28" d="M27.8569 28.4924C27.8569 28.4924 27.8569 28.4124 27.8569 28.3324C27.8569 28.2524 27.6969 28.1724 27.6969 28.1724C27.5369 28.1724 27.6169 28.1724 27.6169 28.1724C27.6169 28.1724 27.6169 28.1724 27.6969 28.1724H27.7769C27.8569 28.1724 27.9369 28.1724 28.0169 28.0924C28.1769 28.0924 28.2569 28.0124 28.4169 27.9324C28.6569 27.8524 28.9769 27.6924 29.1369 27.5324C29.6169 27.2124 30.0169 26.8124 30.2569 26.2524C30.2569 26.1724 30.3369 26.1724 30.4169 26.1724C30.4969 26.1724 30.4969 26.2524 30.4969 26.3324C30.2569 26.8924 29.8569 27.3724 29.4569 27.8524C29.2169 28.0924 28.9769 28.2524 28.6569 28.4124C28.4969 28.4924 28.4169 28.5724 28.1769 28.6524C28.0969 28.6524 28.0169 28.7324 27.9369 28.7324C27.8569 28.7324 27.8569 28.7324 27.7769 28.7324H27.6969C27.6969 28.7324 27.6969 28.7324 27.5369 28.7324C27.4569 28.7324 27.3769 28.6524 27.2969 28.5724C27.2969 28.4924 27.2969 28.4124 27.2969 28.4124C27.2969 28.2524 27.5369 28.1724 27.6169 28.1724C27.7769 28.2524 27.8569 28.3324 27.8569 28.4924Z" fill="#010101"/>
</g>
</g>
</g>
</g>
</g>
</g>
</svg>
