<svg width="32" height="32" viewBox="0 0 32 32" fill="none" xmlns="http://www.w3.org/2000/svg">
<g id="icon_about">
<g id="Group 30698">
<path id="Vector" d="M12 24C18.0751 24 23 19.0751 23 13C23 6.92487 18.0751 2 12 2C5.92487 2 1 6.92487 1 13C1 19.0751 5.92487 24 12 24Z" fill="#FFD71C"/>
<g id="&#208;&#161;&#208;&#187;&#208;&#190;&#208;&#185; 1">
<g id="&#208;&#161;&#208;&#187;&#208;&#190;&#208;&#185; 2">
<g id="Group">
<path id="Vector_2" d="M15.0617 20.2154C15.0617 20.9691 14.8437 21.7228 14.199 22.2586C13.6632 22.7943 12.9095 23.1213 12.1558 23.1213C11.4021 23.1213 10.6484 22.9033 10.1127 22.2586C9.57691 21.7228 9.25 20.9691 9.25 20.2154C9.25 19.4617 9.57691 18.708 10.1127 18.1722C10.6484 17.6365 11.4021 17.3096 12.1558 17.3096C12.9095 17.3096 13.6632 17.6365 14.199 18.1722C14.7348 18.708 15.0617 19.3527 15.0617 20.2154ZM14.417 20.2154C14.417 19.5707 14.199 19.1439 13.7722 18.708C13.3454 18.2812 12.8006 18.0633 12.2648 18.0633C11.6201 18.0633 11.1933 18.2812 10.7574 18.708C10.3215 19.1348 10.1127 19.6796 10.1127 20.2154C10.1127 20.7512 10.3306 21.2869 10.7574 21.7228C11.1842 22.1496 11.729 22.3676 12.2648 22.3676C13.3363 22.4765 14.5259 21.3959 14.417 20.2154Z" fill="#010101"/>
<path id="Vector_3" d="M13.0172 23.5489C11.5098 23.3309 10.1114 23.8758 9.25781 24.8383C8.28617 25.81 7.96834 27.0994 7.75041 28.4888L7.10567 27.7351L11.9457 28.3798C12.0547 28.3798 12.1637 28.4888 12.1637 28.5978C12.1637 28.7067 12.0547 28.8157 11.9457 28.8157L7.10567 29.0336C6.77876 29.0336 6.46094 28.8157 6.46094 28.3889C6.67888 27.6352 6.88773 26.8815 7.21464 26.2368C7.54155 25.592 8.07731 24.9473 8.72205 24.4115C10.0115 23.5489 11.7278 23.231 13.0172 23.5489Z" fill="#010101"/>
<path id="Vector_4" d="M23.3244 19.8892C23.2155 21.0697 24.3959 22.1504 25.5855 22.0414C26.2303 22.0414 26.6571 21.8234 27.0929 21.3966C27.5197 20.9699 27.7377 20.425 27.7377 19.8892C27.7377 19.3535 27.5197 18.8177 27.0929 18.3818C26.6661 17.955 26.1213 17.7371 25.5855 17.7371C24.9408 17.7371 24.514 17.955 24.0781 18.3818C23.6513 18.7087 23.3244 19.2445 23.3244 19.8892ZM22.6797 19.8892C22.6797 19.1355 22.8976 18.3818 23.4334 17.8461C23.9692 17.3103 24.7229 16.9834 25.4766 16.9834C26.2303 16.9834 26.984 17.2013 27.5197 17.8461C28.0555 18.3818 28.3824 19.1355 28.3824 19.8892C28.3824 20.6429 28.0555 21.3966 27.5197 21.9324C26.984 22.4682 26.2303 22.7951 25.4766 22.7951C24.7229 22.7951 23.9692 22.4682 23.4334 21.9324C23.0066 21.3966 22.6797 20.6429 22.6797 19.8892Z" fill="#010101"/>
<path id="Vector_5" d="M24.7344 23.3304C26.1328 23.0035 27.7401 23.2214 28.9297 24.1931C30.1102 25.1647 30.7549 26.663 31.0818 28.1704V28.3884C31.0818 28.6063 30.8639 28.9241 30.655 28.9241H30.5461L25.706 28.8152C25.597 28.8152 25.4881 28.7062 25.4881 28.5972C25.4881 28.4883 25.597 28.3793 25.706 28.3793L30.5461 27.8435L30.1193 28.4883C29.9013 27.0898 29.4745 25.8003 28.6119 24.8378C27.6402 23.5483 26.2509 23.2214 24.7435 23.3304H24.7344Z" fill="#010101"/>
<g id="Group_2">
<path id="Vector_6" d="M24.8919 28.4885C24.8283 28.4885 24.7648 28.6156 24.7648 28.552V28.0526C24.7648 27.8619 24.7012 27.6167 24.7012 27.426C24.6376 26.9902 24.5105 26.5452 24.4469 26.1729C24.2562 25.2921 23.8839 24.5474 23.3209 23.8573C22.8215 23.1672 22.1949 22.5406 21.4412 22.1683C20.6875 21.796 19.8157 21.6688 18.9349 21.6688C18.0541 21.7324 17.2459 21.9231 16.4286 22.359C15.6749 22.7948 15.0483 23.2943 14.5489 23.9844C13.55 25.3011 13.0415 27.0537 13.1686 28.6792L12.6692 28.1797C16.7374 28.2433 20.7511 28.3704 24.8828 28.4885H24.8919ZM25.3913 28.9244C21.2596 29.0515 17.0552 29.1151 12.7963 29.2331C12.5421 29.2331 12.2969 29.0424 12.2969 28.7337V28.6701C12.2969 26.7904 12.8599 24.8471 14.113 23.4033C14.7396 22.6496 15.4933 22.0865 16.3651 21.7142C17.2368 21.3419 18.1812 21.2148 19.062 21.1512C19.9429 21.0877 20.9418 21.2784 21.8226 21.6507C22.7034 22.0865 23.3845 22.7131 23.9566 23.4668C24.5196 24.2205 24.8919 25.0287 25.1461 25.9731C25.2733 26.409 25.3368 26.8539 25.4004 27.3534C25.464 27.5441 25.464 27.7893 25.464 27.98V28.543C25.464 28.6065 25.4004 28.8517 25.4004 28.9153L25.3913 28.9244Z" fill="#010101"/>
<path id="Vector_7" d="M22.5139 17.5188C22.5139 18.3996 22.2052 19.2713 21.5786 19.8979C21.0156 20.5245 20.0712 20.9604 19.1994 20.9604C18.3277 20.9604 17.3833 20.6516 16.7567 19.9615C16.1301 19.3349 15.7578 18.4541 15.7578 17.5188C15.7578 16.5834 16.1301 15.7026 16.7567 15.076C17.3833 14.4495 18.2641 14.0771 19.1994 14.0771C20.0803 14.0771 21.0156 14.4495 21.5786 15.076C22.1416 15.7662 22.5139 16.6379 22.5139 17.5188ZM21.9509 17.5188C21.9509 16.7651 21.6421 16.0114 21.0701 15.5755C20.5706 15.076 19.8805 14.7582 19.1268 14.7582C18.3731 14.7582 17.6829 15.067 17.2471 15.639C16.7476 16.1385 16.4298 16.8286 16.4298 17.5188C16.4298 18.2089 16.7385 18.899 17.2471 19.3985C17.7556 19.8979 18.4366 20.2157 19.1268 20.2157C19.8169 20.2157 20.5706 19.9615 21.0701 19.462C21.6331 19.0262 22.0054 18.2725 21.9509 17.5188Z" fill="#010101"/>
<path id="Vector_8" d="M18.32 21.7231C18.5107 22.0954 18.7558 22.4132 18.883 22.722L18.6287 22.5313H19.564L19.3733 22.722L19.9363 21.5324L20.127 21.9047C19.9363 21.8411 19.8183 21.8411 19.6276 21.8411H19.1281C18.9374 21.8411 18.8194 21.8411 18.6287 21.9047H18.32C18.32 21.8411 18.3835 21.714 18.32 21.714V21.7231ZM17.8841 21.4143C18.0112 21.2872 18.2564 21.2236 18.3835 21.2236H19.1372C19.2644 21.2236 19.5095 21.2236 19.6367 21.2872C19.8274 21.2872 20.009 21.3508 20.1997 21.4143C20.3268 21.4779 20.3904 21.605 20.3904 21.7231V21.7866L19.8274 22.9762C19.8697 22.9762 19.8909 22.9974 19.8909 23.0398C19.8909 23.0822 19.8697 23.1033 19.8274 23.1033H19.6367L18.7558 23.1669C18.6287 23.1669 18.5651 23.1034 18.5016 22.9762C18.1928 22.4768 18.0021 21.9138 17.875 21.4143H17.8841Z" fill="#010101"/>
<path id="Vector_9" d="M18.9423 23.1031C18.7516 24.2927 18.57 25.2916 18.3157 26.4267L18.2521 26.1179L19.3146 27.6254H18.9423L20.0047 26.1179L19.9412 26.3086L19.4417 22.7399L19.7505 22.9942C19.4326 23.1213 19.251 23.1213 18.9332 23.1213L18.9423 23.1031ZM18.57 22.4766H19.7595C19.9502 22.4766 20.0138 22.6037 20.0138 22.7308L20.5132 26.2996C20.5132 26.3631 20.5132 26.4903 20.4497 26.4903L19.3872 27.9341C19.2601 28.0612 19.1965 28.1248 19.0785 27.9977L19.0149 27.9341L17.7618 26.5538C17.6982 26.4903 17.6346 26.3631 17.6982 26.2996C17.9525 24.9829 18.2612 23.7297 18.579 22.4766H18.57Z" fill="#010101"/>
</g>
</g>
</g>
</g>
</g>
</g>
</svg>
