<svg width="32" height="32" viewBox="0 0 32 32" fill="none" xmlns="http://www.w3.org/2000/svg">
<g id="icon_2">
<g id="Group 30705">
<path id="Vector" d="M12 25C18.0751 25 23 20.0751 23 14C23 7.92487 18.0751 3 12 3C5.92487 3 1 7.92487 1 14C1 20.0751 5.92487 25 12 25Z" fill="#FFD71C"/>
<g id="Group">
<g id="&#208;&#161;&#208;&#187;&#208;&#190;&#208;&#185;_1_6_">
<g id="Group_2">
<g id="Group_3">
<path id="Vector_2" d="M10.1206 28.1624L17.8006 28.2424L21.6406 28.3224H23.5606H24.6006H24.6806C24.7606 28.3224 25.0006 28.4024 25.0006 28.4024C25.0806 28.4824 25.0806 28.4824 25.1606 28.5624C25.2406 28.6424 25.4006 28.7224 25.4806 28.8024C25.7206 28.8824 25.9606 28.9624 26.2806 28.9624C26.6006 28.9624 26.8406 28.8824 27.0006 28.7224C27.4006 28.4024 27.4006 27.8424 27.4806 27.1224C27.4806 26.8024 27.4806 26.4824 27.5606 26.1624V25.6824V25.4424C27.5606 25.4424 27.5606 25.2824 27.6406 25.1224C27.7206 25.0424 27.8006 24.9624 27.9606 24.9624C28.5206 24.9624 29.0006 24.4824 28.9206 23.9224C28.9206 23.8424 28.9206 23.8424 28.9206 23.7624C28.9206 23.6824 29.0006 23.5224 29.0806 23.4424L29.3206 23.3624L29.7206 23.0424L29.9606 22.9624L30.0406 22.8824L30.1206 22.8024L30.4406 22.4024L30.7606 22.0024C30.7606 21.9224 30.8406 21.9224 30.8406 21.9224C30.7606 21.9224 30.8406 22.0024 30.8406 21.9224V21.6824V20.7224V20.5624C30.8406 20.4024 30.8406 20.5624 30.9206 20.5624L30.2006 20.4024L29.7206 20.2424L29.4806 20.1624L29.2406 20.0824L27.6406 19.0424C27.5606 18.9624 27.5606 18.9624 27.5606 18.8024V18.2424L27.8006 18.4824H23.3206C23.2406 18.4824 23.0806 18.4024 23.0806 18.2424V17.6824L23.3206 17.9224H11.0006H10.2806H10.1206H10.0406C9.96062 17.9224 9.96062 17.9224 9.96062 17.9224C10.0406 17.9224 10.0406 17.8424 10.0406 17.8424V18.0024L10.1206 19.5224L10.2006 22.5624V25.5224V27.0424V27.7624V28.1624V28.2424C10.2806 28.2424 10.2006 28.1624 10.1206 28.1624ZM10.1206 28.8824C9.88062 28.8824 9.64062 28.7224 9.64062 28.4824C9.64062 28.3224 9.64062 28.4024 9.64062 28.3224V28.2424V27.8424V27.1224V25.6024V22.5624V19.5224V18.0024V17.8424C9.64062 17.6824 9.72062 17.5224 9.96062 17.4424C10.0406 17.4424 10.0406 17.4424 10.1206 17.4424H10.2006H10.3606H11.0806H23.2406C23.3206 17.4424 23.4806 17.5224 23.4806 17.6824V18.2424L23.2406 18.0024H27.7206C27.8006 18.0024 27.9606 18.0824 27.9606 18.2424V18.8024L27.8006 18.5624L29.4006 19.6024C29.5606 19.6824 29.6406 19.7624 29.8006 19.8424L30.2806 20.0024L30.7606 20.1624C30.8406 20.2424 30.9206 20.2424 31.0006 20.4024C31.0806 20.4824 31.0006 20.5624 31.0006 20.5624V20.8024V21.7624V22.0024C31.0006 22.0024 31.0006 22.1624 30.9206 22.2424L30.8406 22.5624L30.5206 22.9624L30.2006 23.3624L30.1206 23.4424L30.0406 23.5224L29.8006 23.6024L29.4806 23.9224L29.2406 24.0024L29.3206 23.9224V24.0024C29.4006 24.3224 29.2406 24.8024 29.0006 25.0424C28.9206 25.2024 28.6806 25.3624 28.5206 25.3624C28.3606 25.4424 28.1206 25.4424 27.9606 25.4424C28.0406 25.4424 28.0406 25.4424 28.0406 25.3624V25.6024V26.0824C28.0406 26.4024 28.0406 26.7224 28.0406 27.0424C28.0406 27.3624 28.0406 27.6824 27.9606 28.0824C27.8806 28.4824 27.7206 28.8024 27.4006 29.1224C27.0806 29.3624 26.7606 29.4424 26.3606 29.5224C25.9606 29.6024 25.5606 29.4424 25.2406 29.2824C25.0806 29.2024 24.9206 29.1224 24.7606 28.9624C24.6806 28.8824 24.6006 28.8824 24.5206 28.8024C24.5206 28.8824 24.6006 28.8824 24.6006 28.8824H24.5206H23.5606H21.6406H17.8006H10.1206Z" fill="#010101"/>
</g>
<g id="Group_4">
<path id="Vector_3" d="M25.9591 24.5626C26.0391 25.0426 25.6391 25.6026 25.0791 25.6026C24.7591 25.6026 24.5191 25.5226 24.3591 25.2826C24.1191 25.1226 24.0391 24.8026 24.0391 24.5626C24.0391 24.3226 24.1991 24.0826 24.3591 23.9226C24.5991 23.7626 24.8391 23.6826 24.9991 23.6826C25.5591 23.7626 25.9591 24.1626 25.9591 24.5626ZM25.7191 24.5626C25.7191 24.3226 25.6391 24.1626 25.4791 24.0026C25.3191 23.8426 25.1591 23.7626 24.9191 23.8426C24.5191 23.9226 24.2791 24.2426 24.2791 24.5626C24.2791 24.8826 24.5991 25.2026 24.9191 25.2026C25.0791 25.2026 25.2391 25.2026 25.3991 25.0426C25.6391 24.9626 25.7191 24.8026 25.7191 24.5626Z" fill="#010101"/>
</g>
<g id="Group_5">
<path id="Vector_4" d="M12.6778 22.5626C12.7578 23.0426 12.3578 23.6026 11.7978 23.6026C11.4778 23.6026 11.2378 23.5226 11.0778 23.2826C10.8378 23.1226 10.7578 22.8026 10.7578 22.5626C10.7578 22.3226 10.9178 22.0826 11.0778 21.9226C11.3178 21.7626 11.5578 21.6826 11.7178 21.6826C12.2778 21.6826 12.6778 22.0826 12.6778 22.5626ZM12.5178 22.5626C12.5178 22.3226 12.4378 22.1626 12.2778 22.0026C12.1178 21.8426 11.9578 21.7626 11.7178 21.8426C11.3178 21.9226 11.0778 22.2426 11.0778 22.5626C11.0778 22.8826 11.3978 23.2026 11.7178 23.2026C11.8778 23.2026 12.0378 23.2026 12.1978 23.0426C12.3578 22.9626 12.5178 22.8026 12.5178 22.5626Z" fill="#010101"/>
</g>
<path id="Vector_5" d="M21.9631 16.5623V15.3623H22.0431V15.0423H21.7231V14.4023H21.0831V15.0423H20.7631V15.3623H20.8431V16.2423H19.9631V15.3623H20.0431V15.0423H19.7231V14.4023H19.0831V15.0423H19.0031V15.3623H19.0831V16.2423H18.0431V15.3623H18.2031V15.0423H17.8831V14.4023H17.2431V15.0423H16.9231V15.3623H17.0031V16.2423H16.1231V15.3623H16.2031V15.0423H15.8831V14.4023H15.2431V15.0423H14.9231V15.3623H15.0031V16.2423H14.0431V15.3623H14.1231V15.0423H13.8031V14.4023H13.1631V15.0423H12.8431V15.3623H12.9231V16.2423H12.4431V15.3623H12.5231V15.0423H12.2031V14.4023H11.5631V15.0423H11.3231V15.3623H11.4031V16.2423C10.6831 16.4823 10.2031 16.8823 10.2031 17.6823L22.6031 17.7623C22.5231 17.2023 22.3631 16.9623 21.9631 16.5623Z" stroke="#010101" stroke-width="0.395" stroke-miterlimit="10" stroke-linecap="round" stroke-linejoin="round"/>
<path id="Vector_6" d="M27.6406 19.0425L27.8006 25.1225" stroke="#010101" stroke-width="0.3256" stroke-miterlimit="10" stroke-linecap="round" stroke-linejoin="round"/>
<g id="Group_6">
<path id="Vector_7" d="M23.1619 18.2427L23.4019 28.5627C23.4019 28.6427 23.3219 28.8027 23.1619 28.8027C23.0819 28.8027 22.9219 28.7227 22.9219 28.5627L23.1619 18.2427Z" fill="#010101"/>
</g>
<g id="Group_7">
<path id="Vector_8" d="M17.4031 17.6825C17.4031 18.0025 17.4031 18.3225 17.4031 18.5625C17.4031 18.7225 17.4031 18.8825 17.3231 19.0425C17.2431 19.2025 17.0031 19.2825 16.8431 19.3625C16.6831 19.3625 16.4431 19.2825 16.3631 19.1225C16.2831 18.9625 16.2031 18.7225 16.2031 18.6425C16.2031 18.3225 16.2031 18.0025 16.2031 17.7625H16.5231C16.5231 18.0825 16.5231 18.4025 16.5231 18.6425C16.5231 18.8025 16.5231 18.9625 16.6031 18.9625C16.6831 19.0425 16.7631 19.1225 16.9231 19.1225C17.2431 19.1225 17.4031 18.8825 17.4031 18.5625C17.4031 18.2425 17.4831 17.9225 17.4031 17.6025V17.6825Z" fill="#010101"/>
</g>
<g id="Group_8">
<path id="Vector_9" d="M19.4031 17.6825C19.4031 18.0025 19.4031 18.3225 19.4031 18.5625C19.4031 18.7225 19.4031 18.8825 19.3231 19.0425C19.2431 19.2025 19.0031 19.2825 18.8431 19.3625C18.6831 19.3625 18.4431 19.2825 18.3631 19.1225C18.2031 18.9625 18.2031 18.7225 18.2031 18.6425C18.2031 18.3225 18.2031 18.0025 18.2031 17.7625H18.5231C18.5231 18.0825 18.5231 18.4025 18.5231 18.6425C18.5231 18.8025 18.5231 18.9625 18.6031 18.9625C18.6831 19.0425 18.7631 19.1225 18.9231 19.1225C19.2431 19.1225 19.4031 18.8825 19.4031 18.5625C19.4031 18.2425 19.4831 17.9225 19.4031 17.6025V17.6825Z" fill="#010101"/>
</g>
<g id="Group_9">
<path id="Vector_10" d="M21.3172 17.6825C21.3172 18.0025 21.3172 18.3225 21.3172 18.5625C21.3172 18.7225 21.3172 18.8825 21.2372 19.0425C21.1572 19.2025 20.9172 19.2825 20.7572 19.3625C20.5972 19.3625 20.3572 19.2825 20.2772 19.1225C20.1972 18.9625 20.1172 18.7225 20.1172 18.6425C20.1172 18.3225 20.1172 18.0025 20.1172 17.7625H20.4372C20.4372 18.0825 20.4372 18.4025 20.4372 18.6425C20.4372 18.8025 20.4372 18.9625 20.5172 18.9625C20.5972 19.0425 20.6772 19.1225 20.8372 19.1225C21.1572 19.1225 21.3172 18.8825 21.3172 18.5625C21.3172 18.2425 21.3972 17.9225 21.3172 17.6025V17.6825Z" fill="#010101"/>
</g>
<g id="Group_10">
<path id="Vector_11" d="M8.92 24.6427C8.92 24.7227 8.84 24.8827 8.84 24.9627C8.84 25.0427 8.76 25.0427 8.76 25.0427C8.52 25.0427 8.28 25.0427 8.12 25.0427C8.04 25.0427 8.04 25.0427 8.04 24.9627C7.96 24.8827 7.88 24.8027 7.72 24.8027C7.64 24.8027 7.56 24.8027 7.48 24.8027C7.4 24.8027 7.4 24.8827 7.32 24.8827C7.24 24.9627 7.24 25.0427 7.24 25.2027V25.6827C7.24 25.7627 7.24 26.0027 7.24 26.0827C7.24 26.1627 7.32 26.2427 7.4 26.2427C7.48 26.2427 7.48 26.2427 7.56 26.2427C7.64 26.2427 7.8 26.1627 7.8 26.1627C7.88 26.1627 7.88 26.0827 7.88 26.0027C7.88 25.9227 7.96 25.8427 8.12 25.8427H8.76C8.92 25.8427 9.08 25.9227 9.08 26.1627V26.8027V26.8827V26.9627V27.0427C9.08 27.1227 9.16 27.1227 9.16 27.2027C9.4 27.5227 9.64 27.6827 9.96 28.0827L9.48 28.2427L9.64 23.4427L9.8 23.5227C9.64 23.6027 9.4 23.7627 9.24 23.9227C9.08 24.1627 8.92 24.4027 8.92 24.6427ZM8.76 24.6427C8.76 24.4827 8.84 24.3227 8.92 24.1627C9 24.0827 9.08 23.9227 9.24 23.8427C9.48 23.6027 9.72 23.4427 9.88 23.2827C9.96 23.2027 9.96 23.2027 10.04 23.2827L10.12 23.3627L10.28 28.1627C10.28 28.3227 10.2 28.4827 10.04 28.4827C9.96 28.4827 9.88 28.4827 9.88 28.4027C9.64 28.1627 9.24 27.9227 9 27.5227C8.92 27.4427 8.92 27.3627 8.84 27.2027C8.84 27.1227 8.76 27.1227 8.76 26.9627V26.8827V26.8027V26.1627L9.08 26.4827H8.36L8.6 26.3227C8.52 26.5627 8.28 26.7227 8.12 26.8027C8.04 26.8827 7.88 26.8027 7.8 26.8027C7.72 26.8027 7.56 26.8027 7.48 26.7227C7.16 26.4827 7 26.3227 7 26.1627C7 26.0827 7 25.9227 7 25.8427V25.6027V25.1227C7 24.8827 7.08 24.7227 7.32 24.6427C7.4 24.5627 7.48 24.5627 7.64 24.5627C7.8 24.5627 7.8 24.5627 7.88 24.5627C8.04 24.5627 8.2 24.7227 8.36 24.8827L8.28 24.8027C8.52 24.8027 8.76 24.8827 8.92 24.8027L8.84 24.8827C8.76 24.8827 8.76 24.7227 8.76 24.6427Z" fill="#010101"/>
</g>
<g id="Group_11">
<path id="Vector_12" d="M10.0369 20.2427L13.1569 20.3227L12.9169 20.4827L12.9969 19.1227C12.9969 19.0427 13.0769 19.0427 13.0769 19.0427L15.0769 19.1227L14.9969 19.2027L15.0769 17.7627L15.1569 19.2027C15.1569 19.2827 15.0769 19.2827 15.0769 19.2827L13.0769 19.3627L13.1569 19.2827L13.2369 20.6427C13.2369 20.7227 13.1569 20.8027 13.0769 20.8027L9.95687 20.5627C9.87687 20.5627 9.79688 20.4827 9.79688 20.3227C9.87688 20.4027 9.87688 20.2427 10.0369 20.2427Z" fill="#010101"/>
</g>
<g id="Group_12">
<g id="Group_13">
<path id="Vector_13" d="M26.6028 21.6827C29.2096 21.6827 31.3228 19.5695 31.3228 16.9627C31.3228 14.3559 29.2096 12.2427 26.6028 12.2427C23.996 12.2427 21.8828 14.3559 21.8828 16.9627C21.8828 19.5695 23.996 21.6827 26.6028 21.6827Z" fill="#F2F2F2"/>
<path id="Vector_14" d="M31.0812 15.0425C31.5612 16.2425 31.6412 17.6025 31.1612 18.8025C30.6812 20.0025 29.7212 20.9625 28.6012 21.5225C27.4012 22.0025 26.0412 22.0825 24.8412 21.6025C23.6412 21.1225 22.6012 20.1625 22.1212 18.9625C21.6412 17.7625 21.5612 16.4025 22.0412 15.1225C22.5212 13.9225 23.4812 12.9625 24.6812 12.4025C25.8812 11.9225 27.2412 11.8425 28.4412 12.3225C29.5612 12.8025 30.5212 13.8425 31.0812 15.0425ZM30.7612 15.1225C30.2812 14.0825 29.3212 13.1225 28.2012 12.7225C27.0812 12.2425 25.8012 12.3225 24.6812 12.8025C23.6412 13.2825 22.6812 14.2425 22.2812 15.3625C21.8012 16.4825 21.8812 17.7625 22.3612 18.8025C22.8412 19.8425 23.7212 20.8025 24.8412 21.2025C25.8812 21.6825 27.2412 21.6025 28.2812 21.1225C29.3212 20.6425 30.2812 19.6825 30.6812 18.6425C31.2412 17.5225 31.2412 16.1625 30.7612 15.1225Z" fill="#010101"/>
</g>
<g id="Group_14">
<g id="Group_15">
<g id="Group_16">
<g id="Group_17">
<path id="Vector_15" d="M23.2441 17.5227C23.2441 17.2027 23.1641 16.8827 23.1641 16.5627C23.1641 16.4827 23.2441 16.4027 23.2441 16.4027L23.7241 16.2427C23.8041 16.2427 23.8041 16.1627 23.8041 16.2427C23.8041 16.2427 23.8041 16.2427 23.8041 16.1627L23.8841 15.9227L23.9641 15.6827C23.9641 15.6027 23.9641 15.6027 23.9641 15.6027L23.8841 15.5227L23.7241 15.0427C23.6441 14.9627 23.7241 14.8827 23.8041 14.8027L24.4441 14.1627C24.6041 14.1627 24.6841 14.1627 24.7641 14.1627L25.2441 14.4027L25.3241 14.4827C25.3241 14.4827 25.3241 14.4827 25.4041 14.4827L25.6441 14.4027L25.8841 14.3227C25.9641 14.3227 25.9641 14.2427 25.8841 14.4027L25.9641 14.3227L26.1241 13.8427C26.1241 13.7627 26.2041 13.7627 26.2841 13.7627H27.1641C27.2441 13.7627 27.3241 13.8427 27.3241 13.8427L27.4841 14.4827C27.4041 14.4027 27.5641 14.5627 27.6441 14.5627L27.9641 14.6427C28.0441 14.7227 28.1241 14.7227 28.2041 14.7227L28.5241 14.6427L28.6841 14.5627L28.7641 14.4827C28.8441 14.4827 28.8441 14.5627 28.9241 14.5627L29.1641 14.8027L29.4041 15.0427C29.4041 15.1227 29.4841 15.1227 29.4841 15.2027C29.4841 15.2827 29.4841 15.2827 29.4041 15.2827L29.3241 15.4427L29.1641 15.7627C29.0841 15.8427 29.1641 15.8427 29.1641 16.0027L29.2441 16.3227C29.3241 16.4027 29.3241 16.5627 29.3241 16.5627L29.9641 16.8027C30.0441 16.8027 30.0441 16.8827 30.0441 16.8827V17.7627C30.0441 17.8427 29.9641 17.8427 29.9641 17.8427C29.7241 17.9227 29.5641 17.9227 29.3241 18.0027C29.3241 17.9227 29.2441 18.0827 29.2441 18.2427L29.1641 18.5627C29.0841 18.6427 29.0841 18.7227 29.1641 18.8027L29.3241 19.1227L29.4041 19.2027L29.4841 19.2827C29.4841 19.3627 29.4041 19.4427 29.4041 19.4427L29.1641 19.6827L29.0041 20.0027C28.9241 20.0827 28.9241 20.0827 28.8441 20.0827C28.7641 20.0827 28.7641 20.0827 28.6841 20.0027L28.5241 19.9227L28.2041 19.8427C28.1241 19.7627 28.2041 19.8427 28.0441 19.8427L27.7241 19.9227L27.5641 20.0027H27.4841V19.9227L27.4041 20.5627C27.4041 20.6427 27.3241 20.6427 27.2441 20.6427H26.2041C26.1241 20.6427 26.0441 20.5627 26.0441 20.5627L25.8041 19.9227C25.8841 20.0027 25.8841 20.0027 25.8841 20.0027H25.8041L25.6441 19.9227L25.4041 19.5227C25.3241 19.4427 25.3241 19.4427 25.2441 19.4427L24.9241 19.5227L24.7641 19.6027C24.6841 19.6027 24.6841 19.6827 24.6041 19.6827C24.5241 19.6827 24.4441 19.6027 24.4441 19.6027L24.2041 19.3627L23.9641 19.1227C23.8841 19.0427 23.8841 19.0427 23.8841 18.8827C23.8841 18.8027 23.9641 18.8027 23.9641 18.7227L24.0441 18.6427L24.1241 18.3227C24.1241 18.2427 24.1241 18.3227 24.1241 18.2427L24.0441 18.1627L23.9641 17.8427C23.8841 17.7627 23.8841 17.6027 23.8841 17.6827C23.6441 17.6827 23.4841 17.6027 23.2441 17.5227ZM23.4841 17.2827C23.6441 17.3627 23.8041 17.3627 23.9641 17.3627H24.0441C24.1241 17.4427 24.1241 17.4427 24.1241 17.4427C24.2041 17.5227 24.2041 17.5227 24.2041 17.5227L24.2841 17.6827L24.3641 18.0027L24.4441 18.0827C24.4441 18.0827 24.4441 18.1627 24.5241 18.1627C24.5241 18.2427 24.5241 18.2427 24.5241 18.3227C24.5241 18.4027 24.4441 18.4027 24.4441 18.4027L24.2841 18.7227V18.9627V18.8827L24.5241 19.1227L24.7641 19.3627C24.7641 19.3627 24.7641 19.3627 24.6841 19.3627C24.6041 19.3627 24.6041 19.3627 24.6841 19.3627L24.8441 19.2827L25.1641 19.1227C25.3241 19.0427 25.5641 19.1227 25.6441 19.1227L25.9641 19.2027L26.1241 19.2827C26.1241 19.2827 26.2041 19.2827 26.2041 19.3627L26.2841 19.4427V19.5227L26.5241 20.1627L26.3641 20.0827H27.2441L27.0841 20.1627L27.2441 19.5227C27.2441 19.5227 27.2441 19.4427 27.3241 19.4427C27.4041 19.3627 27.4041 19.3627 27.4041 19.3627C27.4841 19.3627 27.4841 19.2827 27.4841 19.2827L27.6441 19.2027L27.9641 19.1227V19.0427H28.0441C28.1241 19.0427 28.1241 19.0427 28.1241 19.0427C28.2041 19.0427 28.2041 19.0427 28.2841 19.0427H28.3641H28.4441L28.7641 19.2027L28.9241 19.2827C28.8441 19.2827 28.8441 19.2827 28.8441 19.2827L29.0841 19.0427L29.3241 18.8027C29.3241 18.8027 29.3241 18.8027 29.3241 18.8827L29.2441 18.8027L29.1641 18.4827C29.0841 18.3227 29.1641 18.1627 29.2441 18.0827L29.3241 17.7627L29.4041 17.6027C29.4041 17.6027 29.4041 17.5227 29.4841 17.5227C29.4841 17.5227 29.4841 17.4427 29.5641 17.4427H29.6441C29.8841 17.3627 30.0441 17.2827 30.2841 17.2027L29.7241 17.3627V16.5627L29.8041 16.6427L29.1641 16.4027L29.0841 16.3227C29.0841 16.2427 29.0041 16.2427 29.0041 16.2427L28.9241 16.0827L28.8441 15.7627C28.8441 15.6827 28.7641 15.6827 28.7641 15.6027C28.7641 15.5227 28.7641 15.4427 28.8441 15.3627L29.0041 15.0427L29.0841 14.8827C29.0841 14.8027 29.0841 14.8827 29.0841 14.8027L28.8441 14.5627L28.6041 14.4827L28.4441 14.5627L28.1241 14.7227C27.9641 14.8027 27.8041 14.7227 27.7241 14.7227L27.4041 14.6427H27.2441C27.2441 14.6427 27.1641 14.6427 27.1641 14.5627L27.0841 14.4827V14.4027L26.8441 13.7627L27.0041 13.8427H26.1241L26.2841 13.7627L26.1241 14.2427L26.0441 14.3227C25.9641 14.4827 25.8841 14.4827 25.8041 14.4827L25.4841 14.5627L25.1641 14.6427C25.1641 14.6427 25.0041 14.7227 24.9241 14.7227C24.8441 14.7227 24.8441 14.7227 24.8441 14.6427L24.7641 14.5627H24.6041L24.8441 14.4827L24.2041 15.1227L24.2841 14.8827L24.5241 15.3627L24.6041 15.4427C24.6041 15.5227 24.6041 15.5227 24.6841 15.5227C24.6841 15.6027 24.6841 15.6827 24.6041 15.7627L24.5241 16.0827L24.4441 16.4027C24.3641 16.4827 24.3641 16.4827 24.2841 16.5627C24.0441 16.5627 24.0441 16.5627 23.9641 16.5627L23.4841 16.7227L23.5641 16.5627C23.5641 16.8027 23.5641 17.0427 23.4841 17.2827Z" fill="#010101"/>
</g>
</g>
</g>
<g id="Group_18">
<path id="Vector_16" d="M28.5234 16.9629C28.6034 18.0029 27.6434 18.9629 26.6034 18.9629C26.1234 18.9629 25.5634 18.8029 25.1634 18.4029C24.7634 18.0829 24.5234 17.5229 24.5234 16.9629C24.5234 16.4829 24.7634 15.9229 25.1634 15.5229C25.5634 15.1229 26.0434 14.9629 26.6034 14.9629C27.6434 15.0429 28.6034 15.9229 28.5234 16.9629ZM28.2834 16.9629C28.2834 16.4829 28.1234 16.0829 27.8034 15.7629C27.4834 15.4429 27.0834 15.2829 26.6034 15.2829C25.7234 15.2829 25.0034 16.0829 25.0034 16.8829C25.0034 17.6829 25.7234 18.4829 26.6034 18.4829C27.0834 18.4829 27.4834 18.3229 27.8034 18.0029C28.1234 17.8429 28.2834 17.3629 28.2834 16.9629Z" fill="#010101"/>
</g>
</g>
</g>
</g>
</g>
</g>
</g>
</g>
</svg>
