<svg width="32" height="32" viewBox="0 0 32 32" fill="none" xmlns="http://www.w3.org/2000/svg">
<g id="icon_9">
<g id="Group 30708">
<path id="Vector" d="M12 24C18.0751 24 23 19.0751 23 13C23 6.92487 18.0751 2 12 2C5.92487 2 1 6.92487 1 13C1 19.0751 5.92487 24 12 24Z" fill="#FFD71C"/>
<g id="&#208;&#161;&#208;&#187;&#208;&#190;&#208;&#185;_1_2_">
<g id="Group">
<g id="Group_2">
<g id="Group_3">
<path id="Vector_2" d="M26.9697 20.1725C26.9697 21.6125 26.3297 22.9725 25.3697 24.0125C24.3297 25.0525 22.8897 25.6125 21.5297 25.5325C20.1697 25.5325 18.7297 24.9725 17.7697 23.9325C16.7297 22.8925 16.1697 21.5325 16.2497 20.1725C16.2497 18.8125 16.8097 17.3725 17.7697 16.4125C18.8097 15.3725 20.1697 14.8125 21.5297 14.8125C22.8897 14.8125 24.3297 15.3725 25.3697 16.3325C26.3297 17.3725 26.9697 18.7325 26.9697 20.1725ZM26.2497 20.1725C26.2497 18.8925 25.8497 17.6925 24.9697 16.8125C24.0897 15.9325 22.8897 15.3725 21.6097 15.3725C20.3297 15.3725 19.1297 15.8525 18.2497 16.7325C17.3697 17.6125 16.8097 18.8925 16.8097 20.0925C16.8097 21.3725 17.3697 22.5725 18.2497 23.4525C19.1297 24.3325 20.4097 24.8125 21.6097 24.8125C22.8897 24.8125 24.0897 24.2525 24.9697 23.3725C25.7697 22.6525 26.2497 21.4525 26.2497 20.1725Z" fill="#010101"/>
</g>
<g id="Group_4">
<path id="Vector_3" d="M22.65 20.1725C22.65 20.4925 22.49 20.8125 22.25 21.0525C22.01 21.2125 21.69 21.3725 21.37 21.3725C20.73 21.3725 20.25 20.8125 20.25 20.1725C20.25 19.5325 20.73 18.9725 21.37 18.9725C22.01 18.8925 22.73 19.4525 22.65 20.1725ZM22.09 20.1725C22.09 19.7725 21.85 19.4525 21.37 19.3725C20.97 19.2925 20.49 19.6925 20.49 20.1725C20.49 20.5725 20.89 21.0525 21.37 20.9725C21.85 20.8925 22.17 20.5725 22.09 20.1725Z" fill="#010101"/>
</g>
<path id="Vector_4" d="M12.8125 14.5723V26.1723" stroke="#010101" stroke-width="1.0195" stroke-miterlimit="10" stroke-linecap="round" stroke-linejoin="round"/>
<path id="Vector_5" d="M29.9297 14.5723V26.2523" stroke="#010101" stroke-width="1.0195" stroke-miterlimit="10" stroke-linecap="round" stroke-linejoin="round"/>
<g id="Group_5">
<path id="Vector_6" d="M22.5737 19.8526C23.2937 19.9326 24.0937 19.9326 24.6537 19.6126C24.8137 19.5326 24.8937 19.4526 24.9737 19.3726C25.0537 19.2126 25.0537 19.0526 25.0537 18.9726C25.0537 18.6526 24.8937 18.2526 24.7337 17.9326C24.5737 17.6126 24.3337 17.3726 24.0137 17.2126C23.6937 17.0526 23.2937 17.1326 23.0537 17.3726C22.8937 17.4526 22.8137 17.6126 22.8137 17.7726C22.8137 17.9326 22.8137 18.1726 22.7337 18.3326C22.6537 18.7326 22.4937 19.0526 22.1737 19.3726C22.1737 19.3726 22.1738 19.3726 22.0938 19.3726C22.0938 19.3726 22.0938 19.3726 22.0938 19.2926C22.3338 19.0526 22.4938 18.6526 22.4938 18.3326C22.4938 18.1726 22.4938 17.9326 22.4938 17.7726C22.4938 17.6126 22.6537 17.3726 22.8137 17.2126C23.1337 16.9726 23.5337 16.8126 24.0137 16.9726C24.4137 17.1326 24.7337 17.3726 24.9737 17.6926C25.2137 18.0126 25.3737 18.4126 25.3737 18.8126C25.4537 18.9726 25.4537 19.2126 25.3737 19.5326C25.2937 19.8526 25.0537 19.9326 24.9737 20.0926C24.5737 20.3326 24.2537 20.4126 23.7737 20.4926C23.3737 20.5726 23.0537 20.5726 22.5737 20.5726C22.4137 20.5726 22.2537 20.4126 22.2537 20.2526C22.2537 20.0126 22.4137 19.8526 22.5737 19.8526Z" fill="#010101"/>
</g>
<g id="Group_6">
<path id="Vector_7" d="M21.7728 21.3726C21.6928 22.0926 21.6928 22.8926 22.0128 23.4526C22.0928 23.6126 22.1728 23.6926 22.2528 23.7726C22.4128 23.8526 22.5728 23.8526 22.6528 23.8526C22.9728 23.8526 23.3728 23.6926 23.6928 23.5326C24.0128 23.3726 24.2528 23.1326 24.4128 22.8126C24.5728 22.4926 24.4928 22.0926 24.2528 21.8526C24.1728 21.6926 24.0128 21.6126 23.8528 21.6126C23.6928 21.6126 23.4528 21.6126 23.2928 21.5326C22.8928 21.4526 22.5728 21.2926 22.2528 20.9726C22.2528 20.9726 22.2528 20.9726 22.2528 20.8926C22.2528 20.8926 22.2528 20.8926 22.3328 20.8926C22.5728 21.1326 22.9728 21.2926 23.2928 21.2926C23.4528 21.2926 23.6928 21.2926 23.8528 21.2926C24.0128 21.2926 24.2528 21.4526 24.4128 21.6126C24.6528 21.9326 24.8128 22.3326 24.6528 22.8126C24.4928 23.2126 24.2528 23.5326 23.9328 23.7726C23.6128 24.0126 23.2128 24.1726 22.8128 24.1726C22.6528 24.2526 22.4128 24.2526 22.0928 24.1726C21.7728 24.0926 21.6928 23.8526 21.5328 23.7726C21.2928 23.3726 21.2128 23.0526 21.1328 22.5726C21.1328 22.1726 21.1328 21.8526 21.1328 21.3726C21.1328 21.2126 21.2928 21.0526 21.4528 21.0526C21.6128 21.0526 21.7728 21.2126 21.7728 21.3726Z" fill="#010101"/>
</g>
<g id="Group_7">
<path id="Vector_8" d="M20.0891 20.4126C19.3691 20.4926 18.5691 20.5726 18.0891 20.8926C17.9291 20.9726 17.9291 21.0526 17.8491 21.2126C17.8491 21.3726 17.8491 21.5326 17.8491 21.6126C17.9291 21.9326 18.0891 22.2526 18.2491 22.5726C18.4091 22.8126 18.7291 23.0526 19.0491 23.2126C19.3691 23.3726 19.7691 23.2126 20.0091 22.9726C20.1691 22.8126 20.1691 22.7326 20.1691 22.5726C20.1691 22.4126 20.1691 22.1726 20.1691 22.0126C20.1691 21.6126 20.3291 21.2926 20.5691 20.9726C20.5691 20.9726 20.5691 20.9726 20.6491 20.9726C20.6491 20.9726 20.6491 20.9726 20.6491 21.0526C20.4091 21.3726 20.2491 21.6926 20.3291 22.0926C20.3291 22.2526 20.4091 22.4926 20.4091 22.6526C20.4091 22.8126 20.3291 23.0526 20.1691 23.2126C19.9291 23.5326 19.4491 23.6926 19.0491 23.6126C18.6491 23.5326 18.3291 23.2126 18.0091 22.9726C17.7691 22.6526 17.5291 22.3326 17.3691 21.9326C17.2891 21.7726 17.2891 21.5326 17.2891 21.2126C17.3691 20.9726 17.5291 20.8126 17.6891 20.6526C18.0891 20.4126 18.4091 20.2526 18.8091 20.1726C19.2091 20.0126 19.5291 20.0126 19.9291 19.9326C20.0891 19.9326 20.2491 20.0926 20.3291 20.2526C20.4091 20.1726 20.2491 20.4126 20.0891 20.4126Z" fill="#010101"/>
</g>
<g id="Group_8">
<path id="Vector_9" d="M21.2119 19.0525C21.2119 18.3325 21.1319 17.5325 20.8919 16.9725C20.8119 16.8125 20.7319 16.7325 20.6519 16.7325C20.4919 16.6525 20.3319 16.6525 20.2519 16.7325C19.9319 16.8125 19.5319 16.8925 19.2919 17.1325C18.9719 17.2925 18.7319 17.5325 18.5719 17.8525C18.4119 18.1725 18.4919 18.5725 18.7319 18.8125C18.8919 18.9725 18.9719 19.0525 19.1319 19.0525C19.2919 19.0525 19.5319 19.0525 19.6919 19.0525C20.0919 19.0525 20.4119 19.2925 20.7319 19.5325C20.7319 19.5325 20.7319 19.5325 20.7319 19.6125C20.7319 19.6125 20.7319 19.6125 20.6519 19.6125C20.4119 19.3725 20.0119 19.2125 19.6119 19.2125C19.4519 19.2125 19.2119 19.2125 19.0519 19.2125C18.8919 19.2125 18.6519 19.0525 18.4919 18.9725C18.2519 18.6525 18.0919 18.2525 18.2519 17.8525C18.4119 17.4525 18.6519 17.1325 18.9719 16.8925C19.2919 16.6525 19.6919 16.4925 20.0119 16.4125C20.1719 16.3325 20.4119 16.3325 20.7319 16.4125C20.9719 16.4925 21.1319 16.6525 21.2919 16.8125C21.5319 17.2125 21.6919 17.5325 21.6919 17.9325C21.7719 18.3325 21.8519 18.6525 21.8519 19.1325C21.8519 19.2925 21.6919 19.4525 21.5319 19.4525C21.3719 19.4525 21.2119 19.2925 21.2119 19.0525C21.2119 19.1325 21.2119 19.1325 21.2119 19.0525Z" fill="#010101"/>
</g>
<g id="Group_9">
<path id="Vector_10" d="M29.9301 29.3722H24.6501L19.3701 29.2922L14.0101 29.2122H12.7301C12.1701 29.2122 11.6901 28.9722 11.2901 28.4922C10.9701 28.0122 10.9701 27.3722 11.2101 26.8122C11.5301 26.3322 12.0901 26.0122 12.6501 26.0122L23.2901 26.1722L28.5701 26.2522H29.8501C30.3301 26.2522 30.8101 26.5722 31.0501 26.9722C31.2901 27.3722 31.3701 27.9322 31.2101 28.4122C31.1301 28.8922 30.5701 29.3722 29.9301 29.3722ZM29.9301 28.4922C30.1701 28.4922 30.5701 28.4122 30.8101 28.1722C31.0501 27.9322 31.1301 27.4522 30.9701 27.1322C30.8101 26.7322 30.4101 26.5722 29.9301 26.5722H28.6501L23.3701 26.6522L12.7301 26.8122C12.4101 26.8122 12.1701 26.9722 12.0101 27.2122C11.8501 27.4522 11.8501 27.7722 11.9301 28.0922C12.0901 28.4122 12.3301 28.6522 12.6501 28.5722H13.9301L19.2101 28.4922L24.4901 28.4122H29.9301V28.4922Z" fill="#010101"/>
</g>
<g id="Group_10">
<path id="Vector_11" d="M30.2531 12.0124L24.4931 12.0924C22.5731 12.0924 20.6531 12.0124 18.7331 12.0124H17.9331C17.6131 12.0124 17.3731 11.8524 17.2131 11.6924C17.0531 11.5324 16.8931 11.2124 16.8931 10.9724C16.8931 10.8124 16.8131 10.5724 16.7331 10.4124C16.4931 10.0124 16.0931 9.93239 15.6931 9.93239H14.2531H13.5331C13.2931 9.93239 13.0531 9.93239 12.8131 9.93239C12.4931 10.0124 12.1731 10.3324 12.0931 10.6524C12.0931 10.7324 12.0931 10.8124 12.0931 10.8924V11.2924V12.0124V13.3724C12.0931 13.5324 12.1731 13.6924 12.2531 13.7724C12.3331 13.8524 12.4131 13.8524 12.4131 13.9324C12.4931 13.9324 12.5731 13.9324 12.6531 13.9324H14.0931L16.9731 14.0124L22.7331 14.0924L28.4931 14.1724H29.9331C30.1731 14.1724 30.3331 14.1724 30.5731 14.0924C30.7331 14.0124 30.9731 13.9324 30.9731 13.7724C31.2131 13.4524 31.2931 13.0524 31.1331 12.6524C31.1331 12.3324 30.6531 12.0124 30.2531 12.0124ZM30.2531 11.6924C30.8131 11.6924 31.2931 11.9324 31.6131 12.4124C31.9331 12.8924 31.8531 13.6124 31.4531 14.0124C31.2931 14.2524 31.0531 14.4124 30.7331 14.4924C30.4931 14.6524 30.1731 14.5724 29.9331 14.5724H28.4931H22.7331H16.9731H14.0931H12.6531C12.4931 14.5724 12.3331 14.5724 12.2531 14.4924C12.0931 14.4124 11.9331 14.3324 11.8531 14.2524C11.6131 14.0924 11.4531 13.7724 11.4531 13.4524C11.4531 12.8924 11.4531 12.4124 11.4531 11.9324V11.2124V10.8124C11.4531 10.6524 11.4531 10.4924 11.5331 10.4124C11.6931 9.85239 12.2531 9.37239 12.8131 9.29239C13.1331 9.21239 13.2931 9.29239 13.5331 9.29239H14.2531H15.5331C16.0131 9.21239 16.6531 9.53239 16.8931 10.0124C17.0531 10.2524 17.0531 10.4924 17.0531 10.8124C17.0531 10.9724 17.1331 11.2124 17.2131 11.2924C17.3731 11.4524 17.5331 11.5324 17.6931 11.5324H18.4131C20.3331 11.5324 22.2531 11.4524 24.1731 11.4524L30.2531 11.6924Z" fill="#010101"/>
</g>
<g id="Group_11">
<path id="Vector_12" d="M15.8528 12.0123C15.8528 12.7323 15.2928 13.3723 14.5728 13.4523C14.1728 13.4523 13.8528 13.2923 13.5328 13.0523C13.2128 12.8123 13.1328 12.3323 13.1328 12.0123C13.1328 11.6123 13.2928 11.2123 13.5328 10.9723C13.8528 10.7323 14.2528 10.5723 14.5728 10.5723C15.2928 10.5723 15.8528 11.2923 15.8528 12.0123ZM15.6128 12.0123C15.6128 11.7723 15.4528 11.4523 15.2928 11.2923C15.1328 11.1323 14.8128 11.0523 14.5728 11.0523C14.0928 11.1323 13.6928 11.5323 13.6928 12.0923C13.6928 12.4923 14.0928 13.0523 14.5728 13.1323C14.8128 13.1323 15.0528 13.0523 15.2928 12.8923C15.5328 12.5723 15.6128 12.3323 15.6128 12.0123Z" fill="#010101"/>
</g>
<g id="Group_12">
<path id="Vector_13" d="M14.4138 14.3325L14.2537 24.0925L14.0938 14.3325C14.0938 14.1725 14.1737 14.1725 14.2537 14.1725C14.3337 14.0925 14.4138 14.1725 14.4138 14.3325Z" fill="#010101"/>
</g>
<g id="Group_13">
<path id="Vector_14" d="M28.65 14.5725L28.41 24.2525L28.25 14.4925C28.25 14.3325 28.33 14.3325 28.41 14.3325C28.57 14.3325 28.65 14.4125 28.65 14.5725Z" fill="#010101"/>
</g>
<g id="Group_14">
<path id="Vector_15" d="M30.0897 12.0122L26.1697 12.0922C26.0097 12.0922 26.0097 12.0122 26.0097 11.9322L25.9297 10.8122C25.9297 10.6522 26.0897 10.4922 26.1697 10.4922H26.2497L30.0097 10.5722C30.1697 10.5722 30.2497 10.7322 30.2497 10.8122C30.1697 11.2122 30.0897 11.6122 30.0897 12.0122ZM29.7697 11.6922C29.6897 11.3722 29.6897 11.0522 29.6897 10.7322L29.9297 10.9722L26.1697 11.0522L26.4897 10.7322L26.3297 11.7722L26.1697 11.6122L29.7697 11.6922Z" fill="#010101"/>
</g>
<g id="Group_15">
<path id="Vector_16" d="M29.9294 10.8124H26.1694C25.8494 10.8124 25.6094 10.5724 25.6094 10.2524C25.6094 9.93238 25.8494 9.69238 26.1694 9.69238H29.9294C30.2494 9.69238 30.4894 9.93238 30.4894 10.2524C30.4894 10.5724 30.2494 10.8124 29.9294 10.8124Z" fill="white"/>
<path id="Vector_17" d="M29.9309 11.0526L27.1309 11.1326H26.4109C26.2509 11.1326 26.2509 11.1326 26.0109 11.1326C25.8509 11.1326 25.6909 10.9726 25.6109 10.8926C25.4509 10.7326 25.3709 10.6526 25.2909 10.4926C25.2109 10.3326 25.2909 10.0926 25.3709 9.93256C25.5309 9.61256 25.8509 9.37256 26.2509 9.37256L29.051 9.45256H29.7709C29.9309 9.45256 29.9309 9.45256 30.1709 9.45256C30.3309 9.53256 30.4909 9.61256 30.5709 9.69256C30.8109 9.93256 30.8909 10.2526 30.7309 10.5726C30.5709 10.8126 30.2509 11.0526 29.9309 11.0526ZM29.9309 10.5726C30.0909 10.5726 30.2509 10.4926 30.3309 10.3326C30.4109 10.1726 30.331 10.0126 30.251 9.93256C30.091 9.77256 30.0109 9.77256 29.7709 9.85256H29.051L26.1709 9.93256C26.0109 9.93256 26.0109 10.0126 25.9309 10.0926C25.9309 10.1726 25.9309 10.2526 25.9309 10.2526C25.9309 10.3326 25.9309 10.4126 25.9309 10.4126C26.0109 10.5726 26.0909 10.5726 26.3309 10.5726H27.0509H29.9309Z" fill="#010101"/>
</g>
</g>
</g>
</g>
</g>
</g>
</svg>
