<svg width="32" height="32" viewBox="0 0 32 32" fill="none" xmlns="http://www.w3.org/2000/svg">
<g id="icon_about">
<g id="Group 30710">
<path id="Vector" d="M12 25C18.0751 25 23 20.0751 23 14C23 7.92487 18.0751 3 12 3C5.92487 3 1 7.92487 1 14C1 20.0751 5.92487 25 12 25Z" fill="#FFD71C"/>
<g id="Group">
<path id="Vector_2" d="M30.4422 28.145C30.3498 28.145 30.2573 28.33 30.2573 28.2375V27.5108C30.2573 27.2334 30.1648 26.8766 30.1648 26.5992C30.0723 25.965 29.8873 25.3176 29.7948 24.7759C29.5174 23.4944 28.9757 22.411 28.1566 21.4069C27.4299 20.4028 26.5183 19.4911 25.4217 18.9494C24.3251 18.4078 23.0567 18.2228 21.7752 18.2228C20.4936 18.3153 19.3177 18.5927 18.1286 19.2269C17.0321 19.8611 16.1204 20.5877 15.3938 21.5918C13.9404 23.5076 13.2006 26.0575 13.3855 28.4225L12.6589 27.6958C18.5779 27.7883 24.4176 27.9732 30.429 28.145H30.4422ZM31.1689 28.7792C25.1574 28.9641 19.0403 29.0566 12.8438 29.2284C12.4739 29.2284 12.1172 28.9509 12.1172 28.5017V28.4092C12.1172 25.6744 12.9363 22.847 14.7596 20.7463C15.6712 19.6497 16.7678 18.8305 18.0362 18.2888C19.3045 17.7472 20.6786 17.5622 21.9601 17.4697C23.2417 17.3772 24.695 17.6547 25.9766 18.1964C27.2581 18.8305 28.249 19.7422 29.0814 20.8388C29.9005 21.9354 30.4422 23.1112 30.8122 24.4853C30.9971 25.1195 31.0896 25.7668 31.1821 26.4935C31.2746 26.771 31.2746 27.1277 31.2746 27.4051V28.2243C31.2746 28.3168 31.1821 28.6735 31.1821 28.766L31.1689 28.7792Z" fill="#010101"/>
<path id="Vector_3" d="M20.8818 18.3028C21.1592 18.8445 21.5159 19.3069 21.7009 19.7562L21.331 19.4787H22.6918L22.4144 19.7562L23.2335 18.0254L23.511 18.5671C23.2335 18.4746 23.0617 18.4746 22.7843 18.4746H22.0576C21.7802 18.4746 21.6084 18.4746 21.331 18.5671H20.8818C20.8818 18.4746 20.9742 18.2896 20.8818 18.2896V18.3028ZM20.2476 17.8536C20.4326 17.6687 20.7893 17.5762 20.9742 17.5762H22.0708C22.2558 17.5762 22.6125 17.5762 22.7975 17.6687C23.075 17.6687 23.3392 17.7611 23.6166 17.8536C23.8016 17.9461 23.8941 18.1311 23.8941 18.3028V18.3953L23.075 20.1261C23.1366 20.1261 23.1674 20.1569 23.1674 20.2186C23.1674 20.2802 23.1366 20.3111 23.075 20.3111H22.7975L21.5159 20.4035C21.331 20.4035 21.2385 20.3111 21.146 20.1261C20.6968 19.3994 20.4193 18.5803 20.2344 17.8536H20.2476Z" fill="#010101"/>
<path id="Vector_4" d="M21.7624 20.3096C21.485 22.0403 21.2207 23.4937 20.8508 25.1452L20.7583 24.696L22.3041 26.8892H21.7624L23.3082 24.696L23.2157 24.9734L22.4891 19.7811L22.9383 20.151C22.4759 20.336 22.2116 20.336 21.7492 20.336L21.7624 20.3096ZM21.2207 19.3979H22.9515C23.2289 19.3979 23.3214 19.5829 23.3214 19.7679L24.0481 24.9602C24.0481 25.0527 24.0481 25.2377 23.9556 25.2377L22.4098 27.3384C22.2248 27.5233 22.1324 27.6158 21.9606 27.4308L21.8681 27.3384L20.0449 25.3301C19.9524 25.2377 19.8599 25.0527 19.9524 24.9602C20.3223 23.0445 20.7715 21.2212 21.2339 19.3979H21.2207Z" fill="#010101"/>
<path id="Vector_5" d="M26.9625 13.416C26.9625 14.6976 26.5133 15.966 25.6017 16.8776C24.7826 17.7892 23.4085 18.4234 22.1402 18.4234C20.8718 18.4234 19.4978 17.9742 18.5861 16.9701C17.6745 16.0584 17.1328 14.7769 17.1328 13.416C17.1328 12.0552 17.6745 10.7736 18.5861 9.86201C19.4978 8.95038 20.7793 8.40869 22.1402 8.40869C23.4217 8.40869 24.7826 8.95038 25.6017 9.86201C26.4208 10.8661 26.9625 12.1345 26.9625 13.416ZM26.1434 13.416C26.1434 12.3194 25.6942 11.2228 24.8618 10.5887C24.1352 9.86201 23.1311 9.39959 22.0345 9.39959C20.9379 9.39959 19.9338 9.8488 19.2996 10.6812C18.5729 11.4078 18.1105 12.4119 18.1105 13.416C18.1105 14.4202 18.5597 15.4243 19.2996 16.1509C20.0395 16.8776 21.0304 17.34 22.0345 17.34C23.0386 17.34 24.1352 16.9701 24.8618 16.2434C25.681 15.6092 26.2227 14.5126 26.1434 13.416Z" fill="#010101"/>
</g>
</g>
</g>
</svg>
