<svg id="Слой_1" xmlns="http://www.w3.org/2000/svg" viewBox="0 0 279.5 268.1"><style>.st0{fill:#ffd71c}</style><path class="st0" d="M157.8 51.1c0-11 .2-22-.1-33-.3-10.6-8-18.1-18-18.1s-17.8 7.6-17.9 18.2c-.2 21.8-.1 43.6-.1 65.4 0 3.9 1 7.6 3.3 10.8 4.4 6.2 12.2 9 19.4 7 7.9-2.2 13.1-8.7 13.3-17.3.3-11 .1-22 .1-33zm41.3 93.9c1.5.2 3.5-.3 5.4-1 20.9-6.8 41.8-13.4 62.6-20.4 9.9-3.3 14.6-13.3 11.4-22.9-3.1-9.3-12.8-14.2-22.5-11.4-5.7 1.7-11.4 3.7-17.1 5.5-15.3 5-30.7 9.9-46 15.1-8.9 3.1-13.5 11.5-11.8 20.6 1.7 8.3 9.1 14.5 18 14.5zm16.3 123.1c6.7-.3 12.2-3.4 15.5-9.6 3.5-6.7 2.9-13.2-1.5-19.3-12.7-17.7-25.5-35.4-38.4-53-6.2-8.4-17.1-10.1-25.2-4.2-8.1 5.9-10 16.7-4 25.3 12.7 17.9 25.7 35.6 38.7 53.4 3.6 4.8 8.5 7.2 14.9 7.4zM98.6 126.9c0-7.4-4.2-14.2-11.4-16.6-21.4-7.2-42.9-14.3-64.5-21-9.3-3-18.8 2.5-21.8 11.7s1.5 19.2 10.8 22.3c21.4 7.3 42.9 14.3 64.5 20.9 11.4 3.6 22.5-5.4 22.4-17.3zM64.2 268.1c6.5-.2 11.5-2.9 15.3-8.2 12.5-17.3 25.1-34.5 37.5-51.8 6.6-9.2 5.2-19.9-3.2-26.1-8.3-6.1-19.2-4.1-25.9 4.8-5.6 7.5-11 15.1-16.4 22.6-7.2 10-14.5 19.9-21.6 30-4.2 5.9-4.7 12.4-1.3 18.9 3.3 6.3 8.7 9.5 15.6 9.8z"/><path class="st0" d="M157.8 51.1c0 11 .2 22-.1 33-.2 8.6-5.4 15.1-13.3 17.3-7.2 2-15-.8-19.4-7-2.3-3.2-3.3-6.9-3.3-10.8 0-21.8-.1-43.6.1-65.4.1-10.6 7.9-18.2 17.9-18.2 10 0 17.8 7.6 18 18.1.3 11 .1 22 .1 33zm41.3 93.9c-9-.1-16.4-6.2-17.9-14.4-1.7-9.1 2.8-17.5 11.8-20.6 15.3-5.2 30.6-10.1 46-15.1 5.7-1.9 11.3-3.9 17.1-5.5 9.7-2.8 19.4 2.1 22.5 11.4 3.2 9.6-1.5 19.6-11.4 22.9-20.8 7-41.7 13.6-62.6 20.4-2 .6-3.9 1.2-5.5.9zm16.3 123.1c-6.4-.2-11.4-2.6-14.9-7.5-12.9-17.8-25.9-35.5-38.7-53.4-6.1-8.5-4.2-19.4 4-25.3 8.1-5.9 19-4.2 25.2 4.2 12.9 17.6 25.7 35.3 38.4 53 4.4 6.1 5 12.6 1.5 19.3-3.3 6.3-8.8 9.4-15.5 9.7zM98.6 126.9c0 11.9-11 20.9-22.4 17.4-21.6-6.6-43.1-13.7-64.5-20.9C2.4 120.2-2.1 110.2.9 101s12.4-14.7 21.8-11.8c21.6 6.7 43.1 13.8 64.5 21 7.2 2.5 11.4 9.2 11.4 16.7zM64.2 268.1c-7-.3-12.4-3.5-15.7-9.7-3.4-6.5-2.9-12.9 1.3-18.9 7.1-10 14.4-20 21.6-30 5.6-7.5 11-15.1 16.6-22.6 6.7-9 17.5-10.9 25.9-4.8 8.4 6.2 9.8 16.9 3.2 26.1-12.4 17.3-25 34.5-37.5 51.8-3.8 5.2-8.8 7.9-15.4 8.1z"/></svg>