<svg id="Слой_1" xmlns="http://www.w3.org/2000/svg" viewBox="0 0 326.5 325.9"><style>.st0{fill:#ffd71c}</style><path class="st0" d="M200.8 321.4c-27.9 6.7-55.8 5.8-83.4-2-3.6-1-4.9-2.2-4-6.2 13.5-61.4 45.6-108.7 102.8-137.3 4.2-2.1 7.1-2.2 11 1.2 11.9 10.6 30.2 11.2 43.7 2.3 13.5-9 19.6-25.7 14.9-41.2-4.7-15.6-18.5-26.1-34.5-26.3-19.8-.2-34.9 12.7-37.5 32.2-.5 3.9-2.9 4.7-5.8 5.7-41.3 13.6-77.4 35.5-107.8 66.6C82 235 67 256 55.8 279.4c-1.6 3.4-2.7 4.3-5.7 1.2-6.2-6.3-12.1-12.8-17.6-19.8-2.5-3.1-3.3-6.3-3-10.2 2.7-38 14.6-72.6 37.4-103.3C77.5 133 90 120.6 104.2 110c2.7-2 4.4-2.2 7.2.2 12.8 11 30.2 12.2 44.1 3.2 13.6-8.7 19.9-25.3 15.7-41-4.2-15.5-18.4-26.5-35.1-27.1-19.5-.5-36.7 15.7-37.3 35.6-.1 2.8-.7 4.6-3.6 5.7-40.6 15.5-72.4 41.6-95.2 79.1-.3-17.2 1.4-34.2 7-50.5C28.5 52.2 71.9 13.4 137.4 2.3c88.8-15 171 45 186.4 131.3 15.4 86.3-37.7 167.2-123 187.8z"/></svg>