<svg xmlns="http://www.w3.org/2000/svg" width="365.829" height="81.62" viewBox="0 0 365.829 81.62">
  <g id="Group_13" data-name="Group 13" transform="translate(-58.103 -58.703)">
    <g id="Group_9" data-name="Group 9">
      <g id="Group_8" data-name="Group 8">
        <path id="Path_36" data-name="Path 36" d="M98.916,125.049h-.032v7.643a33.042,33.042,0,0,1-21.311-7.78l-5.027,5.75a40.82,40.82,0,0,0,59-6.636l-12.193-9.208A25.494,25.494,0,0,1,98.916,125.049Z"/>
        <path id="Path_37" data-name="Path 37" d="M72.715,79.166l6.105,4.605a25.53,25.53,0,0,1,40.542.437L131.549,75A40.822,40.822,0,0,0,59.7,110.855l7.317-2.2a33.139,33.139,0,0,1,5.695-29.488Z" fill="#999"/>
        <path id="Path_38" data-name="Path 38" d="M82.608,119.159a25.391,25.391,0,0,0,16.276,5.89v-7.632A17.9,17.9,0,0,1,84.908,88.363L78.82,83.771a25.549,25.549,0,0,0-4.482,22.681l-7.318,2.2a33.19,33.19,0,0,0,10.553,16.258l5.029-5.753Z" fill="#ffd71d"/>
        <path id="Path_39" data-name="Path 39" d="M98.884,125.049a25.391,25.391,0,0,1-16.276-5.89H82.6l-5.029,5.753a33.042,33.042,0,0,0,21.311,7.78Z" fill="#999"/>
        <path id="Path_40" data-name="Path 40" d="M73.382,99.516A25.425,25.425,0,0,1,78.82,83.771l-6.105-4.605a33.139,33.139,0,0,0-5.695,29.488l7.318-2.2A25.528,25.528,0,0,1,73.382,99.516Z" fill="#191a1a"/>
      </g>
      <circle id="Ellipse_3" data-name="Ellipse 3" cx="9.954" cy="9.954" r="9.954" transform="translate(86.91 106.914) rotate(-76.717)"/>
    </g>
    <g id="Group_11" data-name="Group 11">
      <g id="Group_10" data-name="Group 10">
        <path id="Path_41" data-name="Path 41" d="M170.562,85.582h-33.48a.853.853,0,0,0-.98.94v4.2a.872.872,0,0,0,.98.99h13.46v22.929a.836.836,0,0,0,.95.941h4.67a.832.832,0,0,0,.94-.941V91.712h13.46a.875.875,0,0,0,.99-.99v-4.2C171.552,85.9,171.222,85.582,170.562,85.582Z"/>
        <path id="Path_42" data-name="Path 42" d="M206.522,92.052h-4.2c-.63,0-.94.33-.94.99v12.39a10.248,10.248,0,0,1-.21,2.27,2.935,2.935,0,0,1-.76,1.43,3.032,3.032,0,0,1-1.43.779,9.234,9.234,0,0,1-2.32.23h-11.01a8.657,8.657,0,0,1-2.27-.23,2.6,2.6,0,0,1-1.33-.779,2.921,2.921,0,0,1-.65-1.43,12.9,12.9,0,0,1-.17-2.27V93.042c0-.66-.32-.99-.94-.99h-4.2a.875.875,0,0,0-.99.99v13.89a13.146,13.146,0,0,0,.52,3.959,5.808,5.808,0,0,0,1.69,2.7,7.063,7.063,0,0,0,3.13,1.52,20.8,20.8,0,0,0,4.86.47h11.96a20.94,20.94,0,0,0,4.85-.47,7.144,7.144,0,0,0,3.15-1.52,5.889,5.889,0,0,0,1.69-2.7,13.472,13.472,0,0,0,.52-3.959V93.042C207.472,92.382,207.152,92.052,206.522,92.052Z"/>
        <path id="Path_43" data-name="Path 43" d="M234.862,92.052h-12.01a20.108,20.108,0,0,0-4.86.5,7.345,7.345,0,0,0-3.13,1.54,5.9,5.9,0,0,0-1.7,2.7,13.5,13.5,0,0,0-.51,3.96v13.889c0,.631.33.941.98.941h4.21a.829.829,0,0,0,.94-.941v-12.73a10.382,10.382,0,0,1,.21-2.25,3.041,3.041,0,0,1,.76-1.459,3.119,3.119,0,0,1,1.43-.77,9.559,9.559,0,0,1,2.27-.23h11.41a.686.686,0,0,0,.77-.78v-3.59A.686.686,0,0,0,234.862,92.052Z"/>
        <path id="Path_44" data-name="Path 44" d="M270.822,96.792a5.9,5.9,0,0,0-1.7-2.7,7.257,7.257,0,0,0-3.15-1.54,20.1,20.1,0,0,0-4.84-.5h-16.08v-7.67a.828.828,0,0,0-.94-.94h-4.2c-.65,0-.98.31-.98.94v22.55a13.5,13.5,0,0,0,.51,3.959,5.889,5.889,0,0,0,1.69,2.7,7.117,7.117,0,0,0,3.13,1.52,20.831,20.831,0,0,0,4.87.47h12a20.789,20.789,0,0,0,4.84-.47,7.038,7.038,0,0,0,3.15-1.52,5.906,5.906,0,0,0,1.7-2.7,13.5,13.5,0,0,0,.51-3.959v-6.18A13.5,13.5,0,0,0,270.822,96.792Zm-5.58,8.94a10.256,10.256,0,0,1-.21,2.27,2.845,2.845,0,0,1-.75,1.43,3.127,3.127,0,0,1-1.44.78,9.688,9.688,0,0,1-2.31.23h-10.8a9.559,9.559,0,0,1-2.27-.23,3.077,3.077,0,0,1-1.44-.78,2.845,2.845,0,0,1-.75-1.43,10.186,10.186,0,0,1-.22-2.27V97.2h15.48a9.688,9.688,0,0,1,2.31.23,3.209,3.209,0,0,1,1.44.77,2.948,2.948,0,0,1,.75,1.459,10.383,10.383,0,0,1,.21,2.25Z"/>
        <path id="Path_45" data-name="Path 45" d="M308.022,96.792a5.886,5.886,0,0,0-1.69-2.7,7.314,7.314,0,0,0-3.15-1.54,20.193,20.193,0,0,0-4.85-.5h-12.12a20.139,20.139,0,0,0-4.87.5,7.345,7.345,0,0,0-3.13,1.54,5.886,5.886,0,0,0-1.69,2.7,13.479,13.479,0,0,0-.52,3.96v6.18a13.472,13.472,0,0,0,.52,3.959,5.889,5.889,0,0,0,1.69,2.7,7.117,7.117,0,0,0,3.13,1.52,20.831,20.831,0,0,0,4.87.47h12.12a20.881,20.881,0,0,0,4.85-.47,7.091,7.091,0,0,0,3.15-1.52,5.889,5.889,0,0,0,1.69-2.7,13.472,13.472,0,0,0,.52-3.959v-6.18A13.479,13.479,0,0,0,308.022,96.792Zm-5.57,9.07a10.249,10.249,0,0,1-.21,2.27,2.856,2.856,0,0,1-.76,1.43,2.946,2.946,0,0,1-1.43.77,9.223,9.223,0,0,1-2.32.24h-10.92a8.959,8.959,0,0,1-2.27-.24,3.063,3.063,0,0,1-1.45-.77,2.914,2.914,0,0,1-.74-1.43,9.619,9.619,0,0,1-.22-2.27v-4.08a9.429,9.429,0,0,1,.22-2.23,3.077,3.077,0,0,1,.74-1.45,2.9,2.9,0,0,1,1.45-.77,9.561,9.561,0,0,1,2.27-.22h10.92a9.846,9.846,0,0,1,2.32.22,2.792,2.792,0,0,1,1.43.77,3.012,3.012,0,0,1,.76,1.45,10.049,10.049,0,0,1,.21,2.23Z"/>
        <path id="Path_46" data-name="Path 46" d="M343.692,99.7a7.583,7.583,0,0,0-5.62-1.9H313.4a6.41,6.41,0,0,0,1.7,3.359,7.557,7.557,0,0,0,5.61,1.911h16.07c1.49,0,2.23.8,2.23,2.4v1.76a2.722,2.722,0,0,1-.51,1.75,2.1,2.1,0,0,1-1.76.65h-22.5c-.66,0-.99.31-.99.94v4.069c0,.631.33.941.99.941h23.74q3.9,0,5.75-1.93a6.992,6.992,0,0,0,1.84-5.05v-3.43A7.5,7.5,0,0,0,343.692,99.7Z"/>
        <path id="Path_47" data-name="Path 47" d="M383.082,85.582H349.6c-.66,0-.99.32-.99.94v4.03a.875.875,0,0,0,.99.99h13.46v23.1a.832.832,0,0,0,.94.941h4.67a.836.836,0,0,0,.95-.941v-23.1h13.46a.872.872,0,0,0,.98-.99v-4.03A.853.853,0,0,0,383.082,85.582Z"/>
        <path id="Path_48" data-name="Path 48" d="M423.282,91.661a7.668,7.668,0,0,0-2.08-3.489,8.628,8.628,0,0,0-3.73-1.97,21.57,21.57,0,0,0-5.55-.62h-13.24a21.406,21.406,0,0,0-5.53.62,8.666,8.666,0,0,0-3.71,1.97,8.063,8.063,0,0,0-2.1,3.489,18.036,18.036,0,0,0-.66,5.241v7.37a18.144,18.144,0,0,0,.66,5.25,8.111,8.111,0,0,0,2.1,3.52,8.533,8.533,0,0,0,3.71,1.94,21.529,21.529,0,0,0,5.53.6h13.24a21.694,21.694,0,0,0,5.55-.6,8.5,8.5,0,0,0,3.73-1.94,7.716,7.716,0,0,0,2.08-3.52,18.526,18.526,0,0,0,.65-5.25V96.9A18.415,18.415,0,0,0,423.282,91.661Zm-5.91,12.141a11.836,11.836,0,0,1-.28,2.81,3.933,3.933,0,0,1-.92,1.8,3.655,3.655,0,0,1-1.74.941,11.7,11.7,0,0,1-2.77.28h-12.72a11.759,11.759,0,0,1-2.77-.28,3.667,3.667,0,0,1-1.73-.941,3.84,3.84,0,0,1-.92-1.8,11.836,11.836,0,0,1-.28-2.81V97.371a11.77,11.77,0,0,1,.28-2.809,3.8,3.8,0,0,1,.92-1.8,3.582,3.582,0,0,1,1.73-.94,11.252,11.252,0,0,1,2.77-.28h12.72a11.2,11.2,0,0,1,2.77.28,3.571,3.571,0,0,1,1.74.94,3.892,3.892,0,0,1,.92,1.8,11.77,11.77,0,0,1,.28,2.809Z"/>
      </g>
      <path id="Path_49" data-name="Path 49" d="M343.513,91.543a.84.84,0,0,0,.948-.947V86.525a.837.837,0,0,0-.948-.942H320.8c-2.6,0-4.513.639-5.741,1.929a6.681,6.681,0,0,0-1.794,4.031Z"/>
    </g>
    <g id="Group_12" data-name="Group 12">
      <path id="Path_50" data-name="Path 50" d="M226.117,135H224v-7.846a.3.3,0,0,0-.331-.331h-1.6a.3.3,0,0,0-.331.331V135H215.21a.273.273,0,0,1-.309-.309v-7.537c0-.217-.1-.331-.319-.331h-1.6a.291.291,0,0,0-.331.331v8.691a1.254,1.254,0,0,0,.308.937,1.447,1.447,0,0,0,1.051.308h10.415v2.41a.3.3,0,0,0,.343.331h1.348c.217,0,.319-.114.319-.331v-4.169C226.436,135.115,226.334,135,226.117,135Z"/>
      <path id="Path_51" data-name="Path 51" d="M238.142,130.319a1.462,1.462,0,0,0-.4-.743,1.541,1.541,0,0,0-.777-.411,5.317,5.317,0,0,0-1.233-.126h-4.294a6.877,6.877,0,0,0-1.668.172,2.442,2.442,0,0,0-1.062.525,1.949,1.949,0,0,0-.582.925,4.668,4.668,0,0,0-.183,1.359v2.1a4.67,4.67,0,0,0,.183,1.36,1.954,1.954,0,0,0,.582.925,2.319,2.319,0,0,0,1.062.514,6.883,6.883,0,0,0,1.668.171h6.315a.239.239,0,0,0,.263-.274V135.6a.231.231,0,0,0-.263-.263h-6.11a1.913,1.913,0,0,1-1.279-.308,1.288,1.288,0,0,1-.331-1.005v-.343h7.4a.984.984,0,0,0,.629-.182.869.869,0,0,0,.205-.663v-1.382A4.537,4.537,0,0,0,238.142,130.319Zm-1.93,1.8c0,.16-.08.24-.251.24h-5.927v-.388a1.27,1.27,0,0,1,.331-1.005,1.916,1.916,0,0,1,1.279-.3h3.678a.982.982,0,0,1,.7.183.856.856,0,0,1,.194.651Z"/>
      <path id="Path_52" data-name="Path 52" d="M250.682,129.039h-1.439c-.217,0-.32.115-.32.343v2.741h-6.692v-2.741c0-.228-.1-.343-.32-.343h-1.439a.3.3,0,0,0-.331.343v7.378a.3.3,0,0,0,.331.331h1.439a.288.288,0,0,0,.32-.331v-2.912h6.692v2.912a.288.288,0,0,0,.32.331h1.439a.3.3,0,0,0,.331-.331v-7.378A.3.3,0,0,0,250.682,129.039Z"/>
      <path id="Path_53" data-name="Path 53" d="M263.7,129.039H252.955a.236.236,0,0,0-.263.263v1.234a.235.235,0,0,0,.263.262h4.328v5.962a.3.3,0,0,0,.331.331h1.439a.288.288,0,0,0,.32-.331V130.8H263.7a.235.235,0,0,0,.262-.262V129.3A.235.235,0,0,0,263.7,129.039Z"/>
      <path id="Path_54" data-name="Path 54" d="M276.481,130.661a1.949,1.949,0,0,0-.582-.925,2.486,2.486,0,0,0-1.074-.525,6.9,6.9,0,0,0-1.656-.172h-4.111a6.766,6.766,0,0,0-1.656.172,2.54,2.54,0,0,0-1.073.525,2.028,2.028,0,0,0-.572.925,4.324,4.324,0,0,0-.182,1.359V140c0,.217.114.32.342.32h1.428a.288.288,0,0,0,.331-.32v-2.912h5.493a6.909,6.909,0,0,0,1.656-.171,2.361,2.361,0,0,0,1.074-.514,1.953,1.953,0,0,0,.582-.925,4.7,4.7,0,0,0,.171-1.36v-2.1A4.7,4.7,0,0,0,276.481,130.661Zm-1.907,3.049a3.673,3.673,0,0,1-.068.777,1.134,1.134,0,0,1-.263.5.977.977,0,0,1-.491.262,3.63,3.63,0,0,1-.788.08h-5.288v-2.924a3.709,3.709,0,0,1,.068-.765,1.018,1.018,0,0,1,.263-.5,1.072,1.072,0,0,1,.48-.263,3,3,0,0,1,.776-.08h3.7a3.051,3.051,0,0,1,.788.08,1.194,1.194,0,0,1,.491.263,1.125,1.125,0,0,1,.263.5,3.709,3.709,0,0,1,.068.765Z"/>
      <path id="Path_55" data-name="Path 55" d="M296.821,136.748l-4.853-8.805a2.258,2.258,0,0,0-.743-.891,1.869,1.869,0,0,0-.936-.228h-.868a1.506,1.506,0,0,0-.822.228,2.334,2.334,0,0,0-.72.891l-4.808,8.805a.32.32,0,0,0-.034.24c.023.069.1.1.228.1h1.907a.358.358,0,0,0,.331-.194l1.017-1.9h6.887l1.039,1.9a.342.342,0,0,0,.342.194h1.85c.126,0,.2-.034.218-.1A.321.321,0,0,0,296.821,136.748Zm-9.376-3.449,2.3-4.294a.181.181,0,0,1,.159-.091h.092a.184.184,0,0,1,.16.091l2.329,4.294Z"/>
      <path id="Path_56" data-name="Path 56" d="M308.2,132.934a1.6,1.6,0,0,0,.765-1.428v-.559a1.793,1.793,0,0,0-.548-1.439,2.944,2.944,0,0,0-1.884-.469h-7.606c-.286,0-.423.149-.423.446v7.172a.379.379,0,0,0,.423.434h7.857a3.2,3.2,0,0,0,1.062-.148,1.816,1.816,0,0,0,.7-.4,1.6,1.6,0,0,0,.377-.628,2.592,2.592,0,0,0,.125-.823v-.662A1.6,1.6,0,0,0,308.2,132.934Zm-7.606-2.044c0-.138.068-.206.194-.206h5.334a.97.97,0,0,1,.651.171.645.645,0,0,1,.182.514v.32a.608.608,0,0,1-.182.491.889.889,0,0,1-.617.171H300.59Zm6.384,3.9a.624.624,0,0,1-.194.491.964.964,0,0,1-.628.16h-5.368a.174.174,0,0,1-.194-.194v-1.6h5.539a.922.922,0,0,1,.651.183.733.733,0,0,1,.194.537Z"/>
      <path id="Path_57" data-name="Path 57" d="M321.581,129.039H310.834a.236.236,0,0,0-.263.263v1.234a.235.235,0,0,0,.263.262h4.329v5.962a.3.3,0,0,0,.331.331h1.439a.288.288,0,0,0,.32-.331V130.8h4.328a.235.235,0,0,0,.263-.262V129.3A.236.236,0,0,0,321.581,129.039Z"/>
      <path id="Path_58" data-name="Path 58" d="M334.361,130.661a1.958,1.958,0,0,0-.583-.925,2.488,2.488,0,0,0-1.073-.525,6.846,6.846,0,0,0-1.656-.172H326.9a6.869,6.869,0,0,0-1.667.172,2.431,2.431,0,0,0-1.062.525,1.943,1.943,0,0,0-.583.925,4.7,4.7,0,0,0-.171,1.359v2.1a4.7,4.7,0,0,0,.171,1.36,1.947,1.947,0,0,0,.583.925,2.309,2.309,0,0,0,1.062.514,6.874,6.874,0,0,0,1.667.171h4.146a6.851,6.851,0,0,0,1.656-.171,2.362,2.362,0,0,0,1.073-.514,1.963,1.963,0,0,0,.583-.925,4.7,4.7,0,0,0,.171-1.36v-2.1A4.7,4.7,0,0,0,334.361,130.661Zm-1.908,3.1a3.608,3.608,0,0,1-.068.777.959.959,0,0,1-.754.753,3,3,0,0,1-.788.08h-3.735a2.906,2.906,0,0,1-.776-.08.968.968,0,0,1-.491-.262,1.012,1.012,0,0,1-.263-.491,3.671,3.671,0,0,1-.068-.777v-1.393a3.581,3.581,0,0,1,.068-.754,1.1,1.1,0,0,1,.263-.5.969.969,0,0,1,.491-.263,3.5,3.5,0,0,1,.776-.08h3.735a3.617,3.617,0,0,1,.788.08.926.926,0,0,1,.491.263,1.006,1.006,0,0,1,.263.5,3.517,3.517,0,0,1,.068.754Z"/>
      <path id="Path_59" data-name="Path 59" d="M347.117,129.039H336.382a.239.239,0,0,0-.274.263v1.234a.238.238,0,0,0,.274.262H340.7v5.962a.3.3,0,0,0,.343.331h1.427a.3.3,0,0,0,.332-.331V130.8h4.316a.23.23,0,0,0,.263-.262V129.3A.231.231,0,0,0,347.117,129.039Z"/>
      <path id="Path_60" data-name="Path 60" d="M360.24,129.154a.2.2,0,0,0-.206-.115h-1.645a.361.361,0,0,0-.354.206l-3.437,5.984a.228.228,0,0,1-.171-.068,1.555,1.555,0,0,1-.183-.274l-3.255-5.642a.361.361,0,0,0-.354-.206h-1.679a.2.2,0,0,0-.217.115.286.286,0,0,0,.023.251l3.951,6.829a1.8,1.8,0,0,0,.377.457,1.091,1.091,0,0,0,.571.172l-.8,1.393a.774.774,0,0,1-.742.342h-.868a.231.231,0,0,0-.263.263v1.2a.235.235,0,0,0,.263.263h1.027a3.72,3.72,0,0,0,1.485-.24,1.779,1.779,0,0,0,.834-.754l5.619-9.924A.254.254,0,0,0,360.24,129.154Z"/>
      <path id="Path_61" data-name="Path 61" d="M372.368,130.661a2.15,2.15,0,0,0-.582-.925,2.55,2.55,0,0,0-1.074-.525,6.9,6.9,0,0,0-1.656-.172h-4.111a6.766,6.766,0,0,0-1.656.172,2.556,2.556,0,0,0-1.074.525,2.141,2.141,0,0,0-.582.925,4.7,4.7,0,0,0-.171,1.359V140c0,.217.114.32.342.32h1.428a.28.28,0,0,0,.32-.32v-2.912h5.5a6.9,6.9,0,0,0,1.656-.171,2.418,2.418,0,0,0,1.074-.514,2.156,2.156,0,0,0,.582-.925,4.665,4.665,0,0,0,.172-1.36v-2.1A4.663,4.663,0,0,0,372.368,130.661Zm-1.907,3.049a2.957,2.957,0,0,1-.08.777,1,1,0,0,1-.251.5.977.977,0,0,1-.491.262,3.63,3.63,0,0,1-.788.08h-5.3v-2.924a3.565,3.565,0,0,1,.08-.765,1.083,1.083,0,0,1,.251-.5,1.181,1.181,0,0,1,.491-.263,3,3,0,0,1,.776-.08h3.7a3.051,3.051,0,0,1,.788.08,1.194,1.194,0,0,1,.491.263,1,1,0,0,1,.251.5,2.979,2.979,0,0,1,.08.765Z"/>
      <path id="Path_62" data-name="Path 62" d="M385.365,131.278a2.018,2.018,0,0,0-.571-.925,2.533,2.533,0,0,0-1.085-.525,6.729,6.729,0,0,0-1.656-.172h-5.494V129.2a1.968,1.968,0,0,1,.08-.616.839.839,0,0,1,.252-.423,1.138,1.138,0,0,1,.491-.228,3.006,3.006,0,0,1,.777-.08h4.83a3.266,3.266,0,0,0,.343-.012,3.932,3.932,0,0,0,.822-.114,1.628,1.628,0,0,0,.743-.422,1.51,1.51,0,0,0,.256-.358,1.636,1.636,0,0,0,.087-.217,1.71,1.71,0,0,0,.063-.244.394.394,0,0,0-.046-.3.266.266,0,0,0-.235-.091h-7.069a6.888,6.888,0,0,0-1.668.171,2.454,2.454,0,0,0-1.062.526,1.944,1.944,0,0,0-.582.925,4.7,4.7,0,0,0-.171,1.359v5.047a4.7,4.7,0,0,0,.171,1.36,1.954,1.954,0,0,0,.582.925,2.319,2.319,0,0,0,1.062.514,6.888,6.888,0,0,0,1.668.171h4.1a6.783,6.783,0,0,0,1.656-.171,2.4,2.4,0,0,0,1.085-.514,2.023,2.023,0,0,0,.571-.925,4.324,4.324,0,0,0,.183-1.36v-1.495A4.292,4.292,0,0,0,385.365,131.278Zm-2.718,3.974a3.659,3.659,0,0,1-.8.08h-3.688a3.584,3.584,0,0,1-.777-.08,1.073,1.073,0,0,1-.491-.274.919.919,0,0,1-.252-.491,2.955,2.955,0,0,1-.08-.777v-2.535h5.288a3.025,3.025,0,0,1,.8.091.978.978,0,0,1,.491.263,1,1,0,0,1,.251.491,3.671,3.671,0,0,1,.08.777v.913a3.514,3.514,0,0,1-.08.777,1.009,1.009,0,0,1-.251.491,1.044,1.044,0,0,1-.468.263C382.658,135.252,382.658,135.252,382.647,135.252Z"/>
      <path id="Path_63" data-name="Path 63" d="M398.35,130.661a2.018,2.018,0,0,0-.571-.925,2.532,2.532,0,0,0-1.085-.525,6.778,6.778,0,0,0-1.656-.172h-4.146a6.716,6.716,0,0,0-1.656.172,2.488,2.488,0,0,0-1.073.525,1.958,1.958,0,0,0-.583.925,4.7,4.7,0,0,0-.171,1.359v2.1a4.7,4.7,0,0,0,.171,1.36,1.963,1.963,0,0,0,.583.925,2.362,2.362,0,0,0,1.073.514,6.721,6.721,0,0,0,1.656.171h4.146a6.783,6.783,0,0,0,1.656-.171,2.4,2.4,0,0,0,1.085-.514,2.023,2.023,0,0,0,.571-.925,4.3,4.3,0,0,0,.183-1.36v-2.1A4.293,4.293,0,0,0,398.35,130.661Zm-1.9,3.1a3.512,3.512,0,0,1-.08.777,1,1,0,0,1-.251.491.972.972,0,0,1-.491.262,3.042,3.042,0,0,1-.8.08H391.1a2.972,2.972,0,0,1-.777-.08.976.976,0,0,1-.491-.262.925.925,0,0,1-.251-.491,2.955,2.955,0,0,1-.08-.777v-1.393a2.878,2.878,0,0,1,.08-.754,1,1,0,0,1,.251-.5.978.978,0,0,1,.491-.263,3.6,3.6,0,0,1,.777-.08h3.734a3.66,3.66,0,0,1,.8.08.973.973,0,0,1,.491.263,1.087,1.087,0,0,1,.251.5,3.44,3.44,0,0,1,.08.754Z"/>
      <path id="Path_64" data-name="Path 64" d="M411.107,129.039H400.371a.231.231,0,0,0-.262.263v1.234a.23.23,0,0,0,.262.262h4.317v5.962a.3.3,0,0,0,.343.331h1.439a.292.292,0,0,0,.32-.331V130.8h4.317a.238.238,0,0,0,.274-.262V129.3A.239.239,0,0,0,411.107,129.039Z"/>
      <path id="Path_65" data-name="Path 65" d="M423.6,129.359a1.334,1.334,0,0,0-.994-.32h-.822a3.042,3.042,0,0,0-.628.058,1.669,1.669,0,0,0-.457.148,1.845,1.845,0,0,0-.354.263c-.114.114-.228.24-.366.4l-4.385,5.14a.212.212,0,0,1-.194.1h-.137c-.08,0-.114-.045-.114-.148v-5.619c0-.228-.1-.343-.32-.343H413.4a.3.3,0,0,0-.331.343v6.179a1.633,1.633,0,0,0,.331,1.21,1.41,1.41,0,0,0,1.005.32h.788a4.411,4.411,0,0,0,.628-.046,1.707,1.707,0,0,0,.446-.148,1.286,1.286,0,0,0,.342-.274c.115-.115.229-.251.366-.4l4.42-5.151a.235.235,0,0,1,.182-.1h.137c.08,0,.115.057.115.148v5.642a.292.292,0,0,0,.32.331h1.439a.3.3,0,0,0,.342-.331v-6.179A1.739,1.739,0,0,0,423.6,129.359Z"/>
    </g>
  </g>
</svg>
