<svg width="200" height="45" viewBox="0 0 200 45" fill="none" xmlns="http://www.w3.org/2000/svg">
<g id="logo_v1.svg" clip-path="url(#clip0_1379_9956)">
<g id="Group 13">
<g id="Group 9">
<g id="Group 8">
<path id="Path 36" d="M22.3145 36.2694H22.297V40.4477C18.0333 40.4494 13.9064 38.9428 10.6466 36.1945L7.89844 39.3379C10.2184 41.3011 12.9148 42.7697 15.8225 43.6537C18.7302 44.5377 21.7878 44.8184 24.8078 44.4788C27.8279 44.1391 30.7467 43.1861 33.3854 41.6783C36.024 40.1705 38.3269 38.1396 40.1528 35.7101L33.4871 30.6763C32.1884 32.4137 30.5023 33.824 28.5626 34.795C26.623 35.7659 24.4836 36.2708 22.3145 36.2694Z" fill="black"/>
<path id="Path 37" d="M7.99087 11.1863L11.3284 13.7038C12.6496 12.0158 14.3418 10.6549 16.2739 9.72653C18.2059 8.79814 20.3258 8.32724 22.4692 8.35034C24.6126 8.37345 26.7219 8.88994 28.6334 9.85975C30.545 10.8296 32.2075 12.2267 33.492 13.9427L40.1545 8.90881C37.0183 4.73737 32.5193 1.797 27.4398 0.598944C22.3603 -0.599109 17.0215 0.0209379 12.3518 2.35127C7.68213 4.68161 3.97682 8.57484 1.88016 13.354C-0.216495 18.1332 -0.571884 23.4961 0.875788 28.5102L4.87587 27.3074C4.08877 24.5651 3.96052 21.6755 4.50154 18.8742C5.04256 16.0729 6.23756 13.4389 7.98923 11.1868L7.99087 11.1863Z" fill="#999999"/>
<path id="Path 38" d="M13.3967 33.0496C15.894 35.132 19.043 36.2716 22.2945 36.2696V32.0973C20.454 32.0949 18.6515 31.5734 17.094 30.5928C15.5365 29.6122 14.287 28.2123 13.4892 26.5537C12.6914 24.8951 12.3774 23.0451 12.5835 21.2162C12.7895 19.3872 13.5072 17.6535 14.6541 16.214L11.3259 13.7036C9.97144 15.4322 9.04371 17.4559 8.61798 19.6103C8.19226 21.7647 8.28053 23.9891 8.87563 26.1029L4.875 27.3056C5.87086 30.7763 7.87958 33.871 10.6442 36.1936L13.3934 33.0486L13.3967 33.0496Z" fill="#FFD71D"/>
<path id="Path 39" d="M22.2999 36.2698C19.0484 36.2717 15.8993 35.1321 13.4021 33.0498H13.3977L10.6484 36.1949C13.9082 38.9432 18.0351 40.4498 22.2988 40.4481L22.2999 36.2698Z" fill="#999999"/>
<path id="Path 40" d="M8.35291 22.311C8.34919 19.1894 9.39637 16.1575 11.3258 13.7035L7.98827 11.186C6.2366 13.4381 5.04159 16.0721 4.50057 18.8734C3.95955 21.6747 4.08781 24.5643 4.87491 27.3066L8.87554 26.1039C8.5279 24.8697 8.35204 23.5933 8.35291 22.311Z" fill="#191A1A"/>
</g>
<path id="Ellipse 3" d="M27.5925 23.5604C28.283 20.6355 26.4716 17.7045 23.5467 17.014C20.6217 16.3235 17.6908 18.1349 17.0003 21.0598C16.3098 23.9848 18.1211 26.9157 21.0461 27.6062C23.9711 28.2968 26.902 26.4854 27.5925 23.5604Z" fill="black"/>
</g>
<g id="Group 11">
<g id="Group 10">
<path id="Path 41" d="M61.3215 13.6834H43.1767C43.1063 13.6723 43.0343 13.6776 42.9663 13.699C42.8984 13.7203 42.8363 13.7571 42.7848 13.8064C42.7334 13.8557 42.6941 13.9163 42.6699 13.9833C42.6458 14.0503 42.6374 14.122 42.6456 14.1928V16.469C42.635 16.5415 42.6414 16.6154 42.6643 16.6849C42.6871 16.7544 42.7258 16.8177 42.7773 16.8697C42.8288 16.9218 42.8917 16.9611 42.961 16.9847C43.0303 17.0082 43.1042 17.0154 43.1767 17.0056H50.4715V29.4322C50.4619 29.5018 50.4687 29.5727 50.4912 29.6393C50.5138 29.7059 50.5515 29.7663 50.6015 29.8158C50.6514 29.8653 50.7122 29.9025 50.779 29.9244C50.8458 29.9463 50.9168 29.9524 50.9863 29.9422H53.5173C53.5865 29.9519 53.6571 29.9455 53.7234 29.9233C53.7897 29.9011 53.8499 29.8638 53.8993 29.8143C53.9487 29.7649 53.986 29.7046 54.0081 29.6383C54.0302 29.5719 54.0366 29.5014 54.0267 29.4322V17.0056H61.3215C61.3944 17.016 61.4687 17.0093 61.5386 16.986C61.6084 16.9627 61.6719 16.9235 61.7239 16.8714C61.776 16.8194 61.8152 16.7559 61.8385 16.6861C61.8618 16.6162 61.8685 16.5419 61.8581 16.469V14.1928C61.8581 13.8557 61.6792 13.6834 61.3215 13.6834Z" fill="black"/>
<path id="Path 42" d="M80.8066 17.1903H78.5304C78.1889 17.1903 78.0209 17.3692 78.0209 17.7269V24.4417C78.0289 24.8548 77.9907 25.2674 77.9071 25.672C77.8452 25.9638 77.7025 26.2324 77.4952 26.447C77.2802 26.6558 77.0122 26.8018 76.7202 26.8692C76.308 26.9637 75.8856 27.0056 75.4629 26.9938H69.4959C69.0821 27.0067 68.6684 26.9648 68.2656 26.8692C67.9882 26.8045 67.7369 26.6573 67.5448 26.447C67.3588 26.2257 67.237 25.9576 67.1926 25.672C67.1256 25.2654 67.0948 24.8537 67.1004 24.4417V17.7269C67.1004 17.3692 66.927 17.1903 66.591 17.1903H64.3147C64.2419 17.1799 64.1676 17.1866 64.0977 17.2099C64.0279 17.2332 63.9644 17.2724 63.9123 17.3244C63.8603 17.3765 63.821 17.44 63.7978 17.5098C63.7745 17.5797 63.7678 17.654 63.7782 17.7269V25.2547C63.7623 25.9801 63.8574 26.7036 64.06 27.4003C64.223 27.9639 64.5402 28.4707 64.9759 28.8636C65.4638 29.2754 66.047 29.5585 66.6723 29.6874C67.5372 29.8754 68.4213 29.9609 69.3062 29.9421H75.788C76.6711 29.9598 77.5533 29.8743 78.4165 29.6874C79.0451 29.5585 79.6317 29.2754 80.1237 28.8636C80.5576 28.4692 80.8745 27.9629 81.0396 27.4003C81.2396 26.7031 81.3346 25.9799 81.3215 25.2547V17.7269C81.3215 17.3692 81.148 17.1903 80.8066 17.1903Z" fill="black"/>
<path id="Path 43" d="M96.1713 17.1903H89.6623C88.7766 17.1733 87.8921 17.2643 87.0284 17.4613C86.4041 17.5993 85.8223 17.8855 85.3321 18.2959C84.8964 18.6898 84.5776 19.1961 84.4107 19.7592C84.2127 20.4569 84.1196 21.1802 84.1343 21.9054V29.4327C84.1343 29.7746 84.3132 29.9426 84.6655 29.9426H86.9471C87.0164 29.9528 87.0871 29.9465 87.1536 29.9245C87.22 29.9024 87.2804 29.8651 87.3299 29.8156C87.3794 29.7661 87.4166 29.7056 87.4386 29.6391C87.4606 29.5726 87.4667 29.5019 87.4565 29.4327V22.5335C87.45 22.1241 87.4882 21.7152 87.5704 21.3141C87.6324 21.0177 87.7749 20.7441 87.9822 20.5234C88.1992 20.3183 88.4666 20.1743 88.7573 20.1061C89.1609 20.0155 89.5739 19.9737 89.9875 19.9814H96.1713C96.2283 19.9891 96.2864 19.9834 96.3409 19.9648C96.3954 19.9461 96.4449 19.9151 96.4854 19.8741C96.5258 19.8331 96.5562 19.7833 96.5741 19.7286C96.592 19.6738 96.597 19.6157 96.5886 19.5587V17.6131C96.597 17.5561 96.592 17.4979 96.5741 17.4432C96.5562 17.3884 96.5258 17.3386 96.4854 17.2976C96.4449 17.2566 96.3954 17.2256 96.3409 17.207C96.2864 17.1884 96.2283 17.1827 96.1713 17.1903Z" fill="black"/>
<path id="Path 44" d="M115.66 19.759C115.493 19.1959 115.174 18.6896 114.738 18.2957C114.246 17.8822 113.66 17.5956 113.031 17.4611C112.171 17.2649 111.29 17.1739 110.408 17.1901H101.693V13.0333C101.704 12.964 101.697 12.8933 101.675 12.8269C101.653 12.7604 101.616 12.7 101.567 12.6505C101.517 12.601 101.457 12.5637 101.39 12.5417C101.324 12.5198 101.253 12.5136 101.184 12.5239H98.9076C98.5553 12.5239 98.3765 12.6919 98.3765 13.0333V25.2545C98.3618 25.9794 98.455 26.7026 98.6529 27.4001C98.818 27.9627 99.1349 28.469 99.5688 28.8634C100.057 29.2741 100.64 29.5572 101.265 29.6872C102.132 29.8755 103.018 29.961 103.904 29.9419H110.408C111.289 29.9599 112.17 29.8744 113.031 29.6872C113.66 29.5606 114.248 29.2773 114.738 28.8634C115.174 28.4694 115.493 27.9632 115.66 27.4001C115.858 26.7026 115.951 25.9794 115.936 25.2545V21.9052C115.951 21.18 115.858 20.4567 115.66 19.759ZM112.635 24.6041C112.643 25.0172 112.605 25.4298 112.522 25.8344C112.464 26.1266 112.323 26.3957 112.115 26.6094C111.897 26.8171 111.628 26.963 111.335 27.0321C110.924 27.1237 110.504 27.1655 110.083 27.1568H104.23C103.816 27.1645 103.403 27.1226 102.999 27.0321C102.706 26.9643 102.436 26.8182 102.219 26.6094C102.012 26.3957 101.87 26.1266 101.813 25.8344C101.727 25.4301 101.687 25.0174 101.693 24.6041V19.9801H110.083C110.504 19.9714 110.924 20.0132 111.335 20.1048C111.627 20.1743 111.895 20.318 112.115 20.5221C112.323 20.7419 112.464 21.0161 112.522 21.3128C112.604 21.7139 112.642 22.1228 112.635 22.5322V24.6041Z" fill="black"/>
<path id="Path 45" d="M135.816 19.759C135.651 19.1963 135.334 18.69 134.9 18.2957C134.407 17.8832 133.821 17.5967 133.193 17.4611C132.331 17.2649 131.448 17.1739 130.564 17.1901H123.996C123.108 17.1727 122.222 17.2637 121.356 17.4611C120.732 17.599 120.15 17.8853 119.66 18.2957C119.226 18.69 118.909 19.1963 118.744 19.759C118.544 20.4564 118.449 21.1797 118.462 21.9051V25.2544C118.449 25.9797 118.544 26.7028 118.744 27.4001C118.909 27.9627 119.226 28.469 119.66 28.8634C120.148 29.2741 120.731 29.5571 121.356 29.6871C122.223 29.8754 123.109 29.9609 123.996 29.9419H130.564C131.447 29.9598 132.329 29.8743 133.193 29.6871C133.822 29.5594 134.408 29.2762 134.9 28.8634C135.334 28.469 135.651 27.9627 135.816 27.4001C136.016 26.7028 136.111 25.9797 136.098 25.2544V21.9051C136.111 21.1797 136.016 20.4564 135.816 19.759ZM132.797 24.6745C132.805 25.0876 132.767 25.5002 132.683 25.9048C132.624 26.1975 132.48 26.4666 132.271 26.6798C132.057 26.8888 131.789 27.0334 131.496 27.0971C131.084 27.1935 130.662 27.2372 130.239 27.2272H124.321C123.907 27.2364 123.493 27.1927 123.09 27.0971C122.795 27.0321 122.524 26.8878 122.305 26.6798C122.101 26.4642 121.962 26.1957 121.904 25.9048C121.815 25.5009 121.775 25.0879 121.784 24.6745V22.4633C121.776 22.0572 121.816 21.6515 121.904 21.2548C121.964 20.9616 122.103 20.6901 122.305 20.4689C122.521 20.257 122.794 20.1121 123.09 20.0516C123.494 19.9629 123.907 19.9229 124.321 19.9324H130.239C130.661 19.9222 131.083 19.9622 131.496 20.0516C131.79 20.1109 132.06 20.2561 132.271 20.4689C132.478 20.6878 132.621 20.9598 132.683 21.2548C132.766 21.6521 132.804 22.0575 132.797 22.4633V24.6745Z" fill="black"/>
<path id="Path 46" d="M155.147 21.335C154.734 20.9675 154.252 20.6869 153.729 20.5099C153.205 20.333 152.652 20.2634 152.101 20.3053H138.73C138.848 20.9906 139.169 21.6248 139.651 22.1257C140.062 22.4943 140.543 22.7761 141.065 22.9541C141.588 23.132 142.141 23.2026 142.691 23.1614H151.401C152.208 23.1614 152.609 23.595 152.609 24.4621V25.416C152.629 25.7545 152.531 26.0894 152.333 26.3644C152.212 26.493 152.063 26.5918 151.898 26.653C151.732 26.7141 151.554 26.7359 151.379 26.7167H139.185C138.827 26.7167 138.648 26.8847 138.648 27.2261V29.4313C138.648 29.7733 138.827 29.9413 139.185 29.9413H152.051C153.46 29.9413 154.499 29.5927 155.167 28.8954C155.506 28.5275 155.768 28.0963 155.939 27.6265C156.111 27.1568 156.187 26.6579 156.165 26.1585V24.2995C156.2 23.7626 156.128 23.2241 155.953 22.7152C155.778 22.2063 155.504 21.7372 155.147 21.335Z" fill="black"/>
<path id="Path 47" d="M176.5 13.6837H158.354C157.996 13.6837 157.817 13.8571 157.817 14.1931V16.3772C157.807 16.4501 157.814 16.5244 157.837 16.5943C157.86 16.6641 157.899 16.7276 157.951 16.7796C158.003 16.8317 158.067 16.8709 158.137 16.8942C158.207 16.9175 158.281 16.9242 158.354 16.9137H165.649V29.433C165.639 29.5022 165.645 29.5728 165.667 29.6391C165.689 29.7055 165.727 29.7657 165.776 29.8152C165.825 29.8647 165.886 29.902 165.952 29.9241C166.018 29.9463 166.089 29.9528 166.158 29.943H168.689C168.759 29.9533 168.83 29.9472 168.896 29.9252C168.963 29.9033 169.024 29.8661 169.074 29.8167C169.124 29.7672 169.162 29.7068 169.184 29.6402C169.207 29.5736 169.213 29.5027 169.204 29.433V16.9137H176.499C176.571 16.9236 176.645 16.9164 176.714 16.8929C176.784 16.8693 176.846 16.8299 176.898 16.7779C176.949 16.7259 176.988 16.6626 177.011 16.5931C177.034 16.5235 177.04 16.4496 177.03 16.3772V14.1931C177.038 14.1224 177.03 14.0508 177.005 13.9839C176.981 13.917 176.942 13.8565 176.891 13.8072C176.84 13.7579 176.778 13.7211 176.71 13.6997C176.642 13.6783 176.57 13.6728 176.5 13.6837Z" fill="black"/>
<path id="Path 48" d="M198.283 16.9782C198.084 16.2581 197.695 15.6048 197.156 15.0873C196.581 14.5697 195.886 14.2028 195.135 14.0197C194.151 13.7778 193.14 13.6649 192.127 13.6837H184.951C183.942 13.6648 182.934 13.7778 181.954 14.0197C181.206 14.2053 180.516 14.5719 179.943 15.0873C179.409 15.6099 179.017 16.2609 178.805 16.9782C178.547 17.9024 178.427 18.8594 178.448 19.8187V23.8129C178.427 24.7737 178.548 25.7323 178.805 26.6582C179.015 27.381 179.407 28.0379 179.943 28.5659C180.516 29.0779 181.207 29.4392 181.954 29.6173C182.935 29.8548 183.942 29.9641 184.951 29.9425H192.127C193.139 29.9641 194.15 29.8548 195.135 29.6173C195.886 29.4416 196.581 29.0801 197.156 28.5659C197.697 28.0429 198.086 27.3839 198.283 26.6582C198.536 25.7315 198.655 24.7733 198.636 23.8129V19.8176C198.655 18.8591 198.537 17.9029 198.283 16.9782ZM195.08 23.5582C195.091 24.0701 195.04 24.5813 194.929 25.0811C194.85 25.4442 194.678 25.7804 194.43 26.0566C194.169 26.3101 193.842 26.4865 193.487 26.5666C192.994 26.6768 192.49 26.7277 191.986 26.7184H185.092C184.587 26.7274 184.083 26.6765 183.591 26.5666C183.238 26.4853 182.913 26.3089 182.653 26.0566C182.403 25.7818 182.231 25.445 182.155 25.0811C182.043 24.5813 181.992 24.0701 182.003 23.5582V20.0728C181.992 19.5611 182.043 19.05 182.155 18.5505C182.23 18.1862 182.402 17.8491 182.653 17.5749C182.912 17.3209 183.237 17.1444 183.591 17.0655C184.083 16.953 184.587 16.902 185.092 16.9137H191.986C192.491 16.9017 192.995 16.9527 193.487 17.0655C193.843 17.1431 194.17 17.3197 194.43 17.5749C194.679 17.8505 194.851 18.1871 194.929 18.5505C195.04 19.05 195.091 19.5611 195.08 20.0728V23.5582Z" fill="black"/>
</g>
<path id="Path 49" d="M155.057 16.9139C155.127 16.9236 155.198 16.917 155.265 16.8946C155.331 16.8723 155.392 16.8348 155.442 16.7851C155.492 16.7353 155.529 16.6747 155.552 16.608C155.574 16.5413 155.581 16.4703 155.571 16.4006V14.1943C155.581 14.1247 155.574 14.0539 155.551 13.9874C155.529 13.9209 155.491 13.8605 155.441 13.811C155.392 13.7616 155.331 13.7243 155.264 13.7022C155.198 13.6801 155.127 13.6738 155.057 13.6838H142.748C141.339 13.6838 140.302 14.0301 139.636 14.7292C139.074 15.3263 138.731 16.0966 138.664 16.9139H155.057Z" fill="black"/>
</g>
<g id="Group 12">
<path id="Path 50" d="M59.4988 40.2809H58.006V34.7484C58.0094 34.7169 58.0058 34.685 57.9953 34.6551C57.9848 34.6252 57.9677 34.5981 57.9453 34.5757C57.9229 34.5533 57.8957 34.5362 57.8658 34.5257C57.8359 34.5152 57.8041 34.5115 57.7726 34.515H56.6444C56.6129 34.5115 56.581 34.5152 56.5511 34.5257C56.5212 34.5362 56.494 34.5533 56.4716 34.5757C56.4492 34.5981 56.4322 34.6252 56.4216 34.6551C56.4111 34.685 56.4075 34.7169 56.411 34.7484V40.2809H51.8078C51.7782 40.2852 51.748 40.2825 51.7196 40.273C51.6912 40.2636 51.6655 40.2476 51.6443 40.2265C51.6232 40.2054 51.6072 40.1796 51.5978 40.1512C51.5883 40.1228 51.5856 40.0926 51.5899 40.063V34.7484C51.5899 34.5954 51.5194 34.515 51.3649 34.515H50.2367C50.205 34.5102 50.1725 34.513 50.142 34.523C50.1116 34.533 50.0838 34.5501 50.0611 34.5728C50.0384 34.5955 50.0214 34.6232 50.0113 34.6537C50.0013 34.6842 49.9985 34.7166 50.0033 34.7484V40.8768C49.993 40.9959 50.0069 41.1158 50.0442 41.2294C50.0816 41.3429 50.1415 41.4478 50.2205 41.5375C50.4295 41.7042 50.6956 41.7822 50.9616 41.7547H58.3057V43.4541C58.3019 43.4864 58.3057 43.5191 58.3167 43.5497C58.3276 43.5803 58.3455 43.608 58.3689 43.6305C58.3923 43.6531 58.4206 43.67 58.4516 43.6799C58.4825 43.6897 58.5154 43.6923 58.5475 43.6875H59.4981C59.6511 43.6875 59.723 43.6071 59.723 43.4541V40.5143C59.7237 40.362 59.6518 40.2809 59.4988 40.2809Z" fill="black"/>
<path id="Path 51" d="M67.9733 36.9792C67.9328 36.7806 67.8347 36.5984 67.6913 36.4553C67.5406 36.3075 67.3503 36.2068 67.1434 36.1654C66.858 36.102 66.5662 36.0722 66.2739 36.0766H63.246C62.8505 36.0689 62.4555 36.1096 62.0699 36.1979C61.7936 36.2579 61.5364 36.3851 61.321 36.5681C61.1248 36.7419 60.9824 36.9682 60.9106 37.2203C60.8207 37.5317 60.7772 37.8546 60.7816 38.1786V39.6594C60.7771 39.9837 60.8206 40.3069 60.9106 40.6184C60.9826 40.8705 61.1249 41.0967 61.321 41.2707C61.5352 41.454 61.7932 41.5789 62.0699 41.6331C62.4555 41.7211 62.8505 41.7616 63.246 41.7537H67.699C67.7248 41.7566 67.7508 41.7535 67.7752 41.7447C67.7996 41.7359 67.8216 41.7216 67.8395 41.7029C67.8574 41.6843 67.8708 41.6617 67.8786 41.637C67.8864 41.6123 67.8884 41.5861 67.8845 41.5605V40.7031C67.8883 40.6778 67.8861 40.652 67.8782 40.6278C67.8702 40.6035 67.8566 40.5815 67.8386 40.5635C67.8206 40.5454 67.7985 40.5319 67.7743 40.5239C67.75 40.5159 67.7243 40.5138 67.699 40.5176H63.3906C63.0737 40.5541 62.7542 40.4772 62.4887 40.3004C62.4018 40.2056 62.3361 40.0933 62.2959 39.9711C62.2556 39.849 62.2418 39.7197 62.2553 39.5917V39.3499H67.4734C67.6315 39.359 67.788 39.3137 67.9169 39.2215C67.9718 39.1577 68.013 39.0833 68.0379 39.0028C68.0627 38.9224 68.0708 38.8377 68.0615 38.754V37.7795C68.0659 37.5101 68.0363 37.2412 67.9733 36.9792ZM66.6124 38.2484C66.6124 38.3613 66.556 38.4177 66.4354 38.4177H62.256V38.1441C62.2417 38.0161 62.2551 37.8866 62.2954 37.7643C62.3357 37.642 62.4019 37.5298 62.4894 37.4354C62.7557 37.2608 63.0751 37.1859 63.3913 37.2239H65.9848C66.1598 37.2025 66.3363 37.2486 66.4784 37.3529C66.5313 37.416 66.5708 37.4893 66.5943 37.5683C66.6178 37.6472 66.6249 37.7302 66.6152 37.812L66.6124 38.2484Z" fill="black"/>
<path id="Path 52" d="M76.8259 36.0766H75.8112C75.6582 36.0766 75.5856 36.1577 75.5856 36.3185V38.2513H70.8668V36.3185C70.8668 36.1577 70.7962 36.0766 70.6411 36.0766H69.6264C69.5941 36.0729 69.5614 36.0766 69.5308 36.0876C69.5002 36.0986 69.4725 36.1164 69.4499 36.1398C69.4274 36.1632 69.4105 36.1915 69.4006 36.2225C69.3907 36.2535 69.3881 36.2863 69.393 36.3185V41.521C69.3896 41.5525 69.3932 41.5844 69.4037 41.6143C69.4142 41.6442 69.4313 41.6713 69.4537 41.6937C69.4761 41.7161 69.5033 41.7332 69.5332 41.7437C69.563 41.7542 69.5949 41.7579 69.6264 41.7544H70.6411C70.6724 41.7583 70.7041 41.7549 70.7338 41.7444C70.7635 41.7339 70.7903 41.7167 70.8122 41.694C70.8341 41.6714 70.8504 41.644 70.8599 41.6139C70.8693 41.5839 70.8717 41.5521 70.8668 41.521V39.4676H75.5856V41.521C75.5806 41.5521 75.583 41.5839 75.5925 41.6139C75.6019 41.644 75.6182 41.6714 75.6401 41.694C75.662 41.7167 75.6889 41.7339 75.7186 41.7444C75.7483 41.7549 75.78 41.7583 75.8112 41.7544H76.8259C76.8574 41.7579 76.8893 41.7542 76.9192 41.7437C76.9491 41.7332 76.9762 41.7161 76.9986 41.6937C77.021 41.6713 77.0381 41.6442 77.0486 41.6143C77.0591 41.5844 77.0628 41.5525 77.0593 41.521V36.3185C77.0642 36.2863 77.0616 36.2535 77.0517 36.2225C77.0419 36.1915 77.025 36.1632 77.0024 36.1398C76.9798 36.1164 76.9522 36.0986 76.9216 36.0876C76.8909 36.0766 76.8582 36.0729 76.8259 36.0766Z" fill="black"/>
<path id="Path 53" d="M85.9979 36.0764H78.4211C78.396 36.0734 78.3705 36.076 78.3466 36.0843C78.3227 36.0925 78.301 36.1061 78.2831 36.1239C78.2653 36.1418 78.2517 36.1635 78.2435 36.1874C78.2352 36.2113 78.2326 36.2368 78.2356 36.2619V37.132C78.2325 37.1571 78.2352 37.1825 78.2434 37.2064C78.2517 37.2303 78.2652 37.252 78.2831 37.2698C78.301 37.2876 78.3228 37.3011 78.3467 37.3093C78.3706 37.3174 78.396 37.32 78.4211 37.3168H81.4729V41.5208C81.4695 41.5523 81.4731 41.5842 81.4836 41.6141C81.4941 41.644 81.5112 41.6712 81.5336 41.6936C81.556 41.716 81.5832 41.7331 81.6131 41.7436C81.643 41.7541 81.6749 41.7577 81.7064 41.7543H82.7211C82.7523 41.7581 82.784 41.7547 82.8137 41.7442C82.8434 41.7338 82.8702 41.7165 82.8921 41.6939C82.914 41.6712 82.9304 41.6438 82.9398 41.6138C82.9493 41.5838 82.9516 41.5519 82.9467 41.5208V37.3182H85.9979C86.0229 37.3213 86.0482 37.3186 86.072 37.3104C86.0959 37.3022 86.1175 37.2887 86.1353 37.2709C86.1531 37.2531 86.1666 37.2315 86.1748 37.2076C86.183 37.1838 86.1857 37.1584 86.1826 37.1334V36.2605C86.1856 36.2355 86.1828 36.2102 86.1746 36.1865C86.1663 36.1628 86.1528 36.1412 86.135 36.1235C86.1172 36.1058 86.0956 36.0923 86.0718 36.0842C86.0481 36.076 86.0228 36.0734 85.9979 36.0764Z" fill="black"/>
<path id="Path 54" d="M95.0116 37.2204C94.9398 36.9683 94.7974 36.7419 94.6012 36.5681C94.3827 36.3849 94.1227 36.2579 93.8439 36.1979C93.461 36.1105 93.0689 36.0698 92.6762 36.0766H89.7774C89.3846 36.0688 88.9924 36.1096 88.6096 36.1979C88.3316 36.2594 88.0722 36.3863 87.853 36.5681C87.6617 36.7447 87.5222 36.9703 87.4497 37.2204C87.3562 37.5309 87.3129 37.8544 87.3214 38.1787V43.8057C87.3214 43.9587 87.4017 44.0313 87.5625 44.0313H88.5694C88.6005 44.0363 88.6324 44.0339 88.6624 44.0245C88.6924 44.015 88.7198 43.9987 88.7425 43.9768C88.7651 43.9549 88.7824 43.9281 88.7928 43.8984C88.8033 43.8687 88.8067 43.8369 88.8028 43.8057V41.7523H92.6762C93.0689 41.7593 93.461 41.7189 93.8439 41.6317C94.1232 41.5776 94.3839 41.4528 94.6012 41.2693C94.7973 41.0954 94.9397 40.8691 95.0116 40.617C95.0985 40.305 95.1391 39.9819 95.1322 39.658V38.1772C95.1389 37.8541 95.0983 37.5317 95.0116 37.2204ZM93.6669 39.3704C93.6704 39.5542 93.6544 39.7378 93.619 39.9182C93.5879 40.0495 93.5241 40.1708 93.4335 40.2708C93.3385 40.3647 93.2182 40.4288 93.0873 40.4556C92.9047 40.4946 92.7184 40.5135 92.5316 40.512H88.8028V38.4501C88.8001 38.2691 88.8162 38.0884 88.8508 37.9107C88.8781 37.778 88.9424 37.6558 89.0362 37.5581C89.1311 37.4681 89.2477 37.4042 89.3747 37.3727C89.5539 37.3301 89.7378 37.3112 89.9219 37.3163H92.5309C92.7178 37.3108 92.9046 37.3298 93.0866 37.3727C93.215 37.4063 93.3336 37.4699 93.4328 37.5581C93.5236 37.658 93.5875 37.7793 93.6183 37.9107C93.6529 38.0884 93.6689 38.2691 93.6662 38.4501L93.6669 39.3704Z" fill="black"/>
<path id="Path 55" d="M109.359 41.5128L105.937 35.304C105.82 35.0525 105.64 34.836 105.413 34.6757C105.211 34.5654 104.984 34.51 104.753 34.515H104.141C103.937 34.5116 103.735 34.5674 103.562 34.6757C103.343 34.8397 103.168 35.0557 103.054 35.304L99.6637 41.5128C99.6338 41.5639 99.6252 41.6247 99.6397 41.682C99.6559 41.7307 99.7102 41.7526 99.8005 41.7526H101.145C101.193 41.7542 101.24 41.7423 101.282 41.7181C101.323 41.6938 101.357 41.6584 101.379 41.6158L102.096 40.276H106.952L107.685 41.6158C107.706 41.6606 107.74 41.6978 107.784 41.7223C107.827 41.7468 107.876 41.7573 107.926 41.7526H109.23C109.319 41.7526 109.371 41.7286 109.384 41.682C109.398 41.6246 109.389 41.5638 109.359 41.5128ZM102.748 39.0808L104.37 36.0529C104.381 36.0332 104.397 36.0168 104.417 36.0056C104.437 35.9943 104.459 35.9885 104.482 35.9887H104.547C104.57 35.9886 104.592 35.9944 104.612 36.0057C104.632 36.0169 104.648 36.0332 104.66 36.0529L106.302 39.0808H102.748Z" fill="black"/>
<path id="Path 56" d="M117.371 38.8256C117.543 38.721 117.683 38.5725 117.778 38.3955C117.873 38.2185 117.919 38.0193 117.911 37.8187V37.4245C117.926 37.2373 117.899 37.0491 117.832 36.8736C117.765 36.6981 117.66 36.5396 117.524 36.4098C117.132 36.1525 116.663 36.036 116.196 36.0791H110.833C110.631 36.0791 110.534 36.1842 110.534 36.3936V41.4509C110.528 41.4918 110.531 41.5337 110.544 41.5732C110.557 41.6127 110.578 41.6487 110.607 41.6784C110.636 41.7081 110.672 41.7306 110.711 41.7443C110.75 41.7579 110.792 41.7622 110.833 41.7569H116.373C116.627 41.7645 116.88 41.7292 117.122 41.6525C117.305 41.5967 117.474 41.5003 117.615 41.3705C117.737 41.2454 117.828 41.0938 117.881 40.9277C117.942 40.7402 117.972 40.5443 117.969 40.3473V39.8805C117.981 39.666 117.93 39.4528 117.824 39.2659C117.718 39.0791 117.561 38.9263 117.371 38.8256ZM112.008 37.3843C112.008 37.287 112.056 37.2391 112.145 37.2391H115.906C116.069 37.2232 116.232 37.2659 116.365 37.3596C116.412 37.407 116.447 37.464 116.47 37.5266C116.492 37.5893 116.5 37.656 116.494 37.7221V37.9477C116.499 38.0114 116.491 38.0755 116.469 38.1354C116.446 38.1953 116.411 38.2494 116.365 38.294C116.24 38.3868 116.085 38.4298 115.93 38.4145H112.005L112.008 37.3843ZM116.51 40.1344C116.514 40.1986 116.503 40.2629 116.48 40.3227C116.456 40.3825 116.42 40.4364 116.373 40.4806C116.243 40.5682 116.086 40.608 115.93 40.5934H112.145C112.126 40.5957 112.108 40.5937 112.09 40.5877C112.072 40.5816 112.056 40.5716 112.043 40.5584C112.03 40.5452 112.02 40.5292 112.014 40.5116C112.008 40.4939 112.006 40.4751 112.008 40.4566V39.3284H115.914C116.078 39.3117 116.242 39.3578 116.373 39.4574C116.42 39.5082 116.456 39.5679 116.48 39.6329C116.503 39.6979 116.513 39.767 116.51 39.8361V40.1344Z" fill="black"/>
<path id="Path 57" d="M126.812 36.0764H119.234C119.208 36.0734 119.183 36.076 119.159 36.0843C119.135 36.0925 119.114 36.1061 119.096 36.1239C119.078 36.1418 119.064 36.1635 119.056 36.1874C119.048 36.2113 119.045 36.2368 119.048 36.2619V37.132C119.045 37.1571 119.048 37.1825 119.056 37.2064C119.064 37.2303 119.078 37.252 119.096 37.2698C119.114 37.2876 119.135 37.3011 119.159 37.3093C119.183 37.3174 119.209 37.32 119.234 37.3168H122.286V41.5208C122.283 41.5523 122.286 41.5842 122.297 41.6141C122.307 41.644 122.324 41.6712 122.347 41.6936C122.369 41.716 122.396 41.7331 122.426 41.7436C122.456 41.7541 122.488 41.7577 122.52 41.7543H123.534C123.566 41.7581 123.597 41.7547 123.627 41.7442C123.657 41.7338 123.683 41.7165 123.705 41.6939C123.727 41.6712 123.744 41.6438 123.753 41.6138C123.762 41.5838 123.765 41.5519 123.76 41.5208V37.3182H126.812C126.837 37.3214 126.862 37.3188 126.886 37.3107C126.91 37.3025 126.932 37.289 126.95 37.2712C126.968 37.2534 126.981 37.2317 126.989 37.2078C126.998 37.184 127 37.1585 126.997 37.1334V36.2605C127 36.2355 126.997 36.2102 126.989 36.1865C126.981 36.1627 126.967 36.1412 126.949 36.1235C126.931 36.1058 126.91 36.0924 126.886 36.0842C126.862 36.0761 126.837 36.0734 126.812 36.0764Z" fill="black"/>
<path id="Path 58" d="M135.827 37.2203C135.755 36.9683 135.612 36.7421 135.416 36.5681C135.198 36.3851 134.938 36.258 134.659 36.1979C134.277 36.1101 133.885 36.0694 133.492 36.0766H130.566C130.171 36.0689 129.776 36.1096 129.391 36.1979C129.114 36.2576 128.857 36.3848 128.642 36.5681C128.445 36.7417 128.302 36.9681 128.231 37.2203C128.144 37.5322 128.103 37.855 128.11 38.1786V39.6594C128.103 39.9833 128.144 40.3064 128.231 40.6184C128.303 40.8706 128.445 41.097 128.642 41.2707C128.856 41.4543 129.114 41.5792 129.391 41.6331C129.776 41.7211 130.171 41.7616 130.566 41.7537H133.49C133.882 41.7611 134.274 41.7206 134.657 41.6331C134.936 41.5789 135.197 41.4541 135.414 41.2707C135.61 41.0966 135.753 40.8704 135.825 40.6184C135.912 40.3064 135.953 39.9833 135.946 39.6594V38.1786C135.953 37.8551 135.913 37.5323 135.827 37.2203ZM134.482 39.4063C134.486 39.5901 134.47 39.7738 134.434 39.9542C134.408 40.0853 134.343 40.2058 134.249 40.3003C134.154 40.3948 134.033 40.4592 133.902 40.4852C133.72 40.5284 133.533 40.5474 133.347 40.5416H130.713C130.529 40.5474 130.345 40.5285 130.166 40.4852C130.035 40.4588 129.914 40.3946 129.819 40.3004C129.726 40.2046 129.662 40.0847 129.634 39.9542C129.599 39.7738 129.582 39.5901 129.586 39.4063V38.424C129.583 38.2456 129.599 38.0674 129.634 37.8923C129.664 37.7607 129.728 37.6391 129.819 37.5398C129.914 37.4454 130.035 37.3809 130.166 37.3543C130.345 37.3152 130.529 37.2963 130.713 37.2979H133.347C133.533 37.2963 133.72 37.3152 133.902 37.3543C134.034 37.3791 134.155 37.4439 134.248 37.5398C134.343 37.6372 134.407 37.7595 134.434 37.8923C134.469 38.0673 134.485 38.2456 134.482 38.424V39.4063Z" fill="black"/>
<path id="Path 59" d="M144.819 36.0767H137.249C137.223 36.0727 137.197 36.0747 137.172 36.0825C137.148 36.0903 137.125 36.1037 137.107 36.1216C137.088 36.1396 137.074 36.1616 137.065 36.186C137.056 36.2103 137.053 36.2364 137.056 36.2621V37.1323C137.053 37.158 137.056 37.1841 137.065 37.2084C137.074 37.2327 137.088 37.2547 137.107 37.2726C137.125 37.2905 137.148 37.3038 137.173 37.3115C137.197 37.3192 137.223 37.3211 137.249 37.317H140.294V41.5211C140.29 41.5534 140.294 41.5861 140.305 41.6167C140.316 41.6473 140.334 41.675 140.357 41.6976C140.38 41.7201 140.409 41.737 140.44 41.7469C140.471 41.7568 140.504 41.7594 140.536 41.7545H141.542C141.573 41.7581 141.605 41.7545 141.635 41.7441C141.665 41.7336 141.693 41.7165 141.715 41.6941C141.738 41.6717 141.755 41.6445 141.765 41.6145C141.776 41.5846 141.779 41.5527 141.776 41.5211V37.3184H144.819C144.845 37.3224 144.87 37.3203 144.895 37.3125C144.919 37.3046 144.941 37.2911 144.959 37.2731C144.977 37.2551 144.991 37.2331 144.999 37.2089C145.007 37.1847 145.009 37.1589 145.005 37.1337V36.2607C145.008 36.2355 145.006 36.2098 144.998 36.1857C144.99 36.1616 144.976 36.1397 144.958 36.1218C144.94 36.1039 144.918 36.0905 144.894 36.0827C144.87 36.0748 144.844 36.0728 144.819 36.0767Z" fill="black"/>
<path id="Path 60" d="M154.076 36.1579C154.064 36.1308 154.043 36.1083 154.017 36.0937C153.991 36.0791 153.961 36.0732 153.931 36.0768H152.771C152.72 36.0729 152.668 36.0847 152.624 36.1106C152.579 36.1366 152.543 36.1754 152.521 36.2221L150.098 40.4417C150.076 40.4425 150.053 40.4386 150.033 40.4304C150.012 40.4221 149.993 40.4096 149.977 40.3937C149.928 40.3341 149.884 40.2693 149.848 40.2005L147.553 36.2221C147.531 36.1754 147.495 36.1366 147.451 36.1106C147.406 36.0847 147.355 36.0729 147.303 36.0768H146.119C146.089 36.0714 146.057 36.0764 146.029 36.0911C146.001 36.1058 145.979 36.1293 145.966 36.1579C145.955 36.1867 145.951 36.2176 145.954 36.2483C145.957 36.279 145.967 36.3086 145.983 36.3349L148.769 41.1503C148.839 41.2717 148.929 41.3806 149.034 41.4726C149.155 41.5496 149.294 41.5916 149.437 41.5939L148.873 42.5761C148.817 42.6611 148.738 42.7288 148.646 42.7714C148.553 42.814 148.451 42.8299 148.35 42.8173H147.738C147.713 42.8135 147.687 42.8156 147.662 42.8236C147.638 42.8316 147.616 42.8451 147.598 42.8632C147.58 42.8812 147.567 42.9032 147.559 42.9275C147.551 42.9517 147.548 42.9775 147.552 43.0027V43.8489C147.549 43.874 147.552 43.8996 147.56 43.9235C147.568 43.9475 147.582 43.9693 147.599 43.9872C147.617 44.0051 147.639 44.0187 147.663 44.0268C147.687 44.035 147.713 44.0376 147.738 44.0344H148.462C148.819 44.0499 149.175 43.9923 149.509 43.8651C149.757 43.7561 149.964 43.5696 150.097 43.3335L154.059 36.3356C154.077 36.3101 154.089 36.2802 154.092 36.249C154.094 36.2178 154.089 36.1864 154.076 36.1579Z" fill="black"/>
<path id="Path 61" d="M162.621 37.2204C162.542 36.9712 162.401 36.7465 162.21 36.5681C161.991 36.3864 161.731 36.2596 161.453 36.1979C161.07 36.1105 160.678 36.0698 160.285 36.0766H157.386C156.994 36.0688 156.601 36.1096 156.219 36.1979C155.941 36.2597 155.681 36.3866 155.461 36.5681C155.27 36.7464 155.129 36.9711 155.051 37.2204C154.964 37.5322 154.924 37.8551 154.93 38.1787V43.8057C154.93 43.9587 155.011 44.0313 155.172 44.0313H156.179C156.209 44.0362 156.241 44.0337 156.27 44.024C156.3 44.0144 156.327 43.9979 156.349 43.9759C156.371 43.9539 156.387 43.927 156.397 43.8974C156.406 43.8679 156.409 43.8364 156.404 43.8057V41.7523H160.282C160.675 41.7594 161.067 41.7189 161.45 41.6317C161.729 41.5759 161.989 41.4513 162.208 41.2693C162.398 41.0907 162.539 40.8661 162.618 40.617C162.705 40.3051 162.746 39.9819 162.739 39.658V38.1772C162.747 37.8542 162.707 37.5318 162.621 37.2204ZM161.276 39.3704C161.282 39.5547 161.263 39.7389 161.22 39.9182C161.195 40.0502 161.134 40.1725 161.043 40.2708C160.948 40.3647 160.827 40.4288 160.696 40.4556C160.514 40.4946 160.327 40.5135 160.141 40.512H156.403V38.4501C156.403 38.2688 156.422 38.088 156.46 37.9107C156.487 37.7797 156.548 37.6581 156.637 37.5581C156.736 37.4696 156.855 37.406 156.983 37.3727C157.162 37.3301 157.346 37.3112 157.53 37.3163H160.139C160.326 37.3108 160.513 37.3298 160.695 37.3727C160.823 37.4063 160.942 37.4699 161.041 37.5581C161.133 37.6564 161.194 37.7787 161.218 37.9107C161.26 38.0873 161.279 38.2686 161.275 38.4501L161.276 39.3704Z" fill="black"/>
<path id="Path 62" d="M171.793 37.6562C171.721 37.406 171.581 37.1804 171.39 37.0039C171.169 36.8208 170.906 36.6938 170.625 36.6337C170.242 36.5451 169.85 36.5044 169.457 36.5125H165.583V36.1909C165.579 36.044 165.598 35.8974 165.64 35.7565C165.668 35.6416 165.73 35.5377 165.817 35.4583C165.918 35.3776 166.037 35.3225 166.163 35.2975C166.343 35.2549 166.527 35.236 166.711 35.2411H170.117C170.198 35.2425 170.279 35.2397 170.359 35.2326C170.555 35.2263 170.749 35.1994 170.939 35.1522C171.137 35.1015 171.318 34.9987 171.463 34.8547C171.535 34.7798 171.596 34.6947 171.643 34.6022C171.667 34.5527 171.688 34.5016 171.705 34.4492C171.724 34.393 171.738 34.3355 171.749 34.2772C171.758 34.2415 171.759 34.2044 171.754 34.1681C171.748 34.1318 171.736 34.097 171.716 34.0656C171.696 34.042 171.671 34.0239 171.642 34.0127C171.613 34.0015 171.582 33.9976 171.551 34.0014H166.566C166.171 33.9936 165.776 34.0341 165.39 34.122C165.114 34.1826 164.857 34.31 164.641 34.4929C164.445 34.6666 164.302 34.893 164.231 35.1452C164.144 35.457 164.103 35.7799 164.11 36.1035V39.6623C164.103 39.9862 164.144 40.3093 164.231 40.6213C164.303 40.8734 164.445 41.0996 164.641 41.2736C164.855 41.4569 165.113 41.5818 165.39 41.636C165.776 41.724 166.171 41.7645 166.566 41.7566H169.457C169.85 41.7645 170.242 41.724 170.625 41.636C170.907 41.582 171.17 41.4573 171.39 41.2736C171.581 41.097 171.72 40.8714 171.793 40.6213C171.886 40.3106 171.93 39.9868 171.922 39.6623V38.6081C171.93 38.286 171.886 37.9646 171.793 37.6562ZM169.876 40.4584C169.691 40.4979 169.501 40.5168 169.312 40.5148H166.711C166.527 40.5161 166.344 40.4971 166.163 40.4584C166.033 40.426 165.913 40.3593 165.817 40.2652C165.724 40.1707 165.662 40.0499 165.64 39.919C165.597 39.7397 165.578 39.5554 165.583 39.3711V37.5836H169.312C169.502 37.5797 169.692 37.6013 169.876 37.6477C170.007 37.6747 170.127 37.7391 170.222 37.8332C170.313 37.9297 170.374 38.0497 170.399 38.1794C170.438 38.3595 170.456 38.5432 170.456 38.7273V39.3711C170.457 39.5553 170.438 39.739 170.399 39.919C170.374 40.0486 170.312 40.1685 170.222 40.2652C170.13 40.3548 170.017 40.4187 169.892 40.4507C169.884 40.4584 169.884 40.4584 169.876 40.4584Z" fill="black"/>
<path id="Path 63" d="M180.95 37.2204C180.878 36.9703 180.739 36.7447 180.547 36.5682C180.326 36.385 180.063 36.258 179.782 36.198C179.4 36.1097 179.007 36.069 178.615 36.0767H175.691C175.298 36.0685 174.906 36.1093 174.523 36.198C174.245 36.2581 173.985 36.3852 173.767 36.5682C173.571 36.7422 173.428 36.9684 173.356 37.2204C173.269 37.5323 173.228 37.8551 173.235 38.1787V39.6595C173.228 39.9834 173.269 40.3065 173.356 40.6185C173.428 40.8705 173.571 41.0967 173.767 41.2708C173.984 41.4542 174.244 41.579 174.523 41.6332C174.906 41.7217 175.298 41.7622 175.691 41.7538H178.615C179.007 41.7617 179.4 41.7212 179.782 41.6332C180.064 41.5792 180.327 41.4545 180.547 41.2708C180.739 41.0942 180.878 40.8686 180.95 40.6185C181.044 40.3078 181.088 39.984 181.079 39.6595V38.1787C181.088 37.8545 181.044 37.5309 180.95 37.2204ZM179.61 39.4064C179.612 39.5906 179.593 39.7743 179.554 39.9543C179.529 40.084 179.467 40.204 179.377 40.3005C179.282 40.3945 179.162 40.4587 179.031 40.4853C178.846 40.5289 178.656 40.5479 178.467 40.5417H175.838C175.653 40.5471 175.469 40.5281 175.29 40.4853C175.159 40.4586 175.039 40.3944 174.944 40.3005C174.851 40.2058 174.789 40.085 174.767 39.9543C174.724 39.775 174.705 39.5907 174.71 39.4064V38.4241C174.706 38.2452 174.725 38.0664 174.767 37.8924C174.791 37.7605 174.852 37.6382 174.944 37.5399C175.039 37.4458 175.159 37.3814 175.29 37.3544C175.47 37.3158 175.654 37.2969 175.838 37.298H178.471C178.66 37.296 178.85 37.315 179.035 37.3544C179.166 37.3812 179.286 37.4456 179.381 37.5399C179.47 37.6399 179.531 37.7615 179.558 37.8924C179.596 38.0671 179.615 38.2454 179.615 38.4241L179.61 39.4064Z" fill="black"/>
<path id="Path 64" d="M189.937 36.0767H182.366C182.341 36.073 182.315 36.0752 182.291 36.0832C182.267 36.0913 182.245 36.1048 182.227 36.1229C182.209 36.1409 182.196 36.1629 182.188 36.1871C182.18 36.2112 182.178 36.2369 182.182 36.2621V37.1323C182.178 37.1574 182.18 37.1831 182.188 37.2073C182.196 37.2314 182.209 37.2534 182.227 37.2714C182.245 37.2893 182.267 37.3028 182.291 37.3108C182.315 37.3187 182.341 37.3208 182.366 37.317H185.41V41.5211C185.407 41.5534 185.41 41.5861 185.421 41.6167C185.432 41.6473 185.45 41.675 185.474 41.6975C185.497 41.7201 185.525 41.737 185.556 41.7469C185.587 41.7568 185.62 41.7594 185.652 41.7545H186.667C186.698 41.7578 186.73 41.7539 186.759 41.7433C186.788 41.7326 186.815 41.7153 186.837 41.6928C186.858 41.6703 186.875 41.6432 186.885 41.6134C186.894 41.5836 186.897 41.5521 186.893 41.5211V37.3184H189.937C189.962 37.3225 189.988 37.3206 190.013 37.3129C190.038 37.3052 190.06 37.2919 190.079 37.274C190.098 37.2561 190.112 37.2341 190.121 37.2098C190.13 37.1854 190.133 37.1594 190.13 37.1337V36.2607C190.133 36.2351 190.129 36.2092 190.12 36.185C190.112 36.1608 190.097 36.139 190.079 36.1212C190.06 36.1034 190.037 36.0902 190.013 36.0825C189.988 36.0747 189.962 36.0727 189.937 36.0767Z" fill="black"/>
<path id="Path 65" d="M198.763 36.3027C198.668 36.2199 198.556 36.1573 198.436 36.1185C198.315 36.0797 198.188 36.0656 198.062 36.0771H197.483C197.334 36.0754 197.186 36.0891 197.04 36.118C196.928 36.1371 196.819 36.1722 196.718 36.2224C196.627 36.274 196.544 36.3362 196.468 36.4078C196.388 36.4882 196.307 36.5771 196.21 36.6899L193.118 40.3143C193.104 40.3374 193.083 40.3561 193.059 40.3685C193.035 40.3809 193.008 40.3866 192.981 40.3848H192.885C192.828 40.3848 192.804 40.3531 192.804 40.2805V36.3183C192.804 36.1575 192.734 36.0764 192.578 36.0764H191.571C191.539 36.0727 191.506 36.0764 191.475 36.0874C191.445 36.0984 191.417 36.1163 191.394 36.1397C191.372 36.163 191.355 36.1913 191.345 36.2223C191.335 36.2533 191.333 36.2861 191.337 36.3183V40.6753C191.318 40.8259 191.329 40.9788 191.369 41.1253C191.409 41.2717 191.478 41.4088 191.571 41.5286C191.769 41.6926 192.023 41.7735 192.279 41.7542H192.835C192.983 41.754 193.131 41.7431 193.278 41.7218C193.387 41.7017 193.493 41.6665 193.592 41.6174C193.683 41.5673 193.765 41.5019 193.834 41.4242C193.915 41.3431 193.995 41.2472 194.092 41.1422L197.208 37.51C197.223 37.4892 197.242 37.472 197.264 37.4598C197.287 37.4475 197.311 37.4406 197.337 37.4394H197.433C197.49 37.4394 197.514 37.4796 197.514 37.5438V41.5222C197.51 41.5532 197.513 41.5848 197.523 41.6146C197.532 41.6443 197.549 41.6715 197.57 41.694C197.592 41.7165 197.619 41.7337 197.648 41.7444C197.678 41.7551 197.709 41.7589 197.74 41.7556H198.755C198.787 41.7604 198.82 41.7577 198.851 41.7478C198.881 41.7378 198.91 41.7209 198.933 41.6984C198.956 41.6758 198.974 41.6482 198.985 41.6177C198.996 41.5871 199 41.5545 198.996 41.5222V37.1651C199.03 36.8586 198.947 36.5507 198.763 36.3027Z" fill="black"/>
</g>
</g>
</g>
<defs>
<clipPath id="clip0_1379_9956">
<rect width="200" height="44.6219" fill="white"/>
</clipPath>
</defs>
</svg>
