<svg width="19" height="19" viewBox="0 0 19 19" fill="none" xmlns="http://www.w3.org/2000/svg">
<path fill-rule="evenodd" clip-rule="evenodd" d="M5.99418 17.9934C3.39711 18.0749 1.22329 16.0406 1.13259 13.4438V8.89301L1.12649 6.61882C0.969942 5.79492 1.38567 4.96847 2.14049 4.60301L7.07034 1.66217C8.65361 0.692038 10.6473 0.692038 12.2305 1.66217L17.1604 4.60667C17.9152 4.97212 18.3309 5.79858 18.1744 6.62248L18.1683 8.89788V13.4475C18.0756 16.0428 15.9024 18.0749 13.3067 17.9934H5.99418Z" stroke="#999999" stroke-linecap="round" stroke-linejoin="round"/>
<path d="M1.37732 6.18739C1.13892 6.04804 0.832685 6.12834 0.693334 6.36674C0.553982 6.60514 0.634279 6.91137 0.872682 7.05072L1.37732 6.18739ZM7.10906 10.1169L7.36573 9.68775L7.36138 9.6852L7.10906 10.1169ZM12.1876 10.1169L11.9353 9.68518L11.9309 9.68777L12.1876 10.1169ZM18.424 7.05072C18.6624 6.91137 18.7427 6.60514 18.6033 6.36674C18.464 6.12834 18.1577 6.04804 17.9193 6.18739L18.424 7.05072ZM11.9652 6.29122C12.2331 6.3582 12.5045 6.19532 12.5715 5.92742C12.6385 5.65952 12.4756 5.38806 12.2077 5.32108L11.9652 6.29122ZM9.64894 5.19678L9.77021 4.71171C9.69059 4.6918 9.60729 4.6918 9.52767 4.71171L9.64894 5.19678ZM7.09017 5.32108C6.82227 5.38806 6.65939 5.65952 6.72637 5.92742C6.79334 6.19532 7.06481 6.3582 7.33271 6.29122L7.09017 5.32108ZM0.872682 7.05072L6.85674 10.5485L7.36138 9.6852L1.37732 6.18739L0.872682 7.05072ZM6.85241 10.546C8.57412 11.5758 10.7225 11.5758 12.4442 10.546L11.9309 9.68777C10.5253 10.5285 8.77134 10.5285 7.36571 9.68777L6.85241 10.546ZM12.4399 10.5485L18.424 7.05072L17.9193 6.18739L11.9353 9.6852L12.4399 10.5485ZM12.2077 5.32108L9.77021 4.71171L9.52767 5.68185L11.9652 6.29122L12.2077 5.32108ZM9.52767 4.71171L7.09017 5.32108L7.33271 6.29122L9.77021 5.68185L9.52767 4.71171Z" fill="#999999"/>
</svg>
