<svg width="20" height="20" viewBox="5 5 20 20" fill="none" xmlns="http://www.w3.org/2000/svg">
<path d="M11.5972 11.9722H19.1528M11.5972 15.75H17.2639M21.0417 7.25C21.7931 7.25 22.5138 7.54851 23.0451 8.07986C23.5765 8.61122 23.875 9.33189 23.875 10.0833V17.6389C23.875 18.3903 23.5765 19.111 23.0451 19.6424C22.5138 20.1737 21.7931 20.4722 21.0417 20.4722H16.3194L11.5972 23.3056V20.4722H9.70833C8.95689 20.4722 8.23622 20.1737 7.70486 19.6424C7.17351 19.111 6.875 18.3903 6.875 17.6389V10.0833C6.875 9.33189 7.17351 8.61122 7.70486 8.07986C8.23622 7.54851 8.95689 7.25 9.70833 7.25H21.0417Z" stroke="#999999" stroke-linecap="round" stroke-linejoin="round"/>
</svg>
