<svg width="204" height="65" viewBox="0 0 204 65" fill="none" xmlns="http://www.w3.org/2000/svg">
<path d="M3.03409 53V18.0909H26.1477V24.1761H10.4148V32.4943H24.6136V38.5795H10.4148V53H3.03409ZM40.8835 53.5114C38.2358 53.5114 35.946 52.9489 34.0142 51.8239C32.0938 50.6875 30.6108 49.108 29.5653 47.0852C28.5199 45.0511 27.9972 42.6932 27.9972 40.0114C27.9972 37.3068 28.5199 34.9432 29.5653 32.9205C30.6108 30.8864 32.0938 29.3068 34.0142 28.1818C35.946 27.0455 38.2358 26.4773 40.8835 26.4773C43.5312 26.4773 45.8153 27.0455 47.7358 28.1818C49.6676 29.3068 51.1562 30.8864 52.2017 32.9205C53.2472 34.9432 53.7699 37.3068 53.7699 40.0114C53.7699 42.6932 53.2472 45.0511 52.2017 47.0852C51.1562 49.108 49.6676 50.6875 47.7358 51.8239C45.8153 52.9489 43.5312 53.5114 40.8835 53.5114ZM40.9176 47.8864C42.1222 47.8864 43.1278 47.5455 43.9347 46.8636C44.7415 46.1705 45.3494 45.2273 45.7585 44.0341C46.179 42.8409 46.3892 41.483 46.3892 39.9602C46.3892 38.4375 46.179 37.0795 45.7585 35.8864C45.3494 34.6932 44.7415 33.75 43.9347 33.0568C43.1278 32.3636 42.1222 32.017 40.9176 32.017C39.7017 32.017 38.679 32.3636 37.8494 33.0568C37.0313 33.75 36.4119 34.6932 35.9915 35.8864C35.5824 37.0795 35.3778 38.4375 35.3778 39.9602C35.3778 41.483 35.5824 42.8409 35.9915 44.0341C36.4119 45.2273 37.0313 46.1705 37.8494 46.8636C38.679 47.5455 39.7017 47.8864 40.9176 47.8864ZM58.4915 53V26.8182H65.5312V31.3864H65.804C66.2813 29.7614 67.0824 28.5341 68.2074 27.7045C69.3324 26.8636 70.6278 26.4432 72.0938 26.4432C72.4574 26.4432 72.8494 26.4659 73.2699 26.5114C73.6903 26.5568 74.0597 26.6193 74.3778 26.6989V33.142C74.0369 33.0398 73.5653 32.9489 72.9631 32.8693C72.3608 32.7898 71.8097 32.75 71.3097 32.75C70.2415 32.75 69.2869 32.983 68.446 33.4489C67.6165 33.9034 66.9574 34.5398 66.4688 35.358C65.9915 36.1761 65.7528 37.1193 65.7528 38.1875V53H58.4915ZM99.9162 34.2841L93.2685 34.6932C93.1548 34.125 92.9105 33.6136 92.5355 33.1591C92.1605 32.6932 91.6662 32.3239 91.0526 32.0511C90.4503 31.767 89.7287 31.625 88.8878 31.625C87.7628 31.625 86.8139 31.8636 86.0412 32.3409C85.2685 32.8068 84.8821 33.4318 84.8821 34.2159C84.8821 34.8409 85.1321 35.3693 85.6321 35.8011C86.1321 36.233 86.9901 36.5795 88.206 36.8409L92.9446 37.7955C95.4901 38.3182 97.3878 39.1591 98.6378 40.3182C99.8878 41.4773 100.513 43 100.513 44.8864C100.513 46.6023 100.007 48.108 98.9957 49.4034C97.9957 50.6989 96.6207 51.7102 94.8707 52.4375C93.1321 53.1534 91.1264 53.5114 88.8537 53.5114C85.3878 53.5114 82.6264 52.7898 80.5696 51.3466C78.5241 49.892 77.3253 47.9148 76.973 45.4148L84.1151 45.0398C84.331 46.0966 84.8537 46.9034 85.6832 47.4602C86.5128 48.0057 87.5753 48.2784 88.8707 48.2784C90.1435 48.2784 91.1662 48.0341 91.9389 47.5455C92.723 47.0455 93.1207 46.4034 93.1321 45.6193C93.1207 44.9602 92.8423 44.4205 92.2969 44C91.7514 43.5682 90.9105 43.2386 89.7741 43.0114L85.2401 42.108C82.6832 41.5966 80.7798 40.7102 79.5298 39.4489C78.2912 38.1875 77.6719 36.5795 77.6719 34.625C77.6719 32.9432 78.1264 31.4943 79.0355 30.2784C79.956 29.0625 81.2457 28.125 82.9048 27.4659C84.5753 26.8068 86.5298 26.4773 88.7685 26.4773C92.0753 26.4773 94.6776 27.1761 96.5753 28.5739C98.4844 29.9716 99.598 31.875 99.9162 34.2841ZM105.222 53V18.0909H118.994C121.642 18.0909 123.898 18.5966 125.761 19.608C127.625 20.608 129.045 22 130.023 23.7841C131.011 25.5568 131.506 27.6023 131.506 29.9205C131.506 32.2386 131.006 34.2841 130.006 36.0568C129.006 37.8295 127.557 39.2102 125.659 40.1989C123.773 41.1875 121.489 41.6818 118.807 41.6818H110.028V35.767H117.614C119.034 35.767 120.205 35.5227 121.125 35.0341C122.057 34.5341 122.75 33.8466 123.205 32.9716C123.67 32.0852 123.903 31.0682 123.903 29.9205C123.903 28.7614 123.67 27.75 123.205 26.8864C122.75 26.0114 122.057 25.3352 121.125 24.858C120.193 24.3693 119.011 24.125 117.58 24.125H112.602V53H105.222ZM143.425 18.0909V53H136.163V18.0909H143.425ZM166.031 41.8523V26.8182H173.293V53H166.321V48.2443H166.048C165.457 49.7784 164.474 51.0114 163.099 51.9432C161.736 52.875 160.071 53.3409 158.105 53.3409C156.355 53.3409 154.815 52.9432 153.486 52.1477C152.156 51.3523 151.116 50.2216 150.366 48.7557C149.628 47.2898 149.253 45.5341 149.241 43.4886V26.8182H156.503V42.1932C156.514 43.7386 156.929 44.9602 157.747 45.858C158.565 46.7557 159.662 47.2045 161.037 47.2045C161.912 47.2045 162.73 47.0057 163.491 46.608C164.253 46.1989 164.866 45.5966 165.332 44.8011C165.81 44.0057 166.043 43.0227 166.031 41.8523ZM200.885 34.2841L194.237 34.6932C194.124 34.125 193.879 33.6136 193.504 33.1591C193.129 32.6932 192.635 32.3239 192.021 32.0511C191.419 31.767 190.697 31.625 189.857 31.625C188.732 31.625 187.783 31.8636 187.01 32.3409C186.237 32.8068 185.851 33.4318 185.851 34.2159C185.851 34.8409 186.101 35.3693 186.601 35.8011C187.101 36.233 187.959 36.5795 189.175 36.8409L193.913 37.7955C196.459 38.3182 198.357 39.1591 199.607 40.3182C200.857 41.4773 201.482 43 201.482 44.8864C201.482 46.6023 200.976 48.108 199.964 49.4034C198.964 50.6989 197.589 51.7102 195.839 52.4375C194.101 53.1534 192.095 53.5114 189.822 53.5114C186.357 53.5114 183.595 52.7898 181.538 51.3466C179.493 49.892 178.294 47.9148 177.942 45.4148L185.084 45.0398C185.3 46.0966 185.822 46.9034 186.652 47.4602C187.482 48.0057 188.544 48.2784 189.839 48.2784C191.112 48.2784 192.135 48.0341 192.908 47.5455C193.692 47.0455 194.089 46.4034 194.101 45.6193C194.089 44.9602 193.811 44.4205 193.266 44C192.72 43.5682 191.879 43.2386 190.743 43.0114L186.209 42.108C183.652 41.5966 181.749 40.7102 180.499 39.4489C179.26 38.1875 178.641 36.5795 178.641 34.625C178.641 32.9432 179.095 31.4943 180.004 30.2784C180.925 29.0625 182.214 28.125 183.874 27.4659C185.544 26.8068 187.499 26.4773 189.737 26.4773C193.044 26.4773 195.646 27.1761 197.544 28.5739C199.453 29.9716 200.567 31.875 200.885 34.2841Z" fill="black"/>
<rect x="2" width="82" height="7" fill="#14FF00"/>
</svg>
