<svg id="Capa_1" xmlns="http://www.w3.org/2000/svg" viewBox="0 0 200 200"><style>.st0{fill:#fff}</style><path class="st0" d="M55.3 33.4c1.4 3.9 5 6.6 9.1 6.6h24.8c4.1 0 7.7-2.6 9.1-6.6 1.3-3.8 5.4-12.2 8.5-14.8 2.8-2.3 4.1-6 3.4-9.5-.7-3.4-3.1-6.2-6.4-7.3C93.8-1.5 84.9-.4 78.1 5c-1.2 1-2.9 1-4.1 0-6.8-5.4-15.7-6.5-25.7-3.2C45 3 42.6 5.7 41.9 9.1c-.7 3.5.6 7.1 3.4 9.5 3.6 3 9 12 10 14.8zm-6.8-23c.1-.6.5-1.7 2-2.2 3.1-1 6-1.5 8.7-1.5 4.1 0 7.7 1.2 10.7 3.6 3.7 2.9 8.8 2.9 12.4 0 5-4 11.5-4.7 19.4-2.1 1.4.5 1.9 1.6 2 2.2.2 1.2-.2 2.3-1.1 3.1-5.1 4.3-9.6 15.3-10.5 17.7-.4 1.2-1.6 2.1-2.8 2.1H64.4c-1.2 0-2.4-.8-2.8-2.1-1.4-4-7.6-14-12-17.7-.9-.8-1.4-1.9-1.1-3.1zm56.6 36.3c0-1.8-1.5-3.3-3.3-3.3-.6 0-1.2.2-1.7.5-.5-.3-1-.5-1.7-.5h-40c-1.8 0-3.3 1.5-3.3 3.3s1.5 3.3 3.3 3.3h40v3.3H61.8c-1.8 0-3.3 1.5-3.3 3.3s1.5 3.3 3.3 3.3h39.8c3 2.5 6.7 3.9 10.6 3.9 4.5 0 8.6-1.7 11.8-4.9 1.3-1.3 1.3-3.4 0-4.7s-3.4-1.3-4.7 0c-3.8 3.8-10.3 3.8-14.1 0v-7.5zm-33.3 40c-21.4 0-46.7 27.1-46.7 50 0 1.8 1.5 3.3 3.3 3.3s3.3-1.5 3.3-3.3c0-19 22.4-43.3 40-43.3 1.8 0 3.3-1.5 3.3-3.3.1-1.9-1.4-3.4-3.2-3.4z"/><path class="st0" d="M165.1 106.7c-3.4 0-7.5.2-11.7.7-4.5-8.2-10.4-15.3-17.9-21l-24-16.3c-4-3-10.2-6.7-17.5-6.7H68.2c-6.4 0-12.7 2.2-17.7 6.1L26.9 86.6C2.3 105.9-5.5 139.8 8.4 167.2c5 10 13.5 22 25 22.8.9.1 1.8.1 2.7.1H101c4.9 6.1 12.4 10 20.8 10 9.7 0 18.1-5.2 22.8-12.9 6 1.9 13.3 2.9 20.5 2.9 16 0 33.3-5.1 33.3-13.3v-18.3h-.3c.2-.5.3-1.1.3-1.7v-38.3c0-9.4-20.9-11.8-33.3-11.8zm26.4 11.6l-.2.2c-.1.1-.3.2-.5.3-.2.1-.5.3-.8.4-.2.1-.5.2-.8.4-.4.2-.8.3-1.2.5-.3.1-.7.3-1.1.4-.5.2-1 .3-1.6.5-.4.1-.9.3-1.4.4-.6.2-1.3.3-2.1.4-.5.1-1 .2-1.6.3-.8.1-1.7.3-2.6.4l-1.8.3c-1.1.1-2.2.2-3.4.3-.6 0-1.1.1-1.7.1-1.8.1-3.7.2-5.8.2-2.1 0-4-.1-5.8-.2-.6 0-1.1-.1-1.7-.1-1.2-.1-2.3-.2-3.4-.3l-1.8-.3c-.9-.1-1.8-.2-2.6-.4-.6-.1-1.1-.2-1.6-.3-.7-.1-1.4-.3-2.1-.4-.5-.1-.9-.2-1.4-.4-.6-.2-1.1-.3-1.6-.5-.4-.1-.7-.3-1.1-.4-.4-.2-.8-.3-1.2-.5-.3-.1-.5-.2-.8-.4-.3-.2-.6-.3-.8-.4-.2-.1-.3-.2-.5-.3l-.2-.2.1-.1c.1-.1.3-.2.5-.3.3-.2.6-.4 1-.6.2-.1.4-.2.7-.3.3-.1.6-.2.9-.4.4-.1.8-.3 1.2-.4l.9-.3c.7-.2 1.6-.5 2.5-.7.4-.1.9-.2 1.3-.3.5-.1 1.1-.2 1.7-.3.7-.1 1.3-.2 2.1-.3 3.8-.6 8.3-1 13.6-1 16 0 24.9 3.3 26.7 5zm-50.8 27.4c.3.1.6.2.9.4.6.2 1.2.4 1.8.7.3.1.6.2 1 .3.7.2 1.4.4 2.2.6.3.1.5.1.8.2 1 .3 2 .5 3.1.7.2 0 .4.1.7.1.9.2 1.7.3 2.6.4.4.1.8.1 1.1.2.8.1 1.5.2 2.3.3.4 0 .8.1 1.2.1.8.1 1.6.1 2.4.2.4 0 .7 0 1.1.1 1.1.1 2.3.1 3.4.1s2.3 0 3.4-.1c.4 0 .7 0 1.1-.1.8 0 1.6-.1 2.3-.2.4 0 .8-.1 1.2-.1.8-.1 1.5-.2 2.2-.3.4-.1.8-.1 1.2-.2.9-.1 1.7-.3 2.5-.4.2 0 .5-.1.7-.1 1.1-.2 2.1-.4 3.1-.7.3-.1.5-.1.8-.2l2.1-.6c.3-.1.7-.2 1-.3l1.8-.6c.3-.1.6-.2.9-.4.6-.3 1.2-.5 1.7-.8.2-.1.4-.2.5-.2v11.7c-.8 1.9-9.4 6.1-23 6.8-1.2 0-2.4.1-3.7.1-7.3 0-14.6-1.1-20.1-3.1 0 0 0-.1-.1-.1-.4-.7-.8-1.4-1.3-2-.1-.1-.1-.2-.2-.3-.4-.6-.8-1.2-1.3-1.7-.1-.2-.3-.3-.4-.5-.4-.5-.8-.9-1.3-1.4-.2-.2-.5-.4-.7-.6-.4-.4-.8-.7-1.2-1l-.1-.1v-7.8c.2.1.4.2.5.3.6.1 1.2.4 1.8.6zm-44 37.6H36.1c-.8 0-1.5 0-2.3-.1-6.6-.4-13.5-7.2-19.5-19.1-12.4-24.5-5.4-54.9 16.6-72.2l23.6-17.2c3.9-3 8.7-4.7 13.6-4.7H94c5.4 0 10.3 2.9 13.6 5.4l24 16.3c6 4.6 10.9 10.2 14.8 16.7-4.2.9-8.3 2.2-11.1 4.1-.1.1-.2.1-.2.2-.4.3-.8.6-1.2 1l-.4.4c-.3.3-.5.6-.7.9-.2.3-.3.5-.4.8-.1.2-.3.5-.3.7-.2.6-.3 1.2-.3 1.8v30.3c-1.1-.5-2.3-.8-3.5-1.1-.2 0-.3-.1-.5-.1-1.2-.3-2.4-.5-3.6-.6h-.4c-.7-.1-1.4-.1-2.1-.1-.4 0-.7 0-1.1.1h-.9c-1.2.1-2.4.2-3.5.5h-.1c-.1 0-.2.1-.3.1-1 .2-2.1.5-3.1.9-.4.1-.7.3-1.1.4-1 .4-2 .8-2.9 1.3-.4.2-.7.4-1 .6-.7.4-1.3.8-1.9 1.3-.4.3-.7.5-1.1.8-.8.6-1.5 1.3-2.2 2-.3.3-.6.6-.9 1-.5.6-1 1.1-1.4 1.7-.2.3-.5.6-.7 1-.6.9-1.1 1.8-1.6 2.7-.2.4-.4.7-.5 1.1-.4.8-.7 1.7-1 2.5-.1.3-.2.5-.3.7-.3 1.1-.6 2.2-.8 3.4 0 .1-.1.3-.1.4v.6c-.1.8-.2 1.6-.2 2.4v1.3c0 .5.1 1 .1 1.6.2 2.7.7 5.6 1.6 8.2zm25.1 10c-11 0-19.9-8.8-20-19.8v-.8c0-.4 0-.7.1-1.1 0-.3.1-.6.1-.9 0-.3.1-.6.1-.9.2-.9.3-1.7.6-2.6 0-.1.1-.2.1-.3.3-.8.6-1.7 1-2.4 0-.1.1-.2.1-.2 1.8-3.5 4.6-6.5 8.1-8.5l2.4-1.2c.2-.1.4-.2.7-.2.7-.3 1.5-.5 2.3-.7.1 0 .2-.1.3-.1 1-.2 1.9-.3 2.9-.4h.6c1 0 2 0 2.9.1h.2c1 .1 2 .3 3 .6s2 .7 3 1.1c.9.4 1.8.9 2.6 1.5l.1.1.3.3c.6.4 1.1.8 1.6 1.3.1.1.2.2.4.3l1.5 1.5c0 .1.1.1.1.2 1.1 1.2 2 2.6 2.7 4.1.2.3.3.7.5 1 .3.6.5 1.2.7 1.8v.1c.2.6.4 1.2.5 1.8v.1c.1.6.2 1.2.3 1.9v.2c.1.7.1 1.4.1 2.1 0 .7 0 1.4-.1 2.1v.3l-.3 1.8c0 .1 0 .1-.1.2-.1.6-.3 1.3-.5 1.9v.1c-.2.6-.5 1.3-.8 1.9-3.1 6.9-10 11.7-18.1 11.7zm43.3-10c-6.3 0-12.6-.8-17.8-2.4.3-1.1.6-2.2.7-3.3 0-.3.1-.5.1-.8.1-1.1.3-2.3.3-3.5 0-.9 0-1.7-.1-2.6 0-.3-.1-.6-.1-.9-.1-.4-.1-.9-.2-1.3 5.1.9 10.9 1.4 17.1 1.4 8 0 19.5-1 26.7-4.2v10.6c-.8 2.2-11 7-26.7 7zm0-40c-15.7 0-25.8-4.8-26.7-6.6v-10.9c.1 0 .2.1.3.1.8.3 1.6.7 2.5 1h.1c.9.3 1.9.6 2.8.8.3.1.7.2 1 .2.7.2 1.4.3 2.2.5.4.1.7.1 1.1.2.8.1 1.6.3 2.4.4.3 0 .5.1.8.1 1.1.1 2.2.3 3.2.4.3 0 .5 0 .8.1.8.1 1.6.1 2.4.2.4 0 .7 0 1 .1.7 0 1.5.1 2.2.1h7.4c.7 0 1.4-.1 2.2-.1.4 0 .7 0 1-.1.8-.1 1.6-.1 2.4-.2.3 0 .5 0 .8-.1 1.1-.1 2.2-.2 3.2-.4.3 0 .5-.1.8-.1.8-.1 1.6-.2 2.4-.4.4-.1.7-.1 1.1-.2.7-.1 1.5-.3 2.2-.5.3-.1.7-.1 1-.2 1-.3 2-.5 2.9-.8h.1c.9-.3 1.7-.6 2.5-.9.1 0 .2-.1.3-.1v10.6c-.5 2-10.7 6.8-26.4 6.8z"/></svg>