<svg width="10" height="13" viewBox="0 0 10 13" fill="none" xmlns="http://www.w3.org/2000/svg">
<g id="Vector">
<path id="Vector-14" d="M4.92858 0.5C4.65244 0.499994 4.42858 0.723847 4.42857 0.999989C4.42857 1.27613 4.65242 1.49999 4.92856 1.5L4.92858 0.5ZM6.43164 1.29543L6.62103 0.832686L6.62087 0.832619L6.43164 1.29543ZM8.19479 2.72857L7.7805 3.00851L7.78081 3.00897L8.19479 2.72857ZM8.85714 4.88143H9.35714L9.35714 4.88063L8.85714 4.88143ZM7.70607 7.62593L7.30248 7.33077C7.2964 7.33908 7.29058 7.34758 7.28503 7.35625L7.70607 7.62593ZM6.56521 9.40714L6.14416 9.13746L6.1424 9.14026L6.56521 9.40714ZM4.92857 12L4.50601 12.2673C4.5977 12.4122 4.75729 12.5001 4.92881 12.5C5.10033 12.4999 5.25983 12.4119 5.35139 12.2669L4.92857 12ZM3.29193 9.41264L3.71449 9.14535L3.71319 9.1433L3.29193 9.41264ZM2.15107 7.62829L2.57233 7.35895C2.5668 7.3503 2.561 7.34182 2.55495 7.33353L2.15107 7.62829ZM1 4.88379L0.5 4.88329V4.88379H1ZM1.66236 2.72857L2.07634 3.00897L2.07636 3.00893L1.66236 2.72857ZM3.4255 1.29779L3.61461 1.76064L3.61545 1.7603L3.4255 1.29779ZM4.92931 1.5C5.20545 1.49959 5.42898 1.27541 5.42857 0.999264C5.42816 0.723122 5.20398 0.499594 4.92784 0.500001L4.92931 1.5ZM4.92871 5.67548C4.65257 5.67548 4.42871 5.89933 4.42871 6.17548C4.42871 6.45162 4.65257 6.67548 4.92871 6.67548V5.67548ZM4.92871 3.08733C4.65257 3.08733 4.42871 3.31119 4.42871 3.58733C4.42871 3.86347 4.65257 4.08733 4.92871 4.08733V3.08733ZM4.94109 6.68011C5.21715 6.67331 5.43543 6.444 5.42862 6.16794C5.42182 5.89189 5.19251 5.67361 4.91645 5.68042L4.94109 6.68011ZM3.78154 5.5428L4.21249 5.28926L3.78154 5.5428ZM3.78154 4.23037L3.3506 3.97682L3.78154 4.23037ZM4.91645 4.09275C5.19251 4.09956 5.42182 3.88128 5.42862 3.60523C5.43543 3.32917 5.21715 3.09986 4.94109 3.09306L4.91645 4.09275ZM4.92856 1.5C5.37912 1.50001 5.82537 1.58772 6.24241 1.75824L6.62087 0.832619C6.0837 0.612986 5.50892 0.500012 4.92858 0.5L4.92856 1.5ZM6.24225 1.75817C6.8672 2.01395 7.40243 2.44901 7.7805 3.00851L8.60907 2.44863C8.12046 1.72553 7.42871 1.16325 6.62103 0.832686L6.24225 1.75817ZM7.78081 3.00897C8.15537 3.56197 8.35607 4.21432 8.35714 4.88223L9.35714 4.88063C9.35575 4.01333 9.09513 3.16626 8.60876 2.44818L7.78081 3.00897ZM8.35714 4.88143C8.35714 5.33397 8.28689 5.66853 8.13334 6.01471C7.97238 6.37759 7.71376 6.7684 7.30248 7.33077L8.10966 7.92109C8.52181 7.35753 8.83873 6.89073 9.04745 6.42017C9.26358 5.9329 9.35714 5.45818 9.35714 4.88143H8.35714ZM7.28503 7.35625L6.14417 9.13747L6.98626 9.67682L8.12711 7.8956L7.28503 7.35625ZM6.1424 9.14026L4.50576 11.7331L5.35139 12.2669L6.98803 9.67403L6.1424 9.14026ZM5.35113 11.7327L3.71449 9.14535L2.86937 9.67993L4.50601 12.2673L5.35113 11.7327ZM3.71319 9.1433L2.57233 7.35895L1.72981 7.89762L2.87067 9.68198L3.71319 9.1433ZM2.55495 7.33353C2.14345 6.76967 1.88477 6.37882 1.72375 6.01606C1.57023 5.67019 1.5 5.33626 1.5 4.88379H0.5C0.5 5.4606 0.59359 5.93478 0.809747 6.42176C1.01841 6.89185 1.33527 7.35861 1.74719 7.92304L2.55495 7.33353ZM1.5 4.88428C1.50066 4.21567 1.70139 3.56255 2.07634 3.00897L1.24838 2.44818C0.761501 3.16701 0.500863 4.01509 0.5 4.88329L1.5 4.88428ZM2.07636 3.00893C2.45473 2.45019 2.98994 2.01587 3.61461 1.76064L3.23639 0.834928C2.42906 1.16478 1.73736 1.7261 1.24835 2.44822L2.07636 3.00893ZM3.61545 1.7603C4.03236 1.58907 4.47861 1.50066 4.92931 1.5L4.92784 0.500001C4.34732 0.500855 3.77253 0.614732 3.23555 0.835274L3.61545 1.7603ZM4.92871 6.67548C5.56967 6.67548 6.16194 6.33353 6.48242 5.77844L5.6164 5.27844C5.47455 5.52413 5.21241 5.67548 4.92871 5.67548V6.67548ZM6.48242 5.77844C6.8029 5.22335 6.8029 4.53946 6.48242 3.98437L5.6164 4.48437C5.75824 4.73005 5.75824 5.03275 5.6164 5.27844L6.48242 5.77844ZM6.48242 3.98437C6.16194 3.42928 5.56967 3.08733 4.92871 3.08733V4.08733C5.21241 4.08733 5.47455 4.23868 5.6164 4.48437L6.48242 3.98437ZM4.91645 5.68042C4.62818 5.68752 4.35871 5.53779 4.21249 5.28926L3.3506 5.79635C3.68097 6.35787 4.28979 6.69616 4.94109 6.68011L4.91645 5.68042ZM4.21249 5.28926C4.06626 5.04072 4.06626 4.73245 4.21249 4.48391L3.3506 3.97682C3.02022 4.53834 3.02022 5.23483 3.3506 5.79635L4.21249 5.28926ZM4.21249 4.48391C4.35871 4.23538 4.62818 4.08565 4.91645 4.09275L4.94109 3.09306C4.28979 3.07701 3.68097 3.4153 3.3506 3.97682L4.21249 4.48391Z" fill="#FFD71C"/>
</g>
</svg>
