<svg width="32" height="32" viewBox="0 0 32 32" fill="none" xmlns="http://www.w3.org/2000/svg">
<path d="M11.2109 22C17.2861 22 22.2109 17.0751 22.2109 11C22.2109 4.92487 17.2861 0 11.2109 0C5.13581 0 0.210938 4.92487 0.210938 11C0.210938 17.0751 5.13581 22 11.2109 22Z" fill="#FFD71C"/>
<path d="M29.4345 24.7977C29.3371 24.5054 29.3371 24.6028 29.1422 24.4079C28.6549 24.0181 28.6549 24.3105 28.6549 23.6283C28.6549 22.9461 28.5575 22.9461 29.0447 22.4588C29.2396 22.2639 29.3371 21.9716 29.2396 21.5817C29.0447 20.4123 28.46 20.2174 27.5829 20.5097C27.2905 20.3148 26.9982 20.0225 26.7058 19.7301C26.5109 19.3403 26.7058 19.0479 26.5109 18.7556C26.316 18.2683 25.8287 18.1708 25.3415 17.9759C24.9516 17.781 24.4644 17.8785 24.0746 18.2683L19.2993 12.9083C19.7866 12.5185 19.884 11.9338 19.5917 11.2516C19.3967 10.6668 19.2993 10.4719 18.6171 10.4719C18.0324 10.4719 18.2273 10.5694 17.8375 10.1796C17.5451 9.88721 17.3502 9.59485 17.1553 9.20503C16.9604 8.81521 17.0578 8.91267 17.1553 8.52285C17.2528 8.13303 17.3502 8.23049 17.2528 7.93813C17.1553 7.64576 16.3757 7.06104 16.0833 6.96358C15.4986 6.76867 14.8164 6.96358 14.4266 7.54831C14.1342 7.54831 13.6469 7.3534 13.1597 7.15849C12.8673 6.96358 12.9648 6.57376 12.5749 6.2814C12.0877 5.98904 11.2106 6.2814 10.7233 6.47631C10.236 6.57376 9.94367 6.96358 9.74877 7.45085C9.74877 7.54831 9.74877 7.64576 9.74877 7.74322C9.65131 8.4254 9.74877 8.13303 9.35895 8.4254C9.26149 8.62031 9.06659 8.81521 8.87168 9.01012C8.28695 8.52285 7.40986 8.62031 7.02004 9.20503C6.63023 9.59485 6.33786 10.0821 6.24041 10.6668C6.24041 11.1541 6.63023 11.1541 6.92259 11.6414C7.1175 12.0312 6.92259 12.421 6.82514 12.8108C6.82514 13.0058 6.82514 13.2007 6.72768 13.3956C6.43532 13.5905 6.14296 13.5905 5.94805 13.8828C5.46078 14.6625 5.65568 15.5396 6.24041 16.1243C6.63023 16.3192 7.02004 16.0268 7.40986 16.2217C7.60477 16.4167 7.79968 16.709 7.89713 17.0014C8.09204 17.1963 8.48186 17.5861 8.48186 17.8785C8.48186 18.1708 8.09204 18.3657 8.1895 18.853C8.28695 19.3403 9.06659 19.6326 9.35895 19.8276C9.55386 19.925 9.84622 19.925 10.0411 20.0225C10.4309 20.2174 10.8208 20.5097 11.2106 20.8021L13.452 22.3614C14.9138 23.3359 16.4731 24.3105 17.9349 25.4799C17.6426 25.7723 17.5451 26.0646 17.74 26.6494C18.1298 27.6239 18.5197 27.7214 19.2993 27.429C19.5917 27.6239 19.884 27.9163 20.1764 28.2086C20.4687 28.5984 20.1764 28.6959 20.2738 29.1832C20.3713 29.8654 21.1509 29.9628 21.6382 30.1577H21.7356C22.2229 30.0603 22.6127 29.8654 22.9051 29.573C23.0026 29.573 23.1 29.2806 23.0026 29.3781C23.2949 29.2806 23.5873 29.2806 23.7822 29.3781C24.2695 29.4755 24.2695 29.8654 24.6593 30.0603C25.1466 30.2552 26.0236 29.6704 26.4135 29.4755C26.9982 29.0857 26.9982 28.6959 26.8033 28.0137L27.4855 27.2341C28.0702 27.429 28.6549 27.2341 29.0447 26.6494C29.3371 25.8697 29.4345 25.285 29.4345 24.7977ZM27.8753 26.1621C27.5829 26.1621 27.388 26.2595 27.1931 26.4545L26.0236 27.7214C25.9262 27.8188 25.8287 27.9163 25.9262 28.0137C26.4135 28.9883 25.244 29.1832 24.8542 28.4035L24.7567 28.3061C24.0746 28.2086 23.3924 28.3061 22.8076 28.4035C22.8076 28.4035 22.1255 28.9883 22.1255 29.0857C21.7357 28.9883 21.0535 28.7934 20.956 28.3061C20.956 28.1112 21.1509 27.8188 21.1509 27.6239C21.0535 27.1366 20.1764 26.6494 19.884 26.357C19.7866 26.2595 19.5917 26.357 19.4942 26.357C18.812 26.6494 17.9349 25.285 18.4222 24.9926C18.5197 24.8952 18.812 24.7003 18.7146 24.5054C17.0578 23.141 15.1088 21.9715 13.3546 20.8021C12.5749 20.1199 11.6979 19.5352 10.7233 18.9505C9.84622 18.5606 8.38441 18.4632 9.26149 17.0988C9.26149 17.0988 9.35895 17.0014 9.26149 16.9039C8.77422 16.4167 8.28695 15.3447 7.70222 15.1497C7.1175 14.9548 6.72768 15.2472 6.63023 14.4676C6.43532 13.6879 6.63023 13.6879 7.1175 13.3956C7.60477 13.1032 7.60477 12.1287 7.70222 11.5439C7.79968 10.9592 7.70222 11.1541 7.50732 10.6668C7.31241 10.3745 7.02004 9.59485 7.40986 9.30249C7.79968 9.01012 7.89713 9.30249 8.28695 9.49739C8.48186 9.6923 8.87168 9.39994 8.96913 9.30249C9.4564 8.81521 10.3335 8.52285 10.7233 7.93813C10.8208 7.84067 10.7233 7.74322 10.7233 7.64576C10.8208 6.86613 11.2106 6.67122 11.9902 6.96358C12.0877 7.15849 12.1851 7.3534 12.1851 7.64576C12.1851 7.74322 12.1851 7.74322 12.2826 7.74322L14.4266 8.03558C14.7189 8.03558 14.9138 7.93813 15.1088 7.64576C15.4011 7.15849 15.596 7.3534 16.0833 7.54831C16.7655 7.93812 16.8629 8.23049 16.3757 9.01012C16.3757 9.01012 16.2782 9.10758 16.3757 9.20503C16.8629 9.6923 17.1553 10.5694 17.6426 10.9592C18.0324 11.1541 18.2273 10.5694 18.812 11.0567C18.9095 11.1541 19.3967 12.5185 19.0069 12.6159C18.9095 12.6159 18.3247 12.9083 18.5197 13.1032C20.2738 15.0523 22.028 17.0014 23.7822 19.0479C23.9771 19.2428 24.4644 18.853 24.5618 18.6581C24.6593 18.4632 25.4389 18.6581 25.5364 18.7556C25.7313 18.9505 25.7313 19.2428 25.7313 19.5352C25.7313 19.6326 25.7313 19.7301 25.7313 19.8276C26.0236 20.3148 26.7058 20.7046 26.9982 20.997C27.0956 21.0945 27.2905 20.997 27.388 20.997C28.2651 20.6072 28.6549 21.9716 28.2651 22.4588C27.8753 22.9461 27.8753 22.6537 27.7778 23.141C27.6804 23.6283 27.7778 24.1155 27.8753 24.6028C27.9727 24.7977 28.2651 24.7003 28.46 24.8952C28.8498 25.4799 28.5575 26.357 27.8753 26.1621Z" fill="black"/>
<path d="M17.7376 11.3495C17.4453 11.447 17.1529 11.5444 16.8605 11.3495C16.6656 11.1546 16.5682 10.8622 16.4707 10.6673C16.2758 10.4724 16.0809 10.2775 15.886 9.98515C15.6911 9.79024 15.7886 9.40042 15.9835 9.01061C15.9835 8.91315 16.0809 8.8157 15.9835 8.8157L15.3987 8.42588C15.2038 8.32843 14.814 8.62079 14.7166 8.71824C14.6191 8.91315 14.6191 8.91315 14.5216 9.10806C14.5216 9.10806 14.4242 9.01061 14.3267 9.01061C14.0344 8.91315 13.742 8.8157 13.5471 8.8157C13.3522 8.8157 12.9624 8.8157 12.7675 8.71824C12.5726 8.62079 12.4751 8.23097 12.4751 7.93861C12.4751 7.64625 12.2802 7.93861 12.1827 8.03606L11.5006 8.23097C11.3057 8.23097 10.8184 8.52333 10.9158 8.71824C11.0133 8.91315 11.1107 9.30297 11.0133 9.40042C10.9158 9.59533 10.526 9.69279 10.3311 9.79024C10.1362 9.8877 9.84384 10.1801 9.74638 10.2775C9.64893 10.375 9.25911 10.0826 9.0642 9.98515C8.86929 9.8877 8.47948 10.1801 8.38202 10.2775L7.9922 10.9597C7.9922 11.0571 7.89475 11.1546 7.9922 11.1546C8.08966 11.1546 8.47948 11.3495 8.57693 11.6419C8.67438 11.8368 8.47947 12.1291 8.47947 12.4215C8.38202 12.7139 8.38202 12.9088 8.38202 13.2011C8.38202 13.2986 8.38202 13.3961 8.38202 13.591C8.57693 13.6884 8.57693 13.6884 8.38202 13.6884L8.08966 13.7859C7.89475 13.7859 7.40748 14.0782 7.50493 14.2731L7.69984 14.9553H7.79729H7.89475C7.9922 14.9553 7.9922 14.9553 8.08966 14.9553C8.28457 14.8579 8.57693 14.8579 8.77184 15.0528C8.96675 15.2477 9.0642 15.54 9.16165 15.735C9.35656 15.9299 9.45402 16.1248 9.64893 16.3197C9.94129 16.7095 9.84384 16.9044 9.55147 17.2942C9.55147 17.3917 9.45402 17.4891 9.55147 17.4891L10.2337 17.879C10.4286 17.9764 10.8184 17.684 10.9158 17.5866C11.0133 17.4891 11.0133 17.2942 11.1107 17.1968C10.9158 17.2942 11.3057 17.3917 11.3057 17.3917C11.598 17.4891 11.8904 17.4891 12.0853 17.5866C12.2802 17.5866 12.67 17.4891 12.8649 17.684C13.0598 17.7815 13.0598 18.2688 13.1573 18.4637C13.1573 18.5611 13.3522 18.4637 13.3522 18.4637L14.0344 18.2688C14.2293 18.2688 14.7166 17.9764 14.6191 17.7815C14.6191 17.5866 14.4242 17.1968 14.5216 17.0993C14.6191 16.9044 15.0089 16.807 15.2038 16.7095C15.3987 16.612 15.5936 16.3197 15.7886 16.2222C15.9835 16.1248 16.1784 16.3197 16.3733 16.5146C16.5682 16.612 16.958 16.3197 17.0555 16.2222L17.4453 15.54C17.4453 15.4426 17.5427 15.3451 17.4453 15.3451C17.3478 15.2477 16.8605 15.0528 16.8605 14.8579C16.7631 14.5655 16.958 14.3706 17.0555 14.0782C17.1529 13.8833 17.1529 13.591 17.1529 13.3961V13.2011C17.2504 13.1037 17.1529 13.0062 17.0555 13.0062C16.958 13.0062 16.958 13.0062 17.0555 12.9088L17.3478 12.8113C17.5427 12.8113 18.03 12.519 17.9325 12.3241L17.7376 11.3495C17.9325 11.3495 17.8351 11.3495 17.7376 11.3495ZM16.4707 13.3961C16.4707 13.8833 16.2758 14.3706 16.1784 14.8579C16.1784 15.1502 16.2758 15.3451 16.4707 15.4426C16.3733 15.4426 16.2758 15.4426 16.1784 15.4426C15.7886 15.6375 15.3987 15.9299 15.1064 16.2222C14.7166 16.4171 14.3267 16.7095 14.0344 16.9044C13.9369 17.0019 13.8395 17.0993 13.8395 17.2942C13.742 17.0993 13.6446 17.0019 13.4496 17.0019C13.2547 17.0019 13.0598 16.9044 12.8649 17.0019C12.5726 17.0019 12.2802 16.9044 11.8904 16.807C11.4031 16.612 10.8184 16.807 10.526 17.1968L10.3311 17.0993C10.526 16.9044 10.6235 16.612 10.6235 16.3197C10.526 15.9299 10.1362 15.6375 9.84384 15.3451C9.64893 15.0528 9.55147 14.663 9.25911 14.4681C8.96675 14.3706 8.67438 14.3706 8.38202 14.4681V14.1757C8.57693 14.0782 8.67438 14.0782 8.77184 13.9808C9.0642 13.7859 9.16165 13.3961 9.16165 13.0062C9.16165 12.7139 9.16166 12.519 9.25911 12.2266C9.35656 12.0317 9.35656 11.7393 9.45402 11.5444C9.45402 11.3495 9.35656 11.0571 9.16165 10.9597C9.25911 10.9597 9.35656 10.9597 9.45402 10.9597C9.94129 10.8622 10.1362 10.4724 10.526 10.1801C10.9158 9.98515 11.3057 9.69279 11.598 9.49788C11.6955 9.40042 11.6955 9.30297 11.7929 9.20551C11.8904 9.30297 11.9878 9.40042 12.0853 9.49788C12.2802 9.59533 12.3776 9.59533 12.5726 9.59533C12.8649 9.59533 13.1573 9.59533 13.5471 9.69279C13.8395 9.8877 14.2293 9.8877 14.6191 9.79024C14.7166 9.59533 14.9115 9.40042 15.1064 9.30297L15.3013 9.40042C15.1064 9.59533 15.0089 9.8877 15.0089 10.1801C15.1064 10.5699 15.5936 10.8622 15.7886 11.1546C15.9835 11.447 16.0809 11.8368 16.3733 12.0317C16.6656 12.1291 16.958 12.1291 17.2504 12.0317L17.3478 12.3241C16.7631 12.519 16.4707 12.9088 16.4707 13.3961Z" fill="black"/>
<path d="M27.2842 24.5053C27.1867 24.3104 27.2842 24.0181 27.2842 23.8231C27.2842 23.6282 27.2842 23.3359 27.2842 23.141C27.2842 23.0435 27.1867 22.8486 27.1867 22.7511L27.4791 22.6537C27.5765 22.5562 27.9663 22.3613 27.8689 22.1664C27.7714 21.9715 27.674 21.8741 27.674 21.6792C27.5765 21.4842 27.3816 21.6792 27.2842 21.6792C27.1867 21.6792 26.9918 21.8741 26.8943 21.7766C26.7969 21.7766 26.6994 21.5817 26.6994 21.4842C26.5045 21.2893 26.4071 21.0944 26.2122 20.997C26.0173 20.8995 25.9198 20.8021 25.7249 20.7046C25.4325 20.5097 25.6274 20.2173 25.7249 19.925C25.7249 19.925 25.7249 19.8275 25.7249 19.7301L25.2376 19.5352C24.9453 19.5352 24.6529 19.6326 24.458 19.925C24.458 20.0224 24.3605 20.1199 24.3605 20.1199H24.1656C23.9707 20.1199 23.6784 20.1199 23.4834 20.1199C23.2885 20.1199 22.8987 20.3148 22.8013 20.2173C22.6064 20.1199 22.5089 19.8275 22.4114 19.6326C22.314 19.4377 22.1191 19.6326 22.0216 19.6326L21.5344 19.8275C21.4369 19.925 21.0471 20.1199 21.1445 20.3148C21.242 20.5097 21.4369 20.8021 21.3394 20.997C21.242 21.1919 20.9496 21.2893 20.8522 21.4842C20.7547 21.5817 20.5598 21.7766 20.4624 21.9715C20.3649 21.9715 20.2675 21.8741 20.0725 21.8741C19.7802 21.8741 19.4878 21.9715 19.2929 22.2639C19.1955 22.4588 19.1955 22.6537 19.098 22.7511C19.0005 22.9461 19.098 22.8486 19.098 22.9461C19.098 22.9461 19.5853 23.0435 19.6827 23.2384C19.7802 23.4333 19.6827 23.7257 19.6827 23.9206C19.6827 24.1155 19.6827 24.4079 19.7802 24.6028C19.7802 24.7002 19.8776 24.7977 19.8776 24.8951L19.5853 24.9926C19.4878 25.0901 19.098 25.285 19.1955 25.4799C19.2929 25.6748 19.3904 25.7722 19.3904 25.9671C19.3904 26.1621 19.6827 25.9671 19.7802 25.9671C19.8776 25.9671 20.0725 25.7722 20.17 25.8697C20.2675 25.9671 20.3649 26.0646 20.3649 26.1621C20.4624 26.357 20.6573 26.5519 20.8522 26.6493C20.9496 26.7468 21.1445 26.8442 21.3394 26.9417C21.5344 27.0391 21.4369 27.429 21.3394 27.7213C21.3394 27.7213 21.3394 27.8188 21.3394 27.9162L21.8267 28.1111C22.1191 28.1111 22.4114 28.0137 22.6064 27.7213L22.7038 27.5264C22.8987 27.5264 23.1911 27.5264 23.386 27.5264C23.5809 27.429 23.8733 27.429 24.0682 27.429C24.2631 27.429 24.3605 27.8188 24.458 28.0137C24.5554 28.2086 24.7504 28.0137 24.8478 28.0137L25.2376 27.8188C25.3351 27.7213 25.53 27.7213 25.6274 27.6239L25.7249 27.5264V27.429C25.6274 27.2341 25.4325 26.9417 25.53 26.8442C25.6274 26.6493 25.9198 26.4544 26.0173 26.357C26.2122 26.1621 26.3096 26.0646 26.4071 25.8697C26.602 25.8697 26.6994 25.8697 26.8943 25.8697C27.1867 25.8697 27.4791 25.7722 27.674 25.4799L27.8689 24.9926C27.8689 24.8951 27.8689 24.8951 27.8689 24.7977C27.7714 24.7002 27.3816 24.6028 27.2842 24.5053ZM25.7249 25.9671C25.53 26.2595 25.0427 26.4544 24.8478 26.7468C24.8478 26.7468 24.8478 26.7468 24.8478 26.8442C24.7504 26.8442 24.7504 26.8442 24.6529 26.7468C24.458 26.7468 24.2631 26.7468 24.0682 26.8442C23.7758 26.8442 23.4834 26.8442 23.1911 26.8442C22.8987 26.7468 22.5089 26.8442 22.2165 27.0391C22.1191 27.1366 22.0216 27.1366 22.0216 27.234C22.1191 27.0391 22.1191 26.8442 22.0216 26.6493C21.9242 26.5519 21.8267 26.4544 21.6318 26.357C21.4369 26.2595 21.242 26.0646 21.1445 25.9671C20.9496 25.7722 20.7547 25.3824 20.4624 25.3824C20.2675 25.3824 19.9751 25.3824 19.7802 25.4799L19.6827 25.285C19.8776 25.1875 20.0725 25.0901 20.17 24.9926C20.3649 24.7002 20.2675 24.4079 20.2675 24.0181C20.2675 23.8231 20.2675 23.6282 20.2675 23.4333C20.2675 23.2384 20.3649 23.0435 20.2675 22.8486C20.2675 22.6537 20.0725 22.5562 19.9751 22.4588H20.0725C20.4624 22.2639 20.6573 21.9715 20.8522 21.6792C21.0471 21.3868 21.4369 21.1919 21.7293 20.8021V20.7046C21.8267 20.7046 21.8267 20.8021 21.9242 20.8021C22.1191 20.8021 22.2165 20.8021 22.4114 20.7046C22.7038 20.7046 22.8987 20.7046 23.1911 20.7046C23.5809 20.8021 23.8733 20.7046 24.2631 20.6072C24.3605 20.5097 24.458 20.5097 24.5554 20.4122C24.458 20.6072 24.458 20.8021 24.5554 21.0944C24.6529 21.1919 24.7504 21.2893 24.9453 21.3868C25.1402 21.4842 25.3351 21.6792 25.4325 21.7766C25.6274 21.9715 25.8223 22.3613 26.1147 22.3613C26.3096 22.3613 26.602 22.3613 26.7969 22.2639L26.8943 22.4588C26.6994 22.5562 26.602 22.6537 26.5045 22.7511C26.3096 23.0435 26.4071 23.4333 26.4071 23.7257C26.4071 23.9206 26.4071 24.1155 26.4071 24.4079C26.4071 24.6028 26.4071 24.7002 26.4071 24.8951C26.4071 24.9926 26.5045 25.1875 26.6994 25.1875H26.602C26.2122 25.285 26.0173 25.6748 25.7249 25.9671Z" fill="black"/>
<path d="M13.5431 11.3492C12.666 11.0569 11.6915 11.3492 11.1067 12.0314C10.4246 12.9085 10.4246 14.1754 11.3017 14.8576C11.7889 15.2474 12.4711 15.4423 13.0558 15.3448C14.1278 15.1499 14.9075 14.2728 14.9075 13.2983C14.9075 12.4212 14.3227 11.6416 13.5431 11.3492ZM13.9329 13.6881L13.8355 13.883C13.8355 13.9805 13.738 13.9805 13.738 14.0779C13.738 14.0779 13.738 14.1754 13.6406 14.1754C13.6406 14.2728 13.5431 14.2728 13.4457 14.2728L13.3482 14.3703H13.2507H13.1533C12.9584 14.4678 12.666 14.4678 12.4711 14.3703C12.3737 14.3703 12.2762 14.2728 12.0813 14.1754C11.9838 14.0779 11.8864 13.9805 11.7889 13.883C11.594 13.6881 11.4966 13.3958 11.4966 13.1034C11.4966 13.0059 11.4966 12.811 11.4966 12.7136C11.4966 12.6161 11.4966 12.6161 11.4966 12.5187V12.4212C11.4966 12.3238 11.594 12.3238 11.594 12.2263L11.6915 12.1289L11.7889 12.0314H11.8864L11.9838 11.9339L12.1787 11.8365H12.2762C12.3737 11.8365 12.5686 11.8365 12.666 11.8365C12.9584 11.9339 13.2507 12.0314 13.4457 12.3238C13.6406 12.5187 13.738 12.811 13.738 13.2008C13.8355 13.4932 13.8355 13.5907 13.9329 13.6881Z" fill="black"/>
<path d="M24.169 22.264C23.4868 22.0691 22.7072 22.264 22.2199 22.8487C21.6352 23.5309 21.7326 24.5055 22.4148 25.0902C22.8046 25.3825 23.2919 25.5775 23.7791 25.48C24.5588 25.3825 25.241 24.6029 25.241 23.8233C25.1435 23.1411 24.7537 22.5564 24.169 22.264ZM24.2664 24.0182L24.169 24.2131L24.0715 24.3106C24.0715 24.3106 24.0715 24.3106 24.0715 24.408L23.9741 24.5055H23.8766H23.6817H23.5842H23.3893H23.2919H23.1944H23.097H22.9995H22.9021V24.408V24.3106V24.2131C22.8046 24.1156 22.8046 24.0182 22.7072 23.9207V23.7258V23.6284C22.7072 23.5309 22.7072 23.5309 22.7072 23.4335C22.7072 23.4335 22.7072 23.4335 22.7072 23.336V23.2386L22.8046 23.1411L22.9021 23.0436C22.9021 23.0436 22.9021 23.0436 22.9995 23.0436H22.9021C22.9021 23.0436 23.097 22.9462 23.1944 22.9462H23.5842H23.6817H23.7791H23.8766H23.9741C24.0715 23.0436 24.169 23.0436 24.169 23.1411L24.2664 23.2386L24.3639 23.4335V23.5309C24.3639 23.5309 24.3639 23.5309 24.3639 23.6284C24.3639 23.7258 24.3639 23.6284 24.3639 23.7258C24.2664 23.8233 24.2664 23.9207 24.2664 24.0182Z" fill="black"/>
</svg>
