<?xml version="1.0" encoding="utf-8"?>
<!-- Generator: Adobe Illustrator 27.2.0, SVG Export Plug-In . SVG Version: 6.00 Build 0)  -->
<svg version="1.1" id="Layer_1" xmlns="http://www.w3.org/2000/svg" xmlns:xlink="http://www.w3.org/1999/xlink" x="0px" y="0px"
	 viewBox="0 0 20.4 20.4" style="enable-background:new 0 0 20.4 20.4;" xml:space="preserve">
<style type="text/css">
	.st0{fill:#7F96A3;}
</style>
<g>
	<path class="st0" d="M4.4,2.5c0,0.9,0.3,1.7,0.9,2.3c0.6,0.6,1.4,1,2.3,1l1.7,5.1L8.9,11l1.5,4.5v0c-0.6,0.6-1,1.5-1,2.3v0.4h1.8
		v-0.4c0-0.5,0.3-1,0.7-1.3c0.5-0.3,1-0.3,1.5,0c0.5,0.3,0.7,0.7,0.7,1.3v0.4H16v-0.4c0-0.8-0.3-1.6-0.8-2.1c-0.5-0.6-1.2-1-2-1.1
		l-1.5-4.5l-0.3,0.1L9.7,5.1h0c0.8-0.6,1.3-1.6,1.3-2.6V2.2H9.1v0.4c0,0.5-0.3,1-0.7,1.3c-0.4,0.3-1,0.3-1.5,0
		C6.5,3.5,6.2,3.1,6.2,2.5V2.2H4.4L4.4,2.5z M5.1,2.9h0.4C5.6,3.6,6,4.2,6.7,4.5c0.6,0.3,1.4,0.3,2,0s1.1-0.9,1.2-1.6h0.4
		C10,3.7,9.5,4.5,8.8,4.8l1.9,5.6L10,10.7L8.1,5.1l0,0C7.4,5.2,6.7,5,6.2,4.6C5.6,4.2,5.2,3.6,5.1,2.9L5.1,2.9z M9.9,11.5l1.4-0.5
		l1.4,4.2c0.6,0,1.2,0.2,1.7,0.6c0.5,0.4,0.8,1,0.9,1.6h-0.4c-0.1-0.7-0.5-1.3-1.2-1.6c-0.6-0.3-1.4-0.3-2,0
		c-0.6,0.3-1.1,0.9-1.2,1.6h-0.4c0.1-0.7,0.5-1.3,1.1-1.7L9.9,11.5z"/>
	<path class="st0" d="M4.4,1.1h2.2v1.5c0,0.4,0.2,0.7,0.5,0.9c0.3,0.2,0.8,0.2,1.1,0c0.3-0.2,0.5-0.6,0.5-0.9V1.1h2.2V0H4.4L4.4,1.1
		z M7.3,2.5V0.7H8v1.8c0,0.2-0.2,0.4-0.4,0.4C7.4,2.9,7.3,2.7,7.3,2.5z"/>
	<path class="st0" d="M9.5,20.4H16v-1.1h-2.2v-1.5c0-0.4-0.2-0.7-0.5-0.9c-0.3-0.2-0.8-0.2-1.1,0c-0.3,0.2-0.5,0.6-0.5,0.9v1.5H9.5
		L9.5,20.4z M12.4,19.7v-1.8c0-0.2,0.2-0.4,0.4-0.4s0.4,0.2,0.4,0.4v1.8H12.4z"/>
</g>
</svg>
