<svg xmlns="http://www.w3.org/2000/svg" viewBox="0 0 36.25 30.51"><defs><style>.cls-1{fill:#ffd71c;}</style></defs><g id="Layer_2" data-name="Layer 2"><g id="Слой_1" data-name="Слой 1"><circle class="cls-1" cx="13.75" cy="13.75" r="13.75"/><path d="M35.79,19.4c.22-.57.68-.68.34-1.25l-.34-.34c-.46-.68-.12-.34,0-.79a1.73,1.73,0,0,0,.34-.79c0-.23-.12-.34-.34-.57-.46-.45-.68-.34-.57-1s.23-.79-.34-1.25a.42.42,0,0,0-.34-.11c-.34-.34-.23-.68-.34-1a1.06,1.06,0,0,0-.11-.57c-.34-.56-1.13-.22-1.36-.9s0-.91-.79-1.13c-.46-.12-.68.11-.91-.34-.11-.23-.11-.57-.34-.8S30,8.3,29.56,8.3c-.68,0-.8-.68-1.36-.91s-.8.23-1.25.23-.68-.68-1.24-.8-.8.46-1.25.46-.79-.57-1.36-.46a2.1,2.1,0,0,0-1.13.8c-.57-.23-1-.57-1.59-.12-.34.12-.34.57-.57.68s-.68,0-1,.12a.87.87,0,0,0-.57.22c-.34.23-.34,1-.57,1.14-.45.22-1-.12-1.47.34-.11.11-.11.22-.23.34a5,5,0,0,0-.11.56c.11.34,0,.45-.34.45s-.57.12-.79.23-.34.34-.34.57c-.12.45.22.68-.23,1.13-.11.11-.45.11-.57.34s-.34.23-.34.45c-.11.68.46.91-.11,1.48-.34.34-.68.45-.68.9s.45.68.45.91-.45.79-.68,1.13v.11h0c0,.34.12.46.34.8.34.56.34.56.12,1.13a.86.86,0,0,0,.11,1.13c.23.23.57.34.68.68s-.23.57-.23.8a.76.76,0,0,0,.46.79.84.84,0,0,0,1-.68,3.23,3.23,0,0,0,.11-1c0-.23.11-.34,0-.45s-.23-.23-.34-.34c-.34-.12-.45-.34-.57-.68.12-.12.12-.23.23-.34.23-.8.23-.68-.23-1.36s.23-.68.34-1.36c.12-.34,0-.23-.11-.57a.67.67,0,0,1-.11-.9c.11-.12.22-.12.34-.23.22-.34.45-.34.34-.91s-.23-.68.22-1.13c.12-.11.34-.11.46-.34.34-.34.11-.68.22-1.13s.57-.34,1-.57.46-.79.46-1.36c1,0,1.36-.22,1.81-1.36.34,0,.68.23,1.13.12a1.28,1.28,0,0,0,.79-.91,1.59,1.59,0,0,0,2-.45,1.58,1.58,0,0,0,1.25.45,2.09,2.09,0,0,0,1-.45c.79.79,1.13.79,2.15.45.57,1,.91,1.13,2,.91.11.34.23.9.57,1.13s.68,0,1,.11.22.34.34.79a.47.47,0,0,0,.22.46c.12.11.23.11.34.22.46.23.68,0,.91.46s-.11.79.11,1.24c.12.12.23.12.34.23a.72.72,0,0,1,.57.68c0,.11-.12.23-.12.34A1.14,1.14,0,0,0,34,16c.23.11.46.23.34.57.12.22,0,.45-.11.68-.11.45-.23.22-.11.68,0,.22.45.45.45.67.23.57-.23.68-.45,1s0,.57.11,1c.23.8-.45.68-.68,1.25s.34,1,.11,1.47c-.11.23-.67.23-.9.57s0,.11-.11.57c.11.22.11.45-.23.68-.11.11-.11.22-.34.22-.79.45-.79.57-.91,1.47-1,0-1.36.23-1.81,1.25a1.7,1.7,0,0,0-2,.91c-.34-.12-.68-.46-1.13-.34a1.42,1.42,0,0,0-.91.68,1.56,1.56,0,0,0-2.15,0c-.34-.34-.45-.68-.91-.8a1.94,1.94,0,0,0-1.24.34c-.23-.45-.46-.9-1-1-.23,0-.68.23-.8.12-.45-.12-.33-.68-.56-.91-.45-.45-1.13-.11-1.47-.45s0-.68-.23-1-.45-.34-.91-.45-1.81-.91-1.81.22c0,.79.91.45,1.36.79s0,1.14.57,1.48c.22.11.34,0,.56.11,1.25.45.57.34,1,1,.34.34.57.23,1,.34a.75.75,0,0,1,.91.23c.11.11.11.22.22.34a1.88,1.88,0,0,0,.46.34c.45.11.79-.23,1.24-.23s.34.23.68.45a.83.83,0,0,0,.68.23c.46,0,.68-.45,1-.45.57-.12.91.56,1.48.45s.68-.45,1-.79c.57.22,1.14.56,1.7.11.12-.11.12-.23.23-.23.45-.45.11-.45.79-.45.34,0,.46.11.8,0a1.14,1.14,0,0,0,.56-.45c.23-.23.12-.68.46-.91.11-.11.34,0,.45,0,1-.34,1-.45,1.25-1.59.34-.11.79-.11,1-.34.57-.33.23-.56.34-1.13.12-.79.8-.56,1-1.13a.9.9,0,0,0,0-.79c-.11-.34-.22-.34,0-.8.12-.22.34-.22.46-.45C36.35,20.64,35.33,20.3,35.79,19.4Z"/><path d="M31.26,19.74a.71.71,0,0,0,1,.11c.45-.34.45-1.13.34-1.7a8.22,8.22,0,0,0-5-7.14,8.5,8.5,0,0,0-8.5,1,8.2,8.2,0,0,0,5,14.73h0c3.06,0,6.8-1.92,7.59-5.1.11-.45-.11-.79-.68-.79s-.79.91-1,1.36a6.71,6.71,0,0,1-3.85,3.17,7.19,7.19,0,0,1-5.33-13.25,7.11,7.11,0,0,1,9.29,2.72A5.92,5.92,0,0,1,31,17.25a5.17,5.17,0,0,1,.11,1.24C31.26,19.06,31.14,19.51,31.26,19.74Z"/><path d="M29.33,19.4c.23,0,.34-.12.45-.34a.83.83,0,0,0,.12-.57.64.64,0,0,0-.12-.45c-.11-.11-.22-.23-.34-.23s-.45,0-.68,0a.62.62,0,0,0-.45.34c-.11.11-.11.23-.11.45a.72.72,0,0,0,.11.46c.11.11.11.22.34.22C29,19.51,29.22,19.51,29.33,19.4Z"/><path d="M24.57,22.91a1.5,1.5,0,0,0-.68.11c-.22.12-.34.12-.45.34a.22.22,0,0,0,0,.34.71.71,0,0,0,.68.46h.11c.23,0,.46-.12.68-.12s.23-.11.34-.34A.55.55,0,0,0,25,23C24.91,23,24.69,22.91,24.57,22.91Z"/><path d="M24.91,14.3c.12-.11.23-.11.23-.23v-.56c0-.34-.57-.46-.79-.46-.46,0-1.14.23-1,.8a.48.48,0,0,0,.45.45A1.31,1.31,0,0,0,24.91,14.3Z"/><path d="M21.17,15.77a1,1,0,0,0,.57-.79c0-.11-.11-.23-.11-.34a.72.72,0,0,0-.46-.11,1.67,1.67,0,0,0-1,.45.58.58,0,0,0,0,.68C20.38,16,20.83,15.89,21.17,15.77Z"/><path d="M28.42,15.66c.12-.11.12-.11.12-.23s.11-.22.11-.34-.11-.22-.11-.34l-.34-.34a1.06,1.06,0,0,0-1.14.12.58.58,0,0,0-.22.45.86.86,0,0,0,.11.45.94.94,0,0,0,.79.46C28,16,28.2,15.89,28.42,15.66Z"/><path d="M19.25,17.93a.63.63,0,0,0-.57.33.72.72,0,0,0-.11.46.82.82,0,0,0,.34.68c.22.11.45,0,.56,0s.34-.12.46-.34.11-.23.11-.46a.69.69,0,0,0-.11-.45C19.93,17.93,19.59,17.93,19.25,17.93Z"/><path d="M20.83,22.91c.46,0,.91-.23.91-.68,0-.11-.11-.34-.11-.45l-.34-.34a1,1,0,0,0-1.14.11.59.59,0,0,0-.22.45.89.89,0,0,0,.11.46A1.17,1.17,0,0,0,20.83,22.91Z"/><path d="M28.08,22.8c.12-.12.34-.23.46-.34a.89.89,0,0,0,.22-.46.69.69,0,0,0-.11-.45.88.88,0,0,0-.45-.23,1.41,1.41,0,0,0-.91.46.58.58,0,0,0-.23.45.64.64,0,0,0,.12.45C27.29,23,27.74,23,28.08,22.8Z"/><path d="M26.84,18.6a2.42,2.42,0,0,0-1.7-2.26,2.7,2.7,0,0,0-2.95.91A2.37,2.37,0,0,0,22,20.08a2.55,2.55,0,0,0,2.72,1A2.65,2.65,0,0,0,26.84,18.6Z"/></g></g></svg>