<svg id="Capa_1" xmlns="http://www.w3.org/2000/svg" viewBox="0 0 975 975"><style>.st0{fill:#f2f2f2}</style><path class="st0" d="M925 57.2H621c-27.6 0-50 22.4-50 50v304c0 27.6 22.4 50 50 50h145.5c-1.9 79.6-20.4 143.3-55.4 191.2-27.6 37.8-69.4 69.1-125.3 93.8-25.7 11.3-36.8 41.7-24.8 67.1l36 76c11.6 24.4 40.3 35.1 65.1 24.4 66.2-28.6 122.1-64.8 167.7-108.8 55.6-53.7 93.7-114.3 114.3-181.9 20.6-67.6 30.9-159.8 30.9-276.8v-239c0-27.6-22.4-50-50-50zM106 913.5c65.4-28.5 121-64.7 166.9-108.6 56.1-53.7 94.4-114.1 115-181.2s30.9-159.6 30.9-277.5v-239c0-27.6-22.4-50-50-50h-304c-27.6 0-50 22.4-50 50v304c0 27.6 22.4 50 50 50h145.5c-1.9 79.6-20.4 143.3-55.4 191.2-27.6 37.8-69.4 69.1-125.3 93.8-25.7 11.3-36.8 41.7-24.8 67.1l35.9 75.8c11.6 24.4 40.5 35.2 65.3 24.4z"/></svg>