<svg width="46" height="67" viewBox="0 0 46 67" fill="none" xmlns="http://www.w3.org/2000/svg">
<path d="M46 60.3836C46 62.8375 43.2143 64.2534 41.2319 62.8072L24.7673 50.7957C23.7138 50.0272 22.2845 50.0272 21.2311 50.7957L4.76809 62.806C2.78567 64.2522 0 62.8363 0 60.3824V-13C0 -14.6569 1.34315 -16 3 -16H43C44.6569 -16 46 -14.6569 46 -13V60.3836Z" fill="#FFD71C"/>
<path d="M37.0156 32.1416H38.5667C39.2499 32.1416 39.7606 32.2732 40.0991 32.5364C40.4876 32.8373 40.6819 33.2697 40.6819 33.8337C40.6819 34.3915 40.4469 34.802 39.9769 35.0652C40.2965 35.1154 40.5691 35.247 40.7947 35.4601C41.0955 35.7483 41.246 36.14 41.246 36.6351C41.246 37.1616 41.0673 37.5846 40.7101 37.9042C40.3278 38.2427 39.7982 38.4119 39.1214 38.4119H37.0156V32.1416ZM38.2377 33.1381V34.7456H38.5855C38.6482 34.7456 38.7046 34.7456 38.7548 34.7456C38.8112 34.7393 38.8895 34.7205 38.9898 34.6892C39.0963 34.6579 39.1841 34.6171 39.253 34.567C39.3282 34.5106 39.394 34.4291 39.4504 34.3226C39.5068 34.2098 39.535 34.0782 39.535 33.9277C39.535 33.6583 39.4473 33.4608 39.2718 33.3355C39.0963 33.2039 38.8707 33.1381 38.5949 33.1381H38.2377ZM38.2377 35.6857V37.4154H38.7642C39.1277 37.4154 39.4065 37.359 39.6008 37.2462C39.8578 37.0958 39.9863 36.8545 39.9863 36.5223C39.9863 36.1839 39.8327 35.9458 39.5256 35.8079C39.3501 35.7264 39.0713 35.6857 38.689 35.6857H38.2377Z" fill="black"/>
<path d="M34.3594 32.1416H35.5815V38.4119H34.3594V32.1416Z" fill="black"/>
<path d="M33.218 36.7568V38.1857C32.7542 38.4301 32.2372 38.5523 31.6668 38.5523C30.7518 38.5523 29.9872 38.2609 29.3731 37.678C28.7025 37.0325 28.3672 36.2335 28.3672 35.2809C28.3672 34.2656 28.7025 33.4477 29.3731 32.8273C29.9622 32.2758 30.7299 32 31.6762 32C32.2278 32 32.7417 32.1285 33.218 32.3854V33.8143C32.8106 33.3443 32.3061 33.1093 31.7044 33.1093C31.0903 33.1093 30.5889 33.3255 30.2003 33.7579C29.818 34.1841 29.6269 34.698 29.6269 35.2997C29.6269 35.9577 29.84 36.481 30.2661 36.8696C30.6923 37.2519 31.1874 37.443 31.7515 37.443C32.3406 37.443 32.8294 37.2143 33.218 36.7568Z" fill="black"/>
<path d="M26.0156 32.1416H27.2377V38.4119H26.0156V32.1416Z" fill="black"/>
<path d="M20.6484 32.1416H22.1996C22.8827 32.1416 23.3935 32.2732 23.7319 32.5364C24.1204 32.8373 24.3147 33.2697 24.3147 33.8337C24.3147 34.3915 24.0797 34.802 23.6097 35.0652C23.9293 35.1154 24.2019 35.247 24.4275 35.4601C24.7284 35.7483 24.8788 36.14 24.8788 36.6351C24.8788 37.1616 24.7002 37.5846 24.3429 37.9042C23.9606 38.2427 23.4311 38.4119 22.7542 38.4119H20.6484V32.1416ZM21.8705 33.1381V34.7456H22.2184C22.281 34.7456 22.3374 34.7456 22.3876 34.7456C22.444 34.7393 22.5223 34.7205 22.6226 34.6892C22.7291 34.6579 22.8169 34.6171 22.8858 34.567C22.961 34.5106 23.0268 34.4291 23.0832 34.3226C23.1396 34.2098 23.1678 34.0782 23.1678 33.9277C23.1678 33.6583 23.0801 33.4608 22.9046 33.3355C22.7291 33.2039 22.5035 33.1381 22.2278 33.1381H21.8705ZM21.8705 35.6857V37.4154H22.397C22.7605 37.4154 23.0394 37.359 23.2336 37.2462C23.4906 37.0958 23.6191 36.8545 23.6191 36.5223C23.6191 36.1839 23.4655 35.9458 23.1584 35.8079C22.983 35.7264 22.7041 35.6857 22.3218 35.6857H21.8705Z" fill="black"/>
<path d="M15.625 32.1416H17.4487C17.8373 32.1416 18.1538 32.1761 18.3982 32.245C18.6489 32.3077 18.8839 32.433 19.1033 32.621C19.5294 32.9971 19.7425 33.5016 19.7425 34.1346C19.7425 34.7237 19.5702 35.1906 19.2255 35.5353C18.8557 35.905 18.3261 36.0899 17.6368 36.0899H16.8471V38.4119H15.625V32.1416ZM16.8471 33.1945V35.037H17.3453C17.7026 35.037 17.9689 34.9712 18.1444 34.8396C18.37 34.6641 18.4828 34.4197 18.4828 34.1064C18.4828 33.7993 18.3669 33.5611 18.135 33.3919C17.947 33.2603 17.6587 33.1945 17.2701 33.1945H16.8471Z" fill="black"/>
<path d="M14.4392 32.1416V33.1945H12.183V34.5952H14.3452V35.6481H12.183V37.359H14.4392V38.4119H10.9609V32.1416H14.4392Z" fill="black"/>
<path d="M9.85078 36.7568V38.1857C9.38701 38.4301 8.86997 38.5523 8.29966 38.5523C7.38465 38.5523 6.62006 38.2609 6.00588 37.678C5.33529 37.0325 5 36.2335 5 35.2809C5 34.2656 5.33529 33.4477 6.00588 32.8273C6.59499 32.2758 7.36272 32 8.30906 32C8.86057 32 9.37447 32.1285 9.85078 32.3854V33.8143C9.44341 33.3443 8.93891 33.1093 8.33726 33.1093C7.72308 33.1093 7.22171 33.3255 6.83314 33.7579C6.45085 34.1841 6.2597 34.698 6.2597 35.2997C6.2597 35.9577 6.47278 36.481 6.89895 36.8696C7.32511 37.2519 7.82022 37.443 8.38426 37.443C8.97338 37.443 9.46221 37.2143 9.85078 36.7568Z" fill="black"/>
<path d="M5 40.1642H8.66106V44.566H7.75966V40.9034H5.9014V44.566H5V40.1642Z" fill="black"/>
<path d="M10.1774 40.712C10.6397 40.2808 11.2337 40.0652 11.9594 40.0652C12.6851 40.0652 13.2768 40.2808 13.7345 40.712C14.1967 41.1431 14.4278 41.6953 14.4278 42.3684C14.4278 43.0415 14.1967 43.5937 13.7345 44.0248C13.2768 44.4516 12.6851 44.665 11.9594 44.665C11.2337 44.665 10.6397 44.4516 10.1774 44.0248C9.71977 43.5937 9.49095 43.0415 9.49095 42.3684C9.49095 41.6953 9.71977 41.1431 10.1774 40.712ZM10.85 43.4639C11.1366 43.7455 11.5064 43.8863 11.9594 43.8863C12.4124 43.8863 12.7822 43.7455 13.0688 43.4639C13.3554 43.1779 13.4987 42.8128 13.4987 42.3684C13.4987 41.9241 13.3531 41.5589 13.0619 41.2729C12.7753 40.9869 12.4078 40.844 11.9594 40.844C11.511 40.844 11.1412 40.9869 10.85 41.2729C10.5634 41.5589 10.4201 41.9241 10.4201 42.3684C10.4201 42.8128 10.5634 43.1779 10.85 43.4639Z" fill="black"/>
<path d="M16.3638 40.1642H17.4177L18.5895 42.3816L19.5811 40.1642H20.5657L18.4231 44.566H17.4385L18.0834 43.3385L16.3638 40.1642Z" fill="black"/>
<path d="M22.0104 40.1642V42.0252L23.7091 40.1642H24.8463L22.891 42.1968L24.9503 44.566H23.7577L22.1144 42.5928L22.0104 42.6918V44.566H21.109V40.1642H22.0104Z" fill="black"/>
<path d="M25.5171 40.1642H26.8622C27.1488 40.1642 27.3823 40.1884 27.5626 40.2368C27.7475 40.2808 27.9208 40.3688 28.0826 40.5008C28.3969 40.7648 28.5541 41.1189 28.5541 41.5633C28.5541 41.9768 28.427 42.3046 28.1727 42.5466C27.9 42.8062 27.5094 42.9359 27.0009 42.9359H26.4185V44.566H25.5171V40.1642ZM26.4185 40.9034V42.1968H26.786C27.0495 42.1968 27.2459 42.1506 27.3754 42.0582C27.5418 41.935 27.625 41.7635 27.625 41.5435C27.625 41.3279 27.5395 41.1607 27.3684 41.0419C27.2297 40.9495 27.0171 40.9034 26.7305 40.9034H26.4185Z" fill="black"/>
<path d="M32.071 44.566L31.6619 43.6421H29.7967L29.3876 44.566H28.41L30.4 40.1642H31.1072L33.0418 44.566H32.071ZM30.081 42.9425H31.3984L30.7397 41.3587L30.081 42.9425Z" fill="black"/>
<path d="M33.5817 40.1642H34.4831V44.566H33.5817V40.1642ZM33.2142 39.5505C33.1356 39.4537 33.0964 39.3415 33.0964 39.2139C33.0964 39.0863 33.1356 38.9763 33.2142 38.884C33.2928 38.7872 33.3876 38.7388 33.4985 38.7388C33.6095 38.7388 33.7042 38.7872 33.7828 38.884C33.8614 38.9763 33.9007 39.0863 33.9007 39.2139C33.9007 39.3415 33.8614 39.4537 33.7828 39.5505C33.7042 39.6429 33.6095 39.6891 33.4985 39.6891C33.3876 39.6891 33.2928 39.6429 33.2142 39.5505ZM34.2543 39.5505C34.1757 39.4537 34.1364 39.3415 34.1364 39.2139C34.1364 39.0863 34.1757 38.9763 34.2543 38.884C34.3329 38.7872 34.4277 38.7388 34.5386 38.7388C34.6495 38.7388 34.7443 38.7872 34.8229 38.884C34.9015 38.9763 34.9408 39.0863 34.9408 39.2139C34.9408 39.3415 34.9015 39.4537 34.8229 39.5505C34.7443 39.6429 34.6495 39.6891 34.5386 39.6891C34.4277 39.6891 34.3329 39.6429 34.2543 39.5505Z" fill="black"/>
<path d="M36.44 40.1642V41.8669H38.3954V40.1642H39.2968V44.566H38.3954V42.606H36.44V44.566H35.5386V40.1642H36.44Z" fill="black"/>
<path d="M40.353 40.1642H41.2544V44.566H40.353V40.1642Z" fill="black"/>
<g filter="url(#filter0_d_3270_73362)">
<path d="M5.8885 27L12.1605 19.864C14.2085 17.4747 15.4245 15.992 15.8085 15.416C16.6405 14.1787 17.0565 13.0373 17.0565 11.992C17.0565 11.032 16.7472 10.2533 16.1285 9.656C15.5312 9.05866 14.7845 8.76 13.8885 8.76C12.8645 8.76 12.0538 9.112 11.4565 9.816C10.8592 10.4987 10.5392 11.3307 10.4965 12.312H6.2085C6.29383 10.1573 7.02983 8.42933 8.4165 7.128C9.80317 5.82667 11.5632 5.176 13.6965 5.176C16.0432 5.176 17.8778 5.848 19.2005 7.192C20.5445 8.536 21.2165 10.1253 21.2165 11.96C21.2165 12.984 20.9818 14.008 20.5125 15.032C20.0432 16.056 19.5952 16.8347 19.1685 17.368C18.7418 17.88 18.1338 18.5627 17.3445 19.416L13.6645 23.416H21.3765V27H5.8885ZM38.604 5.656V9.24H31.5L30.732 12.6C31.2867 12.5147 31.7667 12.472 32.172 12.472C34.4547 12.472 36.2893 13.1867 37.676 14.616C38.9347 15.896 39.564 17.6027 39.564 19.736C39.564 21.9973 38.8387 23.8533 37.388 25.304C35.9373 26.7547 33.9853 27.48 31.532 27.48C29.676 27.48 28.14 27.1813 26.924 26.584C26.0067 26.136 25.1427 25.528 24.332 24.76L25.708 21.176C26.3267 22.008 27.0627 22.648 27.916 23.096C28.8973 23.6293 29.932 23.896 31.02 23.896C32.3853 23.896 33.4733 23.4693 34.284 22.616C35.0307 21.8267 35.404 20.792 35.404 19.512C35.404 18.296 34.988 17.3147 34.156 16.568C33.324 15.8427 32.2147 15.48 30.828 15.48C29.292 15.48 27.756 15.9387 26.22 16.856L28.748 5.656H38.604Z" fill="white"/>
</g>
<defs>
<filter id="filter0_d_3270_73362" x="4.89062" y="5.17578" width="35.6719" height="24.3042" filterUnits="userSpaceOnUse" color-interpolation-filters="sRGB">
<feFlood flood-opacity="0" result="BackgroundImageFix"/>
<feColorMatrix in="SourceAlpha" type="matrix" values="0 0 0 0 0 0 0 0 0 0 0 0 0 0 0 0 0 0 127 0" result="hardAlpha"/>
<feOffset dy="1"/>
<feGaussianBlur stdDeviation="0.5"/>
<feComposite in2="hardAlpha" operator="out"/>
<feColorMatrix type="matrix" values="0 0 0 0 0 0 0 0 0 0 0 0 0 0 0 0 0 0 0.25 0"/>
<feBlend mode="normal" in2="BackgroundImageFix" result="effect1_dropShadow_3270_73362"/>
<feBlend mode="normal" in="SourceGraphic" in2="effect1_dropShadow_3270_73362" result="shape"/>
</filter>
</defs>
</svg>
