<svg width="163" height="28" viewBox="0 0 163 28" fill="none" xmlns="http://www.w3.org/2000/svg">
<path fill-rule="evenodd" clip-rule="evenodd" d="M39 25.5H70H128.092H159.092C162.14 25.5 163.246 21.481 160.626 19.922L153.328 15.5784C151.373 14.4153 151.373 11.5856 153.328 10.4225L160.628 6.07798C163.247 4.51899 162.142 0.5 159.093 0.5H128.093H70H39C37.3431 0.5 36 1.84315 36 3.5V22.5C36 24.1569 37.3431 25.5 39 25.5Z" fill="#F8CC00"/>
<path d="M139.016 6.1416H140.747C141.51 6.1416 142.08 6.28853 142.458 6.58238C142.892 6.91821 143.109 7.40097 143.109 8.03066C143.109 8.65335 142.846 9.11162 142.321 9.40547C142.678 9.46144 142.983 9.60837 143.235 9.84625C143.57 10.1681 143.738 10.6054 143.738 11.1581C143.738 11.7458 143.539 12.2181 143.14 12.5749C142.713 12.9527 142.122 13.1416 141.366 13.1416H139.016V6.1416ZM140.38 7.25405V9.04865H140.768C140.838 9.04865 140.901 9.04865 140.957 9.04865C141.02 9.04165 141.108 9.02066 141.22 8.98568C141.338 8.9507 141.436 8.90522 141.513 8.84925C141.597 8.78628 141.671 8.69532 141.734 8.57638C141.797 8.45045 141.828 8.30352 141.828 8.1356C141.828 7.83475 141.73 7.61437 141.534 7.47444C141.338 7.32751 141.087 7.25405 140.779 7.25405H140.38ZM140.38 10.0981V12.0292H140.968C141.373 12.0292 141.685 11.9662 141.902 11.8403C142.189 11.6723 142.332 11.403 142.332 11.0322C142.332 10.6543 142.161 10.3885 141.818 10.2346C141.622 10.1436 141.31 10.0981 140.884 10.0981H140.38Z" fill="black"/>
<path d="M136.359 6.1416H137.724V13.1416H136.359V6.1416Z" fill="black"/>
<path d="M135.549 11.0818V12.6083C135.054 12.8694 134.502 13 133.892 13C132.915 13 132.098 12.6887 131.442 12.066C130.725 11.3764 130.367 10.5227 130.367 9.50502C130.367 8.42037 130.725 7.54663 131.442 6.88379C132.071 6.2946 132.891 6 133.902 6C134.492 6 135.041 6.13725 135.549 6.41176V7.93831C135.114 7.43615 134.575 7.18508 133.932 7.18508C133.276 7.18508 132.741 7.41607 132.326 7.87805C131.917 8.33333 131.713 8.88235 131.713 9.52511C131.713 10.2281 131.941 10.7872 132.396 11.2023C132.851 11.6107 133.38 11.8149 133.983 11.8149C134.612 11.8149 135.134 11.5705 135.549 11.0818Z" fill="black"/>
<path d="M128.016 6.1416H129.38V13.1416H128.016V6.1416Z" fill="black"/>
<path d="M122.648 6.1416H124.38C125.143 6.1416 125.713 6.28853 126.091 6.58238C126.525 6.91821 126.741 7.40097 126.741 8.03066C126.741 8.65335 126.479 9.11162 125.954 9.40547C126.311 9.46144 126.615 9.60837 126.867 9.84625C127.203 10.1681 127.371 10.6054 127.371 11.1581C127.371 11.7458 127.172 12.2181 126.773 12.5749C126.346 12.9527 125.755 13.1416 124.999 13.1416H122.648V6.1416ZM124.013 7.25405V9.04865H124.401C124.471 9.04865 124.534 9.04865 124.59 9.04865C124.653 9.04165 124.74 9.02066 124.852 8.98568C124.971 8.9507 125.069 8.90522 125.146 8.84925C125.23 8.78628 125.304 8.69532 125.367 8.57638C125.43 8.45045 125.461 8.30352 125.461 8.1356C125.461 7.83475 125.363 7.61437 125.167 7.47444C124.971 7.32751 124.719 7.25405 124.412 7.25405H124.013ZM124.013 10.0981V12.0292H124.6C125.006 12.0292 125.318 11.9662 125.534 11.8403C125.821 11.6723 125.965 11.403 125.965 11.0322C125.965 10.6543 125.793 10.3885 125.451 10.2346C125.255 10.1436 124.943 10.0981 124.517 10.0981H124.013Z" fill="black"/>
<path d="M117.625 6.1416H119.661C120.095 6.1416 120.448 6.18008 120.721 6.25704C121.001 6.32701 121.263 6.46694 121.508 6.67683C121.984 7.09662 122.222 7.65984 122.222 8.36649C122.222 9.02416 122.029 9.5454 121.644 9.93021C121.232 10.343 120.64 10.5494 119.871 10.5494H118.989V13.1416H117.625V6.1416ZM118.989 7.31701V9.37399H119.546C119.944 9.37399 120.242 9.30052 120.438 9.1536C120.689 8.95769 120.815 8.68483 120.815 8.335C120.815 7.99218 120.686 7.72631 120.427 7.5374C120.217 7.39048 119.895 7.31701 119.462 7.31701H118.989Z" fill="black"/>
<path d="M116.844 6.1416V7.31701H114.325V8.88073H116.739V10.0561H114.325V11.9662H116.844V13.1416H112.961V6.1416H116.844Z" fill="black"/>
<path d="M112.182 11.0818V12.6083C111.687 12.8694 111.134 13 110.525 13C109.548 13 108.731 12.6887 108.075 12.066C107.358 11.3764 107 10.5227 107 9.50502C107 8.42037 107.358 7.54663 108.075 6.88379C108.704 6.2946 109.524 6 110.535 6C111.124 6 111.673 6.13725 112.182 6.41176V7.93831C111.747 7.43615 111.208 7.18508 110.565 7.18508C109.909 7.18508 109.374 7.41607 108.958 7.87805C108.55 8.33333 108.346 8.88235 108.346 9.52511C108.346 10.2281 108.573 10.7872 109.029 11.2023C109.484 11.6107 110.013 11.8149 110.615 11.8149C111.245 11.8149 111.767 11.5705 112.182 11.0818Z" fill="black"/>
<path d="M107 15.182H110.707V19.6385H109.794V15.9303H107.913V19.6385H107V15.182Z" fill="black"/>
<path d="M112.242 15.7365C112.71 15.3 113.311 15.0818 114.046 15.0818C114.781 15.0818 115.38 15.3 115.843 15.7365C116.311 16.1731 116.545 16.7321 116.545 17.4136C116.545 18.0951 116.311 18.6541 115.843 19.0907C115.38 19.5227 114.781 19.7388 114.046 19.7388C113.311 19.7388 112.71 19.5227 112.242 19.0907C111.779 18.6541 111.547 18.0951 111.547 17.4136C111.547 16.7321 111.779 16.1731 112.242 15.7365ZM112.923 18.5227C113.213 18.8078 113.587 18.9504 114.046 18.9504C114.505 18.9504 114.879 18.8078 115.169 18.5227C115.459 18.2332 115.605 17.8635 115.605 17.4136C115.605 16.9637 115.457 16.594 115.162 16.3045C114.872 16.0149 114.5 15.8702 114.046 15.8702C113.592 15.8702 113.218 16.0149 112.923 16.3045C112.633 16.594 112.488 16.9637 112.488 17.4136C112.488 17.8635 112.633 18.2332 112.923 18.5227Z" fill="black"/>
<path d="M118.505 15.182H119.572L120.759 17.427L121.763 15.182H122.76L120.59 19.6385H119.593L120.246 18.3958L118.505 15.182Z" fill="black"/>
<path d="M124.222 15.182V17.0662L125.942 15.182H127.093L125.114 17.2399L127.199 19.6385H125.991L124.327 17.6408L124.222 17.741V19.6385H123.31V15.182H124.222Z" fill="black"/>
<path d="M127.773 15.182H129.134C129.425 15.182 129.661 15.2065 129.844 15.2555C130.031 15.3 130.206 15.3891 130.37 15.5227C130.688 15.79 130.847 16.1486 130.847 16.5985C130.847 17.0172 130.719 17.349 130.461 17.594C130.185 17.8568 129.79 17.9882 129.275 17.9882H128.685V19.6385H127.773V15.182ZM128.685 15.9303V17.2399H129.057C129.324 17.2399 129.523 17.1931 129.654 17.0996C129.822 16.9748 129.907 16.8011 129.907 16.5784C129.907 16.3602 129.82 16.1909 129.647 16.0706C129.507 15.9771 129.291 15.9303 129.001 15.9303H128.685Z" fill="black"/>
<path d="M134.408 19.6385L133.994 18.7031H132.105L131.691 19.6385H130.701L132.716 15.182H133.432L135.391 19.6385H134.408ZM132.393 17.9949H133.727L133.06 16.3913L132.393 17.9949Z" fill="black"/>
<path d="M135.938 15.182H136.85V19.6385H135.938V15.182ZM135.566 14.5606C135.486 14.4626 135.446 14.349 135.446 14.2198C135.446 14.0907 135.486 13.9793 135.566 13.8858C135.645 13.7878 135.741 13.7388 135.853 13.7388C135.966 13.7388 136.062 13.7878 136.141 13.8858C136.221 13.9793 136.261 14.0907 136.261 14.2198C136.261 14.349 136.221 14.4626 136.141 14.5606C136.062 14.6541 135.966 14.7009 135.853 14.7009C135.741 14.7009 135.645 14.6541 135.566 14.5606ZM136.619 14.5606C136.539 14.4626 136.499 14.349 136.499 14.2198C136.499 14.0907 136.539 13.9793 136.619 13.8858C136.698 13.7878 136.794 13.7388 136.906 13.7388C137.019 13.7388 137.115 13.7878 137.194 13.8858C137.274 13.9793 137.314 14.0907 137.314 14.2198C137.314 14.349 137.274 14.4626 137.194 14.5606C137.115 14.6541 137.019 14.7009 136.906 14.7009C136.794 14.7009 136.698 14.6541 136.619 14.5606Z" fill="black"/>
<path d="M138.832 15.182V16.9058H140.811V15.182H141.724V19.6385H140.811V17.6541H138.832V19.6385H137.919V15.182H138.832Z" fill="black"/>
<path d="M142.793 15.182H143.706V19.6385H142.793V15.182Z" fill="black"/>
<g filter="url(#filter0_d_3520_15608)">
<path d="M72.5396 23L78.2236 16.533C80.0796 14.3677 81.1816 13.024 81.5296 12.502C82.2836 11.3807 82.6606 10.3463 82.6606 9.399C82.6606 8.529 82.3802 7.82333 81.8196 7.282C81.2782 6.74067 80.6016 6.47 79.7896 6.47C78.8616 6.47 78.1269 6.789 77.5856 7.427C77.0442 8.04567 76.7542 8.79967 76.7156 9.689H72.8296C72.9069 7.73633 73.5739 6.17033 74.8306 4.991C76.0872 3.81167 77.6822 3.222 79.6156 3.222C81.7422 3.222 83.4049 3.831 84.6036 5.049C85.8216 6.267 86.4306 7.70733 86.4306 9.37C86.4306 10.298 86.2179 11.226 85.7926 12.154C85.3672 13.082 84.9612 13.7877 84.5746 14.271C84.1879 14.735 83.6369 15.3537 82.9216 16.127L79.5866 19.752H86.5756V23H72.5396ZM102.188 3.657V6.905H95.75L95.054 9.95C95.5567 9.87267 95.9917 9.834 96.359 9.834C98.4277 9.834 100.09 10.4817 101.347 11.777C102.488 12.937 103.058 14.4837 103.058 16.417C103.058 18.4663 102.401 20.1483 101.086 21.463C99.7713 22.7777 98.0023 23.435 95.779 23.435C94.097 23.435 92.705 23.1643 91.603 22.623C90.7717 22.217 89.9887 21.666 89.254 20.97L90.501 17.722C91.0617 18.476 91.7287 19.056 92.502 19.462C93.3913 19.9453 94.329 20.187 95.315 20.187C96.5523 20.187 97.5383 19.8003 98.273 19.027C98.9497 18.3117 99.288 17.374 99.288 16.214C99.288 15.112 98.911 14.2227 98.157 13.546C97.403 12.8887 96.3977 12.56 95.141 12.56C93.749 12.56 92.357 12.9757 90.965 13.807L93.256 3.657H102.188Z" fill="white"/>
</g>
<g filter="url(#filter1_d_3520_15608)">
<g filter="url(#filter2_d_3520_15608)">
<path d="M65.7623 0.5C68.5626 0.5 69.836 3.99664 67.6915 5.79742L61.8496 10.703C60.4219 11.9019 60.4219 14.099 61.8496 15.2979L67.6905 20.2026C69.8349 22.0034 68.5615 25.5 65.7612 25.5L4 25.5C2.34314 25.5 1 24.1569 1 22.5L1 3.5C1 1.84315 2.34315 0.5 4 0.5L65.7623 0.5Z" fill="#FFD71C"/>
</g>
<g filter="url(#filter3_d_3520_15608)">
<path d="M11.2507 8.42324H7.77025C7.94142 6.72071 8.59757 5.3912 9.73868 4.43472C10.8798 3.47824 12.2872 3 13.9608 3C15.7866 3 17.232 3.47824 18.2971 4.43472C19.3811 5.3912 19.9232 6.67288 19.9232 8.27977C19.9232 10.1353 19.1909 11.4744 17.7265 12.297C19.6664 13.1004 20.6364 14.6212 20.6364 16.8594C20.6364 18.7724 19.9897 20.274 18.6965 21.3644C17.4222 22.4548 15.8056 23 13.8467 23C11.9829 23 10.4138 22.4644 9.1396 21.3931C7.86535 20.3027 7.15215 18.8584 7 17.0603H10.7086C10.8227 17.8828 11.1556 18.5428 11.7071 19.0402C12.2587 19.5375 12.9814 19.7862 13.8752 19.7862C14.8642 19.7862 15.6154 19.4897 16.1289 18.8967C16.6615 18.2846 16.9277 17.5672 16.9277 16.7446C16.9277 15.9412 16.6615 15.2429 16.1289 14.6499C15.6154 14.0569 14.8262 13.7604 13.7611 13.7604H13.2762V11.0631H13.7897C14.6455 11.0631 15.2921 10.8144 15.7296 10.3171C16.167 9.80057 16.3857 9.17886 16.3857 8.45194C16.3857 7.68675 16.1575 7.07461 15.701 6.61549C15.2446 6.15638 14.636 5.92683 13.8752 5.92683C13.1715 5.92683 12.563 6.14682 12.0494 6.5868C11.555 7.02678 11.2887 7.63893 11.2507 8.42324Z" fill="white"/>
</g>
<path d="M25.6262 19.9819H24.6328V15.2856H27.9563V16.1707H25.6262V19.9999V19.9819Z" fill="black"/>
<path d="M32.5956 19.9819H31.4577L31.1687 19.1871H29.1457L28.8567 19.9819H27.7188L29.5431 15.2856H30.7894L32.5956 19.9819ZM30.8797 18.3021L30.1391 16.2791L29.3986 18.3021H30.8616H30.8797Z" fill="black"/>
<path d="M34.0247 19.9819H33.0312V15.2856H35.2349C35.7225 15.2856 36.1199 15.4301 36.3909 15.7191C36.6798 16.0081 36.8063 16.3694 36.8063 16.8029C36.8063 17.2364 36.6618 17.5976 36.3909 17.8866C36.1019 18.1756 35.7225 18.3201 35.2349 18.3201H34.0427V19.9999L34.0247 19.9819ZM35.0904 17.4351C35.289 17.4351 35.4516 17.3809 35.5961 17.2544C35.7225 17.1461 35.7948 16.9835 35.7948 16.7848C35.7948 16.5861 35.7225 16.4416 35.5961 16.3152C35.4697 16.2068 35.3071 16.1346 35.0904 16.1346H34.0247V17.3989H35.0904V17.4351Z" fill="black"/>
<path d="M41.3065 19.9819H40.1686L39.8796 19.1871H37.8566L37.5676 19.9819H36.4297L38.254 15.2856H39.5003L41.3065 19.9819ZM39.5906 18.3021L38.85 16.2791L38.1095 18.3021H39.5725H39.5906Z" fill="black"/>
<path d="M45.961 19.9819H44.9495V18.0131H42.7278V19.9819H41.7344V15.2856H42.7278V17.128H44.9495V15.2856H45.961V19.9819Z" fill="black"/>
<path d="M48.978 19.9794H47.9665V16.1502H46.5938V15.2651H50.3507V16.1502H48.978V19.9794Z" fill="black"/>
<path d="M51.9934 19.9819H51V15.2856H51.9934V19.9819Z" fill="black"/>
<path d="M53.0262 14.1465C53.1165 14.2368 53.1707 14.3451 53.1707 14.4896C53.1707 14.6341 53.1165 14.7425 53.0262 14.8328C52.9359 14.9231 52.8275 14.9773 52.683 14.9773C52.5385 14.9773 52.4301 14.9231 52.3398 14.8328C52.2495 14.7425 52.1953 14.6341 52.1953 14.4896C52.1953 14.3451 52.2495 14.2548 52.3398 14.1465C52.4301 14.0561 52.5385 14.002 52.683 14.002C52.8275 14.002 52.9178 14.0561 53.0262 14.1465ZM53.9293 19.9625H52.9359V15.2663H53.9293V19.9625ZM54.5073 14.1465C54.5976 14.2368 54.6518 14.3451 54.6518 14.4896C54.6518 14.6341 54.5976 14.7425 54.5073 14.8328C54.417 14.9231 54.3086 14.9773 54.1641 14.9773C54.0196 14.9773 53.9112 14.9231 53.8209 14.8328C53.7306 14.7425 53.6764 14.6341 53.6764 14.4896C53.6764 14.3451 53.7306 14.2548 53.8209 14.1465C53.9112 14.0561 54.0196 14.002 54.1641 14.002C54.3086 14.002 54.417 14.0561 54.5073 14.1465Z" fill="black"/>
<path d="M24.6328 6.1593H27.883C28.3339 6.1593 28.7174 6.22178 29.0337 6.34672C29.35 6.46542 29.6057 6.62472 29.8008 6.82463C30.0027 7.02454 30.1474 7.25569 30.2348 7.51807C30.3291 7.77421 30.3762 8.03659 30.3762 8.30522C30.3762 8.5801 30.3291 8.8456 30.2348 9.10174C30.1474 9.35788 30.0027 9.5859 29.8008 9.78581C29.6057 9.98572 29.35 10.1481 29.0337 10.2731C28.7174 10.3918 28.3339 10.4511 27.883 10.4511H26.2175V12.8501H24.6328V6.1593ZM27.449 9.3079C27.6307 9.3079 27.8056 9.2954 27.9738 9.27041C28.1421 9.24543 28.2901 9.19857 28.418 9.12985C28.5458 9.05489 28.6468 8.95181 28.7208 8.82062C28.8015 8.68942 28.8419 8.51763 28.8419 8.30522C28.8419 8.09282 28.8015 7.92102 28.7208 7.78983C28.6468 7.65863 28.5458 7.55868 28.418 7.48996C28.2901 7.41499 28.1421 7.36502 27.9738 7.34003C27.8056 7.31504 27.6307 7.30254 27.449 7.30254H26.2175V9.3079H27.449Z" fill="black"/>
<path d="M34.5953 13C34.0367 13 33.5388 12.9125 33.1014 12.7376C32.664 12.5564 32.2939 12.3097 31.9911 11.9973C31.6883 11.685 31.4561 11.3195 31.2946 10.9009C31.1331 10.4761 31.0524 10.0201 31.0524 9.5328C31.0524 9.03927 31.1331 8.57697 31.2946 8.14592C31.4561 7.71486 31.6883 7.34003 31.9911 7.02142C32.2939 6.70281 32.664 6.45292 33.1014 6.27175C33.5388 6.09058 34.0367 6 34.5953 6C35.1471 6 35.6417 6.09058 36.0791 6.27175C36.5232 6.45292 36.8966 6.70281 37.1995 7.02142C37.5023 7.34003 37.7344 7.71486 37.8959 8.14592C38.0574 8.57697 38.1382 9.03927 38.1382 9.5328C38.1382 10.0201 38.0574 10.4761 37.8959 10.9009C37.7344 11.3195 37.5023 11.685 37.1995 11.9973C36.8966 12.3097 36.5232 12.5564 36.0791 12.7376C35.6417 12.9125 35.1471 13 34.5953 13ZM34.5953 11.7724C34.9519 11.7724 35.2547 11.71 35.5037 11.585C35.7527 11.4538 35.9546 11.282 36.1093 11.0696C36.2641 10.8572 36.3751 10.6198 36.4424 10.3574C36.5164 10.0888 36.5535 9.81392 36.5535 9.5328C36.5535 9.23918 36.5164 8.95493 36.4424 8.68005C36.3751 8.40518 36.2641 8.16153 36.1093 7.94913C35.9546 7.73048 35.7527 7.55868 35.5037 7.43373C35.2547 7.30254 34.9519 7.23695 34.5953 7.23695C34.2386 7.23695 33.9358 7.30254 33.6868 7.43373C33.4379 7.55868 33.236 7.73048 33.0812 7.94913C32.9264 8.16153 32.812 8.40518 32.738 8.68005C32.6707 8.95493 32.6371 9.23918 32.6371 9.5328C32.6371 9.81392 32.6707 10.0888 32.738 10.3574C32.812 10.6198 32.9264 10.8572 33.0812 11.0696C33.236 11.282 33.4379 11.4538 33.6868 11.585C33.9358 11.71 34.2386 11.7724 34.5953 11.7724Z" fill="black"/>
<path d="M39.2214 6.1593H40.8062V8.83936L43.6223 6.1593H45.6007L42.4918 8.96118L45.8732 12.8501H43.8848L41.3411 9.87952L40.8062 10.4137V12.8501H39.2214V6.1593Z" fill="black"/>
<path d="M46.5059 6.1593H48.0805V10.7979H48.1108L50.8563 6.1593H52.6328V12.8501H51.0582V8.20214H51.0279L48.2824 12.8501H46.5059V6.1593Z" fill="black"/>
</g>
<defs>
<filter id="filter0_d_3520_15608" x="71.5391" y="3.22217" width="32.5156" height="22.2129" filterUnits="userSpaceOnUse" color-interpolation-filters="sRGB">
<feFlood flood-opacity="0" result="BackgroundImageFix"/>
<feColorMatrix in="SourceAlpha" type="matrix" values="0 0 0 0 0 0 0 0 0 0 0 0 0 0 0 0 0 0 127 0" result="hardAlpha"/>
<feOffset dy="1"/>
<feGaussianBlur stdDeviation="0.5"/>
<feComposite in2="hardAlpha" operator="out"/>
<feColorMatrix type="matrix" values="0 0 0 0 0 0 0 0 0 0 0 0 0 0 0 0 0 0 0.25 0"/>
<feBlend mode="normal" in2="BackgroundImageFix" result="effect1_dropShadow_3520_15608"/>
<feBlend mode="normal" in="SourceGraphic" in2="effect1_dropShadow_3520_15608" result="shape"/>
</filter>
<filter id="filter1_d_3520_15608" x="0" y="0" width="75" height="28" filterUnits="userSpaceOnUse" color-interpolation-filters="sRGB">
<feFlood flood-opacity="0" result="BackgroundImageFix"/>
<feColorMatrix in="SourceAlpha" type="matrix" values="0 0 0 0 0 0 0 0 0 0 0 0 0 0 0 0 0 0 127 0" result="hardAlpha"/>
<feOffset dy="1"/>
<feGaussianBlur stdDeviation="0.5"/>
<feComposite in2="hardAlpha" operator="out"/>
<feColorMatrix type="matrix" values="0 0 0 0 0 0 0 0 0 0 0 0 0 0 0 0 0 0 0.25 0"/>
<feBlend mode="normal" in2="BackgroundImageFix" result="effect1_dropShadow_3520_15608"/>
<feBlend mode="normal" in="SourceGraphic" in2="effect1_dropShadow_3520_15608" result="shape"/>
</filter>
<filter id="filter2_d_3520_15608" x="1" y="0.5" width="69.7656" height="27" filterUnits="userSpaceOnUse" color-interpolation-filters="sRGB">
<feFlood flood-opacity="0" result="BackgroundImageFix"/>
<feColorMatrix in="SourceAlpha" type="matrix" values="0 0 0 0 0 0 0 0 0 0 0 0 0 0 0 0 0 0 127 0" result="hardAlpha"/>
<feOffset dx="1" dy="1"/>
<feGaussianBlur stdDeviation="0.5"/>
<feComposite in2="hardAlpha" operator="out"/>
<feColorMatrix type="matrix" values="0 0 0 0 0 0 0 0 0 0 0 0 0 0 0 0 0 0 0.25 0"/>
<feBlend mode="normal" in2="BackgroundImageFix" result="effect1_dropShadow_3520_15608"/>
<feBlend mode="normal" in="SourceGraphic" in2="effect1_dropShadow_3520_15608" result="shape"/>
</filter>
<filter id="filter3_d_3520_15608" x="7" y="3" width="15.6328" height="22" filterUnits="userSpaceOnUse" color-interpolation-filters="sRGB">
<feFlood flood-opacity="0" result="BackgroundImageFix"/>
<feColorMatrix in="SourceAlpha" type="matrix" values="0 0 0 0 0 0 0 0 0 0 0 0 0 0 0 0 0 0 127 0" result="hardAlpha"/>
<feOffset dx="1" dy="1"/>
<feGaussianBlur stdDeviation="0.5"/>
<feComposite in2="hardAlpha" operator="out"/>
<feColorMatrix type="matrix" values="0 0 0 0 0 0 0 0 0 0 0 0 0 0 0 0 0 0 0.25 0"/>
<feBlend mode="normal" in2="BackgroundImageFix" result="effect1_dropShadow_3520_15608"/>
<feBlend mode="normal" in="SourceGraphic" in2="effect1_dropShadow_3520_15608" result="shape"/>
</filter>
</defs>
</svg>
