<?xml version="1.0" encoding="utf-8"?>
<!-- Generator: Adobe Illustrator 26.1.0, SVG Export Plug-In . SVG Version: 6.00 Build 0)  -->
<svg version="1.1" id="Слой_1" xmlns="http://www.w3.org/2000/svg" xmlns:xlink="http://www.w3.org/1999/xlink" x="0px" y="0px"
	 viewBox="0 0 512 512" style="enable-background:new 0 0 512 512;" xml:space="preserve">
<style type="text/css">
	.st0{fill:none;}
	.st1{fill:#7F96A3;}
</style>
<g>
	<path class="st0" d="M174.6,337.9l-15-14.9c-1.6-0.2-3.1-0.6-4.5-0.9c-0.8-0.2-1.5-0.3-2.3-0.5l-0.2,2.5h0l0,0l-9.2,0.3l-0.3,9.5h0
		v0l-9.1,0.4l-0.4,0l-0.3,9.3h0v0l-9.6,0.5l-0.4,10l-9.4,0.3l-0.2,9.1l-2,0.1c1.3,3.6,2.6,7.1,3.9,10.7c0.3,0.8,0.6,1.7,0.8,2.5
		c0.1,0.3,0.2,0.6,0.2,0.9c0.2,0.9,0.4,1.9,0.5,2.8c1.5,0,3.1,0.2,4.6,0.5c0,0,0,0,0,0c1.5,0.3,3.1,0.8,4.7,1.4
		c2,0.8,4.1,1.5,6.2,2.3c0.1,0,0.2,0.1,0.3,0.1l0.1-1.7l7.4-0.4l-1.3-9.7l13.4-0.5l0.4-9.6h0v0l9.4-0.4l0.4-9.5l9.5-0.4l0.4-9.6h0v0
		l2.4-0.1c-0.1-0.9-0.3-1.7-0.3-2.5C174.7,339.6,174.6,338.7,174.6,337.9z"/>
	<path class="st0" d="M238.3,251.9c-0.1,0-0.1,0-0.2,0c-0.4,0.2-0.9,0.3-1.3,0.4c-2.6,0.7-5,1-7.1,1c-2.1,0-4.2-0.2-6.4-0.7
		c-0.4-0.1-0.7-0.2-1.1-0.3c-1.3-0.3-2.6-0.7-4-1.2c-3.9-1.4-7.9-2.9-11.8-4.2c-5.2-1.8-10.3-3.6-15.7-5.4l-4.2,12.6l-3.8,11.3
		l6.4,2.3l0.6,0.2l26.9,9.4l5.5-5.6l24.3-24.4C243.8,249.4,241,250.9,238.3,251.9z"/>
	<path class="st1" d="M193.2,341.7c-0.1-0.4-0.2-0.8-0.3-1.2c-0.3-1.6-0.4-3.2-0.4-4.8c0-0.8,0-1.6-0.1-2.5c0-0.4,0-0.8-0.1-1.2
		c0.5-0.1,1-0.2,1.5-0.3l0,0c-3.5-3.5-7-6.9-10.4-10.3c-1.1-1.1-2.3-2.2-3.4-3.3c-1.7-1.6-3.3-3.2-4.9-4.8c-2.7-2.6-5.2-5.1-7.6-7.5
		c-2.4-0.1-4.6-0.3-6.7-0.7c-1.4-0.3-2.8-0.6-4.1-1c-1.3-0.4-2.7-0.8-3.9-1.2s-2.5-0.9-3.8-1.3c-0.6-0.2-1.2-0.5-1.9-0.7
		c-3.7-1.4-7.3-2.7-11.1-3.4c0,0.1,0,0.2,0,0.3c-0.2,3-0.4,6-0.5,9.1c-0.8,0-1.6,0.1-2.4,0.1c-0.8,0-1.6,0.1-2.5,0.1
		c-0.8,0-1.6,0.1-2.3,0.1c-0.8,0-1.6,0.1-2.4,0.1c0,0,0,0.1,0,0.1c-0.1,3.3-0.2,6.3-0.3,9.5c-2.5,0.1-4.8,0.2-7.2,0.3
		c-0.8,0-1.5,0.1-2.3,0.1c0,0.4,0,0.8,0,1.2c-0.1,2.8-0.2,5.4-0.3,8.3c-3.2,0.2-6.3,0.3-9.6,0.5c0,0.8-0.1,1.7-0.1,2.5
		c-0.1,1.6-0.1,3.2-0.2,4.8c0,0.8-0.1,1.6-0.1,2.3c-0.9,0-1.7,0.1-2.6,0.1c-0.8,0-1.6,0.1-2.4,0.1c-1.6,0.1-3.1,0.1-4.6,0.1
		c0,1.7-0.1,3.4-0.1,4.9c0,0.8,0,1.5-0.1,2.3c0,0.8,0,1.5-0.1,2.3c-3.2,0.2-6.1,0.3-9.5,0.5v0c2.1,5.8,4.1,11.4,6.1,17
		c2,5.6,4,11.1,6.1,16.6c0.1,0.2,0.2,0.5,0.2,0.7c0.1,0.4,0.2,0.9,0.3,1.3c0,0.3,0.1,0.6,0.1,0.9c0,0.9-0.3,1.7-0.8,2.5
		c-0.3,0.5-0.8,1.1-1.3,1.6c-10,10-20,20.1-29.9,30.2c-10,10.1-19.9,20.2-29.9,30.2c-1.5,1.5-2.9,3-4.4,4.5c0.2,0.3,0.3,0.6,0.5,0.9
		c0.4,0.9,0.7,1.6,1.2,2.2c1.9,1.9,3.8,3.9,5.8,5.8c5.8,5.8,11.6,11.6,17.5,17.2c0.4,0.4,1,0.8,1.6,1.2c0.3,0.2,0.6,0.3,0.9,0.5
		c0.6,0.3,1.2,0.5,1.8,0.6c0.3,0.1,0.6,0.1,1,0.1c0,0,0,0,0,0h0c0.2,0,0.4,0,0.5,0c0.6-0.1,1.3-0.2,1.8-0.2c4.1,0,6.5,2.9,9.2,5.5
		c0,0,0,0,0,0c0.2,0.2,0.4,0.4,0.5,0.5c1.2,1.1,2.4,2.2,3.7,3.4c0.1,0.1,0.1,0.1,0.2,0.2c1.4-1.5,2.8-2.8,4.2-4.2
		c0.7-0.7,1.4-1.4,2.1-2.1c0.7-0.7,1.4-1.4,2.2-2.2l0,0c-1.1-0.9-2.1-1.8-3.1-2.7c-3.9-3.6-6.9-7.6-7.3-13.2c0-0.5,0-0.9,0-1.4
		c0-0.2,0-0.4-0.1-0.6c-0.2-0.6-0.6-1.3-1.1-2c-0.5-0.7-1.1-1.3-1.7-1.9c-0.2-0.2-0.4-0.4-0.6-0.6c-1.6-1.6-3.2-3.2-4.8-4.9
		c-1.7-1.6-3.4-3.3-5.3-5.2c0.5-0.5,0.9-0.9,1.3-1.3c1.3-1.3,2.3-2.4,3.4-3.5c14.1-14.2,28.4-28.3,42.3-42.8c2-2.1,3.8-3.2,6-3.2
		c0.7,0,1.5,0.1,2.3,0.4c0.4,0.1,0.8,0.2,1.2,0.4c7.3,2.8,14.8,5.3,22.4,7.9c2.5,0.9,5.1,1.7,7.7,2.6c0-1.3,0.1-2.6,0.1-3.8
		c0-0.8,0.1-1.6,0.1-2.3c0-0.8,0.1-1.5,0.1-2.3c0-0.4,0-0.8,0-1.1c0.9,0,1.7-0.1,2.6-0.1c2.5-0.1,5-0.3,7.8-0.4
		c-0.3-2.4-0.6-4.6-0.9-7c-0.1-0.8-0.2-1.6-0.3-2.4c1,0,2-0.1,2.9-0.1c1.8-0.1,3.4-0.1,5-0.2c0.4,0,0.8,0,1.2,0c0.4,0,0.8,0,1.2,0v0
		h0c0-0.8,0.1-1.6,0.1-2.4c0.1-1.6,0.1-3.2,0.2-4.9c0-0.8,0.1-1.5,0.1-2.3c0.8,0,1.6-0.1,2.4-0.1c1.5-0.1,3-0.1,4.6-0.2
		c0.8,0,1.6-0.1,2.4-0.1c0.1-3.3,0.3-6.4,0.4-9.6c0.8,0,1.6-0.1,2.4-0.1c1.6-0.1,3.1-0.1,4.7-0.2c0.8,0,1.6-0.1,2.4-0.1
		c0-0.8,0.1-1.6,0.1-2.3c0-0.8,0.1-1.7,0.1-2.5c0-0.8,0.1-1.6,0.1-2.4s0.1-1.6,0.1-2.4c3.3-0.2,6.3-0.3,9.5-0.5
		c-0.3-0.8-0.6-1.6-0.8-2.3C196.8,352.1,194.8,347,193.2,341.7z M172.7,343.2L172.7,343.2L172.7,343.2l-0.4,9.6l-9.5,0.4l-0.4,9.5
		l-9.4,0.4v0h0l-0.4,9.6l-13.4,0.5l1.3,9.7l-7.4,0.4l-0.1,1.7c-0.1,0-0.2-0.1-0.3-0.1c-2.1-0.8-4.1-1.5-6.2-2.3
		c-1.6-0.6-3.2-1.1-4.7-1.4c0,0,0,0,0,0c-1.6-0.3-3.1-0.5-4.6-0.5c-0.1-0.9-0.3-1.9-0.5-2.8c-0.1-0.3-0.1-0.6-0.2-0.9
		c-0.2-0.8-0.5-1.7-0.8-2.5c-1.3-3.6-2.6-7.1-3.9-10.7l2-0.1l0.2-9.1l9.4-0.3l0.4-10l9.6-0.5v0h0l0.3-9.3l0.4,0l9.1-0.4v0h0l0.3-9.5
		l9.2-0.3l0,0h0l0.2-2.5c0.7,0.2,1.5,0.4,2.3,0.5c1.5,0.3,3,0.7,4.5,0.9l15,14.9c0,0.8,0.1,1.7,0.2,2.6c0.1,0.8,0.2,1.7,0.3,2.5
		L172.7,343.2z"/>
	<path class="st1" d="M255.7,216.9c-0.8-0.8-1.6-1.2-2.3-1.2c-0.8,0-1.5,0.5-2.3,1.1c-0.2,0.2-0.5,0.5-0.7,0.7
		c-3.4,3.5-7,6.8-10.4,10.3c-0.6,0.6-1.1,1.2-1.6,1.8s-1.1,1.2-1.6,1.8c-2.2,2.6-4.3,3.8-6.8,3.8c-0.1,0-0.2,0-0.3,0c0,0,0,0-0.1,0
		c-1.6,0-3.2-0.4-5.1-1.1c-11.1-4.1-22.3-7.9-33.7-11.7c-3.8-1.3-7.6-2.6-11.4-3.9c-6.5,19.5-12.8,38.5-19.2,57.9
		c8,2.8,15.3,5.4,23.7,8.3c-0.5,0.5-1,1-1.5,1.5c-0.5,0.5-0.9,1-1.4,1.4c-0.9,0.9-1.8,1.8-2.6,2.7c-1.7,1.7-3.3,3.3-5,4.8
		c-0.9,0.8-1.6,1.5-2.1,2.2c-0.2,0.2-0.3,0.5-0.4,0.7c-0.1,0.3-0.2,0.6-0.3,0.9c0,0.2-0.1,0.3-0.1,0.5c0,0.3,0,0.7,0.1,1.1
		c0.1,0.2,0.1,0.4,0.2,0.5c0.4,0.9,1.2,1.9,2.3,2.9c2.9,2.6,5.8,5.4,8.6,8.2c1.4,1.4,2.8,2.8,4.2,4.2s2.8,2.8,4.2,4.2
		c1.3,1.3,2.6,2.5,3.8,3.8c1.3,1.3,2.6,2.5,3.8,3.8h0c3.6-3.6,7.2-7.2,10.7-10.8c24.7-24.9,49-49.5,73.5-74.2
		c-3.4-3.4-6.7-6.7-10-9.9C266.6,227.7,261.1,222.3,255.7,216.9z M216.7,277.2l-26.9-9.4l-0.6-0.2l-6.4-2.3l3.8-11.3l4.2-12.6
		c5.3,1.8,10.5,3.6,15.7,5.4c4,1.4,7.9,2.8,11.8,4.2c1.4,0.5,2.7,0.9,4,1.2c0.4,0.1,0.7,0.2,1.1,0.3c2.2,0.5,4.3,0.7,6.4,0.7
		c2.1,0,4.5-0.2,7.1-1c0.4-0.1,0.9-0.3,1.3-0.4c0.1,0,0.1,0,0.2,0c2.7-0.9,5.5-2.5,8.2-4.7l-24.3,24.4L216.7,277.2z"/>
	<path class="st1" d="M473.2,77.5c-0.4-0.5-0.7-0.9-1-1.4c-0.4-0.6-0.7-1.1-1-1.7c-0.3-0.7-0.6-1.5-0.8-2.4
		c-0.3-1.3-0.3-2.6-0.1-4.2c0.1-0.4,0-0.8-0.2-1.3c-0.3-0.9-1-1.8-1.6-2.4c-2.2-2.2-4.5-4.5-6.7-6.7c-4.5-4.5-9-8.9-13.5-13.4
		c-2.3-2.2-4.6-4.5-6.8-6.8h0c-0.4,0.4-0.8,0.7-1.2,1.1s-0.7,0.7-1.1,1c-0.7,0.6-1.3,1.2-1.9,1.8c0,0,0,0,0,0l0,0
		c-4.7,4.7-9.3,9.4-14,14.2c-14,14.2-28,28.3-42.1,42.4c-0.2,0.2-0.4,0.4-0.6,0.5c-0.8,0.6-1.7,1.2-2.7,1.6
		c-0.2,0.1-0.3,0.1-0.5,0.2c-0.4,0.1-0.8,0.2-1.1,0.3c-0.1,0-0.2,0-0.2,0c-0.2,0-0.5,0.1-0.7,0.1c-0.1,0-0.2,0-0.3,0
		c-0.6,0-1.1-0.1-1.7-0.1c-4.2,0-7.7,1.3-10.8,4c-0.4,0.4-0.8,0.8-1.2,1.2c-1.8,1.9-3.7,3.8-5.5,5.7c-1.9,1.9-3.7,3.7-5.6,5.6
		c-3.7,3.7-7.3,7.4-10.9,11.1c-0.1,0.1-0.1,0.1-0.2,0.2c-1.8,1.9-3.5,2.8-5.5,2.8c-0.3,0-0.5,0-0.8,0c-0.8-0.1-1.6-0.3-2.5-0.7
		c-2.9-1.1-5.8-2.2-8.7-3.2c-4.2-1.5-8.5-2.9-12.8-4.4v0h0c-0.1,2.6-0.2,4.9-0.3,7.3c0,0.8-0.1,1.5-0.1,2.3
		c-3.4,0.2-6.5,0.4-9.7,0.6c-0.1,2.5-0.1,4.8-0.2,7.1c0,0.8,0,1.5-0.1,2.3c-1.7,0.1-3.3,0.2-4.9,0.3c-1.6,0.1-3.1,0.2-4.7,0.3
		c-0.1,3.4-0.2,6.3-0.3,9.4c-1.7,0.1-3.3,0.2-4.9,0.3s-3.1,0.2-4.7,0.3c0,0.8,0,1.7-0.1,2.5c-0.1,2.4-0.1,4.6-0.2,6.9
		c-3.5,0.2-6.4,0.3-9.6,0.5c0,0.8-0.1,1.6-0.1,2.4c-0.1,1.6-0.2,3.2-0.2,4.8c0,0.8-0.1,1.6-0.1,2.4c-2.4,0.1-4.5,0.2-6.8,0.3
		c-0.8,0-1.6,0.1-2.4,0.1c0.1,0.4,0.3,0.9,0.4,1.3c0.2,0.8,0.4,1.6,0.7,2.3c0.1,0.4,0.3,0.7,0.4,1c0.6,1.3,1.2,2.6,1.8,3.9
		c0.1,0.2,0.2,0.5,0.3,0.7c0.1,0.3,0.3,0.7,0.4,1c0.4,1,0.7,2,0.9,2.9c0.1,0.5,0.2,1,0.3,1.5c0.2,1.1,0.3,2.2,0.2,3.2
		c0,0.5-0.1,1.1-0.1,1.6c0,0.3-0.1,0.6-0.2,0.9c-0.1,0.5-0.2,0.9-0.4,1.4c-0.3,0.8-0.6,1.5-1.1,2.3c-0.1,0.2-0.3,0.5-0.5,0.7
		c-1.2,1.7-2.9,3.4-5.2,4.9v0c0.9,1.4,1.9,2.9,2.9,4.4c-0.6,0.8-1.1,1.6-1.6,2.4c-0.5,0.8-1.1,1.6-1.7,2.4
		c9.6,9.5,19,18.8,28.5,28.2c1.7-1.3,3.2-2.5,4.9-3.8c1.4,1.8,2.8,2.6,4,2.6c1,0,1.9-0.5,2.8-1.3c0.5-0.5,1.1-1.1,1.6-1.8
		c0.6-0.8,1.5-1.5,2.2-2.2c0.2-0.3,0.5-0.5,0.7-0.8c1-1.4,2-2.1,3.2-2.4c0.4-0.1,0.8-0.1,1.2-0.1c0.8,0,1.6,0.2,2.5,0.5
		c0.3,0.1,0.6,0.2,0.9,0.3c3.5,1.5,7.1,2.6,10.9,3.8c0.8,0.2,1.5,0.5,2.3,0.8c0.1-3.3,0.3-6.3,0.4-9.4c0.8,0,1.7-0.1,2.5-0.1
		c1.6-0.1,3.2-0.2,4.7-0.3c0.8,0,1.5-0.1,2.3-0.1v0h0c0-0.8,0-1.6,0.1-2.4c0.1-2.4,0.1-4.6,0.2-7c2.5-0.2,4.9-0.3,7.2-0.4
		c0.8,0,1.6-0.1,2.5-0.1c0.1-2.5,0.1-4.8,0.2-7.1c0-0.8,0-1.5,0.1-2.3c0.9,0,1.7-0.1,2.5-0.1c2.5-0.1,4.8-0.3,7.1-0.4
		c0-0.9,0-1.7,0.1-2.5c0-1.6,0.1-3.1,0.1-4.7c0-0.8,0-1.5,0.1-2.3c1.8-0.1,3.4-0.2,5.2-0.3c0.4,0,0.9-0.1,1.4-0.1
		c0.9-0.1,1.9-0.1,3-0.2c0.5,0,1.1-0.1,1.6-0.1c-0.2-0.8-0.4-1.6-0.5-2.4c-0.2-0.8-0.3-1.6-0.5-2.3c-0.3-1.5-0.7-3.1-1-4.7
		c2-0.1,3.8-0.2,5.5-0.3c1.7-0.1,3.3-0.2,5-0.2c-0.4-1.2-0.9-2.5-1.3-3.7c-0.7-2.1-1.5-4.2-2.2-6.2c-1.1-3.3-2.3-6.5-3.6-9.6
		c-0.6-1.6-0.9-2.9-0.6-4.1c0.1-0.3,0.2-0.7,0.3-1c0.1-0.3,0.3-0.6,0.5-0.9c0.4-0.6,0.9-1.2,1.5-1.8c2.5-2.4,5.1-4.9,7.6-7.3
		c4.5-4.4,8.9-8.8,13.1-13.4c1-1.1,2-2.2,3-3.4c1-1.2,1.9-2.6,2.6-4.1c0.2-0.5,0.4-1,0.6-1.6c0.2-0.6,0.4-1.3,0.6-2
		c0.4-1.5,0.7-3.1,0.8-4.6c0.1-0.8,0.2-1.6,0.3-2.3c0.2-1.1,0.5-2,1-2.9c0.5-0.9,1.1-1.7,1.9-2.5c12.8-12.8,25.5-25.7,38.3-38.6
		c0,0,0,0,0.1-0.1c1.2-1.2,2.5-2.3,4.2-3.9c0.7,0.7,1.4,1.4,2,2.1s1.3,1.4,2,2c1.3,1.3,2.6,2.6,4,3.7c1.1,0.9,2.3,1.9,3.5,2.8
		c0.1,0.1,0.3,0.2,0.4,0.3c0.2,0.1,0.4,0.3,0.6,0.4c0.1,0.1,0.3,0.2,0.4,0.2c0.9,0.5,1.8,0.8,2.6,0.8h0h0c0.1,0,0.2,0,0.3,0
		c0.4,0,0.9-0.1,1.3-0.1c0,0,0,0,0,0c3.9,0,6.2,2.1,8.6,4.4c0.4,0.4,0.7,0.7,1.1,1.1c0.2,0.2,0.4,0.4,0.6,0.5
		c1.2,1.2,2.5,2.2,3.9,3.5c0,0,0.1,0.1,0.1,0.1c1.4-1.4,2.7-2.8,4.1-4.1c1.4-1.4,2.7-2.8,4.2-4.2C478.1,82.3,475.3,80.1,473.2,77.5z
		 M340.1,174.9l-0.2,9.1l-9.4,0.3l-0.4,10l-9.6,0.5l-0.3,9.3l-9.5,0.4l-0.3,9.5l-9.2,0.3l-0.2,2.5c-2.1-0.6-4.4-1.1-6.8-1.4
		l-15-14.9c-0.1-1.6-0.2-3.3-0.5-5.2l2.4-0.1l0.4-9.6l9.5-0.4l0.4-9.5l9.4-0.4l0.4-9.6l13.4-0.5l-1.3-9.7l7.4-0.4l0.1-1.7
		c2.2,0.8,4.4,1.6,6.5,2.4c3.2,1.2,6.3,1.9,9.3,1.9c0.3,2,0.8,4.1,1.5,6.2c1.3,3.6,2.6,7.1,3.9,10.7L340.1,174.9z"/>
	<path class="st1" d="M131.7,250.3c-0.2,0.6-0.3,1.1-0.5,1.7c-0.3,1.1-0.6,2-0.9,2.9c-0.1,0.5-0.3,0.9-0.4,1.4
		c-0.3,1-0.4,1.9-0.4,2.8c0,0.3,0,0.6,0,0.9c0.1,0.9,0.2,1.7,0.5,2.5c0.2,0.5,0.4,1,0.7,1.5c0.1,0.2,0.3,0.5,0.5,0.7
		c0.2,0.2,0.3,0.4,0.5,0.6c0.2,0.2,0.4,0.4,0.6,0.6c0.9,0.8,1.9,1.4,3.2,1.9c0.4,0.1,0.7,0.3,1.1,0.4c4.8,1.9,9.8,3.4,15.1,5.3h0
		c6.5-19.4,12.8-38.4,19.1-57.3c-0.1-0.1-0.3-0.2-0.4-0.3c-0.6-0.4-0.9-0.7-1.2-0.9c-0.1-0.1-0.2-0.1-0.4-0.2
		c-2.1-0.7-4.1-1.5-6.2-2.2c-2.1-0.7-4.1-1.4-6.2-2.1c-1.7-0.6-3.3-0.8-4.7-0.8c-3.3,0-5.8,1.6-7.6,4.8c-0.5,0.8-0.9,1.8-1.3,2.8
		c-0.2,0.5-0.4,1-0.6,1.5c-0.2,0.5-0.4,1-0.6,1.6c-0.1,0.4-0.3,0.8-0.5,1.3c-1-0.3-2-0.7-3-1c-1-0.3-2-0.7-2.9-1
		c-2.9-1-5.8-1.9-8.7-2.9s-5.8-1.9-8.7-2.9c-1.1,3.2-2.1,6.3-3.1,9.4c-2.1,6.2-4.1,12.4-6.2,18.7c5.9,2.1,11.6,4.1,17.4,6.2
		C127.9,248.9,129.8,249.6,131.7,250.3z"/>
</g>
</svg>
