<?xml version="1.0" encoding="utf-8"?>
<!-- Generator: Adobe Illustrator 26.1.0, SVG Export Plug-In . SVG Version: 6.00 Build 0)  -->
<svg version="1.1" id="Слой_1" xmlns="http://www.w3.org/2000/svg" xmlns:xlink="http://www.w3.org/1999/xlink" x="0px" y="0px"
	 viewBox="0 0 40 40" style="enable-background:new 0 0 40 40;" xml:space="preserve">
<style type="text/css">
	.st0{fill:#FFD71C;}
	.st1{fill:#010101;}
</style>
<circle class="st0" cx="13.7" cy="26.6" r="11"/>
<path class="st1" d="M35.3,6.6c0-0.1,0-0.3,0-0.4c-0.1-0.3-0.3-0.5-0.5-0.6l-1.4-1.4C33.2,4,33,4,32.8,4.1c-0.4,0.4-0.8,0.9-1.2,1.3
	C31.1,6,30,7.3,29.4,7.9C29,8.6,28.5,8.1,28,8.7c0.2-0.2,0.5-0.3,0.8-0.3c0.3,0.1,0.6-0.2,0.8-0.4l1.3-1.1c0.6-0.6,1.6-1.4,2.3-2
	c0.5,0.4,1.3,1.3,1.5,1.4c0,0.4,0.3,0.8,0.6,1.1c0,0.1,0,0.1-0.1,0.1c-0.1-0.1-0.2-0.3-0.2-0.3C34.7,7.2,34.4,7,34.2,7
	c-0.1,0-0.2,0-0.1,0c0,0-0.2-0.1-0.3-0.3c-0.2-0.3-0.6-0.8-1-0.5c-1,1-2,1.9-2.9,3c-0.2,0.3-0.1,0.7-0.3,1c-0.2,0.3-0.9,1-1.1,1.2
	c-0.2,0.2-0.7,0.6-0.5,1c0.1,0.4,0.2,0.8,0.5,1.1c-0.1,0-0.3-0.1-0.3-0.1c0,0-0.2,0.1-0.2,0.1c-0.2,0.1-0.1,0.4,0.1,0.6
	c-0.2,0-0.5-0.1-0.6,0c-0.3,0.1-0.1,0.4-0.1,0.7c-0.2-0.1-0.5-0.1-0.6-0.1c-0.3,0.1-0.2,0.5-0.1,0.7c-0.2,0-0.5-0.1-0.5,0
	c-0.3,0-0.2,0.4-0.1,0.7c-0.1,0-0.3,0-0.4,0.1l-0.1,0.2c-0.1,0.1-0.2,0.2-0.2,0.3c-0.1,0-0.1-0.1-0.1-0.1c-0.2-0.1-0.4-0.2-0.7-0.2
	c-0.3,0.1-0.4,0.3-0.6,0.4c0,0,0,0,0,0c0,0,0,0,0,0l0,0l0,0c-0.2-0.2-0.3-0.1-0.5,0c-0.4-0.4-1.2-1.2-1.5-1.5c0,0,0-0.1,0-0.1l0,0
	c0.1-0.1,0-0.2-0.1-0.3c0.8-0.2,0.8-1.2,0.3-1.8c0.2,0,0.4,0,0.4-0.2l0-0.4c0.3,0.1,0.7,0.2,0.7-0.2L23,11.9l0.4,0.1c0,0,0,0,0,0
	c0.2,0,0.3-0.1,0.3-0.3l-0.1-0.4c0.2,0.1,0.5,0.2,0.6,0.1c0.3-0.1,0.1-0.5,0-0.8c0.2,0,0.4,0.1,0.4,0.1c0.3,0.1,0.3-0.2,0.3-0.5
	c0.5,0.4,1.1,0.8,1.8,0.6c0.5-0.3,0.6-0.5,0.7-1.1c-0.1-0.5-1,0-1.1,0.2c-0.5-0.1-1-0.2-1.5-0.2c-0.1,0-0.2,0.1-0.2,0.2
	c0,0,0,0.2-0.1,0.4c-0.2,0.1-0.5,0.1-0.6,0.3l-0.1,0.3c-0.2,0.1-0.5,0.2-0.5,0.3c0,0,0,0,0,0l-0.1,0.3l-0.4,0.1l0,0
	c-0.1,0-0.1,0.3-0.2,0.5c-0.2,0.1-0.6,0.1-0.5,0.2c0,0,0,0,0,0c0,0,0,0.2-0.1,0.4c-0.2,0-0.4,0.1-0.4,0.1c-0.1,0-0.2,0.1-0.1,0.2
	c-0.1,0.7,0.2,0.9-0.1,1.7l-0.1,0.2c0,0,0,0,0,0c0,0,0,0,0,0c0,0,0,0.1,0.1,0.1c-0.1,0-0.2,0.1-0.2,0.1c-0.1,0-0.2,0-0.4,0
	c-0.5,0.2-0.7,1-1.3,1.1c-0.7,0.1-2.4-0.8-3.1-1c-0.1-0.1-0.2,0.1-0.3,0.3c-0.1-0.1-0.2-0.2-0.3-0.3c-0.6-0.1-1.4-0.6-1.8,0
	c-0.1,0.1-0.2,0.3-0.2,0.4c-0.4-0.1-1.2-0.3-1.2-0.3c-0.1,0-0.2,0-0.2,0.1L12,16.7c0,0,0.3-0.7,0.5-0.9c0.2,0.1,1.3,0.5,1.3,0.5
	c0.1,0.1,0.3,0,0.3-0.2c0.1-0.3,0.1-0.6,0.5-0.5c0.2,0,0.5,0.2,0.7,0.3c-0.4,1-0.7,2-1.1,3c-0.1,0-0.2-0.1-0.2-0.1
	c-0.3-0.1-0.6-0.1-0.7-0.4c0-0.2,0.3-0.7-0.1-0.8l-1.5-0.3c0,0-0.1,0.1,0,0.1L13,18c-0.1,0.4-0.2,1,0.3,1.2c0.4,0.2,0.8,0.3,1.2,0.5
	c0.2,0.1,0.3,0,0.4-0.1c0,0.2,0,0.4,0.2,0.5c0.2,0.1,0.5,0.2,0.7,0.3c0,0.1-0.1,0.1-0.1,0.2c-0.1,0.2-0.1,0.4-0.1,0.7
	c-0.2-0.1-0.3,0.2-0.4,0.3c-0.1,0-0.1-0.1-0.1-0.1c0,0,0,0-0.1,0c-0.3,0.1-0.7,0.2-0.9,0.2c-0.3,0-0.7-0.1-1-0.1
	c-0.1,0-0.2,0-0.2,0.1l0,0L12.8,22c-0.2,0-0.4,0.1-0.4,0.1c0,0,0,0,0,0c-0.1,0-0.1,0.1-0.1,0.2l-0.1,0.4c-0.2,0.1-0.5,0.1-0.5,0.2
	l0,0l-0.1,0.4c-0.2,0-0.3,0.1-0.3,0.1c0,0,0,0,0,0c-0.1,0-0.1,0.1-0.2,0.1l-0.1,0.3c-0.1,0.1-0.3,0.1-0.3,0.1
	c-0.2,0-0.2,0.3-0.3,0.6c-0.2,0-0.4,0.1-0.4,0.1c-0.1,0-0.2,0.1-0.2,0.2c0,0.5,0,1.1,0.2,1.5c-0.2,0.1-0.4,0.5-0.4,0.9
	c0,0.1,0.1,0.2,0.2,0.2c0.6,0,0.8-0.1,1.1-0.7c0.2-0.7-0.2-1.2-0.6-1.8c0.2,0,0.3,0.1,0.3,0c0.3,0,0.2-0.4,0.1-0.7
	c0.2,0.1,0.5,0.1,0.5,0.1c0.4-0.1,0.2-0.5,0.1-0.8c0.2,0,0.4,0.1,0.4,0.1c0.4,0,0.2-0.4,0.2-0.7c0.2,0,0.4,0.1,0.4,0.1
	c0.4,0,0.2-0.4,0.2-0.7c0.2,0,0.6,0.1,0.7-0.1c0,0,0-0.1,0-0.2c0.6,0.5,1.6,0.5,1.8-0.3c0.1,0.1,0.2,0.1,0.3,0.1l0,0l0.1,0
	c0.3,0.3,1.2,1.1,1.5,1.5l-0.1,0.1l0,0c-0.1,0.1-0.1,0.3,0.1,0.4c0,0,0,0,0,0c0,0,0,0,0,0c-0.2,0.2-0.4,0.3-0.4,0.6
	c0,0.2,0.1,0.5,0.2,0.8c-0.1,0-0.2,0.1-0.3,0.2l-0.2,0.1c0,0.1-0.1,0.3-0.1,0.4L15.8,26l0,0c-0.3,0-0.2,0.4-0.2,0.7
	c-0.3-0.1-0.7-0.3-0.7,0.1c0,0.1,0,0.4,0.1,0.6c-0.2-0.1-0.6-0.2-0.7,0.1c0,0,0,0.3,0,0.6L14,27.8l0,0c-0.2-0.1-0.3,0.1-0.3,0.3
	c0,0,0,0,0,0l0.1,0.3c-0.2-0.2-0.5-0.3-0.8-0.4c-0.2-0.1-0.7-0.2-0.9,0c-0.4,0.3-0.9,0.9-1.3,1.2c-0.3,0.3-0.5,0.6-1,0.5
	c-0.4,0-0.8,0.4-1,0.6C8,31.2,7.1,32,6.3,32.9c-0.4,0.4,0.2,0.8,0.5,1C7,34,7.1,34.2,7.1,34.1c0,0.1,0.1,0.6,0.3,0.7
	c0,0,0.1,0.1,0.3,0.2l-0.1,0.1c-0.3-0.3-0.6-0.6-1.1-0.6l0,0c-0.1-0.2-1-1-1.4-1.5c0.6-0.7,1.4-1.6,2-2.3l1.1-1.3
	c0.2-0.2,0.5-0.5,0.4-0.8c0-0.3,0.1-0.6,0.3-0.8c-0.6,0.5-0.1,1-0.8,1.4c-0.6,0.6-1.9,1.7-2.6,2.3c-0.4,0.4-0.9,0.7-1.3,1.2
	c-0.1,0.2-0.1,0.4,0,0.5l1.4,1.4C5.8,35,6,35.3,6.3,35.4c0.1,0,0.3,0,0.4,0c0.2,0,0.7,1,1.1,0.5c0.1-0.3,0.7-0.7,0.5-0.9l-0.4-0.5
	c-0.1-0.2-0.1-0.1-0.1-0.4c-0.1-0.5-0.3-0.7-0.5-0.9c0.7-0.7,1.5-1.5,2.1-2.2c0.4-0.4,0.3-0.3,0.8-0.4c0.4,0,0.8-0.5,1.1-0.8
	c0.2-0.3,0.9-1,1.2-1.2c0.3,0.1,0.9,0.3,1.4,0.3c0.2,0.1,0.2,0,0.2-0.1c0,0,0.1-0.2,0.1-0.4c0.2,0,0.3,0,0.3,0c0,0,0,0,0,0
	c0.2,0.1,0.2-0.3,0.3-0.6c0.2,0,0.4-0.1,0.4-0.1c0.1,0,0.2-0.3,0.3-0.5c0.2-0.1,0.3-0.1,0.3-0.1c0.1,0,0.2,0,0.2-0.1
	c0,0,0.1-0.2,0.1-0.4c0.2,0,0.4-0.1,0.4-0.1c0.2,0,0.2-0.3,0.2-0.5c0,0,0.1,0,0.1,0c0.2,0.1,0.3-0.2,0.4-0.4c0-0.2-0.3-0.9-0.3-1
	c0.1-0.1,0.6-0.4,0.6-0.7c0-0.1,0-0.2-0.1-0.3c0,0,0.1-0.1,0.1-0.1c0,0,0-0.1,0.1-0.1c0,0,0,0,0.1,0c1.8-1.8,3.6-3.6,5.3-5.4
	c0.1-0.1,0.1-0.3,0.1-0.4c0.1,0,0.2,0,0.3,0c0,0,0.1,0,0.1-0.1c0.1,0,0.2,0.1,0.3,0.1c0.4,0,0.6-0.5,0.7-0.6c0.1,0,0.8,0.2,1,0.3
	c0.2-0.2,0.5-0.2,0.4-0.4c0,0,0-0.1,0-0.1c0.2,0,0.4,0,0.5-0.2l0.1-0.4l0.4-0.1l0,0c0.1,0,0.1-0.1,0.1-0.2c0,0,0.1-0.2,0.1-0.3
	c0.3-0.1,0.6-0.2,0.5-0.3c0,0,0,0,0,0l0.1-0.3c0.2-0.1,0.5-0.1,0.6-0.1c0.1,0,0.1-0.1,0.1-0.2c0,0,0-0.2,0-0.3
	c0.2,0,0.4-0.1,0.4-0.1c0.1,0,0.2-0.1,0.1-0.2c0.1-0.4-0.2-1.1-0.3-1.4c0.2-0.2,0.9-0.9,1.2-1.2c0.3-0.3,0.7-0.7,0.8-1.1
	c0.1-0.5,0-0.4,0.4-0.8c0.7-0.7,1.5-1.5,2.2-2.1c0.2,0.2,0.4,0.4,0.9,0.5c0.3,0,0.2-0.1,0.4,0.1l0.5,0.4c0.3,0.2,0.7-0.3,0.9-0.5
	C36.2,7.3,35.2,6.8,35.3,6.6z M26.2,9.8C26.2,9.8,26.2,9.8,26.2,9.8C26.3,9.8,26.3,9.8,26.2,9.8z M9.9,26.3
	C9.9,26.3,9.9,26.3,9.9,26.3C9.9,26.4,9.9,26.3,9.9,26.3z M17.4,22.1c-0.2,0-0.7-0.6-1.1-1.1c0.2-0.2,0.3-0.3,0.5-0.5
	c0.2-0.2,0.2-0.9-0.1-1c-0.4-0.1-0.7-0.3-1.1-0.4c0.3-0.9,0.6-1.8,0.9-2.6c0.9,0.4,2.5,1.3,3.3,1c0.3-0.1,0.5-0.5,0.8-0.7
	c0.7-0.4,1.2,0.2,1.7,0.7c-1.1,1.1-2.1,2.2-3.2,3.2C18.7,21,17.9,22.1,17.4,22.1z"/>
</svg>
