<svg width="16" height="17" viewBox="0 0 16 17" fill="none" xmlns="http://www.w3.org/2000/svg">
<g id="tabler-icon-gift">
<path id="Vector" d="M8 5.83317V14.4998M8 5.83317C7.75885 4.83944 7.34363 3.98984 6.80849 3.39524C6.27335 2.80064 5.64312 2.4886 5 2.4998C4.55797 2.4998 4.13405 2.6754 3.82149 2.98796C3.50893 3.30052 3.33333 3.72444 3.33333 4.16647C3.33333 4.6085 3.50893 5.03242 3.82149 5.34498C4.13405 5.65754 4.55797 5.83314 5 5.83314M8 5.83317C8.24115 4.83944 8.65637 3.98984 9.19151 3.39524C9.72665 2.80064 10.3569 2.4886 11 2.4998C11.442 2.4998 11.866 2.6754 12.1785 2.98796C12.4911 3.30052 12.6667 3.72444 12.6667 4.16647C12.6667 4.6085 12.4911 5.03242 12.1785 5.34498C11.866 5.65754 11.442 5.83314 11 5.83314M12.6667 8.49984V13.1665C12.6667 13.5201 12.5262 13.8593 12.2761 14.1093C12.0261 14.3594 11.687 14.4998 11.3333 14.4998H4.66667C4.31304 14.4998 3.97391 14.3594 3.72386 14.1093C3.47381 13.8593 3.33333 13.5201 3.33333 13.1665V8.49984M2 6.49984C2 6.32303 2.07024 6.15346 2.19526 6.02843C2.32029 5.90341 2.48986 5.83317 2.66667 5.83317H13.3333C13.5101 5.83317 13.6797 5.90341 13.8047 6.02843C13.9298 6.15346 14 6.32303 14 6.49984V7.83317C14 8.00998 13.9298 8.17955 13.8047 8.30457C13.6797 8.4296 13.5101 8.49984 13.3333 8.49984H2.66667C2.48986 8.49984 2.32029 8.4296 2.19526 8.30457C2.07024 8.17955 2 8.00998 2 7.83317V6.49984Z" stroke="#FFD71D" stroke-linecap="round" stroke-linejoin="round"/>
</g>
</svg>
