<svg id="Capa_1" xmlns="http://www.w3.org/2000/svg" viewBox="0 0 60 60"><style>.st0{fill:#a0b7c4}</style><path class="st0" d="M30 .7C13.9.7.7 13.9.7 30S13.9 59.3 30 59.3 59.3 46.1 59.3 30 46.1.7 30 .7zM30 58C14.6 58 2 45.4 2 30S14.6 2 30 2s28 12.6 28 28-12.6 28-28 28z"/><path class="st0" d="M30 59.9C13.5 59.9.1 46.5.1 30S13.5.1 30 .1 59.9 13.5 59.9 30 46.5 59.9 30 59.9zm0-58.6C14.2 1.3 1.3 14.2 1.3 30S14.2 58.7 30 58.7 58.7 45.8 58.7 30 45.8 1.3 30 1.3zm0 57.3C14.2 58.6 1.4 45.8 1.4 30S14.2 1.4 30 1.4 58.6 14.2 58.6 30 45.8 58.6 30 58.6zm0-56C14.9 2.6 2.6 14.9 2.6 30S14.9 57.4 30 57.4 57.4 45.1 57.4 30 45.1 2.6 30 2.6z"/><path class="st0" d="M30 6.6c-.5 0-1 .4-1 1V30H14.4c-.5 0-1 .4-1 1 0 .5.4 1 1 1H30c.5 0 1-.4 1-1V7.6c0-.6-.5-1-1-1z"/><path class="st0" d="M30 32.2H14.4c-.7 0-1.2-.5-1.2-1.2s.5-1.2 1.2-1.2h14.4V7.6c0-.7.5-1.2 1.2-1.2s1.2.5 1.2 1.2V31c0 .6-.5 1.2-1.2 1.2zm-15.6-2c-.4 0-.8.3-.8.8s.3.8.8.8H30c.4 0 .8-.3.8-.8V7.6c0-.4-.3-.8-.8-.8s-.8.3-.8.8v22.7H14.4v-.1z"/></svg>