<?xml version="1.0" encoding="utf-8"?>
<!-- Generator: Adobe Illustrator 27.2.0, SVG Export Plug-In . SVG Version: 6.00 Build 0)  -->
<svg version="1.1" id="Слой_1" xmlns="http://www.w3.org/2000/svg" xmlns:xlink="http://www.w3.org/1999/xlink" x="0px" y="0px"
	 viewBox="0 0 512 512" style="enable-background:new 0 0 512 512;" xml:space="preserve">
<style type="text/css">
	.st0{fill:#FFD71D;}
</style>
<g>
	<g>
		<path class="st0" d="M407.6,292.2c-13.2-24.3-32.2-37.9-58-41.7c-2.8-0.4-5.3-0.6-7.7-0.6c-7.3,0-13.5,2-18.8,6
			c-3.7,2.8-7.8,5.3-11.7,7.7c-0.9,0.5-1.7,1.1-2.6,1.6c-17.4,10.8-35.2,16.3-52.6,16.3s-35.1-5.5-52.5-16.2
			c-2.2-1.4-4.4-2.8-6.6-4.2c-3.6-2.4-7.4-4.8-11.2-6.9c-3.7-2-8-4.1-11.9-4.2c-0.5,0-1,0-1.6,0c-12.6,0-24.6,3-35.7,9
			c-16.9,9-28.9,23.6-38,45.9c-11.1,27.4-15.8,58-14.3,93.3c0.7,16.1,6.2,30.5,16,41.5c9.7,10.9,23.3,18.2,39.4,21.3
			c1.7,0.3,3.4,0.7,5.1,1c0.8,0.2,1.5,0.3,2.3,0.5H365c0.2-0.1,0.4-0.1,0.7-0.2c0.6-0.2,1.3-0.5,2-0.5c35.7-3.9,60-30.5,60.4-66.1
			c0.1-11.8-0.4-24-1.6-36.3C423.7,332.2,417.8,310.9,407.6,292.2z M359,439.8c-12.1,0.1-25,0.2-40.7,0.2c-10.4,0-20.9,0-31.1-0.1
			c-10.1,0-20.5-0.1-30.7-0.1c-0.1,0-0.2,0.1-0.3,0.1h-27.6H201c-14.6,0-29.2,0-43.8,0l0,0c-12.3,0-21.7-2.2-29.7-6.9
			c-13.3-7.9-20.5-20.5-20.9-36.4c-0.8-32.7,3-58.7,12-82c4.4-11.4,10.2-20.6,17.5-28c9-9.1,20.5-13.8,35-14.5c0.1,0,0.1,0,0.2,0
			c1.6,0,3.3,1,4.6,1.8l0.1,0.1c3.1,1.9,6.1,3.8,9.1,5.7c5.8,3.8,11.9,7.7,18.2,10.8c17.8,8.7,35.6,13.2,53.2,13.2
			c21.7,0,43.5-6.8,64.8-20.1c1.9-1.2,3.8-2.4,5.7-3.6c3.2-2.1,6.4-4.2,9.8-6.1c1.6-1,3.8-1.5,5.7-1.5c0.2,0,0.3,0,0.5,0
			c20,1.1,34.9,11.3,45.6,31.2c8.2,15.1,13,32.3,15.6,55.7c1.1,9.6,1.6,20,1.7,32.4C406,421.1,388.1,439.5,359,439.8z"/>
		<path class="st0" d="M252.8,247.2c0.3,0,0.6,0,0.8,0c26.6-0.2,51.5-10.6,70.1-29.2s28.8-43.4,28.7-69.8c-0.1-26.6-10.4-51.4-29-70
			s-43.5-28.8-70-28.8l0,0c-26.6,0-51.5,10.4-70.2,29.2c-18.6,18.7-28.8,43.6-28.7,70.1C154.8,202.9,198.9,247.2,252.8,247.2z
			 M253.4,71.6c20.6,0,39.9,8,54.3,22.4s22.4,33.7,22.3,54.3c0,42.3-34.4,76.7-76.6,76.7l0,0c-42.3,0-76.7-34.4-76.7-76.7
			C176.8,106,211.2,71.6,253.4,71.6z"/>
	</g>
</g>
</svg>
