<svg id="Capa_1" xmlns="http://www.w3.org/2000/svg" viewBox="0 0 34.5 34.5"><style>.st0{fill:#c2d0d8}</style><path class="st0" d="M25 0H9.4C8.1 0 7.1 1.1 7.1 2.4v29.8c0 1.3 1.1 2.4 2.4 2.4H25c1.3 0 2.4-1.1 2.4-2.4V2.4C27.4 1.1 26.3 0 25 0zM12.8 31.8h-2.5c-.5 0-.9-.4-.9-.8 0-.5.4-.9.9-.9h2.5c.5 0 .9.4.9.9 0 .4-.4.8-.9.8zm0-3.3h-2.5c-.5 0-.9-.4-.9-.9s.4-.9.9-.9h2.5c.5 0 .9.4.9.9s-.4.9-.9.9zm0-3.2h-2.5c-.5 0-.9-.4-.9-.8 0-.5.4-.9.9-.9h2.5c.5 0 .9.4.9.9 0 .4-.4.8-.9.8zm0-3.3h-2.5c-.5 0-.9-.4-.9-.9s.4-.9.9-.9h2.5c.5 0 .9.4.9.9s-.4.9-.9.9zm5.7 9.8H16c-.5 0-.9-.4-.9-.8 0-.5.4-.9.9-.9h2.5c.5 0 .9.4.9.9 0 .4-.4.8-.9.8zm0-3.3H16c-.5 0-.9-.4-.9-.9s.4-.9.9-.9h2.5c.5 0 .9.4.9.9s-.4.9-.9.9zm0-3.2H16c-.5 0-.9-.4-.9-.8 0-.5.4-.9.9-.9h2.5c.5 0 .9.4.9.9 0 .4-.4.8-.9.8zm0-3.3H16c-.5 0-.9-.4-.9-.9s.4-.9.9-.9h2.5c.5 0 .9.4.9.9s-.4.9-.9.9zm5.7 9.8h-2.5c-.5 0-.9-.4-.9-.8 0-.5.4-.9.9-.9h2.5c.5 0 .9.4.9.9 0 .4-.4.8-.9.8zm0-3.3h-2.5c-.5 0-.9-.4-.9-.9s.4-.9.9-.9h2.5c.5 0 .9.4.9.9s-.4.9-.9.9zm0-3.2h-2.5c-.5 0-.9-.4-.9-.8 0-.5.4-.9.9-.9h2.5c.5 0 .9.4.9.9 0 .4-.4.8-.9.8zm0-3.3h-2.5c-.5 0-.9-.4-.9-.9s.4-.9.9-.9h2.5c.5 0 .9.4.9.9s-.4.9-.9.9zm.9-3.6H9.4V2.8h15.8v15.6z"/></svg>