<svg id="Layer_1" xmlns="http://www.w3.org/2000/svg" viewBox="0 0 108.5 108.2"><style>.st0{fill:#ffd71c}</style><g id="XMLID_51_"><path id="XMLID_49_" class="st0" d="M30.7 5.3c14.4-7 31.8-7.1 46.3-.4-11.2-.9-22.4 2.8-31.8 8.9-9.7 6.2-16.8 16.3-19.7 27.4-2.1 8-1.7 16.6 1.6 24.2 4.5 10.8 15.6 18.8 27.4 18.9 6.8.1 13.6-2.2 18.8-6.5 6.2-5.1 10.2-12.9 10.6-21 .3-6.5-1.3-13.4-5.5-18.5-4.6-5.7-11.5-8.9-18.5-10.6-.7-10.5 7.4-20.5 17.6-22.5 11.7 5.5 21.2 15.3 26.4 27.1 5 11.3 6 24.4 2.6 36.4-3 10.9-9.6 20.8-18.5 27.8-9.4 7.5-21.4 11.8-33.5 11.8-10.6.1-21.2-3-30.1-8.9C13.6 92.2 5.4 81.2 2 68.7-1.2 57.4-.5 45 3.8 34.1c5-12.5 14.8-23 26.9-28.8z"/></g></svg>