<svg id="Capa_1" xmlns="http://www.w3.org/2000/svg" viewBox="0 0 220.3 220.3"><style>.st0{fill:#a0b7c4}</style><path class="st0" d="M215.1 107.9c0 57.9-47.1 105-105 105-19.2 0-34.8-5.4-44.6-9.9l-1.1-.5L19 217c-.5.1-.9.2-1.4.2-2 0-3.7-1.3-4.3-3.1-.4-1.1-.3-2.4.3-3.4.5-1.1 1.5-1.9 2.6-2.2l47.2-15.1c.5-.1.9-.2 1.4-.2.7 0 1.4.2 2 .5 6.1 3.1 22.5 10.3 43.2 10.3 52.9 0 96-43 96-96 0-52.9-43-95.9-96-95.9-25.6 0-49.7 10-67.8 28.1C24 58.3 14.1 82.4 14.1 108c0 20.7 8.5 39.5 12.2 46.6.5 1.1.7 2.3.3 3.4-.4 1.2-1.2 2.1-2.2 2.6s-2.3.7-3.4.3-2.1-1.2-2.6-2.2c-4-7.7-13.2-28.1-13.2-50.8C5.2 50.1 52.3 3 110.1 3s105 47.1 105 104.9z"/><path class="st0" d="M163.5 143c-2 7.1-5.9 12.4-11.3 15.3-5.3 2.8-11.6 3-18.2.8-17-5.8-32-14.5-44.7-25.7l-.1-.1C76.7 121.9 66.5 108 58.8 91.8c-3-6.3-3.4-12.6-1.2-18.2 2.3-5.7 7.1-10.2 13.9-12.9 1.8-.7 3.5-1 5.2-1 1.3 0 2.6.2 3.9.6 2.3.7 6.4 3.3 13.2 11.6 5.3 6.4 8.4 11.8 8.7 15.1.7 6.7-4.2 10.5-6.4 12.1-2 1.5-4.8 1.1-6.3-.8-.6-.8-.9-1.8-.9-2.7 0-1.4.6-2.7 1.8-3.6.9-.7 1.6-1.3 2-1.7l1.3-1.4-.8-1.9c-1.8-4.4-10.7-15.5-14.9-17.9l-.5-.3-.6-.1c-1-.1-1.8.1-2.4.4-3.1 1.3-7.2 3.6-8.9 7.9-1.3 3.2-.9 7 1 11 7.1 15 16.6 28 28.2 38.5l.2.2c11.8 10.4 25.8 18.4 41.6 23.9 4.2 1.4 8 1.4 11-.2 4-2.1 5.9-6.4 6.8-9.7.2-.9.3-1.6.1-2.3l-.1-.6-.4-.5c-2.9-3.9-14.9-11.5-19.5-12.8l-1.8-.5-1.3 1.4c-.4.5-.9 1.2-1.5 2.2-.6 1-1.6 1.8-2.8 2-1.2.3-2.4.1-3.4-.5-2.1-1.3-2.8-4.1-1.5-6.2 1.4-2.3 4.6-7.6 11.3-7.7 3.4 0 9 2.5 16 7 9 5.8 12 9.7 13 11.9 1.4 2.7 1.6 5.8.7 8.9z"/></svg>