<svg width="36" height="35" viewBox="0 0 36 35" fill="none" xmlns="http://www.w3.org/2000/svg">
<rect x="0.9375" y="0.0195312" width="34.7067" height="34.7067" rx="17.3533" fill="#FF0000"/>
<path d="M27.9447 12.5992C27.7181 11.7473 27.0478 11.0753 26.1949 10.845C24.6529 10.4316 18.4656 10.4316 18.4656 10.4316C18.4656 10.4316 12.2815 10.4316 10.7363 10.845C9.88657 11.0721 9.21623 11.7442 8.98649 12.5992C8.57422 14.1453 8.57422 17.373 8.57422 17.373C8.57422 17.373 8.57422 20.6007 8.98649 22.1467C9.21308 22.9986 9.88342 23.6707 10.7363 23.901C12.2815 24.3143 18.4656 24.3143 18.4656 24.3143C18.4656 24.3143 24.6529 24.3143 26.1949 23.901C27.0447 23.6738 27.715 23.0018 27.9447 22.1467C28.357 20.6007 28.357 17.373 28.357 17.373C28.357 17.373 28.357 14.1453 27.9447 12.5992Z" fill="white"/>
<path d="M16.4892 20.3483L21.6285 17.373L16.4892 14.3977V20.3483Z" fill="#FF0000"/>
</svg>
