<svg width="200" height="201" viewBox="0 0 200 201" fill="none" xmlns="http://www.w3.org/2000/svg">
<path d="M99.9584 1.73044L0 0V7.10598L99.9584 5.37554L200 3.64509V3.46088L99.9584 1.73044Z" fill="#6100FF"/>
<path d="M99.9584 9.146L0 7.54395V14.3931L99.9584 12.7911L200 11.2002V10.7425L99.9584 9.146Z" fill="#6100FF"/>
<path d="M99.9584 16.556L0 15.0879V21.6747L99.9584 20.2011L200 18.7497V18.0129L99.9584 16.556Z" fill="#6100FF"/>
<path d="M99.9584 23.9959L0 22.6562V28.9863L99.9584 27.641L200 26.3237V25.3133L99.9584 23.9959Z" fill="#6100FF"/>
<path d="M99.9584 31.4115L0 30.2002V36.2735L99.9584 35.0566L200 33.8788V32.5949L99.9584 31.4115Z" fill="#6100FF"/>
<path d="M99.9584 38.8271L0 37.7441V43.5607L99.9584 42.4722L200 41.4283V39.8765L99.9584 38.8271Z" fill="#6100FF"/>
<path d="M99.9584 46.237L0 45.2881V50.8367L99.9584 49.8821L200 48.9778V47.1469L99.9584 46.237Z" fill="#6100FF"/>
<path d="M99.9584 53.6526L0 52.832V58.1238L99.9584 57.3033L200 56.5273V54.4285L99.9584 53.6526Z" fill="#6100FF"/>
<path d="M99.9584 61.0926L0 60.4004V65.4298L99.9584 64.7377L200 64.0957V61.7289L99.9584 61.0926Z" fill="#6100FF"/>
<path d="M99.9584 68.5025L0 67.9443V72.7114L99.9584 72.1532L200 71.6452V69.0105L99.9584 68.5025Z" fill="#6100FF"/>
<path d="M99.9584 75.9181L0 75.4883V79.9874L99.9584 79.5632L200 79.1892V76.2865L99.9584 75.9181Z" fill="#6100FF"/>
<path d="M99.9584 83.3525L0 83.0566V87.2934L99.9584 86.9976L200 86.7576V83.5869L99.9584 83.3525Z" fill="#6100FF"/>
<path d="M99.9584 90.768L0 90.6006V94.575L99.9584 94.4131L200 94.3071V90.8685L99.9584 90.768Z" fill="#6100FF"/>
<path d="M99.9584 98.178L0 98.1445V101.851L99.9584 101.823L200 101.851V98.1445L99.9584 98.178Z" fill="#6100FF"/>
<path d="M99.9584 105.587L0 105.688V109.132L99.9584 109.232L200 109.394V105.42L99.9584 105.587Z" fill="#6100FF"/>
<path d="M99.9584 113.016L0 113.25V116.426L99.9584 116.661L200 116.957V112.72L99.9584 113.016Z" fill="#6100FF"/>
<path d="M99.9584 120.425L0 120.793V123.702L99.9584 124.07L200 124.5V119.995L99.9584 120.425Z" fill="#6100FF"/>
<path d="M99.9584 127.859L0 128.361V131.001L99.9584 131.504L200 132.062V127.295L99.9584 127.859Z" fill="#6100FF"/>
<path d="M99.9584 135.262L0 135.899V138.271L99.9584 138.908L200 139.6V134.57L99.9584 135.262Z" fill="#6100FF"/>
<path d="M99.9584 142.691L0 143.461V145.56L99.9584 146.336L200 147.162V141.87L99.9584 142.691Z" fill="#6100FF"/>
<path d="M99.9584 150.1L0 151.01V152.835L99.9584 153.745L200 154.7V149.146L99.9584 150.1Z" fill="#6100FF"/>
<path d="M99.9584 157.528L0 158.572V160.129L99.9584 161.173L200 162.256V156.445L99.9584 157.528Z" fill="#6100FF"/>
<path d="M99.9584 164.938L0 166.121V167.405L99.9584 168.583L200 169.8V163.721L99.9584 164.938Z" fill="#6100FF"/>
<path d="M99.9584 172.366L0 173.683V174.694L99.9584 176.011L200 177.356V171.021L99.9584 172.366Z" fill="#6100FF"/>
<path d="M99.9584 179.77L0 181.226V181.963L99.9584 183.415L200 184.888V178.296L99.9584 179.77Z" fill="#6100FF"/>
<path d="M99.9584 187.198L0 188.789V189.252L99.9584 190.843L200 192.445V185.596L99.9584 187.198Z" fill="#6100FF"/>
<path d="M99.9584 194.626L0 196.356V196.546L99.9584 198.271L200 200.007V192.896L99.9584 194.626Z" fill="#6100FF"/>
</svg>
