<svg width="203" height="200" viewBox="0 0 203 200" fill="none" xmlns="http://www.w3.org/2000/svg">
<g clip-path="url(#clip0_1_62)">
<path d="M135.673 100.251L135.533 103.414C135.411 104.462 135.237 105.505 135.092 106.553C134.947 107.601 134.604 108.609 134.366 109.64C134.128 110.671 133.692 111.65 133.356 112.652C131.347 117.897 128.081 122.572 123.844 126.27C119.607 129.967 114.528 132.574 109.048 133.863C103.569 135.152 97.8568 135.085 92.4098 133.666C86.9628 132.247 81.9466 129.521 77.7989 125.724C74.2862 122.494 71.4841 118.571 69.5702 114.204C67.6544 109.801 66.6662 105.052 66.6667 100.251L66.8699 96.672C67.0209 95.5136 67.23 94.3031 67.4158 93.1274C67.6017 91.9516 68.0314 90.8106 68.3391 89.6522C68.6469 88.4939 69.1811 87.4108 69.6109 86.2987C71.5306 81.9373 74.3342 78.019 77.8454 74.7902C81.3207 71.6359 85.3941 69.2077 89.8254 67.6489C98.2948 64.7491 107.561 65.2325 115.681 68.9977C123.8 72.763 130.143 79.5176 133.379 87.8452C133.716 88.853 134.093 89.8433 134.395 90.8569C134.697 91.8705 134.9 92.9189 135.121 93.9498C135.342 94.9808 135.44 96.0349 135.562 97.0832L135.673 100.251ZM134.819 100.251C134.823 94.0551 132.981 87.9973 129.528 82.8466C126.074 77.6958 121.165 73.6843 115.422 71.3208C109.679 68.9573 103.361 68.3485 97.2711 69.5715C91.1808 70.7945 85.5919 73.7942 81.2135 78.1901C76.8515 82.5643 73.8839 88.1276 72.6842 94.1798C71.4845 100.232 72.1062 106.503 74.4712 112.204C76.8362 117.904 80.8388 122.78 85.9753 126.218C91.1119 129.655 97.153 131.5 103.339 131.522C111.671 131.536 119.668 128.249 125.571 122.384C131.474 116.519 134.8 108.556 134.819 100.246V100.251Z" fill="#6100FF"/>
<path d="M140.349 99.6642C140.398 104.485 139.497 109.268 137.697 113.741C136.8 115.982 135.71 118.141 134.44 120.194C133.146 122.25 131.655 124.176 129.988 125.944C126.541 129.667 122.391 132.672 117.776 134.787C113.162 136.902 108.174 138.084 103.1 138.266C98.0257 138.449 92.9657 137.627 88.2109 135.849C83.4561 134.071 79.1005 131.371 75.3948 127.905C73.4901 126.099 71.7649 124.113 70.2432 121.975C68.7037 119.831 67.4041 117.524 66.3679 115.097C64.2505 110.23 63.1579 104.981 63.1579 99.6758C63.1579 94.3701 64.2505 89.1211 66.3679 84.2549C68.4887 79.4259 71.5605 75.0721 75.4006 71.4527C79.1101 67.9967 83.4659 65.3054 88.2185 63.5329C92.9712 61.7604 98.0274 60.9415 103.097 61.1231C108.167 61.3047 113.152 62.4833 117.765 64.5913C122.378 66.6994 126.53 69.6955 129.982 73.408C131.648 75.1728 133.138 77.0965 134.428 79.1516C135.7 81.2048 136.792 83.364 137.692 85.605C139.492 90.0721 140.395 94.8492 140.349 99.6642ZM139.253 99.6642C139.269 90.8526 136.002 82.3502 130.087 75.8107C124.173 69.2712 116.034 65.1621 107.253 64.2826C98.4731 63.403 89.6791 65.816 82.5817 71.0521C75.4842 76.2881 70.5908 83.973 68.8531 92.6121C67.1153 101.251 68.6575 110.227 73.1798 117.794C77.702 125.36 84.8809 130.977 93.3204 133.551C101.76 136.125 110.856 135.473 118.841 131.721C126.825 127.969 133.127 121.386 136.52 113.252C138.315 108.946 139.244 104.329 139.253 99.6642Z" fill="#6100FF"/>
<path d="M143.858 100.256C143.901 105.646 142.896 110.992 140.9 115.99C138.93 121.028 136.023 125.635 132.338 129.563C127.558 134.711 121.588 138.573 114.967 140.8C108.345 143.027 101.281 143.55 94.41 142.321C87.5393 141.092 81.0788 138.15 75.6113 133.76C70.1437 129.37 65.8411 123.67 63.0916 117.175C60.8205 111.832 59.6492 106.076 59.6492 100.259C59.6492 94.4414 60.8205 88.6852 63.0916 83.342C65.3655 78.0372 68.6652 73.2473 72.7961 69.255C76.8146 65.4039 81.543 62.3929 86.7112 60.3942C91.8794 58.3955 97.3859 57.4482 102.916 57.6066C108.446 57.765 113.891 59.0259 118.939 61.3173C123.987 63.6086 128.54 66.8855 132.338 70.9604C134.181 72.9207 135.834 75.0565 137.273 77.3381C138.69 79.6212 139.904 82.0271 140.9 84.5276C142.896 89.523 143.901 94.8673 143.858 100.256ZM142.572 100.256C142.583 90.4196 138.982 80.9309 132.468 73.6351C125.955 66.3392 116.996 61.7576 107.333 60.7812C97.6694 59.8048 87.993 62.5035 80.1852 68.3523C72.3774 74.2012 66.9963 82.7822 65.0882 92.4267C63.1802 102.071 64.8816 112.09 69.8617 120.534C74.8418 128.978 82.7445 135.245 92.033 138.115C101.322 140.985 111.332 140.254 120.118 136.063C128.904 131.872 135.836 124.522 139.568 115.441C141.546 110.628 142.567 105.468 142.572 100.256Z" fill="#6100FF"/>
<path d="M148.537 100.268C148.574 106.151 147.436 111.985 145.189 117.434C142.966 122.921 139.691 127.932 135.544 132.194C130.202 137.719 123.554 141.849 116.196 144.213C108.838 146.577 101.001 147.101 93.3865 145.738C85.7725 144.375 78.6205 141.168 72.5725 136.405C66.5245 131.642 61.7698 125.471 58.735 118.447C56.2512 112.701 54.9708 106.518 54.9708 100.271C54.9708 94.0238 56.2512 87.8412 58.735 82.095C61.2259 76.3796 64.8479 71.2123 69.3886 66.8959C76.1219 60.5496 84.6169 56.3243 93.7919 54.7582C102.967 53.192 112.407 54.356 120.909 58.1016C123.665 59.3259 126.293 60.8141 128.754 62.545C131.192 64.2687 133.469 66.205 135.556 68.3308C139.702 72.5924 142.978 77.6013 145.206 83.0844C147.45 88.5408 148.581 94.3799 148.537 100.268ZM147.059 100.268C147.066 89.543 143.03 79.1989 135.736 71.2474C128.442 63.2959 118.413 58.3052 107.597 57.246C96.7813 56.1868 85.9531 59.1346 77.2178 65.5164C68.4826 71.8981 62.4648 81.2574 60.3347 91.7745C58.2046 102.291 60.1145 113.214 65.6929 122.419C71.2713 131.624 80.1195 138.452 90.5168 141.576C100.914 144.701 112.117 143.898 121.948 139.323C131.779 134.749 139.534 126.73 143.705 116.827C145.919 111.579 147.064 105.952 147.077 100.268H147.059Z" fill="#6100FF"/>
<path d="M152.047 99.6852C152.068 112.817 146.944 125.434 137.771 134.834C128.599 144.234 116.108 149.668 102.975 149.971C92.8975 150.225 82.9764 147.441 74.5024 141.982C66.0285 136.523 59.3936 128.641 55.4606 119.362C52.8218 113.138 51.462 106.448 51.462 99.6881C51.462 92.9286 52.8218 86.238 55.4606 80.0144C59.4075 70.7473 66.0451 62.8773 74.5149 57.4223C82.9847 51.9674 92.897 49.1785 102.97 49.4165C116.09 49.7465 128.563 55.1864 137.73 64.5766C146.896 73.9668 152.031 86.5648 152.041 99.6852H152.047ZM150.455 99.6852C150.457 87.9285 146.085 76.5913 138.189 67.8782C130.293 59.1651 119.438 53.6988 107.735 52.5423C96.0312 51.3859 84.3157 54.6219 74.8664 61.6211C65.417 68.6203 58.9093 78.8825 56.6085 90.412C54.3077 101.942 56.3784 113.914 62.4179 124.003C68.4575 134.091 78.0341 141.573 89.2857 144.994C100.537 148.415 112.66 147.531 123.295 142.514C133.931 137.496 142.32 128.704 146.831 117.846C149.22 112.089 150.451 105.918 150.455 99.6852Z" fill="#6100FF"/>
<path d="M156.725 100.253C156.736 112.805 152.403 124.973 144.46 134.694C136.518 144.414 125.456 151.088 113.151 153.582C100.847 156.075 88.0587 154.236 76.9567 148.375C65.8547 142.515 57.1231 132.994 52.2438 121.429C47.9829 111.347 46.8629 100.215 49.0303 89.4866C51.1977 78.7583 56.5516 68.933 64.3925 61.2947C72.0576 53.8409 81.7499 48.8107 92.2583 46.8328C102.767 44.8548 113.625 46.0167 123.477 50.1735C133.328 54.3302 141.736 61.2973 147.649 70.2042C153.563 79.111 156.72 89.5627 156.725 100.253ZM155.036 100.253C155.038 87.4494 150.278 75.1026 141.68 65.6136C133.081 56.1245 121.261 50.1716 108.516 48.9124C95.7713 47.6533 83.0137 51.1778 72.7241 58.8008C62.4345 66.4237 55.3485 77.6001 52.844 90.1565C50.3395 102.713 52.5956 115.752 59.1735 126.737C65.7514 137.723 76.1809 145.87 88.4339 149.595C100.687 153.319 113.887 152.354 125.468 146.888C137.049 141.422 146.183 131.845 151.093 120.02C153.689 113.753 155.029 107.037 155.036 100.253Z" fill="#6100FF"/>
<path d="M161.385 99.6703C161.428 107.255 159.974 114.774 157.105 121.797C154.236 128.819 150.009 135.207 144.666 140.594C139.325 146.044 132.977 150.405 125.973 153.438C115.311 158.008 103.531 159.309 92.1273 157.176C80.724 155.043 70.2118 149.572 61.9251 141.458C56.3881 136.001 51.9915 129.498 48.9907 122.328C45.9898 115.157 44.4445 107.463 44.4445 99.6907C44.4445 91.9186 45.9898 84.224 48.9907 77.0538C51.9915 69.8836 56.3881 63.3808 61.9251 57.9231C70.2167 49.8109 80.7324 44.3427 92.1384 42.212C103.544 40.0812 115.327 41.3841 125.991 45.9552C132.99 48.9818 139.338 53.3331 144.684 58.7695C150.026 64.1562 154.253 70.5431 157.122 77.5645C159.99 84.5858 161.445 92.1037 161.403 99.6878L161.385 99.6703ZM159.633 99.6703C159.627 85.8337 154.473 72.4935 145.173 62.2436C135.872 51.9937 123.089 45.5668 109.311 44.2125C95.5316 42.8582 81.7411 46.6732 70.6205 54.9159C59.5 63.1586 51.8441 75.2398 49.1416 88.8103C46.4391 102.381 48.8832 116.471 55.9986 128.34C63.1139 140.21 74.3919 149.011 87.6398 153.032C100.888 157.053 115.158 156.007 127.677 150.097C140.196 144.187 150.068 133.835 155.374 121.055C158.183 114.275 159.63 107.009 159.633 99.6703Z" fill="#6100FF"/>
<path d="M164.895 100.338C164.927 108.47 163.369 116.527 160.311 124.051C157.252 131.575 152.753 138.417 147.071 144.187C138.486 152.985 127.51 159.023 115.526 161.539C103.543 164.056 91.0886 162.939 79.7339 158.329C72.1321 155.253 65.2136 150.682 59.3815 144.883C53.5377 139.055 48.8985 132.117 45.7323 124.469C42.566 116.822 40.9357 108.617 40.9357 100.33C40.9357 92.0424 42.566 83.8375 45.7323 76.19C48.8985 68.5424 53.5377 61.6041 59.3815 55.7766C68.0797 47.0954 79.1334 41.2066 91.1475 38.8531C103.162 36.4996 115.598 37.787 126.887 42.5528C138.177 47.3186 147.813 55.3492 154.58 65.6314C161.348 75.9135 164.943 87.9864 164.912 100.327L164.895 100.338ZM163.155 100.338C163.148 85.4643 157.654 71.1247 147.743 60.1076C137.833 49.0906 124.212 42.1836 109.531 40.7297C94.8502 39.2758 80.1575 43.3789 68.3102 52.2411C56.4628 61.1034 48.3074 74.0914 45.4299 88.6797C42.5525 103.268 45.1584 118.414 52.7412 131.173C60.324 143.931 72.3416 153.39 86.4572 157.711C100.573 162.032 115.778 160.905 129.115 154.55C142.453 148.195 152.97 137.066 158.621 123.327C161.606 116.036 163.141 108.226 163.138 100.338H163.155Z" fill="#6100FF"/>
<path d="M169.59 100.395C169.617 108.998 167.933 117.521 164.634 125.479C161.336 133.436 156.488 140.671 150.367 146.77C141.128 156.035 129.327 162.381 116.454 165.007C103.581 167.633 90.212 166.422 78.0324 161.527C69.8959 158.261 62.4946 153.427 56.2576 147.304C49.9688 141.203 44.9632 133.926 41.5303 125.895C38.0974 117.864 36.3055 109.238 36.2583 100.515C36.2111 91.7931 37.9095 83.1481 41.2552 75.0808C44.601 67.0135 49.5276 59.684 55.75 53.5166C61.9724 47.3491 69.3671 42.4662 77.5059 39.1503C85.6448 35.8344 94.3663 34.1514 103.166 34.1987C111.965 34.2461 120.668 36.0228 128.77 39.4261C136.872 42.8293 144.213 47.7916 150.367 54.0256C156.488 60.1234 161.336 67.3573 164.635 75.3138C167.933 83.2702 169.617 91.7931 169.59 100.395ZM167.835 100.395C167.834 84.6038 161.909 69.3772 151.21 57.6764C140.512 45.9757 125.806 38.6374 109.952 37.0887C94.0974 35.5401 78.2288 39.8918 65.4321 49.2975C52.6353 58.7031 43.8252 72.4904 40.7152 87.9779C37.6052 103.465 40.4176 119.546 48.6055 133.092C56.7933 146.638 69.7712 156.681 85.0153 161.268C100.259 165.855 116.68 164.658 131.083 157.91C145.486 151.162 156.842 139.345 162.943 124.757C166.17 117.033 167.832 108.755 167.835 100.395Z" fill="#6100FF"/>
<path d="M173.099 99.7227C173.112 113.573 169.018 127.117 161.334 138.644C153.649 150.17 142.718 159.163 129.922 164.487C117.126 169.81 103.038 171.226 89.4378 168.554C75.8372 165.883 63.3338 159.244 53.5066 149.476C46.1237 142.156 40.4606 133.289 36.9264 123.515C33.3922 113.741 32.0754 103.304 33.071 92.9593C34.0666 82.6145 37.3498 72.6199 42.6834 63.6979C48.0169 54.776 55.2675 47.1495 63.9111 41.3698C72.5547 35.59 82.3755 31.8013 92.6635 30.2776C102.952 28.7538 113.45 29.5331 123.4 32.559C133.349 35.5849 142.502 40.7818 150.196 47.7743C157.891 54.7667 163.934 63.3799 167.89 72.9914C171.362 81.4747 173.132 90.5573 173.099 99.7227ZM171.409 99.7227C171.4 82.8581 165.114 66.5999 153.773 54.1095C142.433 41.6191 126.85 33.7893 110.053 32.1428C93.2564 30.4962 76.4472 35.1506 62.8941 45.2008C49.341 55.2509 40.0129 69.9785 36.7236 86.5197C33.4343 103.061 36.419 120.233 45.0973 134.698C53.7755 149.162 67.5271 159.884 83.6777 164.779C99.8284 169.675 117.224 168.393 132.481 161.184C147.739 153.974 159.768 141.352 166.229 125.773C169.639 117.511 171.392 108.66 171.386 99.7227H171.409Z" fill="#6100FF"/>
<path d="M176.608 99.9102C176.555 118.201 169.7 135.818 157.378 149.335C145.055 162.852 128.146 171.303 109.938 173.044C91.7304 174.785 73.5258 169.692 58.865 158.755C44.2042 147.818 34.1353 131.82 30.6164 113.87C27.0976 95.9213 30.3804 77.3049 39.8263 61.642C49.2723 45.979 64.2062 34.3891 81.7236 29.1265C99.241 23.8638 118.09 25.3046 134.604 33.1684C151.118 41.0323 164.117 54.7572 171.072 71.6738C174.75 80.6323 176.631 90.2263 176.608 99.9102ZM175.015 99.9102C175.012 82.0234 168.356 64.7771 156.343 51.5255C144.329 38.2738 127.816 29.9641 110.015 28.2125C92.2144 26.4608 74.3985 31.3925 60.0323 42.0482C45.666 52.704 35.7765 68.3222 32.2872 85.8653C28.7978 103.408 31.9579 121.622 41.153 136.964C50.3482 152.307 64.9209 163.68 82.037 168.874C99.1532 174.067 117.589 172.709 133.759 165.063C149.93 157.418 162.678 144.031 169.526 127.507C173.15 118.758 175.015 109.38 175.015 99.9102Z" fill="#6100FF"/>
<path d="M172.455 135.8C163.551 152.927 148.595 166.13 130.495 172.842C112.396 179.553 92.4474 179.294 74.5289 172.113C56.6105 164.933 42.003 151.344 33.5473 133.991C25.0916 116.638 23.3921 96.7604 28.7793 78.2236C34.1665 59.6869 46.2552 43.8163 62.6947 33.6982C79.1342 23.5801 98.7491 19.9378 117.725 23.4796C136.701 27.0213 153.682 37.494 165.364 52.861C177.047 68.228 182.597 87.3907 180.935 106.623C180.048 116.81 177.167 126.724 172.455 135.8ZM171.152 135.126C179.848 118.308 181.979 98.856 177.129 80.5541C172.28 62.2521 160.797 46.4079 144.913 36.1027C129.03 25.7975 109.882 21.768 91.192 24.7976C72.5024 27.8273 55.6075 37.6997 43.793 52.4948C31.9785 67.29 26.0888 85.9504 27.2693 104.847C28.4499 123.744 36.6162 141.526 50.1802 154.736C63.7443 167.946 81.7365 175.639 100.658 176.319C119.579 176.999 138.077 170.617 152.555 158.415C160.22 151.946 166.54 144.033 171.152 135.126Z" fill="#6100FF"/>
<path d="M162.336 156.755C148.244 171.375 129.218 180.231 108.958 181.601C88.6989 182.971 68.654 176.757 52.722 164.167C36.79 151.578 26.1099 133.513 22.7586 113.486C19.4074 93.4583 23.6246 72.9004 34.5902 55.81C45.5558 38.7197 62.4858 26.3185 82.0877 21.0185C101.69 15.7184 122.562 17.8982 140.646 27.134C158.73 36.3698 172.732 52.0014 179.93 70.9887C187.127 89.9759 187.006 110.962 179.589 129.864C175.657 139.873 169.795 149.01 162.336 156.755ZM161.4 155.855C175.231 141.451 183.211 122.417 183.787 102.455C184.364 82.4935 177.495 63.0309 164.518 47.8524C151.541 32.6738 133.382 22.8643 113.574 20.3314C93.7649 17.7985 73.7222 22.7233 57.3432 34.1481C40.9642 45.5729 29.4197 62.6811 24.9548 82.1455C20.4898 101.61 23.4236 122.039 33.1856 139.46C42.9476 156.882 58.84 170.05 77.7722 176.404C96.7044 182.757 117.323 181.843 135.618 173.838C145.308 169.591 154.067 163.481 161.4 155.855Z" fill="#6100FF"/>
<path d="M177.092 143.995C166.172 162.26 148.849 175.81 128.492 182.012C108.136 188.213 86.2002 186.622 66.9514 177.548C47.7027 168.473 32.5167 152.565 24.3466 132.915C16.1765 113.266 15.6063 91.2797 22.7468 71.2331C29.8873 51.1864 44.2282 34.5119 62.9806 24.452C81.733 14.3921 103.557 11.666 124.208 16.8038C144.858 21.9416 162.86 34.576 174.713 52.2501C186.565 69.9242 191.421 91.3747 188.336 112.43C186.696 123.588 182.876 134.313 177.092 143.995ZM176.152 143.434C186.906 125.379 190.561 103.97 186.406 83.3702C182.251 62.7702 170.582 44.4519 153.67 31.9776C136.758 19.5034 115.811 13.7649 94.9026 15.8781C73.9942 17.9914 54.6191 27.8053 40.5451 43.4114C26.4712 59.0175 18.7044 79.3003 18.7553 100.315C18.8062 121.33 26.671 141.575 40.8204 157.113C54.9698 172.65 74.3922 182.37 95.3106 184.382C116.229 186.394 137.148 180.555 154 167.999C162.922 161.342 170.449 152.995 176.152 143.434Z" fill="#6100FF"/>
<path d="M186.242 134.731C177.629 155.267 161.687 171.866 141.514 181.299C121.342 190.733 98.3822 192.327 77.0997 185.772C55.8172 179.217 37.7334 164.981 26.3649 145.832C14.9965 126.683 11.1559 103.991 15.5903 82.1674C20.0246 60.3442 32.4168 40.9501 50.357 27.7567C68.2972 14.5633 90.5031 8.51371 112.656 10.7843C134.809 13.0548 155.326 23.4832 170.217 40.0416C185.108 56.5999 193.308 78.1046 193.223 100.374C193.173 112.173 190.801 123.847 186.242 134.731ZM185.453 134.4C193.96 114.045 194.592 91.2532 187.227 70.4574C179.862 49.6616 165.026 32.3483 145.604 21.8845C126.182 11.4207 103.563 8.5543 82.1444 13.8428C60.7262 19.1313 42.0404 32.1966 29.7209 50.4979C17.4015 68.7992 12.329 91.0283 15.4899 112.862C18.6508 134.696 29.8192 154.574 46.8231 168.63C63.827 182.686 85.4509 189.916 107.49 188.913C129.528 187.91 150.406 178.747 166.063 163.204C174.356 154.97 180.948 145.184 185.463 134.405L185.453 134.4Z" fill="#6100FF"/>
<path d="M102.924 193.262C154.6 193.262 196.491 151.371 196.491 99.6948C196.491 48.0191 154.6 6.12759 102.924 6.12759C51.2482 6.12759 9.35675 48.0191 9.35675 99.6948C9.35675 151.371 51.2482 193.262 102.924 193.262Z" stroke="#6100FF" stroke-width="1.16959" stroke-miterlimit="10"/>
</g>
<defs>
<clipPath id="clip0_1_62">
<rect width="202.339" height="200" fill="white"/>
</clipPath>
</defs>
</svg>
