<svg width="50" height="31" viewBox="0 0 50 31" fill="none" xmlns="http://www.w3.org/2000/svg">
<path fill-rule="evenodd" clip-rule="evenodd" d="M28.8533 29.3251L38.5841 19.5762V25.112C38.5841 28.2703 41.1396 30.8306 44.292 30.8306C47.4445 30.8306 50 28.2703 50 25.112V5.71858C50 2.5603 47.4445 0 44.292 0C42.4828 0 40.8702 0.843298 39.8245 2.15895L20.7811 21.2378C18.552 23.471 18.552 27.0918 20.7811 29.3251C23.0102 31.5583 26.6243 31.5583 28.8533 29.3251ZM29.2098 1.73583C26.9807 -0.497412 23.3666 -0.497412 21.1375 1.73583L1.67182 21.2378C-0.557274 23.471 -0.557274 27.0918 1.67182 29.3251C3.90092 31.5583 7.515 31.5583 9.74409 29.3251L29.2098 9.82313C31.4389 7.58989 31.4389 3.96908 29.2098 1.73583Z" fill="white"/>
</svg>
