<svg width="169" height="41" viewBox="0 0 169 41" fill="none" xmlns="http://www.w3.org/2000/svg">
<path d="M26.8121 1.70483H12.442L0.873535 13.2732V27.6433L12.442 39.2118H26.8121L38.3805 27.6433V13.2732L26.8121 1.70483ZM14.4303 27.8241L7.01926 20.4131L14.4303 13.0021C17.232 10.2004 21.8413 10.2004 24.643 13.0021L32.054 20.4131L24.643 27.8241C21.8413 30.6258 17.3224 30.6258 14.4303 27.8241Z" fill="#6100FF"/>
<path d="M54.8664 29.1872C57.168 29.1872 59.0604 28.0108 59.6485 26.2463V28.9826H63.0497V22.0779C63.0497 20.518 61.8222 19.1882 60.16 19.1882H55.3012V22.0779H58.7535C59.1882 22.0779 59.4695 22.3592 59.4695 22.794C59.4695 24.4562 57.2703 26.0673 55.0454 26.0673C52.079 26.0673 49.7263 23.7402 49.7263 20.0321C49.7263 16.324 52.079 14.1759 55.1221 14.1759C57.4237 14.1759 59.0092 15.429 59.2905 17.3469H63.1009C62.8707 13.511 59.6485 10.877 55.1477 10.877C50.4167 10.877 46.0693 13.9202 46.0693 20.0321C46.0693 26.144 50.2889 29.1872 54.8664 29.1872Z" fill="#6100FF"/>
<path d="M64.5098 28.9826H68.0644V10.4934H64.5098V28.9826Z" fill="#6100FF"/>
<path d="M75.7321 29.1872C79.6959 29.1872 82.5345 26.3742 82.5345 22.5382C82.5345 18.7023 79.6959 15.8893 75.7321 15.8893C71.7683 15.8893 68.9297 18.7023 68.9297 22.5382C68.9297 26.3742 71.7683 29.1872 75.7321 29.1872ZM75.7321 26.1185C73.8141 26.1185 72.5099 24.6608 72.5099 22.5382C72.5099 20.3901 73.8141 18.9325 75.7321 18.9325C77.6501 18.9325 78.9543 20.3901 78.9543 22.5382C78.9543 24.6608 77.6501 26.1185 75.7321 26.1185Z" fill="#6100FF"/>
<path d="M90.4885 29.1872C94.2988 29.1872 96.5748 26.5532 96.5748 22.5382C96.5748 18.5233 94.2988 15.8893 90.5396 15.8893C88.9285 15.8893 87.6754 16.503 86.9594 17.4492V10.4934H83.4048V28.9826H86.9594V27.5761C87.6754 28.5735 89.0052 29.1872 90.4885 29.1872ZM89.9259 26.1185C88.0079 26.1185 86.7548 24.6864 86.7548 22.5382C86.7548 20.3646 88.0079 18.9325 89.9259 18.9325C91.7927 18.9325 93.0713 20.3646 93.0713 22.5382C93.0713 24.6864 91.7927 26.1185 89.9259 26.1185Z" fill="#6100FF"/>
<path d="M102.525 15.8893C98.9961 15.8893 96.8991 17.9607 96.7456 20.5436H99.9167C99.9678 19.4695 100.761 18.4977 102.321 18.4977C103.778 18.4977 104.622 19.2393 104.622 20.3134C104.622 20.8504 104.29 21.2596 103.65 21.2596H101.477C98.6636 21.2596 96.7712 22.794 96.7712 25.3257C96.7712 27.525 98.4846 29.1872 100.991 29.1872C102.755 29.1872 104.187 28.3944 104.622 27.1925V28.9826H108.151V20.697C108.151 17.7817 105.773 15.8893 102.525 15.8893ZM101.886 26.6043C100.888 26.6043 100.172 26.0162 100.172 25.1723C100.172 24.1749 100.94 23.51 102.014 23.51H104.622V23.689C104.622 25.3257 103.625 26.6043 101.886 26.6043Z" fill="#6100FF"/>
<path d="M109.517 28.9826H113.072V10.4934H109.517V28.9826Z" fill="#6100FF"/>
<path d="M114.96 28.9826H122.274C126.059 28.9826 128.667 27.0391 128.667 23.6379C128.667 21.2852 127.286 19.8531 125.649 19.2138C126.698 18.6512 127.746 17.3725 127.746 15.6847C127.746 12.6927 125.317 11.0816 122.069 11.0816H114.96V28.9826ZM118.745 17.9096V14.1248H121.711C123.425 14.1248 124.192 14.8152 124.192 16.0172C124.192 17.2191 123.425 17.9096 121.788 17.9096H118.745ZM118.745 25.6581V21.1573H121.941C124.064 21.1573 125.01 21.9756 125.01 23.4333C125.01 24.891 124.064 25.6581 121.941 25.6581H118.745Z" fill="#6100FF"/>
<path d="M134.851 15.8893C131.322 15.8893 129.225 17.9607 129.071 20.5436H132.242C132.294 19.4695 133.086 18.4977 134.646 18.4977C136.104 18.4977 136.948 19.2393 136.948 20.3134C136.948 20.8504 136.615 21.2596 135.976 21.2596H133.802C130.989 21.2596 129.097 22.794 129.097 25.3257C129.097 27.525 130.81 29.1872 133.316 29.1872C135.081 29.1872 136.513 28.3944 136.948 27.1925V28.9826H140.477V20.697C140.477 17.7817 138.099 15.8893 134.851 15.8893ZM134.212 26.6043C133.214 26.6043 132.498 26.0162 132.498 25.1723C132.498 24.1749 133.265 23.51 134.339 23.51H136.948V23.689C136.948 25.3257 135.951 26.6043 134.212 26.6043Z" fill="#6100FF"/>
<path d="M141.638 28.9826H145.218V21.9245C145.218 20.2623 146.318 19.0603 147.878 19.0603C149.361 19.0603 150.359 20.1855 150.359 21.7455V28.9826H153.939V20.9527C153.939 17.9863 152.046 15.8893 149.131 15.8893C147.367 15.8893 145.935 16.6309 145.218 17.884V16.0939H141.638V28.9826Z" fill="#6100FF"/>
<path d="M164.143 28.9826H168.439L162.89 21.1573L168.03 16.0939H163.529L159.054 20.4924V10.4934H155.473V28.9826H159.054V24.9421L160.486 23.5356L164.143 28.9826Z" fill="#6100FF"/>
</svg>
