<svg width="142" height="41" viewBox="0 0 142 41" fill="none" xmlns="http://www.w3.org/2000/svg">
<circle cx="19.0435" cy="20.6714" r="17.4748" stroke="#6100FF" stroke-width="2.55729"/>
<path d="M25.9752 27.603C22.4466 31.1316 18.4491 33.435 14.8891 34.3504C11.2968 35.2742 8.40145 34.7424 6.68687 33.0278C4.97228 31.3133 4.44055 28.4179 5.36426 24.8256C6.27971 21.2656 8.58315 17.2681 12.1117 13.7395C15.6402 10.211 19.6377 7.90755 23.1978 6.99211C26.79 6.06839 29.6854 6.60013 31.4 8.31471C33.1146 10.0293 33.6463 12.9247 32.7226 16.5169C31.8072 20.077 29.5037 24.0745 25.9752 27.603Z" stroke="#6100FF" stroke-width="2.55729"/>
<path d="M25.9751 13.7397C29.5036 17.2682 31.8071 21.2657 32.7225 24.8258C33.6462 28.418 33.1145 31.3134 31.3999 33.028C29.6853 34.7426 26.7899 35.2743 23.1977 34.3506C19.6377 33.4351 15.6402 31.1317 12.1116 27.6031C8.58307 24.0746 6.27962 20.0771 5.36418 16.517C4.44046 12.9248 4.9722 10.0294 6.68678 8.31485C8.40137 6.60027 11.2968 6.06853 14.889 6.99225C18.449 7.90769 22.4465 10.2111 25.9751 13.7397Z" stroke="#6100FF" stroke-width="2.55729"/>
<path d="M53.8653 29.1872C57.8803 29.1872 60.591 27.0902 60.591 23.7402C60.591 16.6565 51.1802 19.6741 51.1802 15.9404C51.1802 14.8919 52.1264 14.1759 53.6352 14.1759C55.3485 14.1759 56.4226 15.0965 56.5505 16.503H60.2074C60.1051 13.1018 57.4967 10.877 53.6352 10.877C50.0038 10.877 47.4465 12.974 47.4465 15.9404C47.4465 22.973 56.7295 20.2878 56.7295 23.7913C56.7295 25.1467 55.5787 25.8627 53.8653 25.8627C51.9729 25.8627 50.771 24.7119 50.6176 22.8963H46.9351C47.0885 26.7066 49.7992 29.1872 53.8653 29.1872Z" fill="#6100FF"/>
<path d="M61.4607 34.1995H65.0153V27.8318C65.7058 28.7013 66.9588 29.1872 68.4165 29.1872C72.1246 29.1872 74.6307 26.5532 74.6307 22.5382C74.6307 18.5233 72.3292 15.8893 68.7234 15.8893C67.0611 15.8893 65.7825 16.503 65.0153 17.5004V16.0939H61.4607V34.1995ZM67.9818 26.1185C66.0638 26.1185 64.8107 24.6864 64.8107 22.5382C64.8107 20.3646 66.0638 18.9325 67.9818 18.9325C69.8486 18.9325 71.1272 20.3646 71.1272 22.5382C71.1272 24.6864 69.8486 26.1185 67.9818 26.1185Z" fill="#6100FF"/>
<path d="M75.4908 28.9826H79.0454V21.9245C79.0454 20.2623 80.1451 19.0603 81.705 19.0603C83.1882 19.0603 84.2112 20.1855 84.2112 21.7455V28.9826H87.7658V20.9527C87.7658 17.9863 85.8734 15.8893 82.9837 15.8893C81.1936 15.8893 79.787 16.6309 79.0454 17.884V10.4934H75.4908V28.9826Z" fill="#6100FF"/>
<path d="M97.7097 24.6097C97.4284 25.7093 96.4822 26.2719 95.0501 26.2719C93.26 26.2719 92.1092 25.1467 91.8535 23.331H101.111C101.136 23.0497 101.162 22.6661 101.162 22.1802C101.162 19.2393 99.3463 15.8893 94.7943 15.8893C90.4214 15.8893 88.4267 19.2393 88.4267 22.5127C88.4267 25.7604 90.6771 29.1872 95.0501 29.1872C98.2211 29.1872 100.676 27.3971 101.188 24.6097H97.7097ZM94.7943 18.4977C96.5077 18.4977 97.5051 19.6485 97.6074 21.0806H91.9046C92.2115 19.2905 93.1833 18.4977 94.7943 18.4977Z" fill="#6100FF"/>
<path d="M110.485 19.0603V16.0939H108.65C107.091 16.0939 106.119 16.6309 105.428 18.242V16.0939H101.848V28.9826H105.428V22.7173C105.428 20.518 106.221 19.0603 107.986 19.0603H110.485Z" fill="#6100FF"/>
<path d="M122.76 16.0939H119.179V23.152C119.179 24.7887 118.08 26.0162 116.52 26.0162C115.062 26.0162 114.039 24.891 114.039 23.331V16.0939H110.485V24.1238C110.485 27.0647 112.377 29.1872 115.267 29.1872C117.031 29.1872 118.463 28.42 119.179 27.1925V28.9826H122.76V16.0939Z" fill="#6100FF"/>
<path d="M124.294 28.9826H127.849V10.4934H124.294V28.9826Z" fill="#6100FF"/>
<path d="M137.997 24.6097C137.716 25.7093 136.769 26.2719 135.337 26.2719C133.547 26.2719 132.396 25.1467 132.141 23.331H141.398C141.424 23.0497 141.449 22.6661 141.449 22.1802C141.449 19.2393 139.634 15.8893 135.082 15.8893C130.709 15.8893 128.714 19.2393 128.714 22.5127C128.714 25.7604 130.964 29.1872 135.337 29.1872C138.508 29.1872 140.963 27.3971 141.475 24.6097H137.997ZM135.082 18.4977C136.795 18.4977 137.792 19.6485 137.895 21.0806H132.192C132.499 19.2905 133.471 18.4977 135.082 18.4977Z" fill="#6100FF"/>
</svg>
