<svg width="157" height="41" viewBox="0 0 157 41" fill="none" xmlns="http://www.w3.org/2000/svg">
<g clip-path="url(#clip0_27_1139)">
<path d="M24.1276 3.51339L20.5296 2.54932L17.4976 13.865L14.7603 3.64913L11.1622 4.6132L14.1198 15.6507L6.75322 8.2842L4.11933 10.9181L12.1995 18.9984L2.13692 16.3021L1.17285 19.9L12.1675 22.846C12.0416 22.3031 11.975 21.7374 11.975 21.1561C11.975 17.0417 15.3104 13.7063 19.4248 13.7063C23.5393 13.7063 26.8746 17.0417 26.8746 21.1561C26.8746 21.7336 26.8089 22.2959 26.6845 22.8356L36.6767 25.5129L37.6407 21.915L26.6023 18.9573L36.6656 16.2608L35.7015 12.6629L24.6635 15.6205L32.0301 8.25395L29.3962 5.62006L21.4281 13.5882L24.1276 3.51339Z" fill="#6100FF"/>
<path d="M26.674 22.8775C26.3655 24.1816 25.7143 25.3532 24.8207 26.2919L32.0595 33.5308L34.6935 30.8969L26.674 22.8775Z" fill="#6100FF"/>
<path d="M24.7476 26.3676C23.8433 27.2913 22.7004 27.9806 21.4188 28.3358L24.0528 38.1663L27.6508 37.2021L24.7476 26.3676Z" fill="#6100FF"/>
<path d="M21.2844 28.3717C20.6898 28.5246 20.0665 28.6058 19.4242 28.6058C18.7361 28.6058 18.0698 28.5125 17.4372 28.3379L14.8007 38.1773L18.3986 39.1414L21.2844 28.3717Z" fill="#6100FF"/>
<path d="M17.3099 28.3016C16.0479 27.9288 14.9253 27.2307 14.0394 26.3043L6.78278 33.561L9.41667 36.1949L17.3099 28.3016Z" fill="#6100FF"/>
<path d="M13.9796 26.2402C13.1089 25.308 12.4747 24.1521 12.1728 22.868L2.14807 25.5542L3.11213 29.1521L13.9796 26.2402Z" fill="#6100FF"/>
</g>
<path d="M59.2909 11.0042V23.9696L50.9798 11.0042H47.6553V28.9052H50.9798V16.042L59.2909 28.9052H62.6154V11.0042H59.2909Z" fill="#6100FF"/>
<path d="M64.1134 14.3542H67.5402V11.0042H64.1134V14.3542ZM64.1646 28.9052V16.1187H67.4891V28.9052H64.1646Z" fill="#6100FF"/>
<path d="M81.7929 22.512C81.7929 18.0878 78.6474 15.9909 75.323 15.9653C71.9729 15.9397 68.8786 18.0878 68.8786 22.512C68.8786 26.9361 71.9729 29.0842 75.323 29.0586C78.3661 29.033 80.4631 27.6265 81.4349 25.2994L78.852 24.2253C78.0593 25.8109 76.8062 26.3735 75.323 26.399C74.0443 26.4246 72.5867 25.8109 72.2798 23.5349H81.7162C81.7673 23.2024 81.7929 22.87 81.7929 22.512ZM75.323 18.5993C76.6016 18.6249 77.9058 19.3153 78.315 21.1566H72.3309C72.7657 19.2898 74.0699 18.5737 75.323 18.5993Z" fill="#6100FF"/>
<path d="M89.476 18.497V15.9653H87.379V12.5385L84.0545 13.5614V15.9653H81.9575V18.497H84.0545V25.1204C84.0545 27.6265 84.2591 28.9052 88.1462 28.9052H89.0412V25.9899H88.1462C87.5324 25.9899 87.379 25.8876 87.379 25.1204V18.497H89.476Z" fill="#6100FF"/>
<path d="M94.4159 26.1177L101.474 18.9062V16.1187H90.8869V18.9062H97.7404L90.6823 26.1177V28.9052H101.551V26.1177H94.4159Z" fill="#6100FF"/>
<path d="M102.743 25.2994L106.093 24.7879C106.323 26.0666 107.832 26.5525 108.752 26.5525C109.699 26.5525 111.335 26.3479 111.335 24.8135C111.335 21.8215 103.126 25.5551 103.126 19.8268C103.126 16.1443 107.397 15.9397 108.752 15.9397C110.031 15.9397 113.739 16.1443 114.506 19.1108L111.335 19.7757C111.054 18.4203 109.622 18.1646 108.855 18.1646C108.087 18.1646 106.451 18.3436 106.451 19.8268C106.451 22.7933 114.66 19.0085 114.66 24.8135C114.66 28.7262 110.159 29.0586 108.752 29.0586C107.474 29.0586 103.408 28.7262 102.743 25.2994Z" fill="#6100FF"/>
<path d="M118.978 22.512C118.978 25.6319 120.641 26.578 122.38 26.5525C123.94 26.5269 125.014 25.8876 125.653 24.0975L128.389 25.4273C127.392 28.0357 124.963 29.033 122.38 29.0586C119.03 29.0842 115.654 26.9361 115.654 22.512C115.654 18.0878 119.03 15.9397 122.38 15.9653C124.963 15.9909 127.392 16.9882 128.389 19.5966L125.653 20.9264C125.014 19.1363 123.94 18.497 122.38 18.4714C120.641 18.4459 118.978 19.3921 118.978 22.512Z" fill="#6100FF"/>
<path d="M137.314 15.9141C135.601 15.9141 134.041 16.8092 133.043 18.7272V11.0042H129.719V28.9052H133.043V24.3788C133.043 18.5226 135.473 18.0367 136.368 18.0367C137.8 18.0367 138.005 19.5199 138.005 21.6936V28.9052H141.329V21.6936C141.329 18.9829 140.894 15.9141 137.314 15.9141Z" fill="#6100FF"/>
<path d="M155.365 22.512C155.365 18.0878 152.219 15.9909 148.895 15.9653C145.545 15.9397 142.451 18.0878 142.451 22.512C142.451 26.9361 145.545 29.0842 148.895 29.0586C151.938 29.033 154.035 27.6265 155.007 25.2994L152.424 24.2253C151.631 25.8109 150.378 26.3735 148.895 26.399C147.616 26.4246 146.159 25.8109 145.852 23.5349H155.288C155.339 23.2024 155.365 22.87 155.365 22.512ZM148.895 18.5993C150.174 18.6249 151.478 19.3153 151.887 21.1566H145.903C146.338 19.2898 147.642 18.5737 148.895 18.5993Z" fill="#6100FF"/>
<defs>
<clipPath id="clip0_27_1139">
<rect width="37.5069" height="37.5069" fill="white" transform="translate(0.882324 1.70483)"/>
</clipPath>
</defs>
</svg>
