<svg width="144" height="41" viewBox="0 0 144 41" fill="none" xmlns="http://www.w3.org/2000/svg">
<path fill-rule="evenodd" clip-rule="evenodd" d="M17.8419 2.93921C17.4114 2.85067 16.9673 2.85067 16.5368 2.93921C16.0392 3.04156 15.5944 3.29069 15.2408 3.48875L15.1444 3.5426L3.15964 10.2008C3.12651 10.2192 3.09236 10.238 3.05738 10.2573C2.68305 10.4634 2.21238 10.7227 1.85094 11.1149C1.53844 11.454 1.30195 11.8559 1.15729 12.2938C0.989959 12.8002 0.991917 13.3376 0.993474 13.7649C0.993619 13.8048 0.993761 13.8438 0.993761 13.8817V27.0278C0.993761 27.0658 0.993619 27.1047 0.993474 27.1447C0.991917 27.572 0.989959 28.1094 1.15729 28.6158C1.30195 29.0536 1.53844 29.4556 1.85094 29.7947C2.21238 30.1869 2.68305 30.4461 3.05738 30.6523C3.09237 30.6716 3.12651 30.6904 3.15964 30.7088L15.1444 37.367L15.2408 37.4208C15.5944 37.6189 16.0392 37.868 16.5368 37.9704C16.9673 38.0589 17.4114 38.0589 17.8419 37.9704C18.3395 37.868 18.7843 37.6189 19.1379 37.4208L19.2343 37.367L31.219 30.7088C31.2337 30.7007 31.2485 30.6924 31.2635 30.6841C31.2825 30.6737 31.3018 30.6631 31.3213 30.6523C31.6956 30.4461 32.1663 30.1869 32.5277 29.7947C32.8402 29.4556 33.0767 29.0536 33.2214 28.6158C33.3887 28.1094 33.3868 27.572 33.3852 27.1447C33.3851 27.1047 33.3849 27.0657 33.3849 27.0278V13.8817C33.3849 13.8438 33.3851 13.8048 33.3852 13.7649C33.3868 13.3376 33.3887 12.8002 33.2214 12.2938C33.0767 11.8559 32.8402 11.454 32.5277 11.1149C32.1663 10.7227 31.6956 10.4634 31.3213 10.2573L31.32 10.2565C31.2854 10.2375 31.2517 10.219 31.219 10.2008L19.2343 3.5426L19.1379 3.48875C18.7843 3.29069 18.3395 3.04156 17.8419 2.93921ZM16.7174 6.37409C16.9629 6.23774 17.0881 6.16885 17.1816 6.12377L17.1893 6.12006L17.1971 6.12377C17.2905 6.16885 17.4158 6.23774 17.6613 6.37409L28.4304 12.357L17.1893 18.602L5.94821 12.357L16.7174 6.37409ZM4.23288 15.1094L15.5697 21.4077L15.5698 33.8979L4.7327 27.8773C4.47364 27.7334 4.34138 27.6591 4.24859 27.6L4.24075 27.595L4.24017 27.5857C4.23355 27.4759 4.23288 27.3242 4.23288 27.0278V15.1094Z" fill="#6100FF"/>
<path d="M48.1246 25.8672H53.2801V28.9052H44.189V12.7483H48.1246V25.8672Z" fill="#6100FF"/>
<path d="M56.9065 14.7276C56.2161 14.7276 55.6483 14.5281 55.2034 14.1292C54.7737 13.7149 54.5589 13.2086 54.5589 12.6102C54.5589 11.9964 54.7737 11.4901 55.2034 11.0911C55.6483 10.6769 56.2161 10.4697 56.9065 10.4697C57.5817 10.4697 58.134 10.6769 58.5637 11.0911C59.0086 11.4901 59.2311 11.9964 59.2311 12.6102C59.2311 13.2086 59.0086 13.7149 58.5637 14.1292C58.134 14.5281 57.5817 14.7276 56.9065 14.7276ZM58.8629 16.0625V28.9052H54.9272V16.0625H58.8629Z" fill="#6100FF"/>
<path d="M66.3641 15.8784C67.2694 15.8784 68.0596 16.0625 68.7348 16.4308C69.4252 16.799 69.9546 17.2823 70.3228 17.8808V16.0625H74.2585V28.8822C74.2585 30.0637 74.0207 31.1301 73.545 32.0814C73.0847 33.048 72.3712 33.8152 71.4046 34.3829C70.4533 34.9507 69.2641 35.2345 67.8371 35.2345C65.9345 35.2345 64.3925 34.7819 63.211 33.8766C62.0295 32.9867 61.3544 31.7745 61.1856 30.2401H65.0753C65.198 30.7311 65.4896 31.1147 65.9499 31.3909C66.4102 31.6825 66.9779 31.8282 67.653 31.8282C68.4662 31.8282 69.1107 31.5904 69.5863 31.1147C70.0773 30.6544 70.3228 29.9102 70.3228 28.8822V27.064C69.9392 27.6624 69.4099 28.1534 68.7348 28.537C68.0596 28.9052 67.2694 29.0894 66.3641 29.0894C65.3054 29.0894 64.3464 28.8208 63.4872 28.2838C62.6279 27.7314 61.9452 26.9566 61.4388 25.9592C60.9478 24.9465 60.7023 23.7804 60.7023 22.4609C60.7023 21.1413 60.9478 19.9828 61.4388 18.9855C61.9452 17.9882 62.6279 17.221 63.4872 16.6839C64.3464 16.1469 65.3054 15.8784 66.3641 15.8784ZM70.3228 22.4839C70.3228 21.5019 70.0466 20.727 69.4943 20.1593C68.9572 19.5916 68.2975 19.3077 67.5149 19.3077C66.7324 19.3077 66.0649 19.5916 65.5126 20.1593C64.9755 20.7117 64.707 21.4789 64.707 22.4609C64.707 23.4429 64.9755 24.2254 65.5126 24.8085C66.0649 25.3762 66.7324 25.66 67.5149 25.66C68.2975 25.66 68.9572 25.3762 69.4943 24.8085C70.0466 24.2407 70.3228 23.4659 70.3228 22.4839Z" fill="#6100FF"/>
<path d="M84.77 15.9244C86.243 15.9244 87.4244 16.4154 88.3144 17.3974C89.2043 18.3641 89.6493 19.699 89.6493 21.4021V28.9052H85.7366V21.9315C85.7366 21.0723 85.5142 20.4048 85.0692 19.9291C84.6242 19.4535 84.0258 19.2157 83.274 19.2157C82.5221 19.2157 81.9237 19.4535 81.4788 19.9291C81.0338 20.4048 80.8113 21.0723 80.8113 21.9315V28.9052H76.8756V11.8737H80.8113V17.7887C81.2102 17.221 81.7549 16.7683 82.4454 16.4308C83.1359 16.0932 83.9107 15.9244 84.77 15.9244Z" fill="#6100FF"/>
<path d="M99.3119 25.568V28.9052H97.3095C95.8826 28.9052 94.7701 28.56 93.9723 27.8695C93.1744 27.1637 92.7755 26.0206 92.7755 24.4402V19.3307H91.2104V16.0625H92.7755V12.9324H96.7111V16.0625H99.2889V19.3307H96.7111V24.4862C96.7111 24.8698 96.8032 25.146 96.9873 25.3148C97.1714 25.4836 97.4783 25.568 97.9079 25.568H99.3119Z" fill="#6100FF"/>
<path d="M105.21 17.8808C105.578 17.2823 106.107 16.799 106.798 16.4308C107.488 16.0625 108.278 15.8784 109.168 15.8784C110.227 15.8784 111.186 16.1469 112.045 16.6839C112.905 17.221 113.58 17.9882 114.071 18.9855C114.577 19.9828 114.83 21.1413 114.83 22.4609C114.83 23.7804 114.577 24.9465 114.071 25.9592C113.58 26.9566 112.905 27.7314 112.045 28.2838C111.186 28.8208 110.227 29.0894 109.168 29.0894C108.263 29.0894 107.473 28.9129 106.798 28.56C106.123 28.1917 105.593 27.7084 105.21 27.11V28.9052H101.274V11.8737H105.21V17.8808ZM110.825 22.4609C110.825 21.4789 110.549 20.7117 109.997 20.1593C109.46 19.5916 108.792 19.3077 107.995 19.3077C107.212 19.3077 106.545 19.5916 105.992 20.1593C105.455 20.727 105.187 21.5019 105.187 22.4839C105.187 23.4659 105.455 24.2407 105.992 24.8085C106.545 25.3762 107.212 25.66 107.995 25.66C108.777 25.66 109.445 25.3762 109.997 24.8085C110.549 24.2254 110.825 23.4429 110.825 22.4609Z" fill="#6100FF"/>
<path d="M122.511 29.0894C121.253 29.0894 120.117 28.8208 119.104 28.2838C118.107 27.7468 117.317 26.9796 116.734 25.9822C116.166 24.9849 115.882 23.8188 115.882 22.4839C115.882 21.1643 116.174 20.0059 116.757 19.0085C117.34 17.9958 118.138 17.221 119.15 16.6839C120.163 16.1469 121.299 15.8784 122.557 15.8784C123.815 15.8784 124.95 16.1469 125.963 16.6839C126.976 17.221 127.774 17.9958 128.357 19.0085C128.94 20.0059 129.231 21.1643 129.231 22.4839C129.231 23.8034 128.932 24.9696 128.334 25.9822C127.751 26.9796 126.945 27.7468 125.917 28.2838C124.904 28.8208 123.769 29.0894 122.511 29.0894ZM122.511 25.683C123.263 25.683 123.899 25.4069 124.421 24.8545C124.958 24.3021 125.227 23.5119 125.227 22.4839C125.227 21.4558 124.966 20.6656 124.444 20.1133C123.938 19.5609 123.309 19.2847 122.557 19.2847C121.79 19.2847 121.153 19.5609 120.646 20.1133C120.14 20.6503 119.887 21.4405 119.887 22.4839C119.887 23.5119 120.132 24.3021 120.623 24.8545C121.13 25.4069 121.759 25.683 122.511 25.683Z" fill="#6100FF"/>
<path d="M138.684 28.9052L136.222 25.3378L134.15 28.9052H129.892L134.127 22.3458L129.777 16.0625H134.196L136.659 19.6069L138.73 16.0625H142.988L138.684 22.5299L143.103 28.9052H138.684Z" fill="#6100FF"/>
</svg>
