<svg width="145" height="41" viewBox="0 0 145 41" fill="none" xmlns="http://www.w3.org/2000/svg">
<path fill-rule="evenodd" clip-rule="evenodd" d="M18.7535 39.2118C29.1107 39.2118 37.5069 30.8155 37.5069 20.4583C37.5069 10.1011 29.1107 1.70483 18.7535 1.70483C8.39619 1.70483 0 10.1011 0 20.4583C0 30.8155 8.39619 39.2118 18.7535 39.2118ZM24.6039 10.441C24.8887 9.42944 23.907 8.83128 23.0105 9.46999L10.4955 18.3856C9.52321 19.0783 9.67614 20.4583 10.7252 20.4583H14.0208V20.4328H20.4436L15.2102 22.2793L12.903 30.4756C12.6183 31.4872 13.5998 32.0853 14.4964 31.4466L27.0115 22.531C27.9837 21.8383 27.8307 20.4583 26.7817 20.4583H21.7841L24.6039 10.441Z" fill="#6100FF"/>
<path d="M47.2075 28.9053V25.9388H49.5602V13.9707H47.2075V11.0043H56.4138C57.5049 11.0043 58.4511 11.1918 59.2524 11.5669C60.0707 11.9249 60.7015 12.4449 61.1448 13.1268C61.6051 13.7917 61.8352 14.593 61.8352 15.5307V15.7864C61.8352 16.6047 61.6818 17.2781 61.3749 17.8067C61.068 18.3181 60.7015 18.7188 60.2753 19.0086C59.8661 19.2814 59.474 19.4774 59.0989 19.5968V20.0571C59.474 20.1594 59.8832 20.3554 60.3264 20.6452C60.7697 20.918 61.1448 21.3187 61.4516 21.8472C61.7756 22.3757 61.9375 23.0661 61.9375 23.9186V24.1743C61.9375 25.1631 61.7074 26.0156 61.247 26.7316C60.7867 27.4306 60.1474 27.9676 59.3291 28.3427C58.5278 28.7178 57.5901 28.9053 56.5161 28.9053H47.2075ZM52.9359 25.8365H56.1069C56.84 25.8365 57.4282 25.6575 57.8714 25.2995C58.3317 24.9415 58.5619 24.43 58.5619 23.7651V23.5094C58.5619 22.8445 58.3403 22.3331 57.897 21.975C57.4537 21.617 56.857 21.438 56.1069 21.438H52.9359V25.8365ZM52.9359 18.3693H56.0557C56.7547 18.3693 57.3259 18.1902 57.7691 17.8322C58.2294 17.4742 58.4596 16.9798 58.4596 16.349V16.0933C58.4596 15.4454 58.238 14.951 57.7947 14.61C57.3514 14.252 56.7718 14.073 56.0557 14.073H52.9359V18.3693Z" fill="#6100FF"/>
<path d="M69.5598 29.2633C68.2982 29.2633 67.1645 29.0076 66.1586 28.4961C65.1528 27.9847 64.36 27.2431 63.7804 26.2713C63.2007 25.2995 62.9109 24.1317 62.9109 22.7678V22.3586C62.9109 20.9947 63.2007 19.8269 63.7804 18.8551C64.36 17.8834 65.1528 17.1418 66.1586 16.6303C67.1645 16.1188 68.2982 15.8631 69.5598 15.8631C70.8214 15.8631 71.9552 16.1188 72.961 16.6303C73.9669 17.1418 74.7597 17.8834 75.3393 18.8551C75.919 19.8269 76.2088 20.9947 76.2088 22.3586V22.7678C76.2088 24.1317 75.919 25.2995 75.3393 26.2713C74.7597 27.2431 73.9669 27.9847 72.961 28.4961C71.9552 29.0076 70.8214 29.2633 69.5598 29.2633ZM69.5598 26.3991C70.5487 26.3991 71.367 26.0838 72.0148 25.453C72.6627 24.8051 72.9866 23.8845 72.9866 22.6911V22.4354C72.9866 21.2419 72.6627 20.3298 72.0148 19.699C71.384 19.0512 70.5657 18.7273 69.5598 18.7273C68.571 18.7273 67.7527 19.0512 67.1048 19.699C66.457 20.3298 66.1331 21.2419 66.1331 22.4354V22.6911C66.1331 23.8845 66.457 24.8051 67.1048 25.453C67.7527 26.0838 68.571 26.3991 69.5598 26.3991Z" fill="#6100FF"/>
<path d="M77.9044 28.9053V11.0043H81.1266V28.9053H77.9044Z" fill="#6100FF"/>
<path d="M88.2774 28.9053C87.442 28.9053 86.7601 28.6496 86.2316 28.1381C85.7201 27.6096 85.4644 26.9106 85.4644 26.0411V18.8807H82.2933V16.2211H85.4644V12.2829H88.6866V16.2211H92.1645V18.8807H88.6866V25.4785C88.6866 25.99 88.9252 26.2457 89.4026 26.2457H91.8576V28.9053H88.2774Z" fill="#6100FF"/>
<path d="M99.0706 29.2633C97.4169 29.2633 96.0615 28.9053 95.0045 28.1893C93.9475 27.4732 93.3081 26.4503 93.0865 25.1205L96.053 24.3533C96.1723 24.95 96.3684 25.4189 96.6411 25.7598C96.931 26.1008 97.2805 26.348 97.6896 26.5014C98.1158 26.6378 98.5762 26.706 99.0706 26.706C99.8207 26.706 100.375 26.5782 100.733 26.3224C101.091 26.0497 101.27 25.7172 101.27 25.3251C101.27 24.933 101.099 24.6346 100.758 24.43C100.417 24.2084 99.8718 24.0294 99.1217 23.893L98.4057 23.7651C97.5191 23.5947 96.7093 23.3645 95.9762 23.0747C95.2432 22.7678 94.655 22.3501 94.2117 21.8216C93.7685 21.2931 93.5468 20.6111 93.5468 19.7758C93.5468 18.5142 94.0071 17.5509 94.9278 16.886C95.8484 16.2041 97.0588 15.8631 98.5591 15.8631C99.9741 15.8631 101.15 16.1785 102.088 16.8093C103.026 17.4401 103.64 18.267 103.929 19.2899L100.937 20.2105C100.801 19.5627 100.52 19.1023 100.093 18.8296C99.6843 18.5568 99.1729 18.4204 98.5591 18.4204C97.9454 18.4204 97.4765 18.5312 97.1526 18.7529C96.8287 18.9574 96.6667 19.2473 96.6667 19.6223C96.6667 20.0315 96.8372 20.3384 97.1782 20.543C97.5191 20.7305 97.9795 20.8754 98.5591 20.9777L99.2752 21.1056C100.23 21.276 101.091 21.5062 101.858 21.796C102.642 22.0688 103.256 22.4694 103.699 22.998C104.16 23.5094 104.39 24.2084 104.39 25.0949C104.39 26.4247 103.904 27.4562 102.932 28.1893C101.977 28.9053 100.69 29.2633 99.0706 29.2633Z" fill="#6100FF"/>
<path d="M105.935 28.9053V11.0043H109.157V17.7811H109.617C109.754 17.5083 109.967 17.2355 110.257 16.9627C110.546 16.69 110.93 16.4683 111.407 16.2979C111.902 16.1103 112.524 16.0166 113.274 16.0166C114.263 16.0166 115.124 16.2467 115.857 16.707C116.607 17.1503 117.187 17.7726 117.596 18.5738C118.005 19.3581 118.21 20.2787 118.21 21.3357V28.9053H114.988V21.5914C114.988 20.6367 114.749 19.9207 114.271 19.4433C113.811 18.966 113.146 18.7273 112.277 18.7273C111.288 18.7273 110.521 19.0597 109.975 19.7246C109.43 20.3725 109.157 21.2846 109.157 22.4609V28.9053H105.935Z" fill="#6100FF"/>
<path d="M120.414 28.9053V16.2211H123.637V28.9053H120.414ZM122.025 14.7379C121.446 14.7379 120.951 14.5504 120.542 14.1753C120.15 13.8002 119.954 13.3058 119.954 12.6921C119.954 12.0783 120.15 11.5839 120.542 11.2088C120.951 10.8338 121.446 10.6462 122.025 10.6462C122.622 10.6462 123.117 10.8338 123.509 11.2088C123.901 11.5839 124.097 12.0783 124.097 12.6921C124.097 13.3058 123.901 13.8002 123.509 14.1753C123.117 14.5504 122.622 14.7379 122.025 14.7379Z" fill="#6100FF"/>
<path d="M128.025 28.9053V18.8807H124.803V16.2211H128.025V13.8684C128.025 12.9989 128.281 12.3085 128.793 11.797C129.321 11.2685 130.003 11.0043 130.839 11.0043H134.163V13.6638H131.964C131.486 13.6638 131.248 13.9196 131.248 14.431V16.2211H134.572V18.8807H131.248V28.9053H128.025Z" fill="#6100FF"/>
<path d="M140.397 28.9053C139.562 28.9053 138.88 28.6496 138.351 28.1381C137.84 27.6096 137.584 26.9106 137.584 26.0411V18.8807H134.413V16.2211H137.584V12.2829H140.806V16.2211H144.284V18.8807H140.806V25.4785C140.806 25.99 141.045 26.2457 141.522 26.2457H143.977V28.9053H140.397Z" fill="#6100FF"/>
</svg>
