<svg width="170" height="41" viewBox="0 0 170 41" fill="none" xmlns="http://www.w3.org/2000/svg">
<path d="M31.3775 9.51562C31.0091 9.14719 30.6406 8.77875 30.2722 8.41031C29.1669 7.23131 27.9879 6.05232 26.5141 5.31544C24.8193 4.43119 22.9771 4.65225 21.1349 4.65225C18.3348 4.65225 11.3345 4.65225 7.20801 4.65225L10.0081 8.41031C15.0926 8.41031 23.0508 8.41031 26.7352 8.41031C28.2826 8.41031 29.609 8.70506 30.8617 9.51562C31.0828 9.58931 31.3038 9.58931 31.3775 9.51562Z" fill="#6100FF"/>
<path d="M34.4726 15.5583C34.1042 15.1899 33.7358 14.8215 33.3673 14.453C32.262 13.274 31.083 12.095 29.6093 11.3582C27.9145 10.4739 26.0723 10.695 24.2301 10.695C21.7984 10.695 15.9771 10.695 11.8506 10.695L14.6507 14.453C19.6615 14.453 26.5144 14.453 29.904 14.453C31.4515 14.453 32.7778 14.7478 34.0305 15.5583C34.1779 15.632 34.3253 15.632 34.4726 15.5583Z" fill="#6100FF"/>
<path d="M37.9356 21.4531C37.5672 21.0847 37.1988 20.7163 36.8303 20.3478C35.725 19.1688 34.546 17.9898 33.0723 17.2529C31.3775 16.3687 29.5353 16.5897 27.6931 16.5897C25.4088 16.5897 20.398 16.5897 16.3452 16.5897L19.1453 20.3478C24.0087 20.3478 30.1985 20.3478 33.2933 20.3478C34.8408 20.3478 36.1671 20.6426 37.4198 21.4531C37.6409 21.5268 37.7883 21.6005 37.9356 21.4531Z" fill="#6100FF"/>
<path d="M6.91309 31.4007C7.28152 31.7692 7.64996 32.1376 8.0184 32.506C9.12371 33.685 10.3027 34.864 11.7765 35.6009C13.4713 36.4851 15.3135 36.2641 17.1556 36.2641H31.0826L28.2825 32.506C23.198 32.506 15.2398 32.506 11.5554 32.506C10.008 32.506 8.68158 32.2113 7.4289 31.4007C7.20783 31.327 7.06046 31.327 6.91309 31.4007Z" fill="#6100FF"/>
<path d="M3.81836 25.3587C4.1868 25.7272 4.55523 26.0956 4.92367 26.464C6.02898 27.643 7.20798 28.8221 8.68173 29.5589C10.3765 30.4432 12.2187 30.2221 14.0609 30.2221H26.4404L23.6403 26.464C18.6295 26.464 11.7766 26.464 8.38698 26.464C6.83954 26.464 5.51316 26.1693 4.26048 25.3587C4.1131 25.285 3.96573 25.285 3.81836 25.3587Z" fill="#6100FF"/>
<path d="M0.428711 19.3897C0.797148 19.7582 1.16559 20.1266 1.53402 20.4951C2.63934 21.6741 3.81834 22.8531 5.29209 23.5899C6.9869 24.4742 8.82908 24.2531 10.6713 24.2531H22.0191L19.219 20.4951C14.3556 20.4951 8.1659 20.4951 5.07102 20.4951C3.52359 20.4951 2.19721 20.2003 0.944521 19.3897C0.723459 19.3161 0.576086 19.3161 0.428711 19.3897Z" fill="#6100FF"/>
<path d="M46.4019 11.9409V28.9827H50.1491V21.9416H57.2857V19.0297H50.1491V15.0915H58.3836V11.9409H46.4019Z" fill="#6100FF"/>
<path d="M67.7822 21.4881H62.2687C62.2846 21.2495 62.3323 20.979 62.4119 20.6766C62.5074 20.3743 62.6585 20.0879 62.8654 19.8174C63.0882 19.5469 63.3746 19.3241 63.7246 19.1491C64.0906 18.9581 64.5441 18.8627 65.0851 18.8627C65.9126 18.8627 66.5252 19.0854 66.923 19.531C67.3367 19.9765 67.6231 20.6289 67.7822 21.4881ZM62.2687 23.6363H71.1715C71.2351 22.6815 71.1556 21.7666 70.9328 20.8914C70.71 20.0163 70.3441 19.2366 69.8349 18.5524C69.3416 17.8681 68.7051 17.3271 67.9254 16.9293C67.1457 16.5156 66.2308 16.3088 65.1806 16.3088C64.2418 16.3088 63.3825 16.4758 62.6028 16.81C61.8391 17.1442 61.1787 17.6056 60.6218 18.1943C60.0649 18.7672 59.6353 19.4514 59.3329 20.247C59.0306 21.0426 58.8794 21.9018 58.8794 22.8247C58.8794 23.7795 59.0226 24.6546 59.3091 25.4502C59.6114 26.2458 60.0331 26.93 60.5741 27.5029C61.1151 28.0757 61.7754 28.5213 62.5551 28.8395C63.3348 29.1418 64.21 29.293 65.1806 29.293C66.5809 29.293 67.7743 28.9747 68.7608 28.3383C69.7473 27.7018 70.4793 26.6436 70.9567 25.1638H67.9732C67.8618 25.5457 67.5594 25.9117 67.0662 26.2617C66.5729 26.5959 65.9842 26.763 65.2999 26.763C64.3452 26.763 63.6133 26.5163 63.1041 26.0231C62.5949 25.5298 62.3164 24.7342 62.2687 23.6363Z" fill="#6100FF"/>
<path d="M72.3224 20.4379C72.3701 19.6423 72.569 18.982 72.9191 18.4569C73.2691 17.9318 73.7147 17.5101 74.2557 17.1919C74.7967 16.8736 75.4013 16.6509 76.0696 16.5236C76.7539 16.3804 77.4381 16.3088 78.1223 16.3088C78.7429 16.3088 79.3714 16.3565 80.0079 16.452C80.6444 16.5315 81.2251 16.6986 81.7502 16.9532C82.2753 17.2078 82.705 17.5658 83.0391 18.0273C83.3733 18.4728 83.5403 19.0695 83.5403 19.8174V26.2379C83.5403 26.7948 83.5722 27.3279 83.6358 27.837C83.6995 28.3462 83.8108 28.7281 83.97 28.9827H80.533C80.4693 28.7918 80.4136 28.6008 80.3659 28.4099C80.3341 28.203 80.3102 27.9962 80.2943 27.7893C79.7533 28.3462 79.1168 28.7361 78.3848 28.9588C77.6529 29.1816 76.905 29.293 76.1413 29.293C75.5525 29.293 75.0035 29.2214 74.4944 29.0782C73.9852 28.935 73.5396 28.7122 73.1577 28.4099C72.7759 28.1075 72.4735 27.7257 72.2508 27.2642C72.0439 26.8028 71.9405 26.2538 71.9405 25.6173C71.9405 24.9172 72.0598 24.3443 72.2985 23.8988C72.5531 23.4374 72.8713 23.0714 73.2532 22.8009C73.651 22.5304 74.0966 22.3315 74.5898 22.2042C75.099 22.061 75.6082 21.9496 76.1174 21.87C76.6266 21.7905 77.1278 21.7268 77.6211 21.6791C78.1143 21.6313 78.5519 21.5597 78.9338 21.4643C79.3157 21.3688 79.618 21.2335 79.8408 21.0585C80.0636 20.8676 80.167 20.5971 80.1511 20.247C80.1511 19.881 80.0874 19.5946 79.9601 19.3877C79.8488 19.165 79.6896 18.9979 79.4828 18.8865C79.2918 18.7592 79.0611 18.6797 78.7906 18.6478C78.536 18.6001 78.2576 18.5762 77.9552 18.5762C77.2869 18.5762 76.7618 18.7194 76.3799 19.0059C75.998 19.2923 75.7753 19.7696 75.7116 20.4379H72.3224ZM80.1511 22.9441C80.0079 23.0714 79.8249 23.1748 79.6021 23.2544C79.3953 23.318 79.1645 23.3737 78.9099 23.4214C78.6713 23.4692 78.4167 23.509 78.1462 23.5408C77.8757 23.5726 77.6052 23.6124 77.3347 23.6601C77.0801 23.7079 76.8255 23.7715 76.5709 23.8511C76.3322 23.9306 76.1174 24.042 75.9264 24.1852C75.7514 24.3125 75.6082 24.4796 75.4968 24.6865C75.3854 24.8933 75.3297 25.1559 75.3297 25.4741C75.3297 25.7764 75.3854 26.031 75.4968 26.2379C75.6082 26.4447 75.7594 26.6118 75.9503 26.7391C76.1413 26.8505 76.364 26.9301 76.6186 26.9778C76.8732 27.0255 77.1358 27.0494 77.4063 27.0494C78.0746 27.0494 78.5917 26.938 78.9577 26.7152C79.3237 26.4925 79.5942 26.2299 79.7692 25.9276C79.9442 25.6094 80.0477 25.2911 80.0795 24.9729C80.1272 24.6546 80.1511 24.4 80.1511 24.2091V22.9441Z" fill="#6100FF"/>
<path d="M89.7513 16.6429V12.9434H86.362V16.6429H84.3093V18.9104H86.362V26.1901C86.362 26.8107 86.4654 27.3119 86.6723 27.6938C86.8791 28.0757 87.1576 28.3701 87.5077 28.5769C87.8736 28.7838 88.2873 28.9191 88.7488 28.9827C89.2262 29.0623 89.7274 29.102 90.2525 29.102C90.5866 29.102 90.9287 29.0941 91.2788 29.0782C91.6289 29.0623 91.9471 29.0304 92.2335 28.9827V26.3572C92.0744 26.389 91.9073 26.4129 91.7323 26.4288C91.5573 26.4447 91.3743 26.4527 91.1833 26.4527C90.6105 26.4527 90.2286 26.3572 90.0377 26.1663C89.8467 25.9753 89.7513 25.5934 89.7513 25.0206V18.9104H92.2335V16.6429H89.7513Z" fill="#6100FF"/>
<path d="M93.1301 11.9409V28.9827H96.5193V22.5145C96.5193 21.2574 96.7262 20.3584 97.1399 19.8174C97.5536 19.2605 98.2219 18.982 99.1448 18.982C99.9563 18.982 100.521 19.2366 100.839 19.7458C101.158 20.239 101.317 20.9949 101.317 22.0132V28.9827H104.706V21.3927C104.706 20.6289 104.634 19.9367 104.491 19.3161C104.364 18.6797 104.133 18.1466 103.799 17.717C103.465 17.2714 103.003 16.9293 102.415 16.6907C101.842 16.4361 101.102 16.3088 100.195 16.3088C99.5585 16.3088 98.9061 16.4758 98.2378 16.81C97.5695 17.1282 97.0206 17.6454 96.5909 18.3614H96.5193V11.9409H93.1301Z" fill="#6100FF"/>
<path d="M114.868 21.4881H109.355C109.371 21.2495 109.419 20.979 109.498 20.6766C109.594 20.3743 109.745 20.0879 109.952 19.8174C110.174 19.5469 110.461 19.3241 110.811 19.1491C111.177 18.9581 111.63 18.8627 112.171 18.8627C112.999 18.8627 113.611 19.0854 114.009 19.531C114.423 19.9765 114.709 20.6289 114.868 21.4881ZM109.355 23.6363H118.258C118.321 22.6815 118.242 21.7666 118.019 20.8914C117.796 20.0163 117.43 19.2366 116.921 18.5524C116.428 17.8681 115.791 17.3271 115.012 16.9293C114.232 16.5156 113.317 16.3088 112.267 16.3088C111.328 16.3088 110.469 16.4758 109.689 16.81C108.925 17.1442 108.265 17.6056 107.708 18.1943C107.151 18.7672 106.722 19.4514 106.419 20.247C106.117 21.0426 105.966 21.9018 105.966 22.8247C105.966 23.7795 106.109 24.6546 106.395 25.4502C106.698 26.2458 107.119 26.93 107.66 27.5029C108.201 28.0757 108.862 28.5213 109.641 28.8395C110.421 29.1418 111.296 29.293 112.267 29.293C113.667 29.293 114.861 28.9747 115.847 28.3383C116.834 27.7018 117.566 26.6436 118.043 25.1638H115.059C114.948 25.5457 114.646 25.9117 114.152 26.2617C113.659 26.5959 113.07 26.763 112.386 26.763C111.431 26.763 110.7 26.5163 110.19 26.0231C109.681 25.5298 109.403 24.7342 109.355 23.6363Z" fill="#6100FF"/>
<path d="M119.552 16.6429V28.9827H122.941V23.4214C122.941 22.8645 122.997 22.3474 123.108 21.87C123.22 21.3927 123.403 20.979 123.657 20.6289C123.928 20.2629 124.278 19.9765 124.707 19.7696C125.137 19.5628 125.662 19.4594 126.283 19.4594C126.489 19.4594 126.704 19.4753 126.927 19.5071C127.15 19.523 127.341 19.5469 127.5 19.5787V16.4281C127.229 16.3486 126.983 16.3088 126.76 16.3088C126.33 16.3088 125.917 16.3724 125.519 16.4997C125.121 16.627 124.747 16.81 124.397 17.0487C124.047 17.2714 123.737 17.5499 123.466 17.8841C123.196 18.2023 122.981 18.5524 122.822 18.9343H122.774V16.6429H119.552Z" fill="#6100FF"/>
<path d="M132.218 25.8321V15.0915H134.891C135.814 15.0915 136.586 15.2268 137.206 15.4973C137.843 15.7518 138.352 16.1258 138.734 16.6191C139.116 17.1123 139.386 17.709 139.545 18.4092C139.72 19.0934 139.808 19.8651 139.808 20.7244C139.808 21.6632 139.689 22.4588 139.45 23.1112C139.211 23.7636 138.893 24.2966 138.495 24.7103C138.097 25.1081 137.644 25.3945 137.135 25.5696C136.626 25.7446 136.1 25.8321 135.559 25.8321H132.218ZM128.471 11.9409V28.9827H135.822C137.127 28.9827 138.257 28.7679 139.211 28.3383C140.182 27.8927 140.985 27.2881 141.622 26.5243C142.274 25.7605 142.76 24.8535 143.078 23.8033C143.396 22.7531 143.555 21.6075 143.555 20.3663C143.555 18.9502 143.356 17.717 142.959 16.6668C142.577 15.6166 142.036 14.7414 141.336 14.0413C140.651 13.3412 139.832 12.8161 138.877 12.466C137.938 12.116 136.92 11.9409 135.822 11.9409H128.471Z" fill="#6100FF"/>
<path d="M153.394 21.4881H147.88C147.896 21.2495 147.944 20.979 148.024 20.6766C148.119 20.3743 148.27 20.0879 148.477 19.8174C148.7 19.5469 148.986 19.3241 149.336 19.1491C149.702 18.9581 150.156 18.8627 150.697 18.8627C151.524 18.8627 152.137 19.0854 152.535 19.531C152.948 19.9765 153.235 20.6289 153.394 21.4881ZM147.88 23.6363H156.783C156.847 22.6815 156.767 21.7666 156.544 20.8914C156.322 20.0163 155.956 19.2366 155.447 18.5524C154.953 17.8681 154.317 17.3271 153.537 16.9293C152.757 16.5156 151.842 16.3088 150.792 16.3088C149.853 16.3088 148.994 16.4758 148.215 16.81C147.451 17.1442 146.79 17.6056 146.233 18.1943C145.677 18.7672 145.247 19.4514 144.945 20.247C144.642 21.0426 144.491 21.9018 144.491 22.8247C144.491 23.7795 144.634 24.6546 144.921 25.4502C145.223 26.2458 145.645 26.93 146.186 27.5029C146.727 28.0757 147.387 28.5213 148.167 28.8395C148.946 29.1418 149.822 29.293 150.792 29.293C152.193 29.293 153.386 28.9747 154.372 28.3383C155.359 27.7018 156.091 26.6436 156.568 25.1638H153.585C153.473 25.5457 153.171 25.9117 152.678 26.2617C152.185 26.5959 151.596 26.763 150.912 26.763C149.957 26.763 149.225 26.5163 148.716 26.0231C148.207 25.5298 147.928 24.7342 147.88 23.6363Z" fill="#6100FF"/>
<path d="M164.904 28.9827L169.08 16.6429H165.715L163.113 25.0683H163.066L160.464 16.6429H156.908L161.132 28.9827H164.904Z" fill="#6100FF"/>
</svg>
