<svg width="143" height="37" viewBox="0 0 143 37" fill="none" xmlns="http://www.w3.org/2000/svg">
<rect x="0.993164" y="0.814941" width="24" height="24" rx="12" fill="#6100FF"/>
<rect x="11.9932" y="12.1013" width="24" height="24" rx="12" fill="#6100FF"/>
<path d="M59.0472 27.6783C58.4752 28.0769 57.7212 28.3629 56.7852 28.5363C55.8492 28.7269 54.8872 28.8223 53.8992 28.8223C52.7378 28.8223 51.6198 28.6489 50.5452 28.3023C49.4878 27.9556 48.5432 27.4009 47.7112 26.6383C46.8965 25.8756 46.2465 24.8963 45.7612 23.7003C45.2758 22.5043 45.0332 21.0569 45.0332 19.3583C45.0332 17.5903 45.3105 16.1083 45.8652 14.9123C46.4198 13.6989 47.1305 12.7283 47.9972 12.0003C48.8638 11.2549 49.8258 10.7176 50.8832 10.3883C51.9405 10.0589 52.9805 9.89425 54.0032 9.89425C55.1298 9.89425 56.0745 9.96358 56.8372 10.1023C57.6172 10.2409 58.2585 10.4056 58.7612 10.5963L58.0072 13.8203C57.5738 13.6296 57.0625 13.4909 56.4732 13.4043C55.9012 13.3176 55.1732 13.2743 54.2892 13.2743C53.5092 13.2743 52.7985 13.4043 52.1572 13.6643C51.5332 13.9069 50.9958 14.2796 50.5452 14.7823C50.0945 15.2849 49.7392 15.9176 49.4792 16.6803C49.2365 17.4429 49.1152 18.3356 49.1152 19.3583C49.1152 20.2596 49.2278 21.0829 49.4532 21.8283C49.6785 22.5736 50.0165 23.2149 50.4672 23.7523C50.9178 24.2896 51.4898 24.7056 52.1832 25.0003C52.8765 25.2949 53.6825 25.4423 54.6012 25.4423C55.4505 25.4423 56.1612 25.3643 56.7332 25.2083C57.3225 25.0523 57.8425 24.8529 58.2932 24.6103L59.0472 27.6783ZM61.2234 15.7443C62.0034 15.3976 62.9568 15.1116 64.0834 14.8863C65.2274 14.6609 66.4061 14.5483 67.6194 14.5483C68.5728 14.5483 69.3701 14.6609 70.0114 14.8863C70.6701 15.1116 71.1901 15.4409 71.5714 15.8743C71.9528 16.2903 72.2214 16.8016 72.3774 17.4083C72.5508 17.9976 72.6374 18.6563 72.6374 19.3843C72.6374 20.2683 72.6028 21.1436 72.5334 22.0103C72.4641 22.8769 72.4294 23.7956 72.4294 24.7663C72.4294 25.4249 72.4728 26.0663 72.5594 26.6903C72.6461 27.3143 72.7848 27.9123 72.9754 28.4843H70.0114L69.4134 26.4563H69.1014C68.6508 27.0629 68.0788 27.5829 67.3854 28.0163C66.6921 28.4496 65.7994 28.6663 64.7074 28.6663C64.0488 28.6663 63.4421 28.5709 62.8874 28.3803C62.3501 28.1896 61.8821 27.9209 61.4834 27.5743C61.1021 27.2103 60.7988 26.7856 60.5734 26.3003C60.3654 25.8149 60.2614 25.2863 60.2614 24.7143C60.2614 23.1716 60.7728 22.0103 61.7954 21.2303C62.8354 20.4329 64.4041 20.0343 66.5014 20.0343C66.9868 20.0343 67.4721 20.0776 67.9574 20.1643C68.4428 20.2336 68.7808 20.2856 68.9714 20.3203C69.0234 19.9563 69.0494 19.6443 69.0494 19.3843C69.0494 18.7256 68.8848 18.2403 68.5554 17.9283C68.2261 17.6163 67.6108 17.4603 66.7094 17.4603C65.8774 17.4603 65.0628 17.5643 64.2654 17.7723C63.4854 17.9629 62.7921 18.2056 62.1854 18.5003L61.2234 15.7443ZM65.9814 25.7543C66.7961 25.7543 67.4461 25.5636 67.9314 25.1823C68.4168 24.8009 68.7721 24.4023 68.9974 23.9863V22.4263C68.9108 22.3916 68.7721 22.3569 68.5814 22.3223C68.4081 22.2876 68.2088 22.2529 67.9834 22.2183C67.7754 22.1836 67.5588 22.1576 67.3334 22.1403C67.1254 22.1229 66.9348 22.1143 66.7614 22.1143C65.8254 22.1143 65.1321 22.2876 64.6814 22.6343C64.2308 22.9636 64.0054 23.3796 64.0054 23.8823C64.0054 24.5063 64.1788 24.9743 64.5254 25.2863C64.8894 25.5983 65.3748 25.7543 65.9814 25.7543ZM76.4101 14.8083H79.0101L79.4521 16.4983H79.7641C80.3014 15.8049 80.9254 15.2849 81.6361 14.9383C82.3468 14.5916 83.1788 14.4183 84.1321 14.4183C85.9694 14.4183 87.3474 14.9729 88.2661 16.0823C89.1848 17.1743 89.6441 18.9163 89.6441 21.3083C89.6441 22.4523 89.4968 23.4923 89.2021 24.4283C88.9074 25.3469 88.4741 26.1443 87.9021 26.8203C87.3301 27.4789 86.6194 27.9903 85.7701 28.3543C84.9381 28.7009 83.9761 28.8743 82.8841 28.8743C82.2948 28.8743 81.7834 28.8136 81.3501 28.6923C80.9168 28.5883 80.4834 28.4409 80.0501 28.2503V33.6323H76.4101V14.8083ZM83.0141 17.4603C82.1821 17.4603 81.5408 17.6509 81.0901 18.0323C80.6394 18.3963 80.2928 18.9683 80.0501 19.7483V25.0523C80.3448 25.2949 80.6741 25.4856 81.0381 25.6243C81.4021 25.7629 81.8614 25.8323 82.4161 25.8323C83.5948 25.8323 84.4701 25.4683 85.0421 24.7403C85.6141 23.9949 85.9001 22.8163 85.9001 21.2043C85.9001 20.0429 85.6748 19.1329 85.2241 18.4743C84.7908 17.7983 84.0541 17.4603 83.0141 17.4603ZM92.5833 24.9223C92.826 25.0436 93.1033 25.1649 93.4153 25.2863C93.7446 25.4076 94.0913 25.5203 94.4553 25.6243C94.8366 25.7283 95.218 25.8149 95.5993 25.8843C95.998 25.9536 96.3966 25.9883 96.7953 25.9883C97.402 25.9883 97.87 25.8929 98.1993 25.7023C98.546 25.5116 98.7193 25.1563 98.7193 24.6363C98.7193 24.2203 98.494 23.9169 98.0433 23.7263C97.5926 23.5183 97.038 23.3189 96.3793 23.1283C95.894 22.9896 95.3826 22.8249 94.8453 22.6343C94.3253 22.4436 93.84 22.1923 93.3893 21.8803C92.956 21.5509 92.592 21.1263 92.2973 20.6063C92.02 20.0863 91.8813 19.4276 91.8813 18.6303C91.8813 17.2609 92.306 16.2209 93.1553 15.5103C94.0046 14.7823 95.2266 14.4183 96.8213 14.4183C97.8613 14.4183 98.832 14.5136 99.7333 14.7043C100.652 14.8776 101.389 15.0856 101.943 15.3283L101.189 18.0843C100.739 17.9109 100.158 17.7376 99.4473 17.5643C98.754 17.3736 98.0433 17.2783 97.3153 17.2783C96.7086 17.2783 96.258 17.3736 95.9633 17.5643C95.6686 17.7376 95.5213 18.0496 95.5213 18.5003C95.5213 18.8989 95.7466 19.2023 96.1973 19.4103C96.6653 19.6009 97.2286 19.7916 97.8873 19.9823C98.3726 20.1209 98.8753 20.2856 99.3953 20.4763C99.9326 20.6496 100.418 20.8923 100.851 21.2043C101.285 21.5163 101.64 21.9236 101.917 22.4263C102.212 22.9116 102.359 23.5269 102.359 24.2723C102.359 25.7283 101.883 26.8549 100.929 27.6523C99.9933 28.4496 98.5806 28.8483 96.6913 28.8483C95.6686 28.8483 94.7153 28.7529 93.8313 28.5623C92.9473 28.3889 92.228 28.1289 91.6733 27.7823L92.5833 24.9223ZM108.818 14.8083V22.3743C108.818 23.5009 108.974 24.3243 109.286 24.8443C109.598 25.3643 110.196 25.6243 111.08 25.6243C111.842 25.6243 112.484 25.4249 113.004 25.0263C113.524 24.6276 113.905 24.1249 114.148 23.5183V14.8083H117.788V24.2983C117.788 25.0263 117.822 25.7543 117.892 26.4823C117.978 27.2103 118.091 27.8689 118.23 28.4583H115.552L114.85 26.3263H114.564C114.113 27.0543 113.472 27.6609 112.64 28.1463C111.808 28.6143 110.854 28.8483 109.78 28.8483C109.034 28.8483 108.376 28.7529 107.804 28.5623C107.232 28.3716 106.746 28.0596 106.348 27.6263C105.966 27.1756 105.672 26.5863 105.464 25.8583C105.273 25.1303 105.178 24.2289 105.178 23.1543V14.8083H108.818ZM125.577 23.6743C125.577 24.9916 126.002 25.6503 126.851 25.6503C127.094 25.6503 127.319 25.6329 127.527 25.5983C127.753 25.5463 128.013 25.4683 128.307 25.3643L128.749 28.1983C128.403 28.3543 127.909 28.5016 127.267 28.6403C126.643 28.7963 125.993 28.8743 125.317 28.8743C124.225 28.8743 123.385 28.6316 122.795 28.1463C122.223 27.6609 121.937 26.8636 121.937 25.7543V10.2583H125.577V23.6743ZM142.293 27.2103C141.704 27.6609 140.898 28.0509 139.875 28.3803C138.87 28.6923 137.786 28.8483 136.625 28.8483C134.285 28.8483 132.569 28.2069 131.477 26.9243C130.385 25.6416 129.839 23.8823 129.839 21.6463C129.839 19.2716 130.454 17.4776 131.685 16.2643C132.916 15.0336 134.649 14.4183 136.885 14.4183C137.613 14.4183 138.332 14.5136 139.043 14.7043C139.754 14.8776 140.386 15.1809 140.941 15.6143C141.496 16.0303 141.938 16.6023 142.267 17.3303C142.614 18.0409 142.787 18.9249 142.787 19.9823C142.787 20.3463 142.761 20.7449 142.709 21.1783C142.674 21.6116 142.605 22.0623 142.501 22.5303H133.401C133.488 23.7089 133.826 24.5843 134.415 25.1563C135.022 25.7109 136.001 25.9883 137.353 25.9883C138.168 25.9883 138.896 25.8756 139.537 25.6503C140.196 25.4076 140.698 25.1649 141.045 24.9223L142.293 27.2103ZM136.833 17.2783C135.758 17.2783 134.961 17.5729 134.441 18.1623C133.921 18.7343 133.618 19.4709 133.531 20.3723H139.407C139.476 19.4189 139.303 18.6649 138.887 18.1103C138.471 17.5556 137.786 17.2783 136.833 17.2783Z" fill="#6100FF"/>
</svg>
