<svg width="992" height="417" viewBox="0 0 992 417" fill="none" xmlns="http://www.w3.org/2000/svg">
<path opacity="0.4" d="M988.671 76.5263C994.547 98.4557 986.491 123.093 966.698 148.92C946.911 174.739 915.451 201.669 874.704 228.132C793.214 281.056 674.679 332.055 538.415 368.567C402.151 405.079 273.997 420.18 176.963 415.091C128.443 412.547 87.7334 404.955 57.6875 392.488C27.6333 380.018 8.33717 362.71 2.46121 340.781C-3.41475 318.851 4.64212 294.214 24.4347 268.387C44.2217 242.568 75.6819 215.638 116.429 189.175C197.919 136.25 316.453 85.2516 452.718 48.7397C588.982 12.2279 717.135 -2.87326 814.169 2.21568C862.689 4.7603 903.399 12.3517 933.445 24.8185C963.499 37.2887 982.795 54.5969 988.671 76.5263Z" stroke="white"/>
</svg>
