<svg width="148" height="143" viewBox="0 0 148 143" fill="none" xmlns="http://www.w3.org/2000/svg">
<path d="M48.0901 141.91L48.4525 134.58L48.3633 134.544L43.483 140.025L42.517 139.629L48.4249 133.164L49.3761 133.553L49.0562 142.305L48.0901 141.91Z" fill="white"/>
<path d="M36.4856 136.386L40.6048 129.271L41.4665 129.77L37.3472 136.885L36.4856 136.386Z" fill="white"/>
<path d="M35.6528 126.135L30.6387 132.651L26.7063 129.625L27.245 128.925L30.3883 131.344L32.0825 129.142L29.1428 126.88L29.6814 126.18L32.6211 128.442L34.3251 126.228L31.1309 123.77L31.6695 123.07L35.6528 126.135Z" fill="white"/>
<path d="M26.6747 118.501L22.0195 125.641L21.3478 124.884L25.2141 119.153L25.1608 119.093L18.9915 122.231L18.2452 121.39L22.0901 115.635L22.0368 115.575L15.8889 118.736L15.2171 117.98L22.8576 114.202L23.54 114.97L19.8458 120.677L19.8884 120.725L25.9923 117.732L26.6747 118.501Z" fill="white"/>
<path d="M14.9536 102.042L15.3861 102.991L6.6525 103.65L6.22669 102.715L12.4586 96.561L12.8911 97.5109L7.61009 102.615L7.6367 102.673L14.9536 102.042ZM11.871 103.021L10.1278 99.1923L10.9316 98.8264L12.6748 102.655L11.871 103.021Z" fill="white"/>
<path d="M10.9485 92.1085L3.02441 94.3005L2.75897 93.341L9.83182 91.3844L8.81286 87.701L9.66408 87.4655L10.9485 92.1085Z" fill="white"/>
<path d="M8.75082 82.7092L0.591309 83.7183L0.469112 82.7302L7.75211 81.8295L7.28303 78.0366L8.15954 77.9282L8.75082 82.7092Z" fill="white"/>
<path d="M8.22032 66.2105L0.078125 65.0701L0.46346 62.3189C0.552926 61.6801 0.741353 61.1741 1.02874 60.8009C1.31385 60.4247 1.66495 60.1658 2.08204 60.0242C2.49912 59.8826 2.94753 59.8455 3.42727 59.9127C3.907 59.9798 4.32926 60.139 4.69406 60.3901C5.05923 60.6385 5.33003 60.9818 5.50647 61.42C5.68026 61.8578 5.7228 62.3934 5.63407 63.0269L5.35788 64.9988L4.48323 64.8763L4.75497 62.9362C4.81622 62.4989 4.78987 62.1371 4.67592 61.8509C4.56197 61.5647 4.3848 61.3439 4.14441 61.1887C3.90174 61.0304 3.6174 60.9284 3.2914 60.8827C2.96539 60.8371 2.6653 60.8572 2.39113 60.9431C2.11733 61.0264 1.8888 61.1916 1.70553 61.4389C1.51961 61.6858 1.39565 62.0306 1.33366 62.4732L1.09087 64.2066L8.35842 65.2245L8.22032 66.2105Z" fill="white"/>
<path d="M10.1865 55.3535L2.34912 52.8691L3.18856 50.221C3.38265 49.6087 3.64656 49.1392 3.9803 48.8127C4.31149 48.4853 4.68814 48.2846 5.11026 48.2107C5.53238 48.1367 5.97432 48.1729 6.43609 48.3193C6.89786 48.4657 7.27741 48.6899 7.57474 48.9919C7.87207 49.2939 8.06091 49.6724 8.14128 50.1274C8.21909 50.5817 8.16176 51.1124 7.96929 51.7196L7.28998 53.8626L6.43277 53.5909L7.10238 51.4785C7.235 51.0601 7.28052 50.7039 7.23894 50.4099C7.19816 50.1135 7.08371 49.8722 6.89559 49.6863C6.70574 49.4969 6.45391 49.3525 6.14011 49.253C5.82631 49.1536 5.53345 49.1253 5.26154 49.1683C4.98963 49.2112 4.74905 49.3413 4.53981 49.5586C4.32802 49.775 4.155 50.095 4.02075 50.5185L3.49186 52.187L10.4873 54.4044L10.1865 55.3535ZM7.83517 50.5484L11.9672 49.7357L11.6179 50.8378L7.49551 51.6199L7.83517 50.5484Z" fill="white"/>
<path d="M13.4996 36.923C14.2667 37.3274 14.8565 37.8155 15.2691 38.3871C15.6818 38.9586 15.9123 39.5658 15.9606 40.2085C16.009 40.8513 15.8696 41.4827 15.5425 42.103C15.2155 42.7232 14.7731 43.1949 14.2154 43.5181C13.6577 43.8412 13.0265 43.994 12.3217 43.9764C11.617 43.9587 10.8811 43.7477 10.1141 43.3432C9.34707 42.9387 8.75724 42.4507 8.34461 41.8791C7.93197 41.3075 7.70148 40.7004 7.65312 40.0576C7.60477 39.4149 7.74412 38.7834 8.07119 38.1632C8.39826 37.5429 8.84064 37.0712 9.39833 36.7481C9.95601 36.4249 10.5872 36.2722 11.292 36.2898C11.9967 36.3074 12.7326 36.5185 13.4996 36.923ZM13.0502 37.7752C12.4205 37.4431 11.8335 37.2682 11.2892 37.2505C10.7461 37.2304 10.269 37.3404 9.858 37.5805C9.44821 37.8182 9.12722 38.1573 8.89503 38.5976C8.66283 39.0379 8.56375 39.4955 8.59778 39.9703C8.63306 40.4428 8.81175 40.8986 9.13387 41.3377C9.45724 41.7745 9.93378 42.1589 10.5635 42.491C11.1932 42.823 11.7796 42.9991 12.3227 43.0192C12.867 43.037 13.3441 42.927 13.7539 42.6892C14.1649 42.4491 14.4865 42.1089 14.7187 41.6686C14.9509 41.2282 15.0494 40.7719 15.0141 40.2994C14.98 39.8246 14.8013 39.3688 14.478 38.932C14.1559 38.4929 13.6799 38.1073 13.0502 37.7752Z" fill="white"/>
<path d="M15.5738 26.7489L16.1787 25.9582L20.8465 29.5294C21.2631 29.8481 21.5585 30.1954 21.7326 30.5712C21.9067 30.9471 21.9627 31.3319 21.9006 31.7258C21.8385 32.1198 21.6627 32.5059 21.3732 32.8843C21.1 33.2413 20.7921 33.5095 20.4494 33.6888C20.1046 33.8664 19.75 33.9422 19.3857 33.9163C19.0214 33.8903 18.6724 33.7496 18.3387 33.4943L18.9339 32.7164C19.1189 32.8578 19.3154 32.9357 19.5235 32.95C19.731 32.9606 19.9349 32.9144 20.135 32.8114C20.3351 32.7084 20.5141 32.5538 20.6718 32.3476C20.8458 32.1202 20.946 31.8901 20.9723 31.6575C20.9986 31.4249 20.951 31.1965 20.8295 30.9721C20.7075 30.7439 20.5115 30.5266 20.2416 30.3201L15.5738 26.7489Z" fill="white"/>
<path d="M26.346 26.817L20.6484 20.8896L24.2257 17.4511L24.8377 18.0878L21.9782 20.8364L23.9034 22.8392L26.5777 20.2686L27.1897 20.9053L24.5155 23.4759L26.4518 25.4903L29.3575 22.6972L29.9696 23.3339L26.346 26.817Z" fill="white"/>
<path d="M36.3399 11.5425L35.517 12.1029C35.3072 11.8993 35.0804 11.7494 34.8367 11.6531C34.5953 11.5552 34.3468 11.5042 34.0914 11.5001C33.8367 11.4922 33.5843 11.528 33.3342 11.6077C33.0841 11.6874 32.8462 11.804 32.6206 11.9577C32.2091 12.2378 31.9072 12.5956 31.7147 13.031C31.5245 13.4649 31.4688 13.9513 31.5476 14.4902C31.6286 15.0276 31.8694 15.5905 32.2701 16.1789C32.6708 16.7674 33.1063 17.1977 33.5766 17.47C34.0492 17.7407 34.5222 17.8671 34.9956 17.8491C35.4712 17.8296 35.9148 17.6797 36.3262 17.3995C36.5519 17.2459 36.7476 17.0673 36.9133 16.8638C37.0791 16.6602 37.2057 16.4396 37.2932 16.202C37.3814 15.9606 37.4242 15.7096 37.4216 15.4491C37.4198 15.1849 37.3634 14.9189 37.2524 14.6513L38.0753 14.0909C38.2498 14.4804 38.3487 14.868 38.3717 15.2538C38.3948 15.6396 38.3502 16.0116 38.238 16.3697C38.1242 16.7257 37.9496 17.0566 37.7144 17.3625C37.4813 17.6669 37.1933 17.9359 36.8504 18.1694C36.2709 18.564 35.659 18.7734 35.0149 18.7976C34.3708 18.8217 33.7416 18.6609 33.1273 18.3151C32.513 17.9692 31.9618 17.438 31.4737 16.7212C30.9857 16.0045 30.6933 15.297 30.5966 14.5987C30.4999 13.9004 30.5808 13.256 30.8393 12.6655C31.0977 12.0751 31.5168 11.5825 32.0963 11.1878C32.4392 10.9544 32.795 10.7849 33.1636 10.6796C33.5345 10.5728 33.9071 10.5328 34.2815 10.5595C34.6544 10.5841 35.0161 10.6778 35.3665 10.8406C35.7155 11.0012 36.04 11.2352 36.3399 11.5425Z" fill="white"/>
<path d="M40.5793 7.24098L40.2153 6.43628L45.8336 3.89508L46.1976 4.69979L43.842 5.76523L46.8663 12.4516L45.9592 12.8619L42.9349 6.17553L40.5793 7.24098Z" fill="white"/>
<path d="M57.0215 2.49407C56.8715 2.11286 56.6023 1.85708 56.2138 1.72671C55.8254 1.59634 55.3904 1.59441 54.909 1.72092C54.5569 1.81343 54.2639 1.95131 54.0298 2.13458C53.7983 2.31717 53.6349 2.52751 53.5398 2.76559C53.4472 3.00299 53.4342 3.24852 53.5009 3.50219C53.5567 3.71444 53.6551 3.88367 53.7962 4.00986C53.9392 4.13278 54.1042 4.22363 54.2912 4.28241C54.4775 4.3386 54.6672 4.37593 54.8602 4.39439C55.0525 4.41026 55.2276 4.41822 55.3853 4.41828L56.25 4.4235C56.4714 4.42344 56.7215 4.43797 57.0003 4.46709C57.2818 4.49553 57.5607 4.56197 57.8372 4.66641C58.1156 4.76759 58.3648 4.92624 58.5849 5.14237C58.8049 5.3585 58.9639 5.65293 59.0619 6.02567C59.1748 6.45535 59.1642 6.8732 59.0302 7.27923C58.8987 7.68458 58.645 8.04595 58.2691 8.36335C57.8957 8.68006 57.4036 8.91868 56.7927 9.0792C56.2232 9.22884 55.706 9.26652 55.241 9.19225C54.7785 9.11729 54.385 8.94674 54.0605 8.68058C53.7386 8.41374 53.505 8.06697 53.3596 7.64027L54.3536 7.37909C54.4584 7.67255 54.6246 7.89451 54.8523 8.04498C55.0819 8.19219 55.3452 8.27796 55.6422 8.30232C55.941 8.32341 56.2484 8.29246 56.5642 8.20948C56.9317 8.1129 57.2461 7.96664 57.5073 7.77071C57.7678 7.5722 57.9553 7.34307 58.0697 7.08334C58.1834 6.82102 58.2021 6.5449 58.126 6.255C58.0566 5.99097 57.9264 5.79552 57.7353 5.66862C57.5442 5.54173 57.3147 5.45815 57.0468 5.41786C56.7789 5.37758 56.4949 5.35534 56.1949 5.35115L55.1431 5.3287C54.4749 5.31333 53.9161 5.1876 53.4666 4.9515C53.0172 4.71541 52.7221 4.32945 52.5813 3.79364C52.4643 3.34843 52.4826 2.92853 52.6363 2.53395C52.7919 2.13611 53.05 1.79156 53.4107 1.50031C53.7733 1.2058 54.2082 0.991885 54.7156 0.858572C55.2281 0.723899 55.7078 0.696079 56.1547 0.775114C56.601 0.851559 56.982 1.01707 57.298 1.27165C57.6165 1.52554 57.835 1.8514 57.9533 2.24921L57.0215 2.49407Z" fill="white"/>
<path d="M76.5753 2.74023V3.62342L70.9229 3.62342V2.74023L76.5753 2.74023Z" fill="white"/>
<path d="M90.0823 0.265266L90.684 7.57932L90.7772 7.60381L94.8968 1.53038L95.9063 1.79564L90.897 8.98014L89.9031 8.71896L89.0728 0L90.0823 0.265266Z" fill="white"/>
<path d="M102.311 4.22018L99.1598 11.8141L98.2402 11.4325L101.391 3.83862L102.311 4.22018Z" fill="white"/>
<path d="M104.481 14.2736L108.597 7.15674L112.892 9.64118L112.45 10.4057L109.017 8.41974L107.626 10.8245L110.837 12.6818L110.394 13.4463L107.184 11.589L105.785 14.0076L109.273 16.0257L108.831 16.7902L104.481 14.2736Z" fill="white"/>
<path d="M114.383 20.6652L118.062 12.9766L118.827 13.6384L115.745 19.8267L115.806 19.8792L121.51 15.9603L122.361 16.6957L119.303 22.905L119.364 22.9575L125.044 19.0175L125.81 19.6794L118.73 24.4264L117.953 23.754L120.867 17.612L120.819 17.57L115.16 21.3376L114.383 20.6652Z" fill="white"/>
<path d="M128.159 35.4455L127.606 34.5605L136.178 32.7623L136.723 33.6337L131.351 40.5517L130.798 39.6666L135.364 33.9147L135.33 33.8602L128.159 35.4455ZM131.087 34.07L133.317 37.6374L132.568 38.1056L130.338 34.5381L131.087 34.07Z" fill="white"/>
<path d="M133.433 44.7676L141.001 41.5557L141.39 42.4721L134.635 45.3391L136.128 48.8572L135.315 49.2022L133.433 44.7676Z" fill="white"/>
<path d="M136.844 53.7979L144.8 51.7278L145.051 52.6913L137.949 54.539L138.911 58.2377L138.056 58.4601L136.844 53.7979Z" fill="white"/>
<path d="M139.532 70.0843L147.754 70.1475L147.733 72.9254C147.728 73.5704 147.607 74.0967 147.371 74.5044C147.138 74.9148 146.824 75.2175 146.429 75.4125C146.034 75.6075 145.594 75.7032 145.11 75.6994C144.625 75.6957 144.186 75.5933 143.791 75.3922C143.397 75.1938 143.083 74.889 142.851 74.4777C142.621 74.0665 142.509 73.541 142.514 72.9014L142.529 70.9103L143.412 70.917L143.397 72.8761C143.394 73.3176 143.467 73.6728 143.618 73.9416C143.768 74.2104 143.973 74.406 144.232 74.5285C144.493 74.6536 144.788 74.7174 145.117 74.7199C145.447 74.7225 145.741 74.6632 146.002 74.542C146.262 74.4236 146.467 74.2298 146.617 73.9606C146.769 73.6915 146.846 73.3334 146.85 72.8865L146.863 71.1362L139.525 71.0799L139.532 70.0843Z" fill="white"/>
<path d="M139.007 81.1056L147.102 82.541L146.617 85.2764C146.505 85.9088 146.305 86.4088 146.017 86.7763C145.731 87.1443 145.384 87.3926 144.975 87.5213C144.567 87.6499 144.124 87.672 143.647 87.5874C143.17 87.5028 142.764 87.3303 142.43 87.0699C142.095 86.8095 141.859 86.459 141.719 86.0184C141.583 85.5783 141.57 85.0447 141.681 84.4175L142.074 82.2039L142.959 82.3609L142.572 84.5429C142.496 84.975 142.497 85.3341 142.577 85.62C142.656 85.9086 142.801 86.1328 143.012 86.2925C143.225 86.4553 143.494 86.5654 143.818 86.6229C144.142 86.6804 144.436 86.67 144.7 86.5918C144.964 86.5135 145.185 86.353 145.364 86.1102C145.546 85.8679 145.675 85.528 145.753 85.0906L146.059 83.3671L138.833 82.0859L139.007 81.1056ZM141.968 85.5609L137.978 86.9084L138.18 85.7699L142.164 84.4542L141.968 85.5609Z" fill="white"/>
<path d="M138.138 99.8113C137.325 99.5109 136.676 99.1044 136.192 98.5919C135.708 98.0793 135.4 97.5076 135.268 96.8768C135.136 96.2459 135.191 95.6016 135.434 94.9438C135.677 94.2861 136.054 93.7604 136.564 93.367C137.075 92.9735 137.68 92.7393 138.381 92.6644C139.082 92.5895 139.84 92.7022 140.653 93.0027C141.466 93.3031 142.115 93.7096 142.599 94.2221C143.083 94.7347 143.391 95.3064 143.524 95.9372C143.656 96.5681 143.6 97.2124 143.357 97.8702C143.114 98.5279 142.738 99.0535 142.227 99.447C141.717 99.8405 141.111 100.075 140.41 100.15C139.709 100.225 138.952 100.112 138.138 99.8113ZM138.472 98.9075C139.14 99.1542 139.745 99.2506 140.287 99.1969C140.828 99.1456 141.286 98.974 141.662 98.6821C142.038 98.3926 142.311 98.0144 142.484 97.5475C142.656 97.0805 142.694 96.6139 142.598 96.1476C142.502 95.6839 142.265 95.2555 141.888 94.8623C141.51 94.4717 140.987 94.1531 140.319 93.9065C139.651 93.6598 139.047 93.5621 138.506 93.6134C137.964 93.6671 137.506 93.8387 137.13 94.1282C136.754 94.4201 136.48 94.7995 136.308 95.2665C136.135 95.7335 136.098 96.1988 136.194 96.6626C136.29 97.1288 136.527 97.5573 136.905 97.9479C137.282 98.341 137.804 98.6609 138.472 98.9075Z" fill="white"/>
<path d="M137.415 110.17L136.919 111.033L131.824 108.105C131.369 107.843 131.03 107.538 130.809 107.188C130.587 106.838 130.481 106.464 130.491 106.065C130.501 105.667 130.624 105.261 130.862 104.848C131.086 104.458 131.356 104.152 131.672 103.929C131.991 103.708 132.332 103.586 132.697 103.564C133.061 103.542 133.426 103.636 133.79 103.845L133.302 104.694C133.1 104.578 132.895 104.527 132.687 104.54C132.48 104.557 132.284 104.629 132.099 104.758C131.914 104.886 131.757 105.063 131.627 105.288C131.485 105.536 131.415 105.777 131.42 106.011C131.424 106.245 131.501 106.465 131.651 106.672C131.802 106.882 132.025 107.072 132.32 107.241L137.415 110.17Z" fill="white"/>
<path d="M126.728 111.514L133.153 116.644L130.058 120.521L129.368 119.97L131.842 116.871L129.671 115.138L127.357 118.037L126.666 117.486L128.981 114.587L126.797 112.843L124.282 115.993L123.592 115.442L126.728 111.514Z" fill="white"/>
<path d="M118.822 127.967L119.565 127.304C119.799 127.478 120.044 127.597 120.298 127.661C120.55 127.726 120.803 127.744 121.057 127.715C121.31 127.689 121.556 127.62 121.794 127.509C122.031 127.397 122.252 127.25 122.455 127.068C122.826 126.736 123.079 126.342 123.212 125.885C123.344 125.43 123.336 124.941 123.187 124.417C123.036 123.895 122.724 123.368 122.249 122.837C121.775 122.306 121.287 121.937 120.785 121.729C120.281 121.522 119.795 121.459 119.328 121.539C118.859 121.621 118.439 121.827 118.068 122.159C117.864 122.341 117.694 122.544 117.556 122.767C117.419 122.991 117.322 123.226 117.266 123.473C117.211 123.724 117.201 123.978 117.238 124.236C117.274 124.498 117.365 124.754 117.51 125.005L116.768 125.668C116.544 125.305 116.395 124.934 116.321 124.554C116.248 124.175 116.243 123.8 116.308 123.431C116.374 123.063 116.504 122.712 116.697 122.378C116.888 122.045 117.138 121.741 117.447 121.464C117.97 120.997 118.549 120.709 119.185 120.601C119.82 120.493 120.465 120.57 121.119 120.832C121.774 121.094 122.39 121.549 122.968 122.195C123.545 122.842 123.928 123.505 124.115 124.184C124.303 124.864 124.307 125.514 124.128 126.133C123.949 126.752 123.599 127.295 123.076 127.762C122.766 128.039 122.436 128.254 122.084 128.406C121.731 128.561 121.367 128.649 120.992 128.672C120.619 128.696 120.248 128.651 119.879 128.535C119.512 128.422 119.16 128.233 118.822 127.967Z" fill="white"/>
<path d="M115.184 132.788L115.65 133.538L110.413 136.793L109.947 136.043L112.143 134.678L108.268 128.446L109.113 127.92L112.988 134.153L115.184 132.788Z" fill="white"/>
<path d="M99.5057 139.649C99.7043 140.007 100.005 140.226 100.407 140.304C100.809 140.382 101.241 140.327 101.701 140.139C102.038 140.001 102.311 139.826 102.519 139.613C102.724 139.402 102.859 139.172 102.922 138.923C102.982 138.676 102.963 138.431 102.864 138.188C102.781 137.985 102.661 137.83 102.504 137.723C102.347 137.62 102.171 137.552 101.978 137.518C101.786 137.487 101.593 137.475 101.399 137.482C101.206 137.491 101.032 137.506 100.875 137.527L100.018 137.635C99.7981 137.664 99.5482 137.683 99.268 137.69C98.9852 137.699 98.7 137.67 98.4122 137.602C98.1229 137.539 97.8551 137.414 97.6086 137.229C97.3621 137.043 97.1658 136.772 97.0199 136.415C96.8516 136.004 96.8073 135.589 96.887 135.168C96.9642 134.749 97.1683 134.358 97.4994 133.994C97.828 133.631 98.2846 133.33 98.8692 133.091C99.4141 132.868 99.9219 132.763 100.393 132.775C100.861 132.789 101.273 132.906 101.63 133.128C101.984 133.35 102.261 133.663 102.461 134.067L101.51 134.456C101.368 134.179 101.174 133.981 100.928 133.862C100.681 133.746 100.409 133.695 100.112 133.71C99.8126 133.728 99.5119 133.799 99.2098 133.923C98.858 134.067 98.5655 134.253 98.3323 134.482C98.1 134.713 97.9442 134.964 97.8649 135.237C97.7865 135.512 97.8041 135.788 97.9177 136.065C98.0211 136.318 98.1758 136.495 98.3818 136.595C98.5879 136.696 98.8264 136.749 99.0973 136.754C99.3682 136.759 99.6526 136.743 99.9505 136.708L100.996 136.593C101.661 136.52 102.231 136.572 102.708 136.747C103.184 136.922 103.527 137.266 103.737 137.779C103.912 138.205 103.948 138.623 103.848 139.035C103.746 139.449 103.535 139.825 103.216 140.161C102.895 140.5 102.492 140.769 102.006 140.968C101.516 141.169 101.044 141.259 100.59 141.239C100.138 141.222 99.7384 141.108 99.3918 140.897C99.0428 140.687 98.7835 140.393 98.614 140.014L99.5057 139.649Z" fill="white"/>
</svg>
