<svg width="18" height="18" viewBox="0 0 18 18" fill="none" xmlns="http://www.w3.org/2000/svg">
<g clip-path="url(#clip0_1271_5)">
<path d="M17.3266 15.975L2.02656 0.674999C1.65377 0.302207 1.04936 0.302207 0.676564 0.674999L0.676561 0.675002C0.30377 1.04779 0.303769 1.65221 0.676561 2.025L15.9766 17.325C16.3494 17.6978 16.9538 17.6978 17.3266 17.325C17.6994 16.9522 17.6994 16.3478 17.3266 15.975Z" fill="white"/>
<path d="M15.975 0.674894L0.674999 15.9749C0.302207 16.3477 0.302207 16.9521 0.674998 17.3249L0.675001 17.3249C1.04779 17.6977 1.65221 17.6977 2.025 17.3249L17.325 2.02489C17.6978 1.6521 17.6978 1.04769 17.325 0.674894C16.9522 0.302103 16.3478 0.302102 15.975 0.674894Z" fill="white"/>
</g>
<defs>
<clipPath id="clip0_1271_5">
<rect width="18" height="18" fill="white"/>
</clipPath>
</defs>
</svg>
