<?xml version="1.0" encoding="UTF-8"?>
<svg xmlns="http://www.w3.org/2000/svg" width="374.29" height="127.37" viewBox="0 0 374.29 127.37">
  <title>logo-white</title>
  <path d="M96.57,24V88L87,93.55V18.33L72.92,10.16V101.8l-9.67,5.64V4.72L55.12,0l-6,3.46V123.91l6,3.46,55.13-31.84V31.84ZM0,31.84V95.53l38.2,22.19V9.84ZM24.57,94.43l-11-6.3V40.78l11-6.4Z" transform="translate(0.01)" fill="#afd616"></path>
  <path d="M130.72,81.51V39.32h16.09q7.59,0,12.41,2.48A15.61,15.61,0,0,1,166.33,49a25.45,25.45,0,0,1,2.3,11.34A25,25,0,0,1,166.16,72a16,16,0,0,1-7.37,7.1,27.39,27.39,0,0,1-12.13,2.39Zm9.06-7.64h5.91q13.45,0,13.45-13.45a16.74,16.74,0,0,0-1.42-7.25,10,10,0,0,0-4.35-4.6,15.59,15.59,0,0,0-7.5-1.6h-6.09Z" transform="translate(0.01)" fill="#fff"></path>
  <path d="M179.27,46.09A5.43,5.43,0,0,1,173.5,41a4.09,4.09,0,0,1,0-.7,5.77,5.77,0,1,1,11.54,0h0a5.42,5.42,0,0,1-5,5.77,4.33,4.33,0,0,1-.72,0ZM174.9,81.51V49.87h8.73V81.51Z" transform="translate(0.01)" fill="#fff"></path>
  <path d="M204.11,93.72q-7.65,0-11.37-2A6.66,6.66,0,0,1,189,85.44a6.37,6.37,0,0,1,1.34-4.22A7.65,7.65,0,0,1,194,78.85a5.7,5.7,0,0,1-1.71-1.91,5.15,5.15,0,0,1-.63-2.52,4.78,4.78,0,0,1,1.11-3.13,6.19,6.19,0,0,1,3.2-1.94,10.9,10.9,0,0,1-3.24-14.94,11.12,11.12,0,0,1,4.73-3.91,19,19,0,0,1,14.24,0,11.16,11.16,0,0,1,4.75,3.93,10.4,10.4,0,0,1,1.69,5.93,10.25,10.25,0,0,1-1.69,5.86,11.1,11.1,0,0,1-4.77,3.91,17.1,17.1,0,0,1-7.16,1.39H202.4c-1.93,0-2.9.52-2.9,1.55s1,1.5,2.9,1.5h6.39a16.78,16.78,0,0,1,5.54.79A10.43,10.43,0,0,1,218,77.48a8.17,8.17,0,0,1,2.08,3.07,10,10,0,0,1,.66,3.63A7.86,7.86,0,0,1,217,91.34q-3.86,2.39-11.74,2.38Zm.21-5.57h1c4.36,0,6.53-1.31,6.53-3.92a3.28,3.28,0,0,0-1.09-2.51c-.76-.67-2.15-1-4.16-1h-4.16a6.39,6.39,0,0,0-3.28.87,3,3,0,0,0-1.46,2.88,3,3,0,0,0,1.61,2.8,10.37,10.37,0,0,0,5,.86Zm.26-22.09a5.12,5.12,0,0,0,3.94-1.49,5.87,5.87,0,0,0,1.39-4.19,6,6,0,0,0-1.39-4.22,5.87,5.87,0,0,0-7.87,0,6,6,0,0,0-1.4,4.23,5.91,5.91,0,0,0,1.4,4.19A5.12,5.12,0,0,0,204.58,66Zm4.69-12.39V50.46a6.37,6.37,0,0,1,1.87-4.94,7.8,7.8,0,0,1,5.45-1.71h3v6.41h-3.5a1.53,1.53,0,0,0-1.18.33,2,2,0,0,0-.28,1.28v1.82Z" transform="translate(0.01)" fill="#fff"></path>
  <path d="M230.45,46.09a5.42,5.42,0,1,1,4.2-1.58A5.68,5.68,0,0,1,230.45,46.09Zm-4.37,35.42V49.87h8.73V81.51Z" transform="translate(0.01)" fill="#fff"></path>
  <path d="M248,81.51l-7.7-31.64h9.06l5.12,26.43h-.73l6.09-26.43h11.61l6.06,26.52h-.88l5.27-26.52h8.59l-7.74,31.64H270.62l-5.95-28.3h1.52l-6.06,28.3Z" transform="translate(0.01)" fill="#fff"></path>
  <path d="M300.32,46.09a5.4,5.4,0,1,1,4.21-1.58A5.72,5.72,0,0,1,300.32,46.09ZM296,81.51V49.87h8.73V81.51Z" transform="translate(0.01)" fill="#fff"></path>
  <path d="M311,81.51V75.3l16.64-18.13H311.87v-7.3H338.7v6.3L322,74.19h17.08v7.32Z" transform="translate(0.01)" fill="#fff"></path>
  <path d="M359.09,82.27a17.14,17.14,0,0,1-8.36-2,14.86,14.86,0,0,1-5.86-5.75,17.37,17.37,0,0,1-2.16-8.84,17.38,17.38,0,0,1,2.13-8.79,14.82,14.82,0,0,1,5.8-5.74,17.15,17.15,0,0,1,8.39-2,18.62,18.62,0,0,1,5.29.79,13,13,0,0,1,4.94,2.8,14.14,14.14,0,0,1,3.63,5.59,25.94,25.94,0,0,1,1.38,9.16h-26v-5h18.16l-.9,1.55a14,14,0,0,0-1.18-5.1A6.57,6.57,0,0,0,362,56.11a6.1,6.1,0,0,0-3.22-.88,5.75,5.75,0,0,0-3.87,1.32,8,8,0,0,0-2.33,3.68,17.13,17.13,0,0,0-.77,5.46,13.44,13.44,0,0,0,1.77,7.41A6,6,0,0,0,359,75.83a6.8,6.8,0,0,0,4.09-1.23,7.59,7.59,0,0,0,2.62-3.75l7.91,2a12.65,12.65,0,0,1-3.37,5.36,14.14,14.14,0,0,1-5.17,3.06A18.48,18.48,0,0,1,359.09,82.27Z" transform="translate(0.01)" fill="#fff"></path>
</svg>
