<?xml version="1.0" standalone="no"?>
<!DOCTYPE svg PUBLIC "-//W3C//DTD SVG 20010904//EN"
 "http://www.w3.org/TR/2001/REC-SVG-20010904/DTD/svg10.dtd">
<svg version="1.0" xmlns="http://www.w3.org/2000/svg"
 width="228.000000pt" height="351.000000pt" viewBox="0 0 228.000000 351.000000"
 preserveAspectRatio="xMidYMid meet">

<g transform="translate(0.000000,351.000000) scale(0.100000,-0.100000)"
fill="#000000" stroke="none">
<path d="M774 3500 c-233 -20 -472 -74 -671 -151 l-103 -41 0 -370 c0 -292 3
-369 12 -365 7 3 53 23 103 45 283 124 634 189 876 163 210 -23 310 -80 345
-198 18 -60 18 -97 -2 -163 -22 -73 -98 -147 -279 -270 -271 -185 -364 -277
-445 -444 -60 -123 -81 -217 -87 -383 l-6 -143 422 0 421 0 0 58 c1 93 18 190
46 248 40 86 113 155 344 328 419 314 506 436 517 726 13 335 -127 595 -414
766 -149 89 -328 149 -535 179 -132 19 -408 27 -544 15z"/>
<path d="M818 879 c-65 -15 -151 -65 -204 -119 -84 -84 -123 -184 -124 -310 0
-175 97 -327 257 -403 65 -30 74 -32 189 -32 118 0 121 0 195 37 140 69 226
184 251 332 36 215 -110 435 -326 492 -57 15 -180 17 -238 3z"/>
</g>
</svg>
