<svg width="156" height="79" viewBox="0 0 156 79" fill="none" xmlns="http://www.w3.org/2000/svg">
<path d="M3.80566 73V37.209H8.54199V68.7764H26.1689V73H3.80566ZM30.3926 55.5684C30.3926 49.6276 31.9876 44.9808 35.1777 41.6279C38.3678 38.2588 42.4857 36.5742 47.5312 36.5742C50.8353 36.5742 53.8138 37.3636 56.4668 38.9424C59.1198 40.5212 61.138 42.7266 62.5215 45.5586C63.9212 48.3743 64.6211 51.5726 64.6211 55.1533C64.6211 58.7829 63.8887 62.0299 62.4238 64.8945C60.959 67.7591 58.8838 69.932 56.1982 71.4131C53.5127 72.8779 50.6156 73.6104 47.5068 73.6104C44.1377 73.6104 41.1266 72.7965 38.4736 71.1689C35.8206 69.5413 33.8105 67.3197 32.4434 64.5039C31.0762 61.6882 30.3926 58.7096 30.3926 55.5684ZM35.2754 55.6416C35.2754 59.9548 36.431 63.3564 38.7422 65.8467C41.0697 68.3206 43.9831 69.5576 47.4824 69.5576C51.0469 69.5576 53.9766 68.3044 56.2715 65.7979C58.5827 63.2913 59.7383 59.735 59.7383 55.1289C59.7383 52.2155 59.2419 49.6764 58.249 47.5117C57.2725 45.3307 55.832 43.6462 53.9277 42.458C52.0397 41.2536 49.9157 40.6514 47.5557 40.6514C44.2028 40.6514 41.3138 41.807 38.8887 44.1182C36.4798 46.4131 35.2754 50.2542 35.2754 55.6416ZM87.4971 58.9619V54.7627L102.658 54.7383V68.0195C100.331 69.875 97.93 71.2747 95.4561 72.2188C92.9821 73.1465 90.443 73.6104 87.8389 73.6104C84.3232 73.6104 81.125 72.8617 78.2441 71.3643C75.3796 69.8506 73.2148 67.6696 71.75 64.8213C70.2852 61.973 69.5527 58.791 69.5527 55.2754C69.5527 51.7923 70.277 48.5452 71.7256 45.5342C73.1904 42.5068 75.29 40.2607 78.0244 38.7959C80.7588 37.3311 83.9082 36.5986 87.4727 36.5986C90.0605 36.5986 92.3962 37.0218 94.4795 37.8682C96.5791 38.6982 98.223 39.862 99.4111 41.3594C100.599 42.8568 101.503 44.8099 102.121 47.2188L97.8486 48.3906C97.3115 46.5677 96.6442 45.1354 95.8467 44.0938C95.0492 43.0521 93.9098 42.222 92.4287 41.6035C90.9476 40.9688 89.3037 40.6514 87.4971 40.6514C85.3324 40.6514 83.4606 40.985 81.8818 41.6523C80.3031 42.3034 79.0254 43.166 78.0488 44.2402C77.0885 45.3145 76.3398 46.4945 75.8027 47.7803C74.8913 49.9938 74.4355 52.3945 74.4355 54.9824C74.4355 58.1725 74.9808 60.8418 76.0713 62.9902C77.1781 65.1387 78.7812 66.7337 80.8809 67.7754C82.9805 68.8171 85.2103 69.3379 87.5703 69.3379C89.6211 69.3379 91.623 68.9473 93.5762 68.166C95.5293 67.3685 97.0104 66.5221 98.0195 65.627V58.9619H87.4971ZM110.471 73V37.209H115.207V73H110.471ZM123.532 73V37.209H128.391L147.189 65.3096V37.209H151.73V73H146.872L128.073 44.875V73H123.532Z" fill="url(#paint0_radial_103_302)"/>
<path d="M12.952 0V7H12V0M36.0062 0V7H36.9582V0M70.9408 0V7H71.8928V0M15.8666 0V7H16.8185V0M46.2836 0V7H47.2356V0M49.4757 0V7H50.4277V0M92.4102 0V7H93.3622V0M101.359 0V7H102.311V0M143.048 0V7H144V0M110.049 0V7H111.001V0M113.241 0V7H114.193V0M123.517 0V7H124.469V0M126.709 0V7H127.661V0M58.8107 0V7H59.7627V0M69.5289 0V7H70.4808V0" fill="url(#paint1_radial_103_302)"/>
<defs>
<radialGradient id="paint0_radial_103_302" cx="0" cy="0" r="1" gradientUnits="userSpaceOnUse" gradientTransform="translate(78 55.5) rotate(90) scale(50.5 167.617)">
<stop stop-color="white"/>
<stop offset="1" stop-color="white" stop-opacity="0"/>
</radialGradient>
<radialGradient id="paint1_radial_103_302" cx="0" cy="0" r="1" gradientUnits="userSpaceOnUse" gradientTransform="translate(78 3.5) rotate(90) scale(5.36479 101.165)">
<stop stop-color="white"/>
<stop offset="1" stop-color="white" stop-opacity="0"/>
</radialGradient>
</defs>
</svg>
