<svg width="372" height="79" viewBox="0 0 372 79" fill="none" xmlns="http://www.w3.org/2000/svg">
<path d="M4.16406 73V37.209H20.0332C23.2233 37.209 25.6484 37.5345 27.3086 38.1855C28.9688 38.8203 30.2952 39.9515 31.2881 41.5791C32.2809 43.2067 32.7773 45.0052 32.7773 46.9746C32.7773 49.5137 31.9554 51.654 30.3115 53.3955C28.6676 55.137 26.1286 56.2438 22.6943 56.7158C23.9476 57.318 24.8997 57.9121 25.5508 58.498C26.9342 59.7676 28.2445 61.3545 29.4814 63.2588L35.707 73H29.75L25.0137 65.5537C23.6302 63.4053 22.4909 61.7614 21.5957 60.6221C20.7005 59.4827 19.8949 58.6852 19.1787 58.2295C18.4788 57.7738 17.7627 57.4564 17.0303 57.2773C16.4932 57.1634 15.6143 57.1064 14.3936 57.1064H8.90039V73H4.16406ZM8.90039 53.0049H19.0811C21.2458 53.0049 22.9385 52.7852 24.1592 52.3457C25.3799 51.89 26.3076 51.1738 26.9424 50.1973C27.5771 49.2044 27.8945 48.1302 27.8945 46.9746C27.8945 45.2819 27.276 43.8903 26.0391 42.7998C24.8184 41.7093 22.8815 41.1641 20.2285 41.1641H8.90039V53.0049ZM40.3213 73V37.209H66.2002V41.4326H45.0576V52.3945H64.8574V56.5938H45.0576V68.7764H67.0303V73H40.3213ZM90.3213 58.9619V54.7627L105.482 54.7383V68.0195C103.155 69.875 100.754 71.2747 98.2803 72.2188C95.8063 73.1465 93.2673 73.6104 90.6631 73.6104C87.1475 73.6104 83.9492 72.8617 81.0684 71.3643C78.2038 69.8506 76.0391 67.6696 74.5742 64.8213C73.1094 61.973 72.377 58.791 72.377 55.2754C72.377 51.7923 73.1012 48.5452 74.5498 45.5342C76.0146 42.5068 78.1143 40.2607 80.8486 38.7959C83.583 37.3311 86.7324 36.5986 90.2969 36.5986C92.8848 36.5986 95.2204 37.0218 97.3037 37.8682C99.4033 38.6982 101.047 39.862 102.235 41.3594C103.424 42.8568 104.327 44.8099 104.945 47.2188L100.673 48.3906C100.136 46.5677 99.4684 45.1354 98.6709 44.0938C97.8734 43.0521 96.734 42.222 95.2529 41.6035C93.7718 40.9688 92.1279 40.6514 90.3213 40.6514C88.1566 40.6514 86.2848 40.985 84.7061 41.6523C83.1273 42.3034 81.8496 43.166 80.873 44.2402C79.9128 45.3145 79.1641 46.4945 78.627 47.7803C77.7155 49.9938 77.2598 52.3945 77.2598 54.9824C77.2598 58.1725 77.805 60.8418 78.8955 62.9902C80.0023 65.1387 81.6055 66.7337 83.7051 67.7754C85.8047 68.8171 88.0345 69.3379 90.3945 69.3379C92.4453 69.3379 94.4473 68.9473 96.4004 68.166C98.3535 67.3685 99.8346 66.5221 100.844 65.627V58.9619H90.3213ZM113.295 73V37.209H118.031V73H113.295ZM124.794 61.501L129.262 61.1104C129.473 62.9007 129.962 64.3737 130.727 65.5293C131.508 66.6686 132.712 67.5964 134.34 68.3125C135.967 69.0124 137.799 69.3623 139.833 69.3623C141.64 69.3623 143.235 69.0938 144.618 68.5566C146.002 68.0195 147.027 67.2871 147.694 66.3594C148.378 65.4154 148.72 64.39 148.72 63.2832C148.72 62.1602 148.394 61.1836 147.743 60.3535C147.092 59.5072 146.018 58.7992 144.521 58.2295C143.56 57.8551 141.436 57.2773 138.148 56.4961C134.861 55.6986 132.558 54.9499 131.239 54.25C129.53 53.3548 128.253 52.248 127.406 50.9297C126.576 49.5951 126.161 48.1058 126.161 46.4619C126.161 44.6553 126.674 42.9707 127.699 41.4082C128.725 39.8294 130.222 38.6331 132.191 37.8193C134.161 37.0055 136.35 36.5986 138.759 36.5986C141.412 36.5986 143.747 37.0299 145.766 37.8926C147.8 38.7389 149.363 39.9922 150.453 41.6523C151.544 43.3125 152.13 45.1924 152.211 47.292L147.67 47.6338C147.426 45.3714 146.596 43.6624 145.18 42.5068C143.78 41.3512 141.705 40.7734 138.954 40.7734C136.09 40.7734 133.998 41.3024 132.68 42.3604C131.378 43.402 130.727 44.6634 130.727 46.1445C130.727 47.4303 131.19 48.4883 132.118 49.3184C133.03 50.1484 135.406 51.0029 139.247 51.8818C143.104 52.7445 145.749 53.5013 147.182 54.1523C149.265 55.1126 150.803 56.3333 151.796 57.8145C152.789 59.2793 153.285 60.972 153.285 62.8926C153.285 64.7969 152.74 66.5954 151.649 68.2881C150.559 69.9645 148.988 71.2747 146.938 72.2188C144.903 73.1465 142.608 73.6104 140.053 73.6104C136.814 73.6104 134.096 73.1383 131.898 72.1943C129.717 71.2503 128 69.8343 126.747 67.9463C125.51 66.042 124.859 63.8936 124.794 61.501ZM168.861 73V41.4326H157.069V37.209H185.438V41.4326H173.598V73H168.861ZM190.395 73V37.209H206.264C209.454 37.209 211.879 37.5345 213.539 38.1855C215.199 38.8203 216.526 39.9515 217.519 41.5791C218.511 43.2067 219.008 45.0052 219.008 46.9746C219.008 49.5137 218.186 51.654 216.542 53.3955C214.898 55.137 212.359 56.2438 208.925 56.7158C210.178 57.318 211.13 57.9121 211.781 58.498C213.165 59.7676 214.475 61.3545 215.712 63.2588L221.938 73H215.98L211.244 65.5537C209.861 63.4053 208.721 61.7614 207.826 60.6221C206.931 59.4827 206.125 58.6852 205.409 58.2295C204.709 57.7738 203.993 57.4564 203.261 57.2773C202.724 57.1634 201.845 57.1064 200.624 57.1064H195.131V73H190.395ZM195.131 53.0049H205.312C207.476 53.0049 209.169 52.7852 210.39 52.3457C211.61 51.89 212.538 51.1738 213.173 50.1973C213.808 49.2044 214.125 48.1302 214.125 46.9746C214.125 45.2819 213.507 43.8903 212.27 42.7998C211.049 41.7093 209.112 41.1641 206.459 41.1641H195.131V53.0049ZM222.523 73L236.269 37.209H241.371L256.02 73H250.624L246.449 62.1602H231.483L227.553 73H222.523ZM232.851 58.3027H244.984L241.249 48.3906C240.11 45.3796 239.263 42.9056 238.71 40.9688C238.254 43.2637 237.611 45.5423 236.781 47.8047L232.851 58.3027ZM265.199 73V41.4326H253.407V37.209H281.776V41.4326H269.936V73H265.199ZM287.465 73V37.209H292.201V73H287.465ZM299.135 55.5684C299.135 49.6276 300.73 44.9808 303.92 41.6279C307.11 38.2588 311.228 36.5742 316.273 36.5742C319.577 36.5742 322.556 37.3636 325.209 38.9424C327.862 40.5212 329.88 42.7266 331.264 45.5586C332.663 48.3743 333.363 51.5726 333.363 55.1533C333.363 58.7829 332.631 62.0299 331.166 64.8945C329.701 67.7591 327.626 69.932 324.94 71.4131C322.255 72.8779 319.358 73.6104 316.249 73.6104C312.88 73.6104 309.869 72.7965 307.216 71.1689C304.563 69.5413 302.553 67.3197 301.186 64.5039C299.818 61.6882 299.135 58.7096 299.135 55.5684ZM304.018 55.6416C304.018 59.9548 305.173 63.3564 307.484 65.8467C309.812 68.3206 312.725 69.5576 316.225 69.5576C319.789 69.5576 322.719 68.3044 325.014 65.7979C327.325 63.2913 328.48 59.735 328.48 55.1289C328.48 52.2155 327.984 49.6764 326.991 47.5117C326.015 45.3307 324.574 43.6462 322.67 42.458C320.782 41.2536 318.658 40.6514 316.298 40.6514C312.945 40.6514 310.056 41.807 307.631 44.1182C305.222 46.4131 304.018 50.2542 304.018 55.6416ZM339.442 73V37.209H344.301L363.1 65.3096V37.209H367.641V73H362.782L343.983 44.875V73H339.442Z" fill="url(#paint0_radial_110_29)"/>
<path d="M37.178 0V7H35V0M89.9233 0V7H92.1013V0M169.849 0V7H172.027V0M43.8462 0V7H46.0242V0M113.437 0V7H115.615V0M120.74 0V7H122.918V0M218.969 0V7H221.147V0M239.442 0V7H241.62V0M334.822 0V7H337V0M259.325 0V7H261.503V0M266.628 0V7H268.806V0M290.137 0V7H292.315V0M297.44 0V7H299.618V0M142.097 0V7H144.275V0M166.619 0V7H168.797V0" fill="url(#paint1_radial_110_29)"/>
<defs>
<radialGradient id="paint0_radial_110_29" cx="0" cy="0" r="1" gradientUnits="userSpaceOnUse" gradientTransform="translate(186 55.5) rotate(90) scale(50.5 399.702)">
<stop stop-color="white"/>
<stop offset="1" stop-color="white" stop-opacity="0"/>
</radialGradient>
<radialGradient id="paint1_radial_110_29" cx="0" cy="0" r="1" gradientUnits="userSpaceOnUse" gradientTransform="translate(186 3.5) rotate(90) scale(5.36479 231.453)">
<stop stop-color="white"/>
<stop offset="1" stop-color="white" stop-opacity="0"/>
</radialGradient>
</defs>
</svg>
