<svg width="255.000000" height="36.000000" viewBox="0 0 255 36" fill="none" xmlns="http://www.w3.org/2000/svg" xmlns:xlink="http://www.w3.org/1999/xlink">
	<desc>
			Created with Pixso.
	</desc>
	<defs/>
	<path id="FOX LEADS" d="M41.42 -0.4C50.35 -0.4 56.83 6.5 56.83 17.55C56.83 28.58 50.35 35.48 41.42 35.48C32.49 35.48 26.01 28.58 26.01 17.55C26.01 6.5 32.49 -0.4 41.42 -0.4ZM253.54 8.82L249.45 8.82C249.04 5.37 245.83 3.35 241.61 3.35C236.97 3.35 233.9 5.82 233.9 9.16C233.9 12.91 238.06 14.26 240.65 14.94L244.2 15.91C247.81 16.85 254.02 18.98 254.02 25.51C254.02 31.17 249.45 35.6 241.4 35.6C233.9 35.6 229.27 31.73 228.86 26L233.22 26C233.56 29.94 237.24 31.8 241.4 31.8C246.24 31.8 249.93 29.26 249.93 25.44C249.93 21.98 246.65 20.67 242.97 19.66L238.68 18.42C233.22 16.85 229.81 14.07 229.81 9.35C229.81 3.5 235.06 -0.4 241.74 -0.4C248.49 -0.4 253.35 3.54 253.54 8.82ZM3.44 35L-0.77 35L-0.77 0.08L20.16 0.08L20.16 3.83L3.44 3.83L3.44 15.64L18.58 15.64L18.58 19.39L3.44 19.39L3.44 35ZM60.45 0.08L65.42 0.08L74.42 14.6L74.7 14.6L83.7 0.08L88.67 0.08L77.7 17.55L88.67 35L83.7 35L74.7 20.75L74.42 20.75L65.42 35L60.45 35L71.7 17.55L60.45 0.08ZM128.15 35L107.7 35L107.7 0.08L111.92 0.08L111.92 31.25L128.15 31.25L128.15 35ZM156.04 35L134.7 35L134.7 0.08L155.77 0.08L155.77 3.83L138.92 3.83L138.92 15.64L154.67 15.64L154.67 19.39L138.92 19.39L138.92 31.25L156.04 31.25L156.04 35ZM168.35 25.1L164.84 35L160.41 35L173.23 0.08L177.59 0.08L190.41 35L185.98 35L182.46 25.1L168.35 25.1ZM223.27 17.48C223.27 28.39 217.27 35 206.63 35L195.86 35L195.86 0.08L207.11 0.08C217.27 0.08 223.27 6.64 223.27 17.48ZM41.42 31.51C47.76 31.51 52.74 26.6 52.74 17.55C52.74 8.48 47.76 3.57 41.42 3.57C35.08 3.57 30.1 8.48 30.1 17.55C30.1 26.6 35.08 31.51 41.42 31.51ZM200.08 3.83L200.08 31.25L206.36 31.25C215.02 31.25 219.18 26 219.18 17.48C219.18 9.01 215.02 3.83 206.83 3.83L200.08 3.83ZM175.27 5.6L169.68 21.35L181.13 21.35L175.54 5.6L175.27 5.6Z" fill="#FFFFFF" fill-opacity="1.000000" fill-rule="evenodd"/>
</svg>
