<svg width="1920" height="1363" viewBox="0 0 1920 1363" fill="none" xmlns="http://www.w3.org/2000/svg">
<path d="M-342.249 0.391602H-410V68.1421M-342.249 0.391602V68.1421M-342.249 0.391602L-274.499 0.391755M-342.249 68.1421H-410M-342.249 68.1421L-274.499 68.1423M-342.249 68.1421L-342.249 135.893M-410 68.1421L-410 135.893M-274.499 0.391755V68.1423M-274.499 0.391755H-206.748M-274.499 68.1423H-206.748M-274.499 68.1423V135.893M-206.748 0.391755V68.1423M-206.748 0.391755H-138.998M-206.748 68.1423H-138.998M-206.748 68.1423V135.893M-138.998 0.391755V68.1423M-138.998 0.391755H-71.2472M-138.998 68.1423H-71.2472M-138.998 68.1423V135.893M-71.2472 0.391755V68.1423M-71.2472 0.391755H-3.49661M-71.2472 68.1423H-3.49661M-71.2472 68.1423V135.893M-3.49661 0.391755V68.1423M-3.49661 0.391755H64.2541M-3.49661 68.1423H64.2541M-3.49661 68.1423V135.893M64.2541 0.391755V68.1423M64.2541 0.391755H132.004M64.2541 68.1423H132.004M64.2541 68.1423V135.893M132.004 0.391755V68.1423M132.004 0.391755H199.755M132.004 68.1423H199.755M132.004 68.1423V135.893M199.755 0.391755V68.1423M199.755 0.391755H267.505M199.755 68.1423H267.505M199.755 68.1423V135.893M267.505 0.391755V68.1423M267.505 0.391755H335.256M267.505 68.1423H335.256M267.505 68.1423V135.893M335.256 0.391755V68.1423M335.256 0.391755H403.007M335.256 68.1423H403.007M335.256 68.1423V135.893M403.007 0.391755V68.1423M403.007 0.391755H470.757M403.007 68.1423H470.757M403.007 68.1423V135.893M470.757 0.391755V68.1423M470.757 0.391755H538.508M470.757 68.1423H538.508M470.757 68.1423V135.893M538.508 0.391755V68.1423M538.508 0.391755H606.258M538.508 68.1423H606.258M538.508 68.1423V135.893M606.258 0.391755V68.1423M606.258 0.391755H674.009M606.258 68.1423H674.009M606.258 68.1423V135.893M674.009 0.391755V68.1423M674.009 0.391755H741.759M674.009 68.1423H741.759M674.009 68.1423V135.893M741.759 0.391755V68.1423M741.759 0.391755H809.51M741.759 68.1423H809.51M741.759 68.1423V135.893M809.51 0.391755V68.1423M809.51 0.391755H877.26V68.1423M809.51 68.1423H877.26M809.51 68.1423V135.893M877.26 68.1423V135.893M-342.249 135.893H-410M-342.249 135.893H-274.499M-342.249 135.893V203.643M-410 135.893V203.643M-274.499 135.893H-206.748M-274.499 135.893V203.643M-206.748 135.893H-138.998M-206.748 135.893V203.643M-138.998 135.893H-71.2472M-138.998 135.893V203.643M-71.2472 135.893H-3.49661M-71.2472 135.893V203.643M-3.49661 135.893H64.2541M-3.49661 135.893V203.643M64.2541 135.893H132.004M64.2541 135.893V203.643M132.004 135.893H199.755M132.004 135.893V203.643M199.755 135.893H267.505M199.755 135.893V203.643M267.505 135.893H335.256M267.505 135.893V203.643M335.256 135.893H403.007M335.256 135.893V203.643M403.007 135.893H470.757M403.007 135.893V203.643M470.757 135.893H538.508M470.757 135.893V203.643M538.508 135.893H606.258M538.508 135.893V203.643M606.258 135.893H674.009M606.258 135.893V203.643M674.009 135.893H741.759M674.009 135.893V203.643M741.759 135.893H809.51M741.759 135.893V203.643M809.51 135.893H877.26M809.51 135.893V203.643M877.26 135.893V203.643M-342.249 203.643H-410M-342.249 203.643H-274.499M-342.249 203.643V271.394M-410 203.643V271.394M-274.499 203.643H-206.748M-274.499 203.643V271.394M-206.748 203.643H-138.998M-206.748 203.643V271.394M-138.998 203.643H-71.2472M-138.998 203.643V271.394M-71.2472 203.643H-3.49661M-71.2472 203.643V271.394M-3.49661 203.643H64.2541M-3.49661 203.643V271.394M64.2541 203.643H132.004M64.2541 203.643V271.394M132.004 203.643H199.755M132.004 203.643V271.394M199.755 203.643H267.505M199.755 203.643V271.394M267.505 203.643H335.256M267.505 203.643V271.394M335.256 203.643H403.007M335.256 203.643V271.394M403.007 203.643H470.757M403.007 203.643V271.394M470.757 203.643H538.508M470.757 203.643V271.394M538.508 203.643H606.258M538.508 203.643V271.394M606.258 203.643H674.009M606.258 203.643V271.394M674.009 203.643H741.759M674.009 203.643V271.394M741.759 203.643H809.51M741.759 203.643V271.394M809.51 203.643H877.26M809.51 203.643V271.394M877.26 203.643V271.394M-342.249 271.394H-410M-342.249 271.394H-274.499M-342.249 271.394V339.145M-410 271.394V339.145M-274.499 271.394H-206.748M-274.499 271.394V339.145M-206.748 271.394H-138.998M-206.748 271.394V339.145M-138.998 271.394H-71.2472M-138.998 271.394V339.145M-71.2472 271.394H-3.49661M-71.2472 271.394V339.145M-3.49661 271.394H64.2541M-3.49661 271.394V339.145M64.2541 271.394H132.004M64.2541 271.394V339.145M132.004 271.394H199.755M132.004 271.394V339.145M199.755 271.394H267.505M199.755 271.394V339.145M267.505 271.394H335.256M267.505 271.394V339.145M335.256 271.394H403.007M335.256 271.394V339.145M403.007 271.394H470.757M403.007 271.394V339.145M470.757 271.394H538.508M470.757 271.394V339.145M538.508 271.394H606.258M538.508 271.394V339.145M606.258 271.394H674.009M606.258 271.394V339.145M674.009 271.394H741.759M674.009 271.394V339.145M741.759 271.394H809.51M741.759 271.394V339.145M809.51 271.394H877.26M809.51 271.394V339.145M877.26 271.394V339.145M-342.249 339.145H-410M-342.249 339.145H-274.499M-342.249 339.145V406.895M-410 339.145V406.895M-274.499 339.145H-206.748M-274.499 339.145V406.895M-206.748 339.145H-138.998M-206.748 339.145V406.895M-138.998 339.145H-71.2472M-138.998 339.145V406.895M-71.2472 339.145H-3.49661M-71.2472 339.145V406.895M-3.49661 339.145H64.2541M-3.49661 339.145V406.895M64.2541 339.145H132.004M64.2541 339.145V406.895M132.004 339.145H199.755M132.004 339.145V406.895M199.755 339.145H267.505M199.755 339.145V406.895M267.505 339.145H335.256M267.505 339.145V406.895M335.256 339.145H403.007M335.256 339.145V406.895M403.007 339.145H470.757M403.007 339.145V406.895M470.757 339.145H538.508M470.757 339.145V406.895M538.508 339.145H606.258M538.508 339.145V406.895M606.258 339.145H674.009M606.258 339.145V406.895M674.009 339.145H741.759M674.009 339.145V406.895M741.759 339.145H809.51M741.759 339.145V406.895M809.51 339.145H877.26M809.51 339.145V406.895M877.26 339.145V406.895M-342.249 406.895H-410M-342.249 406.895H-274.499M-342.249 406.895V474.646M-410 406.895V474.646M-274.499 406.895H-206.748M-274.499 406.895V474.646M-206.748 406.895H-138.998M-206.748 406.895V474.646M-138.998 406.895H-71.2472M-138.998 406.895V474.646M-71.2472 406.895H-3.49661M-71.2472 406.895V474.646M-3.49661 406.895H64.2541M-3.49661 406.895V474.646M64.2541 406.895H132.004M64.2541 406.895V474.646M132.004 406.895H199.755M132.004 406.895V474.646M199.755 406.895H267.505M199.755 406.895V474.646M267.505 406.895H335.256M267.505 406.895V474.646M335.256 406.895H403.007M335.256 406.895V474.646M403.007 406.895H470.757M403.007 406.895V474.646M470.757 406.895H538.508M470.757 406.895V474.646M538.508 406.895H606.258M538.508 406.895V474.646M606.258 406.895H674.009M606.258 406.895V474.646M674.009 406.895H741.759M674.009 406.895V474.646M741.759 406.895H809.51M741.759 406.895V474.646M809.51 406.895H877.26M809.51 406.895V474.646M877.26 406.895V474.646M-342.249 474.646H-410M-342.249 474.646H-274.499M-342.249 474.646V542.396M-410 474.646V542.396M-274.499 474.646H-206.748M-274.499 474.646V542.396M-206.748 474.646H-138.998M-206.748 474.646V542.396M-138.998 474.646H-71.2472M-138.998 474.646V542.396M-71.2472 474.646H-3.49661M-71.2472 474.646V542.396M-3.49661 474.646H64.2541M-3.49661 474.646V542.396M64.2541 474.646H132.004M64.2541 474.646V542.396M132.004 474.646H199.755M132.004 474.646V542.396M199.755 474.646H267.505M199.755 474.646V542.396M267.505 474.646H335.256M267.505 474.646V542.396M335.256 474.646H403.007M335.256 474.646V542.396M403.007 474.646H470.757M403.007 474.646V542.396M470.757 474.646H538.508M470.757 474.646V542.396M538.508 474.646H606.258M538.508 474.646V542.396M606.258 474.646H674.009M606.258 474.646V542.396M674.009 474.646H741.759M674.009 474.646V542.396M741.759 474.646H809.51M741.759 474.646V542.396M809.51 474.646H877.26M809.51 474.646V542.396M877.26 474.646V542.396M-342.249 542.396H-410M-342.249 542.396H-274.499M-342.249 542.396V610.147M-410 542.396V610.147M-274.499 542.396H-206.748M-274.499 542.396V610.147M-206.748 542.396H-138.998M-206.748 542.396V610.147M-138.998 542.396H-71.2472M-138.998 542.396V610.147M-71.2472 542.396H-3.49661M-71.2472 542.396V610.147M-3.49661 542.396H64.2541M-3.49661 542.396V610.147M64.2541 542.396H132.004M64.2541 542.396V610.147M132.004 542.396H199.755M132.004 542.396V610.147M199.755 542.396H267.505M199.755 542.396V610.147M267.505 542.396H335.256M267.505 542.396V610.147M335.256 542.396H403.007M335.256 542.396V610.147M403.007 542.396H470.757M403.007 542.396V610.147M470.757 542.396H538.508M470.757 542.396V610.147M538.508 542.396H606.258M538.508 542.396V610.147M606.258 542.396H674.009M606.258 542.396V610.147M674.009 542.396H741.759M674.009 542.396V610.147M741.759 542.396H809.51M741.759 542.396V610.147M809.51 542.396H877.26M809.51 542.396V610.147M877.26 542.396V610.147M-342.249 610.147H-410M-342.249 610.147H-274.499M-342.249 610.147V677.897M-410 610.147V677.897M-274.499 610.147H-206.748M-274.499 610.147V677.897M-206.748 610.147H-138.998M-206.748 610.147V677.897M-138.998 610.147H-71.2472M-138.998 610.147V677.897M-71.2472 610.147H-3.49661M-71.2472 610.147V677.897M-3.49661 610.147H64.2541M-3.49661 610.147V677.897M64.2541 610.147H132.004M64.2541 610.147V677.897M132.004 610.147H199.755M132.004 610.147V677.897M199.755 610.147H267.505M199.755 610.147V677.897M267.505 610.147H335.256M267.505 610.147V677.897M335.256 610.147H403.007M335.256 610.147V677.897M403.007 610.147H470.757M403.007 610.147V677.897M470.757 610.147H538.508M470.757 610.147V677.897M538.508 610.147H606.258M538.508 610.147V677.897M606.258 610.147H674.009M606.258 610.147V677.897M674.009 610.147H741.759M674.009 610.147V677.897M741.759 610.147H809.51M741.759 610.147V677.897M809.51 610.147H877.26M809.51 610.147V677.897M877.26 610.147V677.897M-342.249 677.897H-410M-342.249 677.897H-274.499M-342.249 677.897V745.648M-410 677.897V745.648M-274.499 677.897H-206.748M-274.499 677.897V745.648M-206.748 677.897H-138.998M-206.748 677.897V745.648M-138.998 677.897H-71.2472M-138.998 677.897V745.648M-71.2472 677.897H-3.49661M-71.2472 677.897V745.648M-3.49661 677.897H64.2541M-3.49661 677.897V745.648M64.2541 677.897H132.004M64.2541 677.897V745.648M132.004 677.897H199.755M132.004 677.897V745.648M199.755 677.897H267.505M199.755 677.897V745.648M267.505 677.897H335.256M267.505 677.897V745.648M335.256 677.897H403.007M335.256 677.897V745.648M403.007 677.897H470.757M403.007 677.897V745.648M470.757 677.897H538.508M470.757 677.897V745.648M538.508 677.897H606.258M538.508 677.897V745.648M606.258 677.897H674.009M606.258 677.897V745.648M674.009 677.897H741.759M674.009 677.897V745.648M741.759 677.897H809.51M741.759 677.897V745.648M809.51 677.897H877.26M809.51 677.897V745.648M877.26 677.897V745.648M-342.249 745.648H-410M-342.249 745.648H-274.499M-342.249 745.648V813.398M-410 745.648V813.398M-274.499 745.648H-206.748M-274.499 745.648V813.398M-206.748 745.648H-138.998M-206.748 745.648V813.398M-138.998 745.648H-71.2472M-138.998 745.648V813.398M-71.2472 745.648H-3.49661M-71.2472 745.648V813.398M-3.49661 745.648H64.2541M-3.49661 745.648V813.398M64.2541 745.648H132.004M64.2541 745.648V813.398M132.004 745.648H199.755M132.004 745.648V813.398M199.755 745.648H267.505M199.755 745.648V813.398M267.505 745.648H335.256M267.505 745.648V813.398M335.256 745.648H403.007M335.256 745.648V813.398M403.007 745.648H470.757M403.007 745.648V813.398M470.757 745.648H538.508M470.757 745.648V813.398M538.508 745.648H606.258M538.508 745.648V813.398M606.258 745.648H674.009M606.258 745.648V813.398M674.009 745.648H741.759M674.009 745.648V813.398M741.759 745.648H809.51M741.759 745.648V813.398M809.51 745.648H877.26M809.51 745.648V813.398M877.26 745.648V813.398M-342.249 813.398H-410M-342.249 813.398H-274.499M-342.249 813.398V881.149M-410 813.398V881.149M-274.499 813.398H-206.748M-274.499 813.398V881.149M-206.748 813.398H-138.998M-206.748 813.398V881.149M-138.998 813.398H-71.2472M-138.998 813.398V881.149M-71.2472 813.398H-3.49661M-71.2472 813.398V881.149M-3.49661 813.398H64.2541M-3.49661 813.398V881.149M64.2541 813.398H132.004M64.2541 813.398V881.149M132.004 813.398H199.755M132.004 813.398V881.149M199.755 813.398H267.505M199.755 813.398V881.149M267.505 813.398H335.256M267.505 813.398V881.149M335.256 813.398H403.007M335.256 813.398V881.149M403.007 813.398H470.757M403.007 813.398V881.149M470.757 813.398H538.508M470.757 813.398V881.149M538.508 813.398H606.258M538.508 813.398V881.149M606.258 813.398H674.009M606.258 813.398V881.149M674.009 813.398H741.759M674.009 813.398V881.149M741.759 813.398H809.51M741.759 813.398V881.149M809.51 813.398H877.26M809.51 813.398V881.149M877.26 813.398V881.149M-342.249 881.149H-410M-342.249 881.149H-274.499M-342.249 881.149V948.899M-410 881.149V948.899M-274.499 881.149H-206.748M-274.499 881.149V948.899M-206.748 881.149H-138.998M-206.748 881.149V948.899M-138.998 881.149H-71.2472M-138.998 881.149V948.899M-71.2472 881.149H-3.49661M-71.2472 881.149V948.899M-3.49661 881.149H64.2541M-3.49661 881.149V948.899M64.2541 881.149H132.004M64.2541 881.149V948.899M132.004 881.149H199.755M132.004 881.149V948.899M199.755 881.149H267.505M199.755 881.149V948.899M267.505 881.149H335.256M267.505 881.149V948.899M335.256 881.149H403.007M335.256 881.149V948.899M403.007 881.149H470.757M403.007 881.149V948.899M470.757 881.149H538.508M470.757 881.149V948.899M538.508 881.149H606.258M538.508 881.149V948.899M606.258 881.149H674.009M606.258 881.149V948.899M674.009 881.149H741.759M674.009 881.149V948.899M741.759 881.149H809.51M741.759 881.149V948.899M809.51 881.149H877.26M809.51 881.149V948.899M877.26 881.149V948.899M-342.249 948.899H-410M-342.249 948.899H-274.499M-342.249 948.899V1016.65M-410 948.899V1016.65M-274.499 948.899H-206.748M-274.499 948.899V1016.65M-206.748 948.899H-138.998M-206.748 948.899V1016.65M-138.998 948.899H-71.2472M-138.998 948.899V1016.65M-71.2472 948.899H-3.49661M-71.2472 948.899V1016.65M-3.49661 948.899H64.2541M-3.49661 948.899V1016.65M64.2541 948.899H132.004M64.2541 948.899V1016.65M132.004 948.899H199.755M132.004 948.899V1016.65M199.755 948.899H267.505M199.755 948.899V1016.65M267.505 948.899H335.256M267.505 948.899V1016.65M335.256 948.899H403.007M335.256 948.899V1016.65M403.007 948.899H470.757M403.007 948.899V1016.65M470.757 948.899H538.508M470.757 948.899V1016.65M538.508 948.899H606.258M538.508 948.899V1016.65M606.258 948.899H674.009M606.258 948.899V1016.65M674.009 948.899H741.759M674.009 948.899V1016.65M741.759 948.899H809.51M741.759 948.899V1016.65M809.51 948.899H877.26M809.51 948.899V1016.65M877.26 948.899V1016.65M-342.249 1016.65H-410M-342.249 1016.65H-274.499M-342.249 1016.65V1084.4M-410 1016.65V1084.4M-274.499 1016.65H-206.748M-274.499 1016.65V1084.4M-206.748 1016.65H-138.998M-206.748 1016.65V1084.4M-138.998 1016.65H-71.2472M-138.998 1016.65V1084.4M-71.2472 1016.65H-3.49661M-71.2472 1016.65V1084.4M-3.49661 1016.65H64.2541M-3.49661 1016.65V1084.4M64.2541 1016.65H132.004M64.2541 1016.65V1084.4M132.004 1016.65H199.755M132.004 1016.65V1084.4M199.755 1016.65H267.505M199.755 1016.65V1084.4M267.505 1016.65H335.256M267.505 1016.65V1084.4M335.256 1016.65H403.007M335.256 1016.65V1084.4M403.007 1016.65H470.757M403.007 1016.65V1084.4M470.757 1016.65H538.508M470.757 1016.65V1084.4M538.508 1016.65H606.258M538.508 1016.65V1084.4M606.258 1016.65H674.009M606.258 1016.65V1084.4M674.009 1016.65H741.759M674.009 1016.65V1084.4M741.759 1016.65H809.51M741.759 1016.65V1084.4M809.51 1016.65H877.26M809.51 1016.65V1084.4M877.26 1016.65V1084.4M-342.249 1084.4H-410M-342.249 1084.4H-274.499M-342.249 1084.4V1152.15M-410 1084.4V1152.15M-274.499 1084.4H-206.748M-274.499 1084.4V1152.15M-206.748 1084.4H-138.998M-206.748 1084.4V1152.15M-138.998 1084.4H-71.2472M-138.998 1084.4V1152.15M-71.2472 1084.4H-3.49661M-71.2472 1084.4V1152.15M-3.49661 1084.4H64.2541M-3.49661 1084.4V1152.15M64.2541 1084.4H132.004M64.2541 1084.4V1152.15M132.004 1084.4H199.755M132.004 1084.4V1152.15M199.755 1084.4H267.505M199.755 1084.4V1152.15M267.505 1084.4H335.256M267.505 1084.4V1152.15M335.256 1084.4H403.007M335.256 1084.4V1152.15M403.007 1084.4H470.757M403.007 1084.4V1152.15M470.757 1084.4H538.508M470.757 1084.4V1152.15M538.508 1084.4H606.258M538.508 1084.4V1152.15M606.258 1084.4H674.009M606.258 1084.4V1152.15M674.009 1084.4H741.759M674.009 1084.4V1152.15M741.759 1084.4H809.51M741.759 1084.4V1152.15M809.51 1084.4H877.26M809.51 1084.4V1152.15M877.26 1084.4V1152.15M-342.249 1152.15H-410M-342.249 1152.15H-274.499M-342.249 1152.15V1219.9M-410 1152.15V1219.9M-274.499 1152.15H-206.748M-274.499 1152.15V1219.9M-206.748 1152.15H-138.998M-206.748 1152.15V1219.9M-138.998 1152.15H-71.2472M-138.998 1152.15V1219.9M-71.2472 1152.15H-3.49661M-71.2472 1152.15V1219.9M-3.49661 1152.15H64.2541M-3.49661 1152.15V1219.9M64.2541 1152.15H132.004M64.2541 1152.15V1219.9M132.004 1152.15H199.755M132.004 1152.15V1219.9M199.755 1152.15H267.505M199.755 1152.15V1219.9M267.505 1152.15H335.256M267.505 1152.15V1219.9M335.256 1152.15H403.007M335.256 1152.15V1219.9M403.007 1152.15H470.757M403.007 1152.15V1219.9M470.757 1152.15H538.508M470.757 1152.15V1219.9M538.508 1152.15H606.258M538.508 1152.15V1219.9M606.258 1152.15H674.009M606.258 1152.15V1219.9M674.009 1152.15H741.759M674.009 1152.15V1219.9M741.759 1152.15H809.51M741.759 1152.15V1219.9M809.51 1152.15H877.26M809.51 1152.15V1219.9M877.26 1152.15V1219.9M-342.249 1219.9H-410M-342.249 1219.9H-274.499M-342.249 1219.9V1287.65M-410 1219.9V1287.65H-342.249M-274.499 1219.9H-206.748M-274.499 1219.9V1287.65M-206.748 1219.9H-138.998M-206.748 1219.9V1287.65M-138.998 1219.9H-71.2472M-138.998 1219.9V1287.65M-71.2472 1219.9H-3.49661M-71.2472 1219.9V1287.65M-3.49661 1219.9H64.2541M-3.49661 1219.9V1287.65M64.2541 1219.9H132.004M64.2541 1219.9V1287.65M132.004 1219.9H199.755M132.004 1219.9V1287.65M199.755 1219.9H267.505M199.755 1219.9V1287.65M267.505 1219.9H335.256M267.505 1219.9V1287.65M335.256 1219.9H403.007M335.256 1219.9V1287.65M403.007 1219.9H470.757M403.007 1219.9V1287.65M470.757 1219.9H538.508M470.757 1219.9V1287.65M538.508 1219.9H606.258M538.508 1219.9V1287.65M606.258 1219.9H674.009M606.258 1219.9V1287.65M674.009 1219.9H741.759M674.009 1219.9V1287.65M741.759 1219.9H809.51M741.759 1219.9V1287.65M809.51 1219.9H877.26M809.51 1219.9V1287.65M877.26 1219.9V1287.65H809.51M-342.249 1287.65H-274.499M-274.499 1287.65H-206.748M-206.748 1287.65H-138.998M-138.998 1287.65H-71.2472M-71.2472 1287.65H-3.49661M-3.49661 1287.65H64.2541M64.2541 1287.65H132.004M132.004 1287.65H199.755M199.755 1287.65H267.505M267.505 1287.65H335.256M335.256 1287.65H403.007M403.007 1287.65H470.757M470.757 1287.65H538.508M538.508 1287.65H606.258M606.258 1287.65H674.009M674.009 1287.65H741.759M741.759 1287.65H809.51" stroke="url(#paint0_linear_341_866)" stroke-opacity="0.3" stroke-width="0.762194"/>
<path d="M-219.249 -626H-287V-558.249M-219.249 -626V-558.249M-219.249 -626L-151.499 -626M-219.249 -558.249H-287M-219.249 -558.249L-151.499 -558.249M-219.249 -558.249L-219.249 -490.499M-287 -558.249L-287 -490.499M-151.499 -626V-558.249M-151.499 -626H-83.7481M-151.499 -558.249H-83.7481M-151.499 -558.249V-490.499M-83.7481 -626V-558.249M-83.7481 -626H-15.9977M-83.7481 -558.249H-15.9977M-83.7481 -558.249V-490.499M-15.9977 -626V-558.249M-15.9977 -626H51.7528M-15.9977 -558.249H51.7528M-15.9977 -558.249V-490.499M51.7528 -626V-558.249M51.7528 -626H119.503M51.7528 -558.249H119.503M51.7528 -558.249V-490.499M119.503 -626V-558.249M119.503 -626H187.254M119.503 -558.249H187.254M119.503 -558.249V-490.499M187.254 -626V-558.249M187.254 -626H255.004M187.254 -558.249H255.004M187.254 -558.249V-490.499M255.004 -626V-558.249M255.004 -626H322.755M255.004 -558.249H322.755M255.004 -558.249V-490.499M322.755 -626V-558.249M322.755 -626H390.505M322.755 -558.249H390.505M322.755 -558.249V-490.499M390.505 -626V-558.249M390.505 -626H458.256M390.505 -558.249H458.256M390.505 -558.249V-490.499M458.256 -626V-558.249M458.256 -626H526.007M458.256 -558.249H526.007M458.256 -558.249V-490.499M526.007 -626V-558.249M526.007 -626H593.757M526.007 -558.249H593.757M526.007 -558.249V-490.499M593.757 -626V-558.249M593.757 -626H661.508M593.757 -558.249H661.508M593.757 -558.249V-490.499M661.508 -626V-558.249M661.508 -626H729.258M661.508 -558.249H729.258M661.508 -558.249V-490.499M729.258 -626V-558.249M729.258 -626H797.009M729.258 -558.249H797.009M729.258 -558.249V-490.499M797.009 -626V-558.249M797.009 -626H864.759M797.009 -558.249H864.759M797.009 -558.249V-490.499M864.759 -626V-558.249M864.759 -626H932.51M864.759 -558.249H932.51M864.759 -558.249V-490.499M932.51 -626V-558.249M932.51 -626H1000.26V-558.249M932.51 -558.249H1000.26M932.51 -558.249V-490.499M1000.26 -558.249V-490.499M-219.249 -490.499H-287M-219.249 -490.499H-151.499M-219.249 -490.499V-422.748M-287 -490.499V-422.748M-151.499 -490.499H-83.7481M-151.499 -490.499V-422.748M-83.7481 -490.499H-15.9977M-83.7481 -490.499V-422.748M-15.9977 -490.499H51.7528M-15.9977 -490.499V-422.748M51.7528 -490.499H119.503M51.7528 -490.499V-422.748M119.503 -490.499H187.254M119.503 -490.499V-422.748M187.254 -490.499H255.004M187.254 -490.499V-422.748M255.004 -490.499H322.755M255.004 -490.499V-422.748M322.755 -490.499H390.505M322.755 -490.499V-422.748M390.505 -490.499H458.256M390.505 -490.499V-422.748M458.256 -490.499H526.007M458.256 -490.499V-422.748M526.007 -490.499H593.757M526.007 -490.499V-422.748M593.757 -490.499H661.508M593.757 -490.499V-422.748M661.508 -490.499H729.258M661.508 -490.499V-422.748M729.258 -490.499H797.009M729.258 -490.499V-422.748M797.009 -490.499H864.759M797.009 -490.499V-422.748M864.759 -490.499H932.51M864.759 -490.499V-422.748M932.51 -490.499H1000.26M932.51 -490.499V-422.748M1000.26 -490.499V-422.748M-219.249 -422.748H-287M-219.249 -422.748H-151.499M-219.249 -422.748V-354.998M-287 -422.748V-354.998M-151.499 -422.748H-83.7481M-151.499 -422.748V-354.998M-83.7481 -422.748H-15.9977M-83.7481 -422.748V-354.998M-15.9977 -422.748H51.7528M-15.9977 -422.748V-354.998M51.7528 -422.748H119.503M51.7528 -422.748V-354.998M119.503 -422.748H187.254M119.503 -422.748V-354.998M187.254 -422.748H255.004M187.254 -422.748V-354.998M255.004 -422.748H322.755M255.004 -422.748V-354.998M322.755 -422.748H390.505M322.755 -422.748V-354.998M390.505 -422.748H458.256M390.505 -422.748V-354.998M458.256 -422.748H526.007M458.256 -422.748V-354.998M526.007 -422.748H593.757M526.007 -422.748V-354.998M593.757 -422.748H661.508M593.757 -422.748V-354.998M661.508 -422.748H729.258M661.508 -422.748V-354.998M729.258 -422.748H797.009M729.258 -422.748V-354.998M797.009 -422.748H864.759M797.009 -422.748V-354.998M864.759 -422.748H932.51M864.759 -422.748V-354.998M932.51 -422.748H1000.26M932.51 -422.748V-354.998M1000.26 -422.748V-354.998M-219.249 -354.998H-287M-219.249 -354.998H-151.499M-219.249 -354.998V-287.247M-287 -354.998V-287.247M-151.499 -354.998H-83.7481M-151.499 -354.998V-287.247M-83.7481 -354.998H-15.9977M-83.7481 -354.998V-287.247M-15.9977 -354.998H51.7528M-15.9977 -354.998V-287.247M51.7528 -354.998H119.503M51.7528 -354.998V-287.247M119.503 -354.998H187.254M119.503 -354.998V-287.247M187.254 -354.998H255.004M187.254 -354.998V-287.247M255.004 -354.998H322.755M255.004 -354.998V-287.247M322.755 -354.998H390.505M322.755 -354.998V-287.247M390.505 -354.998H458.256M390.505 -354.998V-287.247M458.256 -354.998H526.007M458.256 -354.998V-287.247M526.007 -354.998H593.757M526.007 -354.998V-287.247M593.757 -354.998H661.508M593.757 -354.998V-287.247M661.508 -354.998H729.258M661.508 -354.998V-287.247M729.258 -354.998H797.009M729.258 -354.998V-287.247M797.009 -354.998H864.759M797.009 -354.998V-287.247M864.759 -354.998H932.51M864.759 -354.998V-287.247M932.51 -354.998H1000.26M932.51 -354.998V-287.247M1000.26 -354.998V-287.247M-219.249 -287.247H-287M-219.249 -287.247H-151.499M-219.249 -287.247V-219.497M-287 -287.247V-219.497M-151.499 -287.247H-83.7481M-151.499 -287.247V-219.497M-83.7481 -287.247H-15.9977M-83.7481 -287.247V-219.497M-15.9977 -287.247H51.7528M-15.9977 -287.247V-219.497M51.7528 -287.247H119.503M51.7528 -287.247V-219.497M119.503 -287.247H187.254M119.503 -287.247V-219.497M187.254 -287.247H255.004M187.254 -287.247V-219.497M255.004 -287.247H322.755M255.004 -287.247V-219.497M322.755 -287.247H390.505M322.755 -287.247V-219.497M390.505 -287.247H458.256M390.505 -287.247V-219.497M458.256 -287.247H526.007M458.256 -287.247V-219.497M526.007 -287.247H593.757M526.007 -287.247V-219.497M593.757 -287.247H661.508M593.757 -287.247V-219.497M661.508 -287.247H729.258M661.508 -287.247V-219.497M729.258 -287.247H797.009M729.258 -287.247V-219.497M797.009 -287.247H864.759M797.009 -287.247V-219.497M864.759 -287.247H932.51M864.759 -287.247V-219.497M932.51 -287.247H1000.26M932.51 -287.247V-219.497M1000.26 -287.247V-219.497M-219.249 -219.497H-287M-219.249 -219.497H-151.499M-219.249 -219.497V-151.746M-287 -219.497V-151.746M-151.499 -219.497H-83.7481M-151.499 -219.497V-151.746M-83.7481 -219.497H-15.9977M-83.7481 -219.497V-151.746M-15.9977 -219.497H51.7528M-15.9977 -219.497V-151.746M51.7528 -219.497H119.503M51.7528 -219.497V-151.746M119.503 -219.497H187.254M119.503 -219.497V-151.746M187.254 -219.497H255.004M187.254 -219.497V-151.746M255.004 -219.497H322.755M255.004 -219.497V-151.746M322.755 -219.497H390.505M322.755 -219.497V-151.746M390.505 -219.497H458.256M390.505 -219.497V-151.746M458.256 -219.497H526.007M458.256 -219.497V-151.746M526.007 -219.497H593.757M526.007 -219.497V-151.746M593.757 -219.497H661.508M593.757 -219.497V-151.746M661.508 -219.497H729.258M661.508 -219.497V-151.746M729.258 -219.497H797.009M729.258 -219.497V-151.746M797.009 -219.497H864.759M797.009 -219.497V-151.746M864.759 -219.497H932.51M864.759 -219.497V-151.746M932.51 -219.497H1000.26M932.51 -219.497V-151.746M1000.26 -219.497V-151.746M-219.249 -151.746H-287M-219.249 -151.746H-151.499M-219.249 -151.746V-83.9956M-287 -151.746V-83.9956M-151.499 -151.746H-83.7481M-151.499 -151.746V-83.9956M-83.7481 -151.746H-15.9977M-83.7481 -151.746V-83.9956M-15.9977 -151.746H51.7528M-15.9977 -151.746V-83.9956M51.7528 -151.746H119.503M51.7528 -151.746V-83.9956M119.503 -151.746H187.254M119.503 -151.746V-83.9956M187.254 -151.746H255.004M187.254 -151.746V-83.9956M255.004 -151.746H322.755M255.004 -151.746V-83.9956M322.755 -151.746H390.505M322.755 -151.746V-83.9956M390.505 -151.746H458.256M390.505 -151.746V-83.9956M458.256 -151.746H526.007M458.256 -151.746V-83.9956M526.007 -151.746H593.757M526.007 -151.746V-83.9956M593.757 -151.746H661.508M593.757 -151.746V-83.9956M661.508 -151.746H729.258M661.508 -151.746V-83.9956M729.258 -151.746H797.009M729.258 -151.746V-83.9956M797.009 -151.746H864.759M797.009 -151.746V-83.9956M864.759 -151.746H932.51M864.759 -151.746V-83.9956M932.51 -151.746H1000.26M932.51 -151.746V-83.9956M1000.26 -151.746V-83.9956M-219.249 -83.9956H-287M-219.249 -83.9956H-151.499M-219.249 -83.9956V-16.245M-287 -83.9956V-16.245M-151.499 -83.9956H-83.7481M-151.499 -83.9956V-16.245M-83.7481 -83.9956H-15.9977M-83.7481 -83.9956V-16.245M-15.9977 -83.9956H51.7528M-15.9977 -83.9956V-16.245M51.7528 -83.9956H119.503M51.7528 -83.9956V-16.245M119.503 -83.9956H187.254M119.503 -83.9956V-16.245M187.254 -83.9956H255.004M187.254 -83.9956V-16.245M255.004 -83.9956H322.755M255.004 -83.9956V-16.245M322.755 -83.9956H390.505M322.755 -83.9956V-16.245M390.505 -83.9956H458.256M390.505 -83.9956V-16.245M458.256 -83.9956H526.007M458.256 -83.9956V-16.245M526.007 -83.9956H593.757M526.007 -83.9956V-16.245M593.757 -83.9956H661.508M593.757 -83.9956V-16.245M661.508 -83.9956H729.258M661.508 -83.9956V-16.245M729.258 -83.9956H797.009M729.258 -83.9956V-16.245M797.009 -83.9956H864.759M797.009 -83.9956V-16.245M864.759 -83.9956H932.51M864.759 -83.9956V-16.245M932.51 -83.9956H1000.26M932.51 -83.9956V-16.245M1000.26 -83.9956V-16.245M-219.249 -16.245H-287M-219.249 -16.245H-151.499M-219.249 -16.245V51.5056M-287 -16.245V51.5056M-151.499 -16.245H-83.7481M-151.499 -16.245V51.5056M-83.7481 -16.245H-15.9977M-83.7481 -16.245V51.5056M-15.9977 -16.245H51.7528M-15.9977 -16.245V51.5056M51.7528 -16.245H119.503M51.7528 -16.245V51.5056M119.503 -16.245H187.254M119.503 -16.245V51.5056M187.254 -16.245H255.004M187.254 -16.245V51.5056M255.004 -16.245H322.755M255.004 -16.245V51.5056M322.755 -16.245H390.505M322.755 -16.245V51.5056M390.505 -16.245H458.256M390.505 -16.245V51.5056M458.256 -16.245H526.007M458.256 -16.245V51.5056M526.007 -16.245H593.757M526.007 -16.245V51.5056M593.757 -16.245H661.508M593.757 -16.245V51.5056M661.508 -16.245H729.258M661.508 -16.245V51.5056M729.258 -16.245H797.009M729.258 -16.245V51.5056M797.009 -16.245H864.759M797.009 -16.245V51.5056M864.759 -16.245H932.51M864.759 -16.245V51.5056M932.51 -16.245H1000.26M932.51 -16.245V51.5056M1000.26 -16.245V51.5056M-219.249 51.5056H-287M-219.249 51.5056H-151.499M-219.249 51.5056V119.256M-287 51.5056V119.256M-151.499 51.5056H-83.7481M-151.499 51.5056V119.256M-83.7481 51.5056H-15.9977M-83.7481 51.5056V119.256M-15.9977 51.5056H51.7528M-15.9977 51.5056V119.256M51.7528 51.5056H119.503M51.7528 51.5056V119.256M119.503 51.5056H187.254M119.503 51.5056V119.256M187.254 51.5056H255.004M187.254 51.5056V119.256M255.004 51.5056H322.755M255.004 51.5056V119.256M322.755 51.5056H390.505M322.755 51.5056V119.256M390.505 51.5056H458.256M390.505 51.5056V119.256M458.256 51.5056H526.007M458.256 51.5056V119.256M526.007 51.5056H593.757M526.007 51.5056V119.256M593.757 51.5056H661.508M593.757 51.5056V119.256M661.508 51.5056H729.258M661.508 51.5056V119.256M729.258 51.5056H797.009M729.258 51.5056V119.256M797.009 51.5056H864.759M797.009 51.5056V119.256M864.759 51.5056H932.51M864.759 51.5056V119.256M932.51 51.5056H1000.26M932.51 51.5056V119.256M1000.26 51.5056V119.256M-219.249 119.256H-287M-219.249 119.256H-151.499M-219.249 119.256V187.006M-287 119.256V187.006M-151.499 119.256H-83.7481M-151.499 119.256V187.006M-83.7481 119.256H-15.9977M-83.7481 119.256V187.006M-15.9977 119.256H51.7528M-15.9977 119.256V187.006M51.7528 119.256H119.503M51.7528 119.256V187.006M119.503 119.256H187.254M119.503 119.256V187.006M187.254 119.256H255.004M187.254 119.256V187.006M255.004 119.256H322.755M255.004 119.256V187.006M322.755 119.256H390.505M322.755 119.256V187.006M390.505 119.256H458.256M390.505 119.256V187.006M458.256 119.256H526.007M458.256 119.256V187.006M526.007 119.256H593.757M526.007 119.256V187.006M593.757 119.256H661.508M593.757 119.256V187.006M661.508 119.256H729.258M661.508 119.256V187.006M729.258 119.256H797.009M729.258 119.256V187.006M797.009 119.256H864.759M797.009 119.256V187.006M864.759 119.256H932.51M864.759 119.256V187.006M932.51 119.256H1000.26M932.51 119.256V187.006M1000.26 119.256V187.006M-219.249 187.006H-287M-219.249 187.006H-151.499M-219.249 187.006V254.757M-287 187.006V254.757M-151.499 187.006H-83.7481M-151.499 187.006V254.757M-83.7481 187.006H-15.9977M-83.7481 187.006V254.757M-15.9977 187.006H51.7528M-15.9977 187.006V254.757M51.7528 187.006H119.503M51.7528 187.006V254.757M119.503 187.006H187.254M119.503 187.006V254.757M187.254 187.006H255.004M187.254 187.006V254.757M255.004 187.006H322.755M255.004 187.006V254.757M322.755 187.006H390.505M322.755 187.006V254.757M390.505 187.006H458.256M390.505 187.006V254.757M458.256 187.006H526.007M458.256 187.006V254.757M526.007 187.006H593.757M526.007 187.006V254.757M593.757 187.006H661.508M593.757 187.006V254.757M661.508 187.006H729.258M661.508 187.006V254.757M729.258 187.006H797.009M729.258 187.006V254.757M797.009 187.006H864.759M797.009 187.006V254.757M864.759 187.006H932.51M864.759 187.006V254.757M932.51 187.006H1000.26M932.51 187.006V254.757M1000.26 187.006V254.757M-219.249 254.757H-287M-219.249 254.757H-151.499M-219.249 254.757V322.508M-287 254.757V322.508M-151.499 254.757H-83.7481M-151.499 254.757V322.508M-83.7481 254.757H-15.9977M-83.7481 254.757V322.508M-15.9977 254.757H51.7528M-15.9977 254.757V322.508M51.7528 254.757H119.503M51.7528 254.757V322.508M119.503 254.757H187.254M119.503 254.757V322.508M187.254 254.757H255.004M187.254 254.757V322.508M255.004 254.757H322.755M255.004 254.757V322.508M322.755 254.757H390.505M322.755 254.757V322.508M390.505 254.757H458.256M390.505 254.757V322.508M458.256 254.757H526.007M458.256 254.757V322.508M526.007 254.757H593.757M526.007 254.757V322.508M593.757 254.757H661.508M593.757 254.757V322.508M661.508 254.757H729.258M661.508 254.757V322.508M729.258 254.757H797.009M729.258 254.757V322.508M797.009 254.757H864.759M797.009 254.757V322.508M864.759 254.757H932.51M864.759 254.757V322.508M932.51 254.757H1000.26M932.51 254.757V322.508M1000.26 254.757V322.508M-219.249 322.508H-287M-219.249 322.508H-151.499M-219.249 322.508V390.258M-287 322.508V390.258M-151.499 322.508H-83.7481M-151.499 322.508V390.258M-83.7481 322.508H-15.9977M-83.7481 322.508V390.258M-15.9977 322.508H51.7528M-15.9977 322.508V390.258M51.7528 322.508H119.503M51.7528 322.508V390.258M119.503 322.508H187.254M119.503 322.508V390.258M187.254 322.508H255.004M187.254 322.508V390.258M255.004 322.508H322.755M255.004 322.508V390.258M322.755 322.508H390.505M322.755 322.508V390.258M390.505 322.508H458.256M390.505 322.508V390.258M458.256 322.508H526.007M458.256 322.508V390.258M526.007 322.508H593.757M526.007 322.508V390.258M593.757 322.508H661.508M593.757 322.508V390.258M661.508 322.508H729.258M661.508 322.508V390.258M729.258 322.508H797.009M729.258 322.508V390.258M797.009 322.508H864.759M797.009 322.508V390.258M864.759 322.508H932.51M864.759 322.508V390.258M932.51 322.508H1000.26M932.51 322.508V390.258M1000.26 322.508V390.258M-219.249 390.258H-287M-219.249 390.258H-151.499M-219.249 390.258V458.009M-287 390.258V458.009M-151.499 390.258H-83.7481M-151.499 390.258V458.009M-83.7481 390.258H-15.9977M-83.7481 390.258V458.009M-15.9977 390.258H51.7528M-15.9977 390.258V458.009M51.7528 390.258H119.503M51.7528 390.258V458.009M119.503 390.258H187.254M119.503 390.258V458.009M187.254 390.258H255.004M187.254 390.258V458.009M255.004 390.258H322.755M255.004 390.258V458.009M322.755 390.258H390.505M322.755 390.258V458.009M390.505 390.258H458.256M390.505 390.258V458.009M458.256 390.258H526.007M458.256 390.258V458.009M526.007 390.258H593.757M526.007 390.258V458.009M593.757 390.258H661.508M593.757 390.258V458.009M661.508 390.258H729.258M661.508 390.258V458.009M729.258 390.258H797.009M729.258 390.258V458.009M797.009 390.258H864.759M797.009 390.258V458.009M864.759 390.258H932.51M864.759 390.258V458.009M932.51 390.258H1000.26M932.51 390.258V458.009M1000.26 390.258V458.009M-219.249 458.009H-287M-219.249 458.009H-151.499M-219.249 458.009V525.759M-287 458.009V525.759M-151.499 458.009H-83.7481M-151.499 458.009V525.759M-83.7481 458.009H-15.9977M-83.7481 458.009V525.759M-15.9977 458.009H51.7528M-15.9977 458.009V525.759M51.7528 458.009H119.503M51.7528 458.009V525.759M119.503 458.009H187.254M119.503 458.009V525.759M187.254 458.009H255.004M187.254 458.009V525.759M255.004 458.009H322.755M255.004 458.009V525.759M322.755 458.009H390.505M322.755 458.009V525.759M390.505 458.009H458.256M390.505 458.009V525.759M458.256 458.009H526.007M458.256 458.009V525.759M526.007 458.009H593.757M526.007 458.009V525.759M593.757 458.009H661.508M593.757 458.009V525.759M661.508 458.009H729.258M661.508 458.009V525.759M729.258 458.009H797.009M729.258 458.009V525.759M797.009 458.009H864.759M797.009 458.009V525.759M864.759 458.009H932.51M864.759 458.009V525.759M932.51 458.009H1000.26M932.51 458.009V525.759M1000.26 458.009V525.759M-219.249 525.759H-287M-219.249 525.759H-151.499M-219.249 525.759V593.51M-287 525.759V593.51M-151.499 525.759H-83.7481M-151.499 525.759V593.51M-83.7481 525.759H-15.9977M-83.7481 525.759V593.51M-15.9977 525.759H51.7528M-15.9977 525.759V593.51M51.7528 525.759H119.503M51.7528 525.759V593.51M119.503 525.759H187.254M119.503 525.759V593.51M187.254 525.759H255.004M187.254 525.759V593.51M255.004 525.759H322.755M255.004 525.759V593.51M322.755 525.759H390.505M322.755 525.759V593.51M390.505 525.759H458.256M390.505 525.759V593.51M458.256 525.759H526.007M458.256 525.759V593.51M526.007 525.759H593.757M526.007 525.759V593.51M593.757 525.759H661.508M593.757 525.759V593.51M661.508 525.759H729.258M661.508 525.759V593.51M729.258 525.759H797.009M729.258 525.759V593.51M797.009 525.759H864.759M797.009 525.759V593.51M864.759 525.759H932.51M864.759 525.759V593.51M932.51 525.759H1000.26M932.51 525.759V593.51M1000.26 525.759V593.51M-219.249 593.51H-287M-219.249 593.51H-151.499M-219.249 593.51V661.26M-287 593.51V661.26H-219.249M-151.499 593.51H-83.7481M-151.499 593.51V661.26M-83.7481 593.51H-15.9977M-83.7481 593.51V661.26M-15.9977 593.51H51.7528M-15.9977 593.51V661.26M51.7528 593.51H119.503M51.7528 593.51V661.26M119.503 593.51H187.254M119.503 593.51V661.26M187.254 593.51H255.004M187.254 593.51V661.26M255.004 593.51H322.755M255.004 593.51V661.26M322.755 593.51H390.505M322.755 593.51V661.26M390.505 593.51H458.256M390.505 593.51V661.26M458.256 593.51H526.007M458.256 593.51V661.26M526.007 593.51H593.757M526.007 593.51V661.26M593.757 593.51H661.508M593.757 593.51V661.26M661.508 593.51H729.258M661.508 593.51V661.26M729.258 593.51H797.009M729.258 593.51V661.26M797.009 593.51H864.759M797.009 593.51V661.26M864.759 593.51H932.51M864.759 593.51V661.26M932.51 593.51H1000.26M932.51 593.51V661.26M1000.26 593.51V661.26H932.51M-219.249 661.26H-151.499M-151.499 661.26H-83.7481M-83.7481 661.26H-15.9977M-15.9977 661.26H51.7528M51.7528 661.26H119.503M119.503 661.26H187.254M187.254 661.26H255.004M255.004 661.26H322.755M322.755 661.26H390.505M390.505 661.26H458.256M458.256 661.26H526.007M526.007 661.26H593.757M593.757 661.26H661.508M661.508 661.26H729.258M729.258 661.26H797.009M797.009 661.26H864.759M864.759 661.26H932.51" stroke="url(#paint1_radial_341_866)" stroke-opacity="0.1" stroke-width="0.762194"/>
<path d="M1080.75 75H1013V142.751M1080.75 75V142.751M1080.75 75L1148.5 75.0002M1080.75 142.751H1013M1080.75 142.751L1148.5 142.751M1080.75 142.751L1080.75 210.501M1013 142.751L1013 210.501M1148.5 75.0002V142.751M1148.5 75.0002H1216.25M1148.5 142.751H1216.25M1148.5 142.751V210.501M1216.25 75.0002V142.751M1216.25 75.0002H1284M1216.25 142.751H1284M1216.25 142.751V210.501M1284 75.0002V142.751M1284 75.0002H1351.75M1284 142.751H1351.75M1284 142.751V210.501M1351.75 75.0002V142.751M1351.75 75.0002H1419.5M1351.75 142.751H1419.5M1351.75 142.751V210.501M1419.5 75.0002V142.751M1419.5 75.0002H1487.25M1419.5 142.751H1487.25M1419.5 142.751V210.501M1487.25 75.0002V142.751M1487.25 75.0002H1555M1487.25 142.751H1555M1487.25 142.751V210.501M1555 75.0002V142.751M1555 75.0002H1622.75M1555 142.751H1622.75M1555 142.751V210.501M1622.75 75.0002V142.751M1622.75 75.0002H1690.51M1622.75 142.751H1690.51M1622.75 142.751V210.501M1690.51 75.0002V142.751M1690.51 75.0002H1758.26M1690.51 142.751H1758.26M1690.51 142.751V210.501M1758.26 75.0002V142.751M1758.26 75.0002H1826.01M1758.26 142.751H1826.01M1758.26 142.751V210.501M1826.01 75.0002V142.751M1826.01 75.0002H1893.76M1826.01 142.751H1893.76M1826.01 142.751V210.501M1893.76 75.0002V142.751M1893.76 75.0002H1961.51M1893.76 142.751H1961.51M1893.76 142.751V210.501M1961.51 75.0002V142.751M1961.51 75.0002H2029.26M1961.51 142.751H2029.26M1961.51 142.751V210.501M2029.26 75.0002V142.751M2029.26 75.0002H2097.01M2029.26 142.751H2097.01M2029.26 142.751V210.501M2097.01 75.0002V142.751M2097.01 75.0002H2164.76M2097.01 142.751H2164.76M2097.01 142.751V210.501M2164.76 75.0002V142.751M2164.76 75.0002H2232.51M2164.76 142.751H2232.51M2164.76 142.751V210.501M2232.51 75.0002V142.751M2232.51 75.0002H2300.26V142.751M2232.51 142.751H2300.26M2232.51 142.751V210.501M2300.26 142.751V210.501M1080.75 210.501H1013M1080.75 210.501H1148.5M1080.75 210.501V278.252M1013 210.501V278.252M1148.5 210.501H1216.25M1148.5 210.501V278.252M1216.25 210.501H1284M1216.25 210.501V278.252M1284 210.501H1351.75M1284 210.501V278.252M1351.75 210.501H1419.5M1351.75 210.501V278.252M1419.5 210.501H1487.25M1419.5 210.501V278.252M1487.25 210.501H1555M1487.25 210.501V278.252M1555 210.501H1622.75M1555 210.501V278.252M1622.75 210.501H1690.51M1622.75 210.501V278.252M1690.51 210.501H1758.26M1690.51 210.501V278.252M1758.26 210.501H1826.01M1758.26 210.501V278.252M1826.01 210.501H1893.76M1826.01 210.501V278.252M1893.76 210.501H1961.51M1893.76 210.501V278.252M1961.51 210.501H2029.26M1961.51 210.501V278.252M2029.26 210.501H2097.01M2029.26 210.501V278.252M2097.01 210.501H2164.76M2097.01 210.501V278.252M2164.76 210.501H2232.51M2164.76 210.501V278.252M2232.51 210.501H2300.26M2232.51 210.501V278.252M2300.26 210.501V278.252M1080.75 278.252H1013M1080.75 278.252H1148.5M1080.75 278.252V346.002M1013 278.252V346.002M1148.5 278.252H1216.25M1148.5 278.252V346.002M1216.25 278.252H1284M1216.25 278.252V346.002M1284 278.252H1351.75M1284 278.252V346.002M1351.75 278.252H1419.5M1351.75 278.252V346.002M1419.5 278.252H1487.25M1419.5 278.252V346.002M1487.25 278.252H1555M1487.25 278.252V346.002M1555 278.252H1622.75M1555 278.252V346.002M1622.75 278.252H1690.51M1622.75 278.252V346.002M1690.51 278.252H1758.26M1690.51 278.252V346.002M1758.26 278.252H1826.01M1758.26 278.252V346.002M1826.01 278.252H1893.76M1826.01 278.252V346.002M1893.76 278.252H1961.51M1893.76 278.252V346.002M1961.51 278.252H2029.26M1961.51 278.252V346.002M2029.26 278.252H2097.01M2029.26 278.252V346.002M2097.01 278.252H2164.76M2097.01 278.252V346.002M2164.76 278.252H2232.51M2164.76 278.252V346.002M2232.51 278.252H2300.26M2232.51 278.252V346.002M2300.26 278.252V346.002M1080.75 346.002H1013M1080.75 346.002H1148.5M1080.75 346.002V413.753M1013 346.002V413.753M1148.5 346.002H1216.25M1148.5 346.002V413.753M1216.25 346.002H1284M1216.25 346.002V413.753M1284 346.002H1351.75M1284 346.002V413.753M1351.75 346.002H1419.5M1351.75 346.002V413.753M1419.5 346.002H1487.25M1419.5 346.002V413.753M1487.25 346.002H1555M1487.25 346.002V413.753M1555 346.002H1622.75M1555 346.002V413.753M1622.75 346.002H1690.51M1622.75 346.002V413.753M1690.51 346.002H1758.26M1690.51 346.002V413.753M1758.26 346.002H1826.01M1758.26 346.002V413.753M1826.01 346.002H1893.76M1826.01 346.002V413.753M1893.76 346.002H1961.51M1893.76 346.002V413.753M1961.51 346.002H2029.26M1961.51 346.002V413.753M2029.26 346.002H2097.01M2029.26 346.002V413.753M2097.01 346.002H2164.76M2097.01 346.002V413.753M2164.76 346.002H2232.51M2164.76 346.002V413.753M2232.51 346.002H2300.26M2232.51 346.002V413.753M2300.26 346.002V413.753M1080.75 413.753H1013M1080.75 413.753H1148.5M1080.75 413.753V481.503M1013 413.753V481.503M1148.5 413.753H1216.25M1148.5 413.753V481.503M1216.25 413.753H1284M1216.25 413.753V481.503M1284 413.753H1351.75M1284 413.753V481.503M1351.75 413.753H1419.5M1351.75 413.753V481.503M1419.5 413.753H1487.25M1419.5 413.753V481.503M1487.25 413.753H1555M1487.25 413.753V481.503M1555 413.753H1622.75M1555 413.753V481.503M1622.75 413.753H1690.51M1622.75 413.753V481.503M1690.51 413.753H1758.26M1690.51 413.753V481.503M1758.26 413.753H1826.01M1758.26 413.753V481.503M1826.01 413.753H1893.76M1826.01 413.753V481.503M1893.76 413.753H1961.51M1893.76 413.753V481.503M1961.51 413.753H2029.26M1961.51 413.753V481.503M2029.26 413.753H2097.01M2029.26 413.753V481.503M2097.01 413.753H2164.76M2097.01 413.753V481.503M2164.76 413.753H2232.51M2164.76 413.753V481.503M2232.51 413.753H2300.26M2232.51 413.753V481.503M2300.26 413.753V481.503M1080.75 481.503H1013M1080.75 481.503H1148.5M1080.75 481.503V549.254M1013 481.503V549.254M1148.5 481.503H1216.25M1148.5 481.503V549.254M1216.25 481.503H1284M1216.25 481.503V549.254M1284 481.503H1351.75M1284 481.503V549.254M1351.75 481.503H1419.5M1351.75 481.503V549.254M1419.5 481.503H1487.25M1419.5 481.503V549.254M1487.25 481.503H1555M1487.25 481.503V549.254M1555 481.503H1622.75M1555 481.503V549.254M1622.75 481.503H1690.51M1622.75 481.503V549.254M1690.51 481.503H1758.26M1690.51 481.503V549.254M1758.26 481.503H1826.01M1758.26 481.503V549.254M1826.01 481.503H1893.76M1826.01 481.503V549.254M1893.76 481.503H1961.51M1893.76 481.503V549.254M1961.51 481.503H2029.26M1961.51 481.503V549.254M2029.26 481.503H2097.01M2029.26 481.503V549.254M2097.01 481.503H2164.76M2097.01 481.503V549.254M2164.76 481.503H2232.51M2164.76 481.503V549.254M2232.51 481.503H2300.26M2232.51 481.503V549.254M2300.26 481.503V549.254M1080.75 549.254H1013M1080.75 549.254H1148.5M1080.75 549.254V617.004M1013 549.254V617.004M1148.5 549.254H1216.25M1148.5 549.254V617.004M1216.25 549.254H1284M1216.25 549.254V617.004M1284 549.254H1351.75M1284 549.254V617.004M1351.75 549.254H1419.5M1351.75 549.254V617.004M1419.5 549.254H1487.25M1419.5 549.254V617.004M1487.25 549.254H1555M1487.25 549.254V617.004M1555 549.254H1622.75M1555 549.254V617.004M1622.75 549.254H1690.51M1622.75 549.254V617.004M1690.51 549.254H1758.26M1690.51 549.254V617.004M1758.26 549.254H1826.01M1758.26 549.254V617.004M1826.01 549.254H1893.76M1826.01 549.254V617.004M1893.76 549.254H1961.51M1893.76 549.254V617.004M1961.51 549.254H2029.26M1961.51 549.254V617.004M2029.26 549.254H2097.01M2029.26 549.254V617.004M2097.01 549.254H2164.76M2097.01 549.254V617.004M2164.76 549.254H2232.51M2164.76 549.254V617.004M2232.51 549.254H2300.26M2232.51 549.254V617.004M2300.26 549.254V617.004M1080.75 617.004H1013M1080.75 617.004H1148.5M1080.75 617.004V684.755M1013 617.004V684.755M1148.5 617.004H1216.25M1148.5 617.004V684.755M1216.25 617.004H1284M1216.25 617.004V684.755M1284 617.004H1351.75M1284 617.004V684.755M1351.75 617.004H1419.5M1351.75 617.004V684.755M1419.5 617.004H1487.25M1419.5 617.004V684.755M1487.25 617.004H1555M1487.25 617.004V684.755M1555 617.004H1622.75M1555 617.004V684.755M1622.75 617.004H1690.51M1622.75 617.004V684.755M1690.51 617.004H1758.26M1690.51 617.004V684.755M1758.26 617.004H1826.01M1758.26 617.004V684.755M1826.01 617.004H1893.76M1826.01 617.004V684.755M1893.76 617.004H1961.51M1893.76 617.004V684.755M1961.51 617.004H2029.26M1961.51 617.004V684.755M2029.26 617.004H2097.01M2029.26 617.004V684.755M2097.01 617.004H2164.76M2097.01 617.004V684.755M2164.76 617.004H2232.51M2164.76 617.004V684.755M2232.51 617.004H2300.26M2232.51 617.004V684.755M2300.26 617.004V684.755M1080.75 684.755H1013M1080.75 684.755H1148.5M1080.75 684.755V752.506M1013 684.755V752.506M1148.5 684.755H1216.25M1148.5 684.755V752.506M1216.25 684.755H1284M1216.25 684.755V752.506M1284 684.755H1351.75M1284 684.755V752.506M1351.75 684.755H1419.5M1351.75 684.755V752.506M1419.5 684.755H1487.25M1419.5 684.755V752.506M1487.25 684.755H1555M1487.25 684.755V752.506M1555 684.755H1622.75M1555 684.755V752.506M1622.75 684.755H1690.51M1622.75 684.755V752.506M1690.51 684.755H1758.26M1690.51 684.755V752.506M1758.26 684.755H1826.01M1758.26 684.755V752.506M1826.01 684.755H1893.76M1826.01 684.755V752.506M1893.76 684.755H1961.51M1893.76 684.755V752.506M1961.51 684.755H2029.26M1961.51 684.755V752.506M2029.26 684.755H2097.01M2029.26 684.755V752.506M2097.01 684.755H2164.76M2097.01 684.755V752.506M2164.76 684.755H2232.51M2164.76 684.755V752.506M2232.51 684.755H2300.26M2232.51 684.755V752.506M2300.26 684.755V752.506M1080.75 752.506H1013M1080.75 752.506H1148.5M1080.75 752.506V820.256M1013 752.506V820.256M1148.5 752.506H1216.25M1148.5 752.506V820.256M1216.25 752.506H1284M1216.25 752.506V820.256M1284 752.506H1351.75M1284 752.506V820.256M1351.75 752.506H1419.5M1351.75 752.506V820.256M1419.5 752.506H1487.25M1419.5 752.506V820.256M1487.25 752.506H1555M1487.25 752.506V820.256M1555 752.506H1622.75M1555 752.506V820.256M1622.75 752.506H1690.51M1622.75 752.506V820.256M1690.51 752.506H1758.26M1690.51 752.506V820.256M1758.26 752.506H1826.01M1758.26 752.506V820.256M1826.01 752.506H1893.76M1826.01 752.506V820.256M1893.76 752.506H1961.51M1893.76 752.506V820.256M1961.51 752.506H2029.26M1961.51 752.506V820.256M2029.26 752.506H2097.01M2029.26 752.506V820.256M2097.01 752.506H2164.76M2097.01 752.506V820.256M2164.76 752.506H2232.51M2164.76 752.506V820.256M2232.51 752.506H2300.26M2232.51 752.506V820.256M2300.26 752.506V820.256M1080.75 820.256H1013M1080.75 820.256H1148.5M1080.75 820.256V888.006M1013 820.256V888.006M1148.5 820.256H1216.25M1148.5 820.256V888.006M1216.25 820.256H1284M1216.25 820.256V888.006M1284 820.256H1351.75M1284 820.256V888.006M1351.75 820.256H1419.5M1351.75 820.256V888.006M1419.5 820.256H1487.25M1419.5 820.256V888.006M1487.25 820.256H1555M1487.25 820.256V888.006M1555 820.256H1622.75M1555 820.256V888.006M1622.75 820.256H1690.51M1622.75 820.256V888.006M1690.51 820.256H1758.26M1690.51 820.256V888.006M1758.26 820.256H1826.01M1758.26 820.256V888.006M1826.01 820.256H1893.76M1826.01 820.256V888.006M1893.76 820.256H1961.51M1893.76 820.256V888.006M1961.51 820.256H2029.26M1961.51 820.256V888.006M2029.26 820.256H2097.01M2029.26 820.256V888.006M2097.01 820.256H2164.76M2097.01 820.256V888.006M2164.76 820.256H2232.51M2164.76 820.256V888.006M2232.51 820.256H2300.26M2232.51 820.256V888.006M2300.26 820.256V888.006M1080.75 888.006H1013M1080.75 888.006H1148.5M1080.75 888.006V955.757M1013 888.006V955.757M1148.5 888.006H1216.25M1148.5 888.006V955.757M1216.25 888.006H1284M1216.25 888.006V955.757M1284 888.006H1351.75M1284 888.006V955.757M1351.75 888.006H1419.5M1351.75 888.006V955.757M1419.5 888.006H1487.25M1419.5 888.006V955.757M1487.25 888.006H1555M1487.25 888.006V955.757M1555 888.006H1622.75M1555 888.006V955.757M1622.75 888.006H1690.51M1622.75 888.006V955.757M1690.51 888.006H1758.26M1690.51 888.006V955.757M1758.26 888.006H1826.01M1758.26 888.006V955.757M1826.01 888.006H1893.76M1826.01 888.006V955.757M1893.76 888.006H1961.51M1893.76 888.006V955.757M1961.51 888.006H2029.26M1961.51 888.006V955.757M2029.26 888.006H2097.01M2029.26 888.006V955.757M2097.01 888.006H2164.76M2097.01 888.006V955.757M2164.76 888.006H2232.51M2164.76 888.006V955.757M2232.51 888.006H2300.26M2232.51 888.006V955.757M2300.26 888.006V955.757M1080.75 955.757H1013M1080.75 955.757H1148.5M1080.75 955.757V1023.51M1013 955.757V1023.51M1148.5 955.757H1216.25M1148.5 955.757V1023.51M1216.25 955.757H1284M1216.25 955.757V1023.51M1284 955.757H1351.75M1284 955.757V1023.51M1351.75 955.757H1419.5M1351.75 955.757V1023.51M1419.5 955.757H1487.25M1419.5 955.757V1023.51M1487.25 955.757H1555M1487.25 955.757V1023.51M1555 955.757H1622.75M1555 955.757V1023.51M1622.75 955.757H1690.51M1622.75 955.757V1023.51M1690.51 955.757H1758.26M1690.51 955.757V1023.51M1758.26 955.757H1826.01M1758.26 955.757V1023.51M1826.01 955.757H1893.76M1826.01 955.757V1023.51M1893.76 955.757H1961.51M1893.76 955.757V1023.51M1961.51 955.757H2029.26M1961.51 955.757V1023.51M2029.26 955.757H2097.01M2029.26 955.757V1023.51M2097.01 955.757H2164.76M2097.01 955.757V1023.51M2164.76 955.757H2232.51M2164.76 955.757V1023.51M2232.51 955.757H2300.26M2232.51 955.757V1023.51M2300.26 955.757V1023.51M1080.75 1023.51H1013M1080.75 1023.51H1148.5M1080.75 1023.51V1091.26M1013 1023.51V1091.26M1148.5 1023.51H1216.25M1148.5 1023.51V1091.26M1216.25 1023.51H1284M1216.25 1023.51V1091.26M1284 1023.51H1351.75M1284 1023.51V1091.26M1351.75 1023.51H1419.5M1351.75 1023.51V1091.26M1419.5 1023.51H1487.25M1419.5 1023.51V1091.26M1487.25 1023.51H1555M1487.25 1023.51V1091.26M1555 1023.51H1622.75M1555 1023.51V1091.26M1622.75 1023.51H1690.51M1622.75 1023.51V1091.26M1690.51 1023.51H1758.26M1690.51 1023.51V1091.26M1758.26 1023.51H1826.01M1758.26 1023.51V1091.26M1826.01 1023.51H1893.76M1826.01 1023.51V1091.26M1893.76 1023.51H1961.51M1893.76 1023.51V1091.26M1961.51 1023.51H2029.26M1961.51 1023.51V1091.26M2029.26 1023.51H2097.01M2029.26 1023.51V1091.26M2097.01 1023.51H2164.76M2097.01 1023.51V1091.26M2164.76 1023.51H2232.51M2164.76 1023.51V1091.26M2232.51 1023.51H2300.26M2232.51 1023.51V1091.26M2300.26 1023.51V1091.26M1080.75 1091.26H1013M1080.75 1091.26H1148.5M1080.75 1091.26V1159.01M1013 1091.26V1159.01M1148.5 1091.26H1216.25M1148.5 1091.26V1159.01M1216.25 1091.26H1284M1216.25 1091.26V1159.01M1284 1091.26H1351.75M1284 1091.26V1159.01M1351.75 1091.26H1419.5M1351.75 1091.26V1159.01M1419.5 1091.26H1487.25M1419.5 1091.26V1159.01M1487.25 1091.26H1555M1487.25 1091.26V1159.01M1555 1091.26H1622.75M1555 1091.26V1159.01M1622.75 1091.26H1690.51M1622.75 1091.26V1159.01M1690.51 1091.26H1758.26M1690.51 1091.26V1159.01M1758.26 1091.26H1826.01M1758.26 1091.26V1159.01M1826.01 1091.26H1893.76M1826.01 1091.26V1159.01M1893.76 1091.26H1961.51M1893.76 1091.26V1159.01M1961.51 1091.26H2029.26M1961.51 1091.26V1159.01M2029.26 1091.26H2097.01M2029.26 1091.26V1159.01M2097.01 1091.26H2164.76M2097.01 1091.26V1159.01M2164.76 1091.26H2232.51M2164.76 1091.26V1159.01M2232.51 1091.26H2300.26M2232.51 1091.26V1159.01M2300.26 1091.26V1159.01M1080.75 1159.01H1013M1080.75 1159.01H1148.5M1080.75 1159.01V1226.76M1013 1159.01V1226.76M1148.5 1159.01H1216.25M1148.5 1159.01V1226.76M1216.25 1159.01H1284M1216.25 1159.01V1226.76M1284 1159.01H1351.75M1284 1159.01V1226.76M1351.75 1159.01H1419.5M1351.75 1159.01V1226.76M1419.5 1159.01H1487.25M1419.5 1159.01V1226.76M1487.25 1159.01H1555M1487.25 1159.01V1226.76M1555 1159.01H1622.75M1555 1159.01V1226.76M1622.75 1159.01H1690.51M1622.75 1159.01V1226.76M1690.51 1159.01H1758.26M1690.51 1159.01V1226.76M1758.26 1159.01H1826.01M1758.26 1159.01V1226.76M1826.01 1159.01H1893.76M1826.01 1159.01V1226.76M1893.76 1159.01H1961.51M1893.76 1159.01V1226.76M1961.51 1159.01H2029.26M1961.51 1159.01V1226.76M2029.26 1159.01H2097.01M2029.26 1159.01V1226.76M2097.01 1159.01H2164.76M2097.01 1159.01V1226.76M2164.76 1159.01H2232.51M2164.76 1159.01V1226.76M2232.51 1159.01H2300.26M2232.51 1159.01V1226.76M2300.26 1159.01V1226.76M1080.75 1226.76H1013M1080.75 1226.76H1148.5M1080.75 1226.76V1294.51M1013 1226.76V1294.51M1148.5 1226.76H1216.25M1148.5 1226.76V1294.51M1216.25 1226.76H1284M1216.25 1226.76V1294.51M1284 1226.76H1351.75M1284 1226.76V1294.51M1351.75 1226.76H1419.5M1351.75 1226.76V1294.51M1419.5 1226.76H1487.25M1419.5 1226.76V1294.51M1487.25 1226.76H1555M1487.25 1226.76V1294.51M1555 1226.76H1622.75M1555 1226.76V1294.51M1622.75 1226.76H1690.51M1622.75 1226.76V1294.51M1690.51 1226.76H1758.26M1690.51 1226.76V1294.51M1758.26 1226.76H1826.01M1758.26 1226.76V1294.51M1826.01 1226.76H1893.76M1826.01 1226.76V1294.51M1893.76 1226.76H1961.51M1893.76 1226.76V1294.51M1961.51 1226.76H2029.26M1961.51 1226.76V1294.51M2029.26 1226.76H2097.01M2029.26 1226.76V1294.51M2097.01 1226.76H2164.76M2097.01 1226.76V1294.51M2164.76 1226.76H2232.51M2164.76 1226.76V1294.51M2232.51 1226.76H2300.26M2232.51 1226.76V1294.51M2300.26 1226.76V1294.51M1080.75 1294.51H1013M1080.75 1294.51H1148.5M1080.75 1294.51V1362.26M1013 1294.51V1362.26H1080.75M1148.5 1294.51H1216.25M1148.5 1294.51V1362.26M1216.25 1294.51H1284M1216.25 1294.51V1362.26M1284 1294.51H1351.75M1284 1294.51V1362.26M1351.75 1294.51H1419.5M1351.75 1294.51V1362.26M1419.5 1294.51H1487.25M1419.5 1294.51V1362.26M1487.25 1294.51H1555M1487.25 1294.51V1362.26M1555 1294.51H1622.75M1555 1294.51V1362.26M1622.75 1294.51H1690.51M1622.75 1294.51V1362.26M1690.51 1294.51H1758.26M1690.51 1294.51V1362.26M1758.26 1294.51H1826.01M1758.26 1294.51V1362.26M1826.01 1294.51H1893.76M1826.01 1294.51V1362.26M1893.76 1294.51H1961.51M1893.76 1294.51V1362.26M1961.51 1294.51H2029.26M1961.51 1294.51V1362.26M2029.26 1294.51H2097.01M2029.26 1294.51V1362.26M2097.01 1294.51H2164.76M2097.01 1294.51V1362.26M2164.76 1294.51H2232.51M2164.76 1294.51V1362.26M2232.51 1294.51H2300.26M2232.51 1294.51V1362.26M2300.26 1294.51V1362.26H2232.51M1080.75 1362.26H1148.5M1148.5 1362.26H1216.25M1216.25 1362.26H1284M1284 1362.26H1351.75M1351.75 1362.26H1419.5M1419.5 1362.26H1487.25M1487.25 1362.26H1555M1555 1362.26H1622.75M1622.75 1362.26H1690.51M1690.51 1362.26H1758.26M1758.26 1362.26H1826.01M1826.01 1362.26H1893.76M1893.76 1362.26H1961.51M1961.51 1362.26H2029.26M2029.26 1362.26H2097.01M2097.01 1362.26H2164.76M2164.76 1362.26H2232.51" stroke="url(#paint2_radial_341_866)" stroke-opacity="0.15" stroke-width="0.762194"/>
<path d="M2261.51 0.391602H2329.26V68.1421M2261.51 0.391602V68.1421M2261.51 0.391602L2193.76 0.391755M2261.51 68.1421H2329.26M2261.51 68.1421L2193.76 68.1423M2261.51 68.1421L2261.51 135.893M2329.26 68.1421L2329.26 135.893M2193.76 0.391755V68.1423M2193.76 0.391755H2126.01M2193.76 68.1423H2126.01M2193.76 68.1423V135.893M2126.01 0.391755V68.1423M2126.01 0.391755H2058.26M2126.01 68.1423H2058.26M2126.01 68.1423V135.893M2058.26 0.391755V68.1423M2058.26 0.391755H1990.51M2058.26 68.1423H1990.51M2058.26 68.1423V135.893M1990.51 0.391755V68.1423M1990.51 0.391755H1922.76M1990.51 68.1423H1922.76M1990.51 68.1423V135.893M1922.76 0.391755V68.1423M1922.76 0.391755H1855.01M1922.76 68.1423H1855.01M1922.76 68.1423V135.893M1855.01 0.391755V68.1423M1855.01 0.391755H1787.26M1855.01 68.1423H1787.26M1855.01 68.1423V135.893M1787.26 0.391755V68.1423M1787.26 0.391755H1719.5M1787.26 68.1423H1719.5M1787.26 68.1423V135.893M1719.5 0.391755V68.1423M1719.5 0.391755H1651.75M1719.5 68.1423H1651.75M1719.5 68.1423V135.893M1651.75 0.391755V68.1423M1651.75 0.391755H1584M1651.75 68.1423H1584M1651.75 68.1423V135.893M1584 0.391755V68.1423M1584 0.391755H1516.25M1584 68.1423H1516.25M1584 68.1423V135.893M1516.25 0.391755V68.1423M1516.25 0.391755H1448.5M1516.25 68.1423H1448.5M1516.25 68.1423V135.893M1448.5 0.391755V68.1423M1448.5 0.391755H1380.75M1448.5 68.1423H1380.75M1448.5 68.1423V135.893M1380.75 0.391755V68.1423M1380.75 0.391755H1313M1380.75 68.1423H1313M1380.75 68.1423V135.893M1313 0.391755V68.1423M1313 0.391755H1245.25M1313 68.1423H1245.25M1313 68.1423V135.893M1245.25 0.391755V68.1423M1245.25 0.391755H1177.5M1245.25 68.1423H1177.5M1245.25 68.1423V135.893M1177.5 0.391755V68.1423M1177.5 0.391755H1109.75M1177.5 68.1423H1109.75M1177.5 68.1423V135.893M1109.75 0.391755V68.1423M1109.75 0.391755H1042V68.1423M1109.75 68.1423H1042M1109.75 68.1423V135.893M1042 68.1423V135.893M2261.51 135.893H2329.26M2261.51 135.893H2193.76M2261.51 135.893V203.643M2329.26 135.893V203.643M2193.76 135.893H2126.01M2193.76 135.893V203.643M2126.01 135.893H2058.26M2126.01 135.893V203.643M2058.26 135.893H1990.51M2058.26 135.893V203.643M1990.51 135.893H1922.76M1990.51 135.893V203.643M1922.76 135.893H1855.01M1922.76 135.893V203.643M1855.01 135.893H1787.26M1855.01 135.893V203.643M1787.26 135.893H1719.5M1787.26 135.893V203.643M1719.5 135.893H1651.75M1719.5 135.893V203.643M1651.75 135.893H1584M1651.75 135.893V203.643M1584 135.893H1516.25M1584 135.893V203.643M1516.25 135.893H1448.5M1516.25 135.893V203.643M1448.5 135.893H1380.75M1448.5 135.893V203.643M1380.75 135.893H1313M1380.75 135.893V203.643M1313 135.893H1245.25M1313 135.893V203.643M1245.25 135.893H1177.5M1245.25 135.893V203.643M1177.5 135.893H1109.75M1177.5 135.893V203.643M1109.75 135.893H1042M1109.75 135.893V203.643M1042 135.893V203.643M2261.51 203.643H2329.26M2261.51 203.643H2193.76M2261.51 203.643V271.394M2329.26 203.643V271.394M2193.76 203.643H2126.01M2193.76 203.643V271.394M2126.01 203.643H2058.26M2126.01 203.643V271.394M2058.26 203.643H1990.51M2058.26 203.643V271.394M1990.51 203.643H1922.76M1990.51 203.643V271.394M1922.76 203.643H1855.01M1922.76 203.643V271.394M1855.01 203.643H1787.26M1855.01 203.643V271.394M1787.26 203.643H1719.5M1787.26 203.643V271.394M1719.5 203.643H1651.75M1719.5 203.643V271.394M1651.75 203.643H1584M1651.75 203.643V271.394M1584 203.643H1516.25M1584 203.643V271.394M1516.25 203.643H1448.5M1516.25 203.643V271.394M1448.5 203.643H1380.75M1448.5 203.643V271.394M1380.75 203.643H1313M1380.75 203.643V271.394M1313 203.643H1245.25M1313 203.643V271.394M1245.25 203.643H1177.5M1245.25 203.643V271.394M1177.5 203.643H1109.75M1177.5 203.643V271.394M1109.75 203.643H1042M1109.75 203.643V271.394M1042 203.643V271.394M2261.51 271.394H2329.26M2261.51 271.394H2193.76M2261.51 271.394V339.145M2329.26 271.394V339.145M2193.76 271.394H2126.01M2193.76 271.394V339.145M2126.01 271.394H2058.26M2126.01 271.394V339.145M2058.26 271.394H1990.51M2058.26 271.394V339.145M1990.51 271.394H1922.76M1990.51 271.394V339.145M1922.76 271.394H1855.01M1922.76 271.394V339.145M1855.01 271.394H1787.26M1855.01 271.394V339.145M1787.26 271.394H1719.5M1787.26 271.394V339.145M1719.5 271.394H1651.75M1719.5 271.394V339.145M1651.75 271.394H1584M1651.75 271.394V339.145M1584 271.394H1516.25M1584 271.394V339.145M1516.25 271.394H1448.5M1516.25 271.394V339.145M1448.5 271.394H1380.75M1448.5 271.394V339.145M1380.75 271.394H1313M1380.75 271.394V339.145M1313 271.394H1245.25M1313 271.394V339.145M1245.25 271.394H1177.5M1245.25 271.394V339.145M1177.5 271.394H1109.75M1177.5 271.394V339.145M1109.75 271.394H1042M1109.75 271.394V339.145M1042 271.394V339.145M2261.51 339.145H2329.26M2261.51 339.145H2193.76M2261.51 339.145V406.895M2329.26 339.145V406.895M2193.76 339.145H2126.01M2193.76 339.145V406.895M2126.01 339.145H2058.26M2126.01 339.145V406.895M2058.26 339.145H1990.51M2058.26 339.145V406.895M1990.51 339.145H1922.76M1990.51 339.145V406.895M1922.76 339.145H1855.01M1922.76 339.145V406.895M1855.01 339.145H1787.26M1855.01 339.145V406.895M1787.26 339.145H1719.5M1787.26 339.145V406.895M1719.5 339.145H1651.75M1719.5 339.145V406.895M1651.75 339.145H1584M1651.75 339.145V406.895M1584 339.145H1516.25M1584 339.145V406.895M1516.25 339.145H1448.5M1516.25 339.145V406.895M1448.5 339.145H1380.75M1448.5 339.145V406.895M1380.75 339.145H1313M1380.75 339.145V406.895M1313 339.145H1245.25M1313 339.145V406.895M1245.25 339.145H1177.5M1245.25 339.145V406.895M1177.5 339.145H1109.75M1177.5 339.145V406.895M1109.75 339.145H1042M1109.75 339.145V406.895M1042 339.145V406.895M2261.51 406.895H2329.26M2261.51 406.895H2193.76M2261.51 406.895V474.646M2329.26 406.895V474.646M2193.76 406.895H2126.01M2193.76 406.895V474.646M2126.01 406.895H2058.26M2126.01 406.895V474.646M2058.26 406.895H1990.51M2058.26 406.895V474.646M1990.51 406.895H1922.76M1990.51 406.895V474.646M1922.76 406.895H1855.01M1922.76 406.895V474.646M1855.01 406.895H1787.26M1855.01 406.895V474.646M1787.26 406.895H1719.5M1787.26 406.895V474.646M1719.5 406.895H1651.75M1719.5 406.895V474.646M1651.75 406.895H1584M1651.75 406.895V474.646M1584 406.895H1516.25M1584 406.895V474.646M1516.25 406.895H1448.5M1516.25 406.895V474.646M1448.5 406.895H1380.75M1448.5 406.895V474.646M1380.75 406.895H1313M1380.75 406.895V474.646M1313 406.895H1245.25M1313 406.895V474.646M1245.25 406.895H1177.5M1245.25 406.895V474.646M1177.5 406.895H1109.75M1177.5 406.895V474.646M1109.75 406.895H1042M1109.75 406.895V474.646M1042 406.895V474.646M2261.51 474.646H2329.26M2261.51 474.646H2193.76M2261.51 474.646V542.396M2329.26 474.646V542.396M2193.76 474.646H2126.01M2193.76 474.646V542.396M2126.01 474.646H2058.26M2126.01 474.646V542.396M2058.26 474.646H1990.51M2058.26 474.646V542.396M1990.51 474.646H1922.76M1990.51 474.646V542.396M1922.76 474.646H1855.01M1922.76 474.646V542.396M1855.01 474.646H1787.26M1855.01 474.646V542.396M1787.26 474.646H1719.5M1787.26 474.646V542.396M1719.5 474.646H1651.75M1719.5 474.646V542.396M1651.75 474.646H1584M1651.75 474.646V542.396M1584 474.646H1516.25M1584 474.646V542.396M1516.25 474.646H1448.5M1516.25 474.646V542.396M1448.5 474.646H1380.75M1448.5 474.646V542.396M1380.75 474.646H1313M1380.75 474.646V542.396M1313 474.646H1245.25M1313 474.646V542.396M1245.25 474.646H1177.5M1245.25 474.646V542.396M1177.5 474.646H1109.75M1177.5 474.646V542.396M1109.75 474.646H1042M1109.75 474.646V542.396M1042 474.646V542.396M2261.51 542.396H2329.26M2261.51 542.396H2193.76M2261.51 542.396V610.147M2329.26 542.396V610.147M2193.76 542.396H2126.01M2193.76 542.396V610.147M2126.01 542.396H2058.26M2126.01 542.396V610.147M2058.26 542.396H1990.51M2058.26 542.396V610.147M1990.51 542.396H1922.76M1990.51 542.396V610.147M1922.76 542.396H1855.01M1922.76 542.396V610.147M1855.01 542.396H1787.26M1855.01 542.396V610.147M1787.26 542.396H1719.5M1787.26 542.396V610.147M1719.5 542.396H1651.75M1719.5 542.396V610.147M1651.75 542.396H1584M1651.75 542.396V610.147M1584 542.396H1516.25M1584 542.396V610.147M1516.25 542.396H1448.5M1516.25 542.396V610.147M1448.5 542.396H1380.75M1448.5 542.396V610.147M1380.75 542.396H1313M1380.75 542.396V610.147M1313 542.396H1245.25M1313 542.396V610.147M1245.25 542.396H1177.5M1245.25 542.396V610.147M1177.5 542.396H1109.75M1177.5 542.396V610.147M1109.75 542.396H1042M1109.75 542.396V610.147M1042 542.396V610.147M2261.51 610.147H2329.26M2261.51 610.147H2193.76M2261.51 610.147V677.897M2329.26 610.147V677.897M2193.76 610.147H2126.01M2193.76 610.147V677.897M2126.01 610.147H2058.26M2126.01 610.147V677.897M2058.26 610.147H1990.51M2058.26 610.147V677.897M1990.51 610.147H1922.76M1990.51 610.147V677.897M1922.76 610.147H1855.01M1922.76 610.147V677.897M1855.01 610.147H1787.26M1855.01 610.147V677.897M1787.26 610.147H1719.5M1787.26 610.147V677.897M1719.5 610.147H1651.75M1719.5 610.147V677.897M1651.75 610.147H1584M1651.75 610.147V677.897M1584 610.147H1516.25M1584 610.147V677.897M1516.25 610.147H1448.5M1516.25 610.147V677.897M1448.5 610.147H1380.75M1448.5 610.147V677.897M1380.75 610.147H1313M1380.75 610.147V677.897M1313 610.147H1245.25M1313 610.147V677.897M1245.25 610.147H1177.5M1245.25 610.147V677.897M1177.5 610.147H1109.75M1177.5 610.147V677.897M1109.75 610.147H1042M1109.75 610.147V677.897M1042 610.147V677.897M2261.51 677.897H2329.26M2261.51 677.897H2193.76M2261.51 677.897V745.648M2329.26 677.897V745.648M2193.76 677.897H2126.01M2193.76 677.897V745.648M2126.01 677.897H2058.26M2126.01 677.897V745.648M2058.26 677.897H1990.51M2058.26 677.897V745.648M1990.51 677.897H1922.76M1990.51 677.897V745.648M1922.76 677.897H1855.01M1922.76 677.897V745.648M1855.01 677.897H1787.26M1855.01 677.897V745.648M1787.26 677.897H1719.5M1787.26 677.897V745.648M1719.5 677.897H1651.75M1719.5 677.897V745.648M1651.75 677.897H1584M1651.75 677.897V745.648M1584 677.897H1516.25M1584 677.897V745.648M1516.25 677.897H1448.5M1516.25 677.897V745.648M1448.5 677.897H1380.75M1448.5 677.897V745.648M1380.75 677.897H1313M1380.75 677.897V745.648M1313 677.897H1245.25M1313 677.897V745.648M1245.25 677.897H1177.5M1245.25 677.897V745.648M1177.5 677.897H1109.75M1177.5 677.897V745.648M1109.75 677.897H1042M1109.75 677.897V745.648M1042 677.897V745.648M2261.51 745.648H2329.26M2261.51 745.648H2193.76M2261.51 745.648V813.398M2329.26 745.648V813.398M2193.76 745.648H2126.01M2193.76 745.648V813.398M2126.01 745.648H2058.26M2126.01 745.648V813.398M2058.26 745.648H1990.51M2058.26 745.648V813.398M1990.51 745.648H1922.76M1990.51 745.648V813.398M1922.76 745.648H1855.01M1922.76 745.648V813.398M1855.01 745.648H1787.26M1855.01 745.648V813.398M1787.26 745.648H1719.5M1787.26 745.648V813.398M1719.5 745.648H1651.75M1719.5 745.648V813.398M1651.75 745.648H1584M1651.75 745.648V813.398M1584 745.648H1516.25M1584 745.648V813.398M1516.25 745.648H1448.5M1516.25 745.648V813.398M1448.5 745.648H1380.75M1448.5 745.648V813.398M1380.75 745.648H1313M1380.75 745.648V813.398M1313 745.648H1245.25M1313 745.648V813.398M1245.25 745.648H1177.5M1245.25 745.648V813.398M1177.5 745.648H1109.75M1177.5 745.648V813.398M1109.75 745.648H1042M1109.75 745.648V813.398M1042 745.648V813.398M2261.51 813.398H2329.26M2261.51 813.398H2193.76M2261.51 813.398V881.149M2329.26 813.398V881.149M2193.76 813.398H2126.01M2193.76 813.398V881.149M2126.01 813.398H2058.26M2126.01 813.398V881.149M2058.26 813.398H1990.51M2058.26 813.398V881.149M1990.51 813.398H1922.76M1990.51 813.398V881.149M1922.76 813.398H1855.01M1922.76 813.398V881.149M1855.01 813.398H1787.26M1855.01 813.398V881.149M1787.26 813.398H1719.5M1787.26 813.398V881.149M1719.5 813.398H1651.75M1719.5 813.398V881.149M1651.75 813.398H1584M1651.75 813.398V881.149M1584 813.398H1516.25M1584 813.398V881.149M1516.25 813.398H1448.5M1516.25 813.398V881.149M1448.5 813.398H1380.75M1448.5 813.398V881.149M1380.75 813.398H1313M1380.75 813.398V881.149M1313 813.398H1245.25M1313 813.398V881.149M1245.25 813.398H1177.5M1245.25 813.398V881.149M1177.5 813.398H1109.75M1177.5 813.398V881.149M1109.75 813.398H1042M1109.75 813.398V881.149M1042 813.398V881.149M2261.51 881.149H2329.26M2261.51 881.149H2193.76M2261.51 881.149V948.899M2329.26 881.149V948.899M2193.76 881.149H2126.01M2193.76 881.149V948.899M2126.01 881.149H2058.26M2126.01 881.149V948.899M2058.26 881.149H1990.51M2058.26 881.149V948.899M1990.51 881.149H1922.76M1990.51 881.149V948.899M1922.76 881.149H1855.01M1922.76 881.149V948.899M1855.01 881.149H1787.26M1855.01 881.149V948.899M1787.26 881.149H1719.5M1787.26 881.149V948.899M1719.5 881.149H1651.75M1719.5 881.149V948.899M1651.75 881.149H1584M1651.75 881.149V948.899M1584 881.149H1516.25M1584 881.149V948.899M1516.25 881.149H1448.5M1516.25 881.149V948.899M1448.5 881.149H1380.75M1448.5 881.149V948.899M1380.75 881.149H1313M1380.75 881.149V948.899M1313 881.149H1245.25M1313 881.149V948.899M1245.25 881.149H1177.5M1245.25 881.149V948.899M1177.5 881.149H1109.75M1177.5 881.149V948.899M1109.75 881.149H1042M1109.75 881.149V948.899M1042 881.149V948.899M2261.51 948.899H2329.26M2261.51 948.899H2193.76M2261.51 948.899V1016.65M2329.26 948.899V1016.65M2193.76 948.899H2126.01M2193.76 948.899V1016.65M2126.01 948.899H2058.26M2126.01 948.899V1016.65M2058.26 948.899H1990.51M2058.26 948.899V1016.65M1990.51 948.899H1922.76M1990.51 948.899V1016.65M1922.76 948.899H1855.01M1922.76 948.899V1016.65M1855.01 948.899H1787.26M1855.01 948.899V1016.65M1787.26 948.899H1719.5M1787.26 948.899V1016.65M1719.5 948.899H1651.75M1719.5 948.899V1016.65M1651.75 948.899H1584M1651.75 948.899V1016.65M1584 948.899H1516.25M1584 948.899V1016.65M1516.25 948.899H1448.5M1516.25 948.899V1016.65M1448.5 948.899H1380.75M1448.5 948.899V1016.65M1380.75 948.899H1313M1380.75 948.899V1016.65M1313 948.899H1245.25M1313 948.899V1016.65M1245.25 948.899H1177.5M1245.25 948.899V1016.65M1177.5 948.899H1109.75M1177.5 948.899V1016.65M1109.75 948.899H1042M1109.75 948.899V1016.65M1042 948.899V1016.65M2261.51 1016.65H2329.26M2261.51 1016.65H2193.76M2261.51 1016.65V1084.4M2329.26 1016.65V1084.4M2193.76 1016.65H2126.01M2193.76 1016.65V1084.4M2126.01 1016.65H2058.26M2126.01 1016.65V1084.4M2058.26 1016.65H1990.51M2058.26 1016.65V1084.4M1990.51 1016.65H1922.76M1990.51 1016.65V1084.4M1922.76 1016.65H1855.01M1922.76 1016.65V1084.4M1855.01 1016.65H1787.26M1855.01 1016.65V1084.4M1787.26 1016.65H1719.5M1787.26 1016.65V1084.4M1719.5 1016.65H1651.75M1719.5 1016.65V1084.4M1651.75 1016.65H1584M1651.75 1016.65V1084.4M1584 1016.65H1516.25M1584 1016.65V1084.4M1516.25 1016.65H1448.5M1516.25 1016.65V1084.4M1448.5 1016.65H1380.75M1448.5 1016.65V1084.4M1380.75 1016.65H1313M1380.75 1016.65V1084.4M1313 1016.65H1245.25M1313 1016.65V1084.4M1245.25 1016.65H1177.5M1245.25 1016.65V1084.4M1177.5 1016.65H1109.75M1177.5 1016.65V1084.4M1109.75 1016.65H1042M1109.75 1016.65V1084.4M1042 1016.65V1084.4M2261.51 1084.4H2329.26M2261.51 1084.4H2193.76M2261.51 1084.4V1152.15M2329.26 1084.4V1152.15M2193.76 1084.4H2126.01M2193.76 1084.4V1152.15M2126.01 1084.4H2058.26M2126.01 1084.4V1152.15M2058.26 1084.4H1990.51M2058.26 1084.4V1152.15M1990.51 1084.4H1922.76M1990.51 1084.4V1152.15M1922.76 1084.4H1855.01M1922.76 1084.4V1152.15M1855.01 1084.4H1787.26M1855.01 1084.4V1152.15M1787.26 1084.4H1719.5M1787.26 1084.4V1152.15M1719.5 1084.4H1651.75M1719.5 1084.4V1152.15M1651.75 1084.4H1584M1651.75 1084.4V1152.15M1584 1084.4H1516.25M1584 1084.4V1152.15M1516.25 1084.4H1448.5M1516.25 1084.4V1152.15M1448.5 1084.4H1380.75M1448.5 1084.4V1152.15M1380.75 1084.4H1313M1380.75 1084.4V1152.15M1313 1084.4H1245.25M1313 1084.4V1152.15M1245.25 1084.4H1177.5M1245.25 1084.4V1152.15M1177.5 1084.4H1109.75M1177.5 1084.4V1152.15M1109.75 1084.4H1042M1109.75 1084.4V1152.15M1042 1084.4V1152.15M2261.51 1152.15H2329.26M2261.51 1152.15H2193.76M2261.51 1152.15V1219.9M2329.26 1152.15V1219.9M2193.76 1152.15H2126.01M2193.76 1152.15V1219.9M2126.01 1152.15H2058.26M2126.01 1152.15V1219.9M2058.26 1152.15H1990.51M2058.26 1152.15V1219.9M1990.51 1152.15H1922.76M1990.51 1152.15V1219.9M1922.76 1152.15H1855.01M1922.76 1152.15V1219.9M1855.01 1152.15H1787.26M1855.01 1152.15V1219.9M1787.26 1152.15H1719.5M1787.26 1152.15V1219.9M1719.5 1152.15H1651.75M1719.5 1152.15V1219.9M1651.75 1152.15H1584M1651.75 1152.15V1219.9M1584 1152.15H1516.25M1584 1152.15V1219.9M1516.25 1152.15H1448.5M1516.25 1152.15V1219.9M1448.5 1152.15H1380.75M1448.5 1152.15V1219.9M1380.75 1152.15H1313M1380.75 1152.15V1219.9M1313 1152.15H1245.25M1313 1152.15V1219.9M1245.25 1152.15H1177.5M1245.25 1152.15V1219.9M1177.5 1152.15H1109.75M1177.5 1152.15V1219.9M1109.75 1152.15H1042M1109.75 1152.15V1219.9M1042 1152.15V1219.9M2261.51 1219.9H2329.26M2261.51 1219.9H2193.76M2261.51 1219.9V1287.65M2329.26 1219.9V1287.65H2261.51M2193.76 1219.9H2126.01M2193.76 1219.9V1287.65M2126.01 1219.9H2058.26M2126.01 1219.9V1287.65M2058.26 1219.9H1990.51M2058.26 1219.9V1287.65M1990.51 1219.9H1922.76M1990.51 1219.9V1287.65M1922.76 1219.9H1855.01M1922.76 1219.9V1287.65M1855.01 1219.9H1787.26M1855.01 1219.9V1287.65M1787.26 1219.9H1719.5M1787.26 1219.9V1287.65M1719.5 1219.9H1651.75M1719.5 1219.9V1287.65M1651.75 1219.9H1584M1651.75 1219.9V1287.65M1584 1219.9H1516.25M1584 1219.9V1287.65M1516.25 1219.9H1448.5M1516.25 1219.9V1287.65M1448.5 1219.9H1380.75M1448.5 1219.9V1287.65M1380.75 1219.9H1313M1380.75 1219.9V1287.65M1313 1219.9H1245.25M1313 1219.9V1287.65M1245.25 1219.9H1177.5M1245.25 1219.9V1287.65M1177.5 1219.9H1109.75M1177.5 1219.9V1287.65M1109.75 1219.9H1042M1109.75 1219.9V1287.65M1042 1219.9V1287.65H1109.75M2261.51 1287.65H2193.76M2193.76 1287.65H2126.01M2126.01 1287.65H2058.26M2058.26 1287.65H1990.51M1990.51 1287.65H1922.76M1922.76 1287.65H1855.01M1855.01 1287.65H1787.26M1787.26 1287.65H1719.5M1719.5 1287.65H1651.75M1651.75 1287.65H1584M1584 1287.65H1516.25M1516.25 1287.65H1448.5M1448.5 1287.65H1380.75M1380.75 1287.65H1313M1313 1287.65H1245.25M1245.25 1287.65H1177.5M1177.5 1287.65H1109.75" stroke="url(#paint3_linear_341_866)" stroke-opacity="0.18" stroke-width="0.762194"/>
<rect width="1920" height="506" transform="matrix(1 0 0 -1 2 1288)" fill="url(#paint4_linear_341_866)" fill-opacity="0.72"/>
<defs>
<linearGradient id="paint0_linear_341_866" x1="-139.5" y1="1451.5" x2="288" y2="957.5" gradientUnits="userSpaceOnUse">
<stop stop-color="#11C9FF"/>
<stop offset="0.345282" stop-color="#4954FF"/>
<stop offset="0.96075" stop-color="#A661FF" stop-opacity="0"/>
</linearGradient>
<radialGradient id="paint1_radial_341_866" cx="0" cy="0" r="1" gradientUnits="userSpaceOnUse" gradientTransform="translate(282.5 312) rotate(66.6246) scale(361.685)">
<stop stop-color="#11C9FF"/>
<stop offset="0.345282" stop-color="#4954FF" stop-opacity="0.45"/>
<stop offset="1" stop-color="#A661FF" stop-opacity="0"/>
</radialGradient>
<radialGradient id="paint2_radial_341_866" cx="0" cy="0" r="1" gradientUnits="userSpaceOnUse" gradientTransform="translate(1582.5 1013) rotate(67.1396) scale(467.196)">
<stop stop-color="#11C9FF"/>
<stop offset="0.345282" stop-color="#4954FF" stop-opacity="0.45"/>
<stop offset="1" stop-color="#A661FF" stop-opacity="0"/>
</radialGradient>
<linearGradient id="paint3_linear_341_866" x1="1998.5" y1="-92" x2="1639" y2="389" gradientUnits="userSpaceOnUse">
<stop stop-color="#11C9FF"/>
<stop offset="0.345282" stop-color="#4954FF"/>
<stop offset="0.96075" stop-color="#A661FF" stop-opacity="0"/>
</linearGradient>
<linearGradient id="paint4_linear_341_866" x1="960" y1="0" x2="960" y2="506" gradientUnits="userSpaceOnUse">
<stop stop-color="#080814"/>
<stop offset="1" stop-color="#080814" stop-opacity="0"/>
</linearGradient>
</defs>
</svg>
