<svg width="878" height="327" viewBox="0 0 878 327" fill="none" xmlns="http://www.w3.org/2000/svg">
<g filter="url(#filter0_d_23_326)">
<path d="M357.45 112.918C378.157 112.303 398.875 111.907 419.593 111.731C440.31 111.555 460.837 111.614 481.453 111.892C493.164 112.054 504.887 112.273 516.599 112.567L518.188 109.563C491.451 110.163 464.725 110.911 438 111.805C411.274 112.698 384.548 113.739 357.822 114.94C342.819 115.614 327.828 116.318 312.825 117.08C311.946 117.124 310.627 117.417 310.131 118.53C309.669 119.571 310.525 120.113 311.235 120.083C339.088 119.16 366.964 119.072 394.828 119.834C422.692 120.596 450.534 122.223 478.342 124.684C493.965 126.062 509.576 127.718 525.165 129.637C526.011 129.74 527.409 129.198 527.859 128.186C528.355 127.087 527.431 126.707 526.755 126.633C499.015 123.219 471.207 120.64 443.376 118.911C415.546 117.182 387.67 116.318 359.806 116.303C344.149 116.303 328.493 116.552 312.836 117.08L311.247 120.083C337.961 118.721 364.687 117.519 391.413 116.45C418.138 115.395 444.864 114.471 471.59 113.709C486.593 113.285 501.607 112.889 516.61 112.552C517.489 112.537 518.819 112.2 519.304 111.101C519.789 110.002 518.898 109.563 518.199 109.548C497.47 109.05 476.764 108.742 456.046 108.669C435.328 108.596 414.802 108.727 394.186 109.094C382.474 109.299 370.751 109.577 359.04 109.929C358.161 109.958 356.83 110.281 356.346 111.38C355.884 112.42 356.74 112.962 357.45 112.933V112.918Z" fill="url(#paint0_linear_23_326)"/>
<path d="M95.2208 99.8536C91.0476 99.8536 87.4909 99.0948 84.5507 97.5773C81.6579 96.0598 79.1682 94.0206 77.0816 91.4598L82.6301 86.267C84.3847 88.401 86.3053 90.0134 88.3919 91.1041C90.5259 92.1948 92.9445 92.7402 95.6476 92.7402C98.8249 92.7402 101.22 92.0289 102.832 90.6062C104.444 89.1835 105.251 87.2629 105.251 84.8443C105.251 82.9 104.682 81.3588 103.543 80.2206C102.405 79.0825 100.39 78.2289 97.4971 77.6598L93.0868 76.8773C88.2496 75.9763 84.6218 74.3876 82.2032 72.1113C79.7847 69.8351 78.5754 66.7052 78.5754 62.7216C78.5754 60.5402 78.9785 58.5722 79.7847 56.8175C80.6383 55.0155 81.8002 53.5216 83.2703 52.3361C84.7878 51.1031 86.6136 50.1546 88.7476 49.4907C90.8816 48.8268 93.2764 48.4948 95.9321 48.4948C99.6785 48.4948 102.927 49.1588 105.677 50.4866C108.428 51.767 110.775 53.6402 112.72 56.1062L107.1 61.0856C105.82 59.4258 104.255 58.0979 102.405 57.1021C100.556 56.1062 98.2558 55.6082 95.5053 55.6082C92.6599 55.6082 90.4548 56.1773 88.8898 57.3155C87.3249 58.4536 86.5424 60.1134 86.5424 62.2948C86.5424 64.3814 87.1826 65.9464 88.463 66.9897C89.7435 67.9856 91.7352 68.7443 94.4383 69.266L98.8486 70.1907C103.828 71.1392 107.456 72.7515 109.732 75.0278C112.056 77.3041 113.218 80.434 113.218 84.4175C113.218 86.7412 112.815 88.8515 112.008 90.7485C111.202 92.6454 110.017 94.2814 108.452 95.6567C106.934 96.9845 105.061 98.0278 102.832 98.7866C100.603 99.4979 98.0661 99.8536 95.2208 99.8536ZM126.211 55.3948C124.598 55.3948 123.413 55.0155 122.654 54.2567C121.943 53.4979 121.587 52.5258 121.587 51.3402V50.1309C121.587 48.9454 121.943 47.9732 122.654 47.2144C123.413 46.4557 124.598 46.0763 126.211 46.0763C127.823 46.0763 128.985 46.4557 129.696 47.2144C130.408 47.9732 130.763 48.9454 130.763 50.1309V51.3402C130.763 52.5258 130.408 53.4979 129.696 54.2567C128.985 55.0155 127.823 55.3948 126.211 55.3948ZM122.298 62.0103H130.052V99H122.298V62.0103ZM141.124 99V62.0103H148.877V68.1278H149.233C149.613 67.1794 150.063 66.2783 150.585 65.4247C151.154 64.5711 151.818 63.8361 152.576 63.2196C153.383 62.5557 154.307 62.0577 155.351 61.7258C156.441 61.3464 157.698 61.1567 159.121 61.1567C161.634 61.1567 163.863 61.7732 165.807 63.0062C167.752 64.2392 169.174 66.1361 170.075 68.6969H170.289C170.953 66.6103 172.233 64.832 174.13 63.3619C176.027 61.8918 178.469 61.1567 181.457 61.1567C185.156 61.1567 188.025 62.4134 190.064 64.9268C192.103 67.3928 193.123 70.9258 193.123 75.5258V99H185.369V76.4505C185.369 73.6052 184.824 71.4711 183.733 70.0485C182.642 68.5784 180.912 67.8433 178.54 67.8433C177.545 67.8433 176.596 67.9856 175.695 68.2701C174.794 68.5072 173.988 68.8866 173.276 69.4082C172.613 69.9299 172.067 70.5938 171.64 71.4C171.214 72.2062 171 73.1309 171 74.1742V99H163.247V76.4505C163.247 70.7124 160.994 67.8433 156.489 67.8433C155.54 67.8433 154.592 67.9856 153.643 68.2701C152.742 68.5072 151.936 68.8866 151.225 69.4082C150.514 69.9299 149.945 70.5938 149.518 71.4C149.091 72.2062 148.877 73.1309 148.877 74.1742V99H141.124ZM203.852 62.0103H211.606V68.1278H211.962C212.768 65.899 214.072 64.1918 215.874 63.0062C217.724 61.7732 219.881 61.1567 222.347 61.1567C227.042 61.1567 230.67 62.8639 233.231 66.2784C235.792 69.6454 237.072 74.3876 237.072 80.5052C237.072 86.6227 235.792 91.3887 233.231 94.8031C230.67 98.1701 227.042 99.8536 222.347 99.8536C219.881 99.8536 217.724 99.2371 215.874 98.0041C214.072 96.7711 212.768 95.0639 211.962 92.8825H211.606V113.227H203.852V62.0103ZM220 93.167C222.703 93.167 224.861 92.3134 226.473 90.6062C228.085 88.8515 228.892 86.5515 228.892 83.7062V77.3041C228.892 74.4588 228.085 72.1825 226.473 70.4753C224.861 68.7206 222.703 67.8433 220 67.8433C217.629 67.8433 215.637 68.4361 214.025 69.6216C212.412 70.7598 211.606 72.2773 211.606 74.1742V86.8361C211.606 88.733 212.412 90.2742 214.025 91.4598C215.637 92.5979 217.629 93.167 220 93.167ZM253.845 99C251.19 99 249.198 98.3361 247.87 97.0082C246.59 95.633 245.949 93.7361 245.949 91.3175V46.3608H253.703V92.6691H258.825V99H253.845ZM280.745 99.8536C278.089 99.8536 275.718 99.4031 273.632 98.5021C271.545 97.601 269.767 96.3206 268.297 94.6608C266.826 92.9536 265.688 90.9144 264.882 88.5433C264.123 86.1247 263.744 83.4454 263.744 80.5052C263.744 77.5649 264.123 74.9093 264.882 72.5381C265.688 70.1196 266.826 68.0804 268.297 66.4206C269.767 64.7134 271.545 63.4093 273.632 62.5082C275.718 61.6072 278.089 61.1567 280.745 61.1567C283.448 61.1567 285.819 61.6309 287.858 62.5794C289.945 63.5278 291.676 64.8557 293.051 66.5629C294.426 68.2227 295.446 70.167 296.11 72.3959C296.821 74.6247 297.177 77.0196 297.177 79.5804V82.4969H271.782V83.7062C271.782 86.5515 272.612 88.899 274.272 90.7485C275.979 92.5505 278.398 93.4515 281.527 93.4515C283.804 93.4515 285.724 92.9536 287.289 91.9577C288.854 90.9619 290.182 89.6103 291.273 87.9031L295.825 92.3845C294.45 94.6608 292.458 96.4866 289.85 97.8619C287.242 99.1897 284.207 99.8536 280.745 99.8536ZM280.745 67.2031C279.417 67.2031 278.184 67.4402 277.046 67.9144C275.955 68.3887 275.007 69.0526 274.201 69.9062C273.442 70.7598 272.849 71.7794 272.422 72.9649C271.995 74.1505 271.782 75.4546 271.782 76.8773V77.3753H288.997V76.6639C288.997 73.8186 288.261 71.5423 286.791 69.8351C285.321 68.0804 283.306 67.2031 280.745 67.2031ZM318.872 62.0103H326.412L330.183 77.5175L333.526 91.5309H333.739L337.58 77.5175L342.062 62.0103H349.033L353.586 77.5175L357.498 91.5309H357.711L360.984 77.5175L364.825 62.0103H372.009L362.051 99H353.301L348.464 82.1412L345.476 71.7557H345.334L342.418 82.1412L337.509 99H328.973L318.872 62.0103ZM405.733 99C403.694 99 402.129 98.4309 401.038 97.2928C399.947 96.1072 399.284 94.6134 399.046 92.8113H398.691C397.979 95.1351 396.675 96.8897 394.778 98.0753C392.881 99.2608 390.581 99.8536 387.878 99.8536C384.037 99.8536 381.073 98.8577 378.987 96.866C376.947 94.8742 375.928 92.1948 375.928 88.8278C375.928 85.1289 377.256 82.3546 379.911 80.5052C382.614 78.6557 386.551 77.7309 391.72 77.7309H398.406V74.601C398.406 72.3247 397.79 70.5701 396.557 69.3371C395.324 68.1041 393.403 67.4876 390.795 67.4876C388.613 67.4876 386.835 67.9619 385.46 68.9103C384.085 69.8588 382.923 71.068 381.974 72.5381L377.351 68.3412C378.584 66.2546 380.314 64.5474 382.543 63.2196C384.772 61.8443 387.689 61.1567 391.293 61.1567C396.082 61.1567 399.758 62.2711 402.319 64.5C404.879 66.7289 406.16 69.9299 406.16 74.1031V92.6691H410.072V99H405.733ZM390.084 93.9495C392.502 93.9495 394.494 93.4278 396.059 92.3845C397.624 91.2938 398.406 89.8474 398.406 88.0454V82.7103H391.862C386.503 82.7103 383.824 84.3701 383.824 87.6897V88.9701C383.824 90.6299 384.369 91.8866 385.46 92.7402C386.598 93.5464 388.139 93.9495 390.084 93.9495ZM439.877 62.0103H447.346L431.767 106.327C431.341 107.56 430.843 108.603 430.274 109.457C429.752 110.358 429.112 111.069 428.353 111.591C427.642 112.16 426.764 112.563 425.721 112.8C424.678 113.085 423.445 113.227 422.022 113.227H417.541V106.896H423.8L425.935 100.636L412.49 62.0103H420.244L427.642 83.7773L429.776 91.8155H430.131L432.479 83.7773L439.877 62.0103ZM480.779 99C478.076 99 476.037 98.3124 474.661 96.9371C473.286 95.5144 472.598 93.5227 472.598 90.9619V68.3412H466.837V62.0103H469.966C471.247 62.0103 472.124 61.7258 472.598 61.1567C473.12 60.5876 473.381 59.6629 473.381 58.3825V51.9093H480.352V62.0103H488.106V68.3412H480.352V92.6691H487.537V99H480.779ZM510.75 99.8536C508.189 99.8536 505.841 99.4031 503.707 98.5021C501.621 97.601 499.842 96.3206 498.372 94.6608C496.902 92.9536 495.764 90.9144 494.958 88.5433C494.152 86.1247 493.749 83.4454 493.749 80.5052C493.749 77.5649 494.152 74.9093 494.958 72.5381C495.764 70.1196 496.902 68.0804 498.372 66.4206C499.842 64.7134 501.621 63.4093 503.707 62.5082C505.841 61.6072 508.189 61.1567 510.75 61.1567C513.31 61.1567 515.634 61.6072 517.721 62.5082C519.855 63.4093 521.657 64.7134 523.127 66.4206C524.597 68.0804 525.735 70.1196 526.541 72.5381C527.348 74.9093 527.751 77.5649 527.751 80.5052C527.751 83.4454 527.348 86.1247 526.541 88.5433C525.735 90.9144 524.597 92.9536 523.127 94.6608C521.657 96.3206 519.855 97.601 517.721 98.5021C515.634 99.4031 513.31 99.8536 510.75 99.8536ZM510.75 93.4515C513.405 93.4515 515.539 92.6454 517.152 91.033C518.764 89.3732 519.57 86.9072 519.57 83.6351V77.3753C519.57 74.1031 518.764 71.6608 517.152 70.0485C515.539 68.3887 513.405 67.5588 510.75 67.5588C508.094 67.5588 505.96 68.3887 504.348 70.0485C502.735 71.6608 501.929 74.1031 501.929 77.3753V83.6351C501.929 86.9072 502.735 89.3732 504.348 91.033C505.96 92.6454 508.094 93.4515 510.75 93.4515ZM553.201 46.3608H560.955V68.1278H561.31C562.116 65.899 563.421 64.1918 565.223 63.0062C567.072 61.7732 569.23 61.1567 571.696 61.1567C576.391 61.1567 580.019 62.8639 582.579 66.2784C585.14 69.6454 586.421 74.3876 586.421 80.5052C586.421 86.6227 585.14 91.3887 582.579 94.8031C580.019 98.1701 576.391 99.8536 571.696 99.8536C569.23 99.8536 567.072 99.2371 565.223 98.0041C563.421 96.7711 562.116 95.0639 561.31 92.8825H560.955V99H553.201V46.3608ZM569.348 93.167C572.052 93.167 574.209 92.3134 575.822 90.6062C577.434 88.8515 578.24 86.5515 578.24 83.7062V77.3041C578.24 74.4588 577.434 72.1825 575.822 70.4753C574.209 68.7206 572.052 67.8433 569.348 67.8433C566.977 67.8433 564.986 68.4361 563.373 69.6216C561.761 70.7598 560.955 72.2773 560.955 74.1742V86.8361C560.955 88.733 561.761 90.2742 563.373 91.4598C564.986 92.5979 566.977 93.167 569.348 93.167ZM617.705 92.8825H617.421C617.089 93.7835 616.638 94.6608 616.069 95.5144C615.547 96.368 614.86 97.1268 614.006 97.7907C613.2 98.4072 612.204 98.9052 611.019 99.2845C609.88 99.6639 608.553 99.8536 607.035 99.8536C603.194 99.8536 600.206 98.6206 598.072 96.1546C595.986 93.6887 594.942 90.1557 594.942 85.5557V62.0103H602.696V84.5598C602.696 90.2979 605.067 93.167 609.809 93.167C610.805 93.167 611.777 93.0485 612.726 92.8113C613.674 92.5268 614.504 92.1237 615.215 91.6021C615.974 91.0804 616.567 90.4165 616.994 89.6103C617.468 88.8041 617.705 87.8557 617.705 86.7649V62.0103H625.459V99H617.705V92.8825ZM659.253 62.0103H666.722L651.144 106.327C650.717 107.56 650.219 108.603 649.65 109.457C649.128 110.358 648.488 111.069 647.729 111.591C647.018 112.16 646.141 112.563 645.097 112.8C644.054 113.085 642.821 113.227 641.398 113.227H636.917V106.896H643.177L645.311 100.636L631.866 62.0103H639.62L647.018 83.7773L649.152 91.8155H649.508L651.855 83.7773L659.253 62.0103ZM717.014 99C714.975 99 713.41 98.4309 712.319 97.2928C711.228 96.1072 710.564 94.6134 710.327 92.8113H709.972C709.26 95.1351 707.956 96.8897 706.059 98.0753C704.162 99.2608 701.862 99.8536 699.159 99.8536C695.318 99.8536 692.354 98.8577 690.267 96.866C688.228 94.8742 687.209 92.1948 687.209 88.8278C687.209 85.1289 688.536 82.3546 691.192 80.5052C693.895 78.6557 697.831 77.7309 703 77.7309H709.687V74.601C709.687 72.3247 709.07 70.5701 707.838 69.3371C706.605 68.1041 704.684 67.4876 702.076 67.4876C699.894 67.4876 698.116 67.9619 696.741 68.9103C695.365 69.8588 694.203 71.068 693.255 72.5381L688.631 68.3412C689.864 66.2546 691.595 64.5474 693.824 63.2196C696.053 61.8443 698.969 61.1567 702.574 61.1567C707.363 61.1567 711.039 62.2711 713.599 64.5C716.16 66.7289 717.441 69.9299 717.441 74.1031V92.6691H721.353V99H717.014ZM701.364 93.9495C703.783 93.9495 705.775 93.4278 707.34 92.3845C708.905 91.2938 709.687 89.8474 709.687 88.0454V82.7103H703.143C697.784 82.7103 695.105 84.3701 695.105 87.6897V88.9701C695.105 90.6299 695.65 91.8866 696.741 92.7402C697.879 93.5464 699.42 93.9495 701.364 93.9495ZM728.952 99V62.0103H736.706V68.1278H737.061C737.867 66.1361 739.077 64.4763 740.689 63.1485C742.349 61.8206 744.602 61.1567 747.447 61.1567C751.241 61.1567 754.181 62.4134 756.267 64.9268C758.402 67.3928 759.469 70.9258 759.469 75.5258V99H751.715V76.5216C751.715 70.7361 749.391 67.8433 744.744 67.8433C743.748 67.8433 742.752 67.9856 741.756 68.2701C740.808 68.5072 739.954 68.8866 739.195 69.4082C738.437 69.9299 737.82 70.5938 737.346 71.4C736.919 72.2062 736.706 73.1546 736.706 74.2454V99H728.952ZM793.476 92.8825H793.12C792.314 95.0639 790.986 96.7711 789.137 98.0041C787.335 99.2371 785.201 99.8536 782.735 99.8536C778.04 99.8536 774.412 98.1701 771.851 94.8031C769.291 91.3887 768.01 86.6227 768.01 80.5052C768.01 74.3876 769.291 69.6454 771.851 66.2784C774.412 62.8639 778.04 61.1567 782.735 61.1567C785.201 61.1567 787.335 61.7732 789.137 63.0062C790.986 64.1918 792.314 65.899 793.12 68.1278H793.476V46.3608H801.23V99H793.476V92.8825ZM785.082 93.167C787.453 93.167 789.445 92.5979 791.058 91.4598C792.67 90.2742 793.476 88.733 793.476 86.8361V74.1742C793.476 72.2773 792.67 70.7598 791.058 69.6216C789.445 68.4361 787.453 67.8433 785.082 67.8433C782.379 67.8433 780.222 68.7206 778.609 70.4753C776.997 72.1825 776.191 74.4588 776.191 77.3041V83.7062C776.191 86.5515 776.997 88.8515 778.609 90.6062C780.222 92.3134 782.379 93.167 785.082 93.167ZM65.4023 179.854C61.893 179.854 58.9528 179.237 56.5816 178.004C54.2105 176.771 52.1476 175.064 50.393 172.882L55.3724 168.33C56.7476 169.99 58.2652 171.294 59.9249 172.242C61.6322 173.143 63.6002 173.594 65.8291 173.594C68.1054 173.594 69.7889 173.167 70.8796 172.313C72.0177 171.412 72.5868 170.179 72.5868 168.614C72.5868 167.429 72.1837 166.433 71.3775 165.627C70.6188 164.773 69.2672 164.228 67.3229 163.991L63.9085 163.564C60.1146 163.09 57.127 161.999 54.9456 160.292C52.8115 158.537 51.7445 155.953 51.7445 152.538C51.7445 150.736 52.0765 149.147 52.7404 147.772C53.4043 146.349 54.3291 145.164 55.5146 144.215C56.7476 143.22 58.194 142.461 59.8538 141.939C61.561 141.418 63.4342 141.157 65.4734 141.157C68.793 141.157 71.4961 141.678 73.5827 142.722C75.7167 143.765 77.6136 145.211 79.2734 147.061L74.5074 151.613C73.559 150.475 72.3023 149.503 70.7373 148.697C69.2198 147.843 67.4652 147.416 65.4734 147.416C63.3394 147.416 61.7507 147.843 60.7074 148.697C59.7115 149.551 59.2136 150.665 59.2136 152.04C59.2136 153.463 59.6641 154.53 60.5652 155.241C61.4662 155.953 62.9126 156.474 64.9043 156.806L68.3188 157.233C72.3971 157.849 75.361 159.059 77.2105 160.861C79.1074 162.615 80.0559 164.987 80.0559 167.974C80.0559 169.776 79.7002 171.412 78.9889 172.882C78.3249 174.305 77.3528 175.538 76.0724 176.581C74.792 177.625 73.2507 178.431 71.4487 179C69.6466 179.569 67.6311 179.854 65.4023 179.854ZM103.327 179.854C100.671 179.854 98.2999 179.403 96.2133 178.502C94.1267 177.601 92.3484 176.321 90.8782 174.661C89.4081 172.954 88.27 170.914 87.4638 168.543C86.7051 166.125 86.3257 163.445 86.3257 160.505C86.3257 157.565 86.7051 154.909 87.4638 152.538C88.27 150.12 89.4081 148.08 90.8782 146.421C92.3484 144.713 94.1267 143.409 96.2133 142.508C98.2999 141.607 100.671 141.157 103.327 141.157C106.03 141.157 108.401 141.631 110.44 142.579C112.527 143.528 114.258 144.856 115.633 146.563C117.008 148.223 118.028 150.167 118.692 152.396C119.403 154.625 119.759 157.02 119.759 159.58V162.497H94.3638V163.706C94.3638 166.552 95.1937 168.899 96.8535 170.748C98.5607 172.551 100.979 173.452 104.109 173.452C106.385 173.452 108.306 172.954 109.871 171.958C111.436 170.962 112.764 169.61 113.855 167.903L118.407 172.385C117.032 174.661 115.04 176.487 112.432 177.862C109.824 179.19 106.789 179.854 103.327 179.854ZM103.327 147.203C101.999 147.203 100.766 147.44 99.6277 147.914C98.537 148.389 97.5886 149.053 96.7824 149.906C96.0236 150.76 95.4308 151.779 95.004 152.965C94.5772 154.151 94.3638 155.455 94.3638 156.877V157.375H111.578V156.664C111.578 153.819 110.843 151.542 109.373 149.835C107.903 148.08 105.888 147.203 103.327 147.203ZM136.238 179C133.582 179 131.59 178.336 130.263 177.008C128.982 175.633 128.342 173.736 128.342 171.318V126.361H136.096V172.669H141.217V179H136.238ZM156.105 179C153.45 179 151.458 178.336 150.13 177.008C148.85 175.633 148.209 173.736 148.209 171.318V126.361H155.963V172.669H161.085V179H156.105ZM199.603 179.854C196.947 179.854 194.576 179.403 192.489 178.502C190.403 177.601 188.648 176.321 187.225 174.661C185.803 172.954 184.712 170.914 183.953 168.543C183.194 166.125 182.815 163.445 182.815 160.505C182.815 157.565 183.194 154.909 183.953 152.538C184.712 150.12 185.803 148.08 187.225 146.421C188.648 144.713 190.403 143.409 192.489 142.508C194.576 141.607 196.947 141.157 199.603 141.157C203.302 141.157 206.337 141.987 208.708 143.646C211.079 145.306 212.81 147.511 213.901 150.262L207.499 153.249C206.977 151.542 206.052 150.191 204.724 149.195C203.444 148.152 201.737 147.63 199.603 147.63C196.757 147.63 194.6 148.531 193.13 150.333C191.707 152.088 190.995 154.388 190.995 157.233V163.848C190.995 166.694 191.707 169.018 193.13 170.82C194.6 172.574 196.757 173.452 199.603 173.452C201.879 173.452 203.681 172.906 205.009 171.815C206.384 170.677 207.475 169.184 208.281 167.334L214.185 170.464C212.952 173.499 211.103 175.823 208.637 177.435C206.171 179.047 203.159 179.854 199.603 179.854ZM221.566 179V142.01H229.32V149.124H229.676C230.197 147.227 231.288 145.567 232.948 144.144C234.608 142.722 236.908 142.01 239.848 142.01H241.911V149.479H238.852C235.77 149.479 233.398 149.977 231.739 150.973C230.126 151.969 229.32 153.439 229.32 155.384V179H221.566ZM272.114 142.01H279.583L264.005 186.327C263.578 187.56 263.08 188.603 262.511 189.457C261.99 190.358 261.349 191.069 260.591 191.591C259.879 192.16 259.002 192.563 257.959 192.8C256.915 193.085 255.682 193.227 254.26 193.227H249.778V186.896H256.038L258.172 180.636L244.728 142.01H252.481L259.879 163.777L262.013 171.815H262.369L264.716 163.777L272.114 142.01ZM285.962 142.01H293.716V148.128H294.071C294.878 145.899 296.182 144.192 297.984 143.006C299.833 141.773 301.991 141.157 304.457 141.157C309.152 141.157 312.78 142.864 315.341 146.278C317.901 149.645 319.182 154.388 319.182 160.505C319.182 166.623 317.901 171.389 315.341 174.803C312.78 178.17 309.152 179.854 304.457 179.854C301.991 179.854 299.833 179.237 297.984 178.004C296.182 176.771 294.878 175.064 294.071 172.882H293.716V193.227H285.962V142.01ZM302.11 173.167C304.813 173.167 306.97 172.313 308.583 170.606C310.195 168.852 311.001 166.552 311.001 163.706V157.304C311.001 154.459 310.195 152.182 308.583 150.475C306.97 148.721 304.813 147.843 302.11 147.843C299.738 147.843 297.747 148.436 296.134 149.622C294.522 150.76 293.716 152.277 293.716 154.174V166.836C293.716 168.733 294.522 170.274 296.134 171.46C297.747 172.598 299.738 173.167 302.11 173.167ZM337.886 179C335.182 179 333.143 178.312 331.768 176.937C330.393 175.514 329.705 173.523 329.705 170.962V148.341H323.943V142.01H327.073C328.354 142.01 329.231 141.726 329.705 141.157C330.227 140.588 330.488 139.663 330.488 138.382V131.909H337.459V142.01H345.212V148.341H337.459V172.669H344.643V179H337.886ZM367.856 179.854C365.296 179.854 362.948 179.403 360.814 178.502C358.727 177.601 356.949 176.321 355.479 174.661C354.009 172.954 352.871 170.914 352.065 168.543C351.258 166.125 350.855 163.445 350.855 160.505C350.855 157.565 351.258 154.909 352.065 152.538C352.871 150.12 354.009 148.08 355.479 146.421C356.949 144.713 358.727 143.409 360.814 142.508C362.948 141.607 365.296 141.157 367.856 141.157C370.417 141.157 372.741 141.607 374.827 142.508C376.961 143.409 378.764 144.713 380.234 146.421C381.704 148.08 382.842 150.12 383.648 152.538C384.454 154.909 384.857 157.565 384.857 160.505C384.857 163.445 384.454 166.125 383.648 168.543C382.842 170.914 381.704 172.954 380.234 174.661C378.764 176.321 376.961 177.601 374.827 178.502C372.741 179.403 370.417 179.854 367.856 179.854ZM367.856 173.452C370.512 173.452 372.646 172.645 374.258 171.033C375.871 169.373 376.677 166.907 376.677 163.635V157.375C376.677 154.103 375.871 151.661 374.258 150.048C372.646 148.389 370.512 147.559 367.856 147.559C365.201 147.559 363.067 148.389 361.454 150.048C359.842 151.661 359.036 154.103 359.036 157.375V163.635C359.036 166.907 359.842 169.373 361.454 171.033C363.067 172.645 365.201 173.452 367.856 173.452ZM407.795 179.854C405.139 179.854 402.768 179.403 400.681 178.502C398.595 177.601 396.84 176.321 395.417 174.661C393.995 172.954 392.904 170.914 392.145 168.543C391.387 166.125 391.007 163.445 391.007 160.505C391.007 157.565 391.387 154.909 392.145 152.538C392.904 150.12 393.995 148.08 395.417 146.421C396.84 144.713 398.595 143.409 400.681 142.508C402.768 141.607 405.139 141.157 407.795 141.157C411.494 141.157 414.529 141.987 416.9 143.646C419.271 145.306 421.002 147.511 422.093 150.262L415.691 153.249C415.169 151.542 414.244 150.191 412.916 149.195C411.636 148.152 409.929 147.63 407.795 147.63C404.949 147.63 402.792 148.531 401.322 150.333C399.899 152.088 399.188 154.388 399.188 157.233V163.848C399.188 166.694 399.899 169.018 401.322 170.82C402.792 172.574 404.949 173.452 407.795 173.452C410.071 173.452 411.873 172.906 413.201 171.815C414.576 170.677 415.667 169.184 416.473 167.334L422.377 170.464C421.144 173.499 419.295 175.823 416.829 177.435C414.363 179.047 411.351 179.854 407.795 179.854ZM452.166 172.882H451.881C451.549 173.784 451.099 174.661 450.53 175.514C450.008 176.368 449.32 177.127 448.467 177.791C447.661 178.407 446.665 178.905 445.479 179.285C444.341 179.664 443.013 179.854 441.496 179.854C437.654 179.854 434.667 178.621 432.533 176.155C430.446 173.689 429.403 170.156 429.403 165.556V142.01H437.156V164.56C437.156 170.298 439.528 173.167 444.27 173.167C445.266 173.167 446.238 173.048 447.186 172.811C448.135 172.527 448.965 172.124 449.676 171.602C450.435 171.08 451.028 170.416 451.454 169.61C451.929 168.804 452.166 167.856 452.166 166.765V142.01H459.919V179H452.166V172.882ZM471.022 179V142.01H478.775V149.124H479.131C479.653 147.227 480.743 145.567 482.403 144.144C484.063 142.722 486.363 142.01 489.303 142.01H491.366V149.479H488.307C485.225 149.479 482.854 149.977 481.194 150.973C479.582 151.969 478.775 153.439 478.775 155.384V179H471.022ZM498.253 179V142.01H506.006V149.124H506.362C506.884 147.227 507.974 145.567 509.634 144.144C511.294 142.722 513.594 142.01 516.534 142.01H518.597V149.479H515.538C512.456 149.479 510.085 149.977 508.425 150.973C506.813 151.969 506.006 153.439 506.006 155.384V179H498.253ZM539.648 179.854C536.992 179.854 534.621 179.403 532.534 178.502C530.448 177.601 528.669 176.321 527.199 174.661C525.729 172.954 524.591 170.914 523.785 168.543C523.026 166.125 522.647 163.445 522.647 160.505C522.647 157.565 523.026 154.909 523.785 152.538C524.591 150.12 525.729 148.08 527.199 146.421C528.669 144.713 530.448 143.409 532.534 142.508C534.621 141.607 536.992 141.157 539.648 141.157C542.351 141.157 544.722 141.631 546.761 142.579C548.848 143.528 550.579 144.856 551.954 146.563C553.329 148.223 554.349 150.167 555.013 152.396C555.724 154.625 556.08 157.02 556.08 159.58V162.497H530.685V163.706C530.685 166.552 531.515 168.899 533.175 170.748C534.882 172.551 537.3 173.452 540.43 173.452C542.707 173.452 544.627 172.954 546.192 171.958C547.757 170.962 549.085 169.61 550.176 167.903L554.728 172.385C553.353 174.661 551.361 176.487 548.753 177.862C546.145 179.19 543.11 179.854 539.648 179.854ZM539.648 147.203C538.32 147.203 537.087 147.44 535.949 147.914C534.858 148.389 533.91 149.053 533.103 149.906C532.345 150.76 531.752 151.779 531.325 152.965C530.898 154.151 530.685 155.455 530.685 156.877V157.375H547.899V156.664C547.899 153.819 547.164 151.542 545.694 149.835C544.224 148.08 542.209 147.203 539.648 147.203ZM564.663 179V142.01H572.417V148.128H572.772C573.579 146.136 574.788 144.476 576.4 143.148C578.06 141.821 580.313 141.157 583.158 141.157C586.952 141.157 589.892 142.413 591.979 144.927C594.113 147.393 595.18 150.926 595.18 155.526V179H587.426V156.522C587.426 150.736 585.102 147.843 580.455 147.843C579.459 147.843 578.463 147.986 577.467 148.27C576.519 148.507 575.665 148.887 574.906 149.408C574.148 149.93 573.531 150.594 573.057 151.4C572.63 152.206 572.417 153.155 572.417 154.245V179H564.663ZM620.224 179.854C617.569 179.854 615.197 179.403 613.111 178.502C611.024 177.601 609.27 176.321 607.847 174.661C606.424 172.954 605.334 170.914 604.575 168.543C603.816 166.125 603.437 163.445 603.437 160.505C603.437 157.565 603.816 154.909 604.575 152.538C605.334 150.12 606.424 148.08 607.847 146.421C609.27 144.713 611.024 143.409 613.111 142.508C615.197 141.607 617.569 141.157 620.224 141.157C623.923 141.157 626.958 141.987 629.329 143.646C631.701 145.306 633.431 147.511 634.522 150.262L628.12 153.249C627.598 151.542 626.674 150.191 625.346 149.195C624.065 148.152 622.358 147.63 620.224 147.63C617.379 147.63 615.221 148.531 613.751 150.333C612.328 152.088 611.617 154.388 611.617 157.233V163.848C611.617 166.694 612.328 169.018 613.751 170.82C615.221 172.574 617.379 173.452 620.224 173.452C622.501 173.452 624.303 172.906 625.63 171.815C627.006 170.677 628.096 169.184 628.903 167.334L634.807 170.464C633.574 173.499 631.724 175.823 629.258 177.435C626.792 179.047 623.781 179.854 620.224 179.854ZM664.88 142.01H672.349L656.77 186.327C656.344 187.56 655.846 188.603 655.277 189.457C654.755 190.358 654.115 191.069 653.356 191.591C652.645 192.16 651.767 192.563 650.724 192.8C649.681 193.085 648.448 193.227 647.025 193.227H642.544V186.896H648.803L650.937 180.636L637.493 142.01H645.247L652.645 163.777L654.779 171.815H655.134L657.482 163.777L664.88 142.01ZM691.84 142.01H699.38L703.15 157.518L706.493 171.531H706.707L710.548 157.518L715.029 142.01H722L726.553 157.518L730.465 171.531H730.679L733.951 157.518L737.792 142.01H744.977L735.018 179H726.268L721.431 162.141L718.444 151.756H718.301L715.385 162.141L710.477 179H701.941L691.84 142.01ZM756.275 135.395C754.662 135.395 753.477 135.015 752.718 134.257C752.007 133.498 751.651 132.526 751.651 131.34V130.131C751.651 128.945 752.007 127.973 752.718 127.214C753.477 126.456 754.662 126.076 756.275 126.076C757.887 126.076 759.049 126.456 759.76 127.214C760.472 127.973 760.827 128.945 760.827 130.131V131.34C760.827 132.526 760.472 133.498 759.76 134.257C759.049 135.015 757.887 135.395 756.275 135.395ZM752.362 142.01H760.116V179H752.362V142.01ZM781.431 179C778.728 179 776.689 178.312 775.314 176.937C773.938 175.514 773.251 173.523 773.251 170.962V148.341H767.489V142.01H770.619C771.899 142.01 772.777 141.726 773.251 141.157C773.772 140.588 774.033 139.663 774.033 138.382V131.909H781.004V142.01H788.758V148.341H781.004V172.669H788.189V179H781.431ZM797.168 126.361H804.922V148.128H805.278C806.084 146.136 807.293 144.476 808.906 143.148C810.565 141.821 812.818 141.157 815.663 141.157C819.457 141.157 822.397 142.413 824.484 144.927C826.618 147.393 827.685 150.926 827.685 155.526V179H819.931V156.451C819.931 150.712 817.608 147.843 812.96 147.843C811.964 147.843 810.968 147.986 809.973 148.27C809.024 148.507 808.171 148.887 807.412 149.408C806.653 149.93 806.036 150.594 805.562 151.4C805.135 152.206 804.922 153.131 804.922 154.174V179H797.168V126.361Z" fill="white"/>
<path d="M195.516 220.876H203.27V226.994H203.626C204.432 224.765 205.736 223.058 207.538 221.872C209.388 220.639 211.545 220.023 214.011 220.023C218.706 220.023 222.334 221.73 224.895 225.144C227.456 228.511 228.736 233.254 228.736 239.371C228.736 245.489 227.456 250.255 224.895 253.669C222.334 257.036 218.706 258.72 214.011 258.72C211.545 258.72 209.388 258.103 207.538 256.87C205.736 255.637 204.432 253.93 203.626 251.748H203.27V272.093H195.516V220.876ZM211.664 252.033C214.367 252.033 216.525 251.179 218.137 249.472C219.749 247.718 220.556 245.418 220.556 242.572V236.17C220.556 233.325 219.749 231.048 218.137 229.341C216.525 227.587 214.367 226.709 211.664 226.709C209.293 226.709 207.301 227.302 205.689 228.488C204.076 229.626 203.27 231.143 203.27 233.04V245.702C203.27 247.599 204.076 249.14 205.689 250.326C207.301 251.464 209.293 252.033 211.664 252.033ZM237.613 257.866V220.876H245.367V227.99H245.723C246.244 226.093 247.335 224.433 248.995 223.01C250.655 221.588 252.955 220.876 255.895 220.876H257.958V228.345H254.899C251.816 228.345 249.445 228.843 247.785 229.839C246.173 230.835 245.367 232.305 245.367 234.249V257.866H237.613ZM279.008 258.72C276.447 258.72 274.1 258.269 271.966 257.368C269.879 256.467 268.101 255.187 266.631 253.527C265.161 251.82 264.023 249.78 263.217 247.409C262.41 244.991 262.007 242.311 262.007 239.371C262.007 236.431 262.41 233.775 263.217 231.404C264.023 228.986 265.161 226.946 266.631 225.287C268.101 223.579 269.879 222.275 271.966 221.374C274.1 220.473 276.447 220.023 279.008 220.023C281.569 220.023 283.893 220.473 285.979 221.374C288.113 222.275 289.915 223.579 291.386 225.287C292.856 226.946 293.994 228.986 294.8 231.404C295.606 233.775 296.009 236.431 296.009 239.371C296.009 242.311 295.606 244.991 294.8 247.409C293.994 249.78 292.856 251.82 291.386 253.527C289.915 255.187 288.113 256.467 285.979 257.368C283.893 258.269 281.569 258.72 279.008 258.72ZM279.008 252.318C281.664 252.318 283.798 251.511 285.41 249.899C287.023 248.239 287.829 245.773 287.829 242.501V236.241C287.829 232.969 287.023 230.527 285.41 228.914C283.798 227.255 281.664 226.425 279.008 226.425C276.353 226.425 274.219 227.255 272.606 228.914C270.994 230.527 270.188 232.969 270.188 236.241V242.501C270.188 245.773 270.994 248.239 272.606 249.899C274.219 251.511 276.353 252.318 279.008 252.318ZM306.153 227.207H300.533V220.876H306.153V214.759C306.153 211.771 306.935 209.447 308.5 207.788C310.065 206.08 312.412 205.227 315.542 205.227H321.66V211.558H313.906V220.876H335.887V257.866H328.133V227.207H313.906V257.866H306.153V227.207ZM332.045 214.261C330.433 214.261 329.247 213.881 328.489 213.123C327.777 212.364 327.422 211.392 327.422 210.206V208.997C327.422 207.811 327.777 206.839 328.489 206.08C329.247 205.322 330.433 204.942 332.045 204.942C333.658 204.942 334.82 205.322 335.531 206.08C336.242 206.839 336.598 207.811 336.598 208.997V210.206C336.598 211.392 336.242 212.364 335.531 213.123C334.82 213.881 333.658 214.261 332.045 214.261ZM357.197 257.866C354.494 257.866 352.455 257.178 351.08 255.803C349.705 254.38 349.017 252.389 349.017 249.828V227.207H343.255V220.876H346.385C347.665 220.876 348.543 220.592 349.017 220.023C349.539 219.454 349.799 218.529 349.799 217.248V210.775H356.771V220.876H364.524V227.207H356.771V251.535H363.955V257.866H357.197ZM400.037 257.866C397.998 257.866 396.433 257.297 395.342 256.159C394.251 254.973 393.587 253.479 393.35 251.677H392.994C392.283 254.001 390.979 255.756 389.082 256.941C387.185 258.127 384.885 258.72 382.182 258.72C378.341 258.72 375.377 257.724 373.29 255.732C371.251 253.74 370.232 251.061 370.232 247.694C370.232 243.995 371.559 241.221 374.215 239.371C376.918 237.522 380.854 236.597 386.023 236.597H392.71V233.467C392.71 231.191 392.093 229.436 390.86 228.203C389.627 226.97 387.707 226.354 385.099 226.354C382.917 226.354 381.139 226.828 379.763 227.776C378.388 228.725 377.226 229.934 376.278 231.404L371.654 227.207C372.887 225.121 374.618 223.413 376.847 222.086C379.076 220.71 381.992 220.023 385.596 220.023C390.386 220.023 394.061 221.137 396.622 223.366C399.183 225.595 400.463 228.796 400.463 232.969V251.535H404.376V257.866H400.037ZM384.387 252.815C386.806 252.815 388.798 252.294 390.362 251.251C391.927 250.16 392.71 248.713 392.71 246.911V241.576H386.166C380.807 241.576 378.127 243.236 378.127 246.556V247.836C378.127 249.496 378.673 250.753 379.763 251.606C380.902 252.412 382.443 252.815 384.387 252.815ZM411.975 205.227H419.729V226.994H420.084C420.89 224.765 422.195 223.058 423.997 221.872C425.846 220.639 428.004 220.023 430.47 220.023C435.165 220.023 438.792 221.73 441.353 225.144C443.914 228.511 445.195 233.254 445.195 239.371C445.195 245.489 443.914 250.255 441.353 253.669C438.792 257.036 435.165 258.72 430.47 258.72C428.004 258.72 425.846 258.103 423.997 256.87C422.195 255.637 420.89 253.93 420.084 251.748H419.729V257.866H411.975V205.227ZM428.122 252.033C430.825 252.033 432.983 251.179 434.596 249.472C436.208 247.718 437.014 245.418 437.014 242.572V236.17C437.014 233.325 436.208 231.048 434.596 229.341C432.983 227.587 430.825 226.709 428.122 226.709C425.751 226.709 423.76 227.302 422.147 228.488C420.535 229.626 419.729 231.143 419.729 233.04V245.702C419.729 247.599 420.535 249.14 422.147 250.326C423.76 251.464 425.751 252.033 428.122 252.033ZM461.968 257.866C459.312 257.866 457.32 257.202 455.992 255.874C454.712 254.499 454.072 252.602 454.072 250.183V205.227H461.825V251.535H466.947V257.866H461.968ZM488.868 258.72C486.212 258.72 483.841 258.269 481.754 257.368C479.668 256.467 477.889 255.187 476.419 253.527C474.949 251.82 473.811 249.78 473.005 247.409C472.246 244.991 471.866 242.311 471.866 239.371C471.866 236.431 472.246 233.775 473.005 231.404C473.811 228.986 474.949 226.946 476.419 225.287C477.889 223.579 479.668 222.275 481.754 221.374C483.841 220.473 486.212 220.023 488.868 220.023C491.571 220.023 493.942 220.497 495.981 221.445C498.068 222.394 499.798 223.722 501.174 225.429C502.549 227.089 503.569 229.033 504.232 231.262C504.944 233.491 505.299 235.886 505.299 238.446V241.363H479.905V242.572C479.905 245.418 480.735 247.765 482.394 249.614C484.102 251.416 486.52 252.318 489.65 252.318C491.926 252.318 493.847 251.82 495.412 250.824C496.977 249.828 498.305 248.476 499.395 246.769L503.948 251.251C502.573 253.527 500.581 255.353 497.973 256.728C495.364 258.056 492.329 258.72 488.868 258.72ZM488.868 226.069C487.54 226.069 486.307 226.306 485.169 226.78C484.078 227.255 483.129 227.919 482.323 228.772C481.564 229.626 480.972 230.645 480.545 231.831C480.118 233.016 479.905 234.321 479.905 235.743V236.241H497.119V235.53C497.119 232.685 496.384 230.408 494.914 228.701C493.444 226.946 491.428 226.069 488.868 226.069ZM530.694 257.866V220.876H538.447V227.99H538.803C539.325 226.093 540.415 224.433 542.075 223.01C543.735 221.588 546.035 220.876 548.975 220.876H551.038V228.345H547.979C544.897 228.345 542.526 228.843 540.866 229.839C539.254 230.835 538.447 232.305 538.447 234.249V257.866H530.694ZM584.471 257.866C582.432 257.866 580.867 257.297 579.776 256.159C578.686 254.973 578.022 253.479 577.784 251.677H577.429C576.717 254.001 575.413 255.756 573.516 256.941C571.62 258.127 569.32 258.72 566.616 258.72C562.775 258.72 559.811 257.724 557.725 255.732C555.686 253.74 554.666 251.061 554.666 247.694C554.666 243.995 555.994 241.221 558.649 239.371C561.353 237.522 565.289 236.597 570.458 236.597H577.144V233.467C577.144 231.191 576.528 229.436 575.295 228.203C574.062 226.97 572.141 226.354 569.533 226.354C567.351 226.354 565.573 226.828 564.198 227.776C562.823 228.725 561.661 229.934 560.712 231.404L556.089 227.207C557.322 225.121 559.053 223.413 561.281 222.086C563.51 220.71 566.427 220.023 570.031 220.023C574.821 220.023 578.496 221.137 581.057 223.366C583.617 225.595 584.898 228.796 584.898 232.969V251.535H588.81V257.866H584.471ZM568.822 252.815C571.24 252.815 573.232 252.294 574.797 251.251C576.362 250.16 577.144 248.713 577.144 246.911V241.576H570.6C565.241 241.576 562.562 243.236 562.562 246.556V247.836C562.562 249.496 563.107 250.753 564.198 251.606C565.336 252.412 566.877 252.815 568.822 252.815ZM606.444 257.866C603.741 257.866 601.702 257.178 600.327 255.803C598.951 254.38 598.264 252.389 598.264 249.828V227.207H592.502V220.876H595.632C596.912 220.876 597.79 220.592 598.264 220.023C598.786 219.454 599.046 218.529 599.046 217.248V210.775H606.017V220.876H613.771V227.207H606.017V251.535H613.202V257.866H606.444ZM636.415 258.72C633.759 258.72 631.388 258.269 629.302 257.368C627.215 256.467 625.437 255.187 623.967 253.527C622.496 251.82 621.358 249.78 620.552 247.409C619.793 244.991 619.414 242.311 619.414 239.371C619.414 236.431 619.793 233.775 620.552 231.404C621.358 228.986 622.496 226.946 623.967 225.287C625.437 223.579 627.215 222.275 629.302 221.374C631.388 220.473 633.759 220.023 636.415 220.023C639.118 220.023 641.489 220.497 643.528 221.445C645.615 222.394 647.346 223.722 648.721 225.429C650.096 227.089 651.116 229.033 651.78 231.262C652.491 233.491 652.847 235.886 652.847 238.446V241.363H627.452V242.572C627.452 245.418 628.282 247.765 629.942 249.614C631.649 251.416 634.068 252.318 637.197 252.318C639.474 252.318 641.394 251.82 642.959 250.824C644.524 249.828 645.852 248.476 646.943 246.769L651.495 251.251C650.12 253.527 648.128 255.353 645.52 256.728C642.912 258.056 639.877 258.72 636.415 258.72ZM636.415 226.069C635.087 226.069 633.854 226.306 632.716 226.78C631.625 227.255 630.677 227.919 629.871 228.772C629.112 229.626 628.519 230.645 628.092 231.831C627.666 233.016 627.452 234.321 627.452 235.743V236.241H644.667V235.53C644.667 232.685 643.932 230.408 642.461 228.701C640.991 226.946 638.976 226.069 636.415 226.069ZM673.167 258.72C669.658 258.72 666.718 258.103 664.347 256.87C661.976 255.637 659.913 253.93 658.158 251.748L663.138 247.196C664.513 248.856 666.03 250.16 667.69 251.108C669.397 252.009 671.365 252.46 673.594 252.46C675.87 252.46 677.554 252.033 678.645 251.179C679.783 250.278 680.352 249.045 680.352 247.48C680.352 246.295 679.949 245.299 679.143 244.493C678.384 243.639 677.032 243.094 675.088 242.857L671.674 242.43C667.88 241.956 664.892 240.865 662.711 239.158C660.577 237.403 659.51 234.819 659.51 231.404C659.51 229.602 659.842 228.013 660.506 226.638C661.169 225.215 662.094 224.03 663.28 223.081C664.513 222.086 665.959 221.327 667.619 220.805C669.326 220.283 671.199 220.023 673.239 220.023C676.558 220.023 679.261 220.544 681.348 221.588C683.482 222.631 685.379 224.077 687.039 225.927L682.273 230.479C681.324 229.341 680.067 228.369 678.502 227.563C676.985 226.709 675.23 226.282 673.239 226.282C671.105 226.282 669.516 226.709 668.473 227.563C667.477 228.416 666.979 229.531 666.979 230.906C666.979 232.329 667.429 233.396 668.33 234.107C669.231 234.819 670.678 235.34 672.669 235.672L676.084 236.099C680.162 236.715 683.126 237.925 684.976 239.727C686.873 241.481 687.821 243.853 687.821 246.84C687.821 248.642 687.465 250.278 686.754 251.748C686.09 253.171 685.118 254.404 683.838 255.447C682.557 256.491 681.016 257.297 679.214 257.866C677.412 258.435 675.396 258.72 673.167 258.72Z" fill="url(#paint1_linear_23_326)"/>
</g>
<defs>
<filter id="filter0_d_23_326" x="0.393066" y="0.0762939" width="877.292" height="326.016" filterUnits="userSpaceOnUse" color-interpolation-filters="sRGB">
<feFlood flood-opacity="0" result="BackgroundImageFix"/>
<feColorMatrix in="SourceAlpha" type="matrix" values="0 0 0 0 0 0 0 0 0 0 0 0 0 0 0 0 0 0 127 0" result="hardAlpha"/>
<feOffset dy="4"/>
<feGaussianBlur stdDeviation="25"/>
<feComposite in2="hardAlpha" operator="out"/>
<feColorMatrix type="matrix" values="0 0 0 0 0 0 0 0 0 0 0 0 0 0 0 0 0 0 1 0"/>
<feBlend mode="normal" in2="BackgroundImageFix" result="effect1_dropShadow_23_326"/>
<feBlend mode="normal" in="SourceGraphic" in2="effect1_dropShadow_23_326" result="shape"/>
</filter>
<linearGradient id="paint0_linear_23_326" x1="311.191" y1="118.714" x2="561.876" y2="118.714" gradientUnits="userSpaceOnUse">
<stop stop-color="#A661FF"/>
<stop offset="0.479167" stop-color="#4954FF"/>
<stop offset="1" stop-color="#11C9FF"/>
</linearGradient>
<linearGradient id="paint1_linear_23_326" x1="83.6443" y1="229.208" x2="770.68" y2="229.208" gradientUnits="userSpaceOnUse">
<stop stop-color="#A661FF"/>
<stop offset="0.479167" stop-color="#4954FF"/>
<stop offset="1" stop-color="#11C9FF"/>
</linearGradient>
</defs>
</svg>
