<svg width="89" height="46" viewBox="0 0 89 46" fill="none" xmlns="http://www.w3.org/2000/svg">
<path d="M55.0036 4.02344L88.7544 4.02344M53.0183 21.8915H88.7544M51.033 41.7449H88.7544" stroke="url(#paint0_linear_302_805)" stroke-width="7.94136"/>
<path d="M63.9809 1.12881L64.1485 0.5H63.4977H53.9819H53.5776L53.493 0.895426L47.1033 30.7709C47.103 30.7721 47.1028 30.7732 47.1025 30.7744C47.0003 31.221 46.9095 31.6705 46.8298 32.1229C46.7496 31.6946 46.6631 31.2973 46.5702 30.9313C46.5701 30.9308 46.57 30.9303 46.5698 30.9299L39.1283 0.879812L39.0343 0.5H38.643H28.6727H28.2918L28.1907 0.867154L20.0099 30.5508L20.009 30.5542C19.8476 31.1562 19.7071 31.7441 19.5874 32.318C19.505 31.741 19.4108 31.2081 19.3046 30.7195L19.3044 30.7187L12.7712 0.893013L12.6851 0.5H12.2828H2H1.34922L1.51688 1.12881L13.2483 45.1288L13.3473 45.5H13.7314H24.5539H24.9378L25.0369 45.1291L32.7062 16.4403C32.8258 15.9954 32.9358 15.5105 33.0364 14.9861C33.1287 15.4748 33.236 15.9577 33.3581 16.4346L33.3587 16.437L40.8578 45.1264L40.9554 45.5H41.3415H51.7663H52.1505L52.2494 45.1288L63.9809 1.12881Z" fill="white" stroke="white"/>
<defs>
<linearGradient id="paint0_linear_302_805" x1="51.239" y1="22.1024" x2="94.6162" y2="22.1024" gradientUnits="userSpaceOnUse">
<stop stop-color="#A661FF"/>
<stop offset="0.479167" stop-color="#4954FF"/>
<stop offset="1" stop-color="#11C9FF"/>
</linearGradient>
</defs>
</svg>
