<svg width="218" height="22" viewBox="0 0 218 22" fill="none" xmlns="http://www.w3.org/2000/svg">
<path d="M47.4504 4.9182C68.1569 4.30278 88.8747 3.90715 109.593 3.73132C130.31 3.55548 150.837 3.61409 171.453 3.8925C183.164 4.05368 194.887 4.27347 206.599 4.56653L208.188 1.5627C181.451 2.16346 154.725 2.91076 128 3.80458C101.274 4.69841 74.5481 5.73876 47.8223 6.94029C32.8194 7.61432 17.8277 8.31766 2.82478 9.0796C1.94557 9.12356 0.626753 9.41662 0.130788 10.5302C-0.331361 11.5706 0.525306 12.1127 1.23544 12.0834C29.0884 11.1603 56.9639 11.0724 84.8281 11.8343C112.692 12.5963 140.534 14.2227 168.342 16.6844C183.965 18.0618 199.576 19.7176 215.165 21.6371C216.011 21.7397 217.409 21.1975 217.859 20.1865C218.355 19.0875 217.431 18.7065 216.755 18.6333C189.015 15.2191 161.207 12.6402 133.376 10.9112C105.546 9.18217 77.6704 8.31766 49.8062 8.303C34.1495 8.303 18.4928 8.5521 2.83605 9.0796L1.24671 12.0834C27.9612 10.7207 54.687 9.51919 81.4127 8.44953C108.138 7.39453 134.864 6.4714 161.59 5.70945C176.593 5.28452 191.607 4.88889 206.61 4.55188C207.489 4.53722 208.819 4.20021 209.304 3.10125C209.789 2.00228 208.898 1.5627 208.199 1.54804C187.47 1.04985 166.764 0.742139 146.046 0.668875C125.328 0.59561 104.802 0.727486 84.1856 1.09381C72.4741 1.29895 60.7513 1.57735 49.0397 1.92902C48.1605 1.95832 46.8304 2.28069 46.3457 3.37965C45.8836 4.42 46.7402 4.96216 47.4504 4.93285V4.9182Z" fill="url(#paint0_linear_23_327)"/>
<defs>
<linearGradient id="paint0_linear_23_327" x1="1.19097" y1="10.7142" x2="251.876" y2="10.7142" gradientUnits="userSpaceOnUse">
<stop stop-color="#A661FF"/>
<stop offset="0.479167" stop-color="#4954FF"/>
<stop offset="1" stop-color="#11C9FF"/>
</linearGradient>
</defs>
</svg>
