<?xml version="1.0" encoding="utf-8"?>
<!-- Generator: Adobe Illustrator 27.2.0, SVG Export Plug-In . SVG Version: 6.00 Build 0)  -->
<svg version="1.1" id="Layer_1" xmlns="http://www.w3.org/2000/svg" xmlns:xlink="http://www.w3.org/1999/xlink" x="0px" y="0px"
	 viewBox="0 0 30 30" style="enable-background:new 0 0 30 30;" xml:space="preserve">
<style type="text/css">
	.st0{fill:#FFD71C;}
</style>
<g id="Layer_2_00000088854488204890392040000010512012570569813396_">
	<g id="Слой_1">
		<circle class="st0" cx="10.8" cy="10.6" r="10.6"/>
	</g>
</g>
<g>
	<polygon points="23.1,26.4 23.1,26.4 23.1,26.4 23.1,26.4 	"/>
	<path d="M22.9,26.3c0,0,0-0.1-0.1-0.1l-0.1-0.1c-0.3-0.3-0.2-1.1-0.1-1.6c0.1-0.3,0.2-0.4,0.3-0.5c0.2-0.3,0.4-0.7,0.7-0.8
		c0.1,0,0.2,0,0.2,0.1c0.3-0.3,0.8-0.3,1.1-0.1c0.2,0.1,0.4,0.2,0.6,0.2c0.4,0.1,0.8,0.2,1,0.9c0,0,0.1,0.1,0.1,0.3
		c0.4-0.3,1.5-0.7,2-0.9c-0.1-0.1-0.1-0.2-0.1-0.3c-0.4-1-1.2-1.7-2.3-2.1c-1.1-0.4-2.3-0.4-3.2,0.1l-0.1,0l-0.1-0.1
		c-0.4-0.4-1.2-1.2-2.1-2.1c-1.1-1.2-2.4-2.5-2.9-2.9l-0.1-0.1l0.3-0.3c-0.6-0.5-1.8-1.9-2.8-2.9c-0.6-0.7-1.1-1.2-1.4-1.5l-0.1-0.1
		l0-0.1c0.4-1.2,0.3-2.2-0.2-3.2l0-0.1c0-0.1-0.1-0.3-0.2-0.3l0,0c-0.2,0.1-0.8,0.4-1.1,0.6c-0.4,0.2-0.6,0.4-0.8,0.4
		c0.1,0.1,0.1,0.2,0.1,0.3c0.3,0.6,0.2,1.6-0.3,2.3c-0.2,0.3-0.5,0.5-0.8,0.5c-0.3,0-0.6,0-0.9,0.2l0,0l0,0c-0.1,0-0.2,0-0.3,0
		c-0.2,0-0.5,0-0.6-0.3c-0.4-0.2-0.6-0.7-0.6-0.9C8,10.8,8,10.7,8,10.6c-0.2,0.1-0.6,0.3-1.3,0.6c-0.2,0.1-0.5,0.2-0.7,0.3l0.1,0.3
		c0.7,1.8,3,2.8,5,2.2l0.1,0l0.1,0.1c0.4,0.4,1.3,1.3,2.1,2.2c0.8,0.8,1.6,1.7,2,2.1c0,0,0.1-0.1,0.1-0.1c0,0,0.1,0,0.1,0V18
		l0.2,0.3c0.5,0.6,1.9,2,3.1,3.2c0.9,0.9,1.6,1.6,1.9,1.9l0.2,0.2h-0.2c-0.1,0.1-0.2,0.5-0.2,0.9l0,0c-0.2,0.6-0.2,2.1,0.3,2.7
		l0,0.1c0,0.2,0.1,0.2,0.1,0.3c0,0,0.1-0.1,0.1-0.1c0.2-0.2,0.5-0.4,1-0.4C22.3,26.7,22.7,26.4,22.9,26.3z M15.5,17.1h-0.1l0-0.1
		c-0.3-0.4-1-1.1-1.8-1.8c-0.9-0.9-1.8-1.8-2.2-2.4c0,0-0.1,0.1-0.1,0.1c-0.3,0.2-0.7,0.4-1,0.3c-1.3,0.3-2.6-0.6-3.3-1.6l-0.1-0.1
		l0.1-0.1c0.4-0.3,0.5-0.3,0.6-0.2l0.1,0.1l0,0c0.2,0.4,0.9,0.8,1.7,1c0.7,0.2,1.4,0.1,1.7-0.2l0,0c1.3-0.6,1.8-1.8,1.4-3.3l0-0.1
		l0.1,0c0.3-0.2,0.5-0.1,0.6,0c0.4,0.4,0.1,1.9-0.2,2.6c0.5,0.4,1.7,1.7,2.8,2.9c0.5,0.6,1,1.1,1.3,1.4l0,0v0.1
		C16.9,16,15.7,17.1,15.5,17.1z M21.9,25.3c0,0.5,0,0.8-0.2,0.9c-0.1,0-0.1,0.1-0.2,0.1c0,0-0.1,0-0.2,0l-0.1,0l0-0.1
		c-0.2-1.6-0.2-1.8,0.6-3.1c-0.8-1-1.9-2-2.9-3c-0.9-0.9-1.8-1.8-2.5-2.6l0,0v0c0-0.1,0.6-0.9,0.8-0.9c0.1,0,0.1,0,0.1,0.1
		c0,0,0,0,0,0.1c0.3,0.3,0.5,0.6,0.8,0.9c1.3,1.4,3,3.2,4.2,4.4c0,0,0.1,0.1,0.1,0.1c0.2,0.2,0.2,0.2,0.4,0.1c2.1-1,3.7-0.6,4.7,1
		l0,0v0c0,0.2-0.2,0.2-0.3,0.2c0,0-0.1,0-0.1,0l0,0.3L27,23.4c-0.2-0.2-0.3-0.3-0.5-0.5c-0.1-0.1-0.3-0.2-0.4-0.4
		c-0.2,0-0.3-0.1-0.5-0.2c-0.3-0.2-0.5-0.3-0.7-0.1c-0.1,0-0.1,0.1-0.2,0.1c-0.4,0.3-0.9,0.6-1.2,0.2C22.1,23.1,22,24.4,21.9,25.3z"
		/>
	<path d="M29.6,25.7c0-0.1-0.1-0.2-0.1-0.2c-0.1-0.1-0.1-0.2-0.2-0.3l0,0c0,0-0.1,0.1-0.2,0.2l0,0c-0.2,0.1-0.4,0.2-0.7,0.3
		C28,25.8,27.6,26,27,26.2l0,0c0,0,0,0-0.1,0v0l-0.1,0c-0.1,0-0.1,0-0.5-0.9c-0.1-0.3-0.3-0.7-0.4-0.8c-0.1-0.1-0.3-0.2-0.5-0.3
		c-0.2-0.2-0.4-0.3-0.7-0.4c-0.7,0.2-1.2,0.5-1.4,0.8c-0.1,0.3-0.1,0.6,0.1,1.1l0,0c0,0,0,0.1,0.1,0.1l0,0c0.1,0.1,0.1,0.2,0.1,0.3
		c0,0.1,0,0.1,0.1,0.2l0.3,0.6c0.1,0.1,0.3,0.4,0.3,0.6v0.1l-0.1,0.1c-0.3,0.2-0.7,0.4-1,0.5c-0.4,0.1-0.8,0.2-1.1,0.4
		c-0.2,0.1-0.2,0.2-0.2,0.4c0,0.2,0.1,0.4,0.2,0.6c0,0,0,0.1,0.1,0.1c0,0,0.1,0.1,0.1,0.1c0,0,0,0,0,0c0,0,0,0,0,0c0,0,0,0,0.1-0.1
		l0,0c0.2-0.1,0.5-0.2,0.7-0.3c0.2-0.1,0.5-0.2,0.7-0.3l0,0c0.1,0,0.3-0.1,0.4-0.2c0.1-0.1,0.3-0.2,0.5-0.3c0.2-0.1,0.3-0.1,0.5-0.2
		c0.2-0.1,0.3-0.2,0.5-0.3c0.2-0.1,0.3-0.1,0.5-0.2c1.2-0.6,2.4-1.2,3.6-1.7l0,0C30,26.1,29.7,25.8,29.6,25.7L29.6,25.7z M26.1,27.4
		c-0.1,0.3-0.5,0.3-0.7,0.3c-0.4,0-0.5-0.4-0.6-0.7c0-0.1-0.1-0.2-0.1-0.3c0-0.1-0.1-0.2-0.1-0.3l-0.3-0.6c0,0-0.1-0.2-0.1-0.3
		c-0.1-0.3,0-0.5,0.2-0.7c0.2-0.2,0.4-0.2,0.6-0.2c0.2,0,0.3,0.2,0.4,0.4l0,0c0,0.2,0.1,0.3,0.2,0.5c0.1,0.1,0.1,0.2,0.2,0.3
		c0.1,0.1,0.2,0.3,0.2,0.4c0,0.1,0.1,0.2,0.1,0.3C26.1,26.7,26.3,27.1,26.1,27.4z"/>
	<path d="M7.7,8.5c0.2,0.4,0.4,0.8,0.5,1.1c0,0.1,0.1,0.2,0.2,0.3c0.1,0.1,0.2,0.2,0.2,0.3c0.3,0.5,0.7,0.7,1,0.7
		c0.5,0,1.1-0.3,1.4-0.8c0.1-0.2,0.2-0.6,0-0.9c0,0,0,0-0.1,0c-0.1-0.1-0.9-1.4-0.8-1.8c0-0.2,0.4-0.3,0.5-0.3
		c0.1,0,0.3-0.1,0.4-0.2c0.2-0.1,0.3-0.2,0.5-0.2c0.1,0,0.3-0.1,0.4-0.1c0.1-0.1,0.3-0.1,0.4-0.2c0,0,0.1,0,0.1-0.1
		c0.1,0,0.3-0.1,0.3-0.2c-0.1-0.1-0.2-0.3-0.3-0.5c-0.1-0.2-0.1-0.3-0.2-0.5l0,0l0,0c-0.1,0-0.4,0.1-0.5,0.2
		c-0.1,0.1-0.2,0.1-0.2,0.1c-0.2,0.1-0.3,0.2-0.5,0.2c-0.2,0.1-0.3,0.1-0.5,0.2c-0.4,0.2-0.8,0.4-1.2,0.6C8.7,6.8,8.2,7,7.7,7.3l0,0
		C6.9,7.4,6.5,7.7,6,8C5.8,8.1,5.7,8.1,5.5,8.2C5.4,8.2,5.3,8.3,5.1,8.3c-0.1,0-0.1,0-0.2,0.1C4.7,8.4,4.6,8.5,4.5,8.6v0
		c0.1,0.2,0.2,0.4,0.3,0.7c0,0,0.1,0.1,0.1,0.2c0,0.1,0.1,0.2,0.2,0.2c0,0,0,0,0,0c0,0,0,0,0.1-0.1l0,0C6,9.3,6.8,8.9,7.5,8.5
		l0.1-0.1L7.7,8.5z M8.3,7.7L8.3,7.7c0.2-0.2,0.8-0.5,0.9-0.4l0.1,0l0,0.1c0,0.1,0.3,0.7,0.5,1.1c0.4,0.8,0.5,1,0.5,1.1
		c0.1,0.3,0,0.6-0.3,0.7l-0.1,0l-0.1-0.1c0,0-0.1,0-0.2,0c-0.1,0-0.2,0.1-0.3,0c-0.1-0.1-0.1-0.1-0.1-0.3c0-0.1-0.8-1.9-1-2.1l0,0
		C8.3,7.8,8.3,7.8,8.3,7.7L8.3,7.7z"/>
</g>
</svg>
