<?xml version="1.0" encoding="utf-8"?>
<!-- Generator: Adobe Illustrator 25.2.0, SVG Export Plug-In . SVG Version: 6.00 Build 0)  -->
<svg version="1.1" id="Слой_1" xmlns="http://www.w3.org/2000/svg" xmlns:xlink="http://www.w3.org/1999/xlink" x="0px" y="0px"
	 viewBox="0 0 40 40" style="enable-background:new 0 0 40 40;" xml:space="preserve">
<style type="text/css">
	.st0{fill:#FFD71C;}
	.st1{fill:#010101;}
	.st2{fill:none;stroke:#010101;stroke-width:0.4044;stroke-miterlimit:10;}
	.st3{fill:none;stroke:#010101;stroke-width:0.534;stroke-linecap:round;stroke-linejoin:round;stroke-miterlimit:10;}
	.st4{fill:#010101;stroke:#010101;stroke-width:0.178;stroke-miterlimit:10;}
	.st5{fill:none;stroke:#010101;stroke-width:0.395;stroke-linecap:round;stroke-linejoin:round;stroke-miterlimit:10;}
	.st6{fill:none;stroke:#010101;stroke-width:0.3256;stroke-linecap:round;stroke-linejoin:round;stroke-miterlimit:10;}
	.st7{fill:none;stroke:#010101;stroke-width:1.0195;stroke-linecap:round;stroke-linejoin:round;stroke-miterlimit:10;}
	.st8{fill:#FFFFFF;}
	.st9{fill:none;stroke:#010101;stroke-width:0.5279;stroke-linecap:round;stroke-linejoin:round;stroke-miterlimit:10;}
	.st10{fill:none;stroke:#010101;stroke-width:0.7388;stroke-miterlimit:10;}
	.st11{fill:none;stroke:#010101;stroke-width:0.7604;stroke-linecap:round;stroke-linejoin:round;stroke-miterlimit:10;}
	.st12{fill:none;stroke:#010101;stroke-width:0.8761;stroke-linecap:round;stroke-linejoin:round;stroke-miterlimit:10;}
	.st13{fill:none;stroke:#010101;stroke-width:0.7244;stroke-linecap:round;stroke-linejoin:round;stroke-miterlimit:10;}
	.st14{fill:none;stroke:#010101;stroke-width:0.5433;stroke-linecap:round;stroke-linejoin:round;stroke-miterlimit:10;}
	.st15{fill:#010101;stroke:#010101;stroke-width:0.5962;stroke-miterlimit:10;}
	.st16{fill:#010101;stroke:#010101;stroke-width:0.5962;stroke-linecap:round;stroke-linejoin:round;stroke-miterlimit:10;}
	.st17{opacity:0.51;enable-background:new    ;}
	.st18{fill:none;stroke:#000000;stroke-width:0.911;stroke-linecap:round;stroke-linejoin:round;stroke-miterlimit:10;}
	.st19{fill:none;stroke:#000000;stroke-width:0.8728;stroke-linecap:round;stroke-linejoin:round;stroke-miterlimit:10;}
	.st20{fill:none;stroke:#000000;stroke-width:0.7103;stroke-linecap:round;stroke-linejoin:round;stroke-miterlimit:10;}
	.st21{fill:none;stroke:#010101;stroke-width:0.8441;stroke-linecap:round;stroke-linejoin:round;stroke-miterlimit:10;}
</style>
<circle class="st0" cx="16.3" cy="17" r="11"/>
<g>
	<g id="Слой_2_4_">
		<g>
			<g>
				<g>
					<path class="st1" d="M29.2,24.2l3-0.1L32,24.3l0.4-0.4c0.1-0.1,0.2-0.1,0.2,0c0,0,0.1,0.1,0,0.2l-0.2,0.6
						c0,0.1-0.1,0.2-0.2,0.2h-0.1h-3c-0.2,0-0.2-0.1-0.2-0.2C29.1,24.3,29.2,24.2,29.2,24.2z"/>
				</g>
				<g>
					<path class="st1" d="M32.4,22.9c0.1,0.3,0.2,0.7,0.2,1l-0.2-0.2l0,0c0.2,0,0.4,0.1,0.6,0.2c0.1,0.1,0.1,0.1,0.2,0.2
						c0,0.1,0.1,0.2,0.1,0.2c0,0.1,0.1,0.2,0.1,0.2c0.1,0.3,0.1,0.6,0.1,0.9c0,0.6,0,1.3-0.1,1.9c0,0.2-0.1,0.3-0.2,0.5
						c-0.1,0.2-0.1,0.4-0.5,0.6c-0.2,0.1-0.2,0.1-0.2,0.2c-0.1,0.1-0.2,0.2-0.2,0.3c-0.3,0.5-0.6,1-0.9,1.6s-0.6,1-1.1,1.6
						c-0.4,0.5-0.9,0.9-1.4,1.3c-1,0.8-2.2,1.3-3.5,1.6c-1.3,0.3-2.5,0.4-3.8,0.2c-1.3-0.2-2.5-0.5-3.7-1.1c-2.3-1.3-4-3.4-4.9-5.8
						c-0.9-2.5-0.8-5.1,0.2-7.5c0.5-1.2,1.2-2.3,2.1-3.2c0.9-0.9,2-1.6,3.2-2.1c4.5-2,9.1-3.6,13.8-5.4l0,0l-0.2,0.3V9.6l0,0
						c0-0.1,0-0.2,0.1-0.2l0,0l0.4-0.3l0,0c0.1-0.1,0.2-0.1,0.3,0.1c0,0,0,0,0,0.1v0.1c0.6,1.4,1.3,2.9,1.8,4.4
						c0.6,1.5,1.2,2.9,1.6,4.5l0,0c0.1,0.1,0,0.2-0.1,0.3l0,0l-0.3,0.2l0,0c-0.1,0.1-0.2,0-0.3-0.1v-0.1l-0.4-0.6l0,0l0.2,0.1
						l-5.4,0.9l0.2-0.6c0.6,0.7,1.1,1.4,1.6,2.1C31.8,21.3,32.2,22.1,32.4,22.9z M31.9,23.1c-0.2-0.8-0.6-1.6-1-2.3
						c-0.5-0.7-0.9-1.4-1.5-2.1l0,0c-0.1-0.2-0.1-0.3,0-0.5c0.1-0.1,0.1-0.1,0.2-0.1l5.5-0.9l0,0c0.1,0,0.2,0,0.2,0.1l0,0l0.4,0.6
						h-0.3l0,0l0.4-0.1l-0.2,0.3l0,0c-0.8-1.4-1.3-2.9-1.8-4.3c-0.6-1.5-1.1-3-1.6-4.5l0.3,0.2l0,0L32,9.8l0.1-0.2l0,0l0.2,0.8
						c0,0.2,0,0.2-0.2,0.3h-0.1l0,0c-4.6,1.8-9.2,3.6-13.6,5.5c-1,0.5-2.1,1.2-2.8,2.1c-0.8,0.9-1.4,1.8-1.8,2.9
						c-0.8,2.2-0.9,4.7-0.1,6.9s2.5,4,4.5,5.1c2.1,1,4.5,1.4,6.8,0.9c1.1-0.2,2.2-0.7,3.2-1.3c0.5-0.3,0.9-0.7,1.3-1.1
						c0.4-0.5,0.7-0.9,1-1.4c0.3-0.5,0.6-1,0.9-1.6c0.1-0.2,0.2-0.3,0.4-0.4c0.2-0.2,0.4-0.2,0.6-0.2c-0.1,0.1,0,0,0.1-0.2
						c0.1-0.1,0.1-0.2,0.1-0.4c0.1-0.6,0.2-1.2,0.2-1.7c0-0.3,0-0.6-0.1-0.9c0-0.1,0-0.2-0.1-0.2c0-0.1,0-0.1,0-0.1l0,0
						c0-0.1-0.2-0.2-0.2-0.2l0,0c0,0,0,0.1-0.1,0.1c0,0-0.1,0-0.1-0.1l0-0.4C32,23.7,31.9,23.4,31.9,23.1z"/>
				</g>
				<g>
					<g>
						<path class="st1" d="M26.8,25c0,1-0.4,2-1.1,2.7c-0.7,0.7-1.7,1.2-2.7,1.2c-1,0-2.1-0.4-2.8-1.1C19.4,27,19,26,19,25
							s0.5-2.1,1.2-2.8s1.8-1.1,2.8-1.1c1,0,2.1,0.5,2.7,1.2C26.4,23,26.8,24,26.8,25z M26.3,25c0-0.9-0.4-1.7-1-2.4
							s-1.5-0.9-2.4-0.9s-1.7,0.4-2.3,1c-0.6,0.6-0.9,1.5-0.9,2.3c0,0.9,0.3,1.7,0.9,2.3s1.4,1,2.3,1s1.7-0.3,2.4-0.9
							C26,26.8,26.3,25.9,26.3,25z"/>
					</g>
					<g>
						<path class="st1" d="M29.4,25c0,1.7-0.7,3.4-1.9,4.6s-2.9,2-4.6,2c-1.7,0-3.5-0.6-4.7-1.9c-1.3-1.2-2-2.9-2-4.7
							c0-1.7,0.8-3.5,2-4.7c1.3-1.2,3-1.9,4.7-1.9c1.7,0,3.4,0.7,4.6,2C28.8,21.6,29.5,23.3,29.4,25z M29,25c0-1.6-0.6-3.2-1.8-4.3
							c-1.1-1.1-2.7-1.7-4.3-1.7c-1.6,0-3.1,0.7-4.2,1.8c-1.1,1.1-1.7,2.7-1.7,4.2c0,1.5,0.6,3.1,1.7,4.2c1.1,1.1,2.6,1.8,4.2,1.8
							s3.2-0.6,4.3-1.7C28.3,28.2,29,26.6,29,25z"/>
					</g>
				</g>
				<g>
					<path class="st1" d="M23.9,25c0,0.6-0.5,1.1-1,1.1c-0.3,0-0.6-0.1-0.8-0.3c-0.2-0.2-0.3-0.5-0.4-0.8c0-0.3,0.2-0.6,0.4-0.8
						c0.2-0.2,0.6-0.3,0.8-0.3C23.5,24,23.9,24.4,23.9,25z M23.6,25c0-0.4-0.3-0.7-0.7-0.6c-0.3,0-0.6,0.3-0.6,0.6s0.2,0.6,0.6,0.6
						C23.2,25.7,23.6,25.4,23.6,25z"/>
				</g>
				<g>
					<path class="st1" d="M22.8,24.1l0.2-2.5c0-0.1,0.1-0.1,0.2-0.1s0.1,0.1,0.1,0.1l-0.1,2.5c0,0.1-0.1,0.2-0.2,0.2
						C22.9,24.3,22.8,24.2,22.8,24.1L22.8,24.1z"/>
				</g>
				<g>
					<path class="st1" d="M22.2,24l-1-2c0-0.1,0-0.2,0.1-0.2s0.1,0,0.2,0.1l1.2,2c0.1,0.1,0,0.2-0.1,0.2
						C22.4,24.2,22.3,24.1,22.2,24L22.2,24z"/>
				</g>
				<g>
					<path class="st1" d="M22.1,24.7l-2.2-1.2c-0.1,0-0.1-0.1-0.1-0.2s0.1-0.1,0.2-0.1l2.3,1.1c0.1,0.1,0.2,0.2,0.1,0.2
						C22.3,24.7,22.2,24.7,22.1,24.7L22.1,24.7z"/>
				</g>
				<g>
					<path class="st1" d="M22,25.1h-2.3c-0.1,0-0.1-0.1-0.1-0.1c0-0.1,0.1-0.1,0.1-0.1l2.3-0.2c0.1,0,0.2,0.1,0.2,0.2
						S22.1,25.1,22,25.1L22,25.1z"/>
				</g>
				<g>
					<path class="st1" d="M22.2,25.6l-1.9,1.3c-0.1,0-0.2,0-0.2,0c0-0.1,0-0.1,0-0.2l1.8-1.4c0.1-0.1,0.2-0.1,0.2,0
						C22.3,25.4,22.3,25.5,22.2,25.6L22.2,25.6z"/>
				</g>
				<g>
					<path class="st1" d="M22.6,25.9l-1,2.4c0,0.1-0.1,0.1-0.2,0.1s-0.1-0.1-0.1-0.2l0.9-2.5c0-0.1,0.2-0.2,0.2-0.1
						C22.6,25.6,22.7,25.8,22.6,25.9L22.6,25.9z"/>
				</g>
				<g>
					<path class="st1" d="M23.2,25.9l0.3,2.5c0,0.1,0,0.1-0.1,0.2c-0.1,0-0.1,0-0.2-0.1l-0.5-2.5c0-0.1,0.1-0.2,0.2-0.2
						C23.2,25.8,23.2,25.8,23.2,25.9L23.2,25.9z"/>
				</g>
				<g>
					<path class="st1" d="M23.6,25.6l1.7,1.8c0.1,0.1,0,0.1,0,0.2c-0.1,0.1-0.1,0-0.2,0l-1.7-1.7c-0.1-0.1-0.1-0.2,0-0.2
						C23.5,25.5,23.6,25.5,23.6,25.6L23.6,25.6z"/>
				</g>
				<g>
					<path class="st1" d="M23.8,25.1l2.5,0.6c0.1,0,0.1,0.1,0.1,0.2c0,0.1-0.1,0.1-0.2,0.1l-2.5-0.5c-0.1,0-0.2-0.1-0.2-0.2
						C23.6,25.2,23.7,25.1,23.8,25.1L23.8,25.1z"/>
				</g>
				<g>
					<path class="st1" d="M23.8,24.6l2.3-0.8c0.1,0,0.2,0,0.2,0.1s0,0.1-0.1,0.2L23.9,25c-0.1,0-0.2,0-0.2-0.1
						C23.6,24.8,23.6,24.7,23.8,24.6C23.7,24.6,23.8,24.6,23.8,24.6z"/>
				</g>
				<g>
					<path class="st1" d="M23.4,24.2l1.7-2.1c0-0.1,0.1-0.1,0.2,0c0.1,0,0.1,0.1,0,0.2l-1.6,2.1c-0.1,0.1-0.2,0.1-0.2,0.1
						S23.3,24.3,23.4,24.2L23.4,24.2z"/>
				</g>
				<g>
					<path class="st1" d="M31.2,22.3c0,0.4-0.3,0.8-0.7,0.8c-0.4,0.1-0.9-0.3-0.9-0.8s0.4-0.9,0.9-0.8
						C30.9,21.5,31.3,21.9,31.2,22.3z M31.1,22.3c0-0.3-0.3-0.6-0.6-0.5c-0.2,0-0.5,0.2-0.5,0.5c0,0.2,0.2,0.5,0.5,0.5
						C30.7,22.8,31.1,22.5,31.1,22.3z"/>
				</g>
				<g>
					<path class="st1" d="M28.5,15.7c0.1,0.5-0.4,1-0.9,1c-0.6,0.1-1.1-0.5-1-1c0-0.6,0.5-1,1-1C28.1,14.7,28.5,15.3,28.5,15.7z
						 M28.3,15.7c0-0.4-0.4-0.7-0.8-0.7s-0.6,0.3-0.6,0.7c0,0.3,0.3,0.7,0.6,0.7C27.9,16.4,28.2,16.1,28.3,15.7z"/>
				</g>
				<g>
					<path class="st1" d="M28.6,27.7c0.3,0.1,0.7,0.2,1,0.2h0.2c0.1,0,0.2,0.1,0.3,0.2c0.1,0.1,0.2,0.2,0.1,0.4
						c-0.1,0.2-0.1,0.2-0.2,0.3C30,28.9,30,29,29.9,29.2c0,0.1,0,0.1,0.1,0.1l1,0.3c0.2,0.1,0.2,0.2,0.2,0.4
						c-0.1,0.2-0.2,0.2-0.4,0.2l0,0l-1-0.4c-0.1,0-0.3-0.2-0.3-0.2c-0.1-0.2-0.1-0.3,0-0.5c0.1-0.2,0.2-0.3,0.3-0.5
						c0.1-0.2,0.2-0.2,0.1-0.3c0,0,0-0.1-0.1-0.1l-0.2-0.1c-0.3-0.1-0.7-0.1-1-0.2c-0.1,0-0.2-0.1-0.2-0.2S28.5,27.7,28.6,27.7
						L28.6,27.7z"/>
				</g>
				<line class="st2" x1="31.5" y1="10.6" x2="34.3" y2="17.8"/>
				<g>
					<path class="st1" d="M14.3,19H9.6l0.2-0.2c0,0.6,0,1.3,0,1.9c0,0.2-0.1,0.2-0.2,0.2l0,0l0,0c-0.2,0-0.6,0-0.8,0.1l0.3-0.3l0,0
						l0.2,4l-0.4-0.4l0,0h0.7c0.2,0,0.4,0.2,0.4,0.4v1.7c0,0.2-0.2,0.4-0.4,0.4H8.8l0.4-0.4v4l-0.4-0.4h0.7c0.2,0,0.4,0.2,0.4,0.4
						v0.6l-0.4-0.4c0.6,0,1,0,1.6,0.1c0.3,0.1,0.6,0.1,0.9,0.2s0.6,0.3,0.8,0.7c0.2,0.4,0.1,0.7,0.1,0.9c0,0.2,0,0.2-0.1,0.4
						c0,0.2-0.1,0.4-0.2,0.6c-0.2,0.3-0.6,0.5-0.9,0.6c-0.3,0.1-0.6,0.2-0.9,0.2l0.4-0.4v0.9l-0.4-0.4l10.3,0.2
						c0.2,0,0.4,0.2,0.4,0.4c0,0.2-0.2,0.4-0.4,0.4L10.8,35c-0.2,0-0.4-0.2-0.4-0.4v-0.9c0-0.2,0.2-0.4,0.4-0.4l0,0l0,0
						c0.4,0,0.9-0.2,1.1-0.3c0.1-0.1,0.1-0.2,0.1-0.6c0-0.2,0.1-0.5,0-0.6c0-0.2-0.6-0.3-1-0.4s-1-0.1-1.5-0.1l0,0
						c-0.2,0-0.4-0.2-0.4-0.4v-0.6l0.4,0.4H8.8c-0.2,0-0.4-0.2-0.4-0.4v-4c0-0.2,0.2-0.4,0.4-0.4h0.7l-0.4,0.4v-1.7l0.4,0.4H8.8l0,0
						l0,0c-0.2,0-0.4-0.2-0.4-0.4l0,0l0.1-4l0,0v-0.1c0-0.2,0.1-0.2,0.2-0.2h0.1c0.2,0.1,0.6,0.1,0.8,0.1l-0.2,0.2
						c0-0.6,0-1.3,0-1.9c0-0.1,0.1-0.2,0.2-0.2l0,0l0,0h4.7c0.2,0,0.2,0.1,0.2,0.2C14.5,18.8,14.4,19,14.3,19L14.3,19z"/>
				</g>
				<g>
					<path class="st1" d="M14.1,18.8c-0.2-0.3-0.4-0.8-0.3-1.2c0.1-0.5,0.4-0.8,0.6-1c0.3-0.2,0.6-0.5,1-0.6c0.5,0,0.8,0.2,1.2,0.4
						c0.2,0.1,0.2,0.2,0.1,0.4c-0.1,0.2-0.2,0.2-0.4,0.1c0,0-0.1,0-0.1-0.1l0,0c-0.2-0.2-0.6-0.3-0.7-0.3c-0.2,0.1-0.6,0.2-0.8,0.5
						c-0.2,0.2-0.5,0.5-0.5,0.7c-0.1,0.2,0.1,0.6,0.2,0.8l0,0c0.1,0.1,0.1,0.3,0,0.4C14.5,18.9,14.3,18.9,14.1,18.8L14.1,18.8z"/>
				</g>
				<g>
					<path class="st1" d="M13.5,21L9,20.9c-0.2,0-0.2-0.2-0.2-0.2c0-0.2,0.2-0.2,0.2-0.2l0,0l4.5,0.1c0.2,0,0.2,0.1,0.2,0.2
						C13.7,20.9,13.6,21,13.5,21z"/>
				</g>
			</g>
		</g>
	</g>
</g>
</svg>
