<?xml version="1.0" encoding="utf-8"?>
<!-- Generator: Adobe Illustrator 25.2.0, SVG Export Plug-In . SVG Version: 6.00 Build 0)  -->
<svg version="1.1" id="Слой_1" xmlns="http://www.w3.org/2000/svg" xmlns:xlink="http://www.w3.org/1999/xlink" x="0px" y="0px"
	 viewBox="0 0 40 40" style="enable-background:new 0 0 40 40;" xml:space="preserve">
<style type="text/css">
	.st0{fill:#FFD71C;}
	.st1{fill:#010101;}
	.st2{fill:none;stroke:#010101;stroke-width:0.4044;stroke-miterlimit:10;}
	.st3{fill:none;stroke:#010101;stroke-width:0.534;stroke-linecap:round;stroke-linejoin:round;stroke-miterlimit:10;}
	.st4{fill:#010101;stroke:#010101;stroke-width:0.178;stroke-miterlimit:10;}
	.st5{fill:none;stroke:#010101;stroke-width:0.395;stroke-linecap:round;stroke-linejoin:round;stroke-miterlimit:10;}
	.st6{fill:none;stroke:#010101;stroke-width:0.3256;stroke-linecap:round;stroke-linejoin:round;stroke-miterlimit:10;}
	.st7{fill:none;stroke:#010101;stroke-width:1.0195;stroke-linecap:round;stroke-linejoin:round;stroke-miterlimit:10;}
	.st8{fill:#FFFFFF;}
	.st9{fill:none;stroke:#010101;stroke-width:0.5279;stroke-linecap:round;stroke-linejoin:round;stroke-miterlimit:10;}
	.st10{fill:none;stroke:#010101;stroke-width:0.7388;stroke-miterlimit:10;}
	.st11{fill:none;stroke:#010101;stroke-width:0.7604;stroke-linecap:round;stroke-linejoin:round;stroke-miterlimit:10;}
	.st12{fill:none;stroke:#010101;stroke-width:0.8761;stroke-linecap:round;stroke-linejoin:round;stroke-miterlimit:10;}
	.st13{fill:none;stroke:#010101;stroke-width:0.7244;stroke-linecap:round;stroke-linejoin:round;stroke-miterlimit:10;}
	.st14{fill:none;stroke:#010101;stroke-width:0.5433;stroke-linecap:round;stroke-linejoin:round;stroke-miterlimit:10;}
	.st15{fill:#010101;stroke:#010101;stroke-width:0.5962;stroke-miterlimit:10;}
	.st16{fill:#010101;stroke:#010101;stroke-width:0.5962;stroke-linecap:round;stroke-linejoin:round;stroke-miterlimit:10;}
	.st17{opacity:0.51;enable-background:new    ;}
	.st18{fill:none;stroke:#000000;stroke-width:0.911;stroke-linecap:round;stroke-linejoin:round;stroke-miterlimit:10;}
	.st19{fill:none;stroke:#000000;stroke-width:0.8728;stroke-linecap:round;stroke-linejoin:round;stroke-miterlimit:10;}
	.st20{fill:none;stroke:#000000;stroke-width:0.7103;stroke-linecap:round;stroke-linejoin:round;stroke-miterlimit:10;}
	.st21{fill:none;stroke:#010101;stroke-width:0.8441;stroke-linecap:round;stroke-linejoin:round;stroke-miterlimit:10;}
</style>
<circle class="st0" cx="21" cy="22.7" r="11"/>
<g>
	<g id="Слой_1_9_">
		<g>
			<g>
				<g>
					<path class="st1" d="M23.7,22.6c0.1,1.4,0.1,3,0.1,4.4c0,0.3,0,0.8-0.2,1.3s-0.5,0.8-0.8,1c-0.3,0.3-0.8,0.4-1.3,0.4
						s-0.8,0-1.1,0l-8.9,0.2l0,0l0.4-0.3l-1.7,2.4c-0.2,0.3-0.5,0.3-0.8,0.1c-0.1,0-0.1-0.1-0.1-0.2l-1.6-2.4l0.4,0.3
						c-0.3,0-0.9,0-1.4-0.3c-0.5-0.2-0.8-0.6-1.2-1c-0.3-0.4-0.4-1-0.4-1.4v-1.2v-4.9v-2.4c0-1,0.7-2,1.7-2.4
						C7.1,16.1,7.4,16,7.6,16s0.4,0,0.7,0h1.2h2.4c0.3,0,0.6,0.3,0.6,0.5c0,0.3-0.3,0.6-0.6,0.6H9.5H8.3c-0.2,0-0.4,0-0.6,0
						c-0.2,0-0.3,0-0.4,0.1c-0.6,0.2-0.9,0.8-0.9,1.4v2.4v4.9V27c0,0.3,0.1,0.6,0.3,0.8c0.2,0.3,0.4,0.4,0.7,0.6
						c0.3,0.2,0.5,0.2,1,0.2c0.2,0,0.3,0.1,0.4,0.3l0,0l1.6,2.4H9.4l1.7-2.4c0.1-0.2,0.3-0.3,0.4-0.3l0,0l8.9,0.1h1.1
						c0.3,0,0.6-0.1,0.8-0.3c0.3-0.2,0.4-0.4,0.6-0.7c0.2-0.3,0.2-0.5,0.2-0.9c0-1.4,0.1-3,0.1-4.4c0-0.2,0.2-0.3,0.3-0.3
						C23.6,22.3,23.7,22.4,23.7,22.6z"/>
				</g>
				<g>
					<g>
						<path class="st1" d="M30.1,8.3L18.9,8.4h-2.8h-1.4c-0.5,0-0.8,0-1.2,0.2c-0.7,0.3-1.2,1-1.1,1.8v2.8v5.6V20
							c0,0.4,0.1,0.8,0.3,1.1c0.2,0.3,0.4,0.6,0.8,0.8C13.7,22,13.9,22,14,22s0.3,0,0.6,0c3.7,0,7.4,0,11.1,0.1l0,0l0,0
							c0.2,0,0.3,0.1,0.3,0.2c0.6,0.9,1.3,1.9,1.9,2.8h-0.5c0.7-0.9,1.3-1.8,1.9-2.7l0,0l0,0c0.1-0.1,0.2-0.1,0.3-0.1
							c1.4,0.2,2.5-1,2.4-2.4c0-1.5-0.1-3,0-4.5V11c0-0.3,0-0.8,0-1c-0.1-0.3-0.2-0.6-0.3-0.8C31.3,8.5,30.7,8.3,30.1,8.3z
							 M30.1,7.5c0.8,0,1.7,0.4,2.2,1.1c0.3,0.3,0.4,0.8,0.5,1.2s0,0.8,0.1,1.2v4.5c0,1.5,0,3,0,4.5c0,0.3,0,0.8-0.2,1.2
							c-0.2,0.4-0.4,0.8-0.7,1.1c-0.3,0.3-0.7,0.5-1.1,0.6c-0.4,0.1-0.8,0.1-1.2,0.1l0.3-0.2l0,0c-0.6,0.9-1.3,1.9-1.9,2.7
							c-0.1,0.2-0.3,0.2-0.4,0.1l-0.1-0.1l0,0c-0.7-0.8-1.4-1.8-2.1-2.6l0.3,0.2l0,0c-3.7,0.1-7.4,0.1-11.1,0.1
							c-0.2,0-0.5,0-0.8-0.1c-0.3-0.1-0.6-0.2-0.8-0.3c-0.5-0.3-0.9-0.7-1.2-1.2c-0.2-0.3-0.3-0.5-0.3-0.8c-0.1-0.3-0.1-0.6-0.1-0.8
							v-1.4V13v-2.8c0-1.1,0.7-2.2,1.7-2.6c0.5-0.3,1.1-0.3,1.5-0.3h1.4h2.8L30.1,7.5z"/>
					</g>
					<g>
						<path class="st1" d="M25.8,17.3c0.9,0.5,1.9,0.9,2.8,1.4L28,19.2l-0.5-2.9l0,0c0-0.1,0-0.3,0.1-0.3l2.2-1.9l0.1,0.3l-3-0.3
							c-0.1,0-0.2-0.1-0.2-0.2l0,0l-1.3-2.6H26l-1.2,2.6c-0.1,0.2-0.2,0.2-0.3,0.3l0,0l-2.9,0.4l0.3-0.8l2.1,2
							c0.1,0.1,0.2,0.3,0.1,0.3l-0.5,2.9L23,18.7C23.8,18.2,24.8,17.8,25.8,17.3z M25.8,18.2c-0.8,0.4-1.6,0.9-2.4,1.4
							c-0.2,0.1-0.4,0-0.6-0.2c-0.1-0.1-0.1-0.2-0.1-0.3l0.5-2.9l0.1,0.3l-2.1-2c-0.2-0.2-0.2-0.4,0-0.6c0.1-0.1,0.2-0.1,0.3-0.1
							l2.9-0.4l-0.3,0.3l1.4-2.5l0,0c0.1-0.2,0.3-0.2,0.3-0.1c0.1,0,0.1,0.1,0.1,0.1l1.4,2.6l-0.3-0.2l2.9,0.5
							c0.1,0,0.2,0.1,0.2,0.3c0,0,0,0.1-0.1,0.1l-1.8,2l0.1-0.3l0.5,2.9c0,0.2-0.1,0.4-0.3,0.4c-0.1,0-0.2,0-0.3,0l0,0
							C27.4,19,26.5,18.6,25.8,18.2z"/>
					</g>
					<g>
						<line class="st21" x1="16.3" y1="12.4" x2="19.8" y2="12.4"/>
						<line class="st21" x1="15.5" y1="14.4" x2="19.8" y2="14.4"/>
						<line class="st21" x1="15.5" y1="16.4" x2="19.8" y2="16.4"/>
						<line class="st21" x1="15.5" y1="18.4" x2="19.8" y2="18.4"/>
					</g>
				</g>
				<line class="st21" x1="8.1" y1="25.5" x2="20.3" y2="25.5"/>
				<line class="st21" x1="8.1" y1="23.6" x2="12.5" y2="23.6"/>
			</g>
		</g>
	</g>
</g>
</svg>
