<?xml version="1.0" encoding="utf-8"?>
<!-- Generator: Adobe Illustrator 25.2.0, SVG Export Plug-In . SVG Version: 6.00 Build 0)  -->
<svg version="1.1" id="Слой_1" xmlns="http://www.w3.org/2000/svg" xmlns:xlink="http://www.w3.org/1999/xlink" x="0px" y="0px"
	 viewBox="0 0 40 40" style="enable-background:new 0 0 40 40;" xml:space="preserve">
<style type="text/css">
	.st0{fill:#FFD71C;}
	.st1{fill:#010101;}
	.st2{fill:none;stroke:#010101;stroke-width:0.4044;stroke-miterlimit:10;}
	.st3{fill:none;stroke:#010101;stroke-width:0.534;stroke-linecap:round;stroke-linejoin:round;stroke-miterlimit:10;}
	.st4{fill:#010101;stroke:#010101;stroke-width:0.178;stroke-miterlimit:10;}
	.st5{fill:none;stroke:#010101;stroke-width:0.395;stroke-linecap:round;stroke-linejoin:round;stroke-miterlimit:10;}
	.st6{fill:none;stroke:#010101;stroke-width:0.3256;stroke-linecap:round;stroke-linejoin:round;stroke-miterlimit:10;}
	.st7{fill:none;stroke:#010101;stroke-width:1.0195;stroke-linecap:round;stroke-linejoin:round;stroke-miterlimit:10;}
	.st8{fill:#FFFFFF;}
	.st9{fill:none;stroke:#010101;stroke-width:0.5279;stroke-linecap:round;stroke-linejoin:round;stroke-miterlimit:10;}
	.st10{fill:none;stroke:#010101;stroke-width:0.7388;stroke-miterlimit:10;}
	.st11{fill:none;stroke:#010101;stroke-width:0.7604;stroke-linecap:round;stroke-linejoin:round;stroke-miterlimit:10;}
	.st12{fill:none;stroke:#010101;stroke-width:0.8761;stroke-linecap:round;stroke-linejoin:round;stroke-miterlimit:10;}
	.st13{fill:none;stroke:#010101;stroke-width:0.7244;stroke-linecap:round;stroke-linejoin:round;stroke-miterlimit:10;}
	.st14{fill:none;stroke:#010101;stroke-width:0.5433;stroke-linecap:round;stroke-linejoin:round;stroke-miterlimit:10;}
	.st15{fill:#010101;stroke:#010101;stroke-width:0.5962;stroke-miterlimit:10;}
	.st16{fill:#010101;stroke:#010101;stroke-width:0.5962;stroke-linecap:round;stroke-linejoin:round;stroke-miterlimit:10;}
	.st17{opacity:0.51;enable-background:new    ;}
	.st18{fill:none;stroke:#000000;stroke-width:0.911;stroke-linecap:round;stroke-linejoin:round;stroke-miterlimit:10;}
	.st19{fill:none;stroke:#000000;stroke-width:0.8728;stroke-linecap:round;stroke-linejoin:round;stroke-miterlimit:10;}
	.st20{fill:none;stroke:#000000;stroke-width:0.7103;stroke-linecap:round;stroke-linejoin:round;stroke-miterlimit:10;}
	.st21{fill:none;stroke:#010101;stroke-width:0.8441;stroke-linecap:round;stroke-linejoin:round;stroke-miterlimit:10;}
</style>
<circle class="st0" cx="15.8" cy="15.3" r="11"/>
<g>
	<g id="Слой_2_11_">
		<g>
			<g>
				<g>
					<g>
						<g>
							<path class="st15" d="M32.2,25.8l-0.3-1.4l-0.2,1.3c-0.6,0.2-1.2,0.5-1.8,0.6l-0.2,0.1c-0.1,0.1-0.2,0.2-0.2,0.2
								c-0.1,0.1-0.1,0.2-0.2,0.2l-0.2,0.5l-0.4,1c-0.1,0.2-0.2,0.3-0.2,0.6c0,0.2,0,0.5,0.1,0.6l0.5,1l0.2,0.5
								c0,0.1,0.1,0.1,0.1,0.2l0,0l-0.7,0.7l-0.7,0.7l0,0c0,0-0.1,0-0.1-0.1L27.6,32l-1-0.5l-0.2-0.1c-0.1,0-0.2-0.1-0.2-0.1
								c-0.2,0-0.2,0-0.4,0c-0.1,0-0.2,0-0.2,0.1l-0.2,0.1l-0.2,0.1l-1,0.4l-0.5,0.2c-0.1,0-0.2,0.1-0.3,0.2
								c-0.1,0.1-0.2,0.1-0.2,0.2c0,0,0,0.1-0.1,0.1l0,0v0.1l-0.6,1.8h-2.2l-0.6-1.8l-0.1-0.2c-0.1-0.2-0.2-0.2-0.2-0.2
								c-0.2-0.1-0.2-0.1-0.3-0.2L18.7,32l-1-0.4c-0.2-0.1-0.3-0.2-0.6-0.2c-0.2,0-0.2,0-0.4,0c-0.1,0-0.3,0.1-0.3,0.1l-1,0.5
								L15,32.3h-0.1l0,0l-0.7-0.7l-0.7-0.7l0,0c0,0,0-0.1,0.1-0.1l0.2-0.5l0.5-1c0-0.1,0.1-0.2,0.1-0.3c0-0.2,0-0.2,0-0.4
								s-0.1-0.2-0.1-0.3l-0.1-0.2l-0.6-1l-0.2-0.5c0-0.1-0.1-0.2-0.2-0.3c-0.1-0.1-0.1-0.2-0.2-0.2l-0.2-0.1
								c-0.6-0.2-1.2-0.4-1.9-0.6c0-0.7,0-0.5,0-1.2c0,0-0.2,0.5-0.6,1.6c0.7,0.2,1.4,0.6,2.1,0.8c0.1-0.1,0.2,0.4,0.3,0.6l0.4,1
								l0.1,0.2c0,0.1,0.1,0.2,0.1,0.2c0,0.1,0,0.1,0,0.2c0,0.1,0,0.1-0.1,0.2l-0.5,1l-0.2,0.5c-0.1,0.1-0.1,0.2-0.2,0.4
								c0,0.2,0.1,0.4,0.2,0.5l0.8,0.8l0.8,0.8c0.1,0.1,0.2,0.2,0.5,0.2c0.2,0,0.3-0.1,0.4-0.2l0.5-0.2l1-0.5
								c0.2-0.2,0.4-0.1,0.8,0.1l1,0.4l0.5,0.2c0.1,0,0.2,0.1,0.2,0.1V33l0.6,2c0.1,0.2,0.2,0.2,0.3,0.2h2.8c0.2,0,0.3-0.1,0.3-0.2
								l0,0l0,0l0.7-2c-0.2,0,0.4-0.2,0.6-0.3l1-0.4l0.2-0.1l0.2-0.1c0,0,0,0,0.1,0c0.1,0,0.1,0,0.2,0h0.1l0.1,0.1l1,0.5l0.5,0.2
								c0.1,0.1,0.2,0.1,0.4,0.2c0.2,0,0.4-0.1,0.5-0.2l0.8-0.8l0.7-0.8c0.1-0.1,0.2-0.2,0.2-0.5c0-0.2-0.1-0.3-0.2-0.4L29.6,30
								l-0.5-1c-0.2-0.2-0.1-0.5,0.1-0.9l0.4-1l0.2-0.5c0-0.1,0.1-0.2,0.1-0.2l0,0h0.1c0.6-0.2,1.4-0.4,2.1-0.6
								C32.2,25.9,32.3,25.8,32.2,25.8L32.2,25.8L32.2,25.8z"/>
						</g>
					</g>
					<g>
						<path class="st16" d="M27,23.4c0.1,0.3,0.1,0.6,0.1,1c0,1.5-0.6,3-1.7,4.1c-1,1-2.5,1.7-4.1,1.7c-1.5,0-2.9-0.6-4-1.7
							c-1-1-1.7-2.5-1.6-4c0-0.3,0-0.7,0.1-1H15c-0.1,0.3-0.1,0.7-0.1,1c0,1.7,0.7,3.3,1.9,4.5c1.2,1.2,2.8,1.8,4.5,1.8
							c1.7,0,3.3-0.7,4.4-1.8c1.1-1.2,1.8-2.8,1.8-4.4c0-0.3,0-0.7-0.1-1H27V23.4z"/>
					</g>
				</g>
				<g>
					<path d="M26.5,22.3c0.1-2.2-1.7-4.3-3.7-4.8c-1-0.2-2.1-0.2-3.2,0.2c-1,0.4-1.8,1.1-2.4,2c-0.3,0.5-0.5,1-0.6,1.4
						c-0.1,0.2-0.1,0.6-0.2,0.8v0.4l0,0c0,0,0,0,0-0.1c0-0.1,0-0.2-0.2-0.4c-0.1-0.1-0.2-0.2-0.3-0.2H16h0.2c1.2,0,2.4,0,3.5,0.1
						l3.5,0.1l1.7,0.1h0.9h0.5h0.2h0.1c-0.1,0-0.2,0.1-0.2,0.2C26.5,22.1,26.5,22.2,26.5,22.3z M27.2,22.3c0,0.1-0.1,0.2-0.2,0.2
						c-0.1,0.1-0.2,0.2-0.2,0.2h-0.2h-0.2h-0.5h-0.9l-1.7,0.1l-3.6,0.1c-1.2,0-2.4,0-3.6,0h-0.2h-0.1c-0.1,0-0.2,0-0.4-0.2
						c-0.2-0.1-0.2-0.3-0.2-0.4c0-0.1,0-0.1,0-0.1l0,0v-0.5c0.1-0.3,0.1-0.6,0.2-1c0.2-0.6,0.4-1.3,0.8-1.7c0.7-1.1,1.8-1.9,3-2.4
						c1.2-0.5,2.5-0.5,3.8-0.1c1.2,0.4,2.3,1.2,3,2.2C26.7,19.7,27.1,21,27.2,22.3z"/>
				</g>
				<g>
					<path d="M24.4,12.8c0,0.8-0.3,1.6-0.9,2.1c-0.6,0.6-1.4,1-2.1,1c-0.8,0-1.6-0.3-2.2-0.9c-0.6-0.6-1-1.4-1-2.2s0.3-1.7,1-2.2
						c0.6-0.6,1.4-0.9,2.2-0.9c0.8,0,1.6,0.3,2.1,1C24.1,11.1,24.4,12,24.4,12.8z M23.9,12.8c0-0.6-0.3-1.3-0.7-1.7
						c-0.5-0.5-1.1-0.6-1.7-0.6c-0.6,0-1.2,0.2-1.7,0.7c-0.4,0.5-0.6,1-0.7,1.7c0,0.6,0.2,1.2,0.6,1.7c0.4,0.5,1,0.7,1.7,0.7
						C22.7,15.2,23.9,14.1,23.9,12.8z"/>
				</g>
				<g>
					<path d="M17.7,14.4c0,0.7-0.2,1.4-0.8,1.9c-0.5,0.5-1.2,0.8-1.9,0.8s-1.4-0.2-1.9-0.8c-0.5-0.5-0.8-1.2-0.8-1.9
						c0-0.7,0.3-1.4,0.8-1.9c0.5-0.5,1.2-0.8,1.9-0.8s1.4,0.3,1.9,0.8C17.4,13,17.7,13.7,17.7,14.4z M17.1,14.4c0-0.6-0.2-1-0.6-1.4
						c-0.4-0.4-0.9-0.6-1.4-0.6c-0.6,0-1,0.2-1.4,0.6c-0.4,0.4-0.6,0.9-0.6,1.4c0,0.5,0.2,1,0.6,1.4s0.9,0.6,1.4,0.6
						C16.1,16.5,17.2,15.5,17.1,14.4z"/>
				</g>
				<g>
					<path d="M15.8,17.6c-1.4-0.2-2.7,0.3-3.5,1.2c-0.9,0.9-1.2,2.1-1.4,3.4l0,0l-0.6-0.7l4.5,0.6c0.1,0,0.2,0.1,0.2,0.2
						c0,0.1-0.1,0.2-0.2,0.2l-4.5,0.2c-0.3,0-0.6-0.2-0.6-0.6v-0.1V22l0,0c0.2-0.7,0.4-1.4,0.7-2s0.8-1.2,1.4-1.7
						C13,17.5,14.6,17.3,15.8,17.6z"/>
				</g>
				<g>
					<path d="M25.4,14.1c-0.1,1.1,1,2.1,2.1,2c0.6,0,1-0.2,1.4-0.6c0.4-0.4,0.6-0.9,0.6-1.4c0-0.5-0.2-1-0.6-1.4
						c-0.4-0.4-0.9-0.6-1.4-0.6c-0.6,0-1,0.2-1.4,0.6C25.7,13,25.4,13.5,25.4,14.1z M24.8,14.1c0-0.7,0.2-1.4,0.7-1.9
						c0.5-0.5,1.2-0.8,1.9-0.8c0.7,0,1.4,0.2,1.9,0.8c0.5,0.5,0.8,1.2,0.8,1.9c0,0.7-0.3,1.4-0.8,1.9c-0.5,0.5-1.2,0.8-1.9,0.8
						c-0.7,0-1.4-0.3-1.9-0.8C25.1,15.5,24.8,14.8,24.8,14.1z"/>
				</g>
				<g>
					<path d="M26.7,17.4c1.3-0.3,2.8-0.1,3.9,0.8c1.1,0.9,1.7,2.3,2,3.7l0,0v0.1c0,0.2-0.2,0.5-0.4,0.5h-0.1l-4.5-0.1
						c-0.1,0-0.2-0.1-0.2-0.2c0-0.1,0.1-0.2,0.2-0.2l4.5-0.5l-0.4,0.6l0,0c-0.2-1.3-0.6-2.5-1.4-3.4C29.4,17.6,28.1,17.2,26.7,17.4z
						"/>
				</g>
			</g>
		</g>
	</g>
</g>
</svg>
