<?xml version="1.0" encoding="utf-8"?>
<!-- Generator: Adobe Illustrator 25.2.0, SVG Export Plug-In . SVG Version: 6.00 Build 0)  -->
<svg version="1.1" id="Слой_1" xmlns="http://www.w3.org/2000/svg" xmlns:xlink="http://www.w3.org/1999/xlink" x="0px" y="0px"
	 viewBox="0 0 40 40" style="enable-background:new 0 0 40 40;" xml:space="preserve">
<style type="text/css">
	.st0{fill:#FFD71C;}
	.st1{fill:#010101;}
	.st2{fill:none;stroke:#010101;stroke-width:0.4044;stroke-miterlimit:10;}
	.st3{fill:none;stroke:#010101;stroke-width:0.534;stroke-linecap:round;stroke-linejoin:round;stroke-miterlimit:10;}
	.st4{fill:#010101;stroke:#010101;stroke-width:0.178;stroke-miterlimit:10;}
	.st5{fill:none;stroke:#010101;stroke-width:0.395;stroke-linecap:round;stroke-linejoin:round;stroke-miterlimit:10;}
	.st6{fill:none;stroke:#010101;stroke-width:0.3256;stroke-linecap:round;stroke-linejoin:round;stroke-miterlimit:10;}
	.st7{fill:none;stroke:#010101;stroke-width:1.0195;stroke-linecap:round;stroke-linejoin:round;stroke-miterlimit:10;}
	.st8{fill:#FFFFFF;}
	.st9{fill:none;stroke:#010101;stroke-width:0.5279;stroke-linecap:round;stroke-linejoin:round;stroke-miterlimit:10;}
	.st10{fill:none;stroke:#010101;stroke-width:0.7388;stroke-miterlimit:10;}
	.st11{fill:none;stroke:#010101;stroke-width:0.7604;stroke-linecap:round;stroke-linejoin:round;stroke-miterlimit:10;}
	.st12{fill:none;stroke:#010101;stroke-width:0.8761;stroke-linecap:round;stroke-linejoin:round;stroke-miterlimit:10;}
	.st13{fill:none;stroke:#010101;stroke-width:0.7244;stroke-linecap:round;stroke-linejoin:round;stroke-miterlimit:10;}
	.st14{fill:none;stroke:#010101;stroke-width:0.5433;stroke-linecap:round;stroke-linejoin:round;stroke-miterlimit:10;}
	.st15{fill:#010101;stroke:#010101;stroke-width:0.5962;stroke-miterlimit:10;}
	.st16{fill:#010101;stroke:#010101;stroke-width:0.5962;stroke-linecap:round;stroke-linejoin:round;stroke-miterlimit:10;}
	.st17{opacity:0.51;enable-background:new    ;}
	.st18{fill:none;stroke:#000000;stroke-width:0.911;stroke-linecap:round;stroke-linejoin:round;stroke-miterlimit:10;}
	.st19{fill:none;stroke:#000000;stroke-width:0.8728;stroke-linecap:round;stroke-linejoin:round;stroke-miterlimit:10;}
	.st20{fill:none;stroke:#000000;stroke-width:0.7103;stroke-linecap:round;stroke-linejoin:round;stroke-miterlimit:10;}
	.st21{fill:none;stroke:#010101;stroke-width:0.8441;stroke-linecap:round;stroke-linejoin:round;stroke-miterlimit:10;}
</style>
<circle class="st0" cx="16.5" cy="15.5" r="11"/>
<g>
	<g id="Слой_1_13_">
		<g>
			<g>
				<g>
					<g>
						<g>
							<path class="st1" d="M5.9,27.3c-0.1-0.8-0.1-1.6-0.1-2.4c0-0.2,0.1-0.4,0.4-0.5l1.2-0.4c0.1,0,0.3-0.1,0.2-0.1l0.1-0.1
								l0.2-0.6l0.2-0.6c0-0.1,0-0.1,0-0.1l0,0l-0.1-0.1l-0.6-1.1c-0.1-0.2-0.1-0.4,0.1-0.6l1.5-1.5c0.1-0.1,0.4-0.2,0.6-0.1
								l1.2,0.6l0.1,0.1c0.1,0,0,0,0,0l0,0l0,0c-0.1,0,0,0,0.1,0l0.6-0.2l0.6-0.2c0.1,0,0.1-0.1,0,0.1l0.1-0.3l0.4-1.2
								c0.1-0.2,0.3-0.4,0.5-0.4h2.1l0,0l0,0c0.2,0,0.4,0.1,0.4,0.4l0.4,1.5v0.1c-0.1-0.1-0.1-0.1-0.1-0.1s0.1,0,0.1,0.1l0.4,0.1
								l0.7,0.3c0.3,0.1,0.4,0.1,0.5,0.1l0.7-0.3l0.4-0.1c0.1,0,0.1-0.1,0.4-0.1c0.1,0,0.3,0.1,0.4,0.1l0.6,0.6l0.6,0.6
								c0.1,0.1,0.1,0.2,0.1,0.4c0,0.1-0.1,0.2-0.1,0.3l-0.1,0.4l-0.4,0.7c-0.1,0.2-0.1,0.2,0.1,0.5l0.3,0.7
								c0.1,0.2,0.2,0.6,0.2,0.4c0.5,0.1,1,0.3,1.5,0.4l0,0c0.1,0.1,0.3,0.2,0.3,0.4l0,0l-0.1,2l0,0V27c0,0.1-0.1,0.3-0.2,0.3
								c-0.5,0.1-1,0.3-1.5,0.4h-0.1c0.1-0.1,0.1-0.1,0.1-0.1s0,0.1-0.1,0.1l-0.1,0.4c-0.1,0.2-0.1,0.5-0.3,0.7
								c-0.1,0.3-0.1,0.4-0.1,0.5l0.4,0.7l0.2,0.4c0,0.1,0.1,0.1,0.1,0.4c0,0.2-0.1,0.4-0.1,0.5l-0.3,0.4L20.4,32l-0.3,0.3l-0.1,0.1
								c-0.1,0.1-0.1,0.1-0.1,0.2c-0.1,0.1-0.3,0.2-0.5,0.2c-0.2,0-0.4-0.1-0.4-0.1l-0.4-0.1l-0.7-0.4c-0.1-0.1,0-0.1-0.4,0.1
								l-0.7,0.3l-0.4,0.1l0,0c0,0,0,0,0.1-0.1c0,0,0-0.1,0.1-0.1l0,0v0.1L16,34.1l0,0l0,0c-0.1,0.2-0.3,0.4-0.5,0.4h-2.1
								c-0.2,0-0.4-0.1-0.5-0.4l-0.5-1.5v-0.1c0.1,0.1,0.1,0.1,0.1,0.1s-0.1,0-0.1-0.1L12,32.5l-0.7-0.3c-0.4-0.1-0.4-0.1-0.4-0.1
								l-0.7,0.4l-0.3,0.2c-0.1,0.1-0.2,0.1-0.4,0.1s-0.4-0.1-0.5-0.2L8.3,32l-0.7-0.7c-0.1-0.1-0.2-0.4-0.1-0.5
								c0-0.2,0.1-0.3,0.1-0.4l0.1-0.4l0.4-0.7c0.1-0.1,0-0.1,0-0.1l0,0c0,0,0,0.1,0,0v-0.1l-0.1-0.2l-0.3-0.7l-0.1-0.4
								c0-0.1-0.1-0.1,0-0.1c0,0,0,0.1,0.1,0.1H7.7C7.1,27.7,6.5,27.5,5.9,27.3z M6.7,26.7C7.1,26.7,7.6,26.9,8,27h0.1
								c0.1,0.1,0.2,0.1,0.3,0.2c0.1,0.1,0.1,0.2,0.1,0.3l0.1,0.4l0.3,0.8L9,28.9L9.1,29c0,0,0.1,0.1,0.1,0.2c0,0.1,0,0.2,0,0.4
								c0,0.1-0.1,0.3-0.1,0.3l-0.4,0.7l-0.2,0.4c0,0,0,0.1,0,0s-0.1-0.1-0.1-0.1l0.5,0.5l0.6,0.6c0,0-0.1-0.1-0.1-0.1
								c-0.1,0-0.1,0-0.1,0l0.4-0.2l0.7-0.4c0,0,0.2-0.1,0.3-0.1c0.1,0,0.2,0,0.4,0c0.3,0.1,0.3,0.1,0.5,0.1l0.8,0.3l0.4,0.1
								c0.1,0,0.1,0.1,0.3,0.1c0.1,0.1,0.1,0.1,0.3,0.3l0.1,0.1l0.5,1.5l-0.5-0.4h2.1l-0.6,0.3l0,0l0.5-1.5v-0.1v-0.1
								c0-0.1,0.1-0.1,0.1-0.1c0.1-0.1,0.1-0.1,0.2-0.2c0.1-0.1,0.2-0.1,0.3-0.1l0.4-0.1l0.7-0.3l0.2-0.1h0.1c0.1,0,0.1-0.1,0.2-0.1
								c0.1,0,0.2,0,0.4,0c0.1,0,0.1,0,0.2,0.1l0.1,0.1l0.7,0.4l0.4,0.2c0,0,0.1,0-0.1,0c-0.1,0-0.1,0.1-0.1,0.1l0.6-0.5l0.3-0.3
								l0.1-0.1c0.1-0.1,0.1-0.1,0.1-0.1s0,0.1,0,0.1c0,0.1,0,0.1,0,0l-0.1-0.4l-0.3-0.7c0-0.1-0.1-0.2-0.1-0.3c0-0.1,0-0.2,0-0.3
								c0.1-0.2,0.1-0.3,0.1-0.4c0.1-0.2,0.2-0.5,0.3-0.7l0.1-0.4c0-0.1,0.1-0.1,0.1-0.2c0.1-0.1,0.1-0.1,0.2-0.2h0.1
								c0.5-0.1,1-0.4,1.5-0.6L22,27.1l0,0v-2.2l0.3,0.4l0,0c-0.5-0.2-1-0.4-1.5-0.6h-0.1c0,0,0,0-0.1-0.1s-0.1-0.1-0.1-0.1
								c-0.1-0.1-0.1-0.1-0.1-0.2l-0.1-0.4l-0.3-0.8l-0.1-0.2v-0.1c0-0.1,0-0.1-0.1-0.1c0-0.1,0-0.2,0-0.3s0.1-0.2,0.1-0.2l0.4-0.7
								l0.2-0.4c0-0.1,0-0.1,0-0.1s0,0.1,0,0l-0.6-0.5L19.2,20l0,0c0,0,0,0-0.1,0l-0.4,0.2l-0.7,0.4c0,0-0.2,0.1-0.3,0.1
								c-0.1,0-0.2,0-0.3,0c-0.2-0.1-0.3-0.1-0.4-0.1l-0.8-0.3l-0.4-0.1c-0.1,0-0.1-0.1-0.3-0.1c-0.1-0.1-0.1-0.1-0.2-0.3l-0.1-0.1
								L14.9,18l0.5,0.4l0,0h-2.1l0.5-0.4l-0.4,1.3l-0.1,0.3l0,0c0,0,0,0.1-0.1,0.1c0,0.1-0.1,0.1-0.1,0.1c-0.1,0.1-0.1,0.1-0.1,0.1
								c-0.1,0.1-0.1,0.1-0.2,0.1l-0.7,0.3l-0.7,0.3c-0.1,0-0.1,0.1-0.2,0.1s-0.2,0-0.4,0c-0.1,0-0.1,0-0.1-0.1
								c-0.1,0-0.1-0.1-0.1-0.1l-0.1-0.1l-1.2-0.6l0.6-0.1l-1.5,1.5l0.1-0.6L8.9,22L9,22.2c0.1,0.1,0.1,0.2,0.1,0.4
								c0,0.2,0,0.4-0.1,0.5l-0.3,0.7l-0.3,0.7c-0.1,0.1-0.2,0.3-0.4,0.4c-0.2,0.1-0.3,0.1-0.4,0.2l-1.3,0.4l0.5-0.6
								C6.8,25.4,6.8,26,6.7,26.7z"/>
						</g>
					</g>
				</g>
				<g>
					<path class="st1" d="M19.1,25.9c0,1.2-0.5,2.5-1.4,3.4c-0.9,0.9-2.1,1.4-3.4,1.4s-2.6-0.5-3.5-1.4c-0.9-0.9-1.4-2.2-1.4-3.5
						s0.6-2.6,1.4-3.5c0.9-0.9,2.2-1.4,3.5-1.4c1.3,0,2.5,0.6,3.4,1.4C18.6,23.4,19.1,24.6,19.1,25.9z M18.6,25.9
						c0-1.1-0.4-2.2-1.2-3c-0.8-0.8-1.9-1.2-3-1.2s-2.1,0.5-2.8,1.2c-0.7,0.7-1.2,1.8-1.2,2.8c0,1.1,0.4,2.1,1.2,2.8
						c0.7,0.8,1.8,1.2,2.8,1.2c1.1,0,2.2-0.4,3-1.2C18.1,28.1,18.6,27,18.6,25.9z"/>
				</g>
			</g>
			<g>
				<g>
					<g>
						<g>
							<path class="st1" d="M19.6,13.2c0.2-0.5,0.5-1,0.8-1.5c0.1-0.1,0.3-0.2,0.4-0.2l0.9,0.2c0.1,0,0.2,0.1,0.1,0H22l0.4-0.3
								l0.4-0.3c0.1,0,0.1-0.1,0.1-0.1l0,0v-0.1l0.1-0.9c0-0.1,0.1-0.3,0.3-0.4l1.5-0.4c0.1-0.1,0.4,0,0.4,0.1l0.5,0.8l0.1,0.1
								c0,0.1,0,0,0,0l0,0c-0.1,0,0,0,0.1,0l0.5,0.1l0.5,0.1c0.1,0,0.1,0-0.1,0.1l0.2-0.1l0.7-0.7c0.1-0.1,0.2-0.1,0.4,0l1.3,0.8
								l0,0l0,0c0.1,0.1,0.2,0.3,0.1,0.4l-0.3,1.2v0.1c0-0.1,0-0.1,0-0.1s0,0,0.1,0.1l0.1,0.2l0.4,0.4C29.9,13,29.9,13,30,13
								l0.6,0.1h0.3c0.1,0,0.1,0,0.2,0.1c0.1,0.1,0.1,0.1,0.2,0.2l0.1,0.6l0.1,0.6c0,0.1,0,0.2-0.1,0.3c-0.1,0.1-0.1,0.1-0.1,0.1
								l-0.2,0.1l-0.5,0.3c-0.1,0.1-0.1,0.1-0.1,0.4l-0.1,0.6c0,0.1-0.1,0.4-0.1,0.4l0.8,0.9l0,0c0.1,0.1,0.1,0.1,0,0.3l0,0
								l-0.7,1.3l0,0l0,0c-0.1,0.1-0.2,0.1-0.3,0.1c-0.4-0.1-0.7-0.2-1.2-0.3c0.1-0.1-0.2,0.1-0.3,0.2c-0.1,0.1-0.3,0.2-0.4,0.4
								c-0.1,0.1-0.2,0.2-0.2,0.3v0.6v0.3c0,0.1,0,0.1-0.1,0.3s-0.2,0.2-0.3,0.2l-0.6,0.2l-0.6,0.1c-0.1,0-0.3,0-0.4-0.1
								c-0.1-0.1-0.2-0.1-0.2-0.2l-0.3-0.1l-0.3-0.5c-0.1-0.1,0.1,0-0.2-0.1l-0.6-0.1l-0.3-0.1h-0.1c0,0,0,0,0.1,0c0.1-0.1,0,0,0,0
								l-0.9,0.7l0,0l0,0c-0.1,0.1-0.3,0.1-0.4,0.1l-1.3-0.8c-0.1-0.1-0.2-0.3-0.2-0.4l0.3-1.2v-0.1c0,0.1,0,0.1,0,0.1s0,0-0.1-0.1
								l-0.1-0.2l-0.4-0.4c-0.1-0.2-0.1-0.2-0.2-0.2l-0.6-0.1H20c-0.1,0-0.2,0-0.4-0.1c-0.1-0.1-0.2-0.2-0.2-0.4L19.3,17l-0.1-0.6
								c0-0.1,0-0.3,0.1-0.4c0.1-0.1,0.1-0.1,0.2-0.2l0.2-0.1l0.5-0.3c0.1-0.1,0.1,0,0.1,0l0,0c0,0,0,0,0-0.1v-0.1l0.1-0.6l0.1-0.3
								c0-0.1,0-0.1,0-0.1s0,0.1,0.1,0.1c0,0,0,0-0.1-0.1C20.2,13.9,19.9,13.6,19.6,13.2z M20.4,13.1c0.2,0.2,0.5,0.4,0.7,0.7
								l0.1,0.1c0.1,0.1,0.1,0.2,0.1,0.3c0,0.1,0,0.2,0,0.2l-0.1,0.3l-0.1,0.6v0.1c0,0.1,0,0.1-0.1,0.2c-0.1,0.1-0.1,0.1-0.1,0.2
								c-0.1,0.1-0.1,0.1-0.2,0.1l-0.5,0.4l-0.3,0.1l0,0c0.1-0.1,0.1-0.1,0.1-0.1l0.1,0.5l0.1,0.6c0,0,0-0.1-0.1-0.1
								c-0.1,0-0.1,0-0.1,0h0.3l0.6,0.1c0,0,0.1,0,0.2,0.1c0.1,0.1,0.1,0.1,0.2,0.1c0.1,0.1,0.1,0.2,0.2,0.3l0.4,0.4l0.2,0.2
								c0,0.1,0.1,0.1,0.1,0.1c0,0.1,0.1,0.1,0.1,0.3v0.1l-0.3,1.2l-0.2-0.4l1.3,0.8l-0.4,0.1l0,0l0.9-0.8c0,0,0,0,0.1-0.1
								c0.1-0.1,0.1-0.1,0.2-0.1s0.1,0,0.2,0l0.3,0.1l0.6,0.1h0.1h0.1c0.1,0,0.1,0,0.1,0.1c0.1,0.1,0.1,0.1,0.2,0.1
								c0,0,0.1,0.1,0.1,0.1l0.1,0.1l0.3,0.5l0.1,0.2l0,0c-0.1-0.1-0.1,0-0.1,0l0.6-0.1c0.1-0.1,0.4-0.1,0.6-0.1c0,0-0.1,0-0.1,0.1
								s0,0.1,0,0l0.1-0.3l0.1-0.6c0-0.3,0.3-0.5,0.4-0.6c0.1-0.1,0.3-0.2,0.5-0.4l0.2-0.2c0.1,0,0.1-0.1,0.1-0.1
								c0.1,0,0.1-0.1,0.2-0.1H29c0.4,0.1,0.8,0.1,1.2,0.2L29.9,19l0,0l0.8-1.2v0.3l0,0l-0.8-0.9c0,0,0,0-0.1-0.1
								C29.7,17,29.7,17,29.7,17c0-0.1,0-0.1,0-0.2l0.1-0.3l0.1-0.6v-0.1c0-0.1,0-0.1,0.1-0.2c0-0.1,0.1-0.1,0.1-0.1
								c0.1-0.1,0.1-0.1,0.1-0.1l0.5-0.3l0.2-0.1c0,0,0.1-0.1,0.1,0l0,0l-0.1-0.6l-0.1-0.7l0,0l0,0h-0.3h-0.6
								c-0.3,0-0.6-0.3-0.7-0.4l-0.4-0.4l-0.2-0.2c0-0.1-0.1-0.1-0.1-0.1c0-0.1-0.1-0.1-0.1-0.3V12l0.2-1.2l0.2,0.4l0,0l-1.3-0.9
								l0.4-0.1L27.3,11l-0.2,0.1l0,0c0,0-0.1,0-0.1,0.1c-0.1,0-0.1,0.1-0.1,0.1c-0.1,0-0.1,0-0.1,0c-0.1,0-0.1,0-0.2,0L26,11.2
								l-0.4-0.1c-0.1,0-0.1,0-0.2-0.1c-0.1,0-0.1-0.1-0.2-0.1c-0.1,0-0.1-0.1-0.1-0.1l-0.1-0.1l-0.5-0.9l0.4,0.1l-1.5,0.4l0.3-0.4
								L23.6,11v0.1c0,0.1-0.1,0.1-0.1,0.2c-0.1,0.1-0.1,0.2-0.3,0.3l-0.4,0.4l-0.4,0.3c-0.1,0.1-0.2,0.1-0.4,0.1
								c-0.2,0-0.3,0-0.4-0.1l-0.9-0.1l0.4-0.2C20.9,12.4,20.7,12.8,20.4,13.1z"/>
						</g>
					</g>
				</g>
				<g>
					<path class="st1" d="M28.5,17.3c-0.4,0.8-1.2,1.4-2.2,1.7c-0.9,0.2-1.9,0.1-2.8-0.4c-0.8-0.4-1.4-1.3-1.7-2.2
						c-0.2-0.9-0.1-2,0.4-2.8c0.5-0.8,1.3-1.4,2.2-1.7c0.9-0.2,2-0.1,2.8,0.4c0.8,0.5,1.4,1.3,1.6,2.2C29.1,15.5,29,16.5,28.5,17.3z
						 M28,17c0.4-0.7,0.5-1.5,0.3-2.3c-0.2-0.8-0.7-1.4-1.4-1.8c-1.4-0.8-3.3-0.3-4,1.1c-0.8,1.3-0.4,3.3,0.9,4.1
						c0.7,0.4,1.5,0.6,2.2,0.4C27,18.3,27.7,17.8,28,17z"/>
				</g>
			</g>
			<g>
				<g>
					<g>
						<path class="st8" d="M24,25.7c0.3-0.4,0.5-0.9,0.8-1.3c0.4,0.1,0.7,0.1,1.1,0.2c0.1,0,0.2,0,0.3-0.1c0.3-0.2,0.5-0.4,0.8-0.6
							c0.1-0.1,0.1-0.1,0.1-0.3c0.1-0.4,0.1-0.7,0.1-1.1c0.5-0.1,1-0.3,1.5-0.4c0.2,0.3,0.4,0.7,0.7,0.9c0.1,0.1,0.1,0.1,0.2,0.1
							c0.4,0.1,0.7,0.1,1.1,0.1c0.1,0,0.1,0,0.2,0c0.3-0.3,0.7-0.6,0.9-0.8c0.4,0.3,0.9,0.5,1.3,0.8c-0.1,0.4-0.2,0.8-0.3,1.2
							c0,0.1,0.1,0.1,0.1,0.1c0.2,0.3,0.4,0.6,0.7,0.9c0.1,0.1,0.2,0.1,0.3,0.1c0.3,0.1,0.7,0.1,0.9,0.1c0.1,0,0.2,0.1,0.2,0.2
							c0.1,0.4,0.1,0.7,0.3,1c0.1,0.1,0,0.2-0.1,0.3c-0.3,0.1-0.5,0.4-0.8,0.5c-0.1,0.1-0.1,0.1-0.1,0.2c-0.1,0.4-0.1,0.7-0.1,1.1
							c0,0.1,0,0.2,0,0.2c0.3,0.3,0.6,0.7,0.8,0.9c-0.3,0.4-0.5,0.9-0.8,1.3c-0.4-0.1-0.8-0.2-1.2-0.3c-0.1,0-0.1,0.1-0.1,0.1
							c-0.3,0.2-0.6,0.4-0.9,0.7c-0.1,0.1-0.1,0.2-0.1,0.3c-0.1,0.3-0.1,0.7-0.1,0.9c0,0.1-0.1,0.2-0.2,0.2c-0.4,0.1-0.7,0.1-1,0.3
							c-0.1,0.1-0.2,0-0.3-0.1c-0.1-0.3-0.4-0.5-0.5-0.8c-0.1-0.1-0.1-0.1-0.2-0.1c-0.4-0.1-0.7-0.1-1.1-0.1c-0.1,0-0.2,0-0.2,0
							c-0.3,0.3-0.7,0.6-0.9,0.8c-0.4-0.3-0.9-0.5-1.3-0.8c0.1-0.4,0.2-0.8,0.3-1.2c0-0.1-0.1-0.1-0.1-0.1c-0.2-0.3-0.4-0.6-0.7-0.9
							c-0.1-0.1-0.2-0.1-0.3-0.1c-0.3-0.1-0.7-0.1-0.9-0.1c-0.1,0-0.2-0.1-0.2-0.2c-0.1-0.4-0.1-0.7-0.3-1c-0.1-0.1,0-0.2,0.1-0.3
							c0.3-0.1,0.5-0.4,0.8-0.5c0.1-0.1,0.1-0.1,0.1-0.2c0.1-0.4,0.1-0.7,0.1-1.1c0-0.1,0-0.2,0-0.2C24.6,26.3,24.3,26,24,25.7z"/>
						<g>
							<path class="st1" d="M23.6,25.7c0.2-0.5,0.5-1.1,0.9-1.6c0.1-0.1,0.3-0.3,0.5-0.2l0.9,0.2c0.1,0,0.2,0.1,0.1,0l0,0l0.4-0.3
								l0.4-0.3c0.1,0,0,0,0,0s0,0,0,0.1v-0.1l0.1-0.9c0-0.2,0.1-0.4,0.4-0.4l1.5-0.4c0.2-0.1,0.4,0.1,0.5,0.2l0.5,0.8l0.1,0.1l0,0
								l0,0l0,0c-0.1,0,0,0,0.1,0l0.5,0.1l0.5,0.1c0.1,0,0.1-0.1-0.1,0.1l0.2-0.1l0.7-0.7c0.1-0.1,0.4-0.1,0.6-0.1l1.3,0.8l0,0l0,0
								c0.1,0.1,0.2,0.3,0.2,0.5l-0.3,1.1v0.1c0-0.1,0-0.1,0-0.1s0,0,0.1,0.1l0.1,0.2l0.4,0.4c0.1,0.2,0.1,0.2,0.2,0.2l0.6,0.1h0.3
								c0.1,0,0.1,0,0.3,0.1c0.1,0.1,0.2,0.2,0.2,0.3l0.1,0.6l0.1,0.6c0,0.1,0,0.2-0.1,0.3c-0.1,0.1-0.1,0.1-0.2,0.1l-0.6,0.3
								L34.6,28c-0.1,0.1-0.1,0.1-0.1,0.4V29c0,0.1-0.1,0.5-0.1,0.4l0.8,0.9l0,0c0.1,0.1,0.1,0.2,0,0.3l0,0l-0.7,1.3l0,0l0,0
								C34.3,32,34.2,32,34.1,32c-0.4-0.1-0.7-0.2-1.2-0.3c0.1-0.1-0.1,0.1-0.3,0.2c-0.1,0.1-0.3,0.2-0.4,0.4
								C32,32.4,32,32.5,32,32.5v0.6v0.3c0,0.1,0,0.1-0.1,0.3c-0.1,0.1-0.2,0.3-0.4,0.3l-0.3,0.1l-0.3,0.1l-0.1,0.1l-0.1,0.1
								c-0.1,0-0.1,0-0.2,0.1c-0.1,0-0.3,0-0.4-0.1c-0.1-0.1-0.2-0.2-0.2-0.3l-0.1-0.2l-0.3-0.4l-0.1-0.1l0,0l0,0l0,0h-0.1h-0.1
								l-0.6-0.1l-0.3-0.1c-0.1,0-0.1,0-0.1,0s0.1,0,0.1,0c0.1-0.1,0.1,0,0.1,0l-0.9,0.7l0,0l0,0c-0.1,0.1-0.4,0.1-0.5,0.1l-1.3-0.8
								c-0.1-0.1-0.3-0.3-0.2-0.5l0.2-1.2v-0.1c0,0.1,0,0.2,0,0.2s0,0-0.1-0.1l-0.1-0.2l-0.4-0.4c-0.1-0.2-0.1-0.1-0.1-0.1l-0.6-0.1
								h-0.3c-0.1,0-0.2,0-0.4-0.1s-0.3-0.3-0.3-0.4l-0.1-0.6l-0.1-0.7c0-0.1,0-0.4,0.1-0.5c0.1-0.1,0.2-0.2,0.3-0.2l0.2-0.1
								l0.5-0.3c0.1-0.1,0,0,0,0l0,0c0,0.1,0,0,0-0.1v-0.1l0.1-0.6l0.1-0.3c0,0,0-0.1,0,0c0,0,0,0.1,0.1,0.1c0,0,0,0-0.1-0.1
								C24.1,26.5,23.8,26.1,23.6,25.7z M24.5,25.7c0.2,0.2,0.5,0.4,0.7,0.7l0.1,0.1c0.1,0.1,0.1,0.2,0.1,0.3c0,0.1,0,0.2,0,0.3
								l-0.1,0.3l-0.1,0.6V28c0,0.1,0,0.1-0.1,0.2c-0.1,0.1-0.1,0.2-0.1,0.3c-0.1,0.1-0.1,0.1-0.2,0.1L24.3,29L24,29.1
								c0,0,0,0,0-0.1c0.1-0.1,0.1-0.2,0.1-0.2l0.1,0.5l0.1,0.6c0,0,0-0.1-0.1-0.1c-0.1-0.1-0.1,0-0.1,0h0.3l0.6,0.1
								c0,0,0.2,0,0.3,0.1c0.1,0.1,0.1,0.1,0.2,0.1c0.1,0.1,0.1,0.2,0.3,0.3l0.4,0.5l0.2,0.2c0,0.1,0.1,0.1,0.1,0.2
								c0,0.1,0.1,0.1,0.1,0.4v0.1l-0.3,1.1L26,32.3l1.3,0.8l-0.6,0.1l0,0l0.9-0.8c0.1,0,0,0,0.1-0.1c0.1-0.1,0.2-0.1,0.3-0.1
								c0.1,0,0.2,0,0.2,0l0.3,0.1l0.6,0.1h0.1h0.1c0.1,0,0.1,0,0.1,0.1c0.1,0.1,0.1,0.1,0.2,0.1c0.1,0,0.1,0.1,0.1,0.1l0.2,0.1
								l0.3,0.5l0.1,0.2c0,0,0,0-0.1-0.1s-0.1-0.1-0.2-0.1l0.5-0.1l0.3-0.1h0.1c0.1,0,0.1,0,0.1,0l-0.1,0.1c0,0.1,0,0.1,0,0l0.1-0.3
								l0.1-0.6c0-0.1,0.1-0.3,0.2-0.4c0.1-0.1,0.1-0.1,0.3-0.2c0.1-0.1,0.3-0.2,0.5-0.4l0.2-0.2c0.1,0,0.1-0.1,0.1-0.1
								c0.1,0,0.1-0.1,0.2-0.1H33c0.4,0.1,0.8,0.1,1.2,0.2l-0.4,0.1l0,0l0.8-1.2v0.3l0,0l-0.8-0.9l0,0c0,0,0,0-0.1-0.1
								s-0.1-0.1-0.1-0.2s0-0.1,0-0.2l0.1-0.3l0.1-0.6V28v-0.1c0,0,0-0.1,0.1-0.1c0-0.1,0.1-0.1,0.1-0.2c0.1-0.1,0.1-0.1,0.1-0.1
								l0.5-0.4l0.2-0.1c0,0,0.1,0,0,0V27l-0.1-0.6l-0.1-0.6c0,0,0,0,0.1,0.1l0,0h-0.3h-0.6c0,0-0.1,0-0.2-0.1
								c-0.1,0-0.1-0.1-0.2-0.1c-0.1-0.1-0.1-0.1-0.2-0.3l-0.4-0.4l-0.2-0.2c0,0-0.1-0.1-0.1-0.1c0-0.1-0.1-0.1-0.1-0.3v-0.1
								l0.2-1.2l0.2,0.5l0,0l-1.3-0.8l0.6-0.1l-0.7,0.7l-0.2,0.1l0,0L31,23.6c-0.1,0-0.1,0.1-0.1,0.1c-0.1,0-0.1,0-0.1,0
								c-0.1,0-0.1,0-0.2,0l-0.4,0.2l-0.5-0.1c-0.1,0-0.1,0-0.2-0.1c-0.1,0-0.1-0.1-0.2-0.1l-0.1-0.1c0-0.1-0.1-0.1-0.1-0.1
								l-0.1-0.1l-0.5-0.9l0.5,0.2l-1.5,0.4l0.4-0.4l-0.1,1v0.1c0,0.1-0.1,0.2-0.1,0.3c-0.1,0.1-0.2,0.3-0.3,0.4l-0.4,0.3l-0.4,0.2
								c-0.1,0.1-0.3,0.1-0.4,0.1c-0.2,0-0.3,0-0.4-0.1l-0.9-0.1l0.5-0.2C25,25,24.7,25.3,24.5,25.7z"/>
						</g>
					</g>
				</g>
				<g>
					<circle class="st8" cx="29.5" cy="28" r="3.3"/>
					<path class="st1" d="M32.5,29.9c-0.4,0.8-1.2,1.4-2.2,1.7c-0.9,0.2-1.9,0.1-2.8-0.4c-0.8-0.4-1.4-1.3-1.7-2.2
						c-0.2-0.9-0.1-2,0.4-2.8c0.5-0.8,1.3-1.4,2.2-1.7c0.9-0.2,2-0.1,2.8,0.4s1.4,1.3,1.6,2.2C33.1,28,33,29.1,32.5,29.9z
						 M32.1,29.6c0.4-0.7,0.5-1.5,0.3-2.3c-0.2-0.8-0.7-1.4-1.4-1.8c-1.4-0.8-3.3-0.3-4,1.1c-0.8,1.3-0.4,3.3,0.9,4.1
						c0.7,0.4,1.5,0.6,2.2,0.4C31,30.8,31.7,30.3,32.1,29.6z"/>
				</g>
			</g>
		</g>
	</g>
</g>
</svg>
