<?xml version="1.0" encoding="utf-8"?>
<!-- Generator: Adobe Illustrator 25.2.0, SVG Export Plug-In . SVG Version: 6.00 Build 0)  -->
<svg version="1.1" id="Слой_1" xmlns="http://www.w3.org/2000/svg" xmlns:xlink="http://www.w3.org/1999/xlink" x="0px" y="0px"
	 viewBox="0 0 40 40" style="enable-background:new 0 0 40 40;" xml:space="preserve">
<style type="text/css">
	.st0{fill:#FFD71C;}
	.st1{fill:#010101;}
	.st2{fill:none;stroke:#010101;stroke-width:0.4044;stroke-miterlimit:10;}
	.st3{fill:none;stroke:#010101;stroke-width:0.534;stroke-linecap:round;stroke-linejoin:round;stroke-miterlimit:10;}
	.st4{fill:#010101;stroke:#010101;stroke-width:0.178;stroke-miterlimit:10;}
	.st5{fill:none;stroke:#010101;stroke-width:0.395;stroke-linecap:round;stroke-linejoin:round;stroke-miterlimit:10;}
	.st6{fill:none;stroke:#010101;stroke-width:0.3256;stroke-linecap:round;stroke-linejoin:round;stroke-miterlimit:10;}
	.st7{fill:none;stroke:#010101;stroke-width:1.0195;stroke-linecap:round;stroke-linejoin:round;stroke-miterlimit:10;}
	.st8{fill:#FFFFFF;}
	.st9{fill:none;stroke:#010101;stroke-width:0.5279;stroke-linecap:round;stroke-linejoin:round;stroke-miterlimit:10;}
	.st10{fill:none;stroke:#010101;stroke-width:0.7388;stroke-miterlimit:10;}
	.st11{fill:none;stroke:#010101;stroke-width:0.7604;stroke-linecap:round;stroke-linejoin:round;stroke-miterlimit:10;}
	.st12{fill:none;stroke:#010101;stroke-width:0.8761;stroke-linecap:round;stroke-linejoin:round;stroke-miterlimit:10;}
	.st13{fill:none;stroke:#010101;stroke-width:0.7244;stroke-linecap:round;stroke-linejoin:round;stroke-miterlimit:10;}
	.st14{fill:none;stroke:#010101;stroke-width:0.5433;stroke-linecap:round;stroke-linejoin:round;stroke-miterlimit:10;}
	.st15{fill:#010101;stroke:#010101;stroke-width:0.5962;stroke-miterlimit:10;}
	.st16{fill:#010101;stroke:#010101;stroke-width:0.5962;stroke-linecap:round;stroke-linejoin:round;stroke-miterlimit:10;}
	.st17{opacity:0.51;enable-background:new    ;}
	.st18{fill:none;stroke:#000000;stroke-width:0.911;stroke-linecap:round;stroke-linejoin:round;stroke-miterlimit:10;}
	.st19{fill:none;stroke:#000000;stroke-width:0.8728;stroke-linecap:round;stroke-linejoin:round;stroke-miterlimit:10;}
	.st20{fill:none;stroke:#000000;stroke-width:0.7103;stroke-linecap:round;stroke-linejoin:round;stroke-miterlimit:10;}
	.st21{fill:none;stroke:#010101;stroke-width:0.8441;stroke-linecap:round;stroke-linejoin:round;stroke-miterlimit:10;}
</style>
<circle class="st0" cx="18.6" cy="15.8" r="11"/>
<g>
	<g id="Слой_2_16_">
		<g>
			<g>
				<g>
					<path d="M29.5,31.9c-0.1,0-0.2,0.2-0.2,0.1v-0.3c0-0.2,0-0.3,0-0.5c0-0.3-0.1-0.7-0.1-1c-0.1-0.7-0.3-1.4-0.4-2
						c-0.3-1.4-0.9-2.6-1.8-3.7c-0.8-1.1-1.8-2.1-3-2.7s-2.6-0.8-4-0.8c-1.4,0.1-2.7,0.4-4,1.1c-1.2,0.7-2.2,1.5-3,2.6
						c-1.6,2.1-2.4,4.9-2.2,7.5l0,0l-0.8-0.8C16.5,31.5,22.9,31.7,29.5,31.9z M30.3,32.6c-6.6,0.2-13.3,0.3-20.1,0.5
						c-0.4,0-0.8-0.3-0.8-0.8v-0.1l0,0c0-3,0.9-6.1,2.9-8.4c1-1.2,2.2-2.1,3.6-2.7c1.4-0.6,2.9-0.8,4.3-0.9c1.4-0.1,3,0.2,4.4,0.8
						c1.4,0.7,2.5,1.7,3.4,2.9c0.9,1.2,1.5,2.5,1.9,4c0.2,0.7,0.3,1.4,0.4,2.2c0.1,0.3,0.1,0.7,0.1,1c0,0.2,0,0.3,0,0.6V32
						C30.4,32.1,30.3,32.5,30.3,32.6z"/>
				</g>
				<g>
					<path d="M25.7,14.4c0,1.4-0.5,2.8-1.5,3.8c-0.9,1-2.4,1.7-3.8,1.7c-1.4,0-2.9-0.5-3.9-1.6c-1-1-1.6-2.4-1.6-3.9
						s0.6-2.9,1.6-3.9c1-1,2.4-1.6,3.9-1.6c1.4,0,2.9,0.6,3.8,1.6C25.1,11.6,25.7,13,25.7,14.4z M24.8,14.4c0-1.2-0.5-2.4-1.4-3.1
						c-0.8-0.8-1.9-1.3-3.1-1.3c-1.2,0-2.3,0.5-3,1.4c-0.8,0.8-1.3,1.9-1.3,3s0.5,2.2,1.3,3c0.8,0.8,1.9,1.3,3,1.3
						c1.1,0,2.3-0.4,3.1-1.2C24.3,16.8,24.9,15.6,24.8,14.4z"/>
				</g>
				<g>
					<path d="M19,21.1c0.3,0.6,0.7,1.1,0.9,1.6l-0.4-0.3h1.5l-0.3,0.3l0,0l0.9-1.9l0.3,0.6l0,0c-0.3-0.1-0.5-0.1-0.8-0.1
						c-0.3,0-0.5,0-0.8,0c-0.3,0-0.5,0-0.8,0.1L19,21.4C19,21.3,19.1,21.1,19,21.1z M18.3,20.6c0.2-0.2,0.6-0.3,0.8-0.3h0.4
						c0.3,0,0.6,0,0.8,0s0.6,0,0.8,0.1c0.3,0,0.6,0.1,0.9,0.2l0,0c0.2,0.1,0.3,0.3,0.3,0.5v0.1l0,0l-0.9,1.9l0,0
						c0.1,0,0.1,0,0.1,0.1c0,0.1,0,0.1-0.1,0.1h-0.3l-1.4,0.1c-0.2,0-0.3-0.1-0.4-0.3l0,0C18.8,22.3,18.5,21.4,18.3,20.6z"/>
				</g>
				<g>
					<path d="M20,23.3c-0.3,1.9-0.6,3.5-1,5.3l-0.1-0.5l1.7,2.4H20l1.7-2.4l-0.1,0.3l-0.8-5.7l0.5,0.4C20.8,23.3,20.5,23.3,20,23.3z
						 M19.4,22.3c0.6,0,1.3,0,1.9,0l0,0c0.3,0,0.4,0.2,0.4,0.4l0.8,5.7l0,0c0,0.1,0,0.3-0.1,0.3l-1.7,2.3c-0.2,0.2-0.3,0.3-0.5,0.1
						c0,0,0,0-0.1-0.1l0,0l-2-2.2c-0.1-0.1-0.2-0.3-0.1-0.4l0,0C18.4,26.3,18.9,24.3,19.4,22.3z"/>
				</g>
				<g>
					<polygon class="st8" points="28.1,27.1 30,23.3 32,27.1 36.1,28 33.1,31.1 33.7,35.3 29.8,33.1 26,35.3 27,31 23.8,27.9 					
						"/>
					<path d="M27.6,26.6c0.7-1.1,1.4-2.2,2.1-3.4l0,0c0.1-0.2,0.3-0.2,0.5-0.1c0.1,0,0.1,0.1,0.1,0.1l2,3.7L32,26.6l4.1,1l0,0
						c0.2,0.1,0.3,0.3,0.3,0.4c0,0.1,0,0.1-0.1,0.2l-3,3.1l0.1-0.3l0.7,4.2c0,0.2-0.1,0.3-0.3,0.3c-0.1,0-0.2,0-0.2,0l0,0l-4.1-2H30
						l-3.8,2c-0.2,0.1-0.4,0-0.5-0.2c0-0.1-0.1-0.2,0-0.3l0,0l0.7-4.4l0.2,0.6l-3.2-3.2c-0.3-0.3-0.3-0.6,0-0.8
						c0.1-0.1,0.2-0.2,0.3-0.2l0,0C25,27.1,26.3,26.8,27.6,26.6z M28.5,27.7c-1.6,0.3-3.1,0.5-4.7,0.7l0.3-0.9l3.3,3.1l0,0
						c0.2,0.2,0.3,0.3,0.2,0.6l-1.2,4.2L25.9,35l3.5-2.4c0.2-0.1,0.4-0.1,0.6,0l3.9,2.4l-0.4,0.4l-0.7-4.2c0-0.1,0-0.2,0.1-0.3
						l3-3.1l0.2,0.5l-4.1-0.7c-0.2,0-0.3-0.2-0.3-0.3l-1.8-3.9h0.6C29.8,24.9,29.2,26.3,28.5,27.7z"/>
				</g>
			</g>
		</g>
	</g>
</g>
</svg>
