<?xml version="1.0" encoding="utf-8"?>
<!-- Generator: Adobe Illustrator 26.1.0, SVG Export Plug-In . SVG Version: 6.00 Build 0)  -->
<svg version="1.1" id="Слой_1" xmlns="http://www.w3.org/2000/svg" xmlns:xlink="http://www.w3.org/1999/xlink" x="0px" y="0px"
	 viewBox="0 0 40 40" style="enable-background:new 0 0 40 40;" xml:space="preserve">
<style type="text/css">
	.st0{fill:#FFD71C;}
	.st1{fill:#010101;}
</style>
<circle class="st0" cx="13.7" cy="13.6" r="11"/>
<path class="st1" d="M34.4,22.4c0.1,0.1,0.4,0,0.6-0.2c0.1-0.1,0.2-0.2,0.3-0.4c0.3-0.3,0.5-0.6,0.7-0.9c0.4-0.5,0.8-1.1,1-1.7
	c0.2-0.6,0.2-1.2,0-1.8c-0.2-0.5-0.5-1-0.9-1.5c-1.7-2-5-6.4-7.8-5c-0.7,0.3-2.7,1.3-2.7,2.3c0,0.1,0,0.2,0,0.3c0,0.1,0,0.2,0.1,0.3
	c0,0.2,0.1,0.2,0.3,0.3c0.1,0.1,0.2,0.1,0.2,0.2c0,0,0,0,0,0.1c-0.7,1.6-3,3.1-4.7,3c-1.9-0.2-3.1-1.8-4.4-3.2
	c0.2-0.2,0.4-0.4,0.6-0.7c0-0.2,0-0.3-0.1-0.4c-0.3-0.4-1-0.8-1.5-1.1c-0.8-0.5-1.6-1.3-2.6-1.4c-1.1-0.1-1.6,1.1-2.3,1.7l0.7-0.6
	c0.2-0.2,0.5-0.4,0.7-0.6c0.5-0.3,1.1-0.1,1.6,0.2c0.3,0.3,0.8,0.6,1.2,1c-2.6,2.7-5.2,5.3-7.8,8c-0.4-0.5-0.7-1-1.1-1.4
	c-0.2-0.3-0.2-0.6-0.2-0.9c0.1-0.3,0.2-0.6,0.3-0.9c0.2-0.2,0.4-0.5,0.7-0.7c0.5-0.6,1-1.1,1.5-1.7c0.1-0.1,0.8-0.9,0.8-0.9
	c-0.6,0.5-1.3,1-1.9,1.5c-0.3,0.3-0.6,0.5-0.9,0.8c-0.3,0.3-0.6,0.5-0.9,0.9C6.1,17.5,6,17.9,6,18.3c-0.1,0.5,0.4,1.1,0.7,1.5
	c0.6,0.9,1.2,1.8,2,2.5c0.3,0.1,0.3,0,0.4-0.1c0.3-0.2,0.7-0.6,1-0.9c0,0.1,0,0.2,0.1,0.2c0.2,0.2,0.5,0.4,0.7,0.7
	c-3.1,2.9-1.8,7.9,2.4,8.9c0.5,1.4,1.2,2.6,2.6,3c0,0.5,0,1,0,1.6c0,0.2,0-0.2,0,0.1c0,0.1,0,0.3,0.1,0.4c0.1,0.4,0.3,0.7,0.7,0.8
	c0.8,0.3,1.1-0.1,1.3-0.7c0.4-0.3,0.9-0.2,1.3,0c0.3,0.7,0.8,1.2,1.6,0.7c0.2-0.2,0.3-0.4,0.4-0.6c0.4-0.2,0.8-0.1,1.2,0
	c0.1,0.5,0.4,0.8,1,0.8c0.6,0,0.8-0.4,1-0.8c0.4-0.2,0.9-0.2,1.2,0c0.1,0.4,0.4,0.8,1,0.8c0.6,0,0.9-0.5,1.1-1c0-0.2,0-0.4,0.1-0.6
	c0-0.1,0,0,0-0.3c0-1.1,0-2.1,0-3.2c0.2,0,0.4,0,0.6-0.1c2.6-0.6,5.9-1.4,6.8-4.3c0.6-2,0-4-1.2-5.6C34.2,22.3,34.1,22.3,34.4,22.4z
	 M28.9,11.7c2-0.6,3.2,1.2,4.4,2.5c0.8,0.8,2.6,2,3.1,3.1c0.2,0.4-0.1,2-0.6,3c-2.7-2.7-5.4-5.4-8-8C28.1,12,28.5,11.8,28.9,11.7z
	 M27.1,12.6C27.1,12.6,27.1,12.6,27.1,12.6c2.8,2.8,5.5,5.5,8.2,8.2c-0.5,0.6-1.1,0.7-1.7-0.1c-2.2-2.2-4.5-4.4-6.7-6.7
	C26.4,13.5,26.6,13,27.1,12.6z M31.6,19.8c-0.2,0.2-0.5,0.5-0.7,0.7c-0.3,0.3-0.7,0.9-1.2,0.7c-0.9-0.3-0.1-0.8,0.2-1.1
	c0.3-0.3,0.7-0.7,1-1C31.2,19.3,31.4,19.6,31.6,19.8z M28.9,17.1c-0.2,0.2-0.4,0.4-0.7,0.7c-0.4,0.4-0.6,0.7-1.1,0.7
	c-0.4,0-0.8-0.3-0.6-0.6c0.1-0.2,0.3-0.3,0.4-0.4c0.4-0.4,0.8-0.7,1.1-1.1C28.4,16.6,28.6,16.8,28.9,17.1z M26.8,15
	c0.3,0.3,0.5,0.5,0.8,0.8c-0.9,0.8-2.2,1.9-1.3,3.2c0.4,0.7,1.2,0.5,1.7,0c0.5-0.5,0.9-0.9,1.4-1.4c0.3,0.3,0.7,0.7,1,1
	c-0.9,0.8-2,1.7-1.4,2.9c0.2,0.4,0.7,0.8,1.2,0.7c0.3-0.1,0.4-0.3,0.6-0.5c0.4-0.5,0.9-0.9,1.3-1.4c0.3,0.3,0.5,0.5,0.8,0.8
	c-0.7,0.7-1.4,1.3-2,2c0,0-0.1,0.1-0.1,0.1c-0.3,0.3-0.6,0.7-0.8,1.1c-2.1-2.1-4.2-4.2-6.4-6.4C24.9,17.3,25.7,16.1,26.8,15z
	 M30.7,28.4c-0.1-0.3-0.1-0.6-0.3-0.9c-0.2-0.4-0.4-0.7-0.7-1c0.2-0.9,0.7-1.6,1.3-2.3C32.6,25.2,32.5,27.7,30.7,28.4z M22,18.4
	c0.3,0,0.7-0.1,1-0.2c0,0,0,0.1,0.1,0.1c2.2,2.2,4.4,4.4,6.7,6.7c-0.1,0.3-0.3,0.7-0.3,1c-1.1-1-2.7-1.8-3.8-2.6
	c-1.8-1.3-3.4-3-5.4-1.3c-1.8,1.5-3.3,3.3-4.9,4.9c-0.1,0.1-0.2,0.1-0.4,0.2c-0.1-0.8-0.3-1.6-0.7-2.3c2.2-2.2,4.3-4.3,6.5-6.5
	c0,0,0-0.1,0.1-0.1C21.1,18.3,21.5,18.4,22,18.4z M21.7,31.4c1-0.9,1.9-1.8,2.9-2.7c-0.1,1,0.3,2.1,0.9,2.8
	C24.2,31.5,22.9,31.4,21.7,31.4z M24.9,27.3c-1.4,1.3-2.8,2.7-4.3,4c0,0,0,0,0,0c0,0,0,0-0.1,0c0.2-1.1,0-2.4-0.7-3.3
	c-0.8-1-2-1.5-3.2-1.4c0.5-0.5,1-1,1.5-1.5c0.4-0.3,0.8-0.9,1.2-1.3c0.2,1.5,1.1,2.9,2.8,2.8c1.5-0.1,2-1.8,2.1-3.2
	c1.2,0.8,2.3,1.7,3,2.3C26.2,25.8,25.4,26.4,24.9,27.3z M14,28.6C14,28.6,14,28.6,14,28.6c-0.7-0.1-1.4-0.4-1.9-0.9
	c-0.6-0.6-0.8-1.4-0.4-2.2c0.3-0.5,0.7-0.9,1.1-1.2c0.2,0.2,0.5,0.4,0.7,0.7c0.1,0.2,0.2,0.5,0.3,0.7c0.2,0.4,0.8,1.6,0.7,2.1
	c0,0,0,0,0,0C14.3,28,14.1,28.3,14,28.6z M19.8,23.3c0.3-0.3,0.7-0.7,1.1-0.8c0.9-0.4,1.9,0,2.9,0.6c0,1.1-0.4,2.4-1.6,2.5
	C20.8,25.7,19.8,24.6,19.8,23.3z M16.8,14.8c1.1,1.2,2,2.4,3.2,3.1c-2.1,2.1-4.2,4.2-6.2,6.3c-0.1-0.1-0.2-0.2-0.2-0.3
	c-0.9-1.1-2-2-3-2.9c0.3-0.3,0.6-0.5,0.8-0.8c0,0,0,0,0,0c0.6,0.7,2.3,3,3.2,1.5c0.8-1.3-0.6-2.4-1.5-3.3c0.1-0.1,0.2-0.2,0.3-0.3
	c0.2-0.2,0.5-0.5,0.7-0.7c0,0.1,0,0.1,0.1,0.1c0.5,0.5,1,1,1.5,1.4c0.1,0.1,0.3,0.3,0.4,0.4c0.5,0.2,1-0.1,1.2-0.5
	c0.8-1.3-0.6-2.4-1.6-3.3C16.2,15.3,16.5,15,16.8,14.8C16.8,14.8,16.8,14.8,16.8,14.8z M12.7,18.9C12.7,18.9,12.7,18.9,12.7,18.9
	c0.4,0.4,0.7,0.8,1.1,1.1c0.2,0.2,0.4,0.4,0.5,0.6c0,0,0.1,0,0.1,0.1c0.1,0.3-0.2,0.5-0.5,0.6c-0.5,0-0.8-0.4-1.1-0.7
	c-0.3-0.3-0.5-0.6-0.8-0.8C12.2,19.4,12.5,19.1,12.7,18.9z M15.4,16.1C15.4,16.2,15.4,16.2,15.4,16.1c0.4,0.4,0.8,0.8,1.1,1.2
	c0.2,0.2,0.5,0.4,0.6,0.6c0.2,0.3-0.3,0.6-0.6,0.6c-0.4-0.1-0.7-0.5-1-0.8c-0.3-0.3-0.6-0.5-0.8-0.8C14.9,16.6,15.2,16.4,15.4,16.1z
	 M8.8,21.8C8.8,21.8,8.8,21.8,8.8,21.8C8.8,21.8,8.8,21.8,8.8,21.8z M8.9,21.7c-0.2-0.3-0.3-0.5-0.5-0.8c2.6-2.7,5.2-5.4,7.8-8.1
	c0,0,0-0.1,0-0.1c0.1,0.1,0.3,0.2,0.4,0.3c0.1,0.1,0.3,0.2,0.5,0.4c-2.7,2.6-5.4,5.3-8,8C9.1,21.5,9,21.6,8.9,21.7z M12.1,29.9
	c-0.6-0.3-1.1-0.7-1.5-1.2c-1.5-1.9-0.9-4.5,0.9-5.9c0.3,0.3,0.5,0.5,0.8,0.8c-1.1,1-1.6,2.4-1,3.9c0.4,0.9,1.2,1.7,2.2,1.9
	c0,0.1-0.1,0.2-0.1,0.3c-0.1,0.1,0,0.6-0.2,0.6C13.1,30.4,12.3,30,12.1,29.9z M13.7,30.7c0-0.1,0-0.1,0.1-0.2
	c0.3-0.9,0.6-1.7,1.3-2.4c2.4-1.5,5.9,0.6,5,3.5C18.3,34.5,14.9,33.6,13.7,30.7z M16.3,35.9C16.3,36,16.3,36.1,16.3,35.9L16.3,35.9z
	 M16.6,36.2c-0.1-0.1-0.2-0.2-0.3-0.3c0,0,0,0,0,0c0-0.2,0-0.4,0-0.5c0-0.3,0-0.7,0-1c0.1,0,0.1,0,0.2,0c0.5,0.1,0.9,0,1.2-0.1
	C17.8,35.3,17.8,36.9,16.6,36.2z M18.2,35.4c0-0.5,0-1,0-1.3c0.4-0.2,0.7-0.5,1-0.8c0,0.7,0,1.4,0,2.1
	C18.8,35.3,18.5,35.3,18.2,35.4z M19.5,35.7C19.5,35.7,19.5,35.7,19.5,35.7c0-0.2,0-0.3,0-0.5c0-0.8,0-1.5,0-2.3c0,0,0-0.1,0-0.1
	c0.2-0.2,0.5-0.4,0.8-0.5c0.2-0.1,0.5-0.2,0.7-0.2c0,1.1,0.2,2.6,0,3.5C20.8,36.5,19.7,36.6,19.5,35.7z M21.4,35.4
	c0-0.1,0-0.2,0-0.3c0-1,0-2,0-3c0.3,0,0.6-0.1,0.9-0.1c0,0,0,0,0,0c0,1.1,0,2.2,0,3.3c0,0,0,0.1,0,0.1C22,35.4,21.7,35.4,21.4,35.4z
	 M23.5,36.3c-1,0-0.7-1.2-0.7-1.8c0-0.8,0-1.6,0-2.4c0,0,0,0,0,0c0.5,0,1,0,1.5,0.1c0,0.8,0,1.5,0,2.3C24.2,35,24.5,36.3,23.5,36.3z
	 M24.6,35.5C24.6,35.4,24.6,35.4,24.6,35.5c0-1.2,0-2.2,0-3.3c0.3,0,0.6,0.1,0.9,0.1c0,1,0,2,0,3.1c0,0,0,0.1,0,0.1
	C25.3,35.3,24.9,35.4,24.6,35.5z M26.7,36.3c-1,0-0.7-1.3-0.7-1.9c0-0.7,0-1.5,0-2.2c0.4,0,0.8,0,1.1,0c0.1,0,0.2,0,0.3,0
	c0,0.7,0,1.4,0,2C27.4,35,27.7,36.3,26.7,36.3z M27.2,31.3c-1.8-0.1-2.9-2.1-1.9-3.7c0.7-1,2-1.3,3.1-1c1.5,1.4,2.9,3.3,0.2,4.4
	C28.2,31.2,27.7,31.3,27.2,31.3z M31.3,30.3c-0.3,0.1-0.6,0.2-0.9,0.3c0.2-0.4,0.3-0.8,0.4-1.3c2.2-0.9,2.5-4.2,0.8-5.8
	c0.3-0.2,0.5-0.5,0.8-0.8c0.3-0.3,0.5-0.6,0.7-0.7c0,0,0,0,0,0C35.9,25.2,35.1,29.1,31.3,30.3z"/>
</svg>
