<?xml version="1.0" encoding="utf-8"?>
<!-- Generator: Adobe Illustrator 25.2.0, SVG Export Plug-In . SVG Version: 6.00 Build 0)  -->
<svg version="1.1" id="Слой_1" xmlns="http://www.w3.org/2000/svg" xmlns:xlink="http://www.w3.org/1999/xlink" x="0px" y="0px"
	 viewBox="0 0 40 40" style="enable-background:new 0 0 40 40;" xml:space="preserve">
<style type="text/css">
	.st0{fill:#FFD71C;}
	.st1{fill:#010101;}
	.st2{fill:none;stroke:#010101;stroke-width:0.4044;stroke-miterlimit:10;}
	.st3{fill:none;stroke:#010101;stroke-width:0.534;stroke-linecap:round;stroke-linejoin:round;stroke-miterlimit:10;}
	.st4{fill:#010101;stroke:#010101;stroke-width:0.178;stroke-miterlimit:10;}
	.st5{fill:none;stroke:#010101;stroke-width:0.395;stroke-linecap:round;stroke-linejoin:round;stroke-miterlimit:10;}
	.st6{fill:none;stroke:#010101;stroke-width:0.3256;stroke-linecap:round;stroke-linejoin:round;stroke-miterlimit:10;}
	.st7{fill:none;stroke:#010101;stroke-width:1.0195;stroke-linecap:round;stroke-linejoin:round;stroke-miterlimit:10;}
	.st8{fill:#FFFFFF;}
	.st9{fill:none;stroke:#010101;stroke-width:0.5279;stroke-linecap:round;stroke-linejoin:round;stroke-miterlimit:10;}
	.st10{fill:none;stroke:#010101;stroke-width:0.7388;stroke-miterlimit:10;}
	.st11{fill:none;stroke:#010101;stroke-width:0.7604;stroke-linecap:round;stroke-linejoin:round;stroke-miterlimit:10;}
	.st12{fill:none;stroke:#010101;stroke-width:0.8761;stroke-linecap:round;stroke-linejoin:round;stroke-miterlimit:10;}
	.st13{fill:none;stroke:#010101;stroke-width:0.7244;stroke-linecap:round;stroke-linejoin:round;stroke-miterlimit:10;}
	.st14{fill:none;stroke:#010101;stroke-width:0.5433;stroke-linecap:round;stroke-linejoin:round;stroke-miterlimit:10;}
	.st15{fill:#010101;stroke:#010101;stroke-width:0.5962;stroke-miterlimit:10;}
	.st16{fill:#010101;stroke:#010101;stroke-width:0.5962;stroke-linecap:round;stroke-linejoin:round;stroke-miterlimit:10;}
	.st17{opacity:0.51;enable-background:new    ;}
	.st18{fill:none;stroke:#000000;stroke-width:0.911;stroke-linecap:round;stroke-linejoin:round;stroke-miterlimit:10;}
	.st19{fill:none;stroke:#000000;stroke-width:0.8728;stroke-linecap:round;stroke-linejoin:round;stroke-miterlimit:10;}
	.st20{fill:none;stroke:#000000;stroke-width:0.7103;stroke-linecap:round;stroke-linejoin:round;stroke-miterlimit:10;}
	.st21{fill:none;stroke:#010101;stroke-width:0.8441;stroke-linecap:round;stroke-linejoin:round;stroke-miterlimit:10;}
</style>
<circle class="st0" cx="25" cy="16.7" r="11"/>
<g>
	<g id="Слой_1_6_">
		<g>
			<g>
				<path class="st1" d="M6.9,30.5l9.6,0.1l4.8,0.1h2.4H25h0.1c0.1,0,0.4,0.1,0.4,0.1c0.1,0.1,0.1,0.1,0.2,0.2
					c0.1,0.1,0.3,0.2,0.4,0.3c0.3,0.1,0.6,0.2,1,0.2s0.7-0.1,0.9-0.3c0.5-0.4,0.5-1.1,0.6-2c0-0.4,0-0.8,0.1-1.2v-0.6v-0.3
					c0,0,0-0.2,0.1-0.4c0.1-0.1,0.2-0.2,0.4-0.2c0.7,0,1.3-0.6,1.2-1.3c0-0.1,0-0.1,0-0.2c0-0.1,0.1-0.3,0.2-0.4l0.3-0.1l0.5-0.4
					l0.3-0.1c0,0-0.1,0.1,0,0l0.1-0.1l0.1-0.1l0.4-0.5l0.4-0.5c0-0.1,0.1-0.1,0.1-0.1c-0.1,0,0,0.1,0,0v-0.3v-1.2V21
					c0-0.2,0,0,0.1,0L32,20.8l-0.6-0.2l-0.3-0.1l-0.3-0.1l-2-1.3c-0.1-0.1-0.1-0.1-0.1-0.3v-0.7l0.3,0.3h-5.6
					c-0.1,0-0.3-0.1-0.3-0.3v-0.7l0.3,0.3H8H7.1H6.9H6.8c-0.1,0-0.1,0-0.1,0c0.1,0,0.1-0.1,0.1-0.1v0.2l0.1,1.9l0.1,3.8L7,27.2
					L7,29.1V30v0.5v0.1c0,0,0,0.1,0,0C7.1,30.6,7,30.5,6.9,30.5z M6.9,31.4c-0.3,0-0.6-0.2-0.6-0.5c0-0.2,0-0.1,0-0.2v-0.1v-0.5
					v-0.9v-1.9v-3.8v-3.8v-1.9v-0.2c0-0.2,0.1-0.4,0.4-0.5c0.1,0,0.1,0,0.2,0H7h0.2h0.9h15.2c0.1,0,0.3,0.1,0.3,0.3v0.7l-0.3-0.3
					h5.6c0.1,0,0.3,0.1,0.3,0.3v0.7L29,18.5l2,1.3c0.2,0.1,0.3,0.2,0.5,0.3l0.6,0.2l0.6,0.2c0.1,0.1,0.2,0.1,0.3,0.3
					c0.1,0.1,0,0.2,0,0.2v0.3v1.2v0.3c0,0,0,0.2-0.1,0.3l-0.1,0.4l-0.4,0.5l-0.4,0.5L32,24.5l-0.1,0.1c0,0-0.1,0.1-0.1,0.1l-0.3,0.1
					l-0.4,0.4l-0.3,0.1l0.1-0.1c0,0,0,0.1,0,0.1c0.1,0.4-0.1,1-0.4,1.3c-0.1,0.2-0.4,0.4-0.6,0.4c-0.2,0.1-0.5,0.1-0.7,0.1
					c0.1,0,0.1,0,0.1-0.1c0,0,0-0.1,0,0v0.3v0.6c0,0.4,0,0.8,0,1.2c0,0.4,0,0.8-0.1,1.3s-0.3,0.9-0.7,1.3c-0.4,0.3-0.8,0.4-1.3,0.5
					c-0.5,0.1-1-0.1-1.4-0.3c-0.2-0.1-0.4-0.2-0.6-0.4c-0.1-0.1-0.2-0.1-0.3-0.2c0,0.1,0.1,0.1,0.1,0.1h-0.1h-1.2h-2.4h-4.8
					L6.9,31.4z"/>
			</g>
			<g>
				<path class="st1" d="M26.7,26c0.1,0.6-0.4,1.3-1.1,1.3c-0.4,0-0.7-0.1-0.9-0.4c-0.3-0.2-0.4-0.6-0.4-0.9s0.2-0.6,0.4-0.8
					c0.3-0.2,0.6-0.3,0.8-0.3C26.2,25,26.7,25.5,26.7,26z M26.4,26c0-0.3-0.1-0.5-0.3-0.7c-0.2-0.2-0.4-0.3-0.7-0.2
					c-0.5,0.1-0.8,0.5-0.8,0.9c0,0.4,0.4,0.8,0.8,0.8c0.2,0,0.4,0,0.6-0.2C26.3,26.5,26.4,26.3,26.4,26z"/>
			</g>
			<g>
				<path class="st1" d="M10.1,23.5c0.1,0.6-0.4,1.3-1.1,1.3c-0.4,0-0.7-0.1-0.9-0.4c-0.3-0.2-0.4-0.6-0.4-0.9s0.2-0.6,0.4-0.8
					c0.3-0.2,0.6-0.3,0.8-0.3C9.6,22.4,10.1,22.9,10.1,23.5z M9.9,23.5c0-0.3-0.1-0.5-0.3-0.7c-0.2-0.2-0.4-0.3-0.7-0.2
					c-0.5,0.1-0.8,0.5-0.8,0.9c0,0.4,0.4,0.8,0.8,0.8c0.2,0,0.4,0,0.6-0.2C9.7,24,9.9,23.8,9.9,23.5z"/>
			</g>
			<path class="st5" d="M21.7,16v-1.5h0.1v-0.4h-0.4v-0.8h-0.8v0.8h-0.4v0.4h0.1v1.1h-1.1v-1.1h0.1v-0.4h-0.4v-0.8h-0.8v0.8H18v0.4
				h0.1v1.1h-1.3v-1.1H17v-0.4h-0.4v-0.8h-0.8v0.8h-0.4v0.4h0.1v1.1h-1.1v-1.1h0.1v-0.4h-0.4v-0.8h-0.8v0.8h-0.4v0.4h0.1v1.1h-1.2
				v-1.1h0.1v-0.4h-0.4v-0.8h-0.8v0.8h-0.4v0.4h0.1v1.1H9.8v-1.1h0.1v-0.4H9.5v-0.8H8.7v0.8H8.4v0.4h0.1v1.1C7.6,15.9,7,16.4,7,17.4
				l15.5,0.1C22.4,16.8,22.2,16.5,21.7,16z"/>
			<line class="st6" x1="28.8" y1="19.1" x2="29" y2="26.7"/>
			<g>
				<path class="st1" d="M23.2,18.1l0.3,12.9c0,0.1-0.1,0.3-0.3,0.3c-0.1,0-0.3-0.1-0.3-0.3l0,0L23.2,18.1z"/>
			</g>
			<g>
				<path class="st1" d="M16,17.4c0,0.4,0,0.8,0,1.1c0,0.2,0,0.4-0.1,0.6c-0.1,0.2-0.4,0.3-0.6,0.4c-0.2,0-0.5-0.1-0.6-0.3
					c-0.1-0.2-0.2-0.5-0.2-0.6c0-0.4,0-0.8,0-1.1h0.4c0,0.4,0,0.8,0,1.1c0,0.2,0,0.4,0.1,0.4c0.1,0.1,0.2,0.2,0.4,0.2
					c0.4,0,0.6-0.3,0.6-0.7c0-0.4,0.1-0.8,0-1.2L16,17.4z"/>
			</g>
			<g>
				<path class="st1" d="M18.5,17.4c0,0.4,0,0.8,0,1.1c0,0.2,0,0.4-0.1,0.6c-0.1,0.2-0.4,0.3-0.6,0.4c-0.2,0-0.5-0.1-0.6-0.3
					C17,19,17,18.7,17,18.6c0-0.4,0-0.8,0-1.1h0.4c0,0.4,0,0.8,0,1.1c0,0.2,0,0.4,0.1,0.4c0.1,0.1,0.2,0.2,0.4,0.2
					c0.4,0,0.6-0.3,0.6-0.7c0-0.4,0.1-0.8,0-1.2L18.5,17.4z"/>
			</g>
			<g>
				<path class="st1" d="M20.9,17.4c0,0.4,0,0.8,0,1.1c0,0.2,0,0.4-0.1,0.6c-0.1,0.2-0.4,0.3-0.6,0.4c-0.2,0-0.5-0.1-0.6-0.3
					c-0.1-0.2-0.2-0.5-0.2-0.6c0-0.4,0-0.8,0-1.1h0.4c0,0.4,0,0.8,0,1.1c0,0.2,0,0.4,0.1,0.4c0.1,0.1,0.2,0.2,0.4,0.2
					c0.4,0,0.6-0.3,0.6-0.7c0-0.4,0.1-0.8,0-1.2L20.9,17.4z"/>
			</g>
			<g>
				<path class="st1" d="M5.4,26.1c0,0.1-0.1,0.3-0.1,0.4c0,0.1-0.1,0.1-0.1,0.1l0,0c-0.3,0-0.6,0-0.8,0c-0.1,0-0.1,0-0.1-0.1l0,0
					c-0.1-0.1-0.2-0.2-0.4-0.2c-0.1,0-0.2,0-0.3,0c-0.1,0-0.1,0.1-0.2,0.1c-0.1,0.1-0.1,0.2-0.1,0.4v0.6c0,0.1,0,0.4,0,0.5
					c0,0.1,0.1,0.2,0.2,0.2s0.1,0,0.2,0S4,28,4,28c0.1,0,0.1-0.1,0.1-0.2c0-0.1,0.1-0.2,0.3-0.2l0,0h0.8c0.2,0,0.4,0.1,0.4,0.4l0,0
					l0,0v0.8v0.1v0.1v0.1c0,0.1,0.1,0.1,0.1,0.2c0.3,0.4,0.6,0.6,1,1.1l0,0l-0.6,0.2l0.2-6l0,0l0.2,0.1C6.3,24.8,6,25,5.8,25.2
					C5.6,25.5,5.4,25.8,5.4,26.1z M5.2,26.1c0-0.2,0.1-0.4,0.2-0.6c0.1-0.1,0.2-0.3,0.4-0.4c0.3-0.3,0.6-0.5,0.8-0.7
					c0.1-0.1,0.1-0.1,0.2,0l0.1,0.1l0,0l0.2,6c0,0.2-0.1,0.4-0.3,0.4c-0.1,0-0.2,0-0.2-0.1l0,0l0,0c-0.3-0.3-0.8-0.6-1.1-1.1
					c-0.1-0.1-0.1-0.2-0.2-0.4c0-0.1-0.1-0.1-0.1-0.3v-0.1v-0.1V28l0.4,0.4H4.7l0.3-0.2c-0.1,0.3-0.4,0.5-0.6,0.6
					c-0.1,0.1-0.3,0-0.4,0c-0.1,0-0.3,0-0.4-0.1C3.2,28.4,3,28.2,3,28c0-0.1,0-0.3,0-0.4v-0.3v-0.6c0-0.3,0.1-0.5,0.4-0.6
					c0.1-0.1,0.2-0.1,0.4-0.1s0.2,0,0.3,0c0.2,0,0.4,0.2,0.6,0.4l-0.1-0.1c0.3,0,0.6,0.1,0.8,0l-0.1,0.1C5.2,26.4,5.2,26.2,5.2,26.1
					z"/>
			</g>
			<g>
				<path class="st1" d="M6.8,20.6l3.9,0.1l-0.3,0.2l0.1-1.7l0,0c0-0.1,0.1-0.1,0.1-0.1l2.5,0.1l-0.1,0.1l0.1-1.8l0.1,1.8
					c0,0.1-0.1,0.1-0.1,0.1l0,0l0,0l-2.5,0.1l0.1-0.1l0.1,1.7c0,0.1-0.1,0.2-0.2,0.2l0,0l0,0L6.7,21c-0.1,0-0.2-0.1-0.2-0.3
					C6.6,20.8,6.6,20.6,6.8,20.6z"/>
			</g>
			<g>
				<g>
					<circle class="st0" cx="27.5" cy="16.5" r="5.9"/>
					<path class="st1" d="M33.1,14.1c0.6,1.5,0.7,3.2,0.1,4.7c-0.6,1.5-1.8,2.7-3.2,3.4c-1.5,0.6-3.2,0.7-4.7,0.1
						c-1.5-0.6-2.8-1.8-3.4-3.3c-0.6-1.5-0.7-3.2-0.1-4.8c0.6-1.5,1.8-2.7,3.3-3.4c1.5-0.6,3.2-0.7,4.7-0.1
						C31.2,11.3,32.4,12.6,33.1,14.1z M32.7,14.2c-0.6-1.3-1.8-2.5-3.2-3c-1.4-0.6-3-0.5-4.4,0.1c-1.3,0.6-2.5,1.8-3,3.2
						c-0.6,1.4-0.5,3,0.1,4.3c0.6,1.3,1.7,2.5,3.1,3c1.3,0.6,3,0.5,4.3-0.1c1.3-0.6,2.5-1.8,3-3.1C33.3,17.2,33.3,15.5,32.7,14.2z"
						/>
				</g>
				<g>
					<g>
						<g>
							<g>
								<path class="st1" d="M23.3,17.2c0-0.4-0.1-0.8-0.1-1.2c0-0.1,0.1-0.2,0.1-0.2l0.6-0.2c0.1,0,0.1-0.1,0.1,0c0,0,0,0,0-0.1
									l0.1-0.3l0.1-0.3c0-0.1,0-0.1,0-0.1l0,0l-0.1-0.1l-0.2-0.6c-0.1-0.1,0-0.2,0.1-0.3l0.8-0.8C25,13,25.1,13,25.2,13l0.6,0.3
									l0.1,0.1l0,0c0,0,0,0,0.1,0l0.3-0.1l0.3-0.1c0.1,0,0.1-0.1,0,0.1l0.1-0.1l0.2-0.6c0-0.1,0.1-0.1,0.2-0.1h1.1l0,0l0,0
									c0.1,0,0.2,0.1,0.2,0.1l0.2,0.8c-0.1-0.1,0.1,0.1,0.2,0.1l0.4,0.1c0.1,0.1,0.2,0.1,0.3,0.1l0.4-0.1l0.2-0.1
									c0,0,0.1-0.1,0.1-0.1c0.1,0,0.1,0.1,0.2,0.1l0.3,0.3l0.3,0.3c0,0.1,0.1,0.1,0.1,0.2c0,0.1,0,0.1-0.1,0.1l-0.1,0.2l-0.2,0.4
									c-0.1,0.1,0,0.1,0,0.3l0.1,0.4c0.1,0.1,0.1,0.3,0.1,0.3l0.8,0.3l0,0c0.1,0,0.1,0.1,0.1,0.1l0,0v1.1l0,0l0,0
									c0,0.1-0.1,0.1-0.1,0.1c-0.3,0.1-0.5,0.1-0.8,0.2c0-0.1-0.1,0.1-0.1,0.3l-0.1,0.4c-0.1,0.1-0.1,0.2,0,0.3l0.2,0.4l0.1,0.1
									c0,0,0.1,0.1,0.1,0.1c0,0.1-0.1,0.2-0.1,0.2l-0.3,0.3l-0.2,0.4c-0.1,0.1-0.1,0.1-0.2,0.1s-0.1,0-0.2-0.1l-0.2-0.1l-0.4-0.1
									c-0.1-0.1,0,0-0.2,0l-0.4,0.1l-0.2,0.1h-0.1l0,0v-0.1l0,0l-0.1,0.8l0,0l0,0c0,0.1-0.1,0.1-0.2,0.1H27
									c-0.1,0-0.2-0.1-0.2-0.1l-0.3-0.8c0,0,0-0.1,0,0c0.1,0.1,0.1,0.1,0.1,0.1h-0.1l-0.2-0.1L26,19.7c-0.1-0.1-0.1-0.1-0.2-0.1
									l-0.4,0.1l-0.2,0.1c-0.1,0-0.1,0.1-0.2,0.1c-0.1,0-0.2-0.1-0.2-0.1l-0.3-0.3l-0.3-0.3c-0.1-0.1-0.1-0.1-0.1-0.3
									c0-0.1,0.1-0.1,0.1-0.2l0.1-0.1l0.1-0.4c0-0.1,0,0,0-0.1l0,0l-0.1-0.1l-0.1-0.4c-0.1-0.1-0.1-0.3-0.1-0.2
									C23.8,17.4,23.6,17.3,23.3,17.2z M23.6,16.9c0.2,0.1,0.4,0.1,0.6,0.1h0.1c0.1,0.1,0.1,0.1,0.1,0.1c0.1,0.1,0.1,0.1,0.1,0.1
									l0.1,0.2l0.1,0.4l0.1,0.1c0,0,0,0.1,0.1,0.1c0,0.1,0,0.1,0,0.2c0,0.1-0.1,0.1-0.1,0.1l-0.2,0.4L24.6,19l0,0v-0.1l0.3,0.3
									l0.3,0.3c0,0,0,0-0.1,0s-0.1,0,0,0l0.2-0.1l0.4-0.2c0.2-0.1,0.5,0,0.6,0l0.4,0.1l0.2,0.1c0,0,0.1,0,0.1,0.1
									c0,0,0.1,0.1,0.1,0.1v0.1l0.3,0.8l-0.2-0.1h1.1l-0.2,0.1l0,0l0.2-0.8l0,0c0,0,0-0.1,0.1-0.1c0.1-0.1,0.1-0.1,0.1-0.1
									c0.1,0,0.1-0.1,0.1-0.1l0.2-0.1l0.4-0.1l0-0.1h0.1c0.1,0,0.1,0,0.1,0c0.1,0,0.1,0,0.2,0h0.1h0.1l0.4,0.2l0.2,0.1l0,0
									c-0.1,0-0.1,0-0.1,0l0.3-0.3l0.3-0.3c0,0,0,0,0,0.1l0,0l-0.1-0.1l-0.1-0.4c-0.1-0.2,0-0.4,0.1-0.5l0.1-0.4l0.1-0.2
									c0,0,0-0.1,0.1-0.1c0,0,0-0.1,0.1-0.1h0.1c0.3-0.1,0.5-0.2,0.8-0.3L31.4,17l0,0V16l0.1,0.1l0,0l-0.8-0.3l-0.1-0.1
									c0-0.1-0.1-0.1-0.1-0.1l-0.1-0.2l-0.1-0.4c0-0.1-0.1-0.1-0.1-0.2c0-0.1,0-0.2,0.1-0.3l0.2-0.4l0.1-0.2c0-0.1,0,0,0-0.1
									l-0.3-0.3L30,13.4c0,0,0.1,0,0,0l-0.2,0.1l-0.4,0.2c-0.2,0.1-0.4,0-0.5,0l-0.4-0.1l-0.2,0c0,0-0.1,0-0.1-0.1
									c0,0-0.1-0.1-0.1-0.1v-0.1l-0.3-0.8l0.2,0.1l0,0h-1.1l0.2-0.1l-0.2,0.6l-0.1,0.1c-0.1,0.2-0.2,0.2-0.3,0.2l-0.4,0.1
									l-0.4,0.1c0,0-0.2,0.1-0.3,0.1c-0.1,0-0.1,0-0.1-0.1l-0.1-0.1L25,13.5l0.3-0.1l-0.8,0.8l0.1-0.3l0.3,0.6l0.1,0.1
									c0,0.1,0,0.1,0.1,0.1c0,0.1,0,0.2-0.1,0.3l-0.1,0.4l-0.1,0.4c-0.1,0.1-0.1,0.1-0.2,0.2C24.3,16,24.3,16,24.2,16l-0.6,0.2
									l0.1-0.2C23.7,16.3,23.7,16.6,23.6,16.9z"/>
							</g>
						</g>
					</g>
					<g>
						<path class="st1" d="M29.9,16.5c0.1,1.3-1.1,2.5-2.4,2.5c-0.6,0-1.3-0.2-1.8-0.7c-0.5-0.4-0.8-1.1-0.8-1.8
							c0-0.6,0.3-1.3,0.8-1.8c0.5-0.5,1.1-0.7,1.8-0.7C28.8,14.1,30,15.2,29.9,16.5z M29.6,16.5c0-0.6-0.2-1.1-0.6-1.5
							c-0.4-0.4-0.9-0.6-1.5-0.6c-1.1,0-2,1-2,2s0.9,2,2,2c0.6,0,1.1-0.2,1.5-0.6C29.4,17.6,29.6,17,29.6,16.5z"/>
					</g>
				</g>
			</g>
		</g>
	</g>
</g>
</svg>
