<?xml version="1.0" encoding="utf-8"?>
<!-- Generator: Adobe Illustrator 25.2.0, SVG Export Plug-In . SVG Version: 6.00 Build 0)  -->
<svg version="1.1" id="Слой_1" xmlns="http://www.w3.org/2000/svg" xmlns:xlink="http://www.w3.org/1999/xlink" x="0px" y="0px"
	 viewBox="0 0 40 40" style="enable-background:new 0 0 40 40;" xml:space="preserve">
<style type="text/css">
	.st0{fill:#FFD71C;}
	.st1{fill:#010101;}
	.st2{fill:none;stroke:#010101;stroke-width:0.4044;stroke-miterlimit:10;}
	.st3{fill:none;stroke:#010101;stroke-width:0.534;stroke-linecap:round;stroke-linejoin:round;stroke-miterlimit:10;}
	.st4{fill:#010101;stroke:#010101;stroke-width:0.178;stroke-miterlimit:10;}
	.st5{fill:none;stroke:#010101;stroke-width:0.395;stroke-linecap:round;stroke-linejoin:round;stroke-miterlimit:10;}
	.st6{fill:none;stroke:#010101;stroke-width:0.3256;stroke-linecap:round;stroke-linejoin:round;stroke-miterlimit:10;}
	.st7{fill:none;stroke:#010101;stroke-width:1.0195;stroke-linecap:round;stroke-linejoin:round;stroke-miterlimit:10;}
	.st8{fill:#FFFFFF;}
	.st9{fill:none;stroke:#010101;stroke-width:0.5279;stroke-linecap:round;stroke-linejoin:round;stroke-miterlimit:10;}
	.st10{fill:none;stroke:#010101;stroke-width:0.7388;stroke-miterlimit:10;}
	.st11{fill:none;stroke:#010101;stroke-width:0.7604;stroke-linecap:round;stroke-linejoin:round;stroke-miterlimit:10;}
	.st12{fill:none;stroke:#010101;stroke-width:0.8761;stroke-linecap:round;stroke-linejoin:round;stroke-miterlimit:10;}
	.st13{fill:none;stroke:#010101;stroke-width:0.7244;stroke-linecap:round;stroke-linejoin:round;stroke-miterlimit:10;}
	.st14{fill:none;stroke:#010101;stroke-width:0.5433;stroke-linecap:round;stroke-linejoin:round;stroke-miterlimit:10;}
	.st15{fill:#010101;stroke:#010101;stroke-width:0.5962;stroke-miterlimit:10;}
	.st16{fill:#010101;stroke:#010101;stroke-width:0.5962;stroke-linecap:round;stroke-linejoin:round;stroke-miterlimit:10;}
	.st17{opacity:0.51;enable-background:new    ;}
	.st18{fill:none;stroke:#000000;stroke-width:0.911;stroke-linecap:round;stroke-linejoin:round;stroke-miterlimit:10;}
	.st19{fill:none;stroke:#000000;stroke-width:0.8728;stroke-linecap:round;stroke-linejoin:round;stroke-miterlimit:10;}
	.st20{fill:none;stroke:#000000;stroke-width:0.7103;stroke-linecap:round;stroke-linejoin:round;stroke-miterlimit:10;}
	.st21{fill:none;stroke:#010101;stroke-width:0.8441;stroke-linecap:round;stroke-linejoin:round;stroke-miterlimit:10;}
</style>
<circle class="st0" cx="26.3" cy="19.7" r="12.1"/>
<g>
	<g id="Слой_1_8_">
		<g>
			<g>
				<g>
					<path class="st1" d="M11.5,22.4c-0.5,0.2-0.7-0.2-1-0.3c-0.2-0.2-0.5-0.4-0.7-0.6c-0.5-0.4-0.9-0.8-1.3-1.3
						c-0.4-0.5-0.7-1.2-0.9-1.8c-0.1-0.7,0-1.4,0.3-2.1l2-3c0.2-0.2,0.3-0.6,0.7-0.8c0.2-0.2,0.6-0.4,0.9-0.6
						c0.3-0.1,0.7-0.2,0.9-0.2l0.9-0.2l7.1-1.2L24,9.7c0.6-0.1,1.2-0.2,1.8-0.2c0.7-0.1,1.4,0.1,1.9,0.7l0,0L27.4,10l0.9,0.1l0,0
						l0,0c0.1,0,0.2,0.1,0.2,0.2c0.1,0.3,0.2,0.7,0.5,1c0.2,0.2,0.5,0.6,0.8,0.7l0,0c0.1,0.1,0.2,0.2,0.1,0.3l-0.1,0.1L29,13l0,0
						l0,0c-0.1,0.1-0.2,0.1-0.2,0c-0.2-0.2-0.5,0.1-0.7,0.4c-0.2,0.3-0.2,0.7-0.2,1.1c0,0.4,0.1,0.7,0.2,1.1
						c0.2,0.3,0.4,0.4,0.7,0.3l0,0c0.2,0,0.3,0.1,0.3,0.2v0.1v0.8l0,0v0.1c0,0.1-0.1,0.2-0.2,0.2c-0.6,0.1-1.2,0.2-1.7,0.6l0,0l0,0
						l3,2.1l0,0L29.9,20l1.1-0.2l-0.2,0.3c-0.1-0.2-0.2-0.3-0.2-0.5c0-0.1,0-0.2,0-0.3c0-0.2,0.1-0.2,0.2-0.3c0,0,0.1-0.1,0.2-0.1
						l0,0l2.8,0.2l0,0c0.1,0,0.2,0,0.2,0.1c0.9,1.2,1.9,2.3,2.7,3.6c0.1,0.2,0.2,0.3,0.2,0.5c0.1,0.1,0.1,0.2,0.1,0.3
						c0,0.1,0.1,0.2,0,0.5s-0.3,0.4-0.5,0.4c-0.2,0-0.2,0-0.4,0c-0.2,0-0.4-0.1-0.6-0.1c-0.7-0.2-1.5-0.5-2.2-0.7l0,0h0.3l-1.4,0.5
						l0.3-0.4v1.3l0,0c0,0.2-0.2,0.3-0.3,0.4l0,0l-0.6,0.2l0,0l0.3-0.3l-0.8,2l0,0l0,0c-0.1,0.1-0.2,0.2-0.2,0.2l-15.4,4.1l0,0
						c-0.2,0-0.2,0-0.4-0.1l-3.9-2.2l0,0h0.4c-0.8,0.2-1.7,0.5-2.5,0.7s-1.7,0.2-2.5,0.3c-0.8,0.1-1.7,0.1-2.6-0.1
						c-0.4-0.1-0.8-0.2-1.2-0.4c-0.4-0.2-0.8-0.4-1.2-0.8l0,0c-0.1-0.1-0.1-0.2-0.1-0.2l-0.1-3.8v0.1c-0.1-0.2,0-0.5,0.2-0.7
						c0.2-0.2,0.4-0.3,0.7-0.3c0.4,0,0.7,0.1,1.1,0.1c0.3,0.1,0.7,0.1,1,0.2c0.3,0.1,0.7,0.3,1,0.7v0.1l0,0l0,0l0,0
						c-0.1-0.1,0,0,0.1,0.1c0.1,0,0.2,0.1,0.2,0.1c0.2,0.1,0.4,0.1,0.6,0.1c0.4,0,0.8-0.1,1.2-0.2c0.8-0.2,1.7-0.4,2.5-0.7l0,0
						l-0.2,0.2l0.7-2.3c0.1-0.2,0.3-0.4,0.6-0.3c0.2,0.1,0.4,0.3,0.3,0.6v0.1l-1.2,2.2l0,0c0,0.1-0.1,0.1-0.1,0.1l0,0
						c-0.8,0.3-1.7,0.6-2.6,0.8c-0.4,0.1-0.9,0.2-1.3,0.2c-0.2,0-0.5,0-0.7-0.1c-0.1,0-0.2-0.1-0.4-0.2c-0.2-0.1-0.2-0.1-0.4-0.4
						v0.1c-0.2-0.4-0.9-0.5-1.6-0.6c-0.3,0-0.7-0.1-0.9-0.1c-0.2,0.1-0.2,0.1-0.2,0.2V25l0.2,3.8l-0.1-0.2l0,0
						c0.2,0.2,0.5,0.4,0.8,0.6c0.3,0.2,0.7,0.2,1.1,0.3c0.7,0.2,1.6,0.1,2.3,0c0.8-0.1,1.6-0.2,2.4-0.4c0.7-0.2,1.6-0.4,2.3-0.7
						c0.2-0.1,0.2,0,0.4,0l0,0l4,2.2l-0.1-0.2l0,0l15.5-3.8l-0.2,0.2l0,0l0.7-2c0.1-0.2,0.2-0.2,0.3-0.3l0,0l0,0l0.7-0.1L32,24.8
						l0,0v-1.3c0-0.2,0.1-0.3,0.2-0.4l0,0l1.4-0.5l0,0c0.1-0.1,0.2,0,0.3,0l0,0c0.7,0.3,1.3,0.7,2,0.8c0.2,0.1,0.3,0.1,0.5,0.1
						c0.1,0,0.2,0,0.2,0c0.1,0,0,0-0.1,0.1c0,0.1,0-0.2-0.1-0.3c-0.1-0.2-0.2-0.3-0.2-0.5c-0.7-1.2-1.7-2.5-2.6-3.6l0.2,0.1l0,0
						L31,19l0.2-0.1V19c0,0.1,0,0.1,0,0.2c0,0.1,0.1,0.2,0.2,0.3c0.1,0.1,0.1,0.2-0.1,0.3c0,0-0.1,0-0.1,0.1l-1.1,0.2l0,0
						c-0.1,0-0.1,0-0.2-0.1l0,0l-2.6-2.4l0,0l0,0c0.4-0.5,1-0.9,1.6-1.2l-0.2,0.2l0,0l0.1-0.8l0.4,0.3c-0.6,0.2-1.2-0.2-1.3-0.7
						c-0.2-0.4-0.2-0.9-0.2-1.3c0-0.4,0.1-0.9,0.3-1.3c0.1-0.2,0.2-0.4,0.5-0.6c0.2-0.2,0.6-0.2,0.8,0h-0.2l0,0l0.8-0.6v0.4l0,0
						c-0.4-0.2-0.7-0.5-1-0.8c-0.2-0.3-0.4-0.7-0.6-1.2l0.2,0.2l0,0l-0.9,0.1l-0.2-0.1l0,0c-0.7-0.8-2-0.2-3.1-0.1l-3.6,0.7
						l-7.1,1.3l-0.9,0.2c-0.3,0.1-0.6,0.1-0.8,0.2s-0.4,0.2-0.6,0.4c-0.2,0.2-0.3,0.3-0.5,0.7l-1.8,3.1c-0.2,0.3-0.3,0.9-0.2,1.4
						C8.7,18.6,9,19,9.3,19.5c0.4,0.4,0.8,0.8,1.2,1.2l0.7,0.6c0.2,0.2,0.5,0.2,0.6,0.7V22C11.7,22.2,11.6,22.4,11.5,22.4z"/>
				</g>
				<g>
					<path class="st1" d="M31.5,25.3l-16.1,3.7l0,0h-0.1l-3.1-1.4l3.1,1.2h-0.1l16-4.3c0.2-0.1,0.4,0.1,0.5,0.3
						C31.9,25.1,31.7,25.3,31.5,25.3L31.5,25.3z"/>
				</g>
				<g>
					<path class="st1" d="M13.5,27.7c-0.5-0.9-0.9-1.9-1.3-2.9c-0.2-0.5-0.3-1-0.5-1.5c-0.1-0.5-0.2-1.1-0.2-1.7
						c0-0.2,0.1-0.3,0.2-0.4c0.1-0.2,0.2-0.2,0.3-0.3c0.2-0.2,0.5-0.3,0.7-0.4c0.5-0.2,1-0.4,1.5-0.6c1-0.3,2-0.6,3.1-0.9l1.6-0.3
						c0.5-0.2,1.2-0.2,1.7-0.1c0.6,0.1,1.2,0.3,1.6,0.7c0.5,0.3,0.8,0.7,1.2,1.1c0.3,0.4,0.7,0.8,1,1.3c0.3,0.5,0.5,1,0.7,1.6
						c0.3,1.1,0.4,2.2,0.3,3.3c0,0.2-0.2,0.4-0.4,0.4c-0.2,0-0.4-0.2-0.4-0.4l0,0l0,0c0.1-1,0-2-0.2-3c-0.2-0.5-0.3-0.9-0.6-1.3
						c-0.2-0.4-0.6-0.8-0.9-1.2c-0.3-0.3-0.7-0.7-1.1-1.1c-0.4-0.2-0.8-0.5-1.2-0.6c-0.5-0.1-0.9-0.1-1.4,0.1l-1.6,0.3
						c-1,0.2-2.1,0.5-3.1,0.7c-0.5,0.2-1,0.3-1.5,0.5c-0.2,0.1-0.5,0.2-0.7,0.3c-0.1,0.1-0.2,0.2-0.2,0.2c-0.1,0.1-0.1,0.2-0.1,0.3
						c-0.2,1,0.2,2,0.5,3C12.7,25.8,13,26.8,13.5,27.7z"/>
				</g>
				<g>
					<path class="st1" d="M22.1,20c-0.1-0.3-0.2-0.7,0-1.1c0.1-0.3,0.3-0.7,0.6-0.8c0.6-0.4,1.2-0.5,1.9-0.6c0.7-0.1,1.2-0.2,2-0.1
						c0.3,0.1,0.7,0.2,1,0.4l0.7,0.6l1.6,1.2l0.4,0.2c0.2,0.2,0.2,0.2,0.4,0.4c0.2,0.2,0.4,0.6,0.5,0.9c0.6,1.2,0.6,2.6,0.3,4
						c0,0.2-0.2,0.4-0.5,0.3c-0.2,0-0.4-0.2-0.3-0.5l0,0l0,0c0.2-1.2,0.3-2.5-0.2-3.6c-0.1-0.2-0.2-0.5-0.4-0.7
						c-0.1-0.1-0.2-0.2-0.2-0.3L29.5,20L28,18.8l-0.7-0.6c-0.2-0.2-0.5-0.2-0.7-0.3c-0.6-0.1-1.2,0-1.8,0.1s-1.2,0.2-1.7,0.5
						c-0.5,0.3-0.6,0.9-0.4,1.5l0,0c0,0.1,0,0.2-0.2,0.2C22.3,20.3,22.2,20.2,22.1,20L22.1,20z"/>
				</g>
				<g>
					<path class="st1" d="M5.3,25.8c0.2,0.8,0.4,1.7,0.5,2.5c0,0.2,0,0.2,0,0.3s-0.1,0.3-0.1,0.5c-0.2,0.3-0.4,0.5-0.7,0.6
						c-0.4,0.1-0.8,0.2-1.2,0.2c-0.2,0-0.4-0.2-0.5-0.3c0-0.2,0.1-0.4,0.3-0.4C4,29,4.4,28.9,4.8,28.8c0.1,0,0.2-0.1,0.2-0.2
						c0.1-0.1,0.1-0.2,0.1-0.4C5.2,27.4,5.2,26.6,5.3,25.8z"/>
				</g>
				<g>
					<path class="st1" d="M3.4,26.3c-0.1,0.2-0.2,0.5-0.2,0.8c0,0.2,0.1,0.6,0.2,0.6c0.1,0,0.2-0.2,0.4-0.4c0.2-0.2,0.3-0.4,0.4-0.7
						c0.2-0.2,0.2-0.5,0.3-0.7c0.1-0.2,0.1-0.6-0.2-0.7c-0.2-0.1-0.5,0.2-0.7,0.4C3.5,25.8,3.4,26.1,3.4,26.3z M3.1,26.2
						c0.2-0.2,0.2-0.5,0.5-0.7c0.1-0.1,0.2-0.2,0.3-0.3C4,25.1,4.2,25,4.3,25.1c0.2,0.1,0.2,0.2,0.2,0.4c0.1,0.2,0.1,0.3,0.1,0.5
						c0,0.3,0,0.6-0.1,0.9c-0.1,0.3-0.2,0.6-0.4,0.8c-0.1,0.2-0.2,0.2-0.4,0.3c-0.2,0.1-0.4,0.2-0.7,0.1c-0.2-0.1-0.3-0.3-0.3-0.5
						c0-0.2,0-0.3,0-0.5C2.9,26.7,3,26.5,3.1,26.2z"/>
				</g>
				<g>
					<path class="st1" d="M16.7,19.5c0.7,0.5,1.2,1,1.8,1.5c0.6,0.6,1.1,1.2,1.5,1.8c0.2,0.3,0.4,0.7,0.5,1.1
						c0.1,0.4,0.2,0.7,0.2,1.2c0.2,0.8,0.2,1.6,0.2,2.4l-0.8-0.1c0.1-0.7,0.1-1.5,0-2.2c-0.1-0.7-0.2-1.5-0.5-2.2
						c-0.3-0.7-0.8-1.2-1.3-1.8C17.8,20.6,17.3,20,16.7,19.5L16.7,19.5z"/>
				</g>
				<g>
					<path class="st1" d="M23.5,18.1c0.7,0.3,1.3,0.7,2,1.2c0.7,0.5,1.2,1,1.7,1.6c0.2,0.3,0.5,0.7,0.7,1.1s0.2,0.7,0.3,1.2
						c0.2,0.8,0.2,1.6,0.2,2.4c0,0.2-0.2,0.2-0.3,0.2c-0.2,0-0.2-0.2-0.2-0.3l0,0c0-0.7-0.1-1.5-0.2-2.2c-0.1-0.3-0.2-0.7-0.2-1.1
						c-0.1-0.3-0.3-0.7-0.5-1c-0.4-0.6-1-1.2-1.6-1.7C24.7,19,24,18.6,23.5,18.1z"/>
				</g>
				<g>
					<path class="st1" d="M9.1,27.7c0,0.6-0.5,1.1-1.1,1.1c-0.6,0.1-1.2-0.5-1.2-1.1c0-0.7,0.6-1.2,1.2-1.1
						C8.7,26.7,9.1,27.2,9.1,27.7z M8.7,27.7c0-0.3-0.3-0.7-0.7-0.7c-0.3,0-0.6,0.3-0.6,0.7c0,0.3,0.2,0.6,0.6,0.7
						C8.4,28.4,8.7,28.2,8.7,27.7z"/>
				</g>
				<g>
					<path class="st1" d="M9.6,16.4c0.9-1.2,1.9-2.2,2.9-3.3l0,0l0,0c0,0,0.1-0.1,0.2-0.1c2.3-0.3,4.6-0.7,7-1.2l3.5-0.6
						c1.2-0.2,2.3-0.4,3.5-0.6c-1.2,0.2-2.3,0.5-3.5,0.7l-3.5,0.7c-2.3,0.4-4.6,0.9-6.9,1.4l0.2-0.1l0,0
						C11.8,14.4,10.7,15.4,9.6,16.4z"/>
				</g>
				<g>
					<path class="st1" d="M13.1,20.4c0.6,0.5,1.2,1,1.7,1.6c0.5,0.6,1.1,1.2,1.4,1.9c0.1,0.2,0.2,0.4,0.2,0.6l0.1,0.6l0.2,1.2
						c0.2,0.7,0.2,1.5,0.3,2.3l-0.7,0.1c-0.1-0.7-0.1-1.5-0.2-2.3l-0.1-1.2L16,24.5c0-0.2-0.1-0.3-0.2-0.5c-0.2-0.7-0.7-1.3-1.2-1.9
						C14.2,21.5,13.7,21,13.1,20.4z"/>
				</g>
				<g>
					<path class="st1" d="M30.1,19.8c0.5-0.1,0.9-0.1,1.4-0.2c0.2,0,0.6,0,0.8,0.2c0.2,0.2,0.4,0.3,0.6,0.5c0.3,0.3,0.7,0.7,0.8,1.2
						s0.2,0.9,0.2,1.4c0.1-0.5-0.1-0.9-0.2-1.3c-0.2-0.4-0.6-0.7-0.9-1c-0.2-0.2-0.3-0.2-0.6-0.4C32,20,31.8,20,31.6,20
						c-0.5,0.1-0.9,0.2-1.4,0.2L30.1,19.8z"/>
				</g>
			</g>
		</g>
	</g>
</g>
</svg>
