<?xml version="1.0" encoding="utf-8"?>
<!-- Generator: Adobe Illustrator 25.2.0, SVG Export Plug-In . SVG Version: 6.00 Build 0)  -->
<svg version="1.1" id="Слой_1" xmlns="http://www.w3.org/2000/svg" xmlns:xlink="http://www.w3.org/1999/xlink" x="0px" y="0px"
	 viewBox="0 0 40 40" style="enable-background:new 0 0 40 40;" xml:space="preserve">
<style type="text/css">
	.st0{fill:#FFD71C;}
	.st1{fill:#010101;}
	.st2{fill:none;stroke:#010101;stroke-width:0.4044;stroke-miterlimit:10;}
	.st3{fill:none;stroke:#010101;stroke-width:0.534;stroke-linecap:round;stroke-linejoin:round;stroke-miterlimit:10;}
	.st4{fill:#010101;stroke:#010101;stroke-width:0.178;stroke-miterlimit:10;}
	.st5{fill:none;stroke:#010101;stroke-width:0.395;stroke-linecap:round;stroke-linejoin:round;stroke-miterlimit:10;}
	.st6{fill:none;stroke:#010101;stroke-width:0.3256;stroke-linecap:round;stroke-linejoin:round;stroke-miterlimit:10;}
	.st7{fill:none;stroke:#010101;stroke-width:1.0195;stroke-linecap:round;stroke-linejoin:round;stroke-miterlimit:10;}
	.st8{fill:#FFFFFF;}
	.st9{fill:none;stroke:#010101;stroke-width:0.5279;stroke-linecap:round;stroke-linejoin:round;stroke-miterlimit:10;}
	.st10{fill:none;stroke:#010101;stroke-width:0.7388;stroke-miterlimit:10;}
	.st11{fill:none;stroke:#010101;stroke-width:0.7604;stroke-linecap:round;stroke-linejoin:round;stroke-miterlimit:10;}
	.st12{fill:none;stroke:#010101;stroke-width:0.8761;stroke-linecap:round;stroke-linejoin:round;stroke-miterlimit:10;}
	.st13{fill:none;stroke:#010101;stroke-width:0.7244;stroke-linecap:round;stroke-linejoin:round;stroke-miterlimit:10;}
	.st14{fill:none;stroke:#010101;stroke-width:0.5433;stroke-linecap:round;stroke-linejoin:round;stroke-miterlimit:10;}
	.st15{fill:#010101;stroke:#010101;stroke-width:0.5962;stroke-miterlimit:10;}
	.st16{fill:#010101;stroke:#010101;stroke-width:0.5962;stroke-linecap:round;stroke-linejoin:round;stroke-miterlimit:10;}
	.st17{opacity:0.51;enable-background:new    ;}
	.st18{fill:none;stroke:#000000;stroke-width:0.911;stroke-linecap:round;stroke-linejoin:round;stroke-miterlimit:10;}
	.st19{fill:none;stroke:#000000;stroke-width:0.8728;stroke-linecap:round;stroke-linejoin:round;stroke-miterlimit:10;}
	.st20{fill:none;stroke:#000000;stroke-width:0.7103;stroke-linecap:round;stroke-linejoin:round;stroke-miterlimit:10;}
	.st21{fill:none;stroke:#010101;stroke-width:0.8441;stroke-linecap:round;stroke-linejoin:round;stroke-miterlimit:10;}
</style>
<circle class="st0" cx="15.7" cy="15.8" r="11"/>
<g>
	<g id="Слой_1_2_">
		<g>
			<g>
				<g>
					<path class="st1" d="M31.3,22.9c0,1.8-0.8,3.5-2,4.8c-1.3,1.3-3.1,2-4.8,1.9c-1.7,0-3.5-0.7-4.7-2c-1.3-1.3-2-3-1.9-4.7
						c0-1.7,0.7-3.5,1.9-4.7c1.3-1.3,3-2,4.7-2c1.7,0,3.5,0.7,4.8,1.9C30.5,19.4,31.3,21.1,31.3,22.9z M30.4,22.9
						c0-1.6-0.5-3.1-1.6-4.2c-1.1-1.1-2.6-1.8-4.2-1.8c-1.6,0-3.1,0.6-4.2,1.7c-1.1,1.1-1.8,2.7-1.8,4.2c0,1.6,0.7,3.1,1.8,4.2
						c1.1,1.1,2.7,1.7,4.2,1.7c1.6,0,3.1-0.7,4.2-1.8C29.8,26,30.4,24.5,30.4,22.9z"/>
				</g>
				<g>
					<path class="st1" d="M25.9,22.9c0,0.4-0.2,0.8-0.5,1.1c-0.3,0.2-0.7,0.4-1.1,0.4c-0.8,0-1.4-0.7-1.4-1.5s0.6-1.5,1.4-1.5
						C25.1,21.3,26,22,25.9,22.9z M25.2,22.9c0-0.5-0.3-0.9-0.9-1c-0.5-0.1-1.1,0.4-1.1,1c0,0.5,0.5,1.1,1.1,1S25.3,23.4,25.2,22.9z
						"/>
				</g>
				<line class="st7" x1="13.6" y1="15.9" x2="13.6" y2="30.4"/>
				<line class="st7" x1="35" y1="15.9" x2="35" y2="30.5"/>
				<g>
					<path class="st1" d="M25.8,22.5c0.9,0.1,1.9,0.1,2.6-0.3c0.2-0.1,0.3-0.2,0.4-0.3c0.1-0.2,0.1-0.4,0.1-0.5
						c0-0.4-0.2-0.9-0.4-1.3c-0.2-0.4-0.5-0.7-0.9-0.9c-0.4-0.2-0.9-0.1-1.2,0.2c-0.2,0.1-0.3,0.3-0.3,0.5c0,0.2,0,0.5-0.1,0.7
						c-0.1,0.5-0.3,0.9-0.7,1.3c0,0,0,0-0.1,0c0,0,0,0,0-0.1c0.3-0.3,0.5-0.8,0.5-1.2c0-0.2,0-0.5,0-0.7s0.2-0.5,0.4-0.7
						c0.4-0.3,0.9-0.5,1.5-0.3c0.5,0.2,0.9,0.5,1.2,0.9s0.5,0.9,0.5,1.4c0.1,0.2,0.1,0.5,0,0.9s-0.4,0.5-0.5,0.7
						c-0.5,0.3-0.9,0.4-1.5,0.5c-0.5,0.1-0.9,0.1-1.5,0.1c-0.2,0-0.4-0.2-0.4-0.4C25.4,22.7,25.6,22.5,25.8,22.5L25.8,22.5
						L25.8,22.5z"/>
				</g>
				<g>
					<path class="st1" d="M24.8,24.4c-0.1,0.9-0.1,1.9,0.3,2.6c0.1,0.2,0.2,0.3,0.3,0.4c0.2,0.1,0.4,0.1,0.5,0.1
						c0.4,0,0.9-0.2,1.3-0.4c0.4-0.2,0.7-0.5,0.9-0.9c0.2-0.4,0.1-0.9-0.2-1.2c-0.1-0.2-0.3-0.3-0.5-0.3c-0.2,0-0.5,0-0.7-0.1
						c-0.5-0.1-0.9-0.3-1.3-0.7c0,0,0,0,0-0.1c0,0,0,0,0.1,0c0.3,0.3,0.8,0.5,1.2,0.5c0.2,0,0.5,0,0.7,0c0.2,0,0.5,0.2,0.7,0.4
						c0.3,0.4,0.5,0.9,0.3,1.5c-0.2,0.5-0.5,0.9-0.9,1.2c-0.4,0.3-0.9,0.5-1.4,0.5c-0.2,0.1-0.5,0.1-0.9,0s-0.5-0.4-0.7-0.5
						c-0.3-0.5-0.4-0.9-0.5-1.5C24,25.4,24,25,24,24.4c0-0.2,0.2-0.4,0.4-0.4C24.6,24,24.8,24.2,24.8,24.4
						C24.8,24.3,24.8,24.4,24.8,24.4L24.8,24.4z"/>
				</g>
				<g>
					<path class="st1" d="M22.7,23.2c-0.9,0.1-1.9,0.2-2.5,0.6c-0.2,0.1-0.2,0.2-0.3,0.4c0,0.2,0,0.4,0,0.5c0.1,0.4,0.3,0.8,0.5,1.2
						c0.2,0.3,0.6,0.6,1,0.8c0.4,0.2,0.9,0,1.2-0.3c0.2-0.2,0.2-0.3,0.2-0.5s0-0.5,0-0.7c0-0.5,0.2-0.9,0.5-1.3c0,0,0,0,0.1,0
						c0,0,0,0,0,0.1c-0.3,0.4-0.5,0.8-0.4,1.3c0,0.2,0.1,0.5,0.1,0.7s-0.1,0.5-0.3,0.7c-0.3,0.4-0.9,0.6-1.4,0.5
						c-0.5-0.1-0.9-0.5-1.3-0.8c-0.3-0.4-0.6-0.8-0.8-1.3c-0.1-0.2-0.1-0.5-0.1-0.9c0.1-0.3,0.3-0.5,0.5-0.7
						c0.5-0.3,0.9-0.5,1.4-0.6c0.5-0.2,0.9-0.2,1.4-0.3c0.2,0,0.4,0.2,0.5,0.4C23.1,22.9,22.9,23.2,22.7,23.2L22.7,23.2L22.7,23.2z"
						/>
				</g>
				<g>
					<path class="st1" d="M24.1,21.5c0-0.9-0.1-1.9-0.4-2.6c-0.1-0.2-0.2-0.3-0.3-0.3c-0.2-0.1-0.4-0.1-0.5,0
						c-0.4,0.1-0.9,0.2-1.2,0.5c-0.4,0.2-0.7,0.5-0.9,0.9s-0.1,0.9,0.2,1.2c0.2,0.2,0.3,0.3,0.5,0.3s0.5,0,0.7,0
						c0.5,0,0.9,0.3,1.3,0.6c0,0,0,0,0,0.1c0,0,0,0-0.1,0c-0.3-0.3-0.8-0.5-1.3-0.5c-0.2,0-0.5,0-0.7,0c-0.2,0-0.5-0.2-0.7-0.3
						c-0.3-0.4-0.5-0.9-0.3-1.4c0.2-0.5,0.5-0.9,0.9-1.2c0.4-0.3,0.9-0.5,1.3-0.6c0.2-0.1,0.5-0.1,0.9,0c0.3,0.1,0.5,0.3,0.7,0.5
						c0.3,0.5,0.5,0.9,0.5,1.4c0.1,0.5,0.2,0.9,0.2,1.5c0,0.2-0.2,0.4-0.4,0.4S24.1,21.8,24.1,21.5C24.1,21.6,24.1,21.6,24.1,21.5
						L24.1,21.5z"/>
				</g>
				<g>
					<path class="st1" d="M35,34.4h-6.6l-6.6-0.1l-6.7-0.1h-1.6c-0.7,0-1.3-0.3-1.8-0.9c-0.4-0.6-0.4-1.4-0.1-2.1
						c0.4-0.6,1.1-1,1.8-1l13.3,0.2l6.6,0.1h1.6c0.6,0,1.2,0.4,1.5,0.9c0.3,0.5,0.4,1.2,0.2,1.8C36.5,33.8,35.8,34.4,35,34.4z
						 M35,33.3c0.3,0,0.8-0.1,1.1-0.4c0.3-0.3,0.4-0.9,0.2-1.3c-0.2-0.5-0.7-0.7-1.3-0.7h-1.6l-6.6,0.1l-13.3,0.2
						c-0.4,0-0.7,0.2-0.9,0.5c-0.2,0.3-0.2,0.7-0.1,1.1c0.2,0.4,0.5,0.7,0.9,0.6h1.6l6.6-0.1l6.6-0.1H35z"/>
				</g>
				<g>
					<path class="st1" d="M35.4,12.7l-7.2,0.1c-2.4,0-4.8-0.1-7.2-0.1H20c-0.4,0-0.7-0.2-0.9-0.4c-0.2-0.2-0.4-0.6-0.4-0.9
						c0-0.2-0.1-0.5-0.2-0.7c-0.3-0.5-0.8-0.6-1.3-0.6h-1.8h-0.9c-0.3,0-0.6,0-0.9,0c-0.4,0.1-0.8,0.5-0.9,0.9c0,0.1,0,0.2,0,0.3
						v0.5v0.9v1.7c0,0.2,0.1,0.4,0.2,0.5c0.1,0.1,0.2,0.1,0.2,0.2c0.1,0,0.2,0,0.3,0h1.8l3.6,0.1l7.2,0.1l7.2,0.1h1.8
						c0.3,0,0.5,0,0.8-0.1c0.2-0.1,0.5-0.2,0.5-0.4c0.3-0.4,0.4-0.9,0.2-1.4C36.5,13.1,35.9,12.7,35.4,12.7z M35.4,12.3
						c0.7,0,1.3,0.3,1.7,0.9c0.4,0.6,0.3,1.5-0.2,2c-0.2,0.3-0.5,0.5-0.9,0.6c-0.3,0.2-0.7,0.1-1,0.1h-1.8h-7.2h-7.2h-3.6h-1.8
						c-0.2,0-0.4,0-0.5-0.1c-0.2-0.1-0.4-0.2-0.5-0.3c-0.3-0.2-0.5-0.6-0.5-1c0-0.7,0-1.3,0-1.9v-0.9v-0.5c0-0.2,0-0.4,0.1-0.5
						c0.2-0.7,0.9-1.3,1.6-1.4c0.4-0.1,0.6,0,0.9,0h0.9H17c0.6-0.1,1.4,0.3,1.7,0.9c0.2,0.3,0.2,0.6,0.2,1c0,0.2,0.1,0.5,0.2,0.6
						c0.2,0.2,0.4,0.3,0.6,0.3h0.9c2.4,0,4.8-0.1,7.2-0.1L35.4,12.3z"/>
				</g>
				<g>
					<path class="st1" d="M17.4,12.7c0,0.9-0.7,1.7-1.6,1.8c-0.5,0-0.9-0.2-1.3-0.5c-0.4-0.3-0.5-0.9-0.5-1.3c0-0.5,0.2-1,0.5-1.3
						c0.4-0.3,0.9-0.5,1.3-0.5C16.7,10.9,17.4,11.8,17.4,12.7z M17.1,12.7c0-0.3-0.2-0.7-0.4-0.9c-0.2-0.2-0.6-0.3-0.9-0.3
						c-0.6,0.1-1.1,0.6-1.1,1.3c0,0.5,0.5,1.2,1.1,1.3c0.3,0,0.6-0.1,0.9-0.3C17,13.4,17.1,13.1,17.1,12.7z"/>
				</g>
				<g>
					<path class="st1" d="M15.6,15.6l-0.2,12.2l-0.2-12.2c0-0.2,0.1-0.2,0.2-0.2C15.5,15.3,15.6,15.4,15.6,15.6L15.6,15.6z"/>
				</g>
				<g>
					<path class="st1" d="M33.4,15.9L33.1,28l-0.2-12.2c0-0.2,0.1-0.2,0.2-0.2C33.3,15.6,33.4,15.7,33.4,15.9L33.4,15.9z"/>
				</g>
				<g>
					<path class="st1" d="M35.2,12.7l-4.9,0.1c-0.2,0-0.2-0.1-0.2-0.2l0,0L30,11.2c0-0.2,0.2-0.4,0.3-0.4h0.1l0,0l4.7,0.1l0,0
						c0.2,0,0.3,0.2,0.3,0.3C35.3,11.7,35.2,12.2,35.2,12.7z M34.8,12.3c-0.1-0.4-0.1-0.8-0.1-1.2l0.3,0.3l-4.7,0.1l0.4-0.4
						l-0.2,1.3l-0.2-0.2L34.8,12.3z"/>
				</g>
				<g>
					<path class="st8" d="M35,11.2h-4.7c-0.4,0-0.7-0.3-0.7-0.7l0,0c0-0.4,0.3-0.7,0.7-0.7H35c0.4,0,0.7,0.3,0.7,0.7l0,0
						C35.7,10.9,35.4,11.2,35,11.2z"/>
					<path class="st1" d="M35,11.5l-3.5,0.1h-0.9c-0.2,0-0.2,0-0.5,0c-0.2,0-0.4-0.2-0.5-0.3c-0.2-0.2-0.3-0.3-0.4-0.5
						c-0.1-0.2,0-0.5,0.1-0.7c0.2-0.4,0.6-0.7,1.1-0.7l3.5,0.1h0.9c0.2,0,0.2,0,0.5,0c0.2,0.1,0.4,0.2,0.5,0.3
						c0.3,0.3,0.4,0.7,0.2,1.1C35.8,11.2,35.4,11.5,35,11.5z M35,10.9c0.2,0,0.4-0.1,0.5-0.3c0.1-0.2,0-0.4-0.1-0.5
						c-0.2-0.2-0.3-0.2-0.6-0.1h-0.9l-3.6,0.1c-0.2,0-0.2,0.1-0.3,0.2c0,0.1,0,0.2,0,0.2c0,0.1,0,0.2,0,0.2c0.1,0.2,0.2,0.2,0.5,0.2
						h0.9H35z"/>
				</g>
			</g>
		</g>
	</g>
</g>
</svg>
