<?xml version="1.0" encoding="utf-8"?>
<!-- Generator: Adobe Illustrator 25.2.0, SVG Export Plug-In . SVG Version: 6.00 Build 0)  -->
<svg version="1.1" id="Слой_1" xmlns="http://www.w3.org/2000/svg" xmlns:xlink="http://www.w3.org/1999/xlink" x="0px" y="0px"
	 viewBox="0 0 40 40" style="enable-background:new 0 0 40 40;" xml:space="preserve">
<style type="text/css">
	.st0{fill:#FFD71C;}
	.st1{fill:#010101;}
	.st2{fill:none;stroke:#010101;stroke-width:0.4044;stroke-miterlimit:10;}
	.st3{fill:none;stroke:#010101;stroke-width:0.534;stroke-linecap:round;stroke-linejoin:round;stroke-miterlimit:10;}
	.st4{fill:#010101;stroke:#010101;stroke-width:0.178;stroke-miterlimit:10;}
	.st5{fill:none;stroke:#010101;stroke-width:0.395;stroke-linecap:round;stroke-linejoin:round;stroke-miterlimit:10;}
	.st6{fill:none;stroke:#010101;stroke-width:0.3256;stroke-linecap:round;stroke-linejoin:round;stroke-miterlimit:10;}
	.st7{fill:none;stroke:#010101;stroke-width:1.0195;stroke-linecap:round;stroke-linejoin:round;stroke-miterlimit:10;}
	.st8{fill:#FFFFFF;}
	.st9{fill:none;stroke:#010101;stroke-width:0.5279;stroke-linecap:round;stroke-linejoin:round;stroke-miterlimit:10;}
	.st10{fill:none;stroke:#010101;stroke-width:0.7388;stroke-miterlimit:10;}
	.st11{fill:none;stroke:#010101;stroke-width:0.7604;stroke-linecap:round;stroke-linejoin:round;stroke-miterlimit:10;}
	.st12{fill:none;stroke:#010101;stroke-width:0.8761;stroke-linecap:round;stroke-linejoin:round;stroke-miterlimit:10;}
	.st13{fill:none;stroke:#010101;stroke-width:0.7244;stroke-linecap:round;stroke-linejoin:round;stroke-miterlimit:10;}
	.st14{fill:none;stroke:#010101;stroke-width:0.5433;stroke-linecap:round;stroke-linejoin:round;stroke-miterlimit:10;}
	.st15{fill:#010101;stroke:#010101;stroke-width:0.5962;stroke-miterlimit:10;}
	.st16{fill:#010101;stroke:#010101;stroke-width:0.5962;stroke-linecap:round;stroke-linejoin:round;stroke-miterlimit:10;}
	.st17{opacity:0.51;enable-background:new    ;}
	.st18{fill:none;stroke:#000000;stroke-width:0.911;stroke-linecap:round;stroke-linejoin:round;stroke-miterlimit:10;}
	.st19{fill:none;stroke:#000000;stroke-width:0.8728;stroke-linecap:round;stroke-linejoin:round;stroke-miterlimit:10;}
	.st20{fill:none;stroke:#000000;stroke-width:0.7103;stroke-linecap:round;stroke-linejoin:round;stroke-miterlimit:10;}
	.st21{fill:none;stroke:#010101;stroke-width:0.8441;stroke-linecap:round;stroke-linejoin:round;stroke-miterlimit:10;}
</style>
<circle class="st0" cx="23.8" cy="15" r="11"/>
<g>
	<g id="Слой_1_3_">
		<g>
			<g>
				<polyline class="st9" points="26.4,11.2 26.9,14.1 25.7,14.1 				"/>
				<g>
					<g>
						<path class="st1" d="M26.8,10.2l-3.4-0.5l0,0L7.1,10.3l0.4-0.5c0.2,2.4,0.3,4.8,0.4,7.2l0.1,1.8c0,0.3,0,0.6,0.1,0.8
							c0.1,0.2,0.2,0.5,0.3,0.7c0.3,0.4,0.8,0.7,1.3,0.8c0.6,0.1,1.2,0.1,1.8,0.2l0,0c-0.6,0.2-1.2,0.2-1.8,0.2
							c-0.7,0-1.4-0.2-1.9-0.8c-0.2-0.2-0.4-0.6-0.5-0.9c-0.1-0.4-0.1-0.7-0.1-0.9L7,17c-0.2-2.4-0.3-4.8-0.4-7.2l0,0
							c0-0.2,0.2-0.5,0.4-0.5l0,0h16.3l0,0l0,0l3.4,0.6L26.8,10.2z"/>
					</g>
					<g>
						<path class="st1" d="M11.8,21.8c-0.4,0.2-0.7,0.6-0.8,1.1c-0.1,0.5-0.1,0.9,0.1,1.5c0.2,0.9,0.8,1.7,1.7,2.2
							c1.7,1,3.8,1.2,5.8,1.2c2,0,4.1-0.4,5.8-1.4c0.8-0.5,1.5-1.2,1.7-1.9c0.1-0.3,0-0.8-0.1-1.2s-0.2-0.8-0.7-1.2
							c0.6-0.2,1.2,0.2,1.6,0.8c0.3,0.5,0.5,1.1,0.4,1.9c-0.2,0.7-0.5,1.2-0.8,1.6c-0.4,0.5-0.8,0.8-1.4,1.1
							c-1.9,1.2-4.2,1.5-6.3,1.5s-4.4-0.3-6.2-1.5c-0.9-0.6-1.7-1.6-1.9-2.8c-0.1-0.5-0.1-1.1,0.1-1.7c0.2-0.5,0.5-1.1,1.2-1.3
							c0.1,0,0.2,0,0.2,0.1C12,21.6,11.9,21.7,11.8,21.8L11.8,21.8z"/>
					</g>
					<g>
						<path class="st1" d="M11.1,26.1c-0.8,0-1.8-0.1-2.7-0.1c-0.5,0-0.8,0-1.3,0s-0.8,0-1.2,0.2c-0.2,0.1-0.3,0.2-0.4,0.3
							c-0.1,0.1-0.1,0.2-0.1,0.2c0,0.1,0,0.2,0,0.2c0,0.2,0.1,0.2,0.1,0.2c0.1,0,0.2,0,0.3-0.2c0.2-0.2,0.2-0.4,0.5-0.5
							c0.2-0.2,0.5-0.3,0.8-0.2c0.2,0,0.5,0.1,0.8,0.2c0.2,0.1,0.5,0.3,0.5,0.7l0,0l-0.3-0.2l2.1-0.3l0,0l0,0l0,0
							c0.2,0,0.2,0.1,0.3,0.2l1.2,3.8l0,0l0,0c0,0.1,0,0.2-0.1,0.2l-2.2,0.7l0,0l0.1-0.2c0.1,0.2,0.2,0.4,0.2,0.6s-0.1,0.5-0.3,0.7
							c-0.2,0.2-0.4,0.2-0.6,0.3c-0.2,0.1-0.4,0.1-0.6,0.1c-0.2,0-0.5-0.1-0.7-0.3c-0.2-0.2-0.2-0.4-0.3-0.4c-0.1-0.1-0.2-0.1-0.3,0
							c-0.1,0-0.2,0.1-0.2,0.2s0,0.2,0.1,0.4c0.1,0.2,0.2,0.2,0.2,0.3c0.2,0.2,0.5,0.3,0.8,0.4c0.3,0.1,0.7,0.1,1,0
							c0.3-0.1,0.6-0.2,0.9-0.4c1.3-0.8,2.5-1.7,4.1-2.2c0.4-0.2,0.8-0.2,1.2-0.3c0.4-0.1,0.8-0.1,1.2-0.2c0.8-0.2,1.5-0.3,2.2-0.5
							l0,0c0.2-0.1,0.3,0,0.4,0.2c0.1,0.2,0,0.3-0.2,0.4l0,0c-0.8,0.3-1.5,0.4-2.3,0.5C15.8,31,15.4,31,15,31.1
							c-0.4,0.1-0.7,0.2-1,0.4c-1.4,0.6-2.5,1.5-3.9,2.4c-0.3,0.2-0.8,0.4-1.2,0.5c-0.5,0.1-0.8,0-1.3-0.1c-0.4-0.1-0.8-0.2-1.2-0.6
							C6.1,33.5,6,33.2,5.9,33c-0.1-0.2-0.1-0.2-0.1-0.4c0-0.1,0-0.3,0.1-0.4c0.1-0.3,0.4-0.5,0.7-0.5c0.2-0.1,0.5,0,0.8,0.2
							c0.2,0.2,0.3,0.5,0.4,0.5c0.1,0.1,0.2,0.2,0.3,0.2c0.3,0,0.7-0.1,0.9-0.2c0.2-0.2,0.2-0.5,0.1-0.8l0,0c-0.1-0.1,0-0.2,0.1-0.2
							l0,0l0,0l2.2-0.7l-0.1,0.2l0,0L10,27.1l0.3,0.2l0,0l0,0l-2,0.2c-0.2,0-0.2-0.1-0.3-0.2v-0.1l0,0c0-0.2-0.5-0.4-0.8-0.4
							c-0.2,0-0.3,0.1-0.5,0.2c-0.2,0.1-0.2,0.3-0.4,0.5c-0.2,0.2-0.5,0.5-0.8,0.5c-0.2,0-0.4-0.2-0.5-0.3c-0.1-0.2-0.2-0.3-0.2-0.5
							c0-0.2,0-0.3,0-0.5C4.9,26.5,5,26.3,5,26.2c0.2-0.2,0.4-0.4,0.6-0.5c0.2-0.2,0.5-0.2,0.8-0.2c0.2,0,0.5-0.1,0.7-0.1
							c0.5,0,0.9-0.1,1.4-0.1c0.9,0,1.8,0,2.7,0c0.2,0,0.5,0.2,0.5,0.5C11.6,26,11.4,26.1,11.1,26.1L11.1,26.1z"/>
					</g>
					<g>
						<path class="st1" d="M13.8,27.5c0.6,0.7,1.4,1.3,2.3,1.6c0.9,0.3,1.9,0.4,2.8,0.3c1-0.1,1.9-0.2,2.9-0.5
							c0.9-0.3,1.8-0.7,1.9-1.5c0-0.2,0.2-0.4,0.5-0.4c0.2,0,0.4,0.2,0.4,0.5c0,0,0,0,0,0.1v0.1c-0.1,0.2-0.2,0.5-0.3,0.8
							c-0.2,0.2-0.4,0.5-0.6,0.6c-0.5,0.3-1,0.5-1.5,0.6c-1,0.2-2,0.4-3,0.4c-1,0-2.1-0.1-3-0.5c-0.9-0.4-1.9-1-2.4-1.9
							C13.5,27.6,13.6,27.5,13.8,27.5C13.7,27.4,13.8,27.4,13.8,27.5L13.8,27.5z"/>
					</g>
					<g>
						<path class="st1" d="M26.9,10.1v0.8c0,0.1-0.1,0.2-0.2,0.2L9.1,11.7c-0.1,0-0.2,0-0.2-0.1l0,0l-2.2-1.2l0.5-0.7l2,1.5H9.1
							l17.6-0.4L26.6,11v-0.8L26.9,10.1L26.9,10.1z"/>
					</g>
					<g>
						<path class="st1" d="M19.1,29.8c0.1,0.8,0.1,1.7,0.1,2.5v0.6c0,0.2,0.1,0.2,0.2,0.4c0.2,0.2,0.4,0.4,0.7,0.4s0.5-0.2,0.7-0.5
							c0.1-0.2,0.1-0.2,0.1-0.5l0.1-0.6c0.1-0.8,0.2-1.7,0.2-2.5c0-0.1,0.1-0.2,0.2-0.2c0.1,0,0.2,0.1,0.2,0.2
							c0.1,0.8,0.1,1.7,0.1,2.5v0.6c0,0.2,0,0.5-0.2,0.8C21,34,20.5,34.4,20,34.5c-0.5,0.1-1.2-0.2-1.5-0.7
							c-0.2-0.2-0.2-0.5-0.3-0.8v-0.6c0-0.8,0-1.7,0-2.5c0-0.2,0.2-0.4,0.5-0.4C18.9,29.4,19.1,29.5,19.1,29.8z"/>
					</g>
					<g>
						<path class="st1" d="M11.1,11.5l0.4,1.9l-0.1-0.2l2.1,1.2l-0.2,0.2l-0.5-3c0-0.1,0-0.1,0.1-0.2c0.1,0,0.1,0,0.2,0.1l0.6,3
							c0,0.1-0.1,0.2-0.2,0.2c-0.1,0-0.1,0-0.2,0l0,0l-2.2-1.2c-0.1,0-0.1-0.1-0.1-0.2l0,0l-0.5-1.8c0-0.2,0.1-0.3,0.2-0.3
							C10.9,11.3,11.1,11.3,11.1,11.5L11.1,11.5z"/>
					</g>
					<g>
						<path class="st1" d="M11.4,13.2c-0.5,0.2-0.9,0.6-0.9,1c0,0.2,0.1,0.3,0.3,0.5c0.2,0.2,0.4,0.2,0.6,0.4c0.9,0.4,2,0.5,3,0.5
							c2.1,0.2,4.2,0.1,6.2,0.1l0,0l-0.2,0.6c-0.5-0.3-0.9-0.7-1.4-1.1c-0.1-0.1-0.2-0.2-0.3-0.3c-0.1-0.1-0.1-0.1-0.2-0.2
							c0,0,0,0,0-0.1c0,0,0-0.1,0-0.2l0.1-0.1l0,0l0,0c0.1,0,0.1,0,0.2,0c0.3,0,0.6,0,0.8,0c-0.3,0.1-0.6,0.1-0.8,0.2h-0.1l0,0l0,0
							c0,0,0,0,0.1,0v-0.1l0,0c0,0,0.1,0.1,0.2,0.1c0.1,0.1,0.2,0.2,0.4,0.2c0.5,0.3,1,0.5,1.5,0.8c0.2,0.1,0.2,0.3,0.2,0.4
							s-0.2,0.2-0.2,0.2l0,0l0,0c-1.1,0.1-2.1,0.1-3.2,0.1s-2.2,0-3.2-0.2c-1.1-0.2-2.2-0.2-3.2-0.7c-0.2-0.1-0.5-0.2-0.8-0.5
							c-0.2-0.2-0.4-0.5-0.3-0.9c0.1-0.4,0.4-0.5,0.6-0.7C10.8,13.3,11.1,13.3,11.4,13.2z"/>
					</g>
					<g>
						<path class="st1" d="M21.5,14.3c0,0.5-0.3,0.9-0.8,0.9c-0.2,0-0.5-0.1-0.7-0.2c-0.2-0.2-0.3-0.5-0.3-0.7
							c0-0.2,0.1-0.5,0.3-0.7c0.2-0.2,0.5-0.3,0.7-0.2C21.2,13.3,21.5,13.8,21.5,14.3z M21.2,14.3c0-0.3-0.3-0.5-0.5-0.5
							c-0.2,0.1-0.4,0.3-0.4,0.5c0,0.2,0.2,0.5,0.4,0.5C20.9,14.8,21.2,14.6,21.2,14.3z"/>
					</g>
					<polyline class="st9" points="14.1,11.5 14.7,14.4 13.5,14.4 					"/>
					<g>
						<path class="st1" d="M23.3,11.2l0.4,1.9l-0.1-0.2l2.1,1.2l-0.2,0.2l-0.5-3c0-0.1,0-0.1,0.1-0.2c0.1,0,0.1,0,0.2,0.1l0.6,3
							c0,0.1-0.1,0.2-0.2,0.2c-0.1,0-0.1,0-0.2,0l0,0l-2.2-1.2c-0.1,0-0.1-0.1-0.1-0.2l0,0l-0.5-1.8c0-0.2,0.1-0.3,0.2-0.3
							C23.2,11,23.3,11,23.3,11.2L23.3,11.2z"/>
					</g>
					<g>
						<path class="st1" d="M12,10c-0.6,0.1-1.3,0.1-1.9,0.1c-0.2,0-0.3-0.2-0.3-0.3V8.6l0,0c0-0.2,0.2-0.3,0.3-0.3l0,0l1.8,0.1l0,0
							c0.1,0,0.2,0.1,0.2,0.2C12,9.1,12,9.6,12,10z M11.5,9.6c0-0.3,0-0.6,0-0.9l0.2,0.2L10,9l0.3-0.3v1.2L10,9.5
							C10.5,9.5,11,9.6,11.5,9.6z"/>
					</g>
					<g>
						<path class="st1" d="M22.9,9.6c-0.5,0.1-1.2,0.2-1.7,0.2c-0.1,0-0.2-0.1-0.2-0.2l0,0V8.5c0-0.2,0.1-0.2,0.2-0.2l0,0l0,0
							l1.5,0.1l0,0c0.1,0,0.2,0.1,0.2,0.2V9.6z M22.5,9.3V8.5l0.2,0.2l-1.5,0.1l0.2-0.2l-0.2,1.1l-0.2-0.2
							C21.7,9.3,22.1,9.3,22.5,9.3z"/>
					</g>
					<g>
						<path class="st1" d="M21.5,14.2l0.8-0.1h0.1l0,0l1.7,1L23.9,15l0,0c0.7,0,1.4,0,2-0.2c0.3-0.1,0.7-0.2,0.8-0.2
							c0.2-0.1,0.2-0.2,0.1,0c0,0.1,0,0-0.2-0.2l0,0c-0.2-0.2-0.2-0.4-0.1-0.6c0.2-0.2,0.4-0.2,0.6-0.1l0.1,0.1
							c0.2,0.2,0.4,0.3,0.4,0.8c0,0.2-0.2,0.4-0.2,0.5c-0.1,0.1-0.2,0.2-0.3,0.2c-0.4,0.2-0.8,0.2-1.2,0.2c-0.7,0.1-1.5,0.1-2.2,0.1
							l0,0h-0.1c-0.1,0-0.1,0-0.2-0.1l-1.5-1.3h0.1l-0.8-0.1C21.5,14.3,21.5,14.3,21.5,14.2C21.5,14.2,21.5,14.2,21.5,14.2z"/>
					</g>
					<g>
						<path class="st1" d="M14.6,12.5l8.4-0.2c0.1,0,0.2,0.1,0.2,0.2c0,0.1-0.1,0.2-0.2,0.2L14.7,13c-0.2,0-0.2-0.1-0.2-0.2
							C14.4,12.7,14.5,12.5,14.6,12.5L14.6,12.5z"/>
					</g>
					<g>
						<path class="st1" d="M21,32.5c0,0.4-0.3,0.8-0.8,0.8s-0.8-0.4-0.8-0.8c0-0.5,0.4-0.8,0.8-0.8C20.7,31.8,21,32.2,21,32.5z
							 M20.8,32.5c0-0.3-0.3-0.5-0.5-0.5c-0.3,0-0.5,0.3-0.5,0.5c0,0.3,0.2,0.5,0.5,0.5C20.5,33.2,20.8,32.9,20.8,32.5z"/>
					</g>
					<g>
						<path class="st1" d="M24.6,15.7c0.1,0.3-0.2,0.5-0.4,0.6c-0.2,0.2-0.5,0.2-0.7,0.3c-0.5,0.2-1,0.3-1.5,0.4
							c-1,0.2-2.1,0.2-3.1,0.3c-1,0.1-2.1,0.1-3.1,0c-0.5,0-1.1-0.1-1.5-0.2c-0.2-0.1-0.5-0.2-0.8-0.2c-0.2-0.2-0.6-0.3-0.8-0.7
							l0.4,0.2c-0.5,0.1-1,0.3-1.4,0.7c-0.4,0.3-0.7,0.8-0.8,1.2c-0.1,0.5-0.1,1,0.2,1.5c0.2,0.5,0.5,0.8,0.9,1.2
							c0.8,0.6,1.9,0.9,3.1,1.2c1.1,0.2,2.2,0.3,3.4,0.3c1.2,0,2.3-0.1,3.4-0.2c1.2-0.2,2.2-0.5,3.1-1c0.8-0.5,1.5-1.5,1.5-2.5
							c0-1-1-1.8-2.1-2.3c0.6,0.1,1.2,0.2,1.7,0.6c0.5,0.3,1,0.9,1.2,1.6c0.2,0.7,0,1.4-0.3,2c-0.3,0.6-0.8,1.1-1.3,1.5
							s-1.2,0.6-1.7,0.8c-0.6,0.2-1.2,0.3-1.8,0.4c-1.2,0.2-2.4,0.3-3.6,0.2c-1.2,0-2.4-0.2-3.5-0.4s-2.4-0.6-3.5-1.4
							c-0.5-0.4-1-0.9-1.2-1.5c-0.2-0.6-0.2-1.4-0.1-2c0.2-0.7,0.5-1.2,1.1-1.7c0.5-0.4,1.2-0.6,1.8-0.8h0.1c0.2,0,0.3,0.1,0.3,0.2
							l0,0c0,0.1,0.2,0.2,0.4,0.3c0.2,0.1,0.5,0.2,0.7,0.2c0.5,0.2,1,0.2,1.5,0.2c1,0.1,2,0.2,3,0.2c1,0,2,0,3.1-0.2
							c0.5-0.1,1-0.2,1.5-0.2c0.2-0.1,0.5-0.2,0.7-0.2C24.4,16.2,24.6,16,24.6,15.7z"/>
					</g>
				</g>
			</g>
		</g>
	</g>
</g>
</svg>
