<?xml version="1.0" encoding="UTF-8"?>
<svg id="Layer_2" data-name="Layer 2" xmlns="http://www.w3.org/2000/svg" viewBox="0 0 27.1 16.7">
  <defs>
    <style>
      .cls-1 {
        fill: #7f96a3;
      }
    </style>
  </defs>
  <g id="_Слой_1" data-name="Слой 1">
    <g id="_Слой_2" data-name="Слой 2">
      <g>
        <path class="cls-1" d="m9.47,6.76c0,.83-.24,1.66-.95,2.25-.59.59-1.42.95-2.25.95s-1.66-.24-2.25-.95c-.59-.59-.95-1.42-.95-2.25s.36-1.66.95-2.25,1.42-.95,2.25-.95,1.66.36,2.25.95.95,1.3.95,2.25Zm-.71,0c0-.71-.24-1.18-.71-1.66-.47-.47-1.07-.71-1.66-.71-.71,0-1.18.24-1.66.71s-.71,1.07-.71,1.66.24,1.18.71,1.66c.47.47,1.07.71,1.66.71,1.18.12,2.49-1.07,2.37-2.37Z"/>
        <path class="cls-1" d="m7.22,10.43c-1.66-.24-3.2.36-4.14,1.42-1.07,1.07-1.42,2.49-1.66,4.02h0l-.71-.83,5.33.71c.12,0,.24.12.24.24s-.12.24-.24.24l-5.33.24c-.36,0-.71-.24-.71-.71h0c.24-.83.47-1.66.83-2.37.36-.71.95-1.42,1.66-2.01,1.42-.95,3.31-1.3,4.73-.95Z"/>
        <path class="cls-1" d="m18.58,6.4c-.12,1.3,1.18,2.49,2.49,2.37.71,0,1.18-.24,1.66-.71.47-.47.71-1.07.71-1.66s-.24-1.18-.71-1.66c-.47-.47-1.07-.71-1.66-.71-.71,0-1.18.24-1.66.71-.47.36-.83.95-.83,1.66Zm-.71,0c0-.83.24-1.66.83-2.25s1.42-.95,2.25-.95,1.66.24,2.25.95c.59.59.95,1.42.95,2.25s-.36,1.66-.95,2.25-1.42.95-2.25.95-1.66-.36-2.25-.95c-.47-.59-.83-1.42-.83-2.25Z"/>
        <path class="cls-1" d="m20.12,10.19c1.54-.36,3.31-.12,4.62.95,1.3,1.07,2.01,2.72,2.37,4.38h0v.24c0,.24-.24.59-.47.59h-.12l-5.33-.12c-.12,0-.24-.12-.24-.24s.12-.24.24-.24l5.33-.59-.47.71h0c-.24-1.54-.71-2.96-1.66-4.02-1.07-1.42-2.6-1.78-4.26-1.66Z"/>
        <g>
          <path class="cls-1" d="m20.29,15.87c-.07,0-.14.14-.14.07v-.55c0-.21-.07-.48-.07-.69-.07-.48-.21-.97-.28-1.38-.21-.97-.62-1.79-1.24-2.55-.55-.76-1.24-1.45-2.07-1.86s-1.79-.55-2.76-.55c-.97.07-1.86.28-2.76.76-.83.48-1.52,1.03-2.07,1.79-1.1,1.45-1.66,3.38-1.52,5.17h0l-.55-.55c4.48.07,8.9.21,13.45.34Zm.55.48c-4.55.14-9.18.21-13.87.34-.28,0-.55-.21-.55-.55v-.07h0c0-2.07.62-4.21,2-5.8.69-.83,1.52-1.45,2.48-1.86s2-.55,2.97-.62,2.07.14,3.04.55c.97.48,1.72,1.17,2.35,2,.62.83,1.03,1.72,1.31,2.76.14.48.21.97.28,1.52.07.21.07.48.07.69v.62c0,.07-.07.34-.07.41Z"/>
          <path class="cls-1" d="m17.67,3.79c0,.97-.34,1.93-1.03,2.62-.62.69-1.66,1.17-2.62,1.17s-2-.34-2.69-1.1c-.69-.69-1.1-1.66-1.1-2.69s.41-2,1.1-2.69,1.66-1.1,2.69-1.1c.97,0,2,.41,2.62,1.1.62.76,1.03,1.72,1.03,2.69Zm-.62,0c0-.83-.34-1.66-.97-2.14-.55-.55-1.31-.9-2.14-.9s-1.59.34-2.07.97c-.55.55-.9,1.31-.9,2.07s.34,1.52.9,2.07,1.31.9,2.07.9,1.59-.28,2.14-.83c.62-.48,1.03-1.31.97-2.14Z"/>
          <path class="cls-1" d="m13.05,8.42c.21.41.48.76.62,1.1l-.28-.21h1.03l-.21.21h0l.62-1.31.21.41h0c-.21-.07-.34-.07-.55-.07h-.55c-.21,0-.34,0-.55.07h-.34c0-.07.07-.21,0-.21Zm-.48-.34c.14-.14.41-.21.55-.21h.83c.14,0,.41,0,.55.07.21,0,.41.07.62.14h0c.14.07.21.21.21.34v.07h0l-.62,1.31h0q.07,0,.07.07t-.07.07h-.21l-.97.07c-.14,0-.21-.07-.28-.21h0c-.34-.55-.55-1.17-.69-1.72Z"/>
          <path class="cls-1" d="m13.74,9.94c-.21,1.31-.41,2.41-.69,3.66l-.07-.34,1.17,1.66h-.41l1.17-1.66-.07.21-.55-3.93.34.28c-.35.14-.55.14-.9.14Zm-.41-.69h1.31c.21,0,.28.14.28.28l.55,3.93h0c0,.07,0,.21-.07.21l-1.17,1.59c-.14.14-.21.21-.34.07l-.07-.07h0l-1.38-1.52c-.07-.07-.14-.21-.07-.28h0c.28-1.45.62-2.83.97-4.21Z"/>
        </g>
      </g>
    </g>
  </g>
</svg>