<svg id="Слой_1" xmlns="http://www.w3.org/2000/svg" viewBox="0 0 512 512"><style>.st0{fill:#7f96a3}</style><path class="st0" d="M290.2 464.1h-10c-48.9 0-96.3-17.4-133.7-48.8-31.9-26.8-54.8-62.1-66.2-102-5.4-18.7-8.1-38-8.1-57.3 0-46.7 15.1-90.8 43.8-127.6l6-7.8 88.9 67-6.4 8c-13.8 17.3-21.1 38.2-21.1 60.4 0 53.4 43.4 96.8 96.8 96.9h10v111.2zM126 148.6c-22.1 31.6-33.7 68.6-33.7 107.4 0 17.5 2.5 34.9 7.3 51.8 10.3 36.1 31 67.9 59.8 92.2 31.2 26.3 70.2 41.6 110.8 43.8v-71.4C210.5 367.3 163.5 317 163.5 256c0-23.3 6.7-45.4 19.4-64.5L126 148.6z"/><path class="st0" d="M280.4 509.7c-60 0-118.2-21.3-163.9-60.1l-7.7-6.6 69.7-79.8h8.2l2.8 2.3c25.4 21.1 57.6 32.8 90.8 32.9h.2c45.3 0 86.9-20.8 114.1-57.1l6-8 88.8 67.1-6 8c-23.2 30.8-53.5 56.3-87.7 73.7-36 18.3-74.7 27.6-115.3 27.6zm-143.1-68.9c40.8 31.6 91.2 48.9 143.1 48.9 70.8 0 136.1-31 180.7-85.5l-56.9-43c-13.9 16.3-31 29.8-49.9 39.5-23 11.8-47.9 17.7-73.9 17.7h-.2c-34.6 0-68.3-11.2-95.9-31.5l-47 53.9zM39.4 336.2l-2.8-9.7c-6.6-22.9-9.9-46.6-9.9-70.5 0-67.8 26.4-131.5 74.3-179.4S212.7 2.3 280.4 2.3c40.6 0 79.3 9.3 115.2 27.6 34.2 17.5 64.5 43 87.7 73.7l6 8-88.7 67.1-6-8c-27.2-36.3-68.8-57.1-114.1-57.1-44 0-84.9 19.9-112.1 54.7-19.9 25.3-30.3 55.7-30.3 87.9 0 13.1 1.8 26.1 5.3 38.7l2.7 9.5-106.7 31.8zm241-313.9C151.5 22.3 46.7 127.1 46.7 256c0 18.7 2.2 37.2 6.6 55.2l68.4-20.6c-2.5-11.3-3.7-22.9-3.7-34.6 0-36.7 12-71.3 34.6-100.2 31-39.6 77.7-62.3 127.9-62.3 26 0 50.9 6 73.9 17.7 19 9.7 36.1 23.3 49.9 39.5l56.9-43c-44.7-54.4-110-85.4-180.8-85.4z"/><path class="st0" d="M280.2 325.4c-38.3 0-69.4-31.2-69.4-69.4 0-38.3 31.2-69.4 69.4-69.4s69.4 31.2 69.4 69.4c.1 38.3-31.1 69.4-69.4 69.4zm0-118.8c-27.3 0-49.4 22.2-49.4 49.4s22.2 49.4 49.4 49.4c27.3 0 49.4-22.2 49.4-49.4s-22.1-49.4-49.4-49.4z"/></svg>