<svg width="512" height="512" viewBox="0 0 512 512" fill="none" xmlns="http://www.w3.org/2000/svg">
<g clip-path="url(#clip0)">
<path d="M508.875 97.458L478.604 67.135C476.604 65.125 473.896 64 471.062 64C468.229 64 465.52 65.125 463.52 67.125L399.27 131.438C394.562 136.146 385.103 136.136 380.395 131.448C366.395 117.396 346.416 109.344 325.582 109.344C325.582 109.344 325.582 109.344 325.561 109.344C305.683 109.344 286.719 116.869 272.844 129.762L263.541 120.459C259.374 116.292 252.624 116.292 248.458 120.459L238.833 130.074C222.52 116.178 196.291 117.136 181.041 132.418L47.0828 266.365C39.0198 274.428 34.5828 285.136 34.5828 296.532C34.5828 306.782 38.1658 316.47 44.7498 324.167L35.1248 333.792C30.9578 337.959 30.9578 344.709 35.1248 348.875L44.3958 358.146L3.12476 399.469C-1.04224 403.636 -1.04224 410.386 3.12476 414.542L33.3958 444.865C35.3958 446.875 38.1038 448 40.9378 448C43.7718 448 46.4798 446.875 48.4798 444.875L89.7768 403.526L99.1258 412.875C101.209 414.958 103.939 416 106.668 416C109.397 416 112.126 414.958 114.21 412.875L123.835 403.26C140.127 417.145 166.356 416.166 181.627 400.916L315.585 266.968C323.648 258.905 328.085 248.197 328.085 236.801C328.085 226.551 324.502 216.863 317.918 209.166L327.543 199.541C331.71 195.374 331.71 188.624 327.543 184.458L318.451 175.366C323.545 172.215 330.74 172.534 335.023 176.833C349.023 190.885 369.002 198.948 389.836 198.948C410.669 198.948 430.649 190.885 444.628 176.844L508.878 112.531C513.042 108.365 513.042 101.615 508.875 97.458ZM40.9378 422.24L25.7498 407.01L59.4788 373.229L74.6928 388.443L40.9378 422.24ZM300.5 251.885L166.542 385.833C158.521 393.885 144.438 393.885 136.375 385.833L131.271 380.729C129.188 378.646 126.458 377.604 123.729 377.604C121 377.604 118.271 378.646 116.187 380.729L106.666 390.25L57.7498 341.333L67.2708 331.812C71.4378 327.645 71.4378 320.906 67.2708 316.739L62.1668 311.614C58.1458 307.583 55.9168 302.229 55.9168 296.531C55.9168 290.833 58.1458 285.479 62.1668 281.448L196.125 147.5C204.167 139.448 218.25 139.448 226.292 147.5L231.396 152.604C235.563 156.771 242.313 156.771 246.479 152.604L256 143.083L304.917 192L295.396 201.521C291.229 205.688 291.229 212.427 295.396 216.594L300.5 221.719C304.521 225.75 306.75 231.104 306.75 236.802C306.75 242.5 304.521 247.854 300.5 251.885ZM429.521 161.771C409.479 181.917 370.208 181.927 350.125 161.761C337.48 149.106 316.609 148.665 303.156 160.073L287.939 144.856C297.843 135.915 311.311 130.678 325.584 130.678C340.792 130.678 355.272 136.449 365.313 146.522C377.938 159.168 401.73 159.168 414.355 146.522L471.063 89.762L486.251 104.991L429.521 161.771Z" fill="#839098"/>
<path d="M218.855 170.031C214.688 165.865 207.938 165.865 203.771 170.031L136.563 237.229C132.396 241.396 132.396 248.146 136.563 252.312C138.646 254.395 141.376 255.437 144.105 255.437C146.834 255.437 149.563 254.395 151.647 252.312L218.855 185.114C223.022 180.947 223.022 174.197 218.855 170.031Z" fill="#839098"/>
</g>
<defs>
<clipPath id="clip0">
<rect width="512.001" height="512.001" fill="white"/>
</clipPath>
</defs>
</svg>
