<?xml version="1.0" standalone="no"?>
<!DOCTYPE svg PUBLIC "-//W3C//DTD SVG 1.1//EN" "http://www.w3.org/Graphics/SVG/1.1/DTD/svg11.dtd" >
<svg xmlns="http://www.w3.org/2000/svg" xmlns:xlink="http://www.w3.org/1999/xlink" version="1.1">
<metadata>
Created by FontForge 20170731 at Mon May  5 19:16:10 2008
 By Aleksey,,,
Copyright (c) 1990-2008 ParaType, Inc. All Rights Reserved.
</metadata>
<defs>
<font id="FuturaNewBold-Reg" horiz-adv-x="500" >
  <font-face 
    font-family="Futura New Bold"
    font-weight="700"
    font-stretch="normal"
    units-per-em="1000"
    panose-1="2 11 9 2 2 2 4 2 2 3"
    ascent="800"
    descent="-200"
    x-height="447"
    cap-height="667"
    bbox="-391 -260 1291 979"
    underline-thickness="50"
    underline-position="-200"
    unicode-range="U+0020-FB02"
  />
<missing-glyph horiz-adv-x="233" 
 />
    <glyph glyph-name="uniF460" unicode="&#x410;`" horiz-adv-x="710" 
d="M518 0l-41 112h-242l-45 -112h-183l256 667h189l251 -667h-185zM283 244h148l-75 216zM408 929l101 -73l-154 -136l-74 55z" />
    <glyph glyph-name="uniF461" unicode="&#x415;`" horiz-adv-x="489" 
d="M449 667v-147h-206v-111h195v-147h-195v-115h206v-147h-379v667h379zM297 929l101 -73l-154 -136l-74 55z" />
    <glyph glyph-name="uniF462" unicode="&#x418;`" horiz-adv-x="741" 
d="M70 667h174v-420l250 420h177v-667h-174v420l-250 -420h-177v667zM423 929l101 -73l-154 -136l-74 55z" />
    <glyph glyph-name="uniF463" unicode="&#x41e;`" horiz-adv-x="816" 
d="M776 333q0 -148 -105 -249q-104 -99 -263 -99t-263 99q-105 101 -105 249q0 69 26.5 135t78.5 115q104 99 263 99t263 -99q52 -49 78.5 -115t26.5 -135zM408 514q-82 0 -135 -53q-53 -52 -53 -131q0 -73 53 -124q55 -53 135 -53q82 0 134 52q54 54 54 128q0 76 -54 128
q-56 53 -134 53zM462 929l101 -73l-154 -136l-74 55z" />
    <glyph glyph-name="uniF464" unicode="&#x423;`" horiz-adv-x="623" 
d="M0 667h194l127 -297l111 297h185l-300 -667h-183l93 187zM364 929l101 -73l-154 -136l-74 55z" />
    <glyph glyph-name="uniF465" unicode="&#x42b;`" horiz-adv-x="879" 
d="M635 0v667h174v-667h-174zM70 0v667h174v-260h84q136 0 199 -62q53 -52 53 -141t-50 -140q-63 -64 -212 -64h-248zM244 134h67q55 0 75 20q18 18 18 50t-19 49q-21 20 -74 20h-67v-139zM492 929l101 -73l-154 -136l-74 55z" />
    <glyph glyph-name="uniF466" unicode="&#x42d;`" horiz-adv-x="618" 
d="M50 35v173q29 -29 67 -47q45 -22 106 -22q74 0 118 37t56 97h-254v134h248q-11 54 -51 87q-43 35 -117 35q-59 0 -106 -25q-40 -23 -67 -53v181q99 49 196 49q149 0 239 -94q93 -96 93 -251q0 -157 -100 -260q-88 -91 -238 -91q-61 0 -115 17q-32 10 -75 33zM362 929
l101 -73l-154 -136l-74 55z" />
    <glyph glyph-name="uniF467" unicode="&#x42e;`" horiz-adv-x="1086" 
d="M243 409h86q21 116 109 191q96 82 238 82q161 0 263 -98q50 -47 78.5 -112.5t28.5 -137.5q0 -71 -28.5 -137t-78.5 -114q-102 -98 -263 -98q-144 0 -240 86q-92 83 -107 204h-86v-275h-173v667h173v-258zM682 514q-78 0 -133 -55q-53 -53 -53 -126q0 -76 55 -128
q53 -52 130 -52q74 0 129 53q55 55 55 130q0 73 -55 126q-53 52 -128 52zM596 929l101 -73l-154 -136l-74 55z" />
    <glyph glyph-name="uniF468" unicode="&#x42f;`" horiz-adv-x="618" 
d="M14 0l186 251q-58 10 -99 52q-52 53 -52 140q0 99 55 157q63 67 187 67h257v-667h-174v227h-17l-143 -227h-200zM374 361v160h-49q-50 0 -75 -23q-23 -21 -23 -57t21 -57q24 -23 77 -23h49zM362 929l101 -73l-154 -136l-74 55z" />
    <glyph glyph-name="uniF469" unicode="&#x401;`" horiz-adv-x="489" 
d="M449 667v-147h-206v-111h195v-147h-195v-115h206v-147h-379v667h379zM276 929l76 -57l-144 -136l-49 39zM30 829q0 29 20 48.5t48 19.5t48 -19.5t20 -48.5t-20 -48.5t-48 -19.5t-48 19.5t-20 48.5zM350 829q0 29 20 48.5t48 19.5t48 -19.5t20 -48.5t-20 -48.5t-48 -19.5
t-48 19.5t-20 48.5z" />
    <glyph glyph-name="uniF46A" unicode="&#x430;`" horiz-adv-x="616" 
d="M401 404v43h160v-447h-160v49q-46 -64 -139 -64q-94 0 -161 71q-64 68 -64 164q0 110 69 179q63 63 161 63q82 0 134 -58zM303 326q-40 0 -70 -29q-32 -31 -32 -73q0 -44 31 -73q32 -30 72 -30q41 0 72 31q30 30 30 72q0 43 -31 73q-31 29 -72 29zM363 729l101 -73
l-154 -136l-74 55z" />
    <glyph glyph-name="uniF46B" unicode="&#x435;`" horiz-adv-x="566" 
d="M529 211v-17h-333q0 -47 28 -75q22 -22 66 -22q30 0 52 12q19 11 28 30h153q-15 -54 -54 -92q-64 -62 -182 -62q-117 0 -185 68q-66 66 -66 169q0 108 67 173t183 65q107 0 172 -61q71 -68 71 -188zM201 286h181q-7 29 -26 48q-24 24 -66 24q-41 0 -65 -24
q-20 -22 -24 -48zM339 729l101 -73l-154 -136l-74 55z" />
    <glyph glyph-name="uniF46C" unicode="&#x438;`" horiz-adv-x="586" 
d="M55 447h160v-230l177 230h139v-447h-160v236l-175 -236h-141v447zM347 729l101 -73l-154 -136l-74 55z" />
    <glyph glyph-name="uniF46D" unicode="&#x43e;`" horiz-adv-x="611" 
d="M306 326q-41 0 -72 -29t-31 -73q0 -40 31 -71q30 -30 72 -30q41 0 71 30q31 29 31 71t-31 73q-31 29 -71 29zM574 224q0 -97 -69 -165q-75 -74 -200 -74q-124 0 -199 74q-69 68 -69 165t69 164q76 74 199 74q122 0 200 -74q69 -67 69 -164zM362 729l101 -73l-154 -136
l-74 55z" />
    <glyph glyph-name="uniF46E" unicode="&#x443;`" horiz-adv-x="604" 
d="M66 -229l150 290l-216 386h186l119 -229l116 229h183l-359 -676h-179zM357 729l101 -73l-154 -136l-74 55z" />
    <glyph glyph-name="uniF46F" unicode="&#x44b;`" horiz-adv-x="742" 
d="M527 0v447h160v-447h-160zM215 298h109q78 0 120 -40q40 -39 40 -107q0 -69 -38 -107q-44 -44 -122 -44h-269v447h160v-149zM215 104h60q29 0 43 14q11 11 11 32q0 22 -12 32q-15 12 -44 12h-58v-90zM426 729l101 -73l-154 -136l-74 55z" />
    <glyph glyph-name="uniF470" unicode="&#x44d;`" horiz-adv-x="476" 
d="M46 15v134q49 -43 120 -43q49 0 77 17q29 17 38 51h-172v104h172q-13 34 -42 49q-28 15 -70 15q-39 0 -71 -14q-25 -10 -52 -35v132q66 36 150 36q112 0 177 -63q66 -64 66 -172q0 -115 -69 -180q-64 -61 -180 -61q-73 0 -144 30zM294 729l101 -73l-154 -136l-74 55z" />
    <glyph glyph-name="uniF471" unicode="&#x44e;`" horiz-adv-x="814" 
d="M509 326q-43 0 -72 -29q-31 -31 -31 -73q0 -41 31 -72q28 -29 72 -29q42 0 71 29q30 30 30 74q0 40 -28 71q-27 29 -73 29zM215 296h47q23 71 85 117q67 49 161 49q123 0 200 -74q69 -69 69 -162q0 -100 -69 -167q-74 -74 -205 -74q-123 0 -189 68q-44 46 -56 117h-43
v-170h-160v447h160v-151zM464 729l101 -73l-154 -136l-74 55z" />
    <glyph glyph-name="uniF472" unicode="&#x44f;`" horiz-adv-x="522" 
d="M28 0l124 156q-46 9 -78 39q-35 35 -35 96q0 67 40 109q44 47 152 47h236v-447h-160v142h-13l-98 -142h-168zM307 240v103h-48q-35 0 -50 -14q-14 -14 -14 -38q0 -25 15 -38q16 -13 47 -13h50zM316 729l101 -73l-154 -136l-74 55z" />
    <glyph glyph-name="uniF473" unicode="&#x451;`" horiz-adv-x="566" 
d="M529 211v-17h-333q0 -47 28 -75q22 -22 66 -22q30 0 52 12q19 11 28 30h153q-15 -54 -54 -92q-64 -62 -182 -62q-117 0 -185 68q-66 66 -66 169q0 108 67 173t183 65q107 0 172 -61q71 -68 71 -188zM201 286h181q-7 29 -26 48q-24 24 -66 24q-41 0 -65 -24
q-20 -22 -24 -48zM294 729l75 -57l-142 -136l-48 39zM371 627q0 29 20.5 49.5t49.5 20.5t49.5 -20.5t20.5 -49.5t-20.5 -49.5t-49.5 -20.5t-49.5 20.5t-20.5 49.5zM39 627q0 29 20.5 49.5t49.5 20.5t49.5 -20.5t20.5 -49.5t-20.5 -49.5t-49.5 -20.5t-49.5 20.5t-20.5 49.5z
" />
    <glyph glyph-name="fi" unicode="fi" horiz-adv-x="584" 
d="M339 316h-112v-316h-160v316h-56v131h56v55q0 116 61 175q64 63 176 63q51 0 100 -15.5t79 -44.5q56 -54 56 -150v-23h-160v15q0 40 -20 60t-56 20q-34 0 -55 -23q-21 -22 -21 -69v-63h112v-131zM379 447h160v-447h-160v447z" />
    <glyph glyph-name="fl" unicode="fl" horiz-adv-x="594" 
d="M339 316h-112v-316h-160v316h-56v131h56v59q0 111 61 171q65 63 174 63q116 0 181 -66q35 -36 45.5 -77t10.5 -97v-500h-160v504q0 54 -20 76t-55 22t-56 -23t-21 -69v-63h112v-131z" />
    <glyph glyph-name=".notdef" horiz-adv-x="233" 
 />
    <glyph glyph-name=".null" horiz-adv-x="0" 
 />
    <glyph glyph-name="nonmarkingreturn" horiz-adv-x="333" 
 />
    <glyph glyph-name="space" unicode=" " horiz-adv-x="233" 
 />
    <glyph glyph-name="exclam" unicode="!" horiz-adv-x="341" 
d="M253 227h-166v440h166v-440zM171 -19q-42 0 -73 31t-31 73t31 73t73 31t74 -32q29 -29 29 -72t-30 -73q-31 -31 -73 -31z" />
    <glyph glyph-name="quotedbl" unicode="&#x22;" horiz-adv-x="413" 
d="M185 667l-25 -268h-95l-24 268h144zM372 667l-24 -268h-96l-24 268h144z" />
    <glyph glyph-name="numbersign" unicode="#" horiz-adv-x="600" 
d="M475 299h101l-17 -117h-102l-29 -182h-134l30 182h-85l-29 -182h-132l30 182h-102l18 117h101l14 83h-101l18 116h101l27 169h132l-28 -169h85l27 169h133l-27 -169h100l-18 -116h-100zM342 299l13 83h-85l-13 -83h85z" />
    <glyph glyph-name="dollar" unicode="$" horiz-adv-x="600" 
d="M267 775h100v-110q73 -4 151 -51l-66 -128q-56 43 -112 43q-41 0 -60 -18q-15 -13 -15 -33q0 -19 14 -33q17 -15 46 -25l52 -18q78 -26 116 -63q50 -49 50 -122q0 -92 -56 -151q-45 -46 -120 -65v-113h-100v108q-57 1 -113 24q-53 22 -97 57l72 134q36 -35 69 -51
q48 -23 91 -23q42 0 65 23q18 18 18 42q0 23 -20 38q-14 10 -45 20l-59 20q-77 26 -110 62q-43 44 -43 116q0 86 50 141q47 52 122 66v110z" />
    <glyph glyph-name="percent" unicode="%" horiz-adv-x="895" 
d="M214 347q-88 0 -139 53q-42 45 -42 108q0 69 41 113q47 53 140 53q91 0 142 -53q42 -44 42 -110t-43 -111q-51 -53 -141 -53zM211 0l386 667h87l-387 -667h-86zM216 586q-34 0 -55 -23q-20 -22 -20 -52q0 -34 26 -57q20 -18 49 -18q30 0 53 21q22 22 22 54q0 33 -24 56
q-20 19 -51 19zM680 231q-34 0 -55 -23q-20 -22 -20 -52q0 -34 26 -57q20 -18 49 -18q30 0 53 21q22 22 22 54q0 34 -24 56q-20 19 -51 19zM678 -8q-88 0 -139 53q-42 45 -42 108q0 69 41 113q47 53 140 53q91 0 142 -53q42 -44 42 -110t-43 -111q-51 -53 -141 -53z" />
    <glyph glyph-name="ampersand" unicode="&#x26;" horiz-adv-x="756" 
d="M600 350l98 -95q-40 -51 -91 -97l149 -158h-216l-58 61q-104 -76 -224 -76q-107 0 -164 56q-54 52 -54 132q0 78 50 128q40 41 109 65q-22 26 -39 53q-23 38 -23 82q0 69 51 122q58 59 157 59q98 0 155 -55q53 -52 53 -125q0 -61 -46 -107q-34 -34 -78 -52l84 -88
q48 44 87 95zM387 166l-105 113q-63 -36 -63 -78q0 -28 20 -45q21 -19 57 -19q45 0 91 29zM301 509q0 -19 18 -45q12 -18 35 -40q21 11 40 30q21 24 21 49q0 30 -18 46q-17 15 -40 15t-38 -14q-18 -16 -18 -41z" />
    <glyph glyph-name="quotesingle" unicode="'" horiz-adv-x="225" 
d="M185 667l-25 -268h-95l-24 268h144z" />
    <glyph glyph-name="parenleft" unicode="(" horiz-adv-x="354" 
d="M307 -128l-113 -60q-62 90 -98 224q-29 112 -29 234q0 140 37 262q30 98 90 197l113 -60q-51 -93 -74 -181q-28 -105 -28 -213q0 -102 24 -207q23 -101 78 -196z" />
    <glyph glyph-name="parenright" unicode=")" horiz-adv-x="354" 
d="M160 -188l-113 60q55 95 78 196q24 105 24 207q0 108 -28 213q-23 88 -74 181l113 60q60 -99 90 -197q37 -121 37 -263q0 -121 -29 -233q-36 -134 -98 -224z" />
    <glyph glyph-name="asterisk" unicode="*" horiz-adv-x="647" 
d="M175 661l103 -44l-10 112h110l-10 -112l104 44l34 -103l-110 -26l74 -85l-88 -64l-59 95l-58 -95l-88 64l74 84l-110 26z" />
    <glyph glyph-name="plus" unicode="+" 
d="M33 280v120h152v153h130v-153h152v-120h-152v-153h-130v153h-152z" />
    <glyph glyph-name="comma" unicode="," horiz-adv-x="416" 
d="M-9 -149l125 316h150l-172 -316h-103z" />
    <glyph glyph-name="hyphen" unicode="-" horiz-adv-x="353" 
d="M50 202v133h253v-133h-253z" />
    <glyph glyph-name="period" unicode="." horiz-adv-x="303" 
d="M152 -19q-42 0 -73 31t-31 73t31 73t73 31t74 -32q29 -29 29 -72t-30 -73q-31 -31 -73 -31z" />
    <glyph glyph-name="slash" unicode="/" horiz-adv-x="672" 
d="M-30 -188l511 917h131l-512 -917h-130z" />
    <glyph glyph-name="zero" unicode="0" horiz-adv-x="600" 
d="M300 527q-30 0 -53 -21q-26 -22 -42 -73.5t-16 -100.5q0 -45 15.5 -97.5t42.5 -76.5q23 -21 53 -21t53 21q26 23 42 74.5t16 98.5t-16.5 100t-41.5 75q-23 21 -53 21zM583 333q0 -175 -99 -272q-77 -76 -184 -76t-184 76q-99 97 -99 272q0 176 99 273q77 76 184 76
t184 -76q99 -97 99 -273z" />
    <glyph glyph-name="one" unicode="1" horiz-adv-x="600" 
d="M234 0v520h-95v147h268v-667h-173z" />
    <glyph glyph-name="two" unicode="2" horiz-adv-x="600" 
d="M561 147v-147h-535l169 177q91 95 137 169q36 56 36 104q0 42 -20 64q-18 20 -49 20q-37 0 -58 -27q-22 -28 -24 -82h-179q1 112 74 185q72 72 189 72q119 0 188 -69q65 -65 65 -164q0 -106 -99 -198l-112 -104h218z" />
    <glyph glyph-name="three" unicode="3" horiz-adv-x="600" 
d="M28 228h177q2 -42 27 -67q24 -26 68 -26q41 0 68 29q20 23 20 55q0 37 -26 59q-23 19 -64 19q-17 0 -29 -4v117q44 -6 71 17q22 19 22 47q0 30 -18 48t-49 18t-48 -17q-23 -21 -23 -59h-161q5 93 65 153q62 65 176 65q106 0 166 -59q54 -54 54 -129q0 -46 -20 -82
q-19 -35 -51 -51q49 -18 79 -61q28 -41 28 -98q0 -87 -59 -146q-71 -71 -199 -71q-117 0 -191 69q-73 67 -83 174z" />
    <glyph glyph-name="four" unicode="4" horiz-adv-x="600" 
d="M494 667v-408h81v-133h-81v-126h-160v126h-323v111l257 430h226zM177 259h157v272z" />
    <glyph glyph-name="five" unicode="5" horiz-adv-x="600" 
d="M495 667v-147h-231l-12 -74q31 5 54 5q112 0 176 -66q61 -61 61 -158q0 -101 -64 -167q-73 -75 -208 -75q-130 0 -225 60l26 162q38 -35 80 -54q49 -23 100 -23q56 0 87 33q26 28 26 68q0 44 -32 72q-37 33 -120 33q-67 0 -123 -28l58 359h347z" />
    <glyph glyph-name="six" unicode="6" horiz-adv-x="600" 
d="M267 667h197l-190 -227q47 21 93 21q87 0 151 -64q63 -63 63 -159q0 -105 -69 -174q-79 -79 -213 -79q-140 0 -219 81q-61 63 -61 156q0 118 99 249zM296 122q46 0 77 31t31 76q0 40 -31 70q-32 31 -77 31q-43 0 -75 -29q-33 -30 -33 -69q0 -45 29 -76q33 -34 79 -34z
" />
    <glyph glyph-name="seven" unicode="7" horiz-adv-x="600" 
d="M58 0l304 520h-278v147h547l-382 -667h-191z" />
    <glyph glyph-name="eight" unicode="8" horiz-adv-x="600" 
d="M418 351q50 -15 86 -51q51 -50 51 -118q0 -72 -54 -126q-71 -71 -202 -71q-129 0 -199 70q-55 55 -55 127q0 32 14 65.5t35 54.5q33 33 84 49q-36 14 -60 38q-45 45 -45 106q0 74 55 126q66 61 178 61q110 0 172 -64q49 -49 49 -122q0 -63 -41 -104q-27 -27 -68 -41z
M302 566q-34 0 -55 -23q-20 -22 -20 -51q0 -25 21 -48q21 -22 53 -22q29 0 49 20q23 23 23 51q0 32 -23 53q-22 20 -48 20zM300 281q-31 0 -56 -23q-24 -24 -24 -55q0 -33 23 -56q24 -24 57 -24t56 23q24 24 24 57t-24 55q-24 23 -56 23z" />
    <glyph glyph-name="nine" unicode="9" horiz-adv-x="600" 
d="M333 0h-196l189 225q-39 -21 -89 -21q-91 0 -153 61q-67 66 -67 161q0 102 67 172q82 84 219 84q135 0 214 -79q66 -68 66 -165q0 -114 -101 -245zM305 545q-45 0 -77 -32q-33 -33 -33 -76q0 -42 32 -72t78 -30q44 0 75 28q35 31 35 76q0 42 -32 74q-34 32 -78 32z" />
    <glyph glyph-name="colon" unicode=":" horiz-adv-x="303" 
d="M152 254q-42 0 -73 31t-31 73t31 73t73 31t74 -32q29 -29 29 -72t-30 -73q-31 -31 -73 -31zM152 -15q-42 0 -73 31t-31 73t31 73t73 31t74 -32q29 -29 29 -72t-30 -73q-31 -31 -73 -31z" />
    <glyph glyph-name="semicolon" unicode=";" horiz-adv-x="393" 
d="M-9 -149l125 316h150l-172 -316h-103zM185 254q-42 0 -73 31t-31 73t31 73t73 31t74 -32q29 -29 29 -72t-30 -73q-31 -31 -73 -31z" />
    <glyph glyph-name="less" unicode="&#x3c;" 
d="M33 389l434 220v-128l-297 -147l297 -148v-128l-434 222v109z" />
    <glyph glyph-name="equal" unicode="=" 
d="M33 370v113h434v-113h-434zM33 197v113h434v-113h-434z" />
    <glyph glyph-name="greater" unicode="&#x3e;" 
d="M467 279l-434 -221v129l297 147l-297 147v128l434 -221v-109z" />
    <glyph glyph-name="question" unicode="?" horiz-adv-x="547" 
d="M347 231h-163v162q18 -5 34 -5q61 0 94 33q23 23 23 55q0 30 -17 47q-17 19 -48 19q-28 0 -43 -17q-18 -18 -18 -50h-176q4 86 60 142q65 65 174 65q108 0 177 -65q63 -59 63 -143q0 -72 -48 -126q-44 -49 -112 -64v-53zM270 -15q-42 0 -73 31t-31 73t31 73t72 31
q43 0 75 -32q29 -29 29 -72t-30 -73q-31 -31 -73 -31z" />
    <glyph glyph-name="at" unicode="@" horiz-adv-x="733" 
d="M465 454l7 38l89 -1l-37 -189q-6 -28 -6 -40q0 -35 22 -35q15 0 30 13q22 19 37 61.5t15 82.5q0 43 -17 84t-44 67q-30 29 -77 46t-95 17q-112 0 -190 -78q-79 -79 -79 -194q0 -122 83 -197q68 -61 187 -61q88 0 180 30l20 -80q-97 -30 -203 -30q-152 0 -248 89
q-50 46 -78 112t-28 138q0 74 28.5 139.5t74.5 110.5q50 48 117.5 74.5t131.5 26.5q67 0 130.5 -24.5t108.5 -72.5q76 -81 76 -197q0 -111 -71 -185q-44 -45 -93 -45q-23 0 -46 13.5t-32 40.5q-45 -63 -124 -63q-54 0 -91 36q-50 48 -50 121q0 81 55 143q53 57 120 57
q63 0 97 -48zM380 409q-29 0 -53 -24q-32 -30 -32 -79q0 -32 20 -53q17 -17 43 -17q29 0 53 24q32 34 32 80q0 32 -21 53q-18 16 -42 16z" />
    <glyph glyph-name="A" unicode="A" horiz-adv-x="710" 
d="M518 0l-41 112h-242l-45 -112h-183l256 667h189l251 -667h-185zM283 244h148l-75 216z" />
    <glyph glyph-name="B" unicode="B" horiz-adv-x="618" 
d="M348 0h-278v667h258q99 0 146 -52q41 -45 41 -125q0 -44 -19 -82q-20 -37 -54 -52q56 -6 91 -40q45 -43 45 -122q0 -82 -49 -131q-61 -63 -181 -63zM243 534v-130h32q46 0 66 21q16 16 16 44q0 27 -16 45q-20 20 -66 20h-32zM243 275v-140h39q84 0 107 27q14 16 14 43
q0 31 -17 48q-22 22 -107 22h-36z" />
    <glyph glyph-name="C" unicode="C" horiz-adv-x="589" 
d="M549 223v-205q-91 -33 -150 -33q-156 0 -258 100q-48 48 -74.5 112.5t-26.5 130.5q0 69 27.5 134t73.5 112q102 104 252 104q72 0 156 -34v-207q-59 73 -151 73q-71 0 -120 -44q-58 -54 -58 -137q0 -79 54 -130q49 -46 124 -46q87 0 151 70z" />
    <glyph glyph-name="D" unicode="D" horiz-adv-x="695" 
d="M312 0h-242v667h227q170 0 265 -92q93 -89 93 -243q0 -144 -87 -231q-44 -44 -110 -72.5t-146 -28.5zM243 520v-373h35q97 0 146 48q51 49 51 137q0 97 -52 146q-45 42 -138 42h-42z" />
    <glyph glyph-name="E" unicode="E" horiz-adv-x="489" 
d="M449 667v-147h-206v-111h195v-147h-195v-115h206v-147h-379v667h379z" />
    <glyph glyph-name="F" unicode="F" horiz-adv-x="485" 
d="M452 667v-147h-209v-111h190v-147h-190v-262h-173v667h382z" />
    <glyph glyph-name="G" unicode="G" horiz-adv-x="774" 
d="M390 243v135h344q0 -103 -24.5 -174.5t-82.5 -125.5q-90 -84 -235 -84q-159 0 -256 99q-96 96 -96 241q0 152 100 250q98 98 259 98q106 0 180 -45q78 -48 119 -137l-165 -68q-16 40 -48 67q-40 33 -93 33q-68 0 -114 -46q-58 -58 -58 -153q0 -88 53 -144q48 -51 122 -51
q59 0 96 31q33 27 41 74h-142z" />
    <glyph glyph-name="H" unicode="H" horiz-adv-x="737" 
d="M243 667v-249h250v249h174v-667h-174v270h-250v-270h-173v667h173z" />
    <glyph glyph-name="I" unicode="I" horiz-adv-x="313" 
d="M70 667h173v-667h-173v667z" />
    <glyph glyph-name="J" unicode="J" horiz-adv-x="468" 
d="M225 667h173v-459q0 -54 -10.5 -89t-46.5 -71q-63 -63 -163 -63q-59 0 -105 30q-38 25 -66 68l113 116q4 -36 24 -53q15 -12 33 -12q17 0 30 11q18 17 18 67v455z" />
    <glyph glyph-name="K" unicode="K" horiz-adv-x="700" 
d="M243 667v-275l212 275h214l-265 -316l289 -351h-224l-226 289v-289h-173v667h173z" />
    <glyph glyph-name="L" unicode="L" horiz-adv-x="470" 
d="M70 667h173v-520h208v-147h-381v667z" />
    <glyph glyph-name="M" unicode="M" horiz-adv-x="915" 
d="M212 0h-172l113 667h171l135 -356l143 356h173l100 -667h-173l-49 384l-161 -384h-69l-154 384z" />
    <glyph glyph-name="N" unicode="N" horiz-adv-x="805" 
d="M243 0h-173v667h173l319 -408v408h173v-667h-173l-319 408v-408z" />
    <glyph glyph-name="O" unicode="O" horiz-adv-x="816" 
d="M776 333q0 -148 -105 -249q-104 -99 -263 -99t-263 99q-105 101 -105 249q0 69 26.5 135t78.5 115q104 99 263 99t263 -99q52 -49 78.5 -115t26.5 -135zM408 514q-82 0 -135 -53q-53 -52 -53 -131q0 -73 53 -124q55 -53 135 -53q82 0 134 52q54 54 54 128q0 76 -54 128
q-56 53 -134 53z" />
    <glyph glyph-name="P" unicode="P" horiz-adv-x="599" 
d="M352 221h-109v-221h-173v667h276q107 0 169 -60t62 -162q0 -108 -59 -166t-166 -58zM243 527v-166h58q50 0 73 21q22 19 22 61q0 40 -20 60q-23 24 -74 24h-59z" />
    <glyph glyph-name="Q" unicode="Q" horiz-adv-x="816" 
d="M687 106l115 -118l-159 -24l-56 64q-79 -43 -175 -43q-176 0 -278 110q-94 100 -94 241q0 70 27.5 134.5t75.5 110.5q104 101 264 101q74 0 144 -25.5t121 -74.5q103 -99 103 -251q0 -71 -27 -134q-22 -53 -61 -91zM354 266l163 21l46 -50q31 44 31 98q0 31 -14.5 65
t-39.5 59q-26 26 -62.5 40.5t-70.5 14.5q-79 0 -132 -55q-54 -56 -54 -134q0 -73 50 -121q53 -51 135 -51q26 0 54 7z" />
    <glyph glyph-name="R" unicode="R" horiz-adv-x="627" 
d="M70 667h270q106 0 163 -59q57 -58 57 -150q0 -88 -53 -139q-37 -35 -92 -46l209 -273h-215l-166 256v-256h-173v667zM243 533v-165h33q56 0 84 27q22 22 22 56q0 35 -23 56q-26 26 -83 26h-33z" />
    <glyph glyph-name="S" unicode="S" horiz-adv-x="571" 
d="M40 60l74 140q72 -68 153 -68q46 0 67 23q17 17 17 42q0 24 -19 40q-16 14 -86 35l-45 14q-67 21 -96 54q-38 41 -38 118q0 100 61 161q63 63 171 63q103 0 206 -54l-69 -135q-57 45 -114 45q-36 0 -57 -20q-17 -17 -17 -36q0 -18 9 -30q14 -17 58 -30l53 -16
q84 -26 121 -66q43 -46 43 -119q0 -105 -63 -168q-68 -68 -197 -68q-71 0 -131 22q-51 18 -101 53z" />
    <glyph glyph-name="T" unicode="T" horiz-adv-x="471" 
d="M465 520h-144v-520h-173v520h-141v147h458v-147z" />
    <glyph glyph-name="U" unicode="U" horiz-adv-x="721" 
d="M70 667h173v-395q0 -70 34 -103q34 -32 82 -32t80 29q18 16 27.5 40.5t10.5 39t1 41.5v380h173v-383q0 -44 -3 -72.5t-20.5 -69t-51.5 -74.5q-82 -83 -220 -83q-146 0 -221 80q-65 71 -65 219v383z" />
    <glyph glyph-name="V" unicode="V" horiz-adv-x="699" 
d="M0 667h189l160 -406l162 406h188l-284 -667h-135z" />
    <glyph glyph-name="W" unicode="W" horiz-adv-x="1014" 
d="M0 667h181l116 -431l141 431h138l131 -431l126 431h181l-213 -667h-177l-121 386l-128 -386h-176z" />
    <glyph glyph-name="X" unicode="X" horiz-adv-x="711" 
d="M0 0l261 356l-214 311h214l99 -173l103 173h213l-217 -311l252 -356h-210l-142 217l-150 -217h-209z" />
    <glyph glyph-name="Y" unicode="Y" horiz-adv-x="640" 
d="M229 0v320l-241 347h207l126 -182l121 182h210l-249 -347v-320h-174z" />
    <glyph glyph-name="Z" unicode="Z" horiz-adv-x="631" 
d="M618 667l-314 -520h280v-147h-571l316 520h-262v147h551z" />
    <glyph glyph-name="bracketleft" unicode="[" horiz-adv-x="337" 
d="M297 636h-90v-730h90v-94h-217v917h217v-93z" />
    <glyph glyph-name="backslash" unicode="\" horiz-adv-x="672" 
d="M702 -188h-130l-512 917h131z" />
    <glyph glyph-name="bracketright" unicode="]" horiz-adv-x="337" 
d="M130 636h-90v93h217v-917h-217v94h90v730z" />
    <glyph glyph-name="asciicircum" unicode="^" 
d="M250 563l-110 -233h-135l160 337h170l161 -337h-136z" />
    <glyph glyph-name="underscore" unicode="_" 
d="M0 -178v132h500v-132h-500z" />
    <glyph glyph-name="grave" unicode="`" 
d="M250 520l-154 136l102 73l126 -154z" />
    <glyph glyph-name="a" unicode="a" horiz-adv-x="616" 
d="M401 404v43h160v-447h-160v49q-46 -64 -139 -64q-94 0 -161 71q-64 68 -64 164q0 110 69 179q63 63 161 63q82 0 134 -58zM303 326q-40 0 -70 -29q-32 -31 -32 -73q0 -44 31 -73q32 -30 72 -30q41 0 72 31q30 30 30 72q0 43 -31 73q-31 29 -72 29z" />
    <glyph glyph-name="b" unicode="b" horiz-adv-x="616" 
d="M55 729h160v-325q54 58 133 58q95 0 158 -60q73 -69 73 -177t-72 -178q-64 -62 -157 -62q-85 0 -135 64v-49h-160v729zM313 121q41 0 71 30q31 31 31 70q0 45 -31 76q-29 29 -71 29q-45 0 -73 -30q-30 -32 -30 -72q0 -45 34 -76q31 -27 69 -27z" />
    <glyph glyph-name="c" unicode="c" horiz-adv-x="429" 
d="M393 144v-134q-51 -25 -111 -25q-106 0 -176 68q-69 67 -69 167q0 103 72 173q71 68 180 68q54 0 104 -25v-134q-41 29 -83 29q-47 0 -78 -31t-31 -77q0 -44 28 -75q32 -34 82 -34q47 0 82 30z" />
    <glyph glyph-name="d" unicode="d" horiz-adv-x="616" 
d="M561 729v-729h-160v49q-50 -64 -135 -64q-93 0 -157 62q-72 70 -72 178t73 177q63 60 158 60q79 0 133 -58v325h160zM303 121q38 0 69 27q34 31 34 76q0 40 -30 72q-28 30 -73 30q-42 0 -71 -29q-31 -31 -31 -76q0 -39 31 -70q30 -30 71 -30z" />
    <glyph glyph-name="e" unicode="e" horiz-adv-x="566" 
d="M529 211v-17h-333q0 -47 28 -75q22 -22 66 -22q30 0 52 12q19 11 28 30h153q-15 -54 -54 -92q-64 -62 -182 -62q-117 0 -185 68q-66 66 -66 169q0 108 67 173t183 65q107 0 172 -61q71 -68 71 -188zM201 286h181q-7 29 -26 48q-24 24 -66 24q-41 0 -65 -24
q-20 -22 -24 -48z" />
    <glyph glyph-name="f" unicode="f" horiz-adv-x="345" 
d="M339 316h-112v-316h-160v316h-56v131h56v75q0 92 41 147q53 71 155 71q39 0 77 -15v-138q-25 15 -50 15q-30 0 -45 -17q-18 -20 -18 -75v-63h112v-131z" />
    <glyph glyph-name="g" unicode="g" horiz-adv-x="613" 
d="M398 447h160v-419q0 -60 -11.5 -103t-49.5 -82q-71 -72 -197 -72q-131 0 -209 79q-41 43 -49 93h178q15 -46 75 -46q45 0 71 25q32 30 32 83v45q-56 -59 -134 -59q-104 0 -165 63q-62 64 -62 163q0 106 66 175q65 68 162 68q81 0 133 -59v46zM303 327q-41 0 -71 -30
q-31 -32 -31 -72q0 -42 31 -73q29 -29 72 -29q42 0 72 30t30 72q0 41 -32 73q-29 29 -71 29z" />
    <glyph glyph-name="h" unicode="h" horiz-adv-x="585" 
d="M55 0v729h160v-338q22 28 50 44q38 22 92 22q84 0 132 -48q27 -27 34.5 -55.5t7.5 -69.5v-284h-160v226q0 65 -20 87q-17 19 -51 19q-37 0 -58 -19q-27 -25 -27 -73v-240h-160z" />
    <glyph glyph-name="i" unicode="i" horiz-adv-x="269" 
d="M55 447h160v-447h-160v447zM45 633q0 37 26.5 63.5t63.5 26.5t63.5 -26.5t26.5 -63.5t-26.5 -63.5t-63.5 -26.5t-63.5 26.5t-26.5 63.5z" />
    <glyph glyph-name="j" unicode="j" horiz-adv-x="269" 
d="M55 447h160v-676h-160v676zM45 633q0 37 26.5 63.5t63.5 26.5t63.5 -26.5t26.5 -63.5t-26.5 -63.5t-63.5 -26.5t-63.5 26.5t-26.5 63.5z" />
    <glyph glyph-name="k" unicode="k" horiz-adv-x="601" 
d="M55 729h160v-443l151 161h217l-211 -206l228 -241h-222l-163 183v-183h-160v729z" />
    <glyph glyph-name="l" unicode="l" horiz-adv-x="269" 
d="M55 729h160v-729h-160v729z" />
    <glyph glyph-name="m" unicode="m" horiz-adv-x="873" 
d="M55 0v447h160v-54q51 62 134 62q49 0 86 -20q40 -21 62 -64q23 41 61 62q39 22 93 22q82 0 124 -41t42 -123v-291h-160v221q0 74 -23 96q-17 15 -42 15q-28 0 -47 -18q-29 -28 -29 -85v-229h-160v221q0 74 -21 96q-17 18 -48 18q-28 0 -44 -16q-28 -27 -28 -98v-221h-160
z" />
    <glyph glyph-name="n" unicode="n" horiz-adv-x="585" 
d="M55 0v447h160v-56q50 66 142 66q84 0 132 -48q26 -26 34 -54t8 -71v-284h-160v226q0 66 -20 87q-18 19 -51 19q-36 0 -59 -21q-26 -24 -26 -71v-240h-160z" />
    <glyph glyph-name="o" unicode="o" horiz-adv-x="611" 
d="M306 326q-41 0 -72 -29t-31 -73q0 -40 31 -71q30 -30 72 -30q41 0 71 30q31 29 31 71t-31 73q-31 29 -71 29zM574 224q0 -97 -69 -165q-75 -74 -200 -74q-124 0 -199 74q-69 68 -69 165t69 164q76 74 199 74q122 0 200 -74q69 -67 69 -164z" />
    <glyph glyph-name="p" unicode="p" horiz-adv-x="616" 
d="M215 43v-272h-160v676h160v-49q51 64 137 64q94 0 159 -65q68 -68 68 -173q0 -107 -72 -177q-63 -62 -153 -62q-83 0 -139 58zM313 326q-42 0 -72 -30q-31 -31 -31 -74q0 -40 31 -71q30 -30 72 -30q43 0 71 30q31 31 31 71q0 43 -31 74q-28 30 -71 30z" />
    <glyph glyph-name="q" unicode="q" horiz-adv-x="616" 
d="M401 -229v272q-56 -58 -139 -58q-90 0 -153 62q-72 72 -72 177t68 173q65 65 159 65q87 0 137 -64v49h160v-676h-160zM303 326q-43 0 -71 -30q-31 -31 -31 -74q0 -40 31 -71q28 -30 71 -30q42 0 72 30q31 31 31 71q0 43 -31 74q-30 30 -72 30z" />
    <glyph glyph-name="r" unicode="r" horiz-adv-x="409" 
d="M55 0v447h160v-73q22 42 63 62q33 18 83 18q2 0 5 -0.5t10.5 -1t16.5 -0.5v-151q-32 16 -69 16q-47 0 -73 -24q-36 -33 -36 -102v-191h-160z" />
    <glyph glyph-name="s" unicode="s" horiz-adv-x="444" 
d="M27 37l57 111q30 -22 64 -33q31 -11 62 -11q28 0 41 12q8 8 8 21t-8 20q-8 8 -42 16l-42 10q-53 12 -78 39q-29 31 -29 77q0 65 42 109q52 54 160 54q74 0 143 -29l-54 -102q-48 22 -84 22q-22 0 -37 -9q-14 -8 -14 -22q0 -17 19 -25q8 -3 25 -6.5t28 -6.5l29 -8
q43 -12 66 -35q34 -32 34 -89q0 -68 -45 -111q-56 -56 -165 -56q-95 0 -180 52z" />
    <glyph glyph-name="t" unicode="t" horiz-adv-x="328" 
d="M323 316h-91v-316h-160v316h-51v131h51v147h160v-147h91v-131z" />
    <glyph glyph-name="u" unicode="u" horiz-adv-x="590" 
d="M55 447h160v-250q0 -43 24 -65q19 -17 56 -17t57 19q23 23 23 63v250h160v-279q0 -76 -43 -120q-61 -63 -193 -63q-142 0 -202 64q-42 44 -42 119v279z" />
    <glyph glyph-name="v" unicode="v" horiz-adv-x="573" 
d="M0 447h179l107 -229l109 229h178l-233 -447h-109z" />
    <glyph glyph-name="w" unicode="w" horiz-adv-x="899" 
d="M0 447h179l106 -236l113 236h98l113 -243l112 243h178l-234 -447h-108l-112 246l-107 -246h-108z" />
    <glyph glyph-name="x" unicode="x" horiz-adv-x="652" 
d="M0 0l223 243l-181 204h208l77 -92l79 92h207l-185 -204l224 -243h-212l-114 133l-114 -133h-212z" />
    <glyph glyph-name="y" unicode="y" horiz-adv-x="604" 
d="M66 -229l150 290l-216 386h186l119 -229l116 229h183l-359 -676h-179z" />
    <glyph glyph-name="z" unicode="z" horiz-adv-x="517" 
d="M497 447l-209 -316h187v-131h-455l211 316h-180v131h446z" />
    <glyph glyph-name="braceleft" unicode="{" 
d="M304 555v-157q0 -52 -12 -76q-15 -30 -48 -50q33 -20 48 -50q12 -24 12 -76v-160q0 -32 14 -44.5t65 -12.5h20v-114h-19q-12 0 -36 -1.5t-36 -1.5q-39 0 -66.5 11t-41 24.5t-21 36.5t-8.5 37t-1 36v197q0 60 -55 68v110q55 7 55 68v184q0 22 1 36t8.5 37t21 36.5t41 24.5
t66.5 11q12 0 36 -1.5t36 -1.5h19v-114h-20q-51 0 -65 -12.5t-14 -44.5z" />
    <glyph glyph-name="bar" unicode="|" 
d="M185 -250v1000h130v-1000h-130z" />
    <glyph glyph-name="braceright" unicode="}" 
d="M218 398v157q0 32 -14 44.5t-65 12.5h-20v114h19q12 0 36 1.5t36 1.5q32 0 57 -6.5t39 -20t23.5 -26.5t13 -32t4.5 -31t1 -29v-184q0 -61 55 -68v-110q-55 -8 -55 -68v-197q0 -17 -1 -29t-4.5 -31t-13 -32t-23.5 -26.5t-39 -20t-57 -6.5q-12 0 -36 1.5t-36 1.5h-19v114
h20q51 0 65 12.5t14 44.5v160q0 52 12 76q15 30 48 50q-33 20 -48 50q-12 24 -12 76z" />
    <glyph glyph-name="asciitilde" unicode="~" 
d="M257 225l-35 12q-54 19 -73 19q-25 0 -43 -17q-16 -15 -29 -44l-71 47l8 17q32 67 53 87q35 35 88 35q33 0 92 -21l36 -13q39 -15 64 -15q28 0 46 15q16 14 27 36l74 -43l-5 -11q-21 -48 -53 -82q-40 -41 -95 -41q-24 0 -84 19z" />
    <glyph glyph-name="uni00A0" unicode="&#xa0;" horiz-adv-x="233" 
 />
    <glyph glyph-name="exclamdown" unicode="&#xa1;" horiz-adv-x="341" 
d="M88 -230v440h166v-440h-166zM171 248q-42 0 -73 31t-31 73t31 73t73 31t74 -32q29 -29 29 -72t-30 -73q-31 -31 -73 -31z" />
    <glyph glyph-name="cent" unicode="&#xa2;" horiz-adv-x="600" 
d="M332 660h94v-91q27 -2 52 -15v-144q-34 34 -80 34q-45 0 -75 -30q-33 -33 -33 -80q0 -48 33 -79q31 -28 75 -28q46 0 80 34v-144q-27 -13 -52 -14v-93h-94v87q-85 12 -143 70q-67 69 -67 168q0 104 71 173q54 54 139 67v85z" />
    <glyph glyph-name="sterling" unicode="&#xa3;" horiz-adv-x="600" 
d="M156 252h-125v96h72q-24 56 -24 106q0 93 66 158q69 67 196 67q119 0 180 -62q60 -60 60 -164q0 -18 -1 -25h-174q1 8 1 24q0 46 -24 70q-23 21 -55 21q-36 0 -59 -25q-24 -27 -24 -69q0 -44 25 -101h153v-96h-125q4 -28 4 -50q0 -26 -8 -55l47 -14q67 -20 94 -20
q21 0 32.5 12.5t11.5 31.5h108q-2 -85 -56 -135q-39 -36 -102 -36q-44 0 -106 20l-38 12q-48 15 -89 15q-47 0 -61 -33h-115q13 70 54 112q35 37 88 45q6 18 6 42q0 27 -12 53z" />
    <glyph glyph-name="currency" unicode="&#xa4;" horiz-adv-x="667" 
d="M90 67l-70 70l103 103q-44 60 -44 138q0 72 45 137l-105 104l71 71l104 -104q65 44 140 44q72 0 137 -43l103 102l70 -70l-102 -102q46 -62 46 -140q0 -74 -44 -136l103 -103l-69 -71l-103 103q-64 -45 -142 -45q-76 0 -140 44zM469 377q0 57 -39 97t-96 40t-96 -39
q-40 -40 -40 -98q0 -56 40 -96t96 -40t95 39q40 40 40 97z" />
    <glyph glyph-name="yen" unicode="&#xa5;" horiz-adv-x="600" 
d="M208 329h-163v105h100l-141 233h197l100 -192l96 192h200l-147 -233h105v-105h-171l-6 -9v-53h177v-104h-177v-163h-164v163h-169v104h169v53z" />
    <glyph glyph-name="brokenbar" unicode="&#xa6;" 
d="M188 339v411h130v-411h-130zM188 -250v411h130v-411h-130z" />
    <glyph glyph-name="section" unicode="&#xa7;" horiz-adv-x="600" 
d="M502 542h-140q0 40 -22 61q-14 13 -38 13q-25 0 -40 -15q-16 -16 -16 -38q0 -29 26 -48q20 -15 74 -38l40 -17q60 -26 91 -59q44 -47 44 -111q0 -52 -23 -96q-25 -46 -79 -71q37 -21 56 -53q20 -33 20 -81q0 -70 -45 -118q-54 -59 -152 -59q-91 0 -144 52q-55 55 -55 144
h140v-7q0 -39 22 -59q15 -14 40 -14q29 0 45 16q18 18 18 43q0 35 -24 57q-16 14 -92 40q-79 26 -113 61q-49 50 -49 127q0 61 31 103q26 35 66 56q-34 22 -51 48q-21 31 -21 79q0 78 44 122q49 49 142 49q91 0 144 -42q61 -48 61 -145zM375 275q0 29 -18 49q-21 24 -55 24
q-29 0 -50 -21q-22 -22 -22 -52q0 -27 21 -50q20 -22 51 -22t55 25q18 21 18 47z" />
    <glyph glyph-name="dieresis" unicode="&#xa8;" 
d="M363 523q-36 0 -61 27q-25 28 -25 60t26 61q26 26 60 26q35 0 60 -25q27 -27 27 -62q0 -33 -26 -61q-26 -26 -61 -26zM136 523q-36 0 -61 27q-25 28 -25 60t26 61q26 26 60 26q35 0 60 -25q27 -27 27 -62q0 -33 -26 -61q-26 -26 -61 -26z" />
    <glyph glyph-name="copyright" unicode="&#xa9;" horiz-adv-x="760" 
d="M501 520v-143q-35 54 -98 54q-40 0 -68 -25q-31 -29 -31 -75q0 -41 26 -69q28 -28 73 -28q53 0 98 49v-139q-38 -21 -94 -21q-108 0 -172 66q-57 58 -57 142q0 82 57 144q63 67 163 67q47 0 103 -22zM727 334q0 -66 -27 -132.5t-77 -116.5q-100 -100 -243 -100t-243 100
q-50 50 -77 116.5t-27 132.5t27 132t77 116q100 100 243 100t243 -100q50 -50 77 -116t27 -132zM380 619q-107 0 -186 -74q-91 -86 -91 -212t91 -212q79 -74 186 -74t186 74q91 86 91 212t-91 212q-79 74 -186 74z" />
    <glyph glyph-name="ordfeminine" unicode="&#xaa;" horiz-adv-x="360" 
d="M237 632v26h94v-265h-94v30q-27 -38 -77 -38q-60 0 -97 37q-42 40 -42 104q0 62 42 104q37 37 94 37q51 0 80 -35zM28 267v76h303v-76h-303zM179 586q-23 0 -40 -15q-20 -18 -20 -45q0 -25 20 -45q16 -16 40 -16t40 16q20 19 20 45q0 28 -21 45q-18 15 -39 15z" />
    <glyph glyph-name="guillemotleft" unicode="&#xab;" horiz-adv-x="531" 
d="M488 384l-111 -156l114 -154l-91 -64l-152 218l152 217zM268 384l-111 -156l114 -154l-91 -64l-152 218l152 217z" />
    <glyph glyph-name="logicalnot" unicode="&#xac;" 
d="M467 0h-130v150h-304v117h434v-267z" />
    <glyph glyph-name="uni00AD" unicode="&#xad;" horiz-adv-x="353" 
d="M50 202v133h253v-133h-253z" />
    <glyph glyph-name="registered" unicode="&#xae;" horiz-adv-x="771" 
d="M33 334q0 144 103.5 246t249.5 102t249 -101.5t103 -246.5q-2 -144 -104.5 -246.5t-247.5 -102.5t-249 103t-104 246zM668 334q0 120 -81.5 202.5t-200.5 82.5q-118 0 -200.5 -83t-82.5 -202t82.5 -203t200.5 -84q117 0 199.5 84t82.5 203zM452 304l-4 -2l119 -152h-149
l-73 112v-112h-117v379h158q61 0 97.5 -33.5t36.5 -88.5q0 -36 -18.5 -64.5t-49.5 -38.5zM345 441v-77h7q53 0 53 39q0 38 -53 38h-7z" />
    <glyph glyph-name="macron" unicode="&#xaf;" 
d="M52 539v98h396v-98h-396z" />
    <glyph glyph-name="degree" unicode="&#xb0;" 
d="M252 363q-66 0 -111 45t-45 108q0 62 45 106q46 45 108 45q64 0 110 -44q45 -43 45 -107q0 -63 -45 -108t-107 -45zM178 515q0 -30 20.5 -50t51.5 -20t51.5 20t20.5 50t-20.5 50t-51.5 20t-51.5 -20t-20.5 -50z" />
    <glyph glyph-name="plusminus" unicode="&#xb1;" 
d="M33 357v120h152v153h130v-153h152v-120h-152v-154h-130v154h-152zM33 50v120h434v-120h-434z" />
    <glyph glyph-name="twosuperior" unicode="&#xb2;" horiz-adv-x="374" 
d="M341 359v-85h-308l97 107q56 62 71 85q29 42 29 75q0 26 -13 40q-10 11 -28 11q-16 0 -27 -11q-17 -17 -17 -48h-106q3 66 46 109q40 40 107 40q69 0 108 -40q36 -37 36 -99q0 -43 -18.5 -76t-60.5 -71l-42 -37h126z" />
    <glyph glyph-name="threesuperior" unicode="&#xb3;" horiz-adv-x="374" 
d="M33 410h102q2 -23 16 -37q16 -16 39 -16q25 0 38 15q14 14 14 38q0 21 -14 35q-16 14 -37 14q-2 0 -23 -3v68q32 -2 45 10t13 32q0 17 -11 28q-9 11 -28 11t-30 -13t-11 -31h-93q4 54 39 89q37 37 102 37q61 0 94 -34q30 -30 30 -77q0 -31 -13 -53q-10 -16 -27 -27
q25 -8 40 -28q23 -31 23 -68q0 -54 -35 -89q-40 -40 -112 -40q-71 0 -113 40t-48 99z" />
    <glyph glyph-name="acute" unicode="&#xb4;" 
d="M303 729l101 -73l-154 -136l-74 55z" />
    <glyph glyph-name="mu" unicode="&#xb5;" horiz-adv-x="584" 
d="M215 -230h-160v677h160v-200q0 -85 30 -112q17 -17 47 -17q29 0 48 19q29 29 29 114v196h160v-447h-160v56q-10 -27 -28 -44q-22 -20 -49 -20q-31 0 -52 20q-15 14 -25 39v-281z" />
    <glyph glyph-name="paragraph" unicode="&#xb6;" horiz-adv-x="667" 
d="M329 -95h-114v413h-10q-84 0 -136 54q-42 44 -42 116q0 80 49 127q56 52 182 52h336v-106h-72v-656h-114v656h-79v-656z" />
    <glyph glyph-name="periodcentered" unicode="&#xb7;" horiz-adv-x="248" 
d="M124 229q-50 0 -85 34q-39 37 -39 90t39 91q36 34 85 34t83 -33q41 -39 41 -92q0 -51 -36 -87q-37 -37 -88 -37z" />
    <glyph glyph-name="cedilla" unicode="&#xb8;" 
d="M288 -46l106 -44l-124 -146l-84 40z" />
    <glyph glyph-name="onesuperior" unicode="&#xb9;" horiz-adv-x="221" 
d="M88 267v316h-55v84h155v-400h-100z" />
    <glyph glyph-name="ordmasculine" unicode="&#xba;" horiz-adv-x="355" 
d="M178 385q-75 0 -118 43q-39 39 -39 98q0 58 39 97q44 44 118 44q73 0 115 -42q41 -39 41 -98t-40 -99q-43 -43 -116 -43zM26 267v76h303v-76h-303zM178 586q-24 0 -42 -16t-18 -44q0 -27 18 -43q17 -17 42 -17q21 0 38 14q21 18 21 46t-18 44t-41 16z" />
    <glyph glyph-name="guillemotright" unicode="&#xbb;" horiz-adv-x="534" 
d="M40 74l114 154l-111 156l88 61l152 -217l-152 -218zM260 74l114 154l-111 156l88 61l152 -217l-152 -218z" />
    <glyph glyph-name="onequarter" unicode="&#xbc;" horiz-adv-x="775" 
d="M120 0l386 667h87l-387 -667h-86zM88 267v316h-55v84h155v-400h-100zM703 400v-247h47v-77h-47v-76h-94v76h-186v63l149 261h131zM525 153h84v154z" />
    <glyph glyph-name="onehalf" unicode="&#xbd;" horiz-adv-x="786" 
d="M104 0l386 667h87l-387 -667h-86zM88 267v316h-55v84h155v-400h-100zM753 85v-85h-308l97 107q56 62 71 85q29 42 29 75q0 26 -13 40q-10 11 -28 11q-16 0 -27 -11q-17 -17 -17 -48h-106q3 66 46 109q40 40 107 40q69 0 108 -40q36 -37 36 -99q0 -43 -18.5 -76t-60.5 -71
l-42 -37h126z" />
    <glyph glyph-name="threequarters" unicode="&#xbe;" horiz-adv-x="889" 
d="M236 0l386 667h87l-387 -667h-86zM33 410h102q2 -23 16 -37q16 -16 39 -16q25 0 38 15q14 16 14 39q0 20 -14 34t-37 14q-13 0 -23 -3v68q34 0 45 10q13 12 13 32q0 17 -11 28q-9 11 -28 11t-30 -13t-11 -31h-93q4 54 39 89q37 37 102 37q61 0 94 -34q30 -30 30 -77
q0 -31 -13 -53q-10 -16 -27 -27q24 -7 40 -28q23 -29 23 -70q0 -52 -35 -87q-40 -40 -112 -40q-71 0 -113 40t-48 99zM624 153h84v154zM802 400v-247h47v-77h-47v-76h-94v76h-186v63l149 261h131z" />
    <glyph glyph-name="questiondown" unicode="&#xbf;" horiz-adv-x="547" 
d="M200 213h163v-172q-13 5 -35 5q-63 0 -93 -31q-23 -23 -23 -55q0 -30 18 -46q16 -16 44 -16q30 0 46 18q18 20 18 49h176q-7 -98 -73 -155q-60 -52 -166 -52q-113 0 -176 61q-59 57 -59 143q0 70 48 124q44 49 112 64v63zM277 456q42 0 73 -31t31 -73t-31 -73t-73 -31
t-74 32q-29 29 -29 72t30 73q31 31 73 31z" />
    <glyph glyph-name="Agrave" unicode="&#xc0;" horiz-adv-x="710" 
d="M518 0l-41 112h-242l-45 -112h-183l256 667h189l251 -667h-185zM283 244h148l-75 216zM355 720l-154 136l102 73l126 -154z" />
    <glyph glyph-name="Aacute" unicode="&#xc1;" horiz-adv-x="710" 
d="M518 0l-41 112h-242l-45 -112h-183l256 667h189l251 -667h-185zM283 244h148l-75 216zM408 929l101 -73l-154 -136l-74 55z" />
    <glyph glyph-name="Acircumflex" unicode="&#xc2;" horiz-adv-x="710" 
d="M518 0l-41 112h-242l-45 -112h-183l256 667h189l251 -667h-185zM283 244h148l-75 216zM226 720l-68 77l196 147l198 -147l-71 -77l-127 98z" />
    <glyph glyph-name="Atilde" unicode="&#xc3;" horiz-adv-x="710" 
d="M518 0l-41 112h-242l-45 -112h-183l256 667h189l251 -667h-185zM283 244h148l-75 216zM456 867l77 -46q-18 -45 -44 -69q-29 -29 -72 -29q-26 0 -58 15l-30 15q-24 12 -36 12q-28 0 -38 -42l-78 46q15 44 40 68q30 28 70 28q27 0 60 -14l29 -13q33 -15 43 -15q24 0 37 44
z" />
    <glyph glyph-name="Adieresis" unicode="&#xc4;" horiz-adv-x="710" 
d="M518 0l-41 112h-242l-45 -112h-183l256 667h189l251 -667h-185zM283 244h148l-75 216zM468 723q-36 0 -61 27q-25 28 -25 60t26 61q26 26 60 26q35 0 60 -25q27 -27 27 -62q0 -33 -26 -61q-26 -26 -61 -26zM241 723q-36 0 -61 27q-25 28 -25 60t26 61q26 26 60 26
q35 0 60 -25q27 -27 27 -62q0 -33 -26 -61q-26 -26 -61 -26z" />
    <glyph glyph-name="Aring" unicode="&#xc5;" horiz-adv-x="710" 
d="M518 0l-41 112h-242l-45 -112h-183l256 667h189l251 -667h-185zM283 244h148l-75 216zM492 826q0 -40 -26 -66q-37 -37 -111 -37t-111 37q-26 26 -26 66q0 41 26 67q37 37 111 37t111 -37q26 -26 26 -67zM355 867q-28 0 -43 -15q-10 -10 -10 -25t10 -25q15 -15 43 -15
t43 15q10 10 10 25t-10 25q-15 15 -43 15z" />
    <glyph glyph-name="AE" unicode="&#xc6;" horiz-adv-x="924" 
d="M515 0l-43 117h-241l-42 -117h-182l257 667h408l53 -147h-219l41 -111h219l55 -147h-220l44 -115h218l54 -147h-402zM279 249h146l-71 197z" />
    <glyph glyph-name="Ccedilla" unicode="&#xc7;" horiz-adv-x="589" 
d="M549 223v-205q-91 -33 -150 -33q-156 0 -258 100q-48 48 -74.5 112.5t-26.5 130.5q0 69 27.5 134t73.5 112q102 104 252 104q72 0 156 -34v-207q-59 73 -151 73q-71 0 -120 -44q-58 -54 -58 -137q0 -79 54 -130q49 -46 124 -46q87 0 151 70zM332 -46l112 -44l-116 -146
l-92 40z" />
    <glyph glyph-name="Egrave" unicode="&#xc8;" horiz-adv-x="489" 
d="M449 667v-147h-206v-111h195v-147h-195v-115h206v-147h-379v667h379zM280 720l-154 136l102 73l126 -154z" />
    <glyph glyph-name="Eacute" unicode="&#xc9;" horiz-adv-x="489" 
d="M449 667v-147h-206v-111h195v-147h-195v-115h206v-147h-379v667h379zM288 929l101 -73l-154 -136l-74 55z" />
    <glyph glyph-name="Ecircumflex" unicode="&#xca;" horiz-adv-x="489" 
d="M449 667v-147h-206v-111h195v-147h-195v-115h206v-147h-379v667h379zM131 720l-68 77l196 147l198 -147l-71 -77l-127 98z" />
    <glyph glyph-name="Edieresis" unicode="&#xcb;" horiz-adv-x="489" 
d="M449 667v-147h-206v-111h195v-147h-195v-115h206v-147h-379v667h379zM373 723q-36 0 -61 27q-25 28 -25 60t26 61q26 26 60 26q35 0 60 -25q27 -27 27 -62q0 -33 -26 -61q-26 -26 -61 -26zM146 723q-36 0 -61 27q-25 28 -25 60t26 61q26 26 60 26q35 0 60 -25
q27 -27 27 -62q0 -33 -26 -61q-26 -26 -61 -26z" />
    <glyph glyph-name="Igrave" unicode="&#xcc;" horiz-adv-x="313" 
d="M70 667h173v-667h-173v667zM170 720l-154 136l102 73l126 -154z" />
    <glyph glyph-name="Iacute" unicode="&#xcd;" horiz-adv-x="313" 
d="M70 667h173v-667h-173v667zM203 929l101 -73l-154 -136l-74 55z" />
    <glyph glyph-name="Icircumflex" unicode="&#xce;" horiz-adv-x="313" 
d="M70 667h173v-667h-173v667zM28 720l-68 77l196 147l198 -147l-71 -77l-127 98z" />
    <glyph glyph-name="Idieresis" unicode="&#xcf;" horiz-adv-x="313" 
d="M70 667h173v-667h-173v667zM270 723q-36 0 -61 27q-25 28 -25 60t26 61q26 26 60 26q35 0 60 -25q27 -27 27 -62q0 -33 -26 -61q-26 -26 -61 -26zM43 723q-36 0 -61 27q-25 28 -25 60t26 61q26 26 60 26q35 0 60 -25q27 -27 27 -62q0 -33 -26 -61q-26 -26 -61 -26z" />
    <glyph glyph-name="Eth" unicode="&#xd0;" horiz-adv-x="737" 
d="M354 0h-242v296h-92v120h92v251h227q170 0 265 -92q93 -89 93 -243q0 -144 -87 -231q-44 -44 -110 -72.5t-146 -28.5zM285 520v-104h118v-120h-118v-149h35q97 0 146 48q51 49 51 137q0 97 -52 146q-45 42 -138 42h-42z" />
    <glyph glyph-name="Ntilde" unicode="&#xd1;" horiz-adv-x="805" 
d="M243 0h-173v667h173l319 -408v408h173v-667h-173l-319 408v-408zM503 867l77 -46q-18 -45 -44 -69q-29 -29 -72 -29q-26 0 -58 15l-30 15q-24 12 -36 12q-28 0 -38 -42l-78 46q15 44 40 68q30 28 70 28q27 0 60 -14l29 -13q33 -15 43 -15q24 0 37 44z" />
    <glyph glyph-name="Ograve" unicode="&#xd2;" horiz-adv-x="816" 
d="M776 333q0 -148 -105 -249q-104 -99 -263 -99t-263 99q-105 101 -105 249q0 69 26.5 135t78.5 115q104 99 263 99t263 -99q52 -49 78.5 -115t26.5 -135zM408 514q-82 0 -135 -53q-53 -52 -53 -131q0 -73 53 -124q55 -53 135 -53q82 0 134 52q54 54 54 128q0 76 -54 128
q-56 53 -134 53zM409 720l-154 136l102 73l126 -154z" />
    <glyph glyph-name="Oacute" unicode="&#xd3;" horiz-adv-x="816" 
d="M776 333q0 -148 -105 -249q-104 -99 -263 -99t-263 99q-105 101 -105 249q0 69 26.5 135t78.5 115q104 99 263 99t263 -99q52 -49 78.5 -115t26.5 -135zM408 514q-82 0 -135 -53q-53 -52 -53 -131q0 -73 53 -124q55 -53 135 -53q82 0 134 52q54 54 54 128q0 76 -54 128
q-56 53 -134 53zM462 929l101 -73l-154 -136l-74 55z" />
    <glyph glyph-name="Ocircumflex" unicode="&#xd4;" horiz-adv-x="816" 
d="M776 333q0 -148 -105 -249q-104 -99 -263 -99t-263 99q-105 101 -105 249q0 69 26.5 135t78.5 115q104 99 263 99t263 -99q52 -49 78.5 -115t26.5 -135zM408 514q-82 0 -135 -53q-53 -52 -53 -131q0 -73 53 -124q55 -53 135 -53q82 0 134 52q54 54 54 128q0 76 -54 128
q-56 53 -134 53zM280 720l-68 77l196 147l198 -147l-71 -77l-127 98z" />
    <glyph glyph-name="Otilde" unicode="&#xd5;" horiz-adv-x="816" 
d="M776 333q0 -148 -105 -249q-104 -99 -263 -99t-263 99q-105 101 -105 249q0 69 26.5 135t78.5 115q104 99 263 99t263 -99q52 -49 78.5 -115t26.5 -135zM408 514q-82 0 -135 -53q-53 -52 -53 -131q0 -73 53 -124q55 -53 135 -53q82 0 134 52q54 54 54 128q0 76 -54 128
q-56 53 -134 53zM510 867l77 -46q-18 -45 -44 -69q-29 -29 -72 -29q-26 0 -58 15l-30 15q-24 12 -36 12q-28 0 -38 -42l-78 46q15 44 40 68q30 28 70 28q27 0 60 -14l29 -13q33 -15 43 -15q24 0 37 44z" />
    <glyph glyph-name="Odieresis" unicode="&#xd6;" horiz-adv-x="816" 
d="M776 333q0 -148 -105 -249q-104 -99 -263 -99t-263 99q-105 101 -105 249q0 69 26.5 135t78.5 115q104 99 263 99t263 -99q52 -49 78.5 -115t26.5 -135zM408 514q-82 0 -135 -53q-53 -52 -53 -131q0 -73 53 -124q55 -53 135 -53q82 0 134 52q54 54 54 128q0 76 -54 128
q-56 53 -134 53zM522 723q-36 0 -61 27q-25 28 -25 60t26 61q26 26 60 26q35 0 60 -25q27 -27 27 -62q0 -33 -26 -61q-26 -26 -61 -26zM295 723q-36 0 -61 27q-25 28 -25 60t26 61q26 26 60 26q35 0 60 -25q27 -27 27 -62q0 -33 -26 -61q-26 -26 -61 -26z" />
    <glyph glyph-name="multiply" unicode="&#xd7;" 
d="M123 126l-84 85l122 122l-123 123l92 92l123 -123l122 123l85 -85l-122 -123l123 -123l-92 -92l-123 123z" />
    <glyph glyph-name="Oslash" unicode="&#xd8;" horiz-adv-x="828" 
d="M798 630l-87 -86q71 -94 71 -210q0 -148 -105 -250q-102 -99 -263 -99q-112 0 -207 56l-88 -88l-89 84l87 86q-71 90 -71 209q0 151 105 251q105 99 263 99q114 0 207 -56l88 88zM247 248l247 246q-35 20 -80 20q-82 0 -135 -53t-53 -131q0 -45 21 -82zM580 418
l-245 -245q36 -20 80 -20q81 0 133 52q54 54 54 128q0 49 -22 85z" />
    <glyph glyph-name="Ugrave" unicode="&#xd9;" horiz-adv-x="721" 
d="M70 667h173v-395q0 -70 34 -103q34 -32 82 -32t80 29q18 16 27.5 40.5t10.5 39t1 41.5v380h173v-383q0 -44 -3 -72.5t-20.5 -69t-51.5 -74.5q-82 -83 -220 -83q-146 0 -221 80q-65 71 -65 219v383zM360 720l-154 136l102 73l126 -154z" />
    <glyph glyph-name="Uacute" unicode="&#xda;" horiz-adv-x="721" 
d="M70 667h173v-395q0 -70 34 -103q34 -32 82 -32t80 29q18 16 27.5 40.5t10.5 39t1 41.5v380h173v-383q0 -44 -3 -72.5t-20.5 -69t-51.5 -74.5q-82 -83 -220 -83q-146 0 -221 80q-65 71 -65 219v383zM413 929l101 -73l-154 -136l-74 55z" />
    <glyph glyph-name="Ucircumflex" unicode="&#xdb;" horiz-adv-x="721" 
d="M70 667h173v-395q0 -70 34 -103q34 -32 82 -32t80 29q18 16 27.5 40.5t10.5 39t1 41.5v380h173v-383q0 -44 -3 -72.5t-20.5 -69t-51.5 -74.5q-82 -83 -220 -83q-146 0 -221 80q-65 71 -65 219v383zM231 720l-68 77l196 147l198 -147l-71 -77l-127 98z" />
    <glyph glyph-name="Udieresis" unicode="&#xdc;" horiz-adv-x="721" 
d="M70 667h173v-395q0 -70 34 -103q34 -32 82 -32t80 29q18 16 27.5 40.5t10.5 39t1 41.5v380h173v-383q0 -44 -3 -72.5t-20.5 -69t-51.5 -74.5q-82 -83 -220 -83q-146 0 -221 80q-65 71 -65 219v383zM473 723q-36 0 -61 27q-25 28 -25 60t26 61q26 26 60 26q35 0 60 -25
q27 -27 27 -62q0 -33 -26 -61q-26 -26 -61 -26zM246 723q-36 0 -61 27q-25 28 -25 60t26 61q26 26 60 26q35 0 60 -25q27 -27 27 -62q0 -33 -26 -61q-26 -26 -61 -26z" />
    <glyph glyph-name="Yacute" unicode="&#xdd;" horiz-adv-x="640" 
d="M229 0v320l-241 347h207l126 -182l121 182h210l-249 -347v-320h-174zM373 929l101 -73l-154 -136l-74 55z" />
    <glyph glyph-name="Thorn" unicode="&#xde;" horiz-adv-x="599" 
d="M352 131h-109v-131h-173v667h173v-90h103q107 0 169 -60t62 -162q0 -108 -59 -166t-166 -58zM243 437v-166h58q50 0 73 21q22 19 22 61q0 40 -20 60q-23 24 -74 24h-59z" />
    <glyph glyph-name="germandbls" unicode="&#xdf;" horiz-adv-x="590" 
d="M215 0h-160v530q0 99 57 154t165 55q110 0 171 -59q52 -52 52 -138q0 -96 -77 -137q45 -14 76 -47q54 -55 54 -141q0 -116 -74 -179q-70 -60 -217 -51v134q56 0 90 34q27 27 27 69q0 45 -28 75q-35 37 -89 35v127h11q35 0 57 20q18 17 18 54q0 30 -17 49t-49 19
q-29 0 -47 -18q-20 -20 -20 -62v-523z" />
    <glyph glyph-name="agrave" unicode="&#xe0;" horiz-adv-x="616" 
d="M401 404v43h160v-447h-160v49q-46 -64 -139 -64q-94 0 -161 71q-64 68 -64 164q0 110 69 179q63 63 161 63q82 0 134 -58zM303 326q-40 0 -70 -29q-32 -31 -32 -73q0 -44 31 -73q32 -30 72 -30q41 0 72 31q30 30 30 72q0 43 -31 73q-31 29 -72 29zM350 520l-154 136
l102 73l126 -154z" />
    <glyph glyph-name="aacute" unicode="&#xe1;" horiz-adv-x="616" 
d="M401 404v43h160v-447h-160v49q-46 -64 -139 -64q-94 0 -161 71q-64 68 -64 164q0 110 69 179q63 63 161 63q82 0 134 -58zM303 326q-40 0 -70 -29q-32 -31 -32 -73q0 -44 31 -73q32 -30 72 -30q41 0 72 31q30 30 30 72q0 43 -31 73q-31 29 -72 29zM368 729l101 -73
l-154 -136l-74 55z" />
    <glyph glyph-name="acircumflex" unicode="&#xe2;" horiz-adv-x="616" 
d="M401 404v43h160v-447h-160v49q-46 -64 -139 -64q-94 0 -161 71q-64 68 -64 164q0 110 69 179q63 63 161 63q82 0 134 -58zM303 326q-40 0 -70 -29q-32 -31 -32 -73q0 -44 31 -73q32 -30 72 -30q41 0 72 31q30 30 30 72q0 43 -31 73q-31 29 -72 29zM196 520l-68 77
l196 147l198 -147l-71 -77l-127 98z" />
    <glyph glyph-name="atilde" unicode="&#xe3;" horiz-adv-x="616" 
d="M401 404v43h160v-447h-160v49q-46 -64 -139 -64q-94 0 -161 71q-64 68 -64 164q0 110 69 179q63 63 161 63q82 0 134 -58zM303 326q-40 0 -70 -29q-32 -31 -32 -73q0 -44 31 -73q32 -30 72 -30q41 0 72 31q30 30 30 72q0 43 -31 73q-31 29 -72 29zM426 667l77 -46
q-18 -45 -44 -69q-29 -29 -72 -29q-26 0 -58 15l-30 15q-24 12 -36 12q-28 0 -38 -42l-78 46q15 44 40 68q30 28 70 28q27 0 60 -14l29 -13q33 -15 43 -15q24 0 37 44z" />
    <glyph glyph-name="adieresis" unicode="&#xe4;" horiz-adv-x="616" 
d="M401 404v43h160v-447h-160v49q-46 -64 -139 -64q-94 0 -161 71q-64 68 -64 164q0 110 69 179q63 63 161 63q82 0 134 -58zM303 326q-40 0 -70 -29q-32 -31 -32 -73q0 -44 31 -73q32 -30 72 -30q41 0 72 31q30 30 30 72q0 43 -31 73q-31 29 -72 29zM438 523q-36 0 -61 27
q-25 28 -25 60t26 61q26 26 60 26q35 0 60 -25q27 -27 27 -62q0 -33 -26 -61q-26 -26 -61 -26zM211 523q-36 0 -61 27q-25 28 -25 60t26 61q26 26 60 26q35 0 60 -25q27 -27 27 -62q0 -33 -26 -61q-26 -26 -61 -26z" />
    <glyph glyph-name="aring" unicode="&#xe5;" horiz-adv-x="616" 
d="M401 404v43h160v-447h-160v49q-46 -64 -139 -64q-94 0 -161 71q-64 68 -64 164q0 110 69 179q63 63 161 63q82 0 134 -58zM303 326q-40 0 -70 -29q-32 -31 -32 -73q0 -44 31 -73q32 -30 72 -30q41 0 72 31q30 30 30 72q0 43 -31 73q-31 29 -72 29zM462 626q0 -40 -26 -66
q-37 -37 -111 -37t-111 37q-26 26 -26 66q0 41 26 67q37 37 111 37t111 -37q26 -26 26 -67zM325 667q-28 0 -43 -15q-10 -10 -10 -25t10 -25q15 -15 43 -15t43 15q10 10 10 25t-10 25q-15 15 -43 15z" />
    <glyph glyph-name="ae" unicode="&#xe6;" horiz-adv-x="858" 
d="M821 198h-335q0 -47 30 -77q25 -25 72 -25q32 0 50 13q14 9 23 29h153q-22 -70 -81 -113q-56 -40 -147 -40q-71 0 -119 26q-41 22 -61 61q-32 -41 -80 -63q-50 -22 -104 -22q-95 0 -147 52q-38 38 -38 92q0 58 39 97q51 51 148 51q62 0 114 -23v11q0 34 -21 55
q-26 26 -86 26q-59 0 -124 -25v119q74 21 133 21q56 0 93 -17q47 -21 73 -62q28 37 68 57q44 22 104 22q114 0 178 -64q65 -65 65 -188v-13zM490 289h184q-6 29 -27 48q-28 25 -67 25q-34 0 -59 -22q-22 -21 -31 -51zM264 190q-38 0 -57 -14q-16 -12 -16 -34q0 -21 19 -34
q20 -15 53 -15q28 0 52 12q27 14 27 37t-24 36q-22 12 -54 12z" />
    <glyph glyph-name="ccedilla" unicode="&#xe7;" horiz-adv-x="429" 
d="M393 144v-134q-51 -25 -111 -25q-106 0 -176 68q-69 67 -69 167q0 103 72 173q71 68 180 68q54 0 104 -25v-134q-41 29 -83 29q-47 0 -78 -31t-31 -77q0 -44 28 -75q32 -34 82 -34q47 0 82 30zM248 -46l106 -44l-124 -146l-84 40z" />
    <glyph glyph-name="egrave" unicode="&#xe8;" horiz-adv-x="566" 
d="M529 211v-17h-333q0 -47 28 -75q22 -22 66 -22q30 0 52 12q19 11 28 30h153q-15 -54 -54 -92q-64 -62 -182 -62q-117 0 -185 68q-66 66 -66 169q0 108 67 173t183 65q107 0 172 -61q71 -68 71 -188zM201 286h181q-7 29 -26 48q-24 24 -66 24q-41 0 -65 -24
q-20 -22 -24 -48zM305 520l-154 136l102 73l126 -154z" />
    <glyph glyph-name="eacute" unicode="&#xe9;" horiz-adv-x="566" 
d="M529 211v-17h-333q0 -47 28 -75q22 -22 66 -22q30 0 52 12q19 11 28 30h153q-15 -54 -54 -92q-64 -62 -182 -62q-117 0 -185 68q-66 66 -66 169q0 108 67 173t183 65q107 0 172 -61q71 -68 71 -188zM201 286h181q-7 29 -26 48q-24 24 -66 24q-41 0 -65 -24
q-20 -22 -24 -48zM343 729l101 -73l-154 -136l-74 55z" />
    <glyph glyph-name="ecircumflex" unicode="&#xea;" horiz-adv-x="566" 
d="M529 211v-17h-333q0 -47 28 -75q22 -22 66 -22q30 0 52 12q19 11 28 30h153q-15 -54 -54 -92q-64 -62 -182 -62q-117 0 -185 68q-66 66 -66 169q0 108 67 173t183 65q107 0 172 -61q71 -68 71 -188zM201 286h181q-7 29 -26 48q-24 24 -66 24q-41 0 -65 -24
q-20 -22 -24 -48zM157 520l-68 77l196 147l198 -147l-71 -77l-127 98z" />
    <glyph glyph-name="edieresis" unicode="&#xeb;" horiz-adv-x="566" 
d="M529 211v-17h-333q0 -47 28 -75q22 -22 66 -22q30 0 52 12q19 11 28 30h153q-15 -54 -54 -92q-64 -62 -182 -62q-117 0 -185 68q-66 66 -66 169q0 108 67 173t183 65q107 0 172 -61q71 -68 71 -188zM201 286h181q-7 29 -26 48q-24 24 -66 24q-41 0 -65 -24
q-20 -22 -24 -48zM399 523q-36 0 -61 27q-25 28 -25 60t26 61q26 26 60 26q35 0 60 -25q27 -27 27 -62q0 -33 -26 -61q-26 -26 -61 -26zM172 523q-36 0 -61 27q-25 28 -25 60t26 61q26 26 60 26q35 0 60 -25q27 -27 27 -62q0 -33 -26 -61q-26 -26 -61 -26z" />
    <glyph glyph-name="igrave" unicode="&#xec;" horiz-adv-x="267" 
d="M53 447h160v-447h-160v447zM135 520l-154 136l102 73l126 -154z" />
    <glyph glyph-name="iacute" unicode="&#xed;" horiz-adv-x="267" 
d="M53 447h160v-447h-160v447zM190 729l101 -73l-154 -136l-74 55z" />
    <glyph glyph-name="icircumflex" unicode="&#xee;" horiz-adv-x="267" 
d="M53 447h160v-447h-160v447zM6 520l-68 77l196 147l198 -147l-71 -77l-127 98z" />
    <glyph glyph-name="idieresis" unicode="&#xef;" horiz-adv-x="267" 
d="M53 447h160v-447h-160v447zM248 523q-36 0 -61 27q-25 28 -25 60t26 61q26 26 60 26q35 0 60 -25q27 -27 27 -62q0 -33 -26 -61q-26 -26 -61 -26zM21 523q-36 0 -61 27q-25 28 -25 60t26 61q26 26 60 26q35 0 60 -25q27 -27 27 -62q0 -33 -26 -61q-26 -26 -61 -26z" />
    <glyph glyph-name="eth" unicode="&#xf0;" horiz-adv-x="590" 
d="M78 615l30 111q136 0 230 -47l157 73l41 -76l-116 -53q73 -53 106 -133q34 -80 34 -195q0 -162 -80 -242q-67 -68 -188 -68q-120 0 -192 73q-70 70 -70 173q0 99 67 161q70 65 175 65q77 0 138 -48q-6 57 -40 100q-26 32 -66 50l-198 -96l-40 76l142 64q-52 12 -130 12z
M295 323q-41 0 -67 -25q-32 -29 -32 -76t32 -76q26 -25 67 -25t67 25q32 29 32 76t-32 76q-26 25 -67 25z" />
    <glyph glyph-name="ntilde" unicode="&#xf1;" horiz-adv-x="585" 
d="M55 0v447h160v-56q50 66 142 66q84 0 132 -48q26 -26 34 -54t8 -71v-284h-160v226q0 66 -20 87q-18 19 -51 19q-36 0 -59 -21q-26 -24 -26 -71v-240h-160zM394 667l77 -46q-18 -45 -44 -69q-29 -29 -72 -29q-26 0 -58 15l-30 15q-24 12 -36 12q-28 0 -38 -42l-78 46
q15 44 40 68q30 28 70 28q27 0 60 -14l29 -13q33 -15 43 -15q24 0 37 44z" />
    <glyph glyph-name="ograve" unicode="&#xf2;" horiz-adv-x="611" 
d="M306 326q-41 0 -72 -29t-31 -73q0 -40 31 -71q30 -30 72 -30q41 0 71 30q31 29 31 71t-31 73q-31 29 -71 29zM574 224q0 -97 -69 -165q-75 -74 -200 -74q-124 0 -199 74q-69 68 -69 165t69 164q76 74 199 74q122 0 200 -74q69 -67 69 -164zM315 520l-154 136l102 73
l126 -154z" />
    <glyph glyph-name="oacute" unicode="&#xf3;" horiz-adv-x="611" 
d="M306 326q-41 0 -72 -29t-31 -73q0 -40 31 -71q30 -30 72 -30q41 0 71 30q31 29 31 71t-31 73q-31 29 -71 29zM574 224q0 -97 -69 -165q-75 -74 -200 -74q-124 0 -199 74q-69 68 -69 165t69 164q76 74 199 74q122 0 200 -74q69 -67 69 -164zM353 729l101 -73l-154 -136
l-74 55z" />
    <glyph glyph-name="ocircumflex" unicode="&#xf4;" horiz-adv-x="611" 
d="M306 326q-41 0 -72 -29t-31 -73q0 -40 31 -71q30 -30 72 -30q41 0 71 30q31 29 31 71t-31 73q-31 29 -71 29zM574 224q0 -97 -69 -165q-75 -74 -200 -74q-124 0 -199 74q-69 68 -69 165t69 164q76 74 199 74q122 0 200 -74q69 -67 69 -164zM180 520l-68 77l196 147
l198 -147l-71 -77l-127 98z" />
    <glyph glyph-name="otilde" unicode="&#xf5;" horiz-adv-x="611" 
d="M306 326q-41 0 -72 -29t-31 -73q0 -40 31 -71q30 -30 72 -30q41 0 71 30q31 29 31 71t-31 73q-31 29 -71 29zM574 224q0 -97 -69 -165q-75 -74 -200 -74q-124 0 -199 74q-69 68 -69 165t69 164q76 74 199 74q122 0 200 -74q69 -67 69 -164zM401 667l77 -46
q-18 -45 -44 -69q-29 -29 -72 -29q-26 0 -58 15l-30 15q-24 12 -36 12q-28 0 -38 -42l-78 46q15 44 40 68q30 28 70 28q27 0 60 -14l29 -13q33 -15 43 -15q24 0 37 44z" />
    <glyph glyph-name="odieresis" unicode="&#xf6;" horiz-adv-x="611" 
d="M306 326q-41 0 -72 -29t-31 -73q0 -40 31 -71q30 -30 72 -30q41 0 71 30q31 29 31 71t-31 73q-31 29 -71 29zM574 224q0 -97 -69 -165q-75 -74 -200 -74q-124 0 -199 74q-69 68 -69 165t69 164q76 74 199 74q122 0 200 -74q69 -67 69 -164zM422 523q-36 0 -61 27
q-25 28 -25 60t26 61q26 26 60 26q35 0 60 -25q27 -27 27 -62q0 -33 -26 -61q-26 -26 -61 -26zM195 523q-36 0 -61 27q-25 28 -25 60t26 61q26 26 60 26q35 0 60 -25q27 -27 27 -62q0 -33 -26 -61q-26 -26 -61 -26z" />
    <glyph glyph-name="divide" unicode="&#xf7;" 
d="M175 510q0 31 21 52q22 22 54 22q31 0 52 -21q22 -22 22 -53t-22 -53q-22 -21 -52 -21q-34 0 -54 22q-21 21 -21 52zM33 280v120h434v-120h-434zM175 170q0 31 21 52q22 22 54 22q31 0 52 -21q22 -22 22 -53t-22 -53q-22 -21 -52 -21q-34 0 -54 22q-21 21 -21 52z" />
    <glyph glyph-name="oslash" unicode="&#xf8;" horiz-adv-x="600" 
d="M212 180l134 134q-21 12 -44 12q-42 0 -73 -29q-30 -29 -30 -71q0 -22 13 -46zM393 268l-133 -133q18 -12 42 -12q42 0 72 30t30 71q0 26 -11 44zM574 444l-67 -66q63 -61 63 -154q0 -97 -69 -165q-75 -74 -200 -74q-85 0 -150 36l-72 -72l-53 50l68 68q-61 66 -61 157
q0 97 69 164q76 74 199 74q84 0 149 -37l71 70z" />
    <glyph glyph-name="ugrave" unicode="&#xf9;" horiz-adv-x="590" 
d="M55 447h160v-250q0 -43 24 -65q19 -17 56 -17t57 19q23 23 23 63v250h160v-279q0 -76 -43 -120q-61 -63 -193 -63q-142 0 -202 64q-42 44 -42 119v279zM296 520l-154 136l102 73l126 -154z" />
    <glyph glyph-name="uacute" unicode="&#xfa;" horiz-adv-x="590" 
d="M55 447h160v-250q0 -43 24 -65q19 -17 56 -17t57 19q23 23 23 63v250h160v-279q0 -76 -43 -120q-61 -63 -193 -63q-142 0 -202 64q-42 44 -42 119v279zM349 729l101 -73l-154 -136l-74 55z" />
    <glyph glyph-name="ucircumflex" unicode="&#xfb;" horiz-adv-x="590" 
d="M55 447h160v-250q0 -43 24 -65q19 -17 56 -17t57 19q23 23 23 63v250h160v-279q0 -76 -43 -120q-61 -63 -193 -63q-142 0 -202 64q-42 44 -42 119v279zM167 520l-68 77l196 147l198 -147l-71 -77l-127 98z" />
    <glyph glyph-name="udieresis" unicode="&#xfc;" horiz-adv-x="590" 
d="M55 447h160v-250q0 -43 24 -65q19 -17 56 -17t57 19q23 23 23 63v250h160v-279q0 -76 -43 -120q-61 -63 -193 -63q-142 0 -202 64q-42 44 -42 119v279zM409 523q-36 0 -61 27q-25 28 -25 60t26 61q26 26 60 26q35 0 60 -25q27 -27 27 -62q0 -33 -26 -61q-26 -26 -61 -26z
M182 523q-36 0 -61 27q-25 28 -25 60t26 61q26 26 60 26q35 0 60 -25q27 -27 27 -62q0 -33 -26 -61q-26 -26 -61 -26z" />
    <glyph glyph-name="yacute" unicode="&#xfd;" horiz-adv-x="604" 
d="M66 -229l150 290l-216 386h186l119 -229l116 229h183l-359 -676h-179zM357 729l101 -73l-154 -136l-74 55z" />
    <glyph glyph-name="thorn" unicode="&#xfe;" horiz-adv-x="616" 
d="M215 43v-272h-160v958h160v-331q51 64 137 64q94 0 159 -65q68 -68 68 -173q0 -107 -72 -177q-63 -62 -153 -62q-83 0 -139 58zM313 326q-42 0 -72 -30q-31 -31 -31 -74q0 -40 31 -71q30 -30 72 -30q43 0 71 30q31 31 31 71q0 43 -31 74q-28 30 -71 30z" />
    <glyph glyph-name="ydieresis" unicode="&#xff;" horiz-adv-x="604" 
d="M66 -229l150 290l-216 386h186l119 -229l116 229h183l-359 -676h-179zM417 523q-36 0 -61 27q-25 28 -25 60t26 61q26 26 60 26q35 0 60 -25q27 -27 27 -62q0 -33 -26 -61q-26 -26 -61 -26zM190 523q-36 0 -61 27q-25 28 -25 60t26 61q26 26 60 26q35 0 60 -25
q27 -27 27 -62q0 -33 -26 -61q-26 -26 -61 -26z" />
    <glyph glyph-name="Amacron" unicode="&#x100;" horiz-adv-x="710" 
d="M518 0l-41 112h-242l-45 -112h-183l256 667h189l251 -667h-185zM283 244h148l-75 216zM167 749v98h376v-98h-376z" />
    <glyph glyph-name="amacron" unicode="&#x101;" horiz-adv-x="616" 
d="M401 404v43h160v-447h-160v49q-46 -64 -139 -64q-94 0 -161 71q-64 68 -64 164q0 110 69 179q63 63 161 63q82 0 134 -58zM303 326q-40 0 -70 -29q-32 -31 -32 -73q0 -44 31 -73q32 -30 72 -30q41 0 72 31q30 30 30 72q0 43 -31 73q-31 29 -72 29zM117 539v98h396v-98
h-396z" />
    <glyph glyph-name="Abreve" unicode="&#x102;" horiz-adv-x="710" 
d="M518 0l-41 112h-242l-45 -112h-183l256 667h189l251 -667h-185zM283 244h148l-75 216zM425 877h103q-1 -66 -44 -109q-45 -45 -130 -45t-130 45q-43 43 -44 109h103q3 -26 20 -41q20 -18 51 -18t51 18q17 15 20 41z" />
    <glyph glyph-name="abreve" unicode="&#x103;" horiz-adv-x="616" 
d="M401 404v43h160v-447h-160v49q-46 -64 -139 -64q-94 0 -161 71q-64 68 -64 164q0 110 69 179q63 63 161 63q82 0 134 -58zM303 326q-40 0 -70 -29q-32 -31 -32 -73q0 -44 31 -73q32 -30 72 -30q41 0 72 31q30 30 30 72q0 43 -31 73q-31 29 -72 29zM386 677h103
q-1 -66 -44 -109q-45 -45 -130 -45t-130 45q-43 43 -44 109h103q3 -26 20 -41q20 -18 51 -18t51 18q17 15 20 41z" />
    <glyph glyph-name="Aogonek" unicode="&#x104;" horiz-adv-x="710" 
d="M236 116l-46 -116h-183l256 667h189l251 -667h-106q-23 -15 -37 -30q-21 -22 -21 -46q0 -13 10 -22q9 -9 26 -9q26 0 49 18l-22 -86q-32 -18 -66 -18q-47 0 -73 28q-21 21 -21 55q0 33 21 61q19 28 55 49l-43 116h-239zM284 248h144l-72 212z" />
    <glyph glyph-name="aogonek" unicode="&#x105;" horiz-adv-x="616" 
d="M400 404v43h160v-447h-40q-27 -18 -39 -30q-19 -17 -19 -38q0 -16 11 -27t29 -11q24 0 49 18l-21 -85q-26 -17 -66 -17q-48 0 -72 27q-20 22 -20 51q0 32 19 61q21 31 56 51h-47v53q-51 -68 -138 -68q-94 0 -162 71q-63 64 -63 165q0 110 68 178q63 63 156 63
q84 0 139 -58zM303 326q-42 0 -71 -29q-31 -30 -31 -73t30 -73t72 -30q41 0 72 31q30 30 30 72t-31 73q-29 29 -71 29z" />
    <glyph glyph-name="Cacute" unicode="&#x106;" horiz-adv-x="589" 
d="M549 223v-205q-91 -33 -150 -33q-156 0 -258 100q-48 48 -74.5 112.5t-26.5 130.5q0 69 27.5 134t73.5 112q102 104 252 104q72 0 156 -34v-207q-59 73 -151 73q-71 0 -120 -44q-58 -54 -58 -137q0 -79 54 -130q49 -46 124 -46q87 0 151 70zM443 929l101 -73l-154 -136
l-74 55z" />
    <glyph glyph-name="cacute" unicode="&#x107;" horiz-adv-x="429" 
d="M393 144v-134q-51 -25 -111 -25q-106 0 -176 68q-69 67 -69 167q0 103 72 173q71 68 180 68q54 0 104 -25v-134q-41 29 -83 29q-47 0 -78 -31t-31 -77q0 -44 28 -75q32 -34 82 -34q47 0 82 30zM333 729l101 -73l-154 -136l-74 55z" />
    <glyph glyph-name="Ccircumflex" unicode="&#x108;" horiz-adv-x="589" 
d="M549 223v-205q-91 -33 -150 -33q-156 0 -258 100q-48 48 -74.5 112.5t-26.5 130.5q0 69 27.5 134t73.5 112q102 104 252 104q72 0 156 -34v-207q-59 73 -151 73q-71 0 -120 -44q-58 -54 -58 -137q0 -79 54 -130q49 -46 124 -46q87 0 151 70zM271 720l-68 77l196 147
l198 -147l-71 -77l-127 98z" />
    <glyph glyph-name="ccircumflex" unicode="&#x109;" horiz-adv-x="429" 
d="M393 144v-134q-51 -25 -111 -25q-106 0 -176 68q-69 67 -69 167q0 103 72 173q71 68 180 68q54 0 104 -25v-134q-41 29 -83 29q-47 0 -78 -31t-31 -77q0 -44 28 -75q32 -34 82 -34q47 0 82 30zM151 520l-68 77l196 147l198 -147l-71 -77l-127 98z" />
    <glyph glyph-name="Cdotaccent" unicode="&#x10a;" horiz-adv-x="589" 
d="M549 223v-205q-91 -33 -150 -33q-156 0 -258 100q-48 48 -74.5 112.5t-26.5 130.5q0 69 27.5 134t73.5 112q102 104 252 104q72 0 156 -34v-207q-59 73 -151 73q-71 0 -120 -44q-58 -54 -58 -137q0 -79 54 -130q49 -46 124 -46q87 0 151 70zM374 723q-36 0 -64 26
q-27 27 -27 63q0 40 27 67q26 26 64 26t64 -26q27 -27 27 -65q0 -39 -27 -65t-64 -26z" />
    <glyph glyph-name="cdotaccent" unicode="&#x10b;" horiz-adv-x="429" 
d="M393 144v-134q-51 -25 -111 -25q-106 0 -176 68q-69 67 -69 167q0 103 72 173q71 68 180 68q54 0 104 -25v-134q-41 29 -83 29q-47 0 -78 -31t-31 -77q0 -44 28 -75q32 -34 82 -34q47 0 82 30zM260 523q-36 0 -64 26q-27 27 -27 63q0 40 27 67q26 26 64 26t64 -26
q27 -27 27 -65q0 -39 -27 -65t-64 -26z" />
    <glyph glyph-name="Ccaron" unicode="&#x10c;" horiz-adv-x="589" 
d="M549 223v-205q-91 -33 -150 -33q-156 0 -258 100q-48 48 -74.5 112.5t-26.5 130.5q0 69 27.5 134t73.5 112q102 104 252 104q72 0 156 -34v-207q-59 73 -151 73q-71 0 -120 -44q-58 -54 -58 -137q0 -79 54 -130q49 -46 124 -46q87 0 151 70zM399 720l-196 147l68 77
l128 -98l127 98l71 -77z" />
    <glyph glyph-name="ccaron" unicode="&#x10d;" horiz-adv-x="429" 
d="M393 144v-134q-51 -25 -111 -25q-106 0 -176 68q-69 67 -69 167q0 103 72 173q71 68 180 68q54 0 104 -25v-134q-41 29 -83 29q-47 0 -78 -31t-31 -77q0 -44 28 -75q32 -34 82 -34q47 0 82 30zM289 520l-196 147l68 77l128 -98l127 98l71 -77z" />
    <glyph glyph-name="Dcaron" unicode="&#x10e;" horiz-adv-x="695" 
d="M312 0h-242v667h227q170 0 265 -92q93 -89 93 -243q0 -144 -87 -231q-44 -44 -110 -72.5t-146 -28.5zM243 520v-373h35q97 0 146 48q51 49 51 137q0 97 -52 146q-45 42 -138 42h-42zM309 720l-196 147l68 77l128 -98l127 98l71 -77z" />
    <glyph glyph-name="dcaron" unicode="&#x10f;" horiz-adv-x="772" 
d="M561 729v-729h-160v49q-50 -64 -135 -64q-93 0 -157 62q-72 70 -72 178t73 177q63 60 158 60q79 0 133 -58v325h160zM303 121q38 0 69 27q34 31 34 76q0 40 -30 72q-28 30 -73 30q-42 0 -71 -29q-31 -31 -31 -76q0 -39 31 -70q30 -30 71 -30zM598 490l54 210l150 -26
l-104 -202z" />
    <glyph glyph-name="Dcroat" unicode="&#x110;" horiz-adv-x="737" 
d="M354 0h-242v296h-92v120h92v251h227q170 0 265 -92q93 -89 93 -243q0 -144 -87 -231q-44 -44 -110 -72.5t-146 -28.5zM285 520v-104h118v-120h-118v-149h35q97 0 146 48q51 49 51 137q0 97 -52 146q-45 42 -138 42h-42z" />
    <glyph glyph-name="dcroat" unicode="&#x111;" horiz-adv-x="614" 
d="M560 729v-95h82v-108h-82v-526h-160v49q-48 -64 -134 -64q-94 0 -158 62q-71 69 -71 178q0 108 72 177q64 60 159 60q80 0 132 -58v122h-164v108h164v95h160zM302 121q41 0 70 27q33 30 33 76q0 41 -29 72q-28 30 -74 30q-42 0 -71 -29q-30 -30 -30 -76q0 -38 30 -70
q28 -30 71 -30z" />
    <glyph glyph-name="Emacron" unicode="&#x112;" horiz-adv-x="489" 
d="M449 667v-147h-206v-111h195v-147h-195v-115h206v-147h-379v667h379zM72 749v98h376v-98h-376z" />
    <glyph glyph-name="emacron" unicode="&#x113;" horiz-adv-x="566" 
d="M529 211v-17h-333q0 -47 28 -75q22 -22 66 -22q30 0 52 12q19 11 28 30h153q-15 -54 -54 -92q-64 -62 -182 -62q-117 0 -185 68q-66 66 -66 169q0 108 67 173t183 65q107 0 172 -61q71 -68 71 -188zM201 286h181q-7 29 -26 48q-24 24 -66 24q-41 0 -65 -24
q-20 -22 -24 -48zM88 539v98h396v-98h-396z" />
    <glyph glyph-name="Edotaccent" unicode="&#x116;" horiz-adv-x="489" 
d="M449 667v-147h-206v-111h195v-147h-195v-115h206v-147h-379v667h379zM260 723q-36 0 -64 26q-27 27 -27 63q0 40 27 67q26 26 64 26t64 -26q27 -27 27 -65q0 -39 -27 -65t-64 -26z" />
    <glyph glyph-name="edotaccent" unicode="&#x117;" horiz-adv-x="566" 
d="M529 211v-17h-333q0 -47 28 -75q22 -22 66 -22q30 0 52 12q19 11 28 30h153q-15 -54 -54 -92q-64 -62 -182 -62q-117 0 -185 68q-66 66 -66 169q0 108 67 173t183 65q107 0 172 -61q71 -68 71 -188zM201 286h181q-7 29 -26 48q-24 24 -66 24q-41 0 -65 -24
q-20 -22 -24 -48zM286 523q-36 0 -64 26q-27 27 -27 63q0 40 27 67q26 26 64 26t64 -26q27 -27 27 -65q0 -39 -27 -65t-64 -26z" />
    <glyph glyph-name="Eogonek" unicode="&#x118;" horiz-adv-x="489" 
d="M449 667v-147h-206v-111h195v-147h-195v-115h206v-147h-40q-23 -15 -37 -30q-21 -22 -21 -46q0 -13 10 -22q9 -9 26 -9q26 0 49 18l-22 -86q-32 -18 -66 -18q-47 0 -73 28q-21 21 -21 55q0 33 21 61q19 28 55 49h-260v667h379z" />
    <glyph glyph-name="eogonek" unicode="&#x119;" horiz-adv-x="566" 
d="M529 211v-17h-333q0 -49 29 -76q24 -22 68 -22q28 0 52 15q17 11 25 27h153q-14 -56 -54 -94q-21 -20 -59 -40q-42 -27 -49 -34q-19 -17 -19 -38q0 -16 11 -27t29 -11q24 0 49 18l-21 -85q-26 -17 -66 -17q-48 0 -72 27q-20 24 -20 51q0 30 17 57q15 25 37 40
q-8 -1 -25 -1q-114 0 -183 72q-62 67 -62 166q0 108 67 173t183 65q107 0 172 -61q71 -68 71 -188zM201 286h181q-7 29 -26 48q-24 24 -66 24t-65 -24q-20 -20 -24 -48z" />
    <glyph glyph-name="Ecaron" unicode="&#x11a;" horiz-adv-x="489" 
d="M449 667v-147h-206v-111h195v-147h-195v-115h206v-147h-379v667h379zM259 720l-196 147l68 77l128 -98l127 98l71 -77z" />
    <glyph glyph-name="ecaron" unicode="&#x11b;" horiz-adv-x="566" 
d="M529 211v-17h-333q0 -47 28 -75q22 -22 66 -22q30 0 52 12q19 11 28 30h153q-15 -54 -54 -92q-64 -62 -182 -62q-117 0 -185 68q-66 66 -66 169q0 108 67 173t183 65q107 0 172 -61q71 -68 71 -188zM201 286h181q-7 29 -26 48q-24 24 -66 24q-41 0 -65 -24
q-20 -22 -24 -48zM285 520l-196 147l68 77l128 -98l127 98l71 -77z" />
    <glyph glyph-name="Gcircumflex" unicode="&#x11c;" horiz-adv-x="774" 
d="M390 243v135h344q0 -103 -24.5 -174.5t-82.5 -125.5q-90 -84 -235 -84q-159 0 -256 99q-96 96 -96 241q0 152 100 250q98 98 259 98q106 0 180 -45q78 -48 119 -137l-165 -68q-16 40 -48 67q-40 33 -93 33q-68 0 -114 -46q-58 -58 -58 -153q0 -88 53 -144q48 -51 122 -51
q59 0 96 31q33 27 41 74h-142zM271 720l-68 77l196 147l198 -147l-71 -77l-127 98z" />
    <glyph glyph-name="gcircumflex" unicode="&#x11d;" horiz-adv-x="613" 
d="M398 447h160v-419q0 -60 -11.5 -103t-49.5 -82q-71 -72 -197 -72q-131 0 -209 79q-41 43 -49 93h178q15 -46 75 -46q45 0 71 25q32 30 32 83v45q-56 -59 -134 -59q-104 0 -165 63q-62 64 -62 163q0 106 66 175q65 68 162 68q81 0 133 -59v46zM303 327q-41 0 -71 -30
q-31 -32 -31 -72q0 -42 31 -73q29 -29 72 -29q42 0 72 30t30 72q0 41 -32 73q-29 29 -71 29zM171 520l-68 77l196 147l198 -147l-71 -77l-127 98z" />
    <glyph glyph-name="Gbreve" unicode="&#x11e;" horiz-adv-x="774" 
d="M390 243v135h344q0 -103 -24.5 -174.5t-82.5 -125.5q-90 -84 -235 -84q-159 0 -256 99q-96 96 -96 241q0 152 100 250q98 98 259 98q106 0 180 -45q78 -48 119 -137l-165 -68q-16 40 -48 67q-40 33 -93 33q-68 0 -114 -46q-58 -58 -58 -153q0 -88 53 -144q48 -51 122 -51
q59 0 96 31q33 27 41 74h-142zM466 877h103q-1 -66 -44 -109q-45 -45 -130 -45t-130 45q-43 43 -44 109h103q3 -26 20 -41q20 -18 51 -18t51 18q17 15 20 41z" />
    <glyph glyph-name="gbreve" unicode="&#x11f;" horiz-adv-x="613" 
d="M398 447h160v-419q0 -60 -11.5 -103t-49.5 -82q-71 -72 -197 -72q-131 0 -209 79q-41 43 -49 93h178q15 -46 75 -46q45 0 71 25q32 30 32 83v45q-56 -59 -134 -59q-104 0 -165 63q-62 64 -62 163q0 106 66 175q65 68 162 68q81 0 133 -59v46zM303 327q-41 0 -71 -30
q-31 -32 -31 -72q0 -42 31 -73q29 -29 72 -29q42 0 72 30t30 72q0 41 -32 73q-29 29 -71 29zM371 677h103q-1 -66 -44 -109q-45 -45 -130 -45t-130 45q-43 43 -44 109h103q3 -26 20 -41q20 -18 51 -18t51 18q17 15 20 41z" />
    <glyph glyph-name="Gdotaccent" unicode="&#x120;" horiz-adv-x="774" 
d="M390 243v135h344q0 -103 -24.5 -174.5t-82.5 -125.5q-90 -84 -235 -84q-159 0 -256 99q-96 96 -96 241q0 152 100 250q98 98 259 98q106 0 180 -45q78 -48 119 -137l-165 -68q-16 40 -48 67q-40 33 -93 33q-68 0 -114 -46q-58 -58 -58 -153q0 -88 53 -144q48 -51 122 -51
q59 0 96 31q33 27 41 74h-142zM398 723q-36 0 -64 26q-27 27 -27 63q0 40 27 67q26 26 64 26t64 -26q27 -27 27 -65q0 -39 -27 -65t-64 -26z" />
    <glyph glyph-name="gdotaccent" unicode="&#x121;" horiz-adv-x="613" 
d="M398 447h160v-419q0 -60 -11.5 -103t-49.5 -82q-71 -72 -197 -72q-131 0 -209 79q-41 43 -49 93h178q15 -46 75 -46q45 0 71 25q32 30 32 83v45q-56 -59 -134 -59q-104 0 -165 63q-62 64 -62 163q0 106 66 175q65 68 162 68q81 0 133 -59v46zM303 327q-41 0 -71 -30
q-31 -32 -31 -72q0 -42 31 -73q29 -29 72 -29q42 0 72 30t30 72q0 41 -32 73q-29 29 -71 29zM300 523q-36 0 -64 26q-27 27 -27 63q0 40 27 67q26 26 64 26t64 -26q27 -27 27 -65q0 -39 -27 -65t-64 -26z" />
    <glyph glyph-name="Gcommaaccent" unicode="&#x122;" horiz-adv-x="774" 
d="M390 243v135h344q0 -103 -24.5 -174.5t-82.5 -125.5q-90 -84 -235 -84q-159 0 -256 99q-96 96 -96 241q0 152 100 250q98 98 259 98q106 0 180 -45q78 -48 119 -137l-165 -68q-16 40 -48 67q-40 33 -93 33q-68 0 -114 -46q-58 -58 -58 -153q0 -88 53 -144q48 -51 122 -51
q59 0 96 31q33 27 41 74h-142zM270 -248l52 198l150 -16l-102 -194z" />
    <glyph glyph-name="gcommaaccent" unicode="&#x123;" horiz-adv-x="613" 
d="M398 447h160v-419q0 -60 -11.5 -103t-49.5 -82q-71 -72 -197 -72q-131 0 -209 79q-41 43 -49 93h178q15 -46 75 -46q45 0 71 25q32 30 32 83v45q-56 -59 -134 -59q-104 0 -165 63q-62 64 -62 163q0 106 66 175q65 68 162 68q81 0 133 -59v46zM303 327q-41 0 -71 -30
q-31 -32 -31 -72q0 -42 31 -73q29 -29 72 -29q42 0 72 30t30 72q0 41 -32 73q-29 29 -71 29zM410 698l-52 -188l-150 16l102 184z" />
    <glyph glyph-name="Hcircumflex" unicode="&#x124;" horiz-adv-x="737" 
d="M243 667v-249h250v249h174v-667h-174v270h-250v-270h-173v667h173zM239 720l-68 77l196 147l198 -147l-71 -77l-127 98z" />
    <glyph glyph-name="hcircumflex" unicode="&#x125;" horiz-adv-x="585" 
d="M55 0v729h160v-338q22 28 50 44q38 22 92 22q84 0 132 -48q27 -27 34.5 -55.5t7.5 -69.5v-284h-160v226q0 65 -20 87q-17 19 -51 19q-37 0 -58 -19q-27 -25 -27 -73v-240h-160zM11 740l-68 77l196 147l198 -147l-71 -77l-127 98z" />
    <glyph glyph-name="Hbar" unicode="&#x126;" horiz-adv-x="737" 
d="M243 667v-53h250v53h174v-53h56v-117h-56v-497h-174v270h-250v-270h-173v497h-56v117h56v53h173zM493 497h-250v-79h250v79z" />
    <glyph glyph-name="hbar" unicode="&#x127;" horiz-adv-x="622" 
d="M92 0v526h-82v108h82v95h160v-95h164v-108h-164v-135q22 28 50 44q38 22 92 22q84 0 132 -48q27 -27 34.5 -55.5t7.5 -69.5v-284h-160v226q0 65 -20 87q-17 19 -51 19q-37 0 -58 -19q-27 -25 -27 -73v-240h-160z" />
    <glyph glyph-name="Imacron" unicode="&#x12a;" horiz-adv-x="313" 
d="M70 667h173v-667h-173v667zM-31 749v98h376v-98h-376z" />
    <glyph glyph-name="imacron" unicode="&#x12b;" horiz-adv-x="267" 
d="M53 447h160v-447h-160v447zM-63 539v98h396v-98h-396z" />
    <glyph glyph-name="Iogonek" unicode="&#x12e;" horiz-adv-x="313" 
d="M70 667h173v-667q-23 -15 -37 -30q-21 -22 -21 -46q0 -13 10 -22q9 -9 26 -9q26 0 49 18l-22 -86q-32 -18 -66 -18q-47 0 -73 28q-21 21 -21 55q0 33 21 61q19 28 55 49h-94v667z" />
    <glyph glyph-name="iogonek" unicode="&#x12f;" horiz-adv-x="267" 
d="M53 447h160v-447q-23 -14 -39 -30q-19 -19 -19 -38q0 -16 11 -27t28 -11q25 0 50 18l-22 -85q-30 -17 -65 -17q-47 0 -72 27q-21 23 -21 51q0 31 20 61t55 51h-86v447zM135 539q-36 0 -64 26q-26 24 -26 63q0 35 26 63q26 26 61 26q38 0 62 -24q29 -27 29 -65
q0 -36 -27 -63q-26 -26 -61 -26z" />
    <glyph glyph-name="Idotaccent" unicode="&#x130;" horiz-adv-x="313" 
d="M70 667h173v-667h-173v667zM157 723q-36 0 -64 26q-27 27 -27 63q0 40 27 67q26 26 64 26t64 -26q27 -27 27 -65q0 -39 -27 -65t-64 -26z" />
    <glyph glyph-name="dotlessi" unicode="&#x131;" horiz-adv-x="267" 
d="M53 447h160v-447h-160v447z" />
    <glyph glyph-name="Jcircumflex" unicode="&#x134;" horiz-adv-x="468" 
d="M225 667h173v-459q0 -54 -10.5 -89t-46.5 -71q-63 -63 -163 -63q-59 0 -105 30q-38 25 -66 68l113 116q4 -36 24 -53q15 -12 33 -12q17 0 30 11q18 17 18 67v455zM171 720l-68 77l196 147l198 -147l-71 -77l-127 98z" />
    <glyph glyph-name="jcircumflex" unicode="&#x135;" horiz-adv-x="267" 
d="M53 447h160v-676h-160v676zM6 520l-68 77l196 147l198 -147l-71 -77l-127 98z" />
    <glyph glyph-name="Kcommaaccent" unicode="&#x136;" horiz-adv-x="700" 
d="M243 667v-275l212 275h214l-265 -316l289 -351h-224l-226 289v-289h-173v667h173zM230 -248l52 198l150 -16l-102 -194z" />
    <glyph glyph-name="kcommaaccent" unicode="&#x137;" horiz-adv-x="601" 
d="M55 729h160v-443l151 161h217l-211 -206l228 -241h-222l-163 183v-183h-160v729zM190 -238l52 188l150 -16l-102 -184z" />
    <glyph glyph-name="Lacute" unicode="&#x139;" horiz-adv-x="470" 
d="M70 667h173v-520h208v-147h-381v667zM238 929l101 -73l-154 -136l-74 55z" />
    <glyph glyph-name="lacute" unicode="&#x13a;" horiz-adv-x="269" 
d="M55 729h160v-729h-160v729zM188 979l101 -73l-154 -136l-74 55z" />
    <glyph glyph-name="Lcommaaccent" unicode="&#x13b;" horiz-adv-x="470" 
d="M70 667h173v-520h208v-147h-381v667zM150 -248l52 198l150 -16l-102 -194z" />
    <glyph glyph-name="lcommaaccent" unicode="&#x13c;" horiz-adv-x="269" 
d="M55 729h160v-729h-160v729zM35 -238l52 188l150 -16l-102 -184z" />
    <glyph glyph-name="Lcaron" unicode="&#x13d;" horiz-adv-x="470" 
d="M70 667h173v-520h208v-147h-381v667zM288 470l54 210l150 -26l-104 -202z" />
    <glyph glyph-name="lcaron" unicode="&#x13e;" horiz-adv-x="422" 
d="M55 729h160v-729h-160v729zM248 490l54 210l150 -26l-104 -202z" />
    <glyph glyph-name="Ldot" unicode="&#x13f;" horiz-adv-x="470" 
d="M70 667h173v-520h208v-147h-381v667zM391 264q-36 0 -64 26q-27 27 -27 63q0 40 27 67q26 26 64 26t64 -26q27 -27 27 -65q0 -39 -27 -65t-64 -26z" />
    <glyph glyph-name="ldot" unicode="&#x140;" horiz-adv-x="451" 
d="M55 729h160v-729h-160v729zM360 274q-36 0 -64 26q-27 27 -27 63q0 40 27 67q26 26 64 26t64 -26q27 -27 27 -65q0 -39 -27 -65t-64 -26z" />
    <glyph glyph-name="Lslash" unicode="&#x141;" horiz-adv-x="496" 
d="M96 382v285h173v-222l102 65v-138l-102 -65v-160h208v-147h-381v244l-86 -55v138z" />
    <glyph glyph-name="lslash" unicode="&#x142;" horiz-adv-x="350" 
d="M100 449v280h160v-213l80 54v-118l-80 -54v-398h-160v331l-80 -54v118z" />
    <glyph glyph-name="Nacute" unicode="&#x143;" horiz-adv-x="805" 
d="M243 0h-173v667h173l319 -408v408h173v-667h-173l-319 408v-408zM455 929l101 -73l-154 -136l-74 55z" />
    <glyph glyph-name="nacute" unicode="&#x144;" horiz-adv-x="585" 
d="M55 0v447h160v-56q50 66 142 66q84 0 132 -48q26 -26 34 -54t8 -71v-284h-160v226q0 66 -20 87q-18 19 -51 19q-36 0 -59 -21q-26 -24 -26 -71v-240h-160zM363 729l101 -73l-154 -136l-74 55z" />
    <glyph glyph-name="Ncommaaccent" unicode="&#x145;" horiz-adv-x="805" 
d="M243 0h-173v667h173l319 -408v408h173v-667h-173l-319 408v-408zM280 -248l52 198l150 -16l-102 -194z" />
    <glyph glyph-name="ncommaaccent" unicode="&#x146;" horiz-adv-x="585" 
d="M55 0v447h160v-56q50 66 142 66q84 0 132 -48q26 -26 34 -54t8 -71v-284h-160v226q0 66 -20 87q-18 19 -51 19q-36 0 -59 -21q-26 -24 -26 -71v-240h-160zM180 -238l52 188l150 -16l-102 -184z" />
    <glyph glyph-name="Ncaron" unicode="&#x147;" horiz-adv-x="805" 
d="M243 0h-173v667h173l319 -408v408h173v-667h-173l-319 408v-408zM401 720l-196 147l68 77l128 -98l127 98l71 -77z" />
    <glyph glyph-name="ncaron" unicode="&#x148;" horiz-adv-x="585" 
d="M55 0v447h160v-56q50 66 142 66q84 0 132 -48q26 -26 34 -54t8 -71v-284h-160v226q0 66 -20 87q-18 19 -51 19q-36 0 -59 -21q-26 -24 -26 -71v-240h-160zM304 520l-196 147l68 77l128 -98l127 98l71 -77z" />
    <glyph glyph-name="Omacron" unicode="&#x14c;" horiz-adv-x="816" 
d="M776 333q0 -148 -105 -249q-104 -99 -263 -99t-263 99q-105 101 -105 249q0 69 26.5 135t78.5 115q104 99 263 99t263 -99q52 -49 78.5 -115t26.5 -135zM408 514q-82 0 -135 -53q-53 -52 -53 -131q0 -73 53 -124q55 -53 135 -53q82 0 134 52q54 54 54 128q0 76 -54 128
q-56 53 -134 53zM221 749v98h376v-98h-376z" />
    <glyph glyph-name="omacron" unicode="&#x14d;" horiz-adv-x="611" 
d="M306 326q-41 0 -72 -29t-31 -73q0 -40 31 -71q30 -30 72 -30q41 0 71 30q31 29 31 71t-31 73q-31 29 -71 29zM574 224q0 -97 -69 -165q-75 -74 -200 -74q-124 0 -199 74q-69 68 -69 165t69 164q76 74 199 74q122 0 200 -74q69 -67 69 -164zM111 539v98h396v-98h-396z" />
    <glyph glyph-name="Obreve" unicode="&#x14e;" horiz-adv-x="816" 
d="M776 333q0 -148 -105 -249q-104 -99 -263 -99t-263 99q-105 101 -105 249q0 69 26.5 135t78.5 115q104 99 263 99t263 -99q52 -49 78.5 -115t26.5 -135zM408 514q-82 0 -135 -53q-53 -52 -53 -131q0 -73 53 -124q55 -53 135 -53q82 0 134 52q54 54 54 128q0 76 -54 128
q-56 53 -134 53zM479 877h103q-1 -66 -44 -109q-45 -45 -130 -45t-130 45q-43 43 -44 109h103q3 -26 20 -41q20 -18 51 -18t51 18q17 15 20 41z" />
    <glyph glyph-name="obreve" unicode="&#x14f;" horiz-adv-x="611" 
d="M306 326q-41 0 -72 -29t-31 -73q0 -40 31 -71q30 -30 72 -30q41 0 71 30q31 29 31 71t-31 73q-31 29 -71 29zM574 224q0 -97 -69 -165q-75 -74 -200 -74q-124 0 -199 74q-69 68 -69 165t69 164q76 74 199 74q122 0 200 -74q69 -67 69 -164zM380 677h103q-1 -66 -44 -109
q-45 -45 -130 -45t-130 45q-43 43 -44 109h103q3 -26 20 -41q20 -18 51 -18t51 18q17 15 20 41z" />
    <glyph glyph-name="Ohungarumlaut" unicode="&#x150;" horiz-adv-x="816" 
d="M776 333q0 -148 -105 -249q-104 -99 -263 -99t-263 99q-105 101 -105 249q0 69 26.5 135t78.5 115q104 99 263 99t263 -99q52 -49 78.5 -115t26.5 -135zM408 514q-82 0 -135 -53q-53 -52 -53 -131q0 -73 53 -124q55 -53 135 -53q82 0 134 52q54 54 54 128q0 76 -54 128
q-56 53 -134 53zM378 929l83 -73l-137 -136l-54 55zM551 929l84 -73l-137 -136l-55 55z" />
    <glyph glyph-name="ohungarumlaut" unicode="&#x151;" horiz-adv-x="611" 
d="M306 326q-41 0 -72 -29t-31 -73q0 -40 31 -71q30 -30 72 -30q41 0 71 30q31 29 31 71t-31 73q-31 29 -71 29zM574 224q0 -97 -69 -165q-75 -74 -200 -74q-124 0 -199 74q-69 68 -69 165t69 164q76 74 199 74q122 0 200 -74q69 -67 69 -164zM278 729l83 -73l-137 -136
l-54 55zM451 729l84 -73l-137 -136l-55 55z" />
    <glyph glyph-name="OE" unicode="&#x152;" horiz-adv-x="1012" 
d="M972 667v-148h-201v-110h188v-147h-188v-115h201v-147h-375v74q-38 -42 -85 -64q-54 -25 -123 -25q-149 0 -245 97q-104 105 -104 253q0 141 102 244q101 103 253 103q64 0 114 -23q47 -21 88 -62v70h375zM405 514q-75 0 -129 -52q-55 -53 -55 -129q0 -74 53 -126
q54 -54 131 -54q78 0 132 54q52 52 52 130q0 70 -53 123q-54 54 -131 54z" />
    <glyph glyph-name="oe" unicode="&#x153;" horiz-adv-x="924" 
d="M726 140h153q-17 -79 -88 -121q-58 -34 -143 -34q-68 0 -111 23q-38 20 -62 55q-38 -41 -78 -59q-43 -19 -103 -19q-121 0 -192 70q-66 65 -66 165q0 105 69 174q69 68 189 68q60 0 103 -17q42 -16 78 -52q23 27 61 45q50 23 106 23q116 0 180 -65q26 -26 40.5 -61.5
t18 -59t6.5 -66.5l1 -13h-336q2 -20 10.5 -42.5t19.5 -33.5q22 -22 68 -22q59 0 76 42zM556 287h184q-8 31 -30 51q-24 22 -62 22q-35 0 -60 -20q-23 -19 -32 -53zM298 324q-37 0 -68 -29q-29 -29 -29 -70q0 -46 29 -75q27 -27 66 -27q38 0 65 24q34 31 34 77q0 44 -32 74
q-27 26 -65 26z" />
    <glyph glyph-name="Racute" unicode="&#x154;" horiz-adv-x="627" 
d="M70 667h270q106 0 163 -59q57 -58 57 -150q0 -88 -53 -139q-37 -35 -92 -46l209 -273h-215l-166 256v-256h-173v667zM243 533v-165h33q56 0 84 27q22 22 22 56q0 35 -23 56q-26 26 -83 26h-33zM343 929l101 -73l-154 -136l-74 55z" />
    <glyph glyph-name="racute" unicode="&#x155;" horiz-adv-x="409" 
d="M55 0v447h160v-73q22 42 63 62q33 18 83 18q2 0 5 -0.5t10.5 -1t16.5 -0.5v-151q-32 16 -69 16q-47 0 -73 -24q-36 -33 -36 -102v-191h-160zM273 729l101 -73l-154 -136l-74 55z" />
    <glyph glyph-name="Rcommaaccent" unicode="&#x156;" horiz-adv-x="627" 
d="M70 667h270q106 0 163 -59q57 -58 57 -150q0 -88 -53 -139q-37 -35 -92 -46l209 -273h-215l-166 256v-256h-173v667zM243 533v-165h33q56 0 84 27q22 22 22 56q0 35 -23 56q-26 26 -83 26h-33zM210 -248l52 198l150 -16l-102 -194z" />
    <glyph glyph-name="rcommaaccent" unicode="&#x157;" horiz-adv-x="409" 
d="M55 0v447h160v-73q22 42 63 62q33 18 83 18q2 0 5 -0.5t10.5 -1t16.5 -0.5v-151q-32 16 -69 16q-47 0 -73 -24q-36 -33 -36 -102v-191h-160zM110 -238l52 188l150 -16l-102 -184z" />
    <glyph glyph-name="Rcaron" unicode="&#x158;" horiz-adv-x="627" 
d="M70 667h270q106 0 163 -59q57 -58 57 -150q0 -88 -53 -139q-37 -35 -92 -46l209 -273h-215l-166 256v-256h-173v667zM243 533v-165h33q56 0 84 27q22 22 22 56q0 35 -23 56q-26 26 -83 26h-33zM299 720l-196 147l68 77l128 -98l127 98l71 -77z" />
    <glyph glyph-name="rcaron" unicode="&#x159;" horiz-adv-x="409" 
d="M55 0v447h160v-73q22 42 63 62q33 18 83 18q2 0 5 -0.5t10.5 -1t16.5 -0.5v-151q-32 16 -69 16q-47 0 -73 -24q-36 -33 -36 -102v-191h-160zM215 520l-196 147l68 77l128 -98l127 98l71 -77z" />
    <glyph glyph-name="Sacute" unicode="&#x15a;" horiz-adv-x="571" 
d="M40 60l74 140q72 -68 153 -68q46 0 67 23q17 17 17 42q0 24 -19 40q-16 14 -86 35l-45 14q-67 21 -96 54q-38 41 -38 118q0 100 61 161q63 63 171 63q103 0 206 -54l-69 -135q-57 45 -114 45q-36 0 -57 -20q-17 -17 -17 -36q0 -18 9 -30q14 -17 58 -30l53 -16
q84 -26 121 -66q43 -46 43 -119q0 -105 -63 -168q-68 -68 -197 -68q-71 0 -131 22q-51 18 -101 53zM348 929l101 -73l-154 -136l-74 55z" />
    <glyph glyph-name="sacute" unicode="&#x15b;" horiz-adv-x="444" 
d="M27 37l57 111q30 -22 64 -33q31 -11 62 -11q28 0 41 12q8 8 8 21t-8 20q-8 8 -42 16l-42 10q-53 12 -78 39q-29 31 -29 77q0 65 42 109q52 54 160 54q74 0 143 -29l-54 -102q-48 22 -84 22q-22 0 -37 -9q-14 -8 -14 -22q0 -17 19 -25q8 -3 25 -6.5t28 -6.5l29 -8
q43 -12 66 -35q34 -32 34 -89q0 -68 -45 -111q-56 -56 -165 -56q-95 0 -180 52zM278 729l101 -73l-154 -136l-74 55z" />
    <glyph glyph-name="Scircumflex" unicode="&#x15c;" horiz-adv-x="571" 
d="M40 60l74 140q72 -68 153 -68q46 0 67 23q17 17 17 42q0 24 -19 40q-16 14 -86 35l-45 14q-67 21 -96 54q-38 41 -38 118q0 100 61 161q63 63 171 63q103 0 206 -54l-69 -135q-57 45 -114 45q-36 0 -57 -20q-17 -17 -17 -36q0 -18 9 -30q14 -17 58 -30l53 -16
q84 -26 121 -66q43 -46 43 -119q0 -105 -63 -168q-68 -68 -197 -68q-71 0 -131 22q-51 18 -101 53zM171 720l-68 77l196 147l198 -147l-71 -77l-127 98z" />
    <glyph glyph-name="scircumflex" unicode="&#x15d;" horiz-adv-x="444" 
d="M27 37l57 111q30 -22 64 -33q31 -11 62 -11q28 0 41 12q8 8 8 21t-8 20q-8 8 -42 16l-42 10q-53 12 -78 39q-29 31 -29 77q0 65 42 109q52 54 160 54q74 0 143 -29l-54 -102q-48 22 -84 22q-22 0 -37 -9q-14 -8 -14 -22q0 -17 19 -25q8 -3 25 -6.5t28 -6.5l29 -8
q43 -12 66 -35q34 -32 34 -89q0 -68 -45 -111q-56 -56 -165 -56q-95 0 -180 52zM131 520l-68 77l196 147l198 -147l-71 -77l-127 98z" />
    <glyph glyph-name="Scedilla" unicode="&#x15e;" horiz-adv-x="571" 
d="M40 60l74 140q72 -68 153 -68q46 0 67 23q17 17 17 42q0 24 -19 40q-16 14 -86 35l-45 14q-67 21 -96 54q-38 41 -38 118q0 100 61 161q63 63 171 63q103 0 206 -54l-69 -135q-57 45 -114 45q-36 0 -57 -20q-17 -17 -17 -36q0 -18 9 -30q14 -17 58 -30l53 -16
q84 -26 121 -66q43 -46 43 -119q0 -105 -63 -168q-68 -68 -197 -68q-71 0 -131 22q-51 18 -101 53zM262 -46l112 -44l-116 -146l-92 40z" />
    <glyph glyph-name="scedilla" unicode="&#x15f;" horiz-adv-x="444" 
d="M27 37l57 111q30 -22 64 -33q31 -11 62 -11q28 0 41 12q8 8 8 21t-8 20q-8 8 -42 16l-42 10q-53 12 -78 39q-29 31 -29 77q0 65 42 109q52 54 160 54q74 0 143 -29l-54 -102q-48 22 -84 22q-22 0 -37 -9q-14 -8 -14 -22q0 -17 19 -25q8 -3 25 -6.5t28 -6.5l29 -8
q43 -12 66 -35q34 -32 34 -89q0 -68 -45 -111q-56 -56 -165 -56q-95 0 -180 52zM208 -46l106 -44l-124 -146l-84 40z" />
    <glyph glyph-name="Scaron" unicode="&#x160;" horiz-adv-x="571" 
d="M40 60l74 140q72 -68 153 -68q46 0 67 23q17 17 17 42q0 24 -19 40q-16 14 -86 35l-45 14q-67 21 -96 54q-38 41 -38 118q0 100 61 161q63 63 171 63q103 0 206 -54l-69 -135q-57 45 -114 45q-36 0 -57 -20q-17 -17 -17 -36q0 -18 9 -30q14 -17 58 -30l53 -16
q84 -26 121 -66q43 -46 43 -119q0 -105 -63 -168q-68 -68 -197 -68q-71 0 -131 22q-51 18 -101 53zM299 720l-196 147l68 77l128 -98l127 98l71 -77z" />
    <glyph glyph-name="scaron" unicode="&#x161;" horiz-adv-x="444" 
d="M27 37l57 111q30 -22 64 -33q31 -11 62 -11q28 0 41 12q8 8 8 21t-8 20q-8 8 -42 16l-42 10q-53 12 -78 39q-29 31 -29 77q0 65 42 109q52 54 160 54q74 0 143 -29l-54 -102q-48 22 -84 22q-22 0 -37 -9q-14 -8 -14 -22q0 -17 19 -25q8 -3 25 -6.5t28 -6.5l29 -8
q43 -12 66 -35q34 -32 34 -89q0 -68 -45 -111q-56 -56 -165 -56q-95 0 -180 52zM259 520l-196 147l68 77l128 -98l127 98l71 -77z" />
    <glyph glyph-name="Tcommaaccent" unicode="&#x162;" horiz-adv-x="471" 
d="M465 520h-144v-520h-173v520h-141v147h458v-147zM120 -248l52 198l150 -16l-102 -194z" />
    <glyph glyph-name="tcommaaccent" unicode="&#x163;" horiz-adv-x="328" 
d="M323 316h-91v-316h-160v316h-51v131h51v147h160v-147h91v-131zM70 -238l52 188l150 -16l-102 -184z" />
    <glyph glyph-name="Tcaron" unicode="&#x164;" horiz-adv-x="471" 
d="M465 520h-144v-520h-173v520h-141v147h458v-147zM235 720l-196 147l68 77l128 -98l127 98l71 -77z" />
    <glyph glyph-name="tcaron" unicode="&#x165;" horiz-adv-x="442" 
d="M323 316h-91v-316h-160v316h-51v131h51v147h160v-147h91v-131zM268 490l54 210l150 -26l-104 -202z" />
    <glyph glyph-name="Utilde" unicode="&#x168;" horiz-adv-x="721" 
d="M70 667h173v-395q0 -70 34 -103q34 -32 82 -32t80 29q18 16 27.5 40.5t10.5 39t1 41.5v380h173v-383q0 -44 -3 -72.5t-20.5 -69t-51.5 -74.5q-82 -83 -220 -83q-146 0 -221 80q-65 71 -65 219v383zM461 867l77 -46q-18 -45 -44 -69q-29 -29 -72 -29q-26 0 -58 15l-30 15
q-24 12 -36 12q-28 0 -38 -42l-78 46q15 44 40 68q30 28 70 28q27 0 60 -14l29 -13q33 -15 43 -15q24 0 37 44z" />
    <glyph glyph-name="utilde" unicode="&#x169;" horiz-adv-x="590" 
d="M55 447h160v-250q0 -43 24 -65q19 -17 56 -17t57 19q23 23 23 63v250h160v-279q0 -76 -43 -120q-61 -63 -193 -63q-142 0 -202 64q-42 44 -42 119v279zM397 667l77 -46q-18 -45 -44 -69q-29 -29 -72 -29q-26 0 -58 15l-30 15q-24 12 -36 12q-28 0 -38 -42l-78 46
q15 44 40 68q30 28 70 28q27 0 60 -14l29 -13q33 -15 43 -15q24 0 37 44z" />
    <glyph glyph-name="Umacron" unicode="&#x16a;" horiz-adv-x="721" 
d="M70 667h173v-395q0 -70 34 -103q34 -32 82 -32t80 29q18 16 27.5 40.5t10.5 39t1 41.5v380h173v-383q0 -44 -3 -72.5t-20.5 -69t-51.5 -74.5q-82 -83 -220 -83q-146 0 -221 80q-65 71 -65 219v383zM172 749v98h376v-98h-376z" />
    <glyph glyph-name="umacron" unicode="&#x16b;" horiz-adv-x="590" 
d="M55 447h160v-250q0 -43 24 -65q19 -17 56 -17t57 19q23 23 23 63v250h160v-279q0 -76 -43 -120q-61 -63 -193 -63q-142 0 -202 64q-42 44 -42 119v279zM98 539v98h396v-98h-396z" />
    <glyph glyph-name="Ubreve" unicode="&#x16c;" horiz-adv-x="721" 
d="M70 667h173v-395q0 -70 34 -103q34 -32 82 -32t80 29q18 16 27.5 40.5t10.5 39t1 41.5v380h173v-383q0 -44 -3 -72.5t-20.5 -69t-51.5 -74.5q-82 -83 -220 -83q-146 0 -221 80q-65 71 -65 219v383zM431 877h103q-1 -66 -44 -109q-45 -45 -130 -45t-130 45q-43 43 -44 109
h103q3 -26 20 -41q20 -18 51 -18t51 18q17 15 20 41z" />
    <glyph glyph-name="ubreve" unicode="&#x16d;" horiz-adv-x="590" 
d="M55 447h160v-250q0 -43 24 -65q19 -17 56 -17t57 19q23 23 23 63v250h160v-279q0 -76 -43 -120q-61 -63 -193 -63q-142 0 -202 64q-42 44 -42 119v279zM366 677h103q-1 -66 -44 -109q-45 -45 -130 -45t-130 45q-43 43 -44 109h103q3 -26 20 -41q20 -18 51 -18t51 18
q17 15 20 41z" />
    <glyph glyph-name="Uring" unicode="&#x16e;" horiz-adv-x="721" 
d="M70 667h173v-395q0 -70 34 -103q34 -32 82 -32t80 29q18 16 27.5 40.5t10.5 39t1 41.5v380h173v-383q0 -44 -3 -72.5t-20.5 -69t-51.5 -74.5q-82 -83 -220 -83q-146 0 -221 80q-65 71 -65 219v383zM497 826q0 -40 -26 -66q-37 -37 -111 -37t-111 37q-26 26 -26 66
q0 41 26 67q37 37 111 37t111 -37q26 -26 26 -67zM360 867q-28 0 -43 -15q-10 -10 -10 -25t10 -25q15 -15 43 -15t43 15q10 10 10 25t-10 25q-15 15 -43 15z" />
    <glyph glyph-name="uring" unicode="&#x16f;" horiz-adv-x="590" 
d="M55 447h160v-250q0 -43 24 -65q19 -17 56 -17t57 19q23 23 23 63v250h160v-279q0 -76 -43 -120q-61 -63 -193 -63q-142 0 -202 64q-42 44 -42 119v279zM433 626q0 -40 -26 -66q-37 -37 -111 -37t-111 37q-26 26 -26 66q0 41 26 67q37 37 111 37t111 -37q26 -26 26 -67z
M296 667q-28 0 -43 -15q-10 -10 -10 -25t10 -25q15 -15 43 -15t43 15q10 10 10 25t-10 25q-15 15 -43 15z" />
    <glyph glyph-name="Uhungarumlaut" unicode="&#x170;" horiz-adv-x="721" 
d="M70 667h173v-395q0 -70 34 -103q34 -32 82 -32t80 29q18 16 27.5 40.5t10.5 39t1 41.5v380h173v-383q0 -44 -3 -72.5t-20.5 -69t-51.5 -74.5q-82 -83 -220 -83q-146 0 -221 80q-65 71 -65 219v383zM329 929l83 -73l-137 -136l-54 55zM502 929l84 -73l-137 -136l-55 55z
" />
    <glyph glyph-name="uhungarumlaut" unicode="&#x171;" horiz-adv-x="590" 
d="M55 447h160v-250q0 -43 24 -65q19 -17 56 -17t57 19q23 23 23 63v250h160v-279q0 -76 -43 -120q-61 -63 -193 -63q-142 0 -202 64q-42 44 -42 119v279zM229 729l83 -73l-137 -136l-54 55zM402 729l84 -73l-137 -136l-55 55z" />
    <glyph glyph-name="Uogonek" unicode="&#x172;" horiz-adv-x="721" 
d="M70 667h173v-395q0 -70 34 -103q32 -32 83 -32q47 0 79 29q18 16 27 40t10.5 39.5t1.5 41.5v380h173v-404q0 -97 -35 -150q-31 -46 -99 -87q-7 -4 -20.5 -11.5t-22 -12.5t-19.5 -12.5t-19 -14.5q-28 -23 -28 -51q0 -13 10 -22q9 -9 26 -9q26 0 49 18l-22 -86
q-32 -18 -66 -18q-47 0 -73 28q-21 21 -21 55q0 33 21 61q11 15 34 35q-157 0 -231 79q-65 71 -65 219v383z" />
    <glyph glyph-name="uogonek" unicode="&#x173;" horiz-adv-x="590" 
d="M55 447h160v-250q0 -43 24 -65q19 -17 56 -17t57 19q23 23 23 63v250h160v-265q0 -43 -8 -72.5t-35 -58.5q-22 -24 -65.5 -44.5t-59.5 -32.5q-25 -19 -25 -42q0 -16 11 -27t29 -11q24 0 49 18l-21 -85q-26 -17 -66 -17q-48 0 -72 27q-20 24 -20 51q0 30 17 57
q15 25 37 40q-9 -1 -27 -1q-121 0 -182 65q-42 45 -42 119v279z" />
    <glyph glyph-name="Ydieresis" unicode="&#x178;" horiz-adv-x="640" 
d="M229 0v320l-241 347h207l126 -182l121 182h210l-249 -347v-320h-174zM433 723q-36 0 -61 27q-25 28 -25 60t26 61q26 26 60 26q35 0 60 -25q27 -27 27 -62q0 -33 -26 -61q-26 -26 -61 -26zM206 723q-36 0 -61 27q-25 28 -25 60t26 61q26 26 60 26q35 0 60 -25
q27 -27 27 -62q0 -33 -26 -61q-26 -26 -61 -26z" />
    <glyph glyph-name="Zacute" unicode="&#x179;" horiz-adv-x="631" 
d="M618 667l-314 -520h280v-147h-571l316 520h-262v147h551zM373 929l101 -73l-154 -136l-74 55z" />
    <glyph glyph-name="zacute" unicode="&#x17a;" horiz-adv-x="517" 
d="M497 447l-209 -316h187v-131h-455l211 316h-180v131h446zM318 729l101 -73l-154 -136l-74 55z" />
    <glyph glyph-name="Zdotaccent" unicode="&#x17b;" horiz-adv-x="631" 
d="M618 667l-314 -520h280v-147h-571l316 520h-262v147h551zM335 723q-36 0 -64 26q-27 27 -27 63q0 40 27 67q26 26 64 26t64 -26q27 -27 27 -65q0 -39 -27 -65t-64 -26z" />
    <glyph glyph-name="zdotaccent" unicode="&#x17c;" horiz-adv-x="517" 
d="M497 447l-209 -316h187v-131h-455l211 316h-180v131h446zM270 523q-36 0 -64 26q-27 27 -27 63q0 40 27 67q26 26 64 26t64 -26q27 -27 27 -65q0 -39 -27 -65t-64 -26z" />
    <glyph glyph-name="Zcaron" unicode="&#x17d;" horiz-adv-x="631" 
d="M618 667l-314 -520h280v-147h-571l316 520h-262v147h551zM334 720l-196 147l68 77l128 -98l127 98l71 -77z" />
    <glyph glyph-name="zcaron" unicode="&#x17e;" horiz-adv-x="517" 
d="M497 447l-209 -316h187v-131h-455l211 316h-180v131h446zM269 520l-196 147l68 77l128 -98l127 98l71 -77z" />
    <glyph glyph-name="uni018F" unicode="&#x18f;" horiz-adv-x="768" 
d="M235 444l-179 35q39 94 125 149q85 54 198 54q158 0 253 -97q96 -98 96 -247q0 -158 -95 -255q-95 -98 -257 -98q-151 0 -237 88q-99 101 -99 281v18h513q-9 57 -49 97q-50 49 -131 49q-44 0 -84 -22q-35 -19 -54 -52zM548 260h-328q7 -51 42 -83q41 -39 115 -39
q70 0 116 36q43 34 55 86z" />
    <glyph glyph-name="florin" unicode="&#x192;" horiz-adv-x="600" 
d="M192 113l43 238h-76l16 96h78l21 111q17 86 58 128q53 54 146 54q58 0 107 -25l-26 -139q-27 22 -62 22q-29 0 -46 -18q-14 -17 -24 -68l-12 -65h97l-18 -96h-97l-46 -257q-28 -155 -87 -216q-65 -66 -190 -66q-47 0 -86 9l26 146q25 -9 57 -9q47 0 71 22q31 27 50 133z
" />
    <glyph glyph-name="uni01CF" unicode="&#x1cf;" horiz-adv-x="313" 
d="M70 667h173v-667h-173v667zM156 720l-196 147l68 77l128 -98l127 98l71 -77z" />
    <glyph glyph-name="uni01D0" unicode="&#x1d0;" horiz-adv-x="267" 
d="M53 447h160v-447h-160v447zM134 520l-196 147l68 77l128 -98l127 98l71 -77z" />
    <glyph glyph-name="uni01DD" unicode="&#x1dd;" horiz-adv-x="566" 
d="M36 231v27h333q-3 43 -33 68q-26 22 -68 22q-29 0 -53 -14q-19 -11 -31 -32l-136 28q27 61 85 95q57 35 140 35q124 0 194 -72q62 -64 62 -164q0 -109 -67 -174t-183 -65q-107 0 -172 61q-71 67 -71 185zM364 169h-181q3 -34 26 -57q25 -25 67 -25q41 0 64 25
q21 21 24 57z" />
    <glyph glyph-name="Gcaron" unicode="&#x1e6;" horiz-adv-x="774" 
d="M390 243v135h344q0 -103 -24.5 -174.5t-82.5 -125.5q-90 -84 -235 -84q-159 0 -256 99q-96 96 -96 241q0 152 100 250q98 98 259 98q106 0 180 -45q78 -48 119 -137l-165 -68q-16 40 -48 67q-40 33 -93 33q-68 0 -114 -46q-58 -58 -58 -153q0 -88 53 -144q48 -51 122 -51
q59 0 96 31q33 27 41 74h-142zM404 720l-196 147l68 77l128 -98l127 98l71 -77z" />
    <glyph glyph-name="gcaron" unicode="&#x1e7;" horiz-adv-x="613" 
d="M398 447h160v-419q0 -60 -11.5 -103t-49.5 -82q-71 -72 -197 -72q-131 0 -209 79q-41 43 -49 93h178q15 -46 75 -46q45 0 71 25q32 30 32 83v45q-56 -59 -134 -59q-104 0 -165 63q-62 64 -62 163q0 106 66 175q65 68 162 68q81 0 133 -59v46zM303 327q-41 0 -71 -30
q-31 -32 -31 -72q0 -42 31 -73q29 -29 72 -29q42 0 72 30t30 72q0 41 -32 73q-29 29 -71 29zM309 520l-196 147l68 77l128 -98l127 98l71 -77z" />
    <glyph glyph-name="AEacute" unicode="&#x1fc;" horiz-adv-x="924" 
d="M515 0l-43 117h-241l-42 -117h-182l257 667h408l53 -147h-219l41 -111h219l55 -147h-220l44 -115h218l54 -147h-402zM279 249h146l-71 197zM515 929l101 -73l-154 -136l-74 55z" />
    <glyph glyph-name="aeacute" unicode="&#x1fd;" horiz-adv-x="858" 
d="M821 198h-335q0 -47 30 -77q25 -25 72 -25q32 0 50 13q14 9 23 29h153q-22 -70 -81 -113q-56 -40 -147 -40q-71 0 -119 26q-41 22 -61 61q-32 -41 -80 -63q-50 -22 -104 -22q-95 0 -147 52q-38 38 -38 92q0 58 39 97q51 51 148 51q62 0 114 -23v11q0 34 -21 55
q-26 26 -86 26q-59 0 -124 -25v119q74 21 133 21q56 0 93 -17q47 -21 73 -62q28 37 68 57q44 22 104 22q114 0 178 -64q65 -65 65 -188v-13zM490 289h184q-6 29 -27 48q-28 25 -67 25q-34 0 -59 -22q-22 -21 -31 -51zM264 190q-38 0 -57 -14q-16 -12 -16 -34q0 -21 19 -34
q20 -15 53 -15q28 0 52 12q27 14 27 37t-24 36q-22 12 -54 12zM482 729l101 -73l-154 -136l-74 55z" />
    <glyph glyph-name="Scommaaccent" unicode="&#x218;" horiz-adv-x="571" 
d="M40 60l74 140q72 -68 153 -68q46 0 67 23q17 17 17 42q0 24 -19 40q-16 14 -86 35l-45 14q-67 21 -96 54q-38 41 -38 118q0 100 61 161q63 63 171 63q103 0 206 -54l-69 -135q-57 45 -114 45q-36 0 -57 -20q-17 -17 -17 -36q0 -18 9 -30q14 -17 58 -30l53 -16
q84 -26 121 -66q43 -46 43 -119q0 -105 -63 -168q-68 -68 -197 -68q-71 0 -131 22q-51 18 -101 53zM170 -248l52 198l150 -16l-102 -194z" />
    <glyph glyph-name="scommaaccent" unicode="&#x219;" horiz-adv-x="444" 
d="M27 37l57 111q30 -22 64 -33q31 -11 62 -11q28 0 41 12q8 8 8 21t-8 20q-8 8 -42 16l-42 10q-53 12 -78 39q-29 31 -29 77q0 65 42 109q52 54 160 54q74 0 143 -29l-54 -102q-48 22 -84 22q-22 0 -37 -9q-14 -8 -14 -22q0 -17 19 -25q8 -3 25 -6.5t28 -6.5l29 -8
q43 -12 66 -35q34 -32 34 -89q0 -68 -45 -111q-56 -56 -165 -56q-95 0 -180 52zM110 -238l52 188l150 -16l-102 -184z" />
    <glyph glyph-name="uni021A" unicode="&#x21a;" horiz-adv-x="471" 
d="M465 520h-144v-520h-173v520h-141v147h458v-147zM120 -248l52 198l150 -16l-102 -194z" />
    <glyph glyph-name="uni021B" unicode="&#x21b;" horiz-adv-x="328" 
d="M323 316h-91v-316h-160v316h-51v131h51v147h160v-147h91v-131zM70 -238l52 188l150 -16l-102 -184z" />
    <glyph glyph-name="uni0228" unicode="&#x228;" horiz-adv-x="489" 
d="M449 667v-147h-206v-111h195v-147h-195v-115h206v-147h-379v667h379zM237 -46l112 -44l-116 -146l-92 40z" />
    <glyph glyph-name="uni0229" unicode="&#x229;" horiz-adv-x="566" 
d="M529 211v-17h-333q0 -47 28 -75q22 -22 66 -22q30 0 52 12q19 11 28 30h153q-15 -54 -54 -92q-64 -62 -182 -62q-117 0 -185 68q-66 66 -66 169q0 108 67 173t183 65q107 0 172 -61q71 -68 71 -188zM201 286h181q-7 29 -26 48q-24 24 -66 24q-41 0 -65 -24
q-20 -22 -24 -48zM278 -46l106 -44l-124 -146l-84 40z" />
    <glyph glyph-name="uni0237" unicode="&#x237;" horiz-adv-x="267" 
d="M53 447h160v-676h-160v676z" />
    <glyph glyph-name="uni0259" unicode="&#x259;" horiz-adv-x="566" 
d="M36 231v27h333q-3 43 -33 68q-26 22 -68 22q-29 0 -53 -14q-19 -11 -31 -32l-136 28q27 61 85 95q57 35 140 35q124 0 194 -72q62 -64 62 -164q0 -109 -67 -174t-183 -65q-107 0 -172 61q-71 67 -71 185zM364 169h-181q3 -34 26 -57q25 -25 67 -25q41 0 64 25
q21 21 24 57z" />
    <glyph glyph-name="afii57929" unicode="&#x2bc;" 
d="M148 490l54 210l150 -26l-104 -202z" />
    <glyph glyph-name="circumflex" unicode="&#x2c6;" 
d="M121 520l-68 77l196 147l198 -147l-71 -77l-127 98z" />
    <glyph glyph-name="caron" unicode="&#x2c7;" 
d="M249 520l-196 147l68 77l128 -98l127 98l71 -77z" />
    <glyph glyph-name="uni02C9" unicode="&#x2c9;" 
d="M52 539v98h396v-98h-396z" />
    <glyph glyph-name="breve" unicode="&#x2d8;" 
d="M321 677h103q-1 -66 -44 -109q-45 -45 -130 -45t-130 45q-43 43 -44 109h103q3 -26 20 -41q20 -18 51 -18t51 18q17 15 20 41z" />
    <glyph glyph-name="dotaccent" unicode="&#x2d9;" 
d="M250 523q-36 0 -64 26q-27 27 -27 63q0 40 27 67q26 26 64 26t64 -26q27 -27 27 -65q0 -39 -27 -65t-64 -26z" />
    <glyph glyph-name="ring" unicode="&#x2da;" 
d="M387 626q0 -40 -26 -66q-37 -37 -111 -37t-111 37q-26 26 -26 66q0 41 26 67q37 37 111 37t111 -37q26 -26 26 -67zM250 667q-28 0 -43 -15q-10 -10 -10 -25t10 -25q15 -15 43 -15t43 15q10 10 10 25t-10 25q-15 15 -43 15z" />
    <glyph glyph-name="ogonek" unicode="&#x2db;" 
d="M361 -89l-22 -86q-32 -18 -66 -18q-47 0 -73 28q-21 23 -21 52q0 32 20 61q23 33 56 52h74q-27 -18 -39 -30q-19 -19 -19 -39q0 -16 11 -27t29 -11q25 0 50 18z" />
    <glyph glyph-name="tilde" unicode="&#x2dc;" 
d="M351 667l77 -46q-18 -45 -44 -69q-29 -29 -72 -29q-26 0 -58 15l-30 15q-24 12 -36 12q-28 0 -38 -42l-78 46q15 44 40 68q30 28 70 28q27 0 60 -14l29 -13q33 -15 43 -15q24 0 37 44z" />
    <glyph glyph-name="hungarumlaut" unicode="&#x2dd;" 
d="M219 729l83 -73l-137 -136l-54 55zM392 729l84 -73l-137 -136l-55 55z" />
    <glyph glyph-name="acutecomb" unicode="&#x301;" horiz-adv-x="2" 
d="M-224 729l101 -73l-154 -136l-74 55z" />
    <glyph glyph-name="uni0313" unicode="&#x313;" 
d="M148 490l54 210l150 -26l-104 -202z" />
    <glyph glyph-name="uni0315" unicode="&#x315;" 
d="M148 490l54 210l150 -26l-104 -202z" />
    <glyph glyph-name="uni0326" unicode="&#x326;" 
d="M150 -238l52 188l150 -16l-102 -184z" />
    <glyph glyph-name="uni037E" unicode="&#x37e;" horiz-adv-x="393" 
d="M-9 -149l125 316h150l-172 -316h-103zM185 254q-42 0 -73 31t-31 73t31 73t73 31t74 -32q29 -29 29 -72t-30 -73q-31 -31 -73 -31z" />
    <glyph glyph-name="anoteleia" unicode="&#x387;" horiz-adv-x="248" 
d="M124 229q-50 0 -85 34q-39 37 -39 90t39 91q36 34 85 34t83 -33q41 -39 41 -92q0 -51 -36 -87q-37 -37 -88 -37z" />
    <glyph glyph-name="uni0394" unicode="&#x394;" horiz-adv-x="667" 
d="M650 0h-634l245 667h141zM332 508l-130 -390h260z" />
    <glyph glyph-name="uni03A9" unicode="&#x3a9;" horiz-adv-x="667" 
d="M369 0v104q61 26 98 92q35 66 35 156q0 116 -65 174q-45 40 -104 40t-104 -40q-65 -58 -65 -174q0 -90 35 -156q37 -66 98 -92v-104h-269v117h135q-36 19 -68 53q-67 72 -67 196q0 138 88 229q86 88 217 88t217 -88q88 -91 88 -229q0 -124 -67 -196q-32 -34 -68 -53h135
v-117h-269z" />
    <glyph glyph-name="uni03BC" unicode="&#x3bc;" horiz-adv-x="584" 
d="M215 -230h-160v677h160v-200q0 -85 30 -112q17 -17 47 -17q29 0 48 19q29 29 29 114v196h160v-447h-160v56q-10 -27 -28 -44q-22 -20 -49 -20q-31 0 -52 20q-15 14 -25 39v-281z" />
    <glyph glyph-name="pi" unicode="&#x3c0;" horiz-adv-x="683" 
d="M274 0h-160v321h-76v126h607v-126h-76v-321h-160v321h-135v-321z" />
    <glyph glyph-name="afii10023" unicode="&#x401;" horiz-adv-x="489" 
d="M449 667v-147h-206v-111h195v-147h-195v-115h206v-147h-379v667h379zM284 797q0 33 23.5 56.5t56.5 23.5t56.5 -23.5t23.5 -56.5t-23.5 -56.5t-56.5 -23.5t-56.5 23.5t-23.5 56.5zM76 797q0 33 23.5 56.5t56.5 23.5t56.5 -23.5t23.5 -56.5t-23.5 -56.5t-56.5 -23.5
t-56.5 23.5t-23.5 56.5z" />
    <glyph glyph-name="afii10051" unicode="&#x402;" horiz-adv-x="734" 
d="M160 0v520h-150v147h537v-147h-213v-132q65 23 127 23q85 0 138 -30q93 -52 93 -178q0 -119 -81 -172q-57 -37 -156 -37q-21 0 -57 6v132q21 -6 44 -6q30 0 48 14q22 17 22 58q0 42 -33 59q-19 10 -55 10q-44 0 -90 -23v-244h-174z" />
    <glyph glyph-name="afii10052" unicode="&#x403;" horiz-adv-x="493" 
d="M460 667v-147h-217v-520h-173v667h390zM313 929l101 -73l-154 -136l-74 55z" />
    <glyph glyph-name="afii10053" unicode="&#x404;" horiz-adv-x="618" 
d="M568 208v-173q-43 -23 -75 -33q-54 -17 -116 -17q-147 0 -237 91q-100 102 -100 258q0 157 93 253q90 94 239 94q97 0 196 -49v-181q-27 30 -67 53q-47 25 -106 25q-74 0 -117 -35q-40 -33 -51 -87h248v-134h-253q12 -60 55 -97q45 -37 118 -37q61 0 106 22q38 18 67 47z
" />
    <glyph glyph-name="afii10054" unicode="&#x405;" horiz-adv-x="571" 
d="M40 60l74 140q72 -68 153 -68q46 0 67 23q17 17 17 42q0 24 -19 40q-16 14 -86 35l-45 14q-67 21 -96 54q-38 41 -38 118q0 100 61 161q63 63 171 63q103 0 206 -54l-69 -135q-57 45 -114 45q-36 0 -57 -20q-17 -17 -17 -36q0 -18 9 -30q14 -17 58 -30l53 -16
q84 -26 121 -66q43 -46 43 -119q0 -105 -63 -168q-68 -68 -197 -68q-71 0 -131 22q-51 18 -101 53z" />
    <glyph glyph-name="afii10055" unicode="&#x406;" horiz-adv-x="313" 
d="M70 667h173v-667h-173v667z" />
    <glyph glyph-name="afii10056" unicode="&#x407;" horiz-adv-x="356" 
d="M91 667h173v-667h-173v667zM267 897q27 0 46 -16q29 -25 29 -65t-29 -65q-19 -16 -46 -16t-46 16q-29 25 -29 65t29 65q19 16 46 16zM89 897q27 0 46 -16q29 -25 29 -65t-29 -65q-19 -16 -46 -16t-46 16q-29 25 -29 65t29 65q19 16 46 16z" />
    <glyph glyph-name="afii10057" unicode="&#x408;" horiz-adv-x="468" 
d="M225 667h173v-459q0 -54 -10.5 -89t-46.5 -71q-63 -63 -163 -63q-59 0 -105 30q-38 25 -66 68l113 116q4 -36 24 -53q15 -12 33 -12q17 0 30 11q18 17 18 67v455z" />
    <glyph glyph-name="afii10058" unicode="&#x409;" horiz-adv-x="1020" 
d="M718 0h-248v521h-163v-243q0 -160 -70 -230q-59 -57 -156 -57q-40 0 -79 9v160q21 -7 40 -7q36 0 58 20q35 32 35 126v368h509v-260h84q136 0 199 -62q53 -53 53 -141q0 -89 -51 -140q-64 -64 -211 -64zM644 134h67q55 0 75 20q18 18 18 50t-19 49q-21 20 -74 20h-67
v-139z" />
    <glyph glyph-name="afii10059" unicode="&#x40a;" horiz-adv-x="1030" 
d="M654 418h84q136 0 199 -62q53 -52 53 -145q0 -95 -51 -147q-63 -64 -211 -64h-248v270h-237v-270h-173v667h173v-249h237v249h174v-249zM654 134h67q55 0 75 20q18 18 18 59q0 34 -19 51q-21 20 -74 20h-67v-150z" />
    <glyph glyph-name="afii10060" unicode="&#x40b;" horiz-adv-x="770" 
d="M160 0v520h-150v147h537v-147h-213v-117q64 13 143 13q144 0 202 -56q23 -22 34.5 -53.5t13 -49.5t1.5 -48v-209h-174v168q0 55 -20 77q-25 27 -99 27q-44 0 -101 -9v-263h-174z" />
    <glyph glyph-name="afii10061" unicode="&#x40c;" horiz-adv-x="694" 
d="M243 667v-275l212 275h214l-265 -316l289 -351h-224l-226 289v-289h-173v667h173zM393 929l101 -73l-154 -136l-74 55z" />
    <glyph glyph-name="afii10062" unicode="&#x40e;" horiz-adv-x="623" 
d="M0 667h194l127 -297l111 297h185l-300 -667h-183l93 187zM413 895l116 -44q-24 -66 -82 -97q-47 -26 -128 -26q-78 0 -126 26q-58 31 -82 97l116 44q10 -31 32 -47t61 -16q38 0 61 16q22 16 32 47z" />
    <glyph glyph-name="afii10145" unicode="&#x40f;" horiz-adv-x="718" 
d="M70 0v667h174v-521h230v521h174v-667h-211v-166h-156v166h-211z" />
    <glyph glyph-name="afii10017" unicode="&#x410;" horiz-adv-x="710" 
d="M518 0l-41 112h-242l-45 -112h-183l256 667h189l251 -667h-185zM283 244h148l-75 216z" />
    <glyph glyph-name="afii10018" unicode="&#x411;" horiz-adv-x="614" 
d="M70 0v667h434v-147h-260v-115h68q149 0 211 -65q51 -54 51 -138q0 -87 -55 -142q-61 -60 -213 -60h-236zM244 135h60q55 0 77 23q17 19 17 47q0 32 -20 50q-21 18 -74 18h-60v-138z" />
    <glyph glyph-name="afii10019" unicode="&#x412;" horiz-adv-x="618" 
d="M348 0h-278v667h258q99 0 146 -52q41 -45 41 -125q0 -44 -19 -82q-20 -37 -54 -52q56 -6 91 -40q45 -43 45 -122q0 -82 -49 -131q-61 -63 -181 -63zM243 534v-130h32q46 0 66 21q16 16 16 44q0 27 -16 45q-20 20 -66 20h-32zM243 275v-140h39q84 0 107 27q14 16 14 43
q0 31 -17 48q-22 22 -107 22h-36z" />
    <glyph glyph-name="afii10020" unicode="&#x413;" horiz-adv-x="493" 
d="M460 667v-147h-217v-520h-173v667h390z" />
    <glyph glyph-name="afii10021" unicode="&#x414;" horiz-adv-x="743" 
d="M139 667h504v-533h80v-284h-156v150h-406v-150h-156v284q44 7 76 40q35 36 46.5 87.5t11.5 131.5v274zM307 533v-157q0 -83 -16 -140q-17 -60 -58 -102h236v399h-162z" />
    <glyph glyph-name="afii10022" unicode="&#x415;" horiz-adv-x="489" 
d="M449 667v-147h-206v-111h195v-147h-195v-115h206v-147h-379v667h379z" />
    <glyph glyph-name="afii10024" unicode="&#x416;" horiz-adv-x="970" 
d="M399 0v293l-180 -293h-218l243 340l-223 327h200l178 -290v290h172v-290l178 290h200l-223 -327l243 -340h-218l-180 293v-293h-172z" />
    <glyph glyph-name="afii10025" unicode="&#x417;" horiz-adv-x="597" 
d="M131 483l-67 127q39 27 92 47q68 25 141 25q117 0 179 -60q50 -47 50 -126q0 -55 -29 -96q-24 -35 -62 -53v-3q44 -14 74 -42q48 -46 48 -112q0 -102 -83 -159q-66 -46 -188 -46q-91 0 -161 29q-60 25 -110 70l88 126q30 -34 70 -56q43 -22 90 -22q46 0 73 17
q31 19 31 55q0 31 -30 50q-24 16 -82 16h-65v134h43q76 0 104 28q17 17 17 42q0 28 -26 47q-24 17 -64 17q-42 0 -78 -18q-26 -13 -55 -37z" />
    <glyph glyph-name="afii10026" unicode="&#x418;" horiz-adv-x="741" 
d="M70 667h174v-420l250 420h177v-667h-174v420l-250 -420h-177v667z" />
    <glyph glyph-name="afii10027" unicode="&#x419;" horiz-adv-x="741" 
d="M70 667h174v-420l250 420h177v-667h-174v420l-250 -420h-177v667zM459 895l116 -44q-24 -66 -82 -97q-47 -26 -128 -26q-78 0 -126 26q-58 31 -82 97l116 44q10 -31 32 -47t61 -16q38 0 61 16q22 16 32 47z" />
    <glyph glyph-name="afii10028" unicode="&#x41a;" horiz-adv-x="694" 
d="M243 667v-275l212 275h214l-265 -316l289 -351h-224l-226 289v-289h-173v667h173z" />
    <glyph glyph-name="afii10029" unicode="&#x41b;" horiz-adv-x="719" 
d="M135 667h514v-667h-174v521h-168v-243q0 -160 -70 -230q-59 -57 -156 -57q-40 0 -79 9v160q21 -7 40 -7q36 0 58 20q35 32 35 126v368z" />
    <glyph glyph-name="afii10030" unicode="&#x41c;" horiz-adv-x="915" 
d="M212 0h-172l113 667h171l135 -356l143 356h173l100 -667h-173l-49 384l-161 -384h-69l-154 384z" />
    <glyph glyph-name="afii10031" unicode="&#x41d;" horiz-adv-x="737" 
d="M243 667v-249h250v249h174v-667h-174v270h-250v-270h-173v667h173z" />
    <glyph glyph-name="afii10032" unicode="&#x41e;" horiz-adv-x="816" 
d="M776 333q0 -148 -105 -249q-104 -99 -263 -99t-263 99q-105 101 -105 249q0 69 26.5 135t78.5 115q104 99 263 99t263 -99q52 -49 78.5 -115t26.5 -135zM408 514q-82 0 -135 -53q-53 -52 -53 -131q0 -73 53 -124q55 -53 135 -53q82 0 134 52q54 54 54 128q0 76 -54 128
q-56 53 -134 53z" />
    <glyph glyph-name="afii10033" unicode="&#x41f;" horiz-adv-x="726" 
d="M656 0h-174v519h-239v-519h-173v667h586v-667z" />
    <glyph glyph-name="afii10034" unicode="&#x420;" horiz-adv-x="599" 
d="M352 221h-109v-221h-173v667h276q107 0 169 -60t62 -162q0 -108 -59 -166t-166 -58zM243 527v-166h58q50 0 73 21q22 19 22 61q0 40 -20 60q-23 24 -74 24h-59z" />
    <glyph glyph-name="afii10035" unicode="&#x421;" horiz-adv-x="589" 
d="M549 223v-205q-91 -33 -150 -33q-156 0 -258 100q-48 48 -74.5 112.5t-26.5 130.5q0 69 27.5 134t73.5 112q102 104 252 104q73 0 156 -34v-207q-59 73 -151 73q-71 0 -120 -44q-58 -54 -58 -137q0 -79 54 -130q49 -46 124 -46q87 0 151 70z" />
    <glyph glyph-name="afii10036" unicode="&#x422;" horiz-adv-x="471" 
d="M465 520h-144v-520h-173v520h-141v147h458v-147z" />
    <glyph glyph-name="afii10037" unicode="&#x423;" horiz-adv-x="623" 
d="M0 667h194l127 -297l111 297h185l-300 -667h-183l93 187z" />
    <glyph glyph-name="afii10038" unicode="&#x424;" horiz-adv-x="870" 
d="M348 0v93q-159 0 -237 76q-71 71 -71 188q0 125 72 194q79 76 236 76v97h174v-97q157 0 236 -76q72 -69 72 -194q0 -117 -71 -188q-78 -76 -237 -76v-93h-174zM509 493v-266h9q66 0 99 32q39 37 39 103q0 65 -39 100q-34 31 -100 31h-8zM361 493h-8q-66 0 -100 -31
q-39 -35 -39 -100q0 -66 39 -103q33 -32 99 -32h9v266z" />
    <glyph glyph-name="afii10039" unicode="&#x425;" horiz-adv-x="711" 
d="M0 0l261 356l-214 311h214l99 -173l103 173h213l-217 -311l252 -356h-210l-142 217l-150 -217h-209z" />
    <glyph glyph-name="afii10040" unicode="&#x426;" horiz-adv-x="747" 
d="M70 0v667h174v-521h230v521h174v-521h84v-296h-156v150h-506z" />
    <glyph glyph-name="afii10041" unicode="&#x427;" horiz-adv-x="660" 
d="M416 0v262q-66 -10 -139 -10q-129 0 -182 50t-53 158v207h174v-181q0 -49 20 -69q21 -21 82 -21q53 0 98 7v264h174v-667h-174z" />
    <glyph glyph-name="afii10042" unicode="&#x428;" horiz-adv-x="998" 
d="M70 0v667h174v-521h168v521h174v-521h168v521h174v-667h-858z" />
    <glyph glyph-name="afii10043" unicode="&#x429;" horiz-adv-x="1037" 
d="M866 0h-796v667h174v-521h168v521h174v-521h168v521h174v-521h94v-296h-156v150z" />
    <glyph glyph-name="afii10044" unicode="&#x42a;" horiz-adv-x="697" 
d="M147 0v521h-137v146h311v-260h84q136 0 199 -62q53 -53 53 -141q0 -89 -51 -140q-64 -64 -211 -64h-248zM321 134h67q55 0 75 20q18 18 18 50t-19 49q-21 20 -74 20h-67v-139z" />
    <glyph glyph-name="afii10045" unicode="&#x42b;" horiz-adv-x="879" 
d="M635 0v667h174v-667h-174zM70 0v667h174v-260h84q136 0 199 -62q53 -52 53 -141t-50 -140q-63 -64 -212 -64h-248zM244 134h67q55 0 75 20q18 18 18 50t-19 49q-21 20 -74 20h-67v-139z" />
    <glyph glyph-name="afii10046" unicode="&#x42c;" horiz-adv-x="620" 
d="M70 0v667h174v-260h84q136 0 199 -62q53 -53 53 -141q0 -89 -51 -140q-64 -64 -211 -64h-248zM244 134h67q55 0 75 20q18 18 18 50t-19 49q-21 20 -74 20h-67v-139z" />
    <glyph glyph-name="afii10047" unicode="&#x42d;" horiz-adv-x="618" 
d="M50 35v173q29 -29 67 -47q45 -22 106 -22q74 0 118 37t56 97h-254v134h248q-11 54 -51 87q-43 35 -117 35q-59 0 -106 -25q-40 -23 -67 -53v181q99 49 196 49q149 0 239 -94q93 -96 93 -251q0 -157 -100 -260q-88 -91 -238 -91q-61 0 -115 17q-32 10 -75 33z" />
    <glyph glyph-name="afii10048" unicode="&#x42e;" horiz-adv-x="1086" 
d="M243 409h86q21 116 109 191q96 82 238 82q161 0 263 -98q50 -47 78.5 -112.5t28.5 -137.5q0 -71 -28.5 -137t-78.5 -114q-102 -98 -263 -98q-144 0 -240 86q-92 83 -107 204h-86v-275h-173v667h173v-258zM682 514q-78 0 -133 -55q-53 -53 -53 -126q0 -76 55 -128
q53 -52 130 -52q74 0 129 53q55 55 55 130q0 73 -55 126q-53 52 -128 52z" />
    <glyph glyph-name="afii10049" unicode="&#x42f;" horiz-adv-x="618" 
d="M14 0l186 251q-58 10 -99 52q-52 53 -52 140q0 99 55 157q63 67 187 67h257v-667h-174v227h-17l-143 -227h-200zM374 361v160h-49q-50 0 -75 -23q-23 -21 -23 -57t21 -57q24 -23 77 -23h49z" />
    <glyph glyph-name="afii10065" unicode="&#x430;" horiz-adv-x="616" 
d="M401 404v43h160v-447h-160v49q-46 -64 -139 -64q-94 0 -161 71q-64 68 -64 164q0 110 69 179q63 63 161 63q82 0 134 -58zM303 326q-40 0 -70 -29q-32 -31 -32 -73q0 -44 31 -73q32 -30 72 -30q41 0 72 31q30 30 30 72q0 43 -31 73q-31 29 -72 29z" />
    <glyph glyph-name="afii10066" unicode="&#x431;" horiz-adv-x="612" 
d="M177 399h7q52 61 151 61q109 0 177 -63q63 -59 63 -162q0 -108 -69 -177q-73 -73 -200 -73q-124 0 -193 71q-76 78 -76 235q0 201 96 301q33 33 74.5 52t107.5 32l29 6q53 10 68 25q13 15 13 33h139q-7 -52 -41 -97q-32 -42 -92 -64q-22 -8 -116 -34q-69 -19 -98 -49
q-35 -38 -40 -97zM306 328q-40 0 -69 -26q-34 -30 -34 -76t34 -77q29 -26 69 -26q41 0 69 26q34 32 34 81q0 42 -34 72q-30 26 -69 26z" />
    <glyph glyph-name="afii10067" unicode="&#x432;" horiz-adv-x="529" 
d="M55 447h274q80 0 114 -32q31 -29 31 -78q0 -39 -19 -67q-16 -23 -49 -37v-2q39 -8 64 -31q32 -29 32 -77q0 -54 -32 -86q-37 -37 -109 -37h-306v447zM215 269h60q29 0 41 10q12 11 12 32q0 19 -11 28q-12 11 -43 11h-59v-81zM215 97h71q25 0 39 13q13 13 13 32
q0 21 -12 33q-11 11 -40 11h-71v-89z" />
    <glyph glyph-name="afii10068" unicode="&#x433;" horiz-adv-x="383" 
d="M55 0v447h314v-131h-154v-316h-160z" />
    <glyph glyph-name="afii10069" unicode="&#x434;" horiz-adv-x="596" 
d="M105 447h411v-335h65v-242h-140v130h-297v-130h-140v242q37 3 61 27q40 39 40 128v180zM360 112v223h-107v-76q0 -50 -13 -85q-15 -40 -42 -62h162z" />
    <glyph glyph-name="afii10070" unicode="&#x435;" horiz-adv-x="566" 
d="M529 211v-17h-333q0 -47 28 -75q22 -22 66 -22q30 0 52 12q19 11 28 30h153q-15 -54 -54 -92q-64 -62 -182 -62q-117 0 -185 68q-66 66 -66 169q0 108 67 173t183 65q107 0 172 -61q71 -68 71 -188zM201 286h181q-7 29 -26 48q-24 24 -66 24q-41 0 -65 -24
q-20 -22 -24 -48z" />
    <glyph glyph-name="afii10072" unicode="&#x436;" horiz-adv-x="818" 
d="M330 0v194l-133 -194h-196l182 233l-155 214h182l120 -187v187h158v-187l120 187h182l-155 -214l182 -233h-196l-133 194v-194h-158z" />
    <glyph glyph-name="afii10073" unicode="&#x437;" horiz-adv-x="464" 
d="M87 309l-53 104q35 19 74 31q59 18 114 18q110 0 160 -50q32 -32 32 -79q0 -41 -22 -67q-18 -21 -45 -33v-2q37 -6 62 -31q27 -27 27 -69q0 -58 -41 -97q-50 -49 -172 -49q-62 0 -116 17q-46 14 -89 41l59 111q27 -21 56 -34q33 -14 70 -14q30 0 48 8q21 10 21 30
q0 17 -18 25q-15 7 -52 7h-55v104h45q31 0 50 7q21 7 21 26q0 18 -19 26q-16 8 -46 8t-61 -12q-28 -10 -50 -26z" />
    <glyph glyph-name="afii10074" unicode="&#x438;" horiz-adv-x="586" 
d="M55 447h160v-230l177 230h139v-447h-160v236l-175 -236h-141v447z" />
    <glyph glyph-name="afii10075" unicode="&#x439;" horiz-adv-x="586" 
d="M55 447h160v-230l177 230h139v-447h-160v236l-175 -236h-141v447zM370 676l107 -38q-16 -60 -68 -92q-44 -28 -116 -28t-116 28q-52 32 -68 92l107 38q8 -27 23 -42q19 -20 54 -20t54 20q15 15 23 42z" />
    <glyph glyph-name="afii10076" unicode="&#x43a;" horiz-adv-x="569" 
d="M55 0v447h160v-183l135 183h201l-185 -210l202 -237h-207l-146 198v-198h-160z" />
    <glyph glyph-name="afii10077" unicode="&#x43b;" horiz-adv-x="576" 
d="M521 447v-447h-160v316h-114v-128q0 -102 -47 -151q-42 -43 -126 -43q-31 0 -64 6v116q42 -5 63 17q20 21 20 72v242h428z" />
    <glyph glyph-name="afii10078" unicode="&#x43c;" horiz-adv-x="680" 
d="M20 0l71 447h139l110 -242l110 242h139l71 -447h-150l-36 233l-105 -233h-58l-105 233l-36 -233h-150z" />
    <glyph glyph-name="afii10079" unicode="&#x43d;" horiz-adv-x="579" 
d="M55 0v447h160v-151h149v151h160v-447h-160v170h-149v-170h-160z" />
    <glyph glyph-name="afii10080" unicode="&#x43e;" horiz-adv-x="611" 
d="M306 326q-41 0 -72 -29t-31 -73q0 -40 31 -71q30 -30 72 -30q41 0 71 30q31 29 31 71t-31 73q-31 29 -71 29zM574 224q0 -97 -69 -165q-75 -74 -200 -74q-124 0 -199 74q-69 68 -69 165t69 164q76 74 199 74q122 0 200 -74q69 -67 69 -164z" />
    <glyph glyph-name="afii10081" unicode="&#x43f;" horiz-adv-x="573" 
d="M55 0v447h463v-447h-160v321h-143v-321h-160z" />
    <glyph glyph-name="afii10082" unicode="&#x440;" horiz-adv-x="616" 
d="M215 43v-272h-160v676h160v-49q51 64 137 64q94 0 159 -65q68 -68 68 -173q0 -107 -72 -177q-63 -62 -153 -62q-83 0 -139 58zM313 326q-42 0 -72 -30q-31 -31 -31 -74q0 -40 31 -71q30 -30 72 -30q43 0 71 30q31 31 31 71q0 43 -31 74q-28 30 -71 30z" />
    <glyph glyph-name="afii10083" unicode="&#x441;" horiz-adv-x="429" 
d="M393 144v-134q-51 -25 -111 -25q-106 0 -176 68q-69 67 -69 167q0 103 72 173q71 68 180 68q54 0 104 -25v-134q-41 29 -83 29q-47 0 -78 -31t-31 -77q0 -44 28 -75q32 -34 82 -34q47 0 82 30z" />
    <glyph glyph-name="afii10084" unicode="&#x442;" horiz-adv-x="412" 
d="M126 0v316h-116v131h392v-131h-116v-316h-160z" />
    <glyph glyph-name="afii10085" unicode="&#x443;" horiz-adv-x="604" 
d="M66 -229l150 290l-216 386h186l119 -229l116 229h183l-359 -676h-179z" />
    <glyph glyph-name="afii10086" unicode="&#x444;" horiz-adv-x="744" 
d="M452 -229h-160v222h-3q-122 0 -190 68q-62 61 -62 162q0 106 66 167q70 64 186 64h3v213h160v-213h3q116 0 186 -64q66 -61 66 -167q0 -101 -62 -162q-68 -68 -190 -68h-3v-222zM441 339v-231h2q47 0 75 26q35 31 35 90q0 55 -34 88q-28 27 -75 27h-3zM303 339h-3
q-47 0 -75 -27q-34 -33 -34 -88q0 -59 35 -90q28 -26 75 -26h2v231z" />
    <glyph glyph-name="afii10087" unicode="&#x445;" horiz-adv-x="652" 
d="M0 0l223 243l-181 204h208l77 -92l79 92h207l-185 -204l224 -243h-212l-114 133l-114 -133h-212z" />
    <glyph glyph-name="afii10088" unicode="&#x446;" horiz-adv-x="596" 
d="M55 0v447h160v-321h137v321h160v-321h74v-256h-140v130h-391z" />
    <glyph glyph-name="afii10089" unicode="&#x447;" horiz-adv-x="538" 
d="M323 0v146q-44 -11 -98 -11q-100 0 -143 44q-40 40 -40 127v141h154v-130q0 -37 17 -51q14 -12 54 -12q33 0 56 7v186h160v-447h-160z" />
    <glyph glyph-name="afii10090" unicode="&#x448;" horiz-adv-x="830" 
d="M55 0v447h160v-321h120v321h160v-321h120v321h160v-447h-720z" />
    <glyph glyph-name="afii10091" unicode="&#x449;" horiz-adv-x="870" 
d="M721 0h-666v447h160v-321h121v321h160v-321h121v321h160v-321h84v-256h-140v130z" />
    <glyph glyph-name="afii10092" unicode="&#x44a;" horiz-adv-x="583" 
d="M285 298h112q80 0 121 -40q40 -39 40 -107t-38 -107q-44 -44 -123 -44h-272v316h-115v131h275v-149zM285 104h60q29 0 43 14q10 10 10 32t-11 32q-14 12 -44 12h-58v-90z" />
    <glyph glyph-name="afii10093" unicode="&#x44b;" horiz-adv-x="742" 
d="M527 0v447h160v-447h-160zM215 298h109q78 0 120 -40q40 -39 40 -107q0 -69 -38 -107q-44 -44 -122 -44h-269v447h160v-149zM215 104h60q29 0 43 14q11 11 11 32q0 22 -12 32q-15 12 -44 12h-58v-90z" />
    <glyph glyph-name="afii10094" unicode="&#x44c;" horiz-adv-x="513" 
d="M215 298h112q79 0 121 -40q40 -39 40 -107q0 -69 -38 -107q-44 -44 -123 -44h-272v447h160v-149zM215 104h60q29 0 42 14q11 11 11 32q0 22 -12 32q-15 12 -43 12h-58v-90z" />
    <glyph glyph-name="afii10095" unicode="&#x44d;" horiz-adv-x="476" 
d="M46 15v134q49 -43 120 -43q49 0 77 17q29 17 38 51h-172v104h172q-13 34 -42 49q-28 15 -70 15q-39 0 -71 -14q-25 -10 -52 -35v132q66 36 150 36q112 0 177 -63q66 -64 66 -172q0 -115 -69 -180q-64 -61 -180 -61q-73 0 -144 30z" />
    <glyph glyph-name="afii10096" unicode="&#x44e;" horiz-adv-x="814" 
d="M509 326q-43 0 -72 -29q-31 -31 -31 -73q0 -41 31 -72q28 -29 72 -29q42 0 71 29q30 30 30 74q0 40 -28 71q-27 29 -73 29zM215 296h47q23 71 85 117q67 49 161 49q123 0 200 -74q69 -69 69 -162q0 -100 -69 -167q-74 -74 -205 -74q-123 0 -189 68q-44 46 -56 117h-43
v-170h-160v447h160v-151z" />
    <glyph glyph-name="afii10097" unicode="&#x44f;" horiz-adv-x="522" 
d="M28 0l124 156q-46 9 -78 39q-35 35 -35 96q0 67 40 109q44 47 152 47h236v-447h-160v142h-13l-98 -142h-168zM307 240v103h-48q-35 0 -50 -14q-14 -14 -14 -38q0 -25 15 -38q16 -13 47 -13h50z" />
    <glyph glyph-name="afii10071" unicode="&#x451;" horiz-adv-x="566" 
d="M529 211v-17h-333q0 -47 28 -75q22 -22 66 -22q30 0 52 12q19 11 28 30h153q-15 -54 -54 -92q-64 -62 -182 -62q-117 0 -185 68q-66 66 -66 169q0 108 67 173t183 65q107 0 172 -61q71 -68 71 -188zM201 286h181q-7 29 -26 48q-24 24 -66 24q-41 0 -65 -24
q-20 -22 -24 -48zM93 614q0 35 24.5 59.5t59.5 24.5t59.5 -24.5t24.5 -59.5t-24.5 -59.5t-59.5 -24.5t-59.5 24.5t-24.5 59.5zM305 614q0 35 24.5 59.5t59.5 24.5t59.5 -24.5t24.5 -59.5t-24.5 -59.5t-59.5 -24.5t-59.5 24.5t-24.5 59.5z" />
    <glyph glyph-name="afii10099" unicode="&#x452;" horiz-adv-x="585" 
d="M55 0v486h-82v108h82v135h160v-135h164v-108h-164v-135q22 28 50 44q38 22 92 22q84 0 132 -48q27 -27 34.5 -55.5t7.5 -69.5v-304q0 -87 -41 -128q-42 -42 -125 -42q-35 0 -88 11v124q52 -12 77 13q5 5 8.5 11.5t5 11t2.5 14t1 12v13.5v11v195q0 65 -20 87
q-17 19 -51 19q-37 0 -58 -19q-27 -25 -27 -73v-200h-160z" />
    <glyph glyph-name="afii10100" unicode="&#x453;" horiz-adv-x="383" 
d="M55 0v447h314v-131h-154v-316h-160zM268 729l101 -73l-154 -136l-74 55z" />
    <glyph glyph-name="afii10101" unicode="&#x454;" horiz-adv-x="476" 
d="M430 149v-134q-71 -30 -144 -30q-116 0 -180 60q-69 64 -69 179q0 106 66 172q67 65 177 65q83 0 150 -36v-132q-23 23 -52 35q-32 14 -71 14q-40 0 -70 -15q-29 -15 -42 -49h172v-104h-172q9 -34 38 -51q28 -17 77 -17q71 0 120 43z" />
    <glyph glyph-name="afii10102" unicode="&#x455;" horiz-adv-x="444" 
d="M27 37l57 111q30 -22 64 -33q31 -11 62 -11q28 0 41 12q8 8 8 21t-8 20q-8 8 -42 16l-42 10q-53 12 -78 39q-29 31 -29 77q0 65 42 109q52 54 160 54q74 0 143 -29l-54 -102q-48 22 -84 22q-22 0 -37 -9q-14 -8 -14 -22q0 -17 19 -25q8 -3 25 -6.5t28 -6.5l29 -8
q43 -12 66 -35q34 -32 34 -89q0 -68 -45 -111q-56 -56 -165 -56q-95 0 -180 52z" />
    <glyph glyph-name="afii10103" unicode="&#x456;" horiz-adv-x="269" 
d="M55 447h160v-447h-160v447zM45 633q0 37 26.5 63.5t63.5 26.5t63.5 -26.5t26.5 -63.5t-26.5 -63.5t-63.5 -26.5t-63.5 26.5t-26.5 63.5z" />
    <glyph glyph-name="afii10104" unicode="&#x457;" horiz-adv-x="350" 
d="M96 447h158v-447h-158v447zM264 722q27 0 46 -16q29 -25 29 -65t-29 -65q-19 -16 -46 -16t-46 16q-29 25 -29 65t29 65q19 16 46 16zM86 722q27 0 46 -16q29 -25 29 -65t-29 -65q-19 -16 -46 -16t-46 16q-29 25 -29 65t29 65q19 16 46 16z" />
    <glyph glyph-name="afii10105" unicode="&#x458;" horiz-adv-x="269" 
d="M55 447h160v-676h-160v676zM45 633q0 37 26.5 63.5t63.5 26.5t63.5 -26.5t26.5 -63.5t-26.5 -63.5t-63.5 -26.5t-63.5 26.5t-26.5 63.5z" />
    <glyph glyph-name="afii10106" unicode="&#x459;" horiz-adv-x="815" 
d="M516 298h113q78 0 120 -40q41 -39 41 -107t-39 -107q-44 -44 -122 -44h-268v316h-114v-128q0 -102 -47 -151q-41 -43 -122 -43q-36 0 -68 6v116q40 -6 62 17q21 22 21 72v242h423v-149zM516 104h61q28 0 42 14q11 11 11 32q0 22 -12 32q-15 12 -43 12h-59v-90z" />
    <glyph glyph-name="afii10107" unicode="&#x45a;" horiz-adv-x="818" 
d="M520 298h112q79 0 121 -40q40 -39 40 -107q0 -69 -38 -107q-44 -44 -123 -44h-272v194h-145v-194h-160v447h160v-149h145v149h160v-149zM520 104h60q29 0 42 14q11 11 11 32q0 22 -12 32q-15 12 -43 12h-58v-90z" />
    <glyph glyph-name="afii10108" unicode="&#x45b;" horiz-adv-x="585" 
d="M55 0v486h-82v108h82v135h160v-135h164v-108h-164v-135q22 28 50 44q38 22 92 22q84 0 132 -48q27 -27 34.5 -55.5t7.5 -69.5v-244h-160v186q0 65 -20 87q-17 19 -51 19q-37 0 -58 -19q-27 -25 -27 -73v-200h-160z" />
    <glyph glyph-name="afii10109" unicode="&#x45c;" horiz-adv-x="569" 
d="M55 0v447h160v-183l135 183h201l-185 -210l202 -237h-207l-146 198v-198h-160zM338 729l101 -73l-154 -136l-74 55z" />
    <glyph glyph-name="afii10110" unicode="&#x45e;" horiz-adv-x="604" 
d="M66 -229l150 290l-216 386h186l119 -229l116 229h183l-359 -676h-179zM387 676l107 -38q-16 -60 -68 -92q-44 -28 -116 -28t-116 28q-52 32 -68 92l107 38q8 -27 23 -42q19 -20 54 -20t54 20q15 15 23 42z" />
    <glyph glyph-name="afii10193" unicode="&#x45f;" horiz-adv-x="566" 
d="M55 0v447h160v-321h136v321h160v-447h-158v-140h-140v140h-158z" />
    <glyph glyph-name="afii10146" unicode="&#x462;" horiz-adv-x="693" 
d="M143 0v495h-133v115h133v114h174v-114h191v-115h-191v-88h84q136 0 199 -62q53 -53 53 -141q0 -89 -51 -140q-64 -64 -211 -64h-248zM317 134h67q55 0 75 20q18 18 18 50t-19 49q-21 20 -74 20h-67v-139z" />
    <glyph glyph-name="afii10194" unicode="&#x463;" horiz-adv-x="583" 
d="M281 359v-57h114q80 0 122 -41q41 -39 41 -108t-39 -108q-45 -45 -124 -45h-274v359h-111v94h111v214h160v-214h168v-94h-168zM281 105h61q28 0 43 15q11 11 11 32q0 20 -12 32q-14 13 -44 13h-59v-92z" />
    <glyph glyph-name="afii10147" unicode="&#x472;" horiz-adv-x="816" 
d="M238 405h338q-18 49 -55 79q-46 38 -114 38q-63 0 -110 -36q-44 -32 -59 -81zM584 279h-354q15 -53 53 -88q52 -46 124 -46q66 0 118 42q45 36 59 92zM776 333q0 -148 -105 -249q-104 -99 -263 -99t-263 99q-105 101 -105 249q0 69 26.5 135t78.5 115q104 99 263 99
t263 -99q52 -49 78.5 -115t26.5 -135z" />
    <glyph glyph-name="afii10195" unicode="&#x473;" horiz-adv-x="619" 
d="M213 266h192q-9 28 -30 47q-25 22 -66 22q-45 0 -69 -24q-20 -18 -27 -45zM408 196h-197q8 -33 34 -54q27 -22 65 -22q39 0 66 24q25 25 32 52zM582 227q0 -98 -70 -167q-77 -75 -203 -75q-124 0 -202 75q-70 69 -70 167t70 166q78 75 202 75q126 0 203 -75
q70 -68 70 -166z" />
    <glyph glyph-name="afii10148" unicode="&#x474;" horiz-adv-x="699" 
d="M0 667h189l160 -406l162 406h188l-284 -667h-135z" />
    <glyph glyph-name="afii10196" unicode="&#x475;" horiz-adv-x="573" 
d="M0 447h179l107 -229l109 229h178l-233 -447h-109z" />
    <glyph glyph-name="afii10050" unicode="&#x490;" horiz-adv-x="490" 
d="M70 0v667h253v133h147v-280h-227v-520h-173z" />
    <glyph glyph-name="afii10098" unicode="&#x491;" horiz-adv-x="434" 
d="M55 447h211v140h143v-271h-194v-316h-160v447z" />
    <glyph glyph-name="uni0492" unicode="&#x492;" horiz-adv-x="540" 
d="M500 667v-147h-217v-132h164v-132h-164v-256h-173v256h-100v132h100v279h390z" />
    <glyph glyph-name="uni0493" unicode="&#x493;" horiz-adv-x="435" 
d="M88 0v149h-78v99h78v199h323v-131h-163v-68h101v-99h-101v-149h-160z" />
    <glyph glyph-name="uni0494" unicode="&#x494;" horiz-adv-x="634" 
d="M476 667v-147h-233v-132q65 23 127 23q85 0 138 -30q93 -52 93 -178q0 -119 -81 -172q-57 -37 -156 -37q-21 0 -57 6v132q21 -6 44 -6q30 0 48 14q22 17 22 58q0 42 -33 59q-19 10 -55 10q-44 0 -90 -23v-244h-173v667h406z" />
    <glyph glyph-name="uni0495" unicode="&#x495;" horiz-adv-x="502" 
d="M55 0v447h323v-131h-163v-80h16q134 0 193 -57q54 -52 54 -148q0 -109 -57 -169q-61 -67 -187 -70v116q38 2 61 25q27 27 27 87q0 59 -26 82q-22 19 -71 19h-10v-121h-160z" />
    <glyph glyph-name="uni0496" unicode="&#x496;" horiz-adv-x="974" 
d="M399 0v293l-180 -293h-218l243 340l-223 327h200l178 -290v290h172v-290l178 290h200l-223 -327l149 -194h89v-296h-156v150h-53l-184 293v-293h-172z" />
    <glyph glyph-name="uni0497" unicode="&#x497;" horiz-adv-x="811" 
d="M310 0v194l-127 -194h-194l174 233l-149 214h182l114 -187v187h158v-187l120 187h182l-155 -214l89 -107h93v-256h-140v130h-52l-137 194v-194h-158z" />
    <glyph glyph-name="uni0498" unicode="&#x498;" horiz-adv-x="597" 
d="M131 484l-67 127q39 27 92 47q68 25 141 25q117 0 179 -60q50 -47 50 -126q0 -55 -29 -97q-22 -32 -62 -56q44 -14 74 -42q48 -43 48 -114q0 -84 -57 -139q-54 -52 -137 -63v-152h-156v157q-100 10 -192 91l88 126q32 -35 70 -56q41 -22 90 -22q46 0 73 17q31 20 31 55
q0 33 -30 52q-24 16 -82 16h-65v134h43q76 0 104 28q17 17 17 43q0 28 -26 47q-24 17 -64 17q-42 0 -78 -18q-26 -13 -55 -37z" />
    <glyph glyph-name="uni0499" unicode="&#x499;" horiz-adv-x="464" 
d="M87 310l-53 104q35 19 74 31q59 18 114 18q110 0 160 -50q32 -32 32 -79q0 -42 -22 -68q-16 -19 -45 -35q39 -7 62 -31q27 -27 27 -71q0 -58 -41 -97q-40 -39 -104 -43v-129h-140v129q-73 11 -133 52l59 111q27 -21 56 -34q33 -14 70 -14q34 0 49 9q20 11 20 29t-18 27
q-17 7 -52 7h-55v104h45q31 0 50 7q21 7 21 27q0 18 -19 26q-16 8 -46 8t-61 -12q-28 -10 -50 -26z" />
    <glyph glyph-name="uni049A" unicode="&#x49a;" horiz-adv-x="690" 
d="M243 667v-275l212 275h214l-265 -316l177 -205h94v-296h-156v150h-44l-232 289v-289h-173v667h173z" />
    <glyph glyph-name="uni049B" unicode="&#x49b;" horiz-adv-x="578" 
d="M55 0v447h160v-183l135 183h201l-181 -207l102 -114h92v-256h-140v130h-55l-154 198v-198h-160z" />
    <glyph glyph-name="uni049C" unicode="&#x49c;" horiz-adv-x="806" 
d="M70 667h173v-265h50v141h111v-141l187 265h202l-240 -316l252 -351h-210l-191 299v-140h-111v140h-50v-299h-173v667z" />
    <glyph glyph-name="uni049D" unicode="&#x49d;" horiz-adv-x="651" 
d="M55 0v447h160v-173h36v97h97v-107l112 183h178l-154 -215l157 -232h-178l-115 198v-121h-97v107h-36v-184h-160z" />
    <glyph glyph-name="uni04A0" unicode="&#x4a0;" horiz-adv-x="795" 
d="M344 667v-275l212 275h214l-265 -316l289 -351h-224l-226 289v-289h-173v520h-161v147h334z" />
    <glyph glyph-name="uni04A1" unicode="&#x4a1;" horiz-adv-x="640" 
d="M126 0v321h-121v126h281v-183l136 183h200l-185 -210l202 -237h-206l-147 198v-198h-160z" />
    <glyph glyph-name="uni04A2" unicode="&#x4a2;" horiz-adv-x="766" 
d="M243 667v-249h250v249h174v-521h84v-296h-156v150h-102v270h-250v-270h-173v667h173z" />
    <glyph glyph-name="uni04A3" unicode="&#x4a3;" horiz-adv-x="608" 
d="M55 0v447h160v-151h149v151h160v-321h74v-256h-140v130h-94v170h-149v-170h-160z" />
    <glyph glyph-name="uni04A4" unicode="&#x4a4;" horiz-adv-x="873" 
d="M243 667v-249h250v249h356v-147h-183v-520h-173v270h-250v-270h-173v667h173z" />
    <glyph glyph-name="uni04A5" unicode="&#x4a5;" horiz-adv-x="677" 
d="M55 0v447h160v-151h149v151h299v-131h-139v-316h-160v170h-149v-170h-160z" />
    <glyph glyph-name="uni04AA" unicode="&#x4aa;" horiz-adv-x="590" 
d="M550 220v-205q-30 -15 -69 -21v-160h-156v155q-115 10 -192 87q-93 91 -93 246q0 151 102 255t252 104q73 0 156 -34v-207q-59 73 -150 73q-71 0 -120 -44q-59 -53 -59 -140q0 -37 15 -73.5t40 -59.5q50 -46 124 -46q86 0 150 70z" />
    <glyph glyph-name="uni04AB" unicode="&#x4ab;" horiz-adv-x="429" 
d="M393 144v-134q-26 -14 -57 -18v-132h-140v139q-58 10 -99 51q-60 60 -60 162q0 111 72 181q71 68 180 68q54 0 104 -25v-134q-41 29 -83 29q-47 0 -78 -31t-31 -77q0 -44 28 -75q32 -34 82 -34q47 0 82 30z" />
    <glyph glyph-name="uni04AE" unicode="&#x4ae;" horiz-adv-x="640" 
d="M229 0v320l-241 347h207l126 -182l121 182h210l-249 -347v-320h-174z" />
    <glyph glyph-name="uni04AF" unicode="&#x4af;" horiz-adv-x="517" 
d="M0 447h164l99 -244l91 244h163l-178 -404v-272h-160v270z" />
    <glyph glyph-name="uni04B0" unicode="&#x4b0;" horiz-adv-x="640" 
d="M229 0v165h-180v128h180v27l-241 347h207l126 -182l121 182h210l-249 -347v-27h180v-128h-180v-165h-174z" />
    <glyph glyph-name="uni04B1" unicode="&#x4b1;" horiz-adv-x="517" 
d="M0 447h164l99 -244l91 244h163l-178 -396v-30h135v-99h-135v-151h-160v151h-135v99h135v30z" />
    <glyph glyph-name="uni04B2" unicode="&#x4b2;" horiz-adv-x="715" 
d="M0 0l261 356l-214 311h214l99 -173l103 173h213l-217 -311l149 -210h97v-296h-156v150h-48l-142 217l-150 -217h-209z" />
    <glyph glyph-name="uni04B3" unicode="&#x4b3;" horiz-adv-x="651" 
d="M0 0l223 243l-181 204h208l77 -92l79 92h207l-185 -204l109 -117h100v-256h-140v130h-57l-114 133l-115 -133h-211z" />
    <glyph glyph-name="uni04B6" unicode="&#x4b6;" horiz-adv-x="689" 
d="M518 0h-102v262q-66 -10 -139 -10q-129 0 -182 50t-53 158v207h174v-181q0 -49 20 -69q21 -21 82 -21q53 0 98 7v264h174v-521h84v-296h-156v150z" />
    <glyph glyph-name="uni04B7" unicode="&#x4b7;" horiz-adv-x="568" 
d="M418 0h-94v146q-47 -11 -96 -11q-101 0 -145 44q-41 41 -41 127v141h154v-130q0 -37 17 -51q14 -12 52 -12q35 0 59 7v186h160v-321h74v-256h-140v130z" />
    <glyph glyph-name="uni04B8" unicode="&#x4b8;" horiz-adv-x="710" 
d="M466 0v266q-30 -8 -62 -8v-132h-112v128q-140 -5 -205 67q-20 22 -30.5 50.5t-12.5 49t-2 51.5v194h174v-165q0 -59 22 -81q19 -20 54 -22v145h112v-145q33 -2 62 6v263h174v-667h-174z" />
    <glyph glyph-name="uni04B9" unicode="&#x4b9;" horiz-adv-x="592" 
d="M377 0v159q-24 -6 -41 -8v-84h-92v73h-5q-111 0 -156 44q-41 40 -41 110v153h150v-136q0 -34 15 -49q11 -11 34 -11h3v120h92v-120q22 0 41 8v188h160v-447h-160z" />
    <glyph glyph-name="uni04BA" unicode="&#x4ba;" horiz-adv-x="680" 
d="M244 667v-264q64 13 143 13q144 0 202 -56q23 -22 34.5 -53.5t13 -49.5t1.5 -48v-209h-174v168q0 55 -20 77q-25 27 -99 27q-44 0 -101 -9v-263h-174v667h174z" />
    <glyph glyph-name="uni04BB" unicode="&#x4bb;" horiz-adv-x="585" 
d="M55 0v729h160v-338q22 28 50 44q38 22 92 22q84 0 132 -48q27 -27 34.5 -55.5t7.5 -69.5v-284h-160v226q0 65 -20 87q-17 19 -51 19q-37 0 -58 -19q-27 -25 -27 -73v-240h-160z" />
    <glyph glyph-name="uni04C0" unicode="&#x4c0;" horiz-adv-x="313" 
d="M70 667h173v-667h-173v667z" />
    <glyph glyph-name="uni04C1" unicode="&#x4c1;" horiz-adv-x="970" 
d="M399 0v293l-180 -293h-218l243 340l-223 327h200l178 -290v290h172v-290l178 290h200l-223 -327l243 -340h-218l-180 293v-293h-172zM551 895l116 -44q-24 -66 -82 -97q-47 -26 -128 -26q-78 0 -126 26q-58 31 -82 97l116 44q10 -31 32 -47t61 -16q38 0 61 16
q22 16 32 47z" />
    <glyph glyph-name="uni04C2" unicode="&#x4c2;" horiz-adv-x="818" 
d="M330 0v194l-133 -194h-196l182 233l-155 214h182l120 -187v187h158v-187l120 187h182l-155 -214l182 -233h-196l-133 194v-194h-158zM499 676l107 -38q-16 -60 -68 -92q-44 -28 -116 -28t-116 28q-52 32 -68 92l107 38q8 -27 23 -42q19 -20 54 -20t54 20q15 15 23 42z
" />
    <glyph glyph-name="uni04C3" unicode="&#x4c3;" horiz-adv-x="644" 
d="M243 667v-275l194 275h202l-207 -264q42 -3 85 -20.5t70 -44.5q48 -49 48 -125q0 -102 -58 -158q-74 -72 -235 -54v133q16 -6 36 -6q34 0 54 20q19 19 19 53q0 37 -28 56q-25 17 -75 17q-53 0 -105 -22v-252h-173v667h173z" />
    <glyph glyph-name="uni04C4" unicode="&#x4c4;" horiz-adv-x="514" 
d="M55 0v447h160v-190l119 190h175l-161 -222q53 -9 89 -45q53 -53 53 -148q0 -109 -57 -170q-61 -67 -187 -70v116q38 2 61 25q27 27 27 89q0 53 -28 80q-25 24 -80 24h-11v-126h-160z" />
    <glyph glyph-name="uni04C7" unicode="&#x4c7;" horiz-adv-x="737" 
d="M243 667v-248h250v248h174v-735q0 -87 -43 -126q-19 -17 -46.5 -25.5t-45.5 -9.5t-49 -1q-50 0 -83 10v114q14 -6 34 -6q32 0 46 14q13 13 13 47v320h-250v-269h-173v667h173z" />
    <glyph glyph-name="uni04C8" unicode="&#x4c8;" horiz-adv-x="579" 
d="M55 0v447h160v-151h149v151h160v-518q0 -85 -43 -124q-38 -35 -121 -35q-48 0 -88 8v113q14 -6 30 -6q35 0 49 15q13 14 13 55v215h-149v-170h-160z" />
    <glyph glyph-name="uni04D0" unicode="&#x4d0;" horiz-adv-x="710" 
d="M518 0l-41 112h-242l-45 -112h-183l256 667h189l251 -667h-185zM283 244h148l-75 216zM447 895l116 -44q-24 -66 -82 -97q-47 -26 -128 -26q-78 0 -126 26q-58 31 -82 97l116 44q10 -31 32 -47t61 -16q38 0 61 16q22 16 32 47z" />
    <glyph glyph-name="uni04D1" unicode="&#x4d1;" horiz-adv-x="616" 
d="M401 404v43h160v-447h-160v49q-46 -64 -139 -64q-94 0 -161 71q-64 68 -64 164q0 110 69 179q63 63 161 63q82 0 134 -58zM303 326q-40 0 -70 -29q-32 -31 -32 -73q0 -44 31 -73q32 -30 72 -30q41 0 72 31q30 30 30 72q0 43 -31 73q-31 29 -72 29zM387 676l107 -38
q-16 -60 -68 -92q-44 -28 -116 -28t-116 28q-52 32 -68 92l107 38q8 -27 23 -42q19 -20 54 -20t54 20q15 15 23 42z" />
    <glyph glyph-name="uni04D2" unicode="&#x4d2;" horiz-adv-x="710" 
d="M518 0l-41 112h-242l-45 -112h-183l256 667h189l251 -667h-185zM283 244h148l-75 216zM468 723q-36 0 -61 27q-25 28 -25 60t26 61q26 26 60 26q35 0 60 -25q27 -27 27 -62q0 -33 -26 -61q-26 -26 -61 -26zM241 723q-36 0 -61 27q-25 28 -25 60t26 61q26 26 60 26
q35 0 60 -25q27 -27 27 -62q0 -33 -26 -61q-26 -26 -61 -26z" />
    <glyph glyph-name="uni04D3" unicode="&#x4d3;" horiz-adv-x="616" 
d="M401 404v43h160v-447h-160v49q-46 -64 -139 -64q-94 0 -161 71q-64 68 -64 164q0 110 69 179q63 63 161 63q82 0 134 -58zM303 326q-40 0 -70 -29q-32 -31 -32 -73q0 -44 31 -73q32 -30 72 -30q41 0 72 31q30 30 30 72q0 43 -31 73q-31 29 -72 29zM423 523q-36 0 -61 27
q-25 28 -25 60t26 61q26 26 60 26q35 0 60 -25q27 -27 27 -62q0 -33 -26 -61q-26 -26 -61 -26zM196 523q-36 0 -61 27q-25 28 -25 60t26 61q26 26 60 26q35 0 60 -25q27 -27 27 -62q0 -33 -26 -61q-26 -26 -61 -26z" />
    <glyph glyph-name="uni04D4" unicode="&#x4d4;" horiz-adv-x="924" 
d="M515 0l-43 117h-241l-42 -117h-182l257 667h408l53 -147h-219l41 -111h219l55 -147h-220l44 -115h218l54 -147h-402zM279 249h146l-71 197z" />
    <glyph glyph-name="uni04D5" unicode="&#x4d5;" horiz-adv-x="858" 
d="M821 198h-335q0 -47 30 -77q25 -25 72 -25q32 0 50 13q14 9 23 29h153q-22 -70 -81 -113q-56 -40 -147 -40q-71 0 -119 26q-41 22 -61 61q-32 -41 -80 -63q-50 -22 -104 -22q-95 0 -147 52q-38 38 -38 92q0 58 39 97q51 51 148 51q62 0 114 -23v11q0 34 -21 55
q-26 26 -86 26q-59 0 -124 -25v119q74 21 133 21q56 0 93 -17q47 -21 73 -62q28 37 68 57q44 22 104 22q114 0 178 -64q65 -65 65 -188v-13zM490 289h184q-6 29 -27 48q-28 25 -67 25q-34 0 -59 -22q-22 -21 -31 -51zM264 190q-38 0 -57 -14q-16 -12 -16 -34q0 -21 19 -34
q20 -15 53 -15q28 0 52 12q27 14 27 37t-24 36q-22 12 -54 12z" />
    <glyph glyph-name="uni04D6" unicode="&#x4d6;" horiz-adv-x="489" 
d="M449 667v-147h-206v-111h195v-147h-195v-115h206v-147h-379v667h379zM338 895l116 -44q-24 -66 -82 -97q-47 -26 -128 -26q-78 0 -126 26q-58 31 -82 97l116 44q10 -31 32 -47t61 -16q38 0 61 16q22 16 32 47z" />
    <glyph glyph-name="uni04D7" unicode="&#x4d7;" horiz-adv-x="566" 
d="M529 211v-17h-333q0 -47 28 -75q22 -22 66 -22q30 0 52 12q19 11 28 30h153q-15 -54 -54 -92q-64 -62 -182 -62q-117 0 -185 68q-66 66 -66 169q0 108 67 173t183 65q107 0 172 -61q71 -68 71 -188zM201 286h181q-7 29 -26 48q-24 24 -66 24q-41 0 -65 -24
q-20 -22 -24 -48zM377 676l107 -38q-16 -60 -68 -92q-44 -28 -116 -28t-116 28q-52 32 -68 92l107 38q8 -27 23 -42q19 -20 54 -20t54 20q15 15 23 42z" />
    <glyph glyph-name="uni04D8" unicode="&#x4d8;" horiz-adv-x="768" 
d="M235 444l-179 35q39 94 125 149q85 54 198 54q158 0 253 -97q96 -98 96 -247q0 -158 -95 -255q-95 -98 -257 -98q-151 0 -237 88q-99 101 -99 281v18h513q-9 57 -49 97q-50 49 -131 49q-44 0 -84 -22q-35 -19 -54 -52zM548 260h-328q7 -51 42 -83q41 -39 115 -39
q70 0 116 36q43 34 55 86z" />
    <glyph glyph-name="afii10846" unicode="&#x4d9;" horiz-adv-x="566" 
d="M36 231v27h333q-3 43 -33 68q-26 22 -68 22q-29 0 -53 -14q-19 -11 -31 -32l-136 28q27 61 85 95q57 35 140 35q124 0 194 -72q62 -64 62 -164q0 -109 -67 -174t-183 -65q-107 0 -172 61q-71 67 -71 185zM364 169h-181q3 -34 26 -57q25 -25 67 -25q41 0 64 25
q21 21 24 57z" />
    <glyph glyph-name="uni04DA" unicode="&#x4da;" horiz-adv-x="768" 
d="M235 444l-179 35q39 94 125 149q85 54 198 54q158 0 253 -97q96 -98 96 -247q0 -158 -95 -255q-95 -98 -257 -98q-151 0 -237 88q-99 101 -99 281v18h513q-9 57 -49 97q-50 49 -131 49q-44 0 -84 -22q-35 -19 -54 -52zM548 260h-328q7 -51 42 -83q41 -39 115 -39
q70 0 116 36q43 34 55 86zM493 723q-36 0 -61 27q-25 28 -25 60t26 61q26 26 60 26q35 0 60 -25q27 -27 27 -62q0 -33 -26 -61q-26 -26 -61 -26zM266 723q-36 0 -61 27q-25 28 -25 60t26 61q26 26 60 26q35 0 60 -25q27 -27 27 -62q0 -33 -26 -61q-26 -26 -61 -26z" />
    <glyph glyph-name="uni04DB" unicode="&#x4db;" horiz-adv-x="566" 
d="M36 231v27h333q-3 43 -33 68q-26 22 -68 22q-29 0 -53 -14q-19 -11 -31 -32l-136 28q27 61 85 95q57 35 140 35q124 0 194 -72q62 -64 62 -164q0 -109 -67 -174t-183 -65q-107 0 -172 61q-71 67 -71 185zM364 169h-181q3 -34 26 -57q25 -25 67 -25q41 0 64 25
q21 21 24 57zM400 523q-36 0 -61 27q-25 28 -25 60t26 61q26 26 60 26q35 0 60 -25q27 -27 27 -62q0 -33 -26 -61q-26 -26 -61 -26zM173 523q-36 0 -61 27q-25 28 -25 60t26 61q26 26 60 26q35 0 60 -25q27 -27 27 -62q0 -33 -26 -61q-26 -26 -61 -26z" />
    <glyph glyph-name="uni04DC" unicode="&#x4dc;" horiz-adv-x="970" 
d="M399 0v293l-180 -293h-218l243 340l-223 327h200l178 -290v290h172v-290l178 290h200l-223 -327l243 -340h-218l-180 293v-293h-172zM598 723q-36 0 -61 27q-25 28 -25 60t26 61q26 26 60 26q35 0 60 -25q27 -27 27 -62q0 -33 -26 -61q-26 -26 -61 -26zM371 723
q-36 0 -61 27q-25 28 -25 60t26 61q26 26 60 26q35 0 60 -25q27 -27 27 -62q0 -33 -26 -61q-26 -26 -61 -26z" />
    <glyph glyph-name="uni04DD" unicode="&#x4dd;" horiz-adv-x="818" 
d="M330 0v194l-133 -194h-196l182 233l-155 214h182l120 -187v187h158v-187l120 187h182l-155 -214l182 -233h-196l-133 194v-194h-158zM524 523q-36 0 -61 27q-25 28 -25 60t26 61q26 26 60 26q35 0 60 -25q27 -27 27 -62q0 -33 -26 -61q-26 -26 -61 -26zM297 523
q-36 0 -61 27q-25 28 -25 60t26 61q26 26 60 26q35 0 60 -25q27 -27 27 -62q0 -33 -26 -61q-26 -26 -61 -26z" />
    <glyph glyph-name="uni04DE" unicode="&#x4de;" horiz-adv-x="597" 
d="M131 483l-67 127q39 27 92 47q68 25 141 25q117 0 179 -60q50 -47 50 -126q0 -55 -29 -96q-24 -35 -62 -53v-3q44 -14 74 -42q48 -46 48 -112q0 -102 -83 -159q-66 -46 -188 -46q-91 0 -161 29q-60 25 -110 70l88 126q30 -34 70 -56q43 -22 90 -22q46 0 73 17
q31 19 31 55q0 31 -30 50q-24 16 -82 16h-65v134h43q76 0 104 28q17 17 17 42q0 28 -26 47q-24 17 -64 17q-42 0 -78 -18q-26 -13 -55 -37zM411 723q-36 0 -61 27q-25 28 -25 60t26 61q26 26 60 26q35 0 60 -25q27 -27 27 -62q0 -33 -26 -61q-26 -26 -61 -26zM184 723
q-36 0 -61 27q-25 28 -25 60t26 61q26 26 60 26q35 0 60 -25q27 -27 27 -62q0 -33 -26 -61q-26 -26 -61 -26z" />
    <glyph glyph-name="uni04DF" unicode="&#x4df;" horiz-adv-x="464" 
d="M87 309l-53 104q35 19 74 31q59 18 114 18q110 0 160 -50q32 -32 32 -79q0 -41 -22 -67q-18 -21 -45 -33v-2q37 -6 62 -31q27 -27 27 -69q0 -58 -41 -97q-50 -49 -172 -49q-62 0 -116 17q-46 14 -89 41l59 111q27 -21 56 -34q33 -14 70 -14q30 0 48 8q21 10 21 30
q0 17 -18 25q-15 7 -52 7h-55v104h45q31 0 50 7q21 7 21 26q0 18 -19 26q-16 8 -46 8t-61 -12q-28 -10 -50 -26zM347 523q-36 0 -61 27q-25 28 -25 60t26 61q26 26 60 26q35 0 60 -25q27 -27 27 -62q0 -33 -26 -61q-26 -26 -61 -26zM120 523q-36 0 -61 27q-25 28 -25 60
t26 61q26 26 60 26q35 0 60 -25q27 -27 27 -62q0 -33 -26 -61q-26 -26 -61 -26z" />
    <glyph glyph-name="uni04E2" unicode="&#x4e2;" horiz-adv-x="741" 
d="M70 667h174v-420l250 420h177v-667h-174v420l-250 -420h-177v667zM182 749v98h376v-98h-376z" />
    <glyph glyph-name="uni04E3" unicode="&#x4e3;" horiz-adv-x="586" 
d="M55 447h160v-230l177 230h139v-447h-160v236l-175 -236h-141v447zM92 539v98h396v-98h-396z" />
    <glyph glyph-name="uni04E4" unicode="&#x4e4;" horiz-adv-x="741" 
d="M70 667h174v-420l250 420h177v-667h-174v420l-250 -420h-177v667zM483 723q-36 0 -61 27q-25 28 -25 60t26 61q26 26 60 26q35 0 60 -25q27 -27 27 -62q0 -33 -26 -61q-26 -26 -61 -26zM256 723q-36 0 -61 27q-25 28 -25 60t26 61q26 26 60 26q35 0 60 -25q27 -27 27 -62
q0 -33 -26 -61q-26 -26 -61 -26z" />
    <glyph glyph-name="uni04E5" unicode="&#x4e5;" horiz-adv-x="586" 
d="M55 447h160v-230l177 230h139v-447h-160v236l-175 -236h-141v447zM407 523q-36 0 -61 27q-25 28 -25 60t26 61q26 26 60 26q35 0 60 -25q27 -27 27 -62q0 -33 -26 -61q-26 -26 -61 -26zM180 523q-36 0 -61 27q-25 28 -25 60t26 61q26 26 60 26q35 0 60 -25q27 -27 27 -62
q0 -33 -26 -61q-26 -26 -61 -26z" />
    <glyph glyph-name="uni04E6" unicode="&#x4e6;" horiz-adv-x="816" 
d="M776 333q0 -148 -105 -249q-104 -99 -263 -99t-263 99q-105 101 -105 249q0 69 26.5 135t78.5 115q104 99 263 99t263 -99q52 -49 78.5 -115t26.5 -135zM408 514q-82 0 -135 -53q-53 -52 -53 -131q0 -73 53 -124q55 -53 135 -53q82 0 134 52q54 54 54 128q0 76 -54 128
q-56 53 -134 53zM522 723q-36 0 -61 27q-25 28 -25 60t26 61q26 26 60 26q35 0 60 -25q27 -27 27 -62q0 -33 -26 -61q-26 -26 -61 -26zM295 723q-36 0 -61 27q-25 28 -25 60t26 61q26 26 60 26q35 0 60 -25q27 -27 27 -62q0 -33 -26 -61q-26 -26 -61 -26z" />
    <glyph glyph-name="uni04E7" unicode="&#x4e7;" horiz-adv-x="611" 
d="M306 326q-41 0 -72 -29t-31 -73q0 -40 31 -71q30 -30 72 -30q41 0 71 30q31 29 31 71t-31 73q-31 29 -71 29zM574 224q0 -97 -69 -165q-75 -74 -200 -74q-124 0 -199 74q-69 68 -69 165t69 164q76 74 199 74q122 0 200 -74q69 -67 69 -164zM422 523q-36 0 -61 27
q-25 28 -25 60t26 61q26 26 60 26q35 0 60 -25q27 -27 27 -62q0 -33 -26 -61q-26 -26 -61 -26zM195 523q-36 0 -61 27q-25 28 -25 60t26 61q26 26 60 26q35 0 60 -25q27 -27 27 -62q0 -33 -26 -61q-26 -26 -61 -26z" />
    <glyph glyph-name="uni04E8" unicode="&#x4e8;" horiz-adv-x="816" 
d="M238 405h338q-18 49 -55 79q-46 38 -114 38q-63 0 -110 -36q-44 -32 -59 -81zM584 279h-354q15 -53 53 -88q52 -46 124 -46q66 0 118 42q45 36 59 92zM776 333q0 -148 -105 -249q-104 -99 -263 -99t-263 99q-105 101 -105 249q0 69 26.5 135t78.5 115q104 99 263 99
t263 -99q52 -49 78.5 -115t26.5 -135z" />
    <glyph glyph-name="uni04E9" unicode="&#x4e9;" horiz-adv-x="619" 
d="M213 266h192q-9 28 -30 47q-25 22 -66 22q-45 0 -69 -24q-20 -18 -27 -45zM408 196h-197q8 -33 34 -54q27 -22 65 -22q39 0 66 24q25 25 32 52zM582 227q0 -98 -70 -167q-77 -75 -203 -75q-124 0 -202 75q-70 69 -70 167t70 166q78 75 202 75q126 0 203 -75
q70 -68 70 -166z" />
    <glyph glyph-name="uni04EA" unicode="&#x4ea;" horiz-adv-x="816" 
d="M238 405h338q-18 49 -55 79q-46 38 -114 38q-63 0 -110 -36q-44 -32 -59 -81zM584 279h-354q15 -53 53 -88q52 -46 124 -46q66 0 118 42q45 36 59 92zM776 333q0 -148 -105 -249q-104 -99 -263 -99t-263 99q-105 101 -105 249q0 69 26.5 135t78.5 115q104 99 263 99
t263 -99q52 -49 78.5 -115t26.5 -135zM522 723q-36 0 -61 27q-25 28 -25 60t26 61q26 26 60 26q35 0 60 -25q27 -27 27 -62q0 -33 -26 -61q-26 -26 -61 -26zM295 723q-36 0 -61 27q-25 28 -25 60t26 61q26 26 60 26q35 0 60 -25q27 -27 27 -62q0 -33 -26 -61
q-26 -26 -61 -26z" />
    <glyph glyph-name="uni04EB" unicode="&#x4eb;" horiz-adv-x="619" 
d="M213 266h192q-9 28 -30 47q-25 22 -66 22q-45 0 -69 -24q-20 -18 -27 -45zM408 196h-197q8 -33 34 -54q27 -22 65 -22q39 0 66 24q25 25 32 52zM582 227q0 -98 -70 -167q-77 -75 -203 -75q-124 0 -202 75q-70 69 -70 167t70 166q78 75 202 75q126 0 203 -75
q70 -68 70 -166zM422 523q-36 0 -61 27q-25 28 -25 60t26 61q26 26 60 26q35 0 60 -25q27 -27 27 -62q0 -33 -26 -61q-26 -26 -61 -26zM195 523q-36 0 -61 27q-25 28 -25 60t26 61q26 26 60 26q35 0 60 -25q27 -27 27 -62q0 -33 -26 -61q-26 -26 -61 -26z" />
    <glyph glyph-name="uni04EE" unicode="&#x4ee;" horiz-adv-x="623" 
d="M0 667h194l127 -297l111 297h185l-300 -667h-183l93 187zM123 749v98h376v-98h-376z" />
    <glyph glyph-name="uni04EF" unicode="&#x4ef;" horiz-adv-x="604" 
d="M66 -229l150 290l-216 386h186l119 -229l116 229h183l-359 -676h-179zM106 539v98h396v-98h-396z" />
    <glyph glyph-name="uni04F0" unicode="&#x4f0;" horiz-adv-x="623" 
d="M0 667h194l127 -297l111 297h185l-300 -667h-183l93 187zM424 723q-36 0 -61 27q-25 28 -25 60t26 61q26 26 60 26q35 0 60 -25q27 -27 27 -62q0 -33 -26 -61q-26 -26 -61 -26zM197 723q-36 0 -61 27q-25 28 -25 60t26 61q26 26 60 26q35 0 60 -25q27 -27 27 -62
q0 -33 -26 -61q-26 -26 -61 -26z" />
    <glyph glyph-name="uni04F1" unicode="&#x4f1;" horiz-adv-x="604" 
d="M66 -229l150 290l-216 386h186l119 -229l116 229h183l-359 -676h-179zM417 523q-36 0 -61 27q-25 28 -25 60t26 61q26 26 60 26q35 0 60 -25q27 -27 27 -62q0 -33 -26 -61q-26 -26 -61 -26zM190 523q-36 0 -61 27q-25 28 -25 60t26 61q26 26 60 26q35 0 60 -25
q27 -27 27 -62q0 -33 -26 -61q-26 -26 -61 -26z" />
    <glyph glyph-name="uni04F2" unicode="&#x4f2;" horiz-adv-x="623" 
d="M0 667h194l127 -297l111 297h185l-300 -667h-183l93 187zM280 929l83 -73l-137 -136l-54 55zM453 929l84 -73l-137 -136l-55 55z" />
    <glyph glyph-name="uni04F3" unicode="&#x4f3;" horiz-adv-x="604" 
d="M66 -229l150 290l-216 386h186l119 -229l116 229h183l-359 -676h-179zM269 729l83 -73l-137 -136l-54 55zM442 729l84 -73l-137 -136l-55 55z" />
    <glyph glyph-name="uni04F4" unicode="&#x4f4;" horiz-adv-x="660" 
d="M416 0v262q-66 -10 -139 -10q-129 0 -182 50t-53 158v207h174v-181q0 -49 20 -69q21 -21 82 -21q53 0 98 7v264h174v-667h-174zM423 723q-36 0 -61 27q-25 28 -25 60t26 61q26 26 60 26q35 0 60 -25q27 -27 27 -62q0 -33 -26 -61q-26 -26 -61 -26zM196 723q-36 0 -61 27
q-25 28 -25 60t26 61q26 26 60 26q35 0 60 -25q27 -27 27 -62q0 -33 -26 -61q-26 -26 -61 -26z" />
    <glyph glyph-name="uni04F5" unicode="&#x4f5;" horiz-adv-x="538" 
d="M323 0v146q-44 -11 -98 -11q-100 0 -143 44q-40 40 -40 127v141h154v-130q0 -37 17 -51q14 -12 54 -12q33 0 56 7v186h160v-447h-160zM383 523q-36 0 -61 27q-25 28 -25 60t26 61q26 26 60 26q35 0 60 -25q27 -27 27 -62q0 -33 -26 -61q-26 -26 -61 -26zM156 523
q-36 0 -61 27q-25 28 -25 60t26 61q26 26 60 26q35 0 60 -25q27 -27 27 -62q0 -33 -26 -61q-26 -26 -61 -26z" />
    <glyph glyph-name="uni04F8" unicode="&#x4f8;" horiz-adv-x="879" 
d="M635 0v667h174v-667h-174zM70 0v667h174v-260h84q136 0 199 -62q53 -52 53 -141t-50 -140q-63 -64 -212 -64h-248zM244 134h67q55 0 75 20q18 18 18 50t-19 49q-21 20 -74 20h-67v-139zM552 723q-36 0 -61 27q-25 28 -25 60t26 61q26 26 60 26q35 0 60 -25q27 -27 27 -62
q0 -33 -26 -61q-26 -26 -61 -26zM325 723q-36 0 -61 27q-25 28 -25 60t26 61q26 26 60 26q35 0 60 -25q27 -27 27 -62q0 -33 -26 -61q-26 -26 -61 -26z" />
    <glyph glyph-name="uni04F9" unicode="&#x4f9;" horiz-adv-x="742" 
d="M527 0v447h160v-447h-160zM215 298h109q78 0 120 -40q40 -39 40 -107q0 -69 -38 -107q-44 -44 -122 -44h-269v447h160v-149zM215 104h60q29 0 43 14q11 11 11 32q0 22 -12 32q-15 12 -44 12h-58v-90zM486 523q-36 0 -61 27q-25 28 -25 60t26 61q26 26 60 26q35 0 60 -25
q27 -27 27 -62q0 -33 -26 -61q-26 -26 -61 -26zM259 523q-36 0 -61 27q-25 28 -25 60t26 61q26 26 60 26q35 0 60 -25q27 -27 27 -62q0 -33 -26 -61q-26 -26 -61 -26z" />
    <glyph glyph-name="uni2010" unicode="&#x2010;" horiz-adv-x="353" 
d="M50 202v133h253v-133h-253z" />
    <glyph glyph-name="uni2011" unicode="&#x2011;" horiz-adv-x="353" 
d="M50 202v133h253v-133h-253z" />
    <glyph glyph-name="figuredash" unicode="&#x2012;" horiz-adv-x="574" 
d="M70 275v132h434v-132h-434z" />
    <glyph glyph-name="endash" unicode="&#x2013;" horiz-adv-x="574" 
d="M70 199v132h434v-132h-434z" />
    <glyph glyph-name="emdash" unicode="&#x2014;" horiz-adv-x="907" 
d="M70 199v132h767v-132h-767z" />
    <glyph glyph-name="afii00208" unicode="&#x2015;" horiz-adv-x="907" 
d="M70 199v132h767v-132h-767z" />
    <glyph glyph-name="quoteleft" unicode="&#x2018;" horiz-adv-x="345" 
d="M312 667l-115 -294h-150l162 294h103z" />
    <glyph glyph-name="quoteright" unicode="&#x2019;" horiz-adv-x="448" 
d="M33 373l115 294h151l-163 -294h-103z" />
    <glyph glyph-name="quotesinglbase" unicode="&#x201a;" horiz-adv-x="459" 
d="M33 -149l126 316h151l-174 -316h-103z" />
    <glyph glyph-name="quotedblleft" unicode="&#x201c;" horiz-adv-x="572" 
d="M539 667l-115 -294h-151l163 294h103zM312 667l-115 -294h-150l162 294h103z" />
    <glyph glyph-name="quotedblright" unicode="&#x201d;" horiz-adv-x="675" 
d="M33 373l115 294h151l-163 -294h-103zM260 373l115 294h150l-162 -294h-103z" />
    <glyph glyph-name="quotedblbase" unicode="&#x201e;" horiz-adv-x="683" 
d="M260 -149l123 316h150l-170 -316h-103zM33 -149l123 316h150l-170 -316h-103z" />
    <glyph glyph-name="dagger" unicode="&#x2020;" horiz-adv-x="600" 
d="M226 531v198h147v-198h157v-127h-157v-592h-147v592h-156v127h156z" />
    <glyph glyph-name="daggerdbl" unicode="&#x2021;" horiz-adv-x="600" 
d="M227 531v198h147v-198h155v-127h-155v-216h155v-127h-155v-249h-147v249h-156v127h156v216h-156v127h156z" />
    <glyph glyph-name="bullet" unicode="&#x2022;" horiz-adv-x="1000" 
d="M362 340q0 58 40 98q42 42 98 42q55 0 96 -41q42 -42 42 -99q0 -58 -45 -102q-40 -38 -93 -38t-94 38q-44 40 -44 102z" />
    <glyph glyph-name="ellipsis" unicode="&#x2026;" horiz-adv-x="909" 
d="M151 189q42 0 73 -31t31 -73t-31 -73t-73 -31t-74 32q-29 29 -29 72t30 73q31 31 73 31zM454 189q42 0 73 -31t31 -73t-31 -73t-73 -31t-74 32q-29 29 -29 72t30 73q31 31 73 31zM757 189q42 0 73 -31t31 -73t-31 -73t-73 -31t-74 32q-29 29 -29 72t30 73q31 31 73 31z
" />
    <glyph glyph-name="perthousand" unicode="&#x2030;" horiz-adv-x="1324" 
d="M214 347q-88 0 -139 53q-42 45 -42 108q0 69 41 113q47 53 140 53q91 0 142 -53q42 -44 42 -110t-43 -111q-51 -53 -141 -53zM211 0l386 667h87l-387 -667h-86zM216 586q-34 0 -55 -23q-20 -22 -20 -52q0 -34 26 -57q20 -18 49 -18q30 0 53 21q22 22 22 54q0 33 -24 56
q-20 19 -51 19zM680 231q-34 0 -55 -23q-20 -22 -20 -52q0 -34 26 -57q20 -18 49 -18q30 0 53 21q22 22 22 54q0 34 -24 56q-20 19 -51 19zM678 -8q-88 0 -139 53q-42 45 -42 108q0 69 41 113q47 53 140 53q91 0 142 -53q42 -44 42 -110t-43 -111q-51 -53 -141 -53z
M1109 231q-34 0 -55 -23q-20 -22 -20 -52q0 -34 26 -57q20 -18 49 -18q30 0 53 21q22 22 22 54q0 34 -24 56q-20 19 -51 19zM1107 -8q-88 0 -139 53q-42 45 -42 108q0 69 41 113q47 53 140 53q91 0 142 -53q42 -44 42 -110t-43 -111q-51 -53 -141 -53z" />
    <glyph glyph-name="guilsinglleft" unicode="&#x2039;" horiz-adv-x="311" 
d="M268 384l-111 -156l114 -154l-91 -64l-152 218l152 217z" />
    <glyph glyph-name="guilsinglright" unicode="&#x203a;" horiz-adv-x="314" 
d="M40 74l114 154l-111 156l88 61l152 -217l-152 -218z" />
    <glyph glyph-name="fraction" unicode="&#x2044;" horiz-adv-x="273" 
d="M-100 0l386 667h87l-387 -667h-86z" />
    <glyph glyph-name="Euro" unicode="&#x20ac;" horiz-adv-x="600" 
d="M544 190v-167q-75 -38 -172 -38q-131 0 -211 62q-78 60 -103 168h-78l36 90h30q-2 23 0 50h-66l36 90h43q26 107 112 171q88 65 221 65q104 0 182 -44l-58 -146q-60 38 -131 38q-59 0 -98 -22q-40 -21 -54 -62h268l-36 -90h-250q-3 -22 1 -50h229l-36 -90h-171
q16 -37 56 -58q38 -20 95 -20q94 0 155 53z" />
    <glyph glyph-name="uni20B4" unicode="&#x20b4;" horiz-adv-x="600" 
d="M148 498l-67 127q107 57 240 57q100 0 148 -35q54 -41 54 -107q0 -48 -29 -80h68v-105h-151l-66 -62h217v-104h-292q-13 -13 -13 -31q0 -21 18 -31q19 -11 62 -11q80 0 150 37l69 -118q-116 -56 -262 -56q-105 0 -158 33q-62 40 -62 109q0 37 24 68h-58v104h129l66 62
h-195v105h278q16 16 16 36q0 21 -16 34q-19 13 -52 13q-59 0 -118 -45z" />
    <glyph glyph-name="uni20B6" unicode="&#x20b6;" horiz-adv-x="600" 
d="M86 667h276q110 0 171 -57q60 -55 60 -153q0 -102 -59 -156q-61 -56 -166 -56h-109v-56h186v-104h-186v-85h-173v85h-82v104h82v56h-82v120h82v302zM259 527v-162h58q50 0 73 21q22 20 22 61q0 36 -20 56q-24 24 -74 24h-59z" />
    <glyph glyph-name="uni20B7" unicode="&#x20b7;" horiz-adv-x="600" 
d="M86 667h276q110 0 171 -57q60 -55 60 -153q0 -102 -59 -156q-61 -56 -166 -56h-109v-56h186v-104h-186v-85h-173v85h-82v104h82v56h-82v120h82v302zM259 527v-162h58q50 0 73 21q22 20 22 61q0 36 -20 56q-24 24 -74 24h-59z" />
    <glyph glyph-name="uni20B8" unicode="&#x20b8;" horiz-adv-x="600" 
d="M86 667h276q110 0 171 -57q60 -55 60 -153q0 -102 -59 -156q-61 -56 -166 -56h-109v-56h186v-104h-186v-85h-173v85h-82v104h82v56h-82v120h82v302zM259 527v-162h58q50 0 73 21q22 20 22 61q0 36 -20 56q-24 24 -74 24h-59z" />
    <glyph glyph-name="uni20B9" unicode="&#x20b9;" horiz-adv-x="600" 
d="M86 667h276q110 0 171 -57q60 -55 60 -153q0 -102 -59 -156q-61 -56 -166 -56h-109v-56h186v-104h-186v-85h-173v85h-82v104h82v56h-82v120h82v302zM259 527v-162h58q50 0 73 21q22 20 22 61q0 36 -20 56q-24 24 -74 24h-59z" />
    <glyph glyph-name="uni20BA" unicode="&#x20ba;" horiz-adv-x="600" 
d="M86 667h276q110 0 171 -57q60 -55 60 -153q0 -102 -59 -156q-61 -56 -166 -56h-109v-56h186v-104h-186v-85h-173v85h-82v104h82v56h-82v120h82v302zM259 527v-162h58q50 0 73 21q22 20 22 61q0 36 -20 56q-24 24 -74 24h-59z" />
    <glyph glyph-name="uni20BB" unicode="&#x20bb;" horiz-adv-x="600" 
d="M86 667h276q110 0 171 -57q60 -55 60 -153q0 -102 -59 -156q-61 -56 -166 -56h-109v-56h186v-104h-186v-85h-173v85h-82v104h82v56h-82v120h82v302zM259 527v-162h58q50 0 73 21q22 20 22 61q0 36 -20 56q-24 24 -74 24h-59z" />
    <glyph glyph-name="uni20BC" unicode="&#x20bc;" horiz-adv-x="600" 
d="M86 667h276q110 0 171 -57q60 -55 60 -153q0 -102 -59 -156q-61 -56 -166 -56h-109v-56h186v-104h-186v-85h-173v85h-82v104h82v56h-82v120h82v302zM259 527v-162h58q50 0 73 21q22 20 22 61q0 36 -20 56q-24 24 -74 24h-59z" />
    <glyph glyph-name="uni20BD" unicode="&#x20bd;" horiz-adv-x="600" 
d="M86 667h276q110 0 171 -57q60 -55 60 -153q0 -102 -59 -156q-61 -56 -166 -56h-109v-56h186v-104h-186v-85h-173v85h-82v104h82v56h-82v120h82v302zM259 527v-162h58q50 0 73 21q22 20 22 61q0 36 -20 56q-24 24 -74 24h-59z" />
    <glyph glyph-name="uni20BE" unicode="&#x20be;" horiz-adv-x="600" 
d="M86 667h276q110 0 171 -57q60 -55 60 -153q0 -102 -59 -156q-61 -56 -166 -56h-109v-56h186v-104h-186v-85h-173v85h-82v104h82v56h-82v120h82v302zM259 527v-162h58q50 0 73 21q22 20 22 61q0 36 -20 56q-24 24 -74 24h-59z" />
    <glyph glyph-name="uni20BF" unicode="&#x20bf;" horiz-adv-x="600" 
d="M86 667h276q110 0 171 -57q60 -55 60 -153q0 -102 -59 -156q-61 -56 -166 -56h-109v-56h186v-104h-186v-85h-173v85h-82v104h82v56h-82v120h82v302zM259 527v-162h58q50 0 73 21q22 20 22 61q0 36 -20 56q-24 24 -74 24h-59z" />
    <glyph glyph-name="uni20C0" unicode="&#x20c0;" horiz-adv-x="600" 
d="M86 667h276q110 0 171 -57q60 -55 60 -153q0 -102 -59 -156q-61 -56 -166 -56h-109v-56h186v-104h-186v-85h-173v85h-82v104h82v56h-82v120h82v302zM259 527v-162h58q50 0 73 21q22 20 22 61q0 36 -20 56q-24 24 -74 24h-59z" />
    <glyph glyph-name="uni20C1" unicode="&#x20c1;" horiz-adv-x="600" 
d="M86 667h276q110 0 171 -57q60 -55 60 -153q0 -102 -59 -156q-61 -56 -166 -56h-109v-56h186v-104h-186v-85h-173v85h-82v104h82v56h-82v120h82v302zM259 527v-162h58q50 0 73 21q22 20 22 61q0 36 -20 56q-24 24 -74 24h-59z" />
    <glyph glyph-name="uni20C2" unicode="&#x20c2;" horiz-adv-x="600" 
d="M86 667h276q110 0 171 -57q60 -55 60 -153q0 -102 -59 -156q-61 -56 -166 -56h-109v-56h186v-104h-186v-85h-173v85h-82v104h82v56h-82v120h82v302zM259 527v-162h58q50 0 73 21q22 20 22 61q0 36 -20 56q-24 24 -74 24h-59z" />
    <glyph glyph-name="uni20C3" unicode="&#x20c3;" horiz-adv-x="600" 
d="M86 667h276q110 0 171 -57q60 -55 60 -153q0 -102 -59 -156q-61 -56 -166 -56h-109v-56h186v-104h-186v-85h-173v85h-82v104h82v56h-82v120h82v302zM259 527v-162h58q50 0 73 21q22 20 22 61q0 36 -20 56q-24 24 -74 24h-59z" />
    <glyph glyph-name="uni20C4" unicode="&#x20c4;" horiz-adv-x="600" 
d="M86 667h276q110 0 171 -57q60 -55 60 -153q0 -102 -59 -156q-61 -56 -166 -56h-109v-56h186v-104h-186v-85h-173v85h-82v104h82v56h-82v120h82v302zM259 527v-162h58q50 0 73 21q22 20 22 61q0 36 -20 56q-24 24 -74 24h-59z" />
    <glyph glyph-name="uni20C5" unicode="&#x20c5;" horiz-adv-x="600" 
d="M86 667h276q110 0 171 -57q60 -55 60 -153q0 -102 -59 -156q-61 -56 -166 -56h-109v-56h186v-104h-186v-85h-173v85h-82v104h82v56h-82v120h82v302zM259 527v-162h58q50 0 73 21q22 20 22 61q0 36 -20 56q-24 24 -74 24h-59z" />
    <glyph glyph-name="uni20C6" unicode="&#x20c6;" horiz-adv-x="600" 
d="M86 667h276q110 0 171 -57q60 -55 60 -153q0 -102 -59 -156q-61 -56 -166 -56h-109v-56h186v-104h-186v-85h-173v85h-82v104h82v56h-82v120h82v302zM259 527v-162h58q50 0 73 21q22 20 22 61q0 36 -20 56q-24 24 -74 24h-59z" />
    <glyph glyph-name="uni20C7" unicode="&#x20c7;" horiz-adv-x="600" 
d="M86 667h276q110 0 171 -57q60 -55 60 -153q0 -102 -59 -156q-61 -56 -166 -56h-109v-56h186v-104h-186v-85h-173v85h-82v104h82v56h-82v120h82v302zM259 527v-162h58q50 0 73 21q22 20 22 61q0 36 -20 56q-24 24 -74 24h-59z" />
    <glyph glyph-name="uni20C8" unicode="&#x20c8;" horiz-adv-x="600" 
d="M86 667h276q110 0 171 -57q60 -55 60 -153q0 -102 -59 -156q-61 -56 -166 -56h-109v-56h186v-104h-186v-85h-173v85h-82v104h82v56h-82v120h82v302zM259 527v-162h58q50 0 73 21q22 20 22 61q0 36 -20 56q-24 24 -74 24h-59z" />
    <glyph glyph-name="uni20C9" unicode="&#x20c9;" horiz-adv-x="600" 
d="M86 667h276q110 0 171 -57q60 -55 60 -153q0 -102 -59 -156q-61 -56 -166 -56h-109v-56h186v-104h-186v-85h-173v85h-82v104h82v56h-82v120h82v302zM259 527v-162h58q50 0 73 21q22 20 22 61q0 36 -20 56q-24 24 -74 24h-59z" />
    <glyph glyph-name="uni20CA" unicode="&#x20ca;" horiz-adv-x="600" 
d="M86 667h276q110 0 171 -57q60 -55 60 -153q0 -102 -59 -156q-61 -56 -166 -56h-109v-56h186v-104h-186v-85h-173v85h-82v104h82v56h-82v120h82v302zM259 527v-162h58q50 0 73 21q22 20 22 61q0 36 -20 56q-24 24 -74 24h-59z" />
    <glyph glyph-name="uni20CB" unicode="&#x20cb;" horiz-adv-x="600" 
d="M86 667h276q110 0 171 -57q60 -55 60 -153q0 -102 -59 -156q-61 -56 -166 -56h-109v-56h186v-104h-186v-85h-173v85h-82v104h82v56h-82v120h82v302zM259 527v-162h58q50 0 73 21q22 20 22 61q0 36 -20 56q-24 24 -74 24h-59z" />
    <glyph glyph-name="uni20CC" unicode="&#x20cc;" horiz-adv-x="600" 
d="M86 667h276q110 0 171 -57q60 -55 60 -153q0 -102 -59 -156q-61 -56 -166 -56h-109v-56h186v-104h-186v-85h-173v85h-82v104h82v56h-82v120h82v302zM259 527v-162h58q50 0 73 21q22 20 22 61q0 36 -20 56q-24 24 -74 24h-59z" />
    <glyph glyph-name="uni20CD" unicode="&#x20cd;" horiz-adv-x="600" 
d="M86 667h276q110 0 171 -57q60 -55 60 -153q0 -102 -59 -156q-61 -56 -166 -56h-109v-56h186v-104h-186v-85h-173v85h-82v104h82v56h-82v120h82v302zM259 527v-162h58q50 0 73 21q22 20 22 61q0 36 -20 56q-24 24 -74 24h-59z" />
    <glyph glyph-name="uni20CE" unicode="&#x20ce;" horiz-adv-x="600" 
d="M86 667h276q110 0 171 -57q60 -55 60 -153q0 -102 -59 -156q-61 -56 -166 -56h-109v-56h186v-104h-186v-85h-173v85h-82v104h82v56h-82v120h82v302zM259 527v-162h58q50 0 73 21q22 20 22 61q0 36 -20 56q-24 24 -74 24h-59z" />
    <glyph glyph-name="uni20CF" unicode="&#x20cf;" horiz-adv-x="600" 
d="M86 667h276q110 0 171 -57q60 -55 60 -153q0 -102 -59 -156q-61 -56 -166 -56h-109v-56h186v-104h-186v-85h-173v85h-82v104h82v56h-82v120h82v302zM259 527v-162h58q50 0 73 21q22 20 22 61q0 36 -20 56q-24 24 -74 24h-59z" />
    <glyph glyph-name="afii61352" unicode="&#x2116;" horiz-adv-x="1163" 
d="M243 0h-173v667h173l319 -408v408h173v-667h-173l-319 408v-408zM966 351q-82 0 -132 48q-45 45 -45 109q0 67 45 110q49 49 132 49q81 0 129 -47q47 -45 47 -112q0 -64 -46 -110q-47 -47 -130 -47zM814 192v95h303v-95h-303zM965 576q-29 0 -47 -17q-20 -18 -20 -51
q0 -31 19 -50q18 -18 48 -18q31 0 49 18q19 19 19 50q0 32 -19 51q-17 17 -49 17z" />
    <glyph glyph-name="uni2117" unicode="&#x2117;" horiz-adv-x="771" 
d="M272 529h148q74 0 111 -36q33 -33 33 -90q0 -58 -33 -91q-36 -36 -110 -36h-32v-126h-117v379zM389 441v-77h7q27 0 39 9q14 10 14 30q0 19 -15 29q-12 9 -38 9h-7zM751 333q0 -67 -27 -132.5t-75 -113.5q-49 -49 -116.5 -75.5t-134.5 -26.5q-66 0 -133 26.5t-117 75.5
q-48 48 -75 113.5t-27 132.5q0 68 27 133.5t75 113.5q50 49 117 75.5t133 26.5q67 0 134.5 -26.5t116.5 -75.5q48 -48 75 -113.5t27 -133.5zM398 619q-116 0 -198 -82q-84 -84 -84 -204t84 -204q82 -82 198 -82q117 0 199 82q84 84 84 204t-84 204q-82 82 -199 82z" />
    <glyph glyph-name="trademark" unicode="&#x2122;" horiz-adv-x="777" 
d="M264 578h-81v-291h-103v291h-80v89h264v-89zM386 287h-103l63 380h103l72 -195l77 195h103l56 -380h-103l-26 206l-85 -206h-46l-81 206z" />
    <glyph glyph-name="Omega" unicode="&#x2126;" horiz-adv-x="667" 
d="M369 0v104q61 26 98 92q35 66 35 156q0 116 -65 174q-45 40 -104 40t-104 -40q-65 -58 -65 -174q0 -90 35 -156q37 -66 98 -92v-104h-269v117h135q-36 19 -68 53q-67 72 -67 196q0 138 88 229q86 88 217 88t217 -88q88 -91 88 -229q0 -124 -67 -196q-32 -34 -68 -53h135
v-117h-269z" />
    <glyph glyph-name="partialdiff" unicode="&#x2202;" horiz-adv-x="561" 
d="M87 567l17 110q85 -6 167.5 -35t140.5 -84q63 -59 89 -136t26 -147q0 -137 -76 -218q-65 -69 -175 -69q-105 0 -172 64q-70 69 -70 169q0 96 67 161q58 57 145 57q71 0 123 -40q-34 80 -106 120q-73 41 -176 48zM281 110q40 0 68 27q34 34 34 82q0 52 -35 82
q-27 24 -71 24q-42 0 -70 -25q-35 -32 -35 -81q0 -47 32 -79q30 -30 77 -30z" />
    <glyph glyph-name="Delta" unicode="&#x2206;" horiz-adv-x="667" 
d="M650 0h-634l245 667h141zM332 508l-130 -390h260z" />
    <glyph glyph-name="product" unicode="&#x220f;" horiz-adv-x="733" 
d="M40 630v120h653v-120h-82v-760h82v-120h-293v120h73v760h-212v-760h71v-120h-292v120h83v760h-83z" />
    <glyph glyph-name="summation" unicode="&#x2211;" horiz-adv-x="667" 
d="M21 750h599v-247h-117l-13 127h-315l250 -363l-250 -397h324l8 130h122v-250h-608v130l243 387l-243 353v130z" />
    <glyph glyph-name="minus" unicode="&#x2212;" 
d="M33 280v120h434v-120h-434z" />
    <glyph glyph-name="uni2215" unicode="&#x2215;" horiz-adv-x="672" 
d="M-30 -188l511 917h131l-512 -917h-130z" />
    <glyph glyph-name="uni2219" unicode="&#x2219;" horiz-adv-x="248" 
d="M124 229q-50 0 -85 34q-39 37 -39 90t39 91q36 34 85 34t83 -33q41 -39 41 -92q0 -51 -36 -87q-37 -37 -88 -37z" />
    <glyph glyph-name="radical" unicode="&#x221a;" horiz-adv-x="667" 
d="M375 827h292v-117h-179l-165 -710h-172l-57 271h-94v116h202l18 -84q6 -37 9 -73q4 -32 4 -60v-13h11l1 19q2 39 16 132q12 75 26 139z" />
    <glyph glyph-name="infinity" unicode="&#x221e;" horiz-adv-x="667" 
d="M488 176q-52 0 -91 25q-34 21 -60 54q-31 -36 -68 -57q-37 -22 -89 -22q-72 0 -119 48q-44 44 -44 113q0 70 46 118q47 47 116 47q46 0 88 -24q35 -20 63 -54q34 40 74 59t82 19q69 0 116 -44q48 -44 48 -118q0 -72 -48 -120q-43 -44 -114 -44zM466 386q-21 0 -41 -17
q-18 -14 -28 -30q13 -18 28 -30q20 -16 41 -16q23 0 36 14q14 14 14 33q0 18 -13 31q-17 15 -37 15zM200 386q-20 0 -35 -13q-14 -14 -14 -35q0 -18 13 -31q13 -14 36 -14q21 0 41 16q15 12 28 30q-10 16 -28 30q-20 17 -41 17z" />
    <glyph glyph-name="integral" unicode="&#x222b;" 
d="M317 563v-538q0 -95 -4 -127q-6 -65 -43 -102q-46 -46 -134 -46q-44 0 -90 10l24 116q27 -10 56 -10q26 0 40 13q17 16 17 58v538q0 115 10 155q10 44 35 71q45 49 134 49q40 0 92 -10l-24 -116q-30 10 -56 10q-25 0 -39 -13q-18 -16 -18 -58z" />
    <glyph glyph-name="approxequal" unicode="&#x2248;" 
d="M264 367l-32 12q-57 22 -82 22t-43 -17q-16 -16 -29 -44l-71 47l7 15q30 65 52 86q40 38 93 38q28 0 81 -19l42 -15q44 -16 66 -16q28 0 45 16q14 13 27 36l73 -43l-6 -13q-22 -50 -50 -78q-42 -43 -95 -43q-32 0 -78 16zM264 164l-32 12q-57 22 -82 22t-43 -17
q-16 -16 -29 -44l-71 47l7 15q30 65 52 86q40 38 93 38q28 0 81 -19l42 -15q44 -16 66 -16q28 0 45 16q14 13 27 36l73 -43l-6 -13q-22 -50 -50 -78q-42 -43 -95 -43q-32 0 -78 16z" />
    <glyph glyph-name="notequal" unicode="&#x2260;" 
d="M34 471h228l55 108h102l-54 -108h102v-116h-155l-34 -67h189v-117h-241l-49 -95h-102l47 95h-88v117h141l34 67h-175v116z" />
    <glyph glyph-name="lessequal" unicode="&#x2264;" 
d="M33 462l434 207v-121l-297 -141l297 -141v-121l-434 208v109zM33 117h434v-117h-434v117z" />
    <glyph glyph-name="greaterequal" unicode="&#x2265;" 
d="M467 353l-434 -208v121l297 141l-297 141v121l434 -207v-109zM467 0h-434v117h434v-117z" />
    <glyph glyph-name="dotmath" unicode="&#x22c5;" horiz-adv-x="248" 
d="M124 229q-50 0 -85 34q-39 37 -39 90t39 91q36 34 85 34t83 -33q41 -39 41 -92q0 -51 -36 -87q-37 -37 -88 -37z" />
    <glyph glyph-name="lozenge" unicode="&#x25ca;" horiz-adv-x="819" 
d="M74 334l259 359l260 -359l-260 -360zM441 334l-108 148l-107 -148l107 -148z" />
    <glyph glyph-name="openbullet" unicode="&#x25e6;" 
d="M252 363q-66 0 -111 45t-45 108q0 62 45 106q46 45 108 45q64 0 110 -44q45 -43 45 -107q0 -63 -45 -108t-107 -45zM178 515q0 -30 20.5 -50t51.5 -20t51.5 20t20.5 50t-20.5 50t-51.5 20t-51.5 -20t-20.5 -50z" />
    <glyph glyph-name="uniF400" unicode="&#xf400;" horiz-adv-x="2" 
d="M-224 729l101 -73l-154 -136l-74 55z" />
    <glyph glyph-name="uniF401" unicode="&#xf401;" horiz-adv-x="2" 
d="M-264 929l101 -73l-154 -136l-74 55z" />
    <glyph glyph-name="uniF406" unicode="&#xf406;" 
d="M321 877h103q-1 -66 -44 -109q-45 -45 -130 -45t-130 45q-43 43 -44 109h103q3 -26 20 -41q20 -18 51 -18t51 18q17 15 20 41z" />
    <glyph glyph-name="uniF407" unicode="&#xf407;" 
d="M282 -46l112 -44l-116 -146l-92 40z" />
    <glyph glyph-name="uniF408" unicode="&#xf408;" 
d="M121 720l-68 77l196 147l198 -147l-71 -77l-127 98z" />
    <glyph glyph-name="uniF409" unicode="&#xf409;" 
d="M150 -248l52 198l150 -16l-102 -194z" />
    <glyph glyph-name="uniF40A" unicode="&#xf40a;" 
d="M148 470l54 210l150 -26l-104 -202z" />
    <glyph glyph-name="uniF40B" unicode="&#xf40b;" 
d="M250 723q-36 0 -64 26q-27 27 -27 63q0 40 27 67q26 26 64 26t64 -26q27 -27 27 -65q0 -39 -27 -65t-64 -26z" />
    <glyph glyph-name="uniF40C" unicode="&#xf40c;" 
d="M387 826q0 -40 -26 -66q-37 -37 -111 -37t-111 37q-26 26 -26 66q0 41 26 67q37 37 111 37t111 -37q26 -26 26 -67zM250 867q-28 0 -43 -15q-10 -10 -10 -25t10 -25q15 -15 43 -15t43 15q10 10 10 25t-10 25q-15 15 -43 15z" />
    <glyph glyph-name="uniF40D" unicode="&#xf40d;" 
d="M351 867l77 -46q-18 -45 -44 -69q-29 -29 -72 -29q-26 0 -58 15l-30 15q-24 12 -36 12q-28 0 -38 -42l-78 46q15 44 40 68q30 28 70 28q27 0 60 -14l29 -13q33 -15 43 -15q24 0 37 44z" />
    <glyph glyph-name="uniF40E" unicode="&#xf40e;" 
d="M361 -89l-22 -86q-32 -18 -66 -18q-47 0 -73 28q-21 23 -21 52q0 32 20 61q23 33 56 52h74q-27 -18 -39 -30q-19 -19 -19 -39q0 -16 11 -27t29 -11q25 0 50 18z" />
    <glyph glyph-name="uniF43E" unicode="&#xf43e;" horiz-adv-x="471" 
d="M465 520h-144v-520h-173v520h-141v147h458v-147zM212 -46l112 -44l-116 -146l-92 40z" />
    <glyph glyph-name="uniF43F" unicode="&#xf43f;" horiz-adv-x="328" 
d="M323 316h-91v-316h-160v316h-51v131h51v147h160v-147h91v-131zM128 -46l106 -44l-124 -146l-84 40z" />
    <glyph glyph-name="uniF47E" unicode="&#xf47e;" horiz-adv-x="721" 
d="M70 667h173v-395q0 -70 34 -103q34 -32 82 -32t80 29q18 16 27.5 40.5t10.5 39t1 41.5v380h173v-383q0 -44 -3 -72.5t-20.5 -69t-51.5 -74.5q-82 -83 -220 -83q-146 0 -221 80q-65 71 -65 219v383zM360 723q-36 0 -64 26q-27 27 -27 63q0 40 27 67q26 26 64 26t64 -26
q27 -27 27 -65q0 -39 -27 -65t-64 -26z" />
    <glyph glyph-name="uniF47F" unicode="&#xf47f;" horiz-adv-x="590" 
d="M55 447h160v-250q0 -43 24 -65q19 -17 56 -17t57 19q23 23 23 63v250h160v-279q0 -76 -43 -120q-61 -63 -193 -63q-142 0 -202 64q-42 44 -42 119v279zM296 523q-36 0 -64 26q-27 27 -27 63q0 40 27 67q26 26 64 26t64 -26q27 -27 27 -65q0 -39 -27 -65t-64 -26z" />
    <glyph glyph-name="uniF481" unicode="&#xf481;" horiz-adv-x="710" 
d="M518 0l-41 112h-242l-45 -112h-183l256 667h189l251 -667h-185zM283 244h148l-75 216zM330 -46l112 -44l-116 -146l-92 40z" />
    <glyph glyph-name="uniF482" unicode="&#xf482;" horiz-adv-x="616" 
d="M401 404v43h160v-447h-160v49q-46 -64 -139 -64q-94 0 -161 71q-64 68 -64 164q0 110 69 179q63 63 161 63q82 0 134 -58zM303 326q-40 0 -70 -29q-32 -31 -32 -73q0 -44 31 -73q32 -30 72 -30q41 0 72 31q30 30 30 72q0 43 -31 73q-31 29 -72 29zM274 -46l106 -44
l-124 -146l-84 40z" />
    <glyph glyph-name="uniF483" unicode="&#xf483;" horiz-adv-x="631" 
d="M618 667l-314 -520h280v-147h-571l316 520h-262v147h551zM472 826q0 -40 -26 -66q-37 -37 -111 -37t-111 37q-26 26 -26 66q0 41 26 67q37 37 111 37t111 -37q26 -26 26 -67zM335 867q-28 0 -43 -15q-10 -10 -10 -25t10 -25q15 -15 43 -15t43 15q10 10 10 25t-10 25
q-15 15 -43 15z" />
    <glyph glyph-name="uniF484" unicode="&#xf484;" horiz-adv-x="517" 
d="M497 447l-209 -316h187v-131h-455l211 316h-180v131h446zM407 626q0 -40 -26 -66q-37 -37 -111 -37t-111 37q-26 26 -26 66q0 41 26 67q37 37 111 37t111 -37q26 -26 26 -67zM270 667q-28 0 -43 -15q-10 -10 -10 -25t10 -25q15 -15 43 -15t43 15q10 10 10 25t-10 25
q-15 15 -43 15z" />
    <glyph glyph-name="uniF485" unicode="&#xf485;" horiz-adv-x="1082" 
d="M40 60l74 140q72 -68 153 -68q46 0 67 23q17 17 17 42q0 24 -19 40q-16 14 -86 35l-45 14q-67 21 -96 54q-38 41 -38 118q0 100 61 161q63 63 171 63q103 0 206 -54l-69 -135q-57 45 -114 45q-36 0 -57 -20q-17 -17 -17 -36q0 -18 9 -30q14 -17 58 -30l53 -16
q84 -26 121 -66q43 -46 43 -119q0 -105 -63 -168q-68 -68 -197 -68q-71 0 -131 22q-51 18 -101 53zM551 60l74 140q72 -68 153 -68q46 0 67 23q17 17 17 42q0 24 -19 40q-16 14 -86 35l-45 14q-67 21 -96 54q-38 41 -38 118q0 100 61 161q63 63 171 63q103 0 206 -54
l-69 -135q-57 45 -114 45q-36 0 -57 -20q-17 -17 -17 -36q0 -18 9 -30q14 -17 58 -30l53 -16q84 -26 121 -66q43 -46 43 -119q0 -105 -63 -168q-68 -68 -197 -68q-71 0 -131 22q-51 18 -101 53z" />
    <glyph glyph-name="uniF4C4" unicode="&#xf4c4;" horiz-adv-x="471" 
d="M465 520h-144v-520h-173v520h-141v147h458v-147zM212 -46l112 -44l-116 -146l-92 40z" />
    <glyph glyph-name="uniF4C5" unicode="&#xf4c5;" horiz-adv-x="412" 
d="M126 0v316h-116v131h392v-131h-116v-316h-160zM178 -46l106 -44l-124 -146l-84 40z" />
    <glyph glyph-name="uniF4C6" unicode="&#xf4c6;" horiz-adv-x="660" 
d="M416 667h174v-735q0 -87 -43 -126q-40 -36 -129 -36q-62 0 -95 10v114q14 -6 34 -6q32 0 46 14q13 13 13 47v313q-66 -10 -139 -10q-129 0 -182 50t-53 158v207h174v-181q0 -49 20 -69q21 -21 82 -21q53 0 98 7v264z" />
    <glyph glyph-name="uniF4C7" unicode="&#xf4c7;" horiz-adv-x="538" 
d="M323 447h160v-518q0 -85 -42 -124q-38 -35 -124 -35q-46 0 -86 8v113q12 -6 31 -6q34 0 48 15q13 14 13 55v191q-44 -11 -96 -11q-101 0 -145 44q-40 40 -40 127v141h154v-130q0 -37 17 -51q14 -12 52 -12q36 0 58 7v186z" />
    <glyph glyph-name="uniF4C8" unicode="&#xf4c8;" horiz-adv-x="589" 
d="M549 223v-205q-91 -33 -150 -33q-156 0 -258 100q-48 48 -74.5 112.5t-26.5 130.5q0 69 27.5 134t73.5 112q102 104 252 104q73 0 156 -34v-207q-59 73 -151 73q-71 0 -120 -44q-58 -54 -58 -137q0 -79 54 -130q49 -46 124 -46q87 0 151 70zM332 -46l112 -44l-116 -146
l-92 40z" />
    <glyph glyph-name="uniF4C9" unicode="&#xf4c9;" horiz-adv-x="429" 
d="M393 144v-134q-51 -25 -111 -25q-106 0 -176 68q-69 67 -69 167q0 103 72 173q71 68 180 68q54 0 104 -25v-134q-41 29 -83 29q-47 0 -78 -31t-31 -77q0 -44 28 -75q32 -34 82 -34q47 0 82 30zM248 -46l106 -44l-124 -146l-84 40z" />
    <glyph glyph-name="uniF4CC" unicode="&#xf4cc;" horiz-adv-x="623" 
d="M0 667h194l127 -297l111 297h185l-300 -667h-183l93 187zM364 929l101 -73l-154 -136l-74 55z" />
    <glyph glyph-name="uniF4CD" unicode="&#xf4cd;" horiz-adv-x="604" 
d="M66 -229l150 290l-216 386h186l119 -229l116 229h183l-359 -676h-179zM357 729l101 -73l-154 -136l-74 55z" />
    <glyph glyph-name="uniF639" unicode="&#xf639;" horiz-adv-x="624" 
d="M312 527q-30 0 -53 -21q-26 -22 -42 -73.5t-16 -100.5q0 -45 15.5 -97.5t42.5 -76.5q23 -21 53 -21t53 21q26 23 42 74.5t16 98.5t-16.5 100t-41.5 75q-23 21 -53 21zM595 333q0 -175 -99 -272q-77 -76 -184 -76t-184 76q-99 97 -99 272q0 176 99 273q77 76 184 76
t184 -76q99 -97 99 -273z" />
    <glyph glyph-name="uniF63A" unicode="&#xf63a;" horiz-adv-x="595" 
d="M561 147v-147h-535l169 177q91 95 137 169q36 56 36 104q0 42 -20 64q-18 20 -49 20q-37 0 -58 -27q-22 -28 -24 -82h-179q1 112 74 185q72 72 189 72q119 0 188 -69q65 -65 65 -164q0 -106 -99 -198l-112 -104h218z" />
    <glyph glyph-name="uniF63B" unicode="&#xf63b;" horiz-adv-x="583" 
d="M22 228h177q2 -42 27 -67q24 -26 68 -26q41 0 68 29q20 23 20 55q0 37 -26 59q-23 19 -64 19q-17 0 -29 -4v117q44 -6 71 17q22 19 22 47q0 30 -18 48t-49 18t-48 -17q-23 -21 -23 -59h-161q5 93 65 153q62 65 176 65q106 0 166 -59q54 -54 54 -129q0 -46 -20 -82
q-19 -35 -51 -51q49 -18 79 -61q28 -41 28 -98q0 -87 -59 -146q-71 -71 -199 -71q-117 0 -191 69q-73 67 -83 174z" />
    <glyph glyph-name="uniF63C" unicode="&#xf63c;" horiz-adv-x="602" 
d="M495 667v-408h81v-133h-81v-126h-160v126h-323v111l257 430h226zM178 259h157v272z" />
    <glyph glyph-name="uniF63D" unicode="&#xf63d;" horiz-adv-x="553" 
d="M476 667v-147h-231l-12 -74q31 5 54 5q112 0 176 -66q61 -61 61 -158q0 -101 -64 -167q-73 -75 -208 -75q-130 0 -225 60l26 162q38 -35 80 -54q49 -23 100 -23q56 0 87 33q26 28 26 68q0 44 -32 72q-37 33 -120 33q-67 0 -123 -28l58 359h347z" />
    <glyph glyph-name="uniF63E" unicode="&#xf63e;" horiz-adv-x="608" 
d="M271 667h197l-190 -227q47 21 93 21q87 0 151 -64q63 -63 63 -159q0 -105 -69 -174q-79 -79 -213 -79q-140 0 -219 81q-61 63 -61 156q0 118 99 249zM300 122q46 0 77 31t31 76q0 40 -31 70q-32 31 -77 31q-43 0 -75 -29q-33 -30 -33 -69q0 -45 29 -76q33 -34 79 -34z
" />
    <glyph glyph-name="uniF63F" unicode="&#xf63f;" horiz-adv-x="614" 
d="M34 0l304 520h-278v147h547l-382 -667h-191z" />
    <glyph glyph-name="uniF640" unicode="&#xf640;" horiz-adv-x="567" 
d="M401 351q50 -15 86 -51q51 -50 51 -118q0 -72 -54 -126q-71 -71 -202 -71q-129 0 -199 70q-55 55 -55 127q0 32 14 65.5t35 54.5q33 33 84 49q-36 14 -60 38q-45 45 -45 106q0 74 55 126q66 61 178 61q110 0 172 -64q49 -49 49 -122q0 -63 -41 -104q-27 -27 -68 -41z
M285 566q-34 0 -55 -23q-20 -22 -20 -51q0 -25 21 -48q21 -22 53 -22q29 0 49 20q23 23 23 51q0 32 -23 53q-22 20 -48 20zM283 281q-31 0 -56 -23q-24 -24 -24 -55q0 -33 23 -56q24 -24 57 -24t56 23q24 24 24 57t-24 55q-24 23 -56 23z" />
    <glyph glyph-name="uniF641" unicode="&#xf641;" horiz-adv-x="612" 
d="M339 0h-196l189 225q-39 -21 -89 -21q-91 0 -153 61q-67 66 -67 161q0 102 67 172q82 84 219 84q135 0 214 -79q66 -68 66 -165q0 -114 -101 -245zM311 545q-45 0 -77 -32q-33 -33 -33 -76q0 -42 32 -72t78 -30q44 0 75 28q35 31 35 76q0 42 -32 74q-34 32 -78 32z" />
    <glyph glyph-name="uniF6BA" unicode="&#xf6ba;" horiz-adv-x="353" 
d="M50 274v133h253v-133h-253z" />
    <glyph glyph-name="uniF6BB" unicode="&#xf6bb;" horiz-adv-x="574" 
d="M70 275v132h434v-132h-434z" />
    <glyph glyph-name="uniF6BC" unicode="&#xf6bc;" horiz-adv-x="907" 
d="M70 275v132h767v-132h-767z" />
    <glyph glyph-name="uniF6C3" unicode="&#xf6c3;" 
d="M150 -238l52 188l150 -16l-102 -184z" />
    <glyph glyph-name="uniF6C9" unicode="&#xf6c9;" 
d="M303 929l101 -73l-154 -136l-74 55z" />
    <glyph glyph-name="uniF6CA" unicode="&#xf6ca;" 
d="M249 720l-196 147l68 77l128 -98l127 98l71 -77z" />
    <glyph glyph-name="uniF6CB" unicode="&#xf6cb;" 
d="M363 723q-36 0 -61 27q-25 28 -25 60t26 61q26 26 60 26q35 0 60 -25q27 -27 27 -62q0 -33 -26 -61q-26 -26 -61 -26zM136 723q-36 0 -61 27q-25 28 -25 60t26 61q26 26 60 26q35 0 60 -25q27 -27 27 -62q0 -33 -26 -61q-26 -26 -61 -26z" />
    <glyph glyph-name="uniF6CE" unicode="&#xf6ce;" 
d="M250 720l-154 136l102 73l126 -154z" />
    <glyph glyph-name="uniF6CF" unicode="&#xf6cf;" 
d="M219 929l83 -73l-137 -136l-54 55zM392 929l84 -73l-137 -136l-55 55z" />
    <glyph glyph-name="uniF6D0" unicode="&#xf6d0;" 
d="M62 749v98h376v-98h-376z" />
    <glyph glyph-name="uniF6D1" unicode="&#xf6d1;" 
d="M343 895l116 -44q-24 -66 -82 -97q-47 -26 -128 -26q-78 0 -126 26q-58 31 -82 97l116 44q10 -31 32 -47t61 -16q38 0 61 16q22 16 32 47z" />
    <glyph glyph-name="uniF6D4" unicode="&#xf6d4;" 
d="M327 676l107 -38q-16 -60 -68 -92q-44 -28 -116 -28t-116 28q-52 32 -68 92l107 38q8 -27 23 -42q19 -20 54 -20t54 20q15 15 23 42z" />
    <glyph glyph-name="uniF6DC" unicode="&#xf6dc;" horiz-adv-x="329" 
d="M114 0v520h-95v147h268v-667h-173z" />
    <glyph glyph-name="uniF6DE" unicode="&#xf6de;" horiz-adv-x="680" 
d="M52 199v132h576v-132h-576z" />
    <glyph glyph-name="uniF8FF" unicode="&#xf8ff;" horiz-adv-x="667" 
d="M480 691v-3q0 -78 -48 -126q-15 -15 -44 -32t-43 -17q-17 0 -17 19q0 17 14 50q17 41 40 64q39 39 98 45zM623 457q-31 -22 -53 -53q-27 -38 -27 -87t26 -88q27 -40 73 -60q-26 -78 -75 -137q-50 -59 -94 -59q-17 0 -60 17q-33 13 -65 13q-26 0 -72 -19q-28 -12 -49 -12
q-34 0 -72 35q-48 45 -86 133q-37 86 -37 166q0 105 60 167q52 53 127 53q29 0 70 -15q43 -15 55 -15q15 0 48 12q54 20 90 20q90 0 141 -71z" />
    <glyph glyph-name="uni20B6.fitted" horiz-adv-x="629" 
d="M106 667h276q110 0 171 -57q60 -55 60 -153q0 -102 -59 -156q-61 -56 -166 -56h-109v-56h186v-104h-186v-85h-173v85h-82v104h82v56h-82v120h82v302zM279 527v-162h58q50 0 73 21q22 20 22 61q0 36 -20 56q-24 24 -74 24h-59z" />
    <glyph glyph-name="uni20B4.fitted" horiz-adv-x="570" 
d="M131 498l-67 127q107 57 240 57q100 0 148 -35q54 -41 54 -107q0 -48 -29 -80h68v-105h-151l-66 -62h217v-104h-292q-13 -13 -13 -31q0 -21 18 -31q19 -11 62 -11q80 0 150 37l69 -118q-116 -56 -262 -56q-105 0 -158 33q-62 40 -62 109q0 37 24 68h-58v104h129l66 62
h-195v105h278q16 16 16 36q0 21 -16 34q-19 13 -52 13q-59 0 -118 -45z" />
    <glyph glyph-name="numbersign.fitted" horiz-adv-x="636" 
d="M487 299h101l-17 -117h-102l-29 -182h-134l30 182h-85l-29 -182h-132l30 182h-102l18 117h101l14 83h-101l18 116h101l27 169h132l-28 -169h85l27 169h133l-27 -169h100l-18 -116h-100zM354 299l13 83h-85l-13 -83h85z" />
    <glyph glyph-name="hyphenminus" horiz-adv-x="353" 
d="M50 202v133h253v-133h-253z" />
    <glyph glyph-name="dotlessi1" horiz-adv-x="267" 
d="M53 447h160v-447h-160v447z" />
    <glyph glyph-name="cent.fitted" horiz-adv-x="400" 
d="M222 660h94v-91q27 -2 52 -15v-144q-34 34 -80 34q-45 0 -75 -30q-33 -33 -33 -80q0 -48 33 -79q31 -28 75 -28q46 0 80 34v-144q-27 -13 -52 -14v-93h-94v87q-85 12 -143 70q-67 69 -67 168q0 104 71 173q54 54 139 67v85z" />
    <glyph glyph-name="yen.fitted" horiz-adv-x="635" 
d="M225 329h-163v105h100l-141 233h197l100 -192l96 192h200l-147 -233h105v-105h-171l-6 -9v-53h177v-104h-177v-163h-164v163h-169v104h169v53z" />
    <glyph glyph-name="florin.fitted" horiz-adv-x="618" 
d="M214 113l43 238h-76l16 96h78l21 111q17 86 58 128q53 54 146 54q58 0 107 -25l-26 -139q-28 22 -62 22q-29 0 -46 -18q-14 -17 -24 -68l-12 -65h97l-18 -96h-97l-46 -257q-28 -155 -87 -216q-65 -66 -190 -66q-47 0 -86 9l26 146q25 -9 57 -9q47 0 71 22q31 27 50 133z
" />
    <glyph glyph-name="Euro.fitted" horiz-adv-x="646" 
d="M583 190v-167q-75 -38 -172 -38q-131 0 -211 62q-78 60 -103 168h-78l36 90h30q-2 23 0 50h-66l36 90h43q26 107 112 171q88 65 221 65q104 0 182 -44l-58 -146q-60 38 -131 38q-60 0 -98 -22q-40 -21 -54 -62h268l-36 -90h-250q-3 -22 1 -50h229l-36 -90h-171
q16 -37 56 -58q38 -20 95 -20q94 0 155 53z" />
    <glyph glyph-name="sterling.fitted" horiz-adv-x="624" 
d="M162 252h-125v96h72q-24 56 -24 106q0 93 66 158q69 67 196 67q119 0 180 -62q60 -60 60 -164q0 -18 -1 -25h-174q1 8 1 24q0 46 -24 70q-23 21 -55 21q-36 0 -59 -25q-24 -27 -24 -69q0 -44 25 -101h153v-96h-125q4 -28 4 -50q0 -26 -8 -55l47 -14q67 -20 94 -20
q21 0 32.5 12.5t11.5 31.5h108q-2 -85 -56 -135q-39 -36 -102 -36q-44 0 -106 20l-38 12q-48 15 -89 15q-47 0 -61 -33h-115q13 70 54 112q35 37 88 45q6 18 6 42q0 27 -12 53z" />
    <glyph glyph-name="dollar.fitted" horiz-adv-x="520" 
d="M225 775h100v-110q73 -4 151 -51l-66 -128q-56 43 -112 43q-41 0 -60 -18q-15 -13 -15 -33q0 -19 14 -33q17 -15 46 -25l52 -18q78 -26 116 -63q50 -49 50 -122q0 -92 -56 -151q-45 -46 -120 -65v-113h-100v108q-57 1 -113 24q-53 22 -97 57l72 134q36 -35 69 -51
q48 -23 91 -23q42 0 65 23q18 18 18 42q0 23 -20 38q-14 10 -45 20l-59 20q-77 26 -110 62q-43 44 -43 116q0 86 50 141q47 52 122 66v110z" />
    </font>
</defs>
</svg>
