<svg width="182" height="37" viewBox="0 0 182 37" fill="none" xmlns="http://www.w3.org/2000/svg">
<path d="M16.7661 19.8222L31.2355 3.65051C30.9965 3.57652 30.7428 3.53662 30.4803 3.53662H3.05188C1.63761 3.53662 0.480469 4.69376 0.480469 6.10803V33.5364C0.480469 33.799 0.520377 34.0526 0.594358 34.2917L16.7661 19.8222Z" fill="#0F9D58"/>
<path d="M16.7663 19.8247L2.29688 35.9964C2.53592 36.0704 2.78958 36.1103 3.05211 36.1103H30.4805C30.743 36.1103 30.9967 36.0704 31.2358 35.9964L16.7663 19.8247Z" fill="#4285F4"/>
<path d="M16.7656 19.822L32.9374 34.2914C33.0113 34.0524 33.0512 33.7987 33.0512 33.5362V6.10777C33.0512 5.84524 33.0113 5.59159 32.9374 5.35254L16.7656 19.822Z" fill="#D2D2D2"/>
<path d="M33.0535 33.5379L17.625 18.1094L14.625 20.6808L30.0535 36.1093H30.482C31.8963 36.1093 33.0535 34.9521 33.0535 33.5379Z" fill="#F1F1F1"/>
<path d="M30.4803 3.53662L0.480469 33.5364C0.480469 34.9507 1.63761 36.1079 3.05188 36.1079H3.48045L33.0517 6.53661V6.10803C33.0517 4.69376 31.8946 3.53662 30.4803 3.53662Z" fill="#FFDE48"/>
<path d="M30.4803 3.53662H3.05188C1.63761 3.53662 0.480469 4.69376 0.480469 6.10803V6.32232C0.480469 4.90804 1.63761 3.7509 3.05188 3.7509H30.4803C31.8946 3.7509 33.0517 4.90804 33.0517 6.32232V6.10803C33.0517 4.69376 31.8946 3.53662 30.4803 3.53662Z" fill="white" fill-opacity="0.2"/>
<path d="M30.4803 35.8961H3.05188C1.63761 35.8961 0.480469 34.739 0.480469 33.3247V33.539C0.480469 34.9533 1.63761 36.1104 3.05188 36.1104H30.4803C31.8946 36.1104 33.0517 34.9533 33.0517 33.539V33.3247C33.0517 34.739 31.8946 35.8961 30.4803 35.8961Z" fill="#263238" fill-opacity="0.1"/>
<path d="M7.76503 9.96503V11.7907H10.3022C10.1007 12.875 9.14931 13.6636 7.76503 13.6636C6.22647 13.6636 4.97505 12.3607 4.97505 10.8264C4.97505 9.29217 6.22647 7.98933 7.76503 7.98933C8.45932 7.98933 9.07645 8.22933 9.56931 8.69218L10.9193 7.34219C10.1007 6.57505 9.03789 6.10791 7.76504 6.10791C5.15934 6.10791 3.05078 8.21647 3.05078 10.8222C3.05078 13.4279 5.15934 15.5364 7.76504 15.5364C10.4865 15.5364 12.2907 13.6207 12.2907 10.9293C12.2907 10.595 12.2607 10.2736 12.205 9.96503L7.76503 9.96503Z" fill="#EEEEEE"/>
<mask id="mask0_2558_13601" style="mask-type:luminance" maskUnits="userSpaceOnUse" x="0" y="0" width="37" height="37">
<path d="M27.9089 0.109375C25.106 0.109375 22.6161 1.45508 21.0518 3.53792H3.05188C1.63761 3.53792 0.480469 4.69506 0.480469 6.10934V33.5378C0.480469 34.952 1.63761 36.1092 3.05188 36.1092H30.4803C31.8946 36.1092 33.0517 34.952 33.0517 33.5378V16.7507C34.8517 14.1193 36.4803 11.7493 36.4803 8.68076C36.4803 3.94507 32.6446 0.109375 27.9089 0.109375Z" fill="white"/>
</mask>
<g mask="url(#mask0_2558_13601)">
<g opacity="0.25" filter="url(#filter0_f_2558_13601)">
<path d="M27.9112 0.109375C23.1755 0.109375 19.3398 3.94507 19.3398 8.68076C19.3398 15.1393 26.5527 18.5036 27.4055 27.7221C27.4312 27.9792 27.6498 28.1806 27.9112 28.1806C28.1726 28.1806 28.3955 27.9792 28.4169 27.7221C29.2698 18.5035 36.4826 15.1393 36.4826 8.68076C36.4826 3.94507 32.6469 0.109375 27.9112 0.109375Z" fill="#DB4437"/>
</g>
</g>
<path d="M27.9112 0.109375C23.1755 0.109375 19.3398 3.94507 19.3398 8.68076C19.3398 15.1393 26.5527 18.5036 27.4055 27.7221C27.4312 27.9792 27.6498 28.1806 27.9112 28.1806C28.1726 28.1806 28.3955 27.9792 28.4169 27.7221C29.2698 18.5035 36.4826 15.1393 36.4826 8.68076C36.4826 3.94507 32.6469 0.109375 27.9112 0.109375Z" fill="#DB4437"/>
<path d="M27.9101 11.6821C29.567 11.6821 30.9101 10.339 30.9101 8.68211C30.9101 7.02527 29.567 5.68213 27.9101 5.68213C26.2533 5.68213 24.9102 7.02527 24.9102 8.68211C24.9102 10.339 26.2533 11.6821 27.9101 11.6821Z" fill="#7B231E"/>
<path d="M27.9112 0.323658C32.604 0.323658 36.414 4.09506 36.4783 8.77075C36.4783 8.74076 36.4826 8.71075 36.4826 8.68076C36.4826 3.94507 32.6469 0.109375 27.9112 0.109375C23.1755 0.109375 19.3398 3.94507 19.3398 8.68076C19.3398 8.71075 19.3441 8.74076 19.3441 8.77075C19.4084 4.09507 23.2184 0.323658 27.9112 0.323658Z" fill="white" fill-opacity="0.2"/>
<path d="M28.4169 27.506C28.3955 27.7631 28.1726 27.9646 27.9112 27.9646C27.6498 27.9646 27.4269 27.7631 27.4055 27.506C26.5612 18.3303 19.4127 14.9532 19.3441 8.55469C19.3441 8.59754 19.3398 8.63612 19.3398 8.67897C19.3398 15.1375 26.5527 18.5018 27.4055 27.7203C27.4312 27.9774 27.6498 28.1789 27.9112 28.1789C28.1727 28.1789 28.3955 27.9774 28.4169 27.7203C29.2698 18.5018 36.4826 15.1375 36.4826 8.67897C36.4826 8.63612 36.4783 8.59754 36.4783 8.55469C36.4097 14.9532 29.2655 18.3346 28.4169 27.506Z" fill="#3E2723" fill-opacity="0.2"/>
<path d="M53.0205 2.54937V10.1994H54.2505V11.2194H53.0205V13.1094H51.9105V11.2194H46.7805L53.0205 2.54937ZM48.7455 10.1994H51.9105V5.77437L48.7455 10.1994ZM56.1909 13.0344C56.0409 12.8844 55.9659 12.7094 55.9659 12.5094C55.9659 12.3094 56.0409 12.1344 56.1909 11.9844C56.3409 11.8344 56.5159 11.7594 56.7159 11.7594C56.9159 11.7594 57.0909 11.8344 57.2409 11.9844C57.3909 12.1344 57.4659 12.3094 57.4659 12.5094C57.4659 12.7094 57.3909 12.8844 57.2409 13.0344C57.0909 13.1844 56.9159 13.2594 56.7159 13.2594C56.5159 13.2594 56.3409 13.1844 56.1909 13.0344ZM63.4589 2.86437L64.2989 3.49437L62.0039 6.68937C62.2839 6.59937 62.5789 6.55437 62.8889 6.55437C63.8389 6.55437 64.6139 6.86937 65.2139 7.49937C65.8239 8.12937 66.1289 8.91437 66.1289 9.85437C66.1289 10.8544 65.8039 11.6794 65.1539 12.3294C64.5139 12.9694 63.6939 13.2894 62.6939 13.2894C61.9539 13.2894 61.3089 13.1144 60.7589 12.7644C60.2189 12.4044 59.8289 11.9744 59.5889 11.4744C59.3489 10.9644 59.2289 10.4344 59.2289 9.88437C59.2289 9.12437 59.5039 8.35937 60.0539 7.58937L63.4589 2.86437ZM62.6789 12.2694C63.3589 12.2694 63.9189 12.0444 64.3589 11.5944C64.7989 11.1344 65.0189 10.5644 65.0189 9.88437C65.0189 9.21437 64.7939 8.66437 64.3439 8.23437C63.9039 7.79437 63.3439 7.57437 62.6639 7.57437C61.9839 7.57437 61.4239 7.79437 60.9839 8.23437C60.5539 8.67437 60.3389 9.22437 60.3389 9.88437C60.3389 10.5644 60.5539 11.1344 60.9839 11.5944C61.4239 12.0444 61.9889 12.2694 62.6789 12.2694Z" fill="#D9D9D9"/>
<path d="M77.9805 0.109375L80.5785 5.03352L86.0644 5.98273L82.1841 9.97523L82.9766 15.486L77.9805 13.0294L72.9843 15.486L73.7768 9.97523L69.8965 5.98273L75.3825 5.03352L77.9805 0.109375Z" fill="#FFD71D"/>
<path d="M101.98 0.109375L104.578 5.03352L110.064 5.98273L106.184 9.97523L106.977 15.486L101.98 13.0294L96.9843 15.486L97.7768 9.97523L93.8965 5.98273L99.3825 5.03352L101.98 0.109375Z" fill="#FFD71D"/>
<path d="M125.98 0.109375L128.578 5.03352L134.064 5.98273L130.184 9.97523L130.977 15.486L125.98 13.0294L120.984 15.486L121.777 9.97523L117.896 5.98273L123.382 5.03352L125.98 0.109375Z" fill="#FFD71D"/>
<path d="M149.48 0.109375L151.926 5.03352L157.089 5.98273L153.437 9.97523L154.183 15.486L149.48 13.0294L144.778 15.486L145.524 9.97523L141.872 5.98273L147.035 5.03352L149.48 0.109375Z" fill="#FFD71D"/>
<path d="M172.98 0.109375L175.578 5.03352L181.064 5.98273L177.184 9.97523L177.977 15.486L172.98 13.0294L167.984 15.486L168.777 9.97523L164.896 5.98273L170.382 5.03352L172.98 0.109375Z" fill="#FFD71D"/>
<path d="M49.9385 32.1094V24.3484H48.4825L48.9895 23.4384H50.9005V32.1094H49.9385ZM57.2751 27.5984C58.1505 27.9884 58.5881 28.6947 58.5881 29.7174C58.5881 30.4367 58.3541 31.0434 57.8861 31.5374C57.4268 32.0227 56.7768 32.2654 55.9361 32.2654C55.0955 32.2654 54.4411 32.0227 53.9731 31.5374C53.5138 31.0434 53.2841 30.4367 53.2841 29.7174C53.2841 28.6947 53.7218 27.9884 54.5971 27.5984C53.8951 27.191 53.5441 26.5584 53.5441 25.7004C53.5441 25.0417 53.7565 24.4784 54.1811 24.0104C54.6058 23.5337 55.1908 23.2954 55.9361 23.2954C56.6815 23.2954 57.2665 23.5337 57.6911 24.0104C58.1158 24.4784 58.3281 25.0417 58.3281 25.7004C58.3281 26.5584 57.9771 27.191 57.2751 27.5984ZM54.8701 26.7794C55.1561 27.0654 55.5115 27.2084 55.9361 27.2084C56.3608 27.2084 56.7118 27.0654 56.9891 26.7794C57.2751 26.4934 57.4181 26.138 57.4181 25.7134C57.4181 25.254 57.2708 24.8857 56.9761 24.6084C56.6901 24.3224 56.3435 24.1794 55.9361 24.1794C55.5288 24.1794 55.1778 24.3224 54.8831 24.6084C54.5971 24.8857 54.4541 25.254 54.4541 25.7134C54.4541 26.138 54.5928 26.4934 54.8701 26.7794ZM54.7141 30.9134C55.0261 31.2254 55.4335 31.3814 55.9361 31.3814C56.4388 31.3814 56.8461 31.2254 57.1581 30.9134C57.4701 30.5927 57.6261 30.1854 57.6261 29.6914C57.6261 29.206 57.4658 28.8117 57.1451 28.5084C56.8331 28.1964 56.4301 28.0404 55.9361 28.0404C55.4421 28.0404 55.0348 28.1964 54.7141 28.5084C54.4021 28.8117 54.2461 29.206 54.2461 29.6914C54.2461 30.1854 54.4021 30.5927 54.7141 30.9134ZM64.9707 22.9574V29.5874H66.0367V30.4714H64.9707V32.1094H64.0087V30.4714H59.5627L64.9707 22.9574ZM61.2657 29.5874H64.0087V25.7524L61.2657 29.5874ZM71.0594 23.2304L71.7874 23.7764L69.7984 26.5454C70.0411 26.4674 70.2967 26.4284 70.5654 26.4284C71.3887 26.4284 72.0604 26.7014 72.5804 27.2474C73.1091 27.7934 73.3734 28.4737 73.3734 29.2884C73.3734 30.155 73.0917 30.87 72.5284 31.4334C71.9737 31.988 71.2631 32.2654 70.3964 32.2654C69.7551 32.2654 69.1961 32.1137 68.7194 31.8104C68.2514 31.4984 67.9134 31.1257 67.7054 30.6924C67.4974 30.2504 67.3934 29.791 67.3934 29.3144C67.3934 28.6557 67.6317 27.9927 68.1084 27.3254L71.0594 23.2304ZM70.3834 31.3814C70.9727 31.3814 71.4581 31.1864 71.8394 30.7964C72.2207 30.3977 72.4114 29.9037 72.4114 29.3144C72.4114 28.7337 72.2164 28.257 71.8264 27.8844C71.4451 27.503 70.9597 27.3124 70.3704 27.3124C69.7811 27.3124 69.2957 27.503 68.9144 27.8844C68.5417 28.2657 68.3554 28.7424 68.3554 29.3144C68.3554 29.9037 68.5417 30.3977 68.9144 30.7964C69.2957 31.1864 69.7854 31.3814 70.3834 31.3814ZM77.9983 26.7144H80.0393C80.5333 26.7144 80.9103 26.8184 81.1703 27.0264C81.4823 27.2777 81.6383 27.6157 81.6383 28.0404C81.6383 28.5084 81.4433 28.868 81.0533 29.1194C81.3219 29.1887 81.5473 29.31 81.7293 29.4834C82.0153 29.7607 82.1583 30.1074 82.1583 30.5234C82.1583 31.0434 81.9719 31.4507 81.5993 31.7454C81.2786 31.988 80.8539 32.1094 80.3253 32.1094H77.9983V26.7144ZM78.9343 28.9114H79.9223C80.1736 28.9114 80.3729 28.8594 80.5203 28.7554C80.6936 28.6254 80.7803 28.439 80.7803 28.1964C80.7803 27.9797 80.6936 27.8064 80.5203 27.6764C80.3903 27.5897 80.1389 27.5464 79.7663 27.5464H78.9343V28.9114ZM78.9343 31.2774H80.0913C80.4899 31.2774 80.7716 31.2167 80.9363 31.0954C81.1443 30.9394 81.2483 30.74 81.2483 30.4974C81.2483 30.2374 81.1573 30.0337 80.9753 29.8864C80.8106 29.7564 80.5289 29.6914 80.1303 29.6914H78.9343V31.2774ZM83.5842 26.7144H84.5202V32.1094H83.5842V26.7144ZM83.5842 25.1414C83.4542 25.0114 83.3892 24.8554 83.3892 24.6734C83.3892 24.4914 83.4542 24.3354 83.5842 24.2054C83.7142 24.0754 83.8702 24.0104 84.0522 24.0104C84.2342 24.0104 84.3902 24.0754 84.5202 24.2054C84.6502 24.3354 84.7152 24.4914 84.7152 24.6734C84.7152 24.8554 84.6502 25.0114 84.5202 25.1414C84.3902 25.2714 84.2342 25.3364 84.0522 25.3364C83.8702 25.3364 83.7142 25.2714 83.5842 25.1414ZM86.6783 26.7144H90.4743V31.2514H91.2803V33.5394H90.4223V32.1094H86.3143V33.5394H85.4563V31.2514C85.907 31.2427 86.2406 31.0087 86.4573 30.5494C86.6046 30.246 86.6783 29.7694 86.6783 29.1194V26.7144ZM89.5383 31.2514V27.5724H87.6143V29.6004C87.6143 30.3197 87.3976 30.87 86.9643 31.2514H89.5383ZM92.2678 32.1094V26.7144H95.4658V27.5724H93.2038V32.1094H92.2678ZM96.6728 35.0994L98.3888 31.6024L95.9058 26.7144H96.9718L98.8828 30.5754L100.638 26.7144H101.678L97.7128 35.0994H96.6728ZM102.665 26.7144H103.601V28.9244L105.785 26.7144H106.929L104.589 29.1194L107.215 32.1094H105.993L103.887 29.7434L103.601 30.0164V32.1094H102.665V26.7144ZM108.15 26.7144H109.086V32.1094H108.15V26.7144ZM108.15 25.1414C108.02 25.0114 107.955 24.8554 107.955 24.6734C107.955 24.4914 108.02 24.3354 108.15 24.2054C108.28 24.0754 108.436 24.0104 108.618 24.0104C108.8 24.0104 108.956 24.0754 109.086 24.2054C109.216 24.3354 109.281 24.4914 109.281 24.6734C109.281 24.8554 109.216 25.0114 109.086 25.1414C108.956 25.2714 108.8 25.3364 108.618 25.3364C108.436 25.3364 108.28 25.2714 108.15 25.1414ZM110.854 26.7144H112.895C113.389 26.7144 113.766 26.8184 114.026 27.0264C114.338 27.2777 114.494 27.6157 114.494 28.0404C114.494 28.5084 114.299 28.868 113.909 29.1194C114.177 29.1887 114.403 29.31 114.585 29.4834C114.871 29.7607 115.014 30.1074 115.014 30.5234C115.014 31.0434 114.827 31.4507 114.455 31.7454C114.134 31.988 113.709 32.1094 113.181 32.1094H110.854V26.7144ZM111.79 28.9114H112.778C113.029 28.9114 113.228 28.8594 113.376 28.7554C113.549 28.6254 113.636 28.439 113.636 28.1964C113.636 27.9797 113.549 27.8064 113.376 27.6764C113.246 27.5897 112.994 27.5464 112.622 27.5464H111.79V28.9114ZM111.79 31.2774H112.947C113.345 31.2774 113.627 31.2167 113.792 31.0954C114 30.9394 114.104 30.74 114.104 30.4974C114.104 30.2374 114.013 30.0337 113.831 29.8864C113.666 29.7564 113.384 29.6914 112.986 29.6914H111.79V31.2774ZM119.474 32.1094V26.7144H120.41V28.9244H122.958V26.7144H123.894V32.1094H122.958V29.7824H120.41V32.1094H119.474ZM129.79 27.4814V26.7144H130.726V32.1094H129.79V31.3554C129.322 31.962 128.707 32.2654 127.944 32.2654C127.216 32.2654 126.597 32.014 126.085 31.5114C125.574 31.0087 125.318 30.3067 125.318 29.4054C125.318 28.5214 125.57 27.8324 126.072 27.3384C126.584 26.8357 127.208 26.5844 127.944 26.5844C128.724 26.5844 129.34 26.8834 129.79 27.4814ZM128.048 27.4164C127.554 27.4164 127.134 27.594 126.787 27.9494C126.449 28.296 126.28 28.7814 126.28 29.4054C126.28 30.0034 126.436 30.493 126.748 30.8744C127.069 31.247 127.502 31.4334 128.048 31.4334C128.594 31.4334 129.028 31.2384 129.348 30.8484C129.678 30.4584 129.842 29.9817 129.842 29.4184C129.842 28.777 129.66 28.283 129.296 27.9364C128.932 27.5897 128.516 27.4164 128.048 27.4164ZM140.239 28.6644V27.7544H143.853V27.9624C143.853 29.037 143.576 29.9514 143.021 30.7054C142.25 31.7454 141.175 32.2654 139.797 32.2654C138.515 32.2654 137.444 31.8364 136.586 30.9784C135.728 30.1117 135.299 29.0457 135.299 27.7804C135.299 26.515 135.728 25.4534 136.586 24.5954C137.453 23.7287 138.532 23.2954 139.823 23.2954C140.846 23.2954 141.73 23.5814 142.475 24.1534C142.857 24.448 143.19 24.7904 143.476 25.1804L142.761 25.8304C142.51 25.475 142.237 25.176 141.942 24.9334C141.344 24.448 140.642 24.2054 139.836 24.2054C138.805 24.2054 137.956 24.5477 137.288 25.2324C136.621 25.917 136.287 26.7707 136.287 27.7934C136.287 28.5387 136.469 29.193 136.833 29.7564C137.197 30.311 137.639 30.7184 138.159 30.9784C138.688 31.2297 139.238 31.3554 139.81 31.3554C140.382 31.3554 140.902 31.2254 141.37 30.9654C141.847 30.6967 142.211 30.3414 142.462 29.8994C142.679 29.5267 142.796 29.115 142.813 28.6644H140.239ZM149.948 31.4594C149.411 31.9967 148.73 32.2654 147.907 32.2654C147.084 32.2654 146.399 31.9967 145.853 31.4594C145.316 30.922 145.047 30.246 145.047 29.4314C145.047 28.608 145.316 27.9277 145.853 27.3904C146.399 26.853 147.084 26.5844 147.907 26.5844C148.73 26.5844 149.411 26.853 149.948 27.3904C150.494 27.9277 150.767 28.608 150.767 29.4314C150.767 30.246 150.494 30.922 149.948 31.4594ZM149.246 27.9494C148.882 27.594 148.436 27.4164 147.907 27.4164C147.378 27.4164 146.928 27.5984 146.555 27.9624C146.191 28.3177 146.009 28.8074 146.009 29.4314C146.009 30.0554 146.195 30.545 146.568 30.9004C146.941 31.2557 147.387 31.4334 147.907 31.4334C148.427 31.4334 148.873 31.2557 149.246 30.9004C149.619 30.545 149.805 30.0554 149.805 29.4314C149.805 28.7987 149.619 28.3047 149.246 27.9494ZM156.765 31.4594C156.228 31.9967 155.548 32.2654 154.724 32.2654C153.901 32.2654 153.216 31.9967 152.67 31.4594C152.133 30.922 151.864 30.246 151.864 29.4314C151.864 28.608 152.133 27.9277 152.67 27.3904C153.216 26.853 153.901 26.5844 154.724 26.5844C155.548 26.5844 156.228 26.853 156.765 27.3904C157.311 27.9277 157.584 28.608 157.584 29.4314C157.584 30.246 157.311 30.922 156.765 31.4594ZM156.063 27.9494C155.699 27.594 155.253 27.4164 154.724 27.4164C154.196 27.4164 153.745 27.5984 153.372 27.9624C153.008 28.3177 152.826 28.8074 152.826 29.4314C152.826 30.0554 153.013 30.545 153.385 30.9004C153.758 31.2557 154.204 31.4334 154.724 31.4334C155.244 31.4334 155.691 31.2557 156.063 30.9004C156.436 30.545 156.622 30.0554 156.622 29.4314C156.622 28.7987 156.436 28.3047 156.063 27.9494ZM163.154 27.4814V26.7144H164.09V31.9794C164.09 32.924 163.916 33.6304 163.57 34.0984C163.076 34.7657 162.356 35.0994 161.412 35.0994C160.614 35.0994 159.973 34.8567 159.488 34.3714C159.02 33.9034 158.786 33.3227 158.786 32.6294H159.709C159.709 33.0627 159.847 33.4354 160.125 33.7474C160.437 34.094 160.87 34.2674 161.425 34.2674C162.075 34.2674 162.551 34.016 162.855 33.5134C163.054 33.1927 163.154 32.7334 163.154 32.1354V31.3554C162.686 31.962 162.07 32.2654 161.308 32.2654C160.562 32.2654 159.947 32.0227 159.462 31.5374C158.942 31.0174 158.682 30.3067 158.682 29.4054C158.682 28.53 158.942 27.8324 159.462 27.3124C159.964 26.827 160.58 26.5844 161.308 26.5844C162.079 26.5844 162.694 26.8834 163.154 27.4814ZM161.412 27.4164C160.935 27.4164 160.528 27.5854 160.19 27.9234C159.826 28.296 159.644 28.79 159.644 29.4054C159.644 30.09 159.847 30.6187 160.255 30.9914C160.575 31.286 160.961 31.4334 161.412 31.4334C161.897 31.4334 162.291 31.2817 162.595 30.9784C163.002 30.5884 163.206 30.0684 163.206 29.4184C163.206 28.7684 163.015 28.2614 162.634 27.8974C162.313 27.5767 161.906 27.4164 161.412 27.4164ZM165.863 22.6324H166.799V32.1094H165.863V22.6324ZM172.571 30.3024L173.351 30.7314C173.169 31.078 172.948 31.3684 172.688 31.6024C172.194 32.0444 171.596 32.2654 170.894 32.2654C170.166 32.2654 169.537 32.0314 169.009 31.5634C168.489 31.0867 168.229 30.3804 168.229 29.4444C168.229 28.621 168.463 27.9407 168.931 27.4034C169.407 26.8574 170.044 26.5844 170.842 26.5844C171.743 26.5844 172.423 26.9137 172.883 27.5724C173.247 28.0924 173.416 28.7684 173.39 29.6004H169.191C169.199 30.1464 169.368 30.5884 169.698 30.9264C170.027 31.2644 170.43 31.4334 170.907 31.4334C171.331 31.4334 171.7 31.3034 172.012 31.0434C172.254 30.8354 172.441 30.5884 172.571 30.3024ZM169.256 28.8204H172.428C172.35 28.3957 172.163 28.0577 171.869 27.8064C171.583 27.5464 171.24 27.4164 170.842 27.4164C170.452 27.4164 170.105 27.5507 169.802 27.8194C169.507 28.0794 169.325 28.413 169.256 28.8204Z" fill="#D9D9D9"/>
<defs>
<filter id="filter0_f_2558_13601" x="-1180.66" y="-1199.89" width="2417.14" height="2428.07" filterUnits="userSpaceOnUse" color-interpolation-filters="sRGB">
<feFlood flood-opacity="0" result="BackgroundImageFix"/>
<feBlend mode="normal" in="SourceGraphic" in2="BackgroundImageFix" result="shape"/>
<feGaussianBlur stdDeviation="600" result="effect1_foregroundBlur_2558_13601"/>
</filter>
</defs>
</svg>
