<svg width="32" height="32" viewBox="0 0 32 32" fill="none" xmlns="http://www.w3.org/2000/svg">
<g id="icon_about">
<g id="Group 30711">
<g id="Group 30698">
<path id="Vector" d="M12 25C18.0751 25 23 20.0751 23 14C23 7.92487 18.0751 3 12 3C5.92487 3 1 7.92487 1 14C1 20.0751 5.92487 25 12 25Z" fill="#FFD71C"/>
</g>
<g id="Vector_2">
<path id="Vector-14" d="M24.1429 8.5C23.8667 8.49999 23.6429 8.72385 23.6429 8.99999C23.6429 9.27613 23.8667 9.49999 24.1428 9.5L24.1429 8.5ZM26.8757 9.53714L27.0651 9.0744L27.0649 9.07433L26.8757 9.53714ZM30.0814 12.1429L29.6671 12.4228L29.6674 12.4233L30.0814 12.1429ZM31.2857 16.0571H31.7857L31.7857 16.0563L31.2857 16.0571ZM29.1929 21.0471L28.7893 20.752C28.7832 20.7603 28.7774 20.7688 28.7718 20.7775L29.1929 21.0471ZM27.1186 24.2857L26.6975 24.016L26.6958 24.0188L27.1186 24.2857ZM24.1429 29L23.7203 29.2673C23.812 29.4122 23.9716 29.5001 24.1431 29.5C24.3146 29.4999 24.4741 29.4119 24.5657 29.2669L24.1429 29ZM21.1671 24.2957L21.5897 24.0284L21.5884 24.0264L21.1671 24.2957ZM19.0929 21.0514L19.5141 20.7821C19.5086 20.7734 19.5028 20.765 19.4967 20.7567L19.0929 21.0514ZM17 16.0614L16.5 16.0609V16.0614H17ZM18.2043 12.1429L18.6183 12.4233L18.6183 12.4232L18.2043 12.1429ZM21.41 9.54143L21.5991 10.0043L21.6 10.0039L21.41 9.54143ZM24.1436 9.5C24.4197 9.49959 24.6433 9.27541 24.6429 8.99926C24.6425 8.72312 24.4183 8.49959 24.1421 8.5L24.1436 9.5ZM24.1546 17.9107C23.8785 17.9107 23.6546 18.1345 23.6546 18.4107C23.6546 18.6868 23.8785 18.9107 24.1546 18.9107V17.9107ZM24.1546 13.205C23.8785 13.205 23.6546 13.4288 23.6546 13.705C23.6546 13.9811 23.8785 14.205 24.1546 14.205V13.205ZM24.1435 18.9191C24.4196 18.9123 24.6379 18.683 24.6311 18.4069C24.6243 18.1309 24.395 17.9126 24.1189 17.9194L24.1435 18.9191ZM22.0453 17.2602L22.4763 17.0067L22.0453 17.2602ZM22.0453 14.874L21.6144 14.6204L22.0453 14.874ZM24.1189 14.2148C24.395 14.2216 24.6243 14.0033 24.6311 13.7273C24.6379 13.4512 24.4196 13.2219 24.1435 13.2151L24.1189 14.2148ZM24.1428 9.5C25.0151 9.50002 25.8791 9.66983 26.6865 9.99995L27.0649 9.07433C26.1374 8.69509 25.1449 8.50002 24.1429 8.5L24.1428 9.5ZM26.6863 9.99989C27.8973 10.4955 28.9345 11.3386 29.6671 12.4228L30.4957 11.8629C29.6526 10.6151 28.4589 9.64484 27.0651 9.0744L26.6863 9.99989ZM29.6674 12.4233C30.3942 13.4962 30.7836 14.762 30.7857 16.0579L31.7857 16.0563C31.7833 14.561 31.334 13.1005 30.4954 11.8625L29.6674 12.4233ZM30.7857 16.0571C30.7857 16.9308 30.6484 17.5964 30.3437 18.2835C30.0315 18.9874 29.5374 19.729 28.7893 20.752L29.5964 21.3423C30.3455 20.3181 30.8978 19.5005 31.2578 18.689C31.6251 17.8608 31.7857 17.055 31.7857 16.0571H30.7857ZM28.7718 20.7775L26.6975 24.016L27.5396 24.5554L29.6139 21.3168L28.7718 20.7775ZM26.6958 24.0188L23.72 28.7331L24.5657 29.2669L27.5414 24.5526L26.6958 24.0188ZM24.5654 28.7327L21.5897 24.0284L20.7446 24.563L23.7203 29.2673L24.5654 28.7327ZM21.5884 24.0264L19.5141 20.7821L18.6716 21.3208L20.7459 24.5651L21.5884 24.0264ZM19.4967 20.7567C18.7484 19.7312 18.2543 18.9896 17.942 18.2861C17.6372 17.5995 17.5 16.935 17.5 16.0614H16.5C16.5 17.0593 16.6606 17.8641 17.028 18.6918C17.3879 19.5026 17.9402 20.3202 18.689 21.3462L19.4967 20.7567ZM17.5 16.0619C17.5013 14.7646 17.8907 13.4974 18.6183 12.4233L17.7903 11.8625C16.9509 13.1018 16.5015 14.564 16.5 16.0609L17.5 16.0619ZM18.6183 12.4232C19.3515 11.3405 20.3886 10.4989 21.5991 10.0043L21.2209 9.07857C19.8277 9.64777 18.6341 10.6164 17.7903 11.8625L18.6183 12.4232ZM21.6 10.0039C22.4071 9.67245 23.271 9.50128 24.1436 9.5L24.1421 8.5C23.1398 8.50148 22.1473 8.69811 21.22 9.07892L21.6 10.0039ZM24.1546 18.9107C25.1738 18.9107 26.1156 18.3669 26.6253 17.4843L25.7592 16.9843C25.4282 17.5575 24.8166 17.9107 24.1546 17.9107V18.9107ZM26.6253 17.4843C27.1349 16.6016 27.1349 15.5141 26.6253 14.6314L25.7592 15.1314C26.0902 15.7047 26.0902 16.411 25.7592 16.9843L26.6253 17.4843ZM26.6253 14.6314C26.1156 13.7487 25.1738 13.205 24.1546 13.205V14.205C24.8166 14.205 25.4282 14.5581 25.7592 15.1314L26.6253 14.6314ZM24.1189 17.9194C23.4463 17.936 22.8175 17.5866 22.4763 17.0067L21.6144 17.5138C22.1398 18.4067 23.1079 18.9446 24.1435 18.9191L24.1189 17.9194ZM22.4763 17.0067C22.1351 16.4267 22.1351 15.7074 22.4763 15.1275L21.6144 14.6204C21.0891 15.5133 21.0891 16.6209 21.6144 17.5138L22.4763 17.0067ZM22.4763 15.1275C22.8175 14.5476 23.4463 14.1982 24.1189 14.2148L24.1435 13.2151C23.1079 13.1896 22.1398 13.7275 21.6144 14.6204L22.4763 15.1275Z" fill="black"/>
</g>
</g>
</g>
</svg>
