<svg width="32" height="32" viewBox="0 0 32 32" fill="none" xmlns="http://www.w3.org/2000/svg">
<g id="icon_6">
<g id="Group 30706">
<path id="Vector" d="M12 24C18.0751 24 23 19.0751 23 13C23 6.92487 18.0751 2 12 2C5.92487 2 1 6.92487 1 13C1 19.0751 5.92487 24 12 24Z" fill="#FFD71C"/>
<g id="Group 30696">
<path id="Vector_2" d="M30.9561 19.6187C31.1389 19.1451 31.521 19.0537 31.2386 18.5802L30.9561 18.2977C30.574 17.7328 30.8564 18.0153 30.9561 17.6414C31.104 17.4499 31.2012 17.2241 31.2386 16.9851C31.2386 16.794 31.1389 16.7026 30.9561 16.5115C30.574 16.1377 30.3912 16.2291 30.4826 15.6807C30.574 15.1324 30.6736 15.0244 30.2001 14.6423C30.1626 14.6072 30.1179 14.5808 30.0691 14.565C30.0202 14.5492 29.9685 14.5444 29.9176 14.5509C29.6352 14.2684 29.7266 13.9859 29.6352 13.7201C29.6494 13.5568 29.6177 13.3928 29.5438 13.2465C29.2613 12.7813 28.605 13.0638 28.4139 12.4988C28.2228 11.9339 28.4139 11.7428 27.7576 11.5601C27.3754 11.4604 27.1927 11.6514 27.0016 11.2776C26.9102 11.0865 26.9102 10.804 26.7191 10.613C26.528 10.4219 26.1459 10.397 25.7803 10.397C25.2154 10.397 25.1157 9.83202 24.6505 9.64094C24.1852 9.44986 23.9858 9.83202 23.612 9.83202C23.2381 9.83202 23.047 9.26708 22.5818 9.16739C22.1166 9.0677 21.9172 9.54955 21.5433 9.54955C21.1695 9.54955 20.887 9.076 20.4134 9.16739C20.0344 9.27644 19.7035 9.51072 19.4747 9.83202C19.0011 9.64094 18.6439 9.35847 18.1537 9.73232C17.8712 9.83202 17.8712 10.2059 17.6802 10.2973C17.4891 10.3886 17.1152 10.2973 16.8494 10.397C16.6746 10.3986 16.5064 10.4636 16.3758 10.5797C16.0934 10.7708 16.0934 11.4105 15.9023 11.5268C15.5284 11.7096 15.0715 11.4271 14.681 11.8093C14.5896 11.9007 14.5896 11.9921 14.4899 12.0918C14.4507 12.245 14.4201 12.4003 14.3986 12.557C14.4899 12.8395 14.3986 12.9308 14.1161 12.9308C13.8336 12.9308 13.6425 13.0305 13.4598 13.1219C13.277 13.2133 13.1773 13.4044 13.1773 13.5955C13.0776 13.9693 13.3601 14.1604 12.9862 14.5343C12.8948 14.6256 12.6124 14.6256 12.5127 14.8167C12.413 15.0078 12.2302 15.0078 12.2302 15.1906C12.1388 15.7555 12.6124 15.9466 12.1388 16.4201C11.8564 16.7026 11.5739 16.794 11.5739 17.1679C11.5739 17.5417 11.9477 17.7328 11.9477 17.9239C11.9477 18.1149 11.5739 18.5802 11.3828 18.8627V18.954C11.3828 19.2365 11.4825 19.3362 11.6653 19.6187C11.9477 20.0839 11.9477 20.0839 11.765 20.5575C11.6636 20.6983 11.6169 20.8713 11.6337 21.0441C11.6506 21.2168 11.7297 21.3776 11.8564 21.4962C12.0474 21.6873 12.3299 21.7787 12.4213 22.0612C12.5127 22.3436 12.2302 22.5347 12.2302 22.7258C12.2141 22.8619 12.2426 22.9995 12.3116 23.1178C12.3805 23.2362 12.4861 23.329 12.6124 23.3821C12.7042 23.4013 12.7989 23.4019 12.8909 23.3836C12.9829 23.3654 13.0702 23.3289 13.1478 23.2761C13.2253 23.2234 13.2915 23.1556 13.3422 23.0767C13.393 22.9979 13.4273 22.9096 13.4432 22.8172C13.5168 22.5467 13.5477 22.2664 13.5345 21.9864C13.5345 21.7953 13.6259 21.7039 13.5345 21.6125C13.4432 21.5212 13.3435 21.4215 13.2521 21.3301C12.9696 21.2304 12.8782 21.0476 12.7785 20.7652C12.8782 20.6655 12.8782 20.5741 12.9696 20.4827C13.1607 19.8181 13.1607 19.9177 12.7785 19.3528C12.3964 18.7879 12.9696 18.7879 13.061 18.2229C13.1607 17.9405 13.061 18.0319 12.9696 17.7494C12.8635 17.6589 12.7952 17.5318 12.7782 17.3934C12.7613 17.2549 12.797 17.1151 12.8782 17.0017C12.9696 16.902 13.061 16.902 13.1607 16.8106C13.3435 16.5281 13.5345 16.5281 13.4432 16.0546C13.3518 15.5811 13.2521 15.4897 13.6259 15.1158C13.7256 15.0244 13.9084 15.0244 14.0081 14.8333C14.2906 14.5509 14.0995 14.2684 14.1909 13.8946C14.2823 13.5207 14.6644 13.6121 15.0217 13.421C15.3789 13.2299 15.4038 12.7647 15.4038 12.2911C16.2346 12.2911 16.5337 12.1084 16.9075 11.1613C17.19 11.1613 17.4725 11.3524 17.8463 11.261C18.0094 11.1985 18.1546 11.0969 18.269 10.965C18.3835 10.8332 18.4637 10.6752 18.5026 10.505C18.7792 10.6487 19.0977 10.69 19.4017 10.6216C19.7058 10.5531 19.9759 10.3794 20.1642 10.1311C20.2998 10.2651 20.4629 10.3679 20.6423 10.4325C20.8216 10.497 21.0128 10.5218 21.2027 10.505C21.508 10.4565 21.7948 10.3274 22.0335 10.1311C22.6898 10.7874 22.9723 10.7874 23.8197 10.505C24.2932 11.3357 24.5757 11.4437 25.4812 11.261C25.5726 11.5434 25.6723 12.0087 25.9548 12.1998C26.2373 12.3908 26.5197 12.1998 26.7856 12.2911C27.0514 12.3825 26.9683 12.5736 27.068 12.9475C27.0585 13.022 27.0707 13.0977 27.1031 13.1655C27.1355 13.2333 27.1868 13.2903 27.2508 13.3296C27.3505 13.421 27.4419 13.421 27.5333 13.5124C27.9154 13.7035 28.0982 13.5124 28.2893 13.8946C28.4804 14.2767 28.1979 14.5509 28.3807 14.9247C28.4804 15.0244 28.5718 15.0244 28.6631 15.1158C28.7938 15.1436 28.9115 15.2143 28.9973 15.3167C29.0831 15.4191 29.1322 15.5472 29.1367 15.6807C29.1367 15.7721 29.037 15.8718 29.037 15.9632C29.0308 16.1273 29.0674 16.2901 29.1431 16.4357C29.2189 16.5814 29.3312 16.7048 29.469 16.794C29.6601 16.8854 29.8512 16.9851 29.7515 17.2675C29.8512 17.4503 29.7515 17.6414 29.6601 17.8325C29.5687 18.2063 29.469 18.0153 29.5687 18.3974C29.5687 18.5802 29.9426 18.7713 29.9426 18.954C30.1336 19.4276 29.7515 19.519 29.5687 19.7848C29.3859 20.0507 29.5687 20.2584 29.6601 20.6156C29.8512 21.2802 29.2862 21.1805 29.0952 21.6541C28.9041 22.1276 29.3776 22.4849 29.1865 22.8753C29.0952 23.0664 28.6299 23.0664 28.4388 23.3489C28.2478 23.6314 28.4388 23.4403 28.3474 23.8224C28.4388 24.0052 28.4388 24.1963 28.1564 24.3874C28.065 24.4788 28.065 24.5701 27.8739 24.5701C27.2176 24.944 27.2176 25.0437 27.1179 25.7914C26.2871 25.7914 25.988 25.9825 25.6142 26.8299C25.2925 26.7389 24.9491 26.7649 24.6448 26.9034C24.3406 27.0418 24.0953 27.2836 23.9526 27.5859C23.6701 27.4862 23.3877 27.2037 23.0138 27.3034C22.8557 27.3405 22.7069 27.4098 22.5768 27.507C22.4468 27.6042 22.3381 27.7272 22.2578 27.8684C22.0169 27.6393 21.6971 27.5115 21.3647 27.5115C21.0323 27.5115 20.7125 27.6393 20.4716 27.8684C20.1891 27.5859 20.0977 27.3034 19.7156 27.2037C19.3501 27.1781 18.9867 27.2777 18.6854 27.4862C18.4943 27.1123 18.3033 26.7385 17.8546 26.6554C17.6635 26.6554 17.2897 26.8465 17.19 26.7551C16.8161 26.6554 16.9158 26.1902 16.7248 25.9991C16.3509 25.6252 15.786 25.9077 15.5035 25.6252C15.221 25.3428 15.5035 25.0603 15.3124 24.7945C15.1213 24.5286 14.9386 24.512 14.5564 24.4206C14.1743 24.3292 13.0527 23.6646 13.0527 24.6034C13.0527 25.2597 13.8087 24.9772 14.1826 25.2597C14.5564 25.5422 14.1826 26.2068 14.6561 26.4893C14.8389 26.5806 14.9386 26.4893 15.1213 26.5806C16.1598 26.9545 15.5949 26.8631 15.9521 27.4114C16.2346 27.6939 16.4257 27.6025 16.7829 27.6939C16.9119 27.635 17.0571 27.6218 17.1945 27.6566C17.332 27.6913 17.4535 27.7719 17.5389 27.885C17.6303 27.9764 17.6303 28.0678 17.7217 28.1674C17.8339 28.2805 17.9628 28.3758 18.1039 28.4499C18.4777 28.5413 18.7602 28.2588 19.134 28.2588C19.5079 28.2588 19.4165 28.4499 19.699 28.6327C19.7728 28.7048 19.8619 28.7594 19.9597 28.7925C20.0575 28.8255 20.1614 28.8362 20.2639 28.8238C20.6461 28.8238 20.8288 28.4499 21.0947 28.4499C21.5682 28.3502 21.8507 28.9152 22.3243 28.8238C22.7978 28.7324 22.8892 28.4499 23.155 28.1674C23.6286 28.3502 24.1021 28.6327 24.5674 28.2588C24.6671 28.1674 24.6671 28.0678 24.7585 28.0678C25.1323 27.6939 24.8498 27.6939 25.4148 27.6939C25.6972 27.6939 25.7969 27.7853 26.0794 27.6939C26.2707 27.6227 26.4339 27.4915 26.5446 27.32C26.7357 27.129 26.6443 26.7551 26.9268 26.564C27.0182 26.4726 27.2093 26.564 27.3007 26.564C28.1314 26.2816 28.1314 26.1902 28.3391 25.2431C28.6216 25.1517 28.9955 25.1517 29.1699 24.9606C29.6435 24.6865 29.361 24.4954 29.4524 24.0218C29.5521 23.3655 30.117 23.5566 30.2832 23.083C30.3331 22.9808 30.359 22.8686 30.359 22.7549C30.359 22.6411 30.3331 22.5289 30.2832 22.4267C30.1918 22.1443 30.1004 22.1443 30.2832 21.7621C30.3829 21.5793 30.5656 21.5793 30.6653 21.3882C31.4214 20.6488 30.574 20.3664 30.9561 19.6187Z" fill="black"/>
<path id="Vector_3" d="M27.1928 19.9014C27.2413 19.9621 27.3013 20.0126 27.3693 20.05C27.4373 20.0875 27.5121 20.1111 27.5893 20.1196C27.6664 20.1281 27.7446 20.1213 27.8191 20.0995C27.8936 20.0777 27.9631 20.0415 28.0236 19.9928C28.3975 19.7103 28.3975 19.054 28.3061 18.5804C28.2395 17.3017 27.8146 16.0674 27.0801 15.0186C26.3456 13.9697 25.3311 13.1485 24.1522 12.6486C23.0068 12.1502 21.7497 11.9644 20.5091 12.1104C19.2686 12.2563 18.0889 12.7287 17.0905 13.4794C15.9524 14.3438 15.1149 15.5442 14.6967 16.9108C14.2784 18.2774 14.3006 19.7409 14.76 21.0942C15.2193 22.4476 16.0927 23.6221 17.2564 24.4517C18.4201 25.2813 19.8153 25.7239 21.2444 25.7169C23.7866 25.7169 26.8938 24.1218 27.5501 21.4799C27.6415 21.106 27.4587 20.8235 26.9852 20.8235C26.5116 20.8235 26.3288 21.5796 26.1544 21.9534C25.4661 23.2096 24.3208 24.1527 22.9558 24.587C21.5436 24.9711 20.0394 24.8234 18.7289 24.1718C17.4183 23.5202 16.3926 22.4101 15.8464 21.0523C15.3002 19.6945 15.2715 18.1833 15.7658 16.8057C16.26 15.4281 17.2429 14.28 18.5278 13.5791C19.8618 12.9116 21.399 12.7736 22.8307 13.1927C24.2623 13.6119 25.4824 14.5572 26.2458 15.8388C26.6317 16.4423 26.8813 17.1228 26.9768 17.8327C27.0487 18.1712 27.0794 18.5171 27.0682 18.8629C27.1928 19.3364 27.0932 19.7103 27.1928 19.9014Z" fill="black"/>
<path id="Vector_4" d="M25.5902 19.6183C25.7813 19.6183 25.8727 19.5186 25.9641 19.3358C26.0534 19.1952 26.0888 19.027 26.0638 18.8623C26.0787 18.7296 26.0431 18.5961 25.9641 18.4884C25.8727 18.3971 25.7813 18.2974 25.6816 18.2974C25.5819 18.2974 25.3077 18.2974 25.1167 18.2974C25.0365 18.3115 24.9607 18.3445 24.8958 18.3936C24.8308 18.4427 24.7784 18.5065 24.7428 18.5798C24.6514 18.6712 24.6514 18.7709 24.6514 18.9537C24.638 19.0877 24.6702 19.2224 24.7428 19.3358C24.8342 19.4272 24.8342 19.5186 25.0253 19.5186C25.3161 19.7097 25.4988 19.7097 25.5902 19.6183Z" fill="black"/>
<path id="Vector_5" d="M21.6384 22.5344C21.4455 22.5206 21.2521 22.5519 21.0734 22.6258C20.8907 22.7255 20.791 22.7255 20.6996 22.9083C20.6787 22.9254 20.6619 22.947 20.6503 22.9714C20.6388 22.9958 20.6328 23.0225 20.6328 23.0495C20.6328 23.0765 20.6388 23.1032 20.6503 23.1276C20.6619 23.152 20.6787 23.1736 20.6996 23.1907C20.7426 23.3051 20.82 23.4033 20.9212 23.4717C21.0224 23.5402 21.1424 23.5755 21.2645 23.5729H21.3559C21.547 23.5729 21.7381 23.4732 21.9208 23.4732C22.1036 23.4732 22.1119 23.3818 22.2033 23.1907C22.2477 23.0854 22.251 22.9672 22.2126 22.8596C22.1741 22.7519 22.0967 22.6626 21.9956 22.6092C21.9208 22.6092 21.7381 22.5344 21.6384 22.5344Z" fill="black"/>
<path id="Vector_6" d="M21.9131 15.3813C22.0128 15.2899 22.1041 15.2899 22.1041 15.1902V14.7249C22.1041 14.4425 21.6306 14.3428 21.4478 14.3428C21.0657 14.3428 20.5007 14.5339 20.617 15.0074C20.623 15.1046 20.6642 15.1963 20.7331 15.2652C20.802 15.3341 20.8937 15.3753 20.9909 15.3813C21.1352 15.4488 21.2926 15.4838 21.452 15.4838C21.6113 15.4838 21.7687 15.4488 21.9131 15.3813Z" fill="black"/>
<path id="Vector_7" d="M18.8129 16.603C18.9412 16.543 19.0521 16.4513 19.135 16.3364C19.2179 16.2215 19.27 16.0874 19.2864 15.9467C19.2864 15.8553 19.195 15.7556 19.195 15.6642C19.0816 15.5916 18.9469 15.5594 18.8129 15.5728C18.5018 15.6004 18.2091 15.7321 17.9821 15.9467C17.9226 16.0288 17.8906 16.1277 17.8906 16.2291C17.8906 16.3306 17.9226 16.4294 17.9821 16.5116C18.1566 16.7941 18.5304 16.7027 18.8129 16.603Z" fill="black"/>
<path id="Vector_8" d="M24.8287 16.5114C24.9283 16.4201 24.9283 16.4201 24.9283 16.3204C24.9283 16.2207 25.0197 16.1376 25.0197 16.0379C25.0197 15.9382 24.9283 15.8551 24.9283 15.7554L24.6459 15.473C24.4951 15.397 24.3256 15.3661 24.1577 15.3837C23.9898 15.4014 23.8305 15.467 23.6988 15.5727C23.6423 15.6174 23.5966 15.6741 23.565 15.7388C23.5333 15.8035 23.5166 15.8745 23.516 15.9465C23.5117 16.0771 23.5433 16.2065 23.6074 16.3204C23.6752 16.4346 23.7711 16.5297 23.886 16.5966C24.0008 16.6635 24.1308 16.6999 24.2637 16.7025C24.4797 16.7939 24.6459 16.7025 24.8287 16.5114Z" fill="black"/>
<path id="Vector_9" d="M17.2164 18.3971C17.1198 18.3947 17.0245 18.419 16.9409 18.4674C16.8573 18.5158 16.7888 18.5864 16.7428 18.6713C16.6702 18.7848 16.638 18.9194 16.6514 19.0535C16.6494 19.1634 16.674 19.2723 16.7232 19.3706C16.7724 19.469 16.8447 19.554 16.9339 19.6184C17.1167 19.7098 17.3077 19.6184 17.3991 19.6184C17.4905 19.6184 17.6816 19.5187 17.7813 19.3359C17.881 19.1532 17.8727 19.1448 17.8727 18.9538C17.8862 18.8223 17.8539 18.6903 17.7813 18.5799C17.7813 18.3971 17.4988 18.3971 17.2164 18.3971Z" fill="black"/>
<path id="Vector_10" d="M18.5294 22.535C18.9116 22.535 19.2854 22.3439 19.2854 21.97C19.2854 21.8786 19.194 21.6876 19.194 21.5962L18.9116 21.3137C18.7633 21.2301 18.593 21.194 18.4236 21.2104C18.2542 21.2267 18.094 21.2947 17.9645 21.4051C17.9084 21.4502 17.863 21.507 17.8314 21.5717C17.7998 21.6363 17.7829 21.707 17.7817 21.7789C17.7771 21.9122 17.8087 22.0443 17.8731 22.1611C17.952 22.2641 18.0507 22.3502 18.1634 22.4144C18.2761 22.4786 18.4006 22.5196 18.5294 22.535Z" fill="black"/>
<path id="Vector_11" d="M24.546 22.4434C24.6457 22.3437 24.8285 22.2523 24.9282 22.161C25.0251 22.0541 25.0886 21.9213 25.111 21.7788C25.1245 21.6474 25.0922 21.5153 25.0196 21.4049C24.9163 21.3061 24.7863 21.2396 24.6457 21.2139C24.3549 21.2425 24.0852 21.3788 23.8897 21.596C23.8317 21.6399 23.7844 21.6963 23.7513 21.761C23.7182 21.8258 23.7002 21.8972 23.6986 21.9699C23.6837 22.1026 23.7193 22.2361 23.7983 22.3437C23.8897 22.6096 24.2636 22.6096 24.546 22.4434Z" fill="black"/>
<path id="Vector_12" d="M23.5167 18.9543C23.5079 18.5327 23.3668 18.1247 23.1134 17.7877C22.8599 17.4508 22.5069 17.202 22.1044 17.0767C21.6676 16.9371 21.1985 16.9347 20.7603 17.0699C20.3221 17.2051 19.9358 17.4713 19.6536 17.8327C19.3772 18.1552 19.2126 18.5583 19.1841 18.9821C19.1557 19.4058 19.265 19.8273 19.4957 20.1838C19.7435 20.5353 20.0925 20.803 20.4961 20.9514C20.8998 21.0998 21.339 21.1219 21.7555 21.0146C22.2368 20.9169 22.6716 20.661 22.9908 20.2876C23.3099 19.9143 23.495 19.445 23.5167 18.9543Z" fill="black"/>
</g>
</g>
</g>
</svg>
