<svg width="32" height="32" viewBox="0 0 32 32" fill="none" xmlns="http://www.w3.org/2000/svg">
<g id="icon_10">
<g id="Group">
<path id="Vector" d="M12 23C18.0751 23 23 18.0751 23 12C23 5.92487 18.0751 1 12 1C5.92487 1 1 5.92487 1 12C1 18.0751 5.92487 23 12 23Z" fill="#FFD71C"/>
<g id="&#208;&#161;&#208;&#187;&#208;&#190;&#208;&#185;_1_3_">
<g id="Group_2">
<g id="Group_3">
<g id="Vector_2">
<path d="M30.5003 8.75244L30.9749 11.5049H29.8359" fill="#010101"/>
<path d="M30.5003 8.75244L30.9749 11.5049H29.8359" stroke="#010101" stroke-width="0.5279" stroke-miterlimit="10" stroke-linecap="round" stroke-linejoin="round"/>
</g>
<g id="Group_4">
<g id="Group_5">
<path id="Vector_3" d="M30.8832 7.80343L27.6561 7.32887L12.1855 7.89834L12.5651 7.42378C12.755 9.70167 12.8499 11.9796 12.9448 14.2574L13.0397 15.9659C13.0397 16.2506 13.0397 16.5353 13.1346 16.7252C13.2295 16.915 13.3244 17.1997 13.4194 17.3895C13.7041 17.7692 14.1786 18.0539 14.6532 18.1488C15.2227 18.2437 15.7922 18.2437 16.3616 18.3387C15.7922 18.5285 15.2227 18.5285 14.6532 18.5285C13.9888 18.5285 13.3244 18.3387 12.8499 17.7692C12.6601 17.5794 12.4702 17.1997 12.3753 16.915C12.2804 16.5353 12.2804 16.2506 12.2804 16.0608L12.0906 14.2574C11.9008 11.9796 11.8058 9.70167 11.7109 7.42378C11.7109 7.23395 11.9008 6.94922 12.0906 6.94922H27.5612L30.7882 7.51869L30.8832 7.80343Z" fill="#010101"/>
</g>
<g id="Group_6">
<path id="Vector_4" d="M16.6454 18.8132C16.2658 19.003 15.9811 19.3827 15.8861 19.8572C15.7912 20.3318 15.7912 20.7114 15.9811 21.2809C16.1709 22.1351 16.7403 22.8944 17.5946 23.369C19.2081 24.3181 21.2012 24.5079 23.0995 24.5079C24.9977 24.5079 26.9908 24.1283 28.6043 23.1792C29.3636 22.7046 30.028 22.0402 30.2178 21.3758C30.3128 21.0911 30.2178 20.6165 30.1229 20.2369C30.028 19.8572 29.9331 19.4776 29.4586 19.0979C30.028 18.9081 30.5975 19.2878 30.9771 19.8572C31.2619 20.3318 31.4517 20.9013 31.3568 21.6606C31.167 22.325 30.8822 22.7995 30.5975 23.1792C30.2178 23.6537 29.8382 23.9385 29.2687 24.2232C27.4654 25.3621 25.2824 25.6469 23.2893 25.6469C21.2961 25.6469 19.1131 25.3621 17.4047 24.2232C16.5505 23.6537 15.7912 22.7046 15.6014 21.5657C15.5065 21.0911 15.5065 20.5216 15.6963 19.9522C15.8861 19.4776 16.1709 18.9081 16.8353 18.7183C16.9302 18.7183 17.0251 18.7183 17.0251 18.8132C16.8353 18.6234 16.7403 18.7183 16.6454 18.8132Z" fill="#010101"/>
</g>
<g id="Group_7">
<path id="Vector_5" d="M15.9795 22.8941C15.2202 22.8941 14.271 22.7992 13.4168 22.7992C12.9423 22.7992 12.6575 22.7992 12.183 22.7992C11.7084 22.7992 11.4237 22.7992 11.044 22.989C10.8542 23.0839 10.7593 23.1788 10.6644 23.2737C10.5695 23.3686 10.5695 23.4635 10.5695 23.4635C10.5695 23.5584 10.5695 23.6534 10.5695 23.6534C10.5695 23.8432 10.6644 23.8432 10.6644 23.8432C10.7593 23.8432 10.8542 23.8432 10.9491 23.6534C11.1389 23.4635 11.1389 23.2737 11.4237 23.1788C11.6135 22.989 11.8982 22.8941 12.183 22.989C12.3728 22.989 12.6575 23.0839 12.9423 23.1788C13.1321 23.2737 13.4168 23.4635 13.4168 23.8432L13.1321 23.6534L15.1252 23.3686C15.3151 23.3686 15.3151 23.4635 15.41 23.5584L16.5489 27.1651C16.5489 27.26 16.5489 27.3549 16.454 27.3549L14.366 28.0193L14.4609 27.8295C14.5558 28.0193 14.6507 28.2091 14.6507 28.399C14.6507 28.5888 14.5558 28.8735 14.366 29.0633C14.1761 29.2532 13.9863 29.2532 13.7965 29.3481C13.6067 29.443 13.4168 29.443 13.227 29.443C13.0372 29.443 12.7524 29.3481 12.5626 29.1583C12.3728 28.9684 12.3728 28.7786 12.2779 28.7786C12.183 28.6837 12.0881 28.6837 11.9932 28.7786C11.8982 28.7786 11.8033 28.8735 11.8033 28.9684C11.8033 29.0633 11.8033 29.1583 11.8982 29.3481C11.9932 29.5379 12.0881 29.5379 12.0881 29.6328C12.2779 29.8226 12.5626 29.9175 12.8474 30.0125C13.1321 30.1074 13.5117 30.1074 13.7965 30.0125C14.0812 29.9175 14.366 29.8226 14.6507 29.6328C15.8845 28.8735 17.0235 28.0193 18.5421 27.5447C18.9217 27.3549 19.3014 27.3549 19.681 27.26C20.0607 27.1651 20.4403 27.1651 20.82 27.0702C21.5793 26.8804 22.2436 26.7855 22.908 26.5956C23.0979 26.5007 23.1928 26.5956 23.2877 26.7855C23.3826 26.9753 23.2877 27.0702 23.0979 27.1651C22.3386 27.4498 21.6742 27.5447 20.9149 27.6397C20.4403 27.5447 20.0607 27.5447 19.681 27.6397C19.3014 27.7346 19.0166 27.8295 18.7319 28.0193C17.4031 28.5888 16.3591 29.443 15.0303 30.2972C14.7456 30.487 14.271 30.6768 13.8914 30.7718C13.4168 30.8667 13.1321 30.7718 12.6575 30.6768C12.2779 30.5819 11.8982 30.487 11.5186 30.1074C11.2339 29.9175 11.1389 29.6328 11.044 29.443C10.9491 29.2532 10.9491 29.2532 10.9491 29.0633C10.9491 28.9684 10.9491 28.7786 11.044 28.6837C11.1389 28.399 11.4237 28.2091 11.7084 28.2091C11.8982 28.1142 12.183 28.2091 12.4677 28.399C12.6575 28.5888 12.7524 28.8735 12.8474 28.8735C12.9423 28.9684 13.0372 29.0633 13.1321 29.0633C13.4168 29.0633 13.7965 28.9684 13.9863 28.8735C14.1761 28.6837 14.1761 28.399 14.0812 28.1142C13.9863 28.0193 14.0812 27.9244 14.1761 27.9244L16.2642 27.26L16.1693 27.4498L14.9354 23.8432L15.2202 24.033L13.3219 24.2228C13.1321 24.2228 13.1321 24.1279 13.0372 24.033V23.9381C13.0372 23.7483 12.5626 23.5584 12.2779 23.5584C12.0881 23.5584 11.9932 23.6534 11.8033 23.7483C11.6135 23.8432 11.6135 24.033 11.4237 24.2228C11.2339 24.4127 10.9491 24.6974 10.6644 24.6974C10.4746 24.6974 10.2847 24.5076 10.1898 24.4127C10.0949 24.2228 10 24.1279 10 23.9381C10 23.7483 10 23.6534 10 23.4635C10.0949 23.2737 10.1898 23.0839 10.1898 22.989C10.3796 22.7992 10.5695 22.6093 10.7593 22.5144C10.9491 22.3246 11.2339 22.3246 11.5186 22.3246C11.7084 22.3246 11.9932 22.2297 12.183 22.2297C12.6575 22.2297 13.0372 22.1348 13.5117 22.1348C14.366 22.1348 15.2202 22.1348 16.0744 22.1348C16.2642 22.1348 16.5489 22.3246 16.5489 22.6093C16.454 22.7991 16.2642 22.8941 15.9795 22.8941Z" fill="#010101"/>
</g>
<g id="Group_8">
<path id="Vector_6" d="M18.5391 24.2231C19.1086 24.8875 19.8678 25.457 20.7221 25.7417C21.5763 26.0264 22.5254 26.1213 23.3796 26.0264C24.3287 25.9315 25.1829 25.8366 26.132 25.5519C26.9862 25.2671 27.8405 24.8875 27.9354 24.1282C27.9354 23.9384 28.1252 23.7485 28.4099 23.7485C28.5997 23.7485 28.7896 23.9384 28.7896 24.2231C28.7896 24.2231 28.7896 24.2231 28.7896 24.318V24.4129C28.6947 24.6027 28.5997 24.8875 28.5048 25.1722C28.315 25.362 28.1252 25.6468 27.9354 25.7417C27.4608 26.0264 26.9862 26.2162 26.5117 26.3112C25.5626 26.501 24.6134 26.6908 23.6643 26.6908C22.7152 26.6908 21.6712 26.5959 20.817 26.2162C19.9628 25.8366 19.0136 25.2671 18.5391 24.4129C18.2543 24.318 18.3493 24.2231 18.5391 24.2231C18.5391 24.1282 18.4442 24.1282 18.5391 24.2231Z" fill="#010101"/>
</g>
<g id="Group_9">
<path id="Vector_7" d="M30.9769 7.70826V8.46756C30.9769 8.56247 30.882 8.65738 30.7871 8.65738L14.0826 9.22685C13.9877 9.22685 13.8928 9.22685 13.8928 9.13194L11.8047 7.993L12.2792 7.32861L14.1775 8.75229H14.0826L30.7871 8.37265L30.6922 8.56247V7.80317L30.9769 7.70826Z" fill="#010101"/>
</g>
<g id="Group_10">
<path id="Vector_8" d="M23.573 26.406C23.6679 27.1653 23.6679 28.0195 23.6679 28.7788V29.3483C23.6679 29.5381 23.7628 29.5381 23.8577 29.7279C24.0475 29.9178 24.2373 30.1076 24.5221 30.1076C24.8068 30.1076 24.9966 29.9178 25.1865 29.633C25.2814 29.4432 25.2814 29.4432 25.2814 29.1585L25.3763 28.589C25.4712 27.8297 25.5661 26.9755 25.5661 26.2162C25.5661 26.1213 25.661 26.0264 25.7559 26.0264C25.8508 26.0264 25.9458 26.1213 25.9458 26.2162C26.0407 26.9755 26.0407 27.8297 26.0407 28.589V29.1585C26.0407 29.3483 26.0407 29.633 25.8508 29.9178C25.3763 30.3923 24.9017 30.772 24.4272 30.8669C23.9526 30.9618 23.2882 30.6771 23.0035 30.2025C22.8137 30.0127 22.8137 29.7279 22.7188 29.4432V28.8737C22.7188 28.1144 22.7188 27.2602 22.7188 26.5009C22.7188 26.3111 22.9086 26.1213 23.1933 26.1213C23.3831 26.0264 23.573 26.1213 23.573 26.406Z" fill="#010101"/>
</g>
<g id="Group_11">
<path id="Vector_9" d="M15.9835 9.03718L16.3632 10.8405L16.2683 10.6507L18.2614 11.7896L18.0716 11.9794L17.597 9.13209C17.597 9.03718 17.597 9.03718 17.6919 8.94227C17.7869 8.94227 17.7869 8.94227 17.8818 9.03718L18.4512 11.8845C18.4512 11.9794 18.3563 12.0744 18.2614 12.0744C18.1665 12.0744 18.1665 12.0744 18.0716 12.0744L15.9835 10.9354C15.8886 10.9354 15.8886 10.8405 15.8886 10.7456L15.4141 9.03718C15.4141 8.84735 15.509 8.75244 15.6039 8.75244C15.7937 8.84735 15.9835 8.84735 15.9835 9.03718Z" fill="#010101"/>
</g>
<g id="Group_12">
<path id="Vector_10" d="M16.2736 10.6504C15.799 10.8402 15.4194 11.2199 15.4194 11.5995C15.4194 11.7893 15.5143 11.8842 15.7041 12.0741C15.8939 12.2639 16.0837 12.2639 16.2736 12.4537C17.1278 12.8334 18.1718 12.9283 19.1209 12.9283C21.1141 13.1181 23.1072 13.0232 25.0055 13.0232L24.8156 13.5927C24.3411 13.3079 23.9614 12.9283 23.4869 12.5486C23.392 12.4537 23.2971 12.3588 23.2021 12.2639C23.1072 12.169 23.1072 12.169 23.0123 12.0741C23.0123 12.0741 23.0123 12.0741 23.0123 11.9792C23.0123 11.9792 23.0123 11.8842 23.0123 11.7893L23.1072 11.6944C23.2021 11.6944 23.2021 11.6944 23.297 11.6944C23.5818 11.6944 23.8665 11.6944 24.0563 11.6944C23.7716 11.7893 23.4869 11.7893 23.297 11.8842H23.2021C23.2021 11.8842 23.2021 11.8842 23.297 11.8842V11.7893C23.297 11.7893 23.392 11.8842 23.4869 11.8842C23.5818 11.9792 23.6767 12.0741 23.8665 12.0741C24.3411 12.3588 24.8156 12.5486 25.2902 12.8334C25.48 12.9283 25.48 13.1181 25.48 13.213C25.48 13.3079 25.2902 13.4028 25.2902 13.4028C24.2462 13.4978 23.297 13.4978 22.253 13.4978C21.209 13.4978 20.165 13.4977 19.2158 13.3079C18.1718 13.1181 17.1278 13.1181 16.1787 12.6435C15.9888 12.5486 15.7041 12.4537 15.4194 12.169C15.2295 11.9792 15.0397 11.6944 15.1346 11.3148C15.2295 10.9351 15.5143 10.8402 15.7041 10.6504C15.7041 10.7453 15.9888 10.7453 16.2736 10.6504Z" fill="#010101"/>
</g>
<g id="Group_13">
<path id="Vector_11" d="M25.8412 11.6947C25.8412 12.1692 25.5565 12.5489 25.0819 12.5489C24.8921 12.5489 24.6074 12.454 24.4175 12.359C24.2277 12.1692 24.1328 11.8845 24.1328 11.6947C24.1328 11.5048 24.2277 11.2201 24.4175 11.0303C24.6074 10.8405 24.8921 10.7455 25.0819 10.8405C25.5565 10.7455 25.8412 11.2201 25.8412 11.6947ZM25.5565 11.6947C25.5565 11.4099 25.2718 11.2201 25.0819 11.2201C24.8921 11.315 24.7023 11.5048 24.7023 11.6947C24.7023 11.8845 24.8921 12.1692 25.0819 12.1692C25.2718 12.1692 25.5565 11.9794 25.5565 11.6947Z" fill="#010101"/>
</g>
<g id="Vector_12">
<path d="M18.8273 9.0376L19.3968 11.79H18.2578" fill="#010101"/>
<path d="M18.8273 9.0376L19.3968 11.79H18.2578" stroke="#010101" stroke-width="0.5279" stroke-miterlimit="10" stroke-linecap="round" stroke-linejoin="round"/>
</g>
<g id="Group_14">
<path id="Vector_13" d="M27.5538 8.753L27.9335 10.5563L27.8386 10.3665L29.8317 11.5054L29.6419 11.6953L29.1673 8.84791C29.1673 8.753 29.1673 8.753 29.2623 8.65809C29.3572 8.65809 29.3572 8.65809 29.4521 8.753L30.0216 11.6004C30.0216 11.6953 29.9266 11.7902 29.8317 11.7902C29.7368 11.7902 29.7368 11.7902 29.6419 11.7902L27.5538 10.6512C27.4589 10.6512 27.4589 10.5563 27.4589 10.4614L26.9844 8.753C26.9844 8.56317 27.0793 8.46826 27.1742 8.46826C27.4589 8.56317 27.5538 8.56317 27.5538 8.753Z" fill="#010101"/>
</g>
<g id="Group_15">
<path id="Vector_14" d="M16.8381 7.6135C16.2686 7.70842 15.6042 7.70842 15.0347 7.70842C14.8449 7.70842 14.75 7.51859 14.75 7.42368V6.28474C14.75 6.09491 14.9398 6 15.0347 6L16.7432 6.09491C16.8381 6.09491 16.933 6.18982 16.933 6.28474C16.8381 6.7593 16.8381 7.23386 16.8381 7.6135ZM16.3635 7.23386C16.3635 6.94912 16.3635 6.66438 16.3635 6.37965L16.5533 6.56947L14.9398 6.66438L15.2246 6.37965V7.51859L14.9398 7.13894C15.4144 7.13894 15.8889 7.23386 16.3635 7.23386Z" fill="#010101"/>
</g>
<g id="Group_16">
<path id="Vector_15" d="M27.1861 7.23386C26.7116 7.32877 26.0472 7.42368 25.5726 7.42368C25.4777 7.42368 25.3828 7.32877 25.3828 7.23386V6.18982C25.3828 6 25.4777 6 25.5726 6L26.9963 6.09491C27.0912 6.09491 27.1861 6.18982 27.1861 6.28474V7.23386ZM26.8065 6.94912V6.18982L26.9963 6.37965L25.5726 6.47456L25.7625 6.28474L25.5726 7.32877L25.3828 7.13894C26.0472 6.94912 26.4268 6.94912 26.8065 6.94912Z" fill="#010101"/>
</g>
<g id="Group_17">
<path id="Vector_16" d="M25.8472 11.5999L26.6065 11.505H26.7014L28.3149 12.4541L28.1251 12.3592C28.7895 12.3592 29.4539 12.3592 30.0234 12.1694C30.3081 12.0745 30.6877 11.9795 30.7827 11.9795C30.9725 11.8846 30.9725 11.7897 30.8776 11.9795C30.8776 12.0745 30.8776 11.9795 30.6877 11.7897C30.4979 11.5999 30.4979 11.4101 30.5928 11.2202C30.7827 11.0304 30.9725 11.0304 31.1623 11.1253L31.2572 11.2202C31.447 11.4101 31.6369 11.505 31.6369 11.9795C31.6369 12.1694 31.447 12.3592 31.447 12.4541C31.3521 12.549 31.2572 12.6439 31.1623 12.6439C30.7827 12.8337 30.403 12.8337 30.0234 12.8337C29.359 12.9287 28.5997 12.9287 27.9353 12.9287H27.8404C27.7455 12.9287 27.7455 12.9287 27.6506 12.8337L26.2269 11.5999H26.3218L25.5625 11.505C25.8472 11.6948 25.8472 11.6948 25.8472 11.5999Z" fill="#010101"/>
</g>
<g id="Group_18">
<path id="Vector_17" d="M19.2983 9.9867L27.2709 9.79688C27.3658 9.79688 27.4607 9.89179 27.4607 9.9867C27.4607 10.0816 27.3658 10.1765 27.2709 10.1765L19.3932 10.4613C19.2034 10.4613 19.2034 10.3663 19.2034 10.2714C19.1085 10.1765 19.2034 9.9867 19.2983 9.9867Z" fill="#010101"/>
</g>
<g id="Group_19">
<path id="Vector_18" d="M25.378 28.9688C25.378 29.3484 25.0932 29.7281 24.6187 29.7281C24.1441 29.7281 23.8594 29.3484 23.8594 28.9688C23.8594 28.4942 24.239 28.2095 24.6187 28.2095C25.0932 28.3044 25.378 28.684 25.378 28.9688ZM25.1881 28.9688C25.1881 28.684 24.9034 28.4942 24.7136 28.4942C24.4288 28.4942 24.239 28.7789 24.239 28.9688C24.239 29.2535 24.4288 29.4433 24.7136 29.4433C24.9034 29.6332 25.1881 29.3484 25.1881 28.9688Z" fill="#010101"/>
</g>
<g id="Group_20">
<path id="Vector_19" d="M28.791 13.0234C28.8859 13.3082 28.6012 13.498 28.4114 13.5929C28.2215 13.7827 27.9368 13.7827 27.747 13.8776C27.2724 14.0675 26.7979 14.1624 26.3233 14.2573C25.3742 14.4471 24.3301 14.4471 23.381 14.542C22.4319 14.6369 21.3879 14.6369 20.4388 14.542C19.9642 14.542 19.3947 14.4471 19.0151 14.3522C18.8252 14.2573 18.5405 14.1624 18.2558 14.1624C18.066 13.9726 17.6863 13.8776 17.4965 13.498L17.8761 13.6878C17.4016 13.7827 16.927 13.9726 16.5474 14.3522C16.1677 14.6369 15.883 15.1115 15.7881 15.4911C15.6932 15.9657 15.6932 16.4403 15.9779 16.9148C16.1677 17.3894 16.4524 17.6741 16.8321 18.0538C17.5914 18.6232 18.6354 18.908 19.7744 19.1927C20.8184 19.3825 21.8624 19.4775 23.0014 19.4775C24.1403 19.4775 25.1843 19.3825 26.2284 19.2876C27.3673 19.0978 28.3164 18.8131 29.1707 18.3385C29.9299 17.8639 30.5943 16.9148 30.5943 15.9657C30.5943 15.0166 29.6452 14.2573 28.6012 13.7827C29.1707 13.8776 29.7401 13.9726 30.2147 14.3522C30.6892 14.6369 31.1638 15.2064 31.3536 15.8708C31.5435 16.5352 31.3536 17.1996 31.0689 17.769C30.7842 18.3385 30.3096 18.8131 29.835 19.1927C29.3605 19.5724 28.6961 19.7622 28.2215 19.952C27.6521 20.1418 27.0826 20.2367 26.5131 20.3317C25.3742 20.5215 24.2352 20.6164 23.0963 20.5215C21.9573 20.5215 20.8184 20.3317 19.7744 20.1418C18.7303 19.952 17.4965 19.5724 16.4524 18.8131C15.9779 18.4334 15.5033 17.9589 15.3135 17.3894C15.1237 16.8199 15.1237 16.0606 15.2186 15.4911C15.4084 14.8268 15.6932 14.3522 16.2626 13.8776C16.7372 13.498 17.4016 13.3082 17.971 13.1183H18.066C18.2558 13.1183 18.3507 13.2133 18.3507 13.3082C18.3507 13.4031 18.5405 13.498 18.7303 13.5929C18.9202 13.6878 19.2049 13.7827 19.3947 13.7827C19.8693 13.9726 20.3438 13.9726 20.8184 13.9726C21.7675 14.0675 22.7166 14.1624 23.6658 14.1624C24.6149 14.1624 25.564 14.1624 26.608 13.9726C27.0826 13.8776 27.5571 13.7827 28.0317 13.7827C28.2215 13.6878 28.5063 13.5929 28.6961 13.5929C28.6012 13.498 28.791 13.3082 28.791 13.0234Z" fill="#010101"/>
</g>
</g>
</g>
</g>
</g>
</g>
</g>
</svg>
