<svg width="32" height="32" viewBox="0 0 32 32" fill="none" xmlns="http://www.w3.org/2000/svg">
<g id="icon_8">
<g id="Group 30707">
<path id="Vector" d="M12 24C18.0751 24 23 19.0751 23 13C23 6.92487 18.0751 2 12 2C5.92487 2 1 6.92487 1 13C1 19.0751 5.92487 24 12 24Z" fill="#FFD71C"/>
<g id="Group">
<g id="Group_2">
<g id="Group_3">
<path id="Vector_2" d="M10.8848 23.1858C10.4848 23.3458 10.3248 23.0258 10.0848 22.9458C9.92482 22.7858 9.68482 22.6258 9.52482 22.4658C9.12482 22.1458 8.80482 21.8258 8.48482 21.4258C8.16482 21.0258 7.92482 20.4658 7.76482 19.9858C7.68482 19.4258 7.76482 18.8658 8.00482 18.3058L9.60482 15.9058C9.76482 15.7458 9.84482 15.4258 10.1648 15.2658C10.3248 15.1058 10.6448 14.9458 10.8848 14.7858C11.1248 14.7058 11.4448 14.6258 11.6048 14.6258L12.3248 14.4658L18.0048 13.5058L20.8848 13.0258C21.3648 12.9458 21.8448 12.8658 22.3248 12.8658C22.8848 12.7858 23.4448 12.9458 23.8448 13.4258L23.6048 13.2658L24.3248 13.3458C24.4048 13.3458 24.4848 13.4258 24.4848 13.5058C24.5648 13.7458 24.6448 14.0658 24.8848 14.3058C25.0448 14.4658 25.2848 14.7858 25.5248 14.8658C25.6048 14.9458 25.6848 15.0258 25.6048 15.1058L25.5248 15.1858L24.8848 15.6658C24.8048 15.7458 24.7248 15.7458 24.7248 15.6658C24.5648 15.5058 24.3248 15.7458 24.1648 15.9858C24.0048 16.2258 24.0048 16.5458 24.0048 16.8658C24.0048 17.1858 24.0848 17.4258 24.1648 17.7458C24.3248 17.9858 24.4848 18.0658 24.7248 17.9858C24.8848 17.9858 24.9648 18.0658 24.9648 18.1458V18.2258V18.8658V18.9458C24.9648 19.0258 24.8848 19.1058 24.8048 19.1058C24.3248 19.1858 23.8448 19.2658 23.4448 19.5858L25.8448 21.2658H25.6048L26.4848 21.1058L26.3248 21.3458C26.2448 21.1858 26.1648 21.1058 26.1648 20.9458C26.1648 20.8658 26.1648 20.7858 26.1648 20.7058C26.1648 20.5458 26.2448 20.5458 26.3248 20.4658C26.3248 20.4658 26.4048 20.3858 26.4848 20.3858L28.7248 20.5458C28.8048 20.5458 28.8848 20.5458 28.8848 20.6258C29.6048 21.5858 30.4048 22.4658 31.0448 23.5058C31.1248 23.6658 31.2048 23.7458 31.2048 23.9058C31.2848 23.9858 31.2848 24.0658 31.2848 24.1458C31.2848 24.2258 31.3648 24.3058 31.2848 24.5458C31.2048 24.7858 31.0448 24.8658 30.8848 24.8658C30.7248 24.8658 30.7248 24.8658 30.5648 24.8658C30.4048 24.8658 30.2448 24.7858 30.0848 24.7858C29.5248 24.6258 28.8848 24.3858 28.3248 24.2258H28.5648L27.4448 24.6258L27.6848 24.3058V25.3458C27.6848 25.5058 27.5248 25.5858 27.4448 25.6658L26.9648 25.8258L27.2048 25.5858L26.5648 27.1858C26.4848 27.2658 26.4048 27.3458 26.4048 27.3458L14.0848 30.6258C13.9248 30.6258 13.9248 30.6258 13.7648 30.5458L10.6448 28.7858H10.9648C10.3248 28.9458 9.60482 29.1858 8.96482 29.3458C8.32482 29.5058 7.60482 29.5058 6.96482 29.5858C6.32482 29.6658 5.60482 29.6658 4.88482 29.5058C4.56482 29.4258 4.24482 29.3458 3.92482 29.1858C3.60482 29.0258 3.28482 28.8658 2.96482 28.5458C2.88482 28.4658 2.88482 28.3858 2.88482 28.3858L2.80482 25.3458V25.4258C2.72482 25.2658 2.80482 25.0258 2.96482 24.8658C3.12482 24.7058 3.28482 24.6258 3.52482 24.6258C3.84482 24.6258 4.08482 24.7058 4.40482 24.7058C4.64482 24.7858 4.96482 24.7858 5.20482 24.8658C5.44482 24.9458 5.76482 25.1058 6.00482 25.4258V25.5058C5.92482 25.4258 6.00482 25.5058 6.08482 25.5858C6.16482 25.5858 6.24482 25.6658 6.24482 25.6658C6.40482 25.7458 6.56482 25.7458 6.72482 25.7458C7.04482 25.7458 7.36482 25.6658 7.68482 25.5858C8.32482 25.4258 9.04482 25.2658 9.68482 25.0258L9.52482 25.1858L10.0848 23.3458C10.1648 23.1858 10.3248 23.0258 10.5648 23.1058C10.7248 23.1858 10.8848 23.3458 10.8048 23.5858V23.6658L9.84482 25.4258C9.84482 25.5058 9.76482 25.5058 9.76482 25.5058C9.12482 25.7458 8.40482 25.9858 7.68482 26.1458C7.36482 26.2258 6.96482 26.3058 6.64482 26.3058C6.48482 26.3058 6.24482 26.3058 6.08482 26.2258C6.00482 26.2258 5.92482 26.1458 5.76482 26.0658C5.60482 25.9858 5.60482 25.9858 5.44482 25.7458V25.8258C5.28482 25.5058 4.72482 25.4258 4.16482 25.3458C3.92482 25.3458 3.60482 25.2658 3.44482 25.2658C3.28482 25.3458 3.28482 25.3458 3.28482 25.4258V25.2658L3.44482 28.3058L3.36482 28.1458C3.52482 28.3058 3.76482 28.4658 4.00482 28.6258C4.24482 28.7858 4.56482 28.7858 4.88482 28.8658C5.44482 29.0258 6.16482 28.9458 6.72482 28.8658C7.36482 28.7858 8.00482 28.7058 8.64482 28.5458C9.20482 28.3858 9.92482 28.2258 10.4848 27.9858C10.6448 27.9058 10.6448 27.9858 10.8048 27.9858L14.0048 29.7458L13.9248 29.5858L26.3248 26.5458L26.1648 26.7058L26.7248 25.1058C26.8048 24.9458 26.8848 24.9458 26.9648 24.8658L27.5248 24.7858L27.2848 25.1058V24.0658C27.2848 23.9058 27.3648 23.8258 27.4448 23.7458L28.5648 23.3458C28.6448 23.2658 28.7248 23.3458 28.8048 23.3458C29.3648 23.5858 29.8448 23.9058 30.4048 23.9858C30.5648 24.0658 30.6448 24.0658 30.8048 24.0658C30.8848 24.0658 30.9648 24.0658 30.9648 24.0658C31.0448 24.0658 30.9648 24.0658 30.8848 24.1458C30.8848 24.2258 30.8848 23.9858 30.8048 23.9058C30.7248 23.7458 30.6448 23.6658 30.6448 23.5058C30.0848 22.5458 29.2848 21.5058 28.5648 20.6258L28.7248 20.7058L26.4848 20.4658L26.6448 20.3858V20.4658C26.6448 20.5458 26.6448 20.5458 26.6448 20.6258C26.6448 20.7058 26.7248 20.7858 26.8048 20.8658C26.8848 20.9458 26.8848 21.0258 26.7248 21.1058C26.7248 21.1058 26.6448 21.1058 26.6448 21.1858L25.7648 21.3458C25.6848 21.3458 25.6848 21.3458 25.6048 21.2658L23.5248 19.3458C23.8448 18.9458 24.3248 18.6258 24.8048 18.3858L24.6448 18.5458L24.7248 17.9058L25.0448 18.1458C24.5648 18.3058 24.0848 17.9858 24.0048 17.5858C23.8448 17.2658 23.8448 16.8658 23.8448 16.5458C23.8448 16.2258 23.9248 15.8258 24.0848 15.5058C24.1648 15.3458 24.2448 15.1858 24.4848 15.0258C24.6448 14.8658 24.9648 14.8658 25.1248 15.0258H24.9648L25.6048 14.5458V14.8658C25.2848 14.7058 25.0448 14.4658 24.8048 14.2258C24.6448 13.9858 24.4848 13.6658 24.3248 13.2658L24.4848 13.4258L23.7648 13.5058L23.6048 13.4258C23.0448 12.7858 22.0048 13.2658 21.1248 13.3458L18.2448 13.9058L12.5648 14.9458L11.8448 15.1058C11.6048 15.1858 11.3648 15.1858 11.2048 15.2658C11.0448 15.3458 10.8848 15.4258 10.7248 15.5858C10.5648 15.7458 10.4848 15.8258 10.3248 16.1458L8.88482 18.6258C8.72482 18.8658 8.64482 19.3458 8.72482 19.7458C8.64482 20.1458 8.88482 20.4658 9.12482 20.8658C9.44482 21.1858 9.76482 21.5058 10.0848 21.8258L10.6448 22.3058C10.8048 22.4658 11.0448 22.4658 11.1248 22.8658C11.0448 23.0258 10.9648 23.1858 10.8848 23.1858Z" fill="#010101"/>
</g>
<g id="Group_4">
<path id="Vector_3" d="M26.8853 25.506L14.0053 28.466H13.9253L11.4453 27.346L13.9253 28.306H13.8453L26.6453 24.866C26.8053 24.786 26.9653 24.946 27.0453 25.106C27.2053 25.346 27.0453 25.506 26.8853 25.506Z" fill="#010101"/>
</g>
<g id="Group_5">
<path id="Vector_4" d="M12.4828 27.4258C12.0828 26.7058 11.7628 25.9058 11.4428 25.1058C11.2828 24.7058 11.2028 24.3058 11.0428 23.9058C10.9628 23.5058 10.8828 23.0258 10.8828 22.5458C10.8828 22.3858 10.9628 22.3058 11.0428 22.2258C11.1228 22.0658 11.2028 22.0658 11.2828 21.9858C11.4428 21.8258 11.6828 21.7458 11.8428 21.6658C12.2428 21.5058 12.6428 21.3458 13.0428 21.1858C13.8428 20.9458 14.6428 20.7058 15.5228 20.4658L16.8028 20.2258C17.2028 20.0658 17.7628 20.0658 18.1628 20.1458C18.6428 20.2258 19.1228 20.3858 19.4428 20.7058C19.8428 20.9458 20.0828 21.2658 20.4028 21.5858C20.6428 21.9058 20.9628 22.2258 21.2028 22.6258C21.4428 23.0258 21.6028 23.4258 21.7628 23.9058C22.0028 24.7858 22.0828 25.6658 22.0028 26.5458C22.0028 26.7058 21.8428 26.8658 21.6828 26.8658C21.5228 26.8658 21.3628 26.7058 21.3628 26.5458C21.4428 25.7458 21.3628 24.9458 21.2028 24.1458C21.0428 23.7458 20.9628 23.4258 20.7228 23.1058C20.5628 22.7858 20.2428 22.4658 20.0028 22.1458C19.7628 21.9058 19.4428 21.5858 19.1228 21.2658C18.8028 21.1058 18.4828 20.8658 18.1628 20.7858C17.7628 20.7058 17.4428 20.7058 17.0428 20.8658L15.7628 21.1058C14.9628 21.2658 14.0828 21.5058 13.2828 21.6658C12.8828 21.8258 12.4828 21.9058 12.0828 22.0658C11.9228 22.1458 11.6828 22.2258 11.5228 22.3058C11.4428 22.3858 11.3628 22.4658 11.3628 22.4658C11.2828 22.5458 11.2828 22.6258 11.2828 22.7058C11.1228 23.5058 11.4428 24.3058 11.6828 25.1058C11.8428 25.9058 12.0828 26.7058 12.4828 27.4258Z" fill="#010101"/>
</g>
<g id="Group_6">
<path id="Vector_5" d="M19.3658 21.266C19.2858 21.026 19.2058 20.706 19.3658 20.386C19.4458 20.146 19.6058 19.826 19.8458 19.746C20.3258 19.426 20.8058 19.346 21.3658 19.266C21.9258 19.186 22.3258 19.106 22.9658 19.186C23.2058 19.266 23.5258 19.346 23.7658 19.506L24.3258 19.986L25.6058 20.946L25.9258 21.106C26.0858 21.266 26.0858 21.266 26.2458 21.426C26.4058 21.586 26.5658 21.906 26.6458 22.146C27.1258 23.106 27.1258 24.226 26.8858 25.346C26.8858 25.506 26.7258 25.666 26.4858 25.586C26.3258 25.586 26.1658 25.426 26.2458 25.186C26.4058 24.226 26.4858 23.186 26.0858 22.306C26.0058 22.146 25.9258 21.906 25.7658 21.746C25.6858 21.666 25.6058 21.586 25.6058 21.506L25.2858 21.266L24.0858 20.306L23.5258 19.826C23.3658 19.666 23.1258 19.666 22.9658 19.586C22.4858 19.506 22.0058 19.586 21.5258 19.666C21.0458 19.746 20.5658 19.826 20.1658 20.066C19.7658 20.306 19.6858 20.786 19.8458 21.266C19.8458 21.346 19.8458 21.426 19.6858 21.426C19.5258 21.506 19.4458 21.426 19.3658 21.266Z" fill="#010101"/>
</g>
<g id="Group_7">
<path id="Vector_6" d="M5.92813 25.9058C6.08813 26.5458 6.24813 27.2658 6.32813 27.9058C6.32813 28.0658 6.32813 28.0658 6.32813 28.1458C6.32813 28.2258 6.24812 28.3858 6.24812 28.5458C6.08812 28.7858 5.92813 28.9458 5.68813 29.0258C5.36813 29.1058 5.04813 29.1858 4.72813 29.1858C4.56812 29.1858 4.40813 29.0258 4.32812 28.9458C4.32812 28.7858 4.40812 28.6258 4.56812 28.6258C4.88813 28.4658 5.20813 28.3858 5.52813 28.3058C5.60813 28.3058 5.68813 28.2258 5.68813 28.1458C5.76813 28.0658 5.76812 27.9858 5.76812 27.8258C5.84812 27.1858 5.84813 26.5458 5.92813 25.9058Z" fill="#010101"/>
</g>
<g id="Group_8">
<path id="Vector_7" d="M4.40375 26.3056C4.32375 26.4656 4.24375 26.7056 4.24375 26.9456C4.24375 27.1056 4.32375 27.4256 4.40375 27.4256C4.48375 27.4256 4.56375 27.2656 4.72375 27.1056C4.88375 26.9456 4.96375 26.7856 5.04375 26.5456C5.20375 26.3856 5.20375 26.1456 5.28375 25.9856C5.36375 25.8256 5.36375 25.5056 5.12375 25.4256C4.96375 25.3456 4.72375 25.5856 4.56375 25.7456C4.48375 25.9056 4.40375 26.1456 4.40375 26.3056ZM4.16375 26.2256C4.32375 26.0656 4.32375 25.8256 4.56375 25.6656C4.64375 25.5856 4.72375 25.5056 4.80375 25.4256C4.88375 25.3456 5.04375 25.2656 5.12375 25.3456C5.28375 25.4256 5.28375 25.5056 5.28375 25.6656C5.36375 25.8256 5.36375 25.9056 5.36375 26.0656C5.36375 26.3056 5.36375 26.5456 5.28375 26.7856C5.20375 27.0256 5.12375 27.2656 4.96375 27.4256C4.88375 27.5856 4.80375 27.5856 4.64375 27.6656C4.48375 27.7456 4.32375 27.8256 4.08375 27.7456C3.92375 27.6656 3.84375 27.5056 3.84375 27.3456C3.84375 27.1856 3.84375 27.1056 3.84375 26.9456C4.00375 26.6256 4.08375 26.4656 4.16375 26.2256Z" fill="#010101"/>
</g>
<g id="Group_9">
<path id="Vector_8" d="M15.0469 20.8657C15.6069 21.2657 16.0069 21.6657 16.4869 22.0657C16.9669 22.5457 17.3669 23.0257 17.6869 23.5057C17.8469 23.7457 18.0069 24.0657 18.0869 24.3857C18.1669 24.7057 18.2469 24.9457 18.2469 25.3457C18.4069 25.9857 18.4069 26.6257 18.4069 27.2657L17.7669 27.1857C17.8469 26.6257 17.8469 25.9857 17.7669 25.4257C17.6869 24.8657 17.6069 24.2257 17.3669 23.6657C17.1269 23.1057 16.7269 22.7057 16.3269 22.2257C15.9269 21.7457 15.5269 21.2657 15.0469 20.8657Z" fill="#010101"/>
</g>
<g id="Group_10">
<path id="Vector_9" d="M20.4844 19.7456C21.0444 19.9856 21.5244 20.3056 22.0844 20.7056C22.6444 21.1056 23.0444 21.5056 23.4444 21.9856C23.6044 22.2256 23.8444 22.5456 24.0044 22.8656C24.1644 23.1856 24.1644 23.4256 24.2444 23.8256C24.4044 24.4656 24.4044 25.1056 24.4044 25.7456C24.4044 25.9056 24.2444 25.9056 24.1644 25.9056C24.0044 25.9056 24.0044 25.7456 24.0044 25.6656C24.0044 25.1056 23.9244 24.4656 23.8444 23.9056C23.7644 23.6656 23.6844 23.3456 23.6844 23.0256C23.6044 22.7856 23.4444 22.4656 23.2844 22.2256C22.9644 21.7456 22.4844 21.2656 22.0044 20.8656C21.4444 20.4656 20.8844 20.1456 20.4844 19.7456Z" fill="#010101"/>
</g>
<g id="Group_11">
<path id="Vector_10" d="M8.965 27.4258C8.965 27.9058 8.565 28.3058 8.085 28.3058C7.605 28.3858 7.125 27.9058 7.125 27.4258C7.125 26.8658 7.605 26.4658 8.085 26.5458C8.645 26.6258 8.965 27.0258 8.965 27.4258ZM8.645 27.4258C8.645 27.1858 8.405 26.8658 8.085 26.8658C7.845 26.8658 7.605 27.1058 7.605 27.4258C7.605 27.6658 7.765 27.9058 8.085 27.9858C8.405 27.9858 8.645 27.8258 8.645 27.4258Z" fill="#010101"/>
</g>
<g id="Group_12">
<path id="Vector_11" d="M9.36719 18.3856C10.0872 17.4256 10.8872 16.6256 11.6872 15.7456C11.6872 15.7456 11.7672 15.6656 11.8472 15.6656C13.6872 15.4256 15.5272 15.1056 17.4472 14.7056L20.2472 14.2256C21.2072 14.0656 22.0872 13.9056 23.0472 13.7456C22.0872 13.9056 21.2072 14.1456 20.2472 14.3056L17.4472 14.8656C15.6072 15.1856 13.7672 15.5856 11.9272 15.9856L12.0872 15.9056C11.1272 16.7856 10.2472 17.5856 9.36719 18.3856Z" fill="#010101"/>
</g>
<g id="Group_13">
<path id="Vector_12" d="M12.1641 21.5859C12.6441 21.9859 13.1241 22.3859 13.5241 22.8659C13.9241 23.3459 14.4041 23.8259 14.6441 24.3859C14.7241 24.5459 14.8041 24.7059 14.8041 24.8659L14.8841 25.3459L15.0441 26.3059C15.2041 26.8659 15.2041 27.5059 15.2841 28.1459L14.7241 28.2259C14.6441 27.6659 14.6441 27.0259 14.5641 26.3859L14.4841 25.4259V24.8659C14.4841 24.7059 14.4041 24.6259 14.3241 24.4659C14.1641 23.9059 13.7641 23.4259 13.3641 22.9459C13.0441 22.4659 12.6441 22.0659 12.1641 21.5859Z" fill="#010101"/>
</g>
<g id="Group_14">
<path id="Vector_13" d="M25.7656 21.1058C26.1656 21.0258 26.4856 21.0258 26.8856 20.9458C27.0456 20.9458 27.3656 20.9458 27.5256 21.1058C27.6856 21.2658 27.8456 21.3458 28.0056 21.5058C28.2456 21.7458 28.5656 22.0658 28.6456 22.4658C28.7256 22.8658 28.8056 23.1858 28.8056 23.5858C28.8856 23.1858 28.7256 22.8658 28.6456 22.5458C28.4856 22.2258 28.1656 21.9858 27.9256 21.7458C27.7656 21.5858 27.6856 21.5858 27.4456 21.4258C27.2856 21.2658 27.1256 21.2658 26.9656 21.2658C26.5656 21.3458 26.2456 21.4258 25.8456 21.4258L25.7656 21.1058Z" fill="#010101"/>
</g>
</g>
</g>
</g>
</g>
</svg>
