<svg width="32" height="32" viewBox="0 0 32 32" fill="none" xmlns="http://www.w3.org/2000/svg">
<g id="icon_12">
<g id="Group 30697">
<path id="Vector" d="M12 23C18.0751 23 23 18.0751 23 12C23 5.92487 18.0751 1 12 1C5.92487 1 1 5.92487 1 12C1 18.0751 5.92487 23 12 23Z" fill="#FFD71C"/>
<g id="Group">
<g id="Group_2">
<g id="Group_3">
<path id="Vector_2" d="M15.822 15.6631L25.0789 24.6504C25.1688 24.7403 25.1688 24.92 25.1688 25.0099C25.0789 25.4592 25.0789 26.0884 25.0789 26.5377C25.1688 27.077 25.3485 27.4365 25.708 27.796C26.0675 28.1554 26.6068 28.4251 27.0561 28.6048C27.3257 28.6947 27.5055 28.6947 27.7751 28.7846C27.865 28.7846 28.0447 28.7846 28.1346 28.7846C28.2245 28.7846 28.4042 28.6947 28.4042 28.6947L28.3143 29.4137L26.427 27.077C26.3371 26.9871 26.3371 26.9871 26.3371 26.8972L26.6966 24.8301C26.6966 24.7403 26.7865 24.7403 26.8764 24.6504L28.8536 24.0213C28.9435 23.9314 29.1232 24.0213 29.2131 24.1111L31.5498 26.1782L30.8308 26.358C30.9207 25.8187 30.9207 25.2795 30.9207 24.7403C30.8308 24.201 30.5612 23.7517 30.1118 23.482C29.6624 23.1225 29.1232 22.9428 28.584 22.8529C28.0447 22.7631 27.5055 22.7631 26.9662 22.7631C26.8764 22.7631 26.6966 22.7631 26.6068 22.6732L17.7093 13.8656C17.6194 13.7757 17.6194 13.596 17.6194 13.5061C17.7093 12.9669 17.7093 12.4276 17.5296 11.8884C17.3498 11.3491 17.1701 10.8998 16.9004 10.5403C16.541 10.1808 16.1815 9.8213 15.7321 9.64156C15.4625 9.64156 15.103 9.64156 14.8334 9.55168C14.5637 9.55168 14.2941 9.46181 14.0245 9.46181L14.384 8.74282L16.3612 11.0795C16.4511 11.1694 16.4511 11.3491 16.4511 11.439L15.6422 13.3264C15.6422 13.4162 15.5523 13.4162 15.5523 13.4162L13.665 13.8656C13.5751 13.8656 13.5751 13.8656 13.5751 13.8656L10.9688 11.7985L11.6878 11.5289C11.5979 12.0681 11.6878 12.6074 11.8675 13.1466C11.9574 13.6859 12.3169 14.1352 12.7663 14.4947C13.1258 14.8542 13.665 15.1238 14.2042 15.3036C14.4739 15.3934 14.7435 15.3934 15.103 15.3934L15.822 15.6631ZM15.7321 16.1124C15.4625 16.1124 15.1929 16.2023 14.8334 16.2023C14.4739 16.1124 14.2042 16.1124 13.9346 16.1124C13.3055 16.0226 12.6764 15.7529 12.227 15.3036C11.6878 14.9441 11.3283 14.315 11.1486 13.6859C10.9688 13.0567 10.7891 12.4276 10.7891 11.7985C10.7891 11.6188 10.9688 11.439 11.1486 11.439C11.2384 11.439 11.3283 11.5289 11.4182 11.5289L13.665 13.9555H13.5751L15.3726 13.3264L15.2827 13.4162L15.6422 11.3491L15.7321 11.7086L13.7549 9.37194C13.665 9.19219 13.665 8.92257 13.8448 8.74282C13.7549 8.65295 13.9346 8.56308 13.9346 8.65295C14.2941 8.65295 14.5637 8.65295 14.8334 8.74282C15.1929 8.8327 15.4625 8.8327 15.7321 9.01244C16.3612 9.19219 16.9004 9.64156 17.3498 10.0909C17.7992 10.5403 17.9789 11.1694 18.1587 11.8884C18.3384 12.6074 18.2485 13.1466 18.2485 13.7757L18.1587 13.4162L27.146 22.3137L26.7865 22.2238C27.5055 22.1339 28.1346 22.1339 28.7637 22.3137C29.3928 22.4036 30.0219 22.6732 30.6511 23.1225C30.9207 23.3023 31.1903 23.5719 31.37 23.9314C31.5498 24.2909 31.7295 24.5605 31.7295 24.92C31.8194 25.5491 31.8194 26.2681 31.6397 26.9871C31.5498 27.1668 31.37 27.3466 31.1004 27.3466C31.0105 27.3466 31.0105 27.2567 30.9207 27.2567L28.584 25.1896L28.9435 25.2795L26.8764 25.5491L27.0561 25.3694L26.5169 27.4365V27.077L28.7637 29.0542C28.9435 29.1441 28.9435 29.4137 28.8536 29.6833C28.7637 29.7732 28.7637 29.7732 28.7637 29.7732C28.3143 29.863 28.0447 29.863 27.6852 29.863C27.3257 29.7732 27.0561 29.7732 26.7865 29.5934C26.1574 29.3238 25.708 29.1441 25.1688 28.6947C24.6295 28.2453 24.3599 27.6162 24.2701 26.9871C24.1802 26.358 24.1802 25.7289 24.3599 25.0998L24.4498 25.4592L15.7321 16.1124Z" fill="#010101"/>
</g>
<g id="Group_4">
<path id="Vector_3" d="M15.1937 21.6843C13.6659 23.1223 12.2279 24.5602 10.7899 25.9982L10.2507 26.5375C10.071 26.7172 9.89121 26.8969 9.89121 27.0767C9.80134 27.2564 9.80134 27.4362 9.89121 27.7058C9.98109 27.8856 10.071 28.0653 10.2507 28.245L10.8798 28.7843L11.1494 29.0539C11.2393 29.1438 11.2393 29.1438 11.4191 29.1438C11.7786 29.2337 12.0482 29.2337 12.3178 28.964L16.8115 24.6501L17.3507 24.1109C17.5304 23.9311 17.7102 23.7514 17.7102 23.6615C17.8001 23.4818 17.8001 23.302 17.7102 23.1223C17.7102 23.0324 17.6203 22.9425 17.6203 22.8527C17.6203 22.7628 17.5304 22.7628 17.5304 22.7628L17.4406 22.6729L16.9013 22.2235C16.7216 22.0438 16.5418 21.864 16.3621 21.7742C15.9127 21.3248 15.4634 21.4147 15.1937 21.6843ZM14.8342 21.3248C15.2836 20.8754 16.0026 20.6957 16.5418 21.1451C16.8115 21.3248 16.9013 21.5046 17.1709 21.6843L17.8001 22.2235L17.8899 22.3134C17.9798 22.4033 17.9798 22.4033 17.9798 22.4932C18.0697 22.583 18.1596 22.7628 18.2494 22.9425C18.3393 23.302 18.3393 23.5716 18.2494 23.9311C18.1596 24.021 18.1596 24.2906 17.9798 24.3805C17.8899 24.4704 17.8001 24.5602 17.7102 24.74L17.1709 25.2792L12.857 29.683C12.3178 30.2223 11.5089 30.3121 10.8798 29.8628C10.7899 29.7729 10.6102 29.5931 10.5203 29.5033L10.2507 29.2337L9.71147 28.6045C9.80134 28.5147 9.53172 28.245 9.44185 27.9754C9.35197 27.6159 9.35197 27.3463 9.53172 27.0767C9.62159 26.8071 9.89121 26.5375 10.071 26.4476L10.6102 25.9083C11.9583 24.2906 13.3963 22.7628 14.8342 21.3248Z" fill="#010101"/>
</g>
<g id="Group_5">
<path id="Vector_4" d="M16.7149 20.7858L18.6023 22.3136L18.2428 22.4035C18.3327 22.3136 18.4225 22.044 18.4225 21.7744C18.3327 21.5946 18.2428 21.325 18.063 21.1453C17.8833 20.9655 17.7035 20.7858 17.4339 20.7858C17.344 20.7858 17.1643 20.6959 17.0744 20.7858C16.8048 20.7858 16.7149 20.7858 16.7149 20.7858ZM16.4453 20.7858C16.5352 20.606 16.7149 20.5162 16.8947 20.4263C16.9846 20.3364 17.2542 20.3364 17.344 20.4263C17.7035 20.5162 17.9732 20.606 18.1529 20.7858C18.3327 20.9655 18.6023 21.1453 18.6921 21.5048C18.782 21.8643 18.782 22.1339 18.6023 22.4934C18.5124 22.5832 18.4225 22.5832 18.2428 22.5832L16.4453 20.7858Z" fill="#010101"/>
</g>
<g id="Group_6">
<path id="Vector_5" d="M23.4667 15.1235L17.8047 20.6957L18.7034 21.5045L24.3654 15.9324C24.0059 15.6628 23.7363 15.3932 23.4667 15.1235Z" fill="#FFD71C"/>
<path id="Vector_6" d="M18.431 21.3248L27.9575 11.8882L28.0474 11.7983L30.1145 10.5401V11.0793L28.4968 9.46157L28.8562 9.3717C28.4968 10.0907 27.9575 10.7198 27.598 11.4388C27.598 11.4388 27.598 11.4388 27.5082 11.5287L17.9816 20.7856C17.8917 20.8755 17.8018 20.8755 17.6221 20.7856C17.5322 20.6957 17.5322 20.6059 17.6221 20.4261L27.2385 11.0793L27.1487 11.1692C27.598 10.5401 28.0474 9.82107 28.4968 9.10208C28.5866 9.01221 28.6765 9.01221 28.8562 9.01221L30.6537 10.4502C30.7436 10.5401 30.7436 10.8097 30.7436 10.8995L30.6537 10.9894L28.317 12.4274L28.4069 12.3375L18.8803 21.7742C18.7904 21.8641 18.5208 21.8641 18.431 21.7742C18.2512 21.5945 18.2512 21.3248 18.431 21.3248Z" fill="#010101"/>
</g>
<g id="Group_7">
<path id="Vector_7" d="M16.4559 24.4703L13.58 27.2564L12.142 28.6045L11.423 29.3234C11.3331 29.4133 11.0635 29.4133 10.9737 29.2336C10.8838 29.1437 10.8838 28.8741 10.9737 28.7842C11.8724 27.8855 12.861 26.8969 13.7597 25.9083L15.1078 24.4703L15.8268 23.7513C16.0066 23.5716 16.3661 23.6614 16.5458 23.8412C16.6357 23.931 16.6357 24.2905 16.4559 24.4703ZM16.1863 24.2007C16.2762 24.1108 16.0964 23.8412 16.0066 24.0209L15.2876 24.65L13.8496 25.9981C12.861 26.8969 11.8724 27.8855 10.9737 28.7842C10.8838 28.8741 10.8838 29.1437 10.9737 29.2336C11.0635 29.3234 11.3331 29.3234 11.423 29.2336L12.142 28.5146L13.4901 27.0766L16.1863 24.2007Z" fill="#010101"/>
</g>
<g id="Group_8">
<path id="Vector_8" d="M15.3817 23.3922L12.5058 26.1782L10.9779 27.5263L10.259 28.2453C10.1691 28.3352 9.89947 28.3352 9.80959 28.1554C9.71972 28.0656 9.71972 27.7959 9.80959 27.7061C10.7083 26.8073 11.6969 25.8187 12.5957 24.8301L13.9438 23.3922L14.6627 22.6732C14.8425 22.4934 15.202 22.5833 15.3817 22.763C15.5615 22.8529 15.5615 23.2124 15.3817 23.3922ZM15.1121 23.1225C15.202 23.0327 15.0222 22.763 14.9324 22.9428L14.2134 23.5719L12.7754 24.92C11.7868 25.8187 10.7982 26.8073 9.89947 27.7061C9.80959 27.7959 9.80959 28.0656 9.89947 28.1554C9.98934 28.2453 10.259 28.2453 10.3488 28.1554L11.0678 27.4365L12.4159 25.9985L15.1121 23.1225Z" fill="#010101"/>
</g>
</g>
</g>
</g>
</g>
</svg>
