<svg width="32" height="32" viewBox="0 0 32 32" fill="none" xmlns="http://www.w3.org/2000/svg">
<g id="icon_1">
<g id="Group">
<g id="&#208;&#161;&#208;&#187;&#208;&#190;&#208;&#185;_2_4_">
<g id="Group_2">
<g id="Group 30704">
<path id="Vector" d="M12 25C18.0751 25 23 20.0751 23 14C23 7.92487 18.0751 3 12 3C5.92487 3 1 7.92487 1 14C1 20.0751 5.92487 25 12 25Z" fill="#FFD71C"/>
<g id="Group_3">
<g id="Group_4">
<path id="Vector_2" d="M25.3572 20.5905L27.7572 20.5105L27.5972 20.6705L27.9172 20.3505C27.9972 20.2705 28.0772 20.2705 28.0772 20.3505C28.0772 20.3505 28.1572 20.4305 28.0772 20.5105L27.9172 20.9905C27.9172 21.0705 27.8372 21.1505 27.7572 21.1505H27.6772H25.2772C25.1172 21.1505 25.1172 21.0705 25.1172 20.9905C25.2772 20.6705 25.3572 20.5905 25.3572 20.5905Z" fill="#010101"/>
</g>
<g id="Group_5">
<path id="Vector_3" d="M27.9198 19.5505C27.9998 19.7905 28.0798 20.1105 28.0798 20.3505L27.9198 20.1906C28.0798 20.1906 28.2398 20.2705 28.3998 20.3505C28.4798 20.4305 28.4798 20.4305 28.5598 20.5105C28.5598 20.5905 28.6398 20.6705 28.6398 20.6705C28.6398 20.7505 28.7198 20.8305 28.7198 20.8305C28.7998 21.0705 28.7998 21.3105 28.7998 21.5505C28.7998 22.0305 28.7998 22.5905 28.7198 23.0705C28.7198 23.2305 28.6398 23.3105 28.5598 23.4705C28.4798 23.6305 28.4798 23.7905 28.1598 23.9505C27.9998 24.0305 27.9998 24.0305 27.9998 24.1105C27.9198 24.1905 27.8398 24.2705 27.8398 24.3505C27.5998 24.7505 27.3598 25.1505 27.1198 25.6305C26.8798 26.1105 26.6398 26.4305 26.2398 26.9105C25.9198 27.3105 25.5198 27.6305 25.1198 27.9505C24.3198 28.5905 23.3598 28.9905 22.3198 29.2305C21.2798 29.4705 20.3198 29.5505 19.2798 29.3905C18.2398 29.2305 17.2798 28.9905 16.3198 28.5105C14.4798 27.4705 13.1198 25.7905 12.3998 23.8705C11.6798 21.8705 11.7598 19.7905 12.5598 17.8706C12.9598 16.9106 13.5198 16.0306 14.2398 15.3106C14.9598 14.5906 15.8398 14.0306 16.7998 13.6306C20.3998 12.0306 24.0798 10.7506 27.8398 9.31056L27.6798 9.55056V8.91056C27.6798 8.83056 27.6798 8.75056 27.7598 8.75056L28.0798 8.51056C28.1598 8.43056 28.2398 8.43056 28.3198 8.59056C28.3198 8.59056 28.3198 8.59056 28.3198 8.67056V8.75056C28.7998 9.87055 29.3598 11.0706 29.7598 12.2706C30.2398 13.4706 30.7198 14.5906 31.0398 15.8706C31.1198 15.9506 31.0398 16.0306 30.9598 16.1106L30.7198 16.2706C30.6398 16.3506 30.5598 16.2706 30.4798 16.1906V16.1106L30.1598 15.6306L30.3198 15.7106L25.9998 16.4306L26.1598 15.9506C26.6398 16.5106 27.0398 17.0706 27.4398 17.6306C27.4398 18.2706 27.7598 18.9106 27.9198 19.5505ZM27.5198 19.7106C27.3598 19.0706 27.0398 18.4305 26.7198 17.8706C26.3198 17.3106 25.9998 16.7506 25.5198 16.1906C25.4398 16.0306 25.4398 15.9506 25.5198 15.7906C25.5998 15.7106 25.5998 15.7106 25.6798 15.7106L30.0798 14.9906C30.1598 14.9906 30.2398 14.9906 30.2398 15.0706L30.5598 15.5506H30.3198L30.6398 15.4706L30.4798 15.7106C29.8398 14.5906 29.4398 13.3906 29.0398 12.2706C28.5598 11.0706 28.1598 9.87056 27.7598 8.67056L27.9998 8.83056L27.5998 9.07056L27.6798 8.91056L27.8398 9.55056C27.8398 9.71056 27.8398 9.71056 27.6798 9.79056H27.5998C23.9198 11.2306 20.2398 12.6706 16.7198 14.1906C15.9198 14.5906 15.0398 15.1506 14.4798 15.8706C13.8398 16.5906 13.3598 17.3106 13.0398 18.1906C12.3998 19.9506 12.3198 21.9505 12.9598 23.7105C13.5998 25.4705 14.9598 26.9105 16.5598 27.7905C18.2398 28.5905 20.1598 28.9105 21.9998 28.5105C22.8798 28.3505 23.7598 27.9505 24.5598 27.4705C24.9598 27.2305 25.2798 26.9105 25.5998 26.5905C25.9198 26.1905 26.1598 25.8705 26.3998 25.4705C26.6398 25.0705 26.8798 24.6705 27.1198 24.1905C27.1998 24.0305 27.2798 23.9505 27.4398 23.8705C27.5998 23.7105 27.7598 23.7105 27.9198 23.7105C27.8398 23.7905 27.9198 23.7105 27.9998 23.5505C28.0798 23.4705 28.0798 23.3905 28.0798 23.2305C28.1598 22.7505 28.2398 22.2705 28.2398 21.8705C28.2398 21.6305 28.2398 21.3905 28.1598 21.1505C28.1598 21.0705 28.1598 20.9906 28.0798 20.9906C28.0798 20.9106 28.0798 20.9106 28.0798 20.9106C28.0798 20.8306 27.9198 20.7505 27.9198 20.7505C27.9198 20.7505 27.9198 20.8305 27.8398 20.8305C27.8398 20.8305 27.7598 20.8305 27.7598 20.7505V20.4305C27.5998 20.1905 27.5198 19.9506 27.5198 19.7106Z" fill="#010101"/>
</g>
<g id="Group_6">
<g id="Group_7">
<path id="Vector_4" d="M23.4431 21.2308C23.4431 22.0308 23.1231 22.8308 22.5631 23.3908C22.0031 23.9508 21.2031 24.3508 20.4031 24.3508C19.6031 24.3508 18.7231 24.0308 18.1631 23.4708C17.5231 22.8308 17.2031 22.0308 17.2031 21.2308C17.2031 20.4308 17.6031 19.5508 18.1631 18.9908C18.7231 18.4308 19.6031 18.1108 20.4031 18.1108C21.2031 18.1108 22.0831 18.5108 22.5631 19.0708C23.1231 19.6308 23.4431 20.4308 23.4431 21.2308ZM23.0431 21.2308C23.0431 20.5108 22.7231 19.8708 22.2431 19.3108C21.7631 18.7508 21.0431 18.5908 20.3231 18.5908C19.6031 18.5908 18.9631 18.9108 18.4831 19.3908C18.0031 19.8708 17.7631 20.5908 17.7631 21.2308C17.7631 21.9508 18.0031 22.5908 18.4831 23.0708C18.9631 23.5508 19.6031 23.8708 20.3231 23.8708C21.0431 23.8708 21.6831 23.6308 22.2431 23.1508C22.8031 22.6708 23.0431 21.9508 23.0431 21.2308Z" fill="#010101"/>
</g>
<g id="Group_8">
<path id="Vector_5" d="M25.5209 21.2307C25.5209 22.5907 24.9609 23.9507 24.0009 24.9107C23.0409 25.8707 21.6809 26.5107 20.3209 26.5107C18.9609 26.5107 17.5209 26.0307 16.5609 24.9907C15.5209 24.0307 14.9609 22.6707 14.9609 21.2307C14.9609 19.8707 15.6009 18.4307 16.5609 17.4707C17.6009 16.5107 18.9609 15.9507 20.3209 15.9507C21.6809 15.9507 23.0409 16.5107 24.0009 17.5507C25.0409 18.5107 25.6009 19.8707 25.5209 21.2307ZM25.2009 21.2307C25.2009 19.9507 24.7209 18.6707 23.7609 17.7907C22.8809 16.9107 21.6009 16.4307 20.3209 16.4307C19.0409 16.4307 17.8409 16.9907 16.9609 17.8707C16.0809 18.7507 15.6009 20.0307 15.6009 21.2307C15.6009 22.4307 16.0809 23.7107 16.9609 24.5907C17.8409 25.4707 19.0409 26.0307 20.3209 26.0307C21.6009 26.0307 22.8809 25.5507 23.7609 24.6707C24.6409 23.7907 25.2009 22.5107 25.2009 21.2307Z" fill="#010101"/>
</g>
</g>
<g id="Group_9">
<path id="Vector_6" d="M21.1194 21.2306C21.1194 21.7106 20.7194 22.1106 20.3194 22.1106C20.0794 22.1106 19.8394 22.0306 19.6794 21.8706C19.5194 21.7106 19.4394 21.4706 19.3594 21.2306C19.3594 20.9906 19.5194 20.7506 19.6794 20.5906C19.8394 20.4306 20.1594 20.3506 20.3194 20.3506C20.7994 20.4306 21.1194 20.7506 21.1194 21.2306ZM20.8794 21.2306C20.8794 20.9106 20.6394 20.6706 20.3194 20.7506C20.0794 20.7506 19.8394 20.9906 19.8394 21.2306C19.8394 21.4706 19.9994 21.7106 20.3194 21.7106C20.5594 21.7906 20.8794 21.5506 20.8794 21.2306Z" fill="#010101"/>
</g>
<g id="Group_10">
<path id="Vector_7" d="M20.2422 20.5107L20.4022 18.5107C20.4022 18.4307 20.4822 18.4307 20.5622 18.4307C20.6422 18.4307 20.6422 18.5107 20.6422 18.5107L20.5622 20.5107C20.5622 20.5907 20.4822 20.6707 20.4022 20.6707C20.3222 20.6707 20.2422 20.5907 20.2422 20.5107Z" fill="#010101"/>
</g>
<g id="Group_11">
<path id="Vector_8" d="M19.7609 20.4304L18.9609 18.8304C18.9609 18.7504 18.9609 18.6704 19.0409 18.6704C19.1209 18.6704 19.1209 18.6704 19.2009 18.7504L20.1609 20.3504C20.2409 20.4304 20.1609 20.5104 20.0809 20.5104C19.9209 20.5904 19.8409 20.5104 19.7609 20.4304Z" fill="#010101"/>
</g>
<g id="Group_12">
<path id="Vector_9" d="M19.6759 20.9905L17.9159 20.0305C17.8359 20.0305 17.8359 19.9505 17.8359 19.8705C17.8359 19.7905 17.9159 19.7905 17.9959 19.7905L19.8359 20.6705C19.9159 20.7505 19.9959 20.8305 19.9159 20.8305C19.8359 20.9905 19.7559 20.9905 19.6759 20.9905Z" fill="#010101"/>
</g>
<g id="Group_13">
<path id="Vector_10" d="M19.5997 21.3107H17.7597C17.6797 21.3107 17.6797 21.2307 17.6797 21.2307C17.6797 21.1507 17.7597 21.1507 17.7597 21.1507L19.5997 20.9907C19.6797 20.9907 19.7597 21.0707 19.7597 21.1507C19.7597 21.2307 19.6797 21.3107 19.5997 21.3107Z" fill="#010101"/>
</g>
<g id="Group_14">
<path id="Vector_11" d="M19.7581 21.7106L18.2381 22.7506C18.1581 22.7506 18.0781 22.7506 18.0781 22.7506C18.0781 22.6706 18.0781 22.6706 18.0781 22.5906L19.5181 21.4706C19.5981 21.3906 19.6781 21.3906 19.6781 21.4706C19.8381 21.5506 19.8381 21.6306 19.7581 21.7106Z" fill="#010101"/>
</g>
<g id="Group_15">
<path id="Vector_12" d="M20.0791 21.9504L19.2791 23.8704C19.2791 23.9504 19.1991 23.9504 19.1191 23.9504C19.0391 23.9504 19.0391 23.8704 19.0391 23.7904L19.7591 21.7904C19.7591 21.7104 19.9191 21.6304 19.9191 21.7104C20.0791 21.7104 20.1591 21.8704 20.0791 21.9504Z" fill="#010101"/>
</g>
<g id="Group_16">
<path id="Vector_13" d="M20.5563 21.9506L20.7962 23.9506C20.7962 24.0306 20.7962 24.0306 20.7162 24.1106C20.6362 24.1106 20.6363 24.1106 20.5563 24.0306L20.1562 22.0306C20.1562 21.9506 20.2362 21.8706 20.3162 21.8706C20.5562 21.8706 20.5563 21.8706 20.5563 21.9506Z" fill="#010101"/>
</g>
<g id="Group_17">
<path id="Vector_14" d="M20.8763 21.7108L22.2363 23.1508C22.3162 23.2308 22.2363 23.2308 22.2363 23.3108C22.1562 23.3908 22.1563 23.3108 22.0763 23.3108L20.7163 21.9508C20.6362 21.8708 20.6362 21.7908 20.7163 21.7908C20.7963 21.6308 20.8763 21.6308 20.8763 21.7108Z" fill="#010101"/>
</g>
<g id="Group_18">
<path id="Vector_15" d="M21.0369 21.3105L23.0369 21.7905C23.1169 21.7905 23.1169 21.8705 23.1169 21.9505C23.1169 22.0305 23.0369 22.0305 22.9569 22.0305L20.9569 21.6305C20.8769 21.6305 20.7969 21.5505 20.7969 21.4705C20.8769 21.3905 20.9569 21.3105 21.0369 21.3105Z" fill="#010101"/>
</g>
<g id="Group_19">
<path id="Vector_16" d="M21.0388 20.9105L22.8788 20.2705C22.9588 20.2705 23.0388 20.2705 23.0388 20.3505C23.0388 20.4305 23.0388 20.4305 22.9588 20.5105L21.1188 21.2305C21.0388 21.2305 20.9588 21.2305 20.9588 21.1505C20.8788 21.0705 20.8788 20.9905 21.0388 20.9105Z" fill="#010101"/>
</g>
<g id="Group_20">
<path id="Vector_17" d="M20.7177 20.5906L22.0777 18.9106C22.0777 18.8306 22.1577 18.8306 22.2377 18.9106C22.3177 18.9106 22.3177 18.9906 22.2377 19.0706L20.9577 20.7506C20.8777 20.8306 20.7977 20.8306 20.7977 20.8306C20.7977 20.8306 20.6377 20.6706 20.7177 20.5906Z" fill="#010101"/>
</g>
<g id="Group_21">
<path id="Vector_18" d="M26.9597 19.0708C26.9597 19.3908 26.7197 19.7108 26.3997 19.7108C26.0797 19.7908 25.6797 19.4708 25.6797 19.0708C25.6797 18.6708 25.9997 18.3508 26.3997 18.4308C26.7197 18.4308 27.0397 18.7508 26.9597 19.0708ZM26.8797 19.0708C26.8797 18.8308 26.6397 18.5908 26.3997 18.6708C26.2397 18.6708 25.9997 18.8308 25.9997 19.0708C25.9997 19.2308 26.1597 19.4708 26.3997 19.4708C26.5597 19.4708 26.8797 19.2308 26.8797 19.0708Z" fill="#010101"/>
</g>
<g id="Group_22">
<path id="Vector_19" d="M24.7959 13.7907C24.8759 14.1907 24.4759 14.5907 24.0759 14.5907C23.5959 14.6707 23.1959 14.1907 23.2759 13.7907C23.2759 13.3107 23.6759 12.9907 24.0759 12.9907C24.4759 12.9907 24.7959 13.4707 24.7959 13.7907ZM24.6359 13.7907C24.6359 13.4707 24.3159 13.2307 23.9959 13.2307C23.6759 13.2307 23.5159 13.4707 23.5159 13.7907C23.5159 14.0307 23.7559 14.3507 23.9959 14.3507C24.3159 14.3507 24.5559 14.1107 24.6359 13.7907Z" fill="#010101"/>
</g>
<g id="Group_23">
<path id="Vector_20" d="M24.8788 23.3905C25.1188 23.4705 25.4388 23.5505 25.6788 23.5505H25.8388C25.9188 23.5505 25.9988 23.6305 26.0788 23.7105C26.1588 23.7905 26.2388 23.8705 26.1588 24.0305C26.0788 24.1905 26.0788 24.1905 25.9988 24.2705C25.9988 24.3505 25.9988 24.4305 25.9188 24.5905C25.9188 24.6705 25.9188 24.6705 25.9988 24.6705L26.7988 24.9105C26.9588 24.9905 26.9588 25.0705 26.9588 25.2305C26.8788 25.3905 26.7988 25.3905 26.6388 25.3905L25.8388 25.0705C25.7588 25.0705 25.5988 24.9105 25.5988 24.9105C25.5188 24.7505 25.5188 24.6705 25.5988 24.5105C25.6788 24.3505 25.7588 24.2705 25.8388 24.1105C25.9188 23.9505 25.9988 23.9505 25.9188 23.8705C25.9188 23.8705 25.9188 23.7905 25.8388 23.7905L25.6788 23.7105C25.4388 23.6305 25.1188 23.6305 24.8788 23.5505C24.7988 23.5505 24.7188 23.4705 24.7188 23.3905C24.7188 23.3105 24.7988 23.3905 24.8788 23.3905Z" fill="#010101"/>
</g>
<path id="Vector_21" d="M27.1953 9.71045L29.4353 15.4705" stroke="#010101" stroke-width="0.4044" stroke-miterlimit="10"/>
<g id="Group_24">
<path id="Vector_22" d="M13.4387 16.4308H9.67875L9.83875 16.2708C9.83875 16.7508 9.83875 17.3108 9.83875 17.7908C9.83875 17.9508 9.75875 17.9508 9.67875 17.9508C9.51875 17.9508 9.19875 17.9508 9.03875 18.0308L9.27875 17.7908L9.43875 20.9908L9.11875 20.6708H9.67875C9.83875 20.6708 9.99875 20.8308 9.99875 20.9908V22.3508C9.99875 22.5108 9.83875 22.6708 9.67875 22.6708H9.03875L9.35875 22.3508V25.5508L9.03875 25.2308H9.59875C9.75875 25.2308 9.91875 25.3908 9.91875 25.5508V26.0308L9.59875 25.7108C10.0787 25.7108 10.3987 25.7108 10.8787 25.7908C11.1187 25.8708 11.3587 25.8708 11.5987 25.9508C11.8387 26.0308 12.0787 26.1908 12.2387 26.5108C12.3987 26.8308 12.3187 27.0708 12.3187 27.2308C12.3187 27.3908 12.3187 27.3908 12.2387 27.5508C12.2387 27.7108 12.1587 27.8708 12.0787 28.0308C11.9187 28.2708 11.5987 28.4308 11.3587 28.5108C11.1187 28.5908 10.8787 28.6708 10.6387 28.6708L10.9587 28.3508V29.0708L10.6387 28.7508L18.8787 28.9108C19.0387 28.9108 19.1987 29.0708 19.1987 29.2308C19.1987 29.3908 19.0387 29.5508 18.8787 29.5508L10.6387 29.2308C10.4787 29.2308 10.3187 29.0708 10.3187 28.9108V28.1908C10.3187 28.0308 10.4787 27.8708 10.6387 27.8708C10.9587 27.8708 11.3587 27.7108 11.5187 27.6308C11.5987 27.5508 11.5987 27.4708 11.5987 27.1508C11.5987 26.9908 11.6787 26.7508 11.5987 26.6708C11.5987 26.5108 11.1187 26.4308 10.7987 26.3508C10.4787 26.2708 9.99875 26.2708 9.59875 26.2708C9.43875 26.2708 9.27875 26.1108 9.27875 25.9508V25.4708L9.59875 25.7908H9.03875C8.87875 25.7908 8.71875 25.6308 8.71875 25.4708V22.2708C8.71875 22.1108 8.87875 21.9508 9.03875 21.9508H9.59875L9.27875 22.2708V20.9108L9.59875 21.2308H9.03875C8.87875 21.2308 8.71875 21.0708 8.71875 20.9108L8.79875 17.7108V17.6308C8.79875 17.4708 8.87875 17.4708 8.95875 17.4708H9.03875C9.19875 17.5508 9.51875 17.5508 9.67875 17.5508L9.51875 17.7108C9.51875 17.2308 9.51875 16.6708 9.51875 16.1908C9.51875 16.1108 9.59875 16.0308 9.67875 16.0308H13.4387C13.5987 16.0308 13.5987 16.1108 13.5987 16.1908C13.5987 16.2708 13.5187 16.4308 13.4387 16.4308Z" fill="#010101"/>
</g>
<g id="Group_25">
<path id="Vector_23" d="M13.2769 16.2708C13.1169 16.0308 12.9569 15.6308 13.0369 15.3108C13.1169 14.9108 13.3569 14.6708 13.5169 14.5108C13.7569 14.3508 13.9969 14.1108 14.3169 14.0308C14.7169 14.0308 14.9569 14.1908 15.2769 14.3508C15.4369 14.4308 15.4369 14.5108 15.3569 14.6708C15.2769 14.8308 15.1969 14.8308 15.0369 14.7508C15.0369 14.7508 14.9569 14.7508 14.9569 14.6708C14.7969 14.5108 14.4769 14.4308 14.3969 14.4308C14.2369 14.5108 13.9169 14.5908 13.7569 14.8308C13.5969 14.9908 13.3569 15.2308 13.3569 15.3908C13.2769 15.5508 13.4369 15.8708 13.5169 16.0308C13.5969 16.1108 13.5969 16.2708 13.5169 16.3508C13.5969 16.3508 13.4369 16.3508 13.2769 16.2708Z" fill="#010101"/>
</g>
<g id="Group_26">
<path id="Vector_24" d="M12.7991 18.0304L9.19906 17.9504C9.03906 17.9504 9.03906 17.7904 9.03906 17.7904C9.03906 17.6304 9.19906 17.6304 9.19906 17.6304L12.7991 17.7104C12.9591 17.7104 12.9591 17.7904 12.9591 17.8704C12.9591 17.9504 12.8791 18.0304 12.7991 18.0304Z" fill="#010101"/>
</g>
</g>
</g>
</g>
</g>
</g>
</g>
</svg>
