<svg width="32" height="32" viewBox="0 0 32 32" fill="none" xmlns="http://www.w3.org/2000/svg">
<g id="icon_promos">
<g id="Group 30698">
<path id="Vector" d="M12 25C18.0751 25 23 20.0751 23 14C23 7.92487 18.0751 3 12 3C5.92487 3 1 7.92487 1 14C1 20.0751 5.92487 25 12 25Z" fill="#FFD71C"/>
<path id="Vector_2" d="M21.4593 15.2121V28.9996M21.4593 15.2121C21.0756 13.6312 20.4151 12.2796 19.5637 11.3337C18.7124 10.3878 17.7098 9.89133 16.6867 9.90916C15.9835 9.90916 15.309 10.1885 14.8118 10.6857C14.3146 11.183 14.0352 11.8574 14.0352 12.5606C14.0352 13.2638 14.3146 13.9382 14.8118 14.4355C15.309 14.9327 15.9835 15.212 16.6867 15.212M21.4593 15.2121C21.8429 13.6312 22.5035 12.2796 23.3548 11.3337C24.2061 10.3878 25.2087 9.89133 26.2319 9.90916C26.9351 9.90916 27.6095 10.1885 28.1067 10.6857C28.604 11.183 28.8833 11.8574 28.8833 12.5606C28.8833 13.2638 28.604 13.9382 28.1067 14.4355C27.6095 14.9327 26.9351 15.212 26.2319 15.212M28.8833 19.4544V26.8784C28.8833 27.441 28.6598 27.9805 28.262 28.3783C27.8642 28.7761 27.3247 28.9996 26.7621 28.9996H16.1564C15.5938 28.9996 15.0543 28.7761 14.6565 28.3783C14.2587 27.9805 14.0352 27.441 14.0352 26.8784V19.4544M11.9141 16.2727C11.9141 15.9914 12.0258 15.7216 12.2247 15.5227C12.4236 15.3238 12.6934 15.2121 12.9746 15.2121H29.9439C30.2252 15.2121 30.4949 15.3238 30.6938 15.5227C30.8927 15.7216 31.0045 15.9914 31.0045 16.2727V18.3938C31.0045 18.6751 30.8927 18.9449 30.6938 19.1438C30.4949 19.3427 30.2252 19.4544 29.9439 19.4544H12.9746C12.6934 19.4544 12.4236 19.3427 12.2247 19.1438C12.0258 18.9449 11.9141 18.6751 11.9141 18.3938V16.2727Z" stroke="#010101" stroke-width="0.8" stroke-linecap="round" stroke-linejoin="round"/>
</g>
</g>
</svg>
