<svg width="32" height="32" viewBox="0 0 32 32" fill="none" xmlns="http://www.w3.org/2000/svg">
<g id="icon_7">
<g id="Group 30699">
<path id="Vector" d="M12 24C18.0751 24 23 19.0751 23 13C23 6.92487 18.0751 2 12 2C5.92487 2 1 6.92487 1 13C1 19.0751 5.92487 24 12 24Z" fill="#FFD71C"/>
<path id="Vector_2" d="M30.6353 6.9754C30.6353 6.8954 30.6353 6.7354 30.6353 6.6554C30.5553 6.4154 30.3953 6.2554 30.2353 6.1754L29.1153 5.0554C28.9553 4.8954 28.7953 4.8954 28.6353 4.9754C28.3153 5.2954 27.9953 5.6954 27.6753 6.0154C27.2753 6.4954 26.3953 7.5354 25.9153 8.0154C25.5953 8.5754 25.1953 8.1754 24.7953 8.6554C24.9553 8.4954 25.1953 8.4154 25.4353 8.4154C25.6753 8.4954 25.9153 8.2554 26.0753 8.0954L27.1153 7.2154C27.5953 6.7354 28.3953 6.0954 28.9553 5.6154C29.3553 5.9354 29.9953 6.6554 30.1553 6.7354C30.1553 7.0554 30.3953 7.3754 30.6353 7.6154C30.6353 7.6954 30.6353 7.6954 30.5553 7.6954C30.4753 7.6154 30.3953 7.4554 30.3953 7.4554C30.1553 7.4554 29.9153 7.2954 29.7553 7.2954C29.6753 7.2954 29.5953 7.2954 29.6753 7.2954C29.6753 7.2954 29.5153 7.2154 29.4353 7.0554C29.2753 6.8154 28.9553 6.4154 28.6353 6.6554C27.8353 7.4554 27.0353 8.1754 26.3153 9.0554C26.1553 9.2954 26.2353 9.6154 26.0753 9.8554C25.9153 10.0954 25.3553 10.6554 25.1953 10.8154C25.0353 10.9754 24.6353 11.2954 24.7953 11.6154C24.8753 11.9354 24.9553 12.2554 25.1953 12.4954C25.1153 12.4954 24.9553 12.4154 24.9553 12.4154L24.7953 12.4954C24.6353 12.5754 24.7153 12.8154 24.8753 12.9754C24.7153 12.9754 24.4753 12.8954 24.3953 12.9754C24.1553 13.0554 24.3153 13.2954 24.3153 13.5354C24.1553 13.4554 23.9153 13.4554 23.8353 13.4554C23.5953 13.5354 23.6753 13.8554 23.7553 14.0154C23.5953 14.0154 23.3553 13.9354 23.3553 14.0154C23.1153 14.0154 23.1953 14.3354 23.2753 14.5754C23.1953 14.5754 23.0353 14.5754 22.9553 14.6554L22.8753 14.8154C22.7953 14.8954 22.7153 14.9754 22.7153 15.0554C22.6353 15.0554 22.6353 14.9754 22.6353 14.9754C22.4753 14.8954 22.3153 14.8154 22.0753 14.8154C21.8353 14.8954 21.7553 15.0554 21.5953 15.1354C21.4353 14.9754 21.3553 15.0554 21.1953 15.1354C20.8753 14.8154 20.2353 14.1754 19.9953 13.9354V13.8554C20.0753 13.7754 19.9953 13.6954 19.9153 13.6154C20.5553 13.4554 20.5553 12.6554 20.1553 12.1754C20.3153 12.1754 20.4753 12.1754 20.4753 12.0154V11.6954C20.7153 11.7754 21.0353 11.8554 21.0353 11.5354L20.7953 11.2154L21.1153 11.2954C21.2753 11.2954 21.3553 11.2154 21.3553 11.0554L21.2753 10.7354C21.4353 10.8154 21.6753 10.8954 21.7553 10.8154C21.9953 10.7354 21.8353 10.4154 21.7553 10.1754C21.9153 10.1754 22.0753 10.2554 22.0753 10.2554C22.3153 10.3354 22.3153 10.0954 22.3153 9.8554C22.7153 10.1754 23.1953 10.4954 23.7553 10.3354C24.1553 10.0954 24.2353 9.9354 24.3153 9.4554C24.2353 9.0554 23.5153 9.4554 23.4353 9.6154C23.0353 9.5354 22.6353 9.4554 22.2353 9.4554C22.1553 9.4554 22.0753 9.5354 22.0753 9.6154C22.0753 9.6154 22.0753 9.7754 21.9953 9.9354C21.8353 10.0154 21.5953 10.0154 21.5153 10.1754L21.4353 10.4154C21.2753 10.4954 21.0353 10.5754 21.0353 10.6554L20.9553 10.8954L20.6353 10.9754C20.5553 10.9754 20.5553 11.2154 20.4753 11.3754C20.3153 11.4554 19.9953 11.4554 20.0753 11.5354C20.0753 11.5354 20.0753 11.6954 19.9953 11.8554C19.8353 11.8554 19.6753 11.9354 19.6753 11.9354C19.5953 11.9354 19.5153 12.0154 19.5953 12.0954C19.5153 12.6554 19.7553 12.8154 19.5153 13.4554L19.4353 13.6154C19.4353 13.6154 19.4353 13.6954 19.5153 13.6954C19.4353 13.6954 19.3553 13.7754 19.3553 13.7754C19.2753 13.7754 19.1953 13.7754 19.0353 13.7754C18.6353 13.9354 18.4753 14.5754 17.9953 14.6554C17.4353 14.7354 16.0753 14.0154 15.5153 13.8554C15.4353 13.7754 15.3553 13.9354 15.2753 14.0954C15.1953 14.0154 15.1153 13.9354 15.0353 13.8554C14.5553 13.7754 13.9153 13.3754 13.5953 13.8554C13.5153 13.9354 13.4353 14.0954 13.4353 14.1754C13.1153 14.0954 12.4753 13.9354 12.4753 13.9354C12.3953 13.9354 12.3153 13.9354 12.3153 14.0154L11.9953 15.0554C11.9953 15.0554 12.2353 14.4954 12.3953 14.3354C12.5553 14.4154 13.4353 14.7354 13.4353 14.7354C13.5153 14.8154 13.6753 14.7354 13.6753 14.5754C13.7553 14.3354 13.7553 14.0954 14.0753 14.1754C14.2353 14.1754 14.4753 14.3354 14.6353 14.4154C14.3153 15.2154 14.0753 16.0154 13.7553 16.8154C13.6753 16.8154 13.5953 16.7354 13.5953 16.7354C13.3553 16.6554 13.1153 16.6554 13.0353 16.4154C13.0353 16.2554 13.2753 15.8554 12.9553 15.7754L11.7553 15.5354C11.7553 15.5354 11.6753 15.6154 11.7553 15.6154L12.7953 16.0954C12.7153 16.4154 12.6353 16.8954 13.0353 17.0554C13.3553 17.2154 13.6753 17.2954 13.9953 17.4554C14.1553 17.5354 14.2353 17.4554 14.3153 17.3754C14.3153 17.5354 14.3153 17.6954 14.4753 17.7754C14.6353 17.8554 14.8753 17.9354 15.0353 18.0154C15.0353 18.0954 14.9553 18.0954 14.9553 18.1754C14.8753 18.3354 14.8753 18.4954 14.8753 18.7354C14.7153 18.6554 14.6353 18.8954 14.5553 18.9754C14.4753 18.9754 14.4753 18.8954 14.4753 18.8954C14.4753 18.8954 14.4753 18.8954 14.3953 18.8954C14.1553 18.9754 13.8353 19.0554 13.6753 19.0554C13.4353 19.0554 13.1153 18.9754 12.8753 18.9754C12.7953 18.9754 12.7153 18.9754 12.7153 19.0554L12.6353 19.2954C12.4753 19.2954 12.3153 19.3754 12.3153 19.3754C12.2353 19.3754 12.2353 19.4554 12.2353 19.5354L12.1553 19.8554C11.9953 19.9354 11.7553 19.9354 11.7553 20.0154L11.6753 20.3354C11.5153 20.3354 11.4353 20.4154 11.4353 20.4154C11.3553 20.4154 11.3553 20.4954 11.2753 20.4954L11.1953 20.7354C11.1153 20.8154 10.9553 20.8154 10.9553 20.8154C10.7953 20.8154 10.7953 21.0554 10.7153 21.2954C10.5553 21.2954 10.3953 21.3754 10.3953 21.3754C10.3153 21.3754 10.2353 21.4554 10.2353 21.5354C10.2353 21.9354 10.2353 22.4154 10.3953 22.7354C10.2353 22.8154 10.0753 23.1354 10.0753 23.4554C10.0753 23.5354 10.1553 23.6154 10.2353 23.6154C10.7153 23.6154 10.8753 23.5354 11.1153 23.0554C11.2753 22.4954 10.9553 22.0954 10.6353 21.6154C10.7953 21.6154 10.8753 21.6954 10.8753 21.6154C11.1153 21.6154 11.0353 21.2954 10.9553 21.0554C11.1153 21.1354 11.3553 21.1354 11.3553 21.1354C11.6753 21.0554 11.5153 20.7354 11.4353 20.4954C11.5953 20.4954 11.7553 20.5754 11.7553 20.5754C12.0753 20.5754 11.9153 20.2554 11.9153 20.0154C12.0753 20.0154 12.2353 20.0954 12.2353 20.0954C12.5553 20.0954 12.3953 19.7754 12.3953 19.5354C12.5553 19.5354 12.8753 19.6154 12.9553 19.4554C12.9553 19.4554 12.9553 19.3754 12.9553 19.2954C13.4353 19.6954 14.2353 19.6954 14.3953 19.0554C14.4753 19.1354 14.5553 19.1354 14.6353 19.1354H14.7153C14.9553 19.3754 15.6753 20.0154 15.9153 20.3354L15.8353 20.4154C15.7553 20.4954 15.7553 20.6554 15.9153 20.7354C15.7553 20.8954 15.5953 20.9754 15.5953 21.2154C15.5953 21.3754 15.6753 21.6154 15.7553 21.8554C15.6753 21.8554 15.5953 21.9354 15.5153 22.0154L15.3553 22.0954C15.3553 22.1754 15.2753 22.3354 15.2753 22.4154L15.0353 22.4954C14.7953 22.4954 14.8753 22.8154 14.8753 23.0554C14.6353 22.9754 14.3153 22.8154 14.3153 23.1354C14.3153 23.2154 14.3153 23.4554 14.3953 23.6154C14.2353 23.5354 13.9153 23.4554 13.8353 23.6954C13.8353 23.6954 13.8353 23.9354 13.8353 24.1754L13.5953 23.9354C13.4353 23.8554 13.3553 24.0154 13.3553 24.1754L13.4353 24.4154C13.2753 24.2554 13.0353 24.1754 12.7953 24.0954C12.6353 24.0154 12.2353 23.9354 12.0753 24.0954C11.7553 24.3354 11.3553 24.8154 11.0353 25.0554C10.7953 25.2954 10.6353 25.5354 10.2353 25.4554C9.91531 25.4554 9.59531 25.7754 9.43531 25.9354C8.79531 26.6554 8.07531 27.2954 7.43531 28.0154C7.11531 28.3354 7.59531 28.6554 7.83531 28.8154C7.99531 28.8954 8.07531 29.0554 8.07531 28.9754C8.07531 29.0554 8.15531 29.4554 8.31531 29.5354C8.31531 29.5354 8.39531 29.6154 8.55531 29.6954L8.47531 29.7754C8.23531 29.5354 7.99531 29.2954 7.59531 29.2954C7.51531 29.1354 6.79531 28.4954 6.47531 28.0954C6.95531 27.5354 7.59531 26.8154 8.07531 26.2554L8.95531 25.2154C9.11531 25.0554 9.35531 24.8154 9.27531 24.5754C9.27531 24.3354 9.35531 24.0954 9.51531 23.9354C9.03531 24.3354 9.43531 24.7354 8.87531 25.0554C8.39531 25.5354 7.35531 26.4154 6.79531 26.8954C6.47531 27.2154 6.07531 27.4554 5.75531 27.8554C5.67531 28.0154 5.67531 28.1754 5.75531 28.2554L6.87531 29.3754C7.03531 29.6954 7.19531 29.9354 7.43531 30.0154C7.51531 30.0154 7.67531 30.0154 7.75531 30.0154C7.91531 30.0154 8.31531 30.8154 8.63531 30.4154C8.71531 30.1754 9.19531 29.8554 9.03531 29.6954L8.71531 29.2954C8.63531 29.1354 8.63531 29.2154 8.63531 28.9754C8.55531 28.5754 8.39531 28.4154 8.23531 28.2554C8.79531 27.6954 9.43531 27.0554 9.91531 26.4954C10.2353 26.1754 10.1553 26.2554 10.5553 26.1754C10.8753 26.1754 11.1953 25.7754 11.4353 25.5354C11.5953 25.2954 12.1553 24.7354 12.3953 24.5754C12.6353 24.6554 13.1153 24.8154 13.5153 24.8154C13.6753 24.8954 13.6753 24.8154 13.6753 24.7354C13.6753 24.7354 13.7553 24.5754 13.7553 24.4154C13.9153 24.4154 13.9953 24.4154 13.9953 24.4154C14.1553 24.4954 14.1553 24.1754 14.2353 23.9354C14.3953 23.9354 14.5553 23.8554 14.5553 23.8554C14.6353 23.8554 14.7153 23.6154 14.7953 23.4554C14.9553 23.3754 15.0353 23.3754 15.0353 23.3754C15.1153 23.3754 15.1953 23.3754 15.1953 23.2954C15.1953 23.2954 15.2753 23.1354 15.2753 22.9754C15.4353 22.9754 15.5953 22.8954 15.5953 22.8954C15.7553 22.8954 15.7553 22.6554 15.7553 22.4954H15.8353C15.9953 22.5754 16.0753 22.3354 16.1553 22.1754C16.1553 22.0154 15.9153 21.4554 15.9153 21.3754C15.9953 21.2954 16.3953 21.0554 16.3953 20.8154C16.3953 20.7354 16.3953 20.6554 16.3153 20.5754L16.3953 20.4954C16.3953 20.4954 16.3953 20.4154 16.4753 20.4154C16.4753 20.4154 16.4753 20.4154 16.5553 20.4154C17.9953 18.9754 19.4353 17.5354 20.7953 16.0954C20.8753 16.0154 20.8753 15.8554 20.8753 15.7754C20.9553 15.7754 21.0353 15.7754 21.1153 15.7754C21.1153 15.7754 21.1953 15.7754 21.1953 15.6954C21.2753 15.6954 21.3553 15.7754 21.4353 15.7754C21.7553 15.7754 21.9153 15.3754 21.9953 15.2954C22.0753 15.2954 22.6353 15.4554 22.7953 15.5354C22.9553 15.3754 23.1953 15.3754 23.1153 15.2154V15.1354C23.2753 15.1354 23.4353 15.1354 23.5153 14.9754L23.5953 14.6554L23.9153 14.5754C23.9953 14.5754 23.9953 14.4954 23.9953 14.4154C23.9953 14.4154 24.0753 14.2554 24.0753 14.1754C24.3153 14.0954 24.5553 14.0154 24.4753 13.9354L24.5553 13.6954C24.7153 13.6154 24.9553 13.6154 25.0353 13.6154C25.1153 13.6154 25.1153 13.5354 25.1153 13.4554C25.1153 13.4554 25.1153 13.2954 25.1153 13.2154C25.2753 13.2154 25.4353 13.1354 25.4353 13.1354C25.5153 13.1354 25.5953 13.0554 25.5153 12.9754C25.5953 12.6554 25.3553 12.0954 25.2753 11.8554C25.4353 11.6954 25.9953 11.1354 26.2353 10.8954C26.4753 10.6554 26.7953 10.3354 26.8753 10.0154C26.9553 9.6154 26.8753 9.6954 27.1953 9.3754C27.7553 8.8154 28.3953 8.1754 28.9553 7.6954C29.1153 7.8554 29.2753 8.0154 29.6753 8.0954C29.9153 8.0954 29.8353 8.0154 29.9953 8.1754L30.3953 8.4954C30.6353 8.6554 30.9553 8.2554 31.1153 8.0954C31.3553 7.5354 30.5553 7.1354 30.6353 6.9754ZM23.3553 9.5354C23.4353 9.5354 23.4353 9.5354 23.3553 9.5354V9.5354ZM16.3153 19.3754C16.1553 19.3754 15.7553 18.8954 15.4353 18.4954C15.5953 18.3354 15.6753 18.2554 15.8353 18.0954C15.9953 17.9354 15.9953 17.3754 15.7553 17.2954C15.4353 17.2154 15.1953 17.0554 14.8753 16.9754C15.1153 16.2554 15.3553 15.5354 15.5953 14.8954C16.3153 15.2154 17.5953 15.9354 18.2353 15.6954C18.4753 15.6154 18.6353 15.2954 18.8753 15.1354C19.4353 14.8154 19.8353 15.2954 20.2353 15.6954C19.3553 16.5754 18.5553 17.4554 17.6753 18.2554C17.3553 18.4954 16.7153 19.3754 16.3153 19.3754Z" fill="#010101"/>
</g>
</g>
</svg>
