<svg width="32" height="32" viewBox="0 0 32 32" fill="none" xmlns="http://www.w3.org/2000/svg">
<g id="icon_3">
<g id="Group">
<path id="Vector" d="M12 24C18.0751 24 23 19.0751 23 13C23 6.92487 18.0751 2 12 2C5.92487 2 1 6.92487 1 13C1 19.0751 5.92487 24 12 24Z" fill="#FFD71C"/>
<g id="&#208;&#161;&#208;&#187;&#208;&#190;&#208;&#185;_1_1_">
<g id="Group_2">
<g id="Group_3">
<g id="Group_4">
<path id="Vector_2" d="M15.4559 17.9399C15.5359 17.6999 15.6159 17.5399 15.7759 17.3799C15.8559 17.2999 15.9359 17.2999 16.0159 17.2999L17.6959 18.0999L17.4559 18.1799C17.5359 17.8599 17.7759 17.7799 17.9359 17.6199C18.1759 17.5399 18.4159 17.4599 18.6559 17.4599C18.8959 17.4599 19.136 17.5399 19.2959 17.6199L19.8559 17.8599C19.9359 17.8599 19.9359 17.9399 19.9359 17.9399C20.0159 18.0199 20.0159 18.1799 20.0159 18.2599C20.0159 18.3399 20.0159 18.4999 20.0159 18.5799L19.9359 18.4199L22.576 19.8599C22.656 19.8599 22.6559 19.9399 22.6559 19.9399L22.7359 20.3399L22.6559 20.2599L23.4559 20.6599H23.216C23.4559 20.4999 23.616 20.5799 23.776 20.5799C23.856 20.5799 23.936 20.5799 24.096 20.6599C24.176 20.6599 24.2559 20.7399 24.3359 20.7399C24.656 20.8199 24.816 21.0599 25.136 21.2199C25.3759 21.3799 25.6159 21.5399 25.8559 21.6999C25.9359 21.7799 25.9359 21.7799 26.016 21.9399C26.096 22.0199 26.096 22.0199 26.096 22.1799C26.176 22.3399 26.1759 22.4999 26.2559 22.6599C26.3359 22.9799 26.3359 23.2999 26.2559 23.6199C26.1759 23.9399 26.096 24.2599 26.016 24.4999C25.7759 25.0599 25.5359 25.6199 25.2959 26.1799C24.976 26.6599 24.736 27.2199 24.416 27.6999C24.2559 27.9399 24.0959 28.1799 23.8559 28.4199C23.6159 28.6599 23.3759 28.8999 23.0559 28.9799C22.7359 29.0599 22.3359 29.1399 22.016 29.0599C21.696 28.9799 21.3759 28.8999 21.1359 28.7399C20.8159 28.6599 20.5759 28.4199 20.3359 28.2599C20.0959 28.0199 19.8559 27.9399 19.6959 27.5399L19.776 27.6199C19.5359 27.5399 19.2959 27.3799 19.0559 27.2199H19.3759C19.056 27.3799 18.8159 27.2999 18.4959 27.2999C18.176 27.2199 18.0159 27.0599 17.8559 26.9799L16.6559 26.3399L16.9759 26.2599C16.7359 26.5799 16.4959 26.9799 16.2559 27.3799C16.1759 27.4599 16.1759 27.4599 16.0959 27.4599C15.3759 27.5399 14.7359 27.7799 14.0159 27.7799C13.9359 27.7799 13.7759 27.6999 13.696 27.6999C12.976 26.8999 12.2559 26.0999 11.5359 25.2199C11.4559 25.1399 11.2959 24.9799 11.2159 24.8199C11.1359 24.6599 11.2159 24.6599 11.1359 24.4999C11.1359 24.1799 11.2159 23.7799 11.4559 23.5399C11.7759 23.1399 12.1759 22.6599 12.4959 22.2599L12.5759 22.5799L10.3359 21.3799H10.4959C10.2559 21.4599 10.0159 21.4599 9.77595 21.4599C9.53595 21.4599 9.29595 21.2999 9.05595 21.0599C8.89595 20.8199 8.89595 20.5799 8.81595 20.3399C8.81595 20.0999 8.81595 19.8599 8.89595 19.6199L9.21595 19.7799C9.13595 19.8599 8.89595 19.8599 8.73595 19.7799C8.57595 19.6999 8.49595 19.4599 8.41595 19.3799C8.33595 19.0599 8.41595 18.8999 8.49595 18.6599C8.57595 18.1799 8.81595 17.7799 8.97595 17.4599C9.21595 17.0599 9.37595 16.7399 9.69595 16.3399C9.85595 16.1799 10.0159 16.0199 10.3359 15.9399C10.4159 15.9399 10.4159 15.8599 10.5759 15.9399C10.6559 15.9399 10.8159 16.0199 10.8159 16.0999C10.8959 16.2599 10.8959 16.4199 10.8959 16.5799H10.6559C10.8159 16.4199 10.9759 16.2599 11.1359 16.1799C11.2959 16.0999 11.5359 15.9399 11.7759 15.9399C12.0159 15.8599 12.3359 16.0199 12.4959 16.2599C12.5759 16.4999 12.6559 16.6599 12.7359 16.8999L12.656 16.8199C13.616 17.1399 14.5759 17.5399 15.4559 17.9399ZM15.6159 18.3399C14.5759 17.9399 13.6159 17.4599 12.5759 17.0599C12.4959 17.0599 12.4959 16.9799 12.4959 16.9799C12.4159 16.8199 12.4159 16.5799 12.3359 16.4999C12.2559 16.4199 12.0959 16.2599 12.0159 16.3399C11.6959 16.3399 11.2959 16.6599 11.1359 16.8199C11.0559 16.8999 10.9759 16.8999 10.8959 16.8199C10.8159 16.7399 10.8159 16.7399 10.8159 16.6599C10.8159 16.5799 10.8159 16.4999 10.8159 16.4999C10.8159 16.4999 10.8159 16.4999 10.7359 16.4999C10.5759 16.5799 10.4159 16.6599 10.2559 16.8199C9.93595 17.1399 9.77595 17.4599 9.53595 17.8599C9.37595 18.1799 9.21595 18.5799 9.05595 18.9799C8.97595 19.1399 8.97595 19.3799 8.97595 19.5399C8.97595 19.6199 9.05595 19.6199 9.05595 19.6199C9.05595 19.6199 9.13595 19.6199 9.21595 19.6199C9.29595 19.5399 9.45595 19.6199 9.45595 19.6999C9.45595 19.7799 9.45595 19.7799 9.45595 19.7799C9.45595 19.9399 9.37595 20.1799 9.37595 20.3399C9.37595 20.4999 9.45595 20.7399 9.53595 20.8199C9.61595 20.8999 9.77595 21.0599 9.93595 21.0599C10.0959 21.0599 10.2559 21.0599 10.4159 20.9799C10.4959 20.9799 10.4959 20.9799 10.5759 20.9799L12.8159 22.1799C12.8959 22.2599 12.8959 22.3399 12.8959 22.4999C12.576 22.9799 12.2559 23.3799 12.0159 23.8599C11.9359 24.0199 11.8559 24.2599 11.9359 24.4199C11.9359 24.4999 12.0159 24.5799 12.0159 24.7399C12.0959 24.8199 12.0959 24.8199 12.2559 24.9799C12.9759 25.7799 13.7759 26.5799 14.4159 27.3799L14.096 27.2999C14.8159 27.2199 15.4559 27.2199 16.1759 27.1399H16.0159C16.3359 26.8199 16.4959 26.4199 16.7359 26.0199C16.8159 25.9399 16.9759 25.8599 17.0559 25.9399L18.2559 26.4999C18.4159 26.5799 18.6559 26.7399 18.8159 26.8199C18.9759 26.8999 19.136 26.8999 19.2959 26.8199C19.3759 26.7399 19.4559 26.8199 19.6159 26.8199C19.8559 26.9799 20.0959 27.1399 20.3359 27.2999C20.4159 27.2999 20.4159 27.3799 20.4159 27.3799C20.4959 27.5399 20.7359 27.6999 20.8959 27.8599C21.136 28.0199 21.3759 28.1799 21.616 28.1799C22.096 28.3399 22.7359 28.4199 23.136 28.2599C23.5359 28.0999 23.9359 27.6199 24.2559 27.1399C24.5759 26.6599 24.896 26.1799 25.136 25.6199C25.4559 25.1399 25.6159 24.5799 25.8559 24.0999C25.9359 23.7799 26.096 23.5399 26.096 23.2999C26.176 22.9799 26.176 22.7399 26.096 22.4999C26.096 22.4199 26.016 22.2599 26.016 22.1799C26.016 22.0999 25.9359 22.0999 25.9359 22.0199C25.9359 21.9399 25.8559 21.9399 25.8559 21.9399C25.6959 21.7799 25.3759 21.6199 25.136 21.4599C24.656 21.1399 24.096 20.7399 23.776 20.9799H23.696C23.616 20.9799 23.6159 20.9799 23.5359 20.9799L22.7359 20.5799C22.6559 20.5799 22.6559 20.4999 22.6559 20.4999L22.576 20.0999L22.6559 20.1799L19.9359 18.8999C19.8559 18.8199 19.8559 18.8199 19.8559 18.7399C19.8559 18.6599 19.8559 18.5799 19.8559 18.4199C19.8559 18.3399 19.776 18.2599 19.776 18.1799L19.8559 18.2599L19.2159 18.0999C18.9759 18.0199 18.8959 17.9399 18.6559 17.9399C18.4959 17.9399 18.3359 17.9399 18.1759 18.0199C18.0159 18.0999 17.8559 18.2599 17.8559 18.3399C17.7759 18.4199 17.6959 18.4999 17.6159 18.4199L15.9359 17.6199L16.1759 17.5399C15.9359 17.8599 15.7759 18.0999 15.6159 18.3399Z" fill="#010101"/>
</g>
<g id="Group_5">
<path id="Vector_3" d="M23.9334 27.9399C24.2534 28.0199 24.6534 28.2599 24.8934 28.4199H24.6534C24.7334 28.3399 24.8934 28.2599 24.9734 28.1799L25.0534 28.0999C25.1334 28.0999 25.1334 28.0999 25.2134 28.0999C25.6134 28.2599 25.9334 28.4199 26.3334 28.6599C26.4134 28.7399 26.4134 28.7399 26.4134 28.8999C26.4134 28.9799 26.4934 29.1399 26.4934 29.2199C26.5734 29.2999 26.5734 29.2999 26.7334 29.3799C26.8134 29.3799 26.9734 29.3799 27.0534 29.2999C27.1334 29.2199 27.3734 29.2199 27.4534 29.1399C27.5334 29.0599 27.6134 29.0599 27.7734 29.1399L28.0134 29.3799C28.0934 29.3799 28.0934 29.4599 28.0934 29.3799H28.1734L28.2534 29.2999L28.4934 29.1399C28.5734 29.0599 28.7334 29.0599 28.8134 29.0599C28.9734 29.1399 29.1334 29.1399 29.2134 29.1399C29.2934 29.1399 29.4534 29.1399 29.5334 29.0599C29.6134 28.9799 29.7734 28.9799 29.8534 28.8199L29.9334 28.7399L30.0134 28.6599L30.0934 28.4199C30.1734 28.2599 30.2534 28.0999 30.3334 27.9399C30.4134 27.8599 30.4134 27.6999 30.4134 27.6199C30.4134 27.5399 30.3334 27.3799 30.2534 27.2999C30.1734 27.2199 30.0934 27.1399 29.9334 27.0599C29.8534 26.9799 29.7734 26.8999 29.8534 26.7399L29.9334 26.4199V26.3399V26.2599V26.1799C29.9334 26.0999 29.8534 26.0999 29.8534 26.0999L29.4534 26.1799C29.3734 26.0999 29.3734 26.0999 29.3734 26.0199C29.3734 25.8599 29.3734 25.6999 29.2934 25.5399C29.2134 25.4599 29.2134 25.2199 29.1334 25.2199C29.0534 25.1399 28.9734 25.1399 28.8134 25.1399C28.6534 25.1399 28.4934 25.1399 28.4134 25.2199C28.3334 25.2999 28.3334 25.2999 28.2534 25.2199L27.1334 24.4999C27.0534 24.4999 27.0534 24.4199 27.0534 24.4199V24.0199L27.1334 24.0999L26.1734 23.3799L27.2934 23.8599C27.3734 23.8599 27.3734 23.9399 27.3734 23.9399V24.3399L27.2934 24.2599L28.4134 24.7399H28.2534C28.4134 24.6599 28.5734 24.6599 28.8134 24.6599C29.0534 24.6599 29.2134 24.7399 29.3734 24.8999C29.5334 25.0599 29.6134 25.2199 29.6934 25.3799C29.7734 25.5399 29.7734 25.6999 29.7734 25.8599L29.6934 25.6999L30.0134 25.7799C30.0934 25.8599 30.3334 25.9399 30.3334 26.0999C30.4134 26.1799 30.4134 26.2599 30.4134 26.3399C30.4134 26.4199 30.4134 26.4199 30.4134 26.4199V26.4999V26.8199L30.3334 26.4999C30.4134 26.5799 30.6534 26.7399 30.8134 26.8999C30.9734 27.0599 31.0534 27.2999 31.1334 27.5399C31.2134 27.7799 31.1334 28.0199 31.0534 28.2599C30.9734 28.4999 30.8934 28.5799 30.8134 28.7399L30.7334 28.9799L30.5734 29.0599C30.4934 29.1399 30.4934 29.1399 30.4934 29.2199C30.4134 29.3799 30.1734 29.5399 30.0134 29.6199C29.7734 29.6999 29.5334 29.6999 29.2934 29.6999C29.0534 29.6999 28.8134 29.6199 28.7334 29.5399L29.0534 29.4599L28.8134 29.6999L28.7334 29.7799C28.6534 29.7799 28.6534 29.8599 28.6534 29.8599C28.5734 29.9399 28.4934 29.9399 28.4134 29.9399C28.2534 29.9399 28.0934 29.9399 27.9334 29.8599L27.6134 29.6999H27.9334C27.7734 29.7799 27.6134 29.8599 27.4534 29.9399C27.2934 30.0199 27.0534 30.0199 26.8134 30.0199C26.5734 29.9399 26.3334 29.8599 26.2534 29.6199C26.1734 29.4599 26.0934 29.2199 26.0134 28.9799L26.0934 29.2199C25.7734 28.9799 25.3734 28.8199 25.0534 28.4999H25.2934C25.2134 28.5799 25.0534 28.6599 24.9734 28.7399C24.8934 28.8199 24.8134 28.8199 24.7334 28.7399C24.4134 28.5799 24.0934 28.3399 23.8534 28.0999C23.7734 28.0199 23.7734 27.9399 23.7734 27.8599C23.7734 27.9399 23.8534 27.9399 23.9334 27.9399Z" fill="#010101"/>
</g>
<g id="Group_6">
<path id="Vector_4" d="M17.615 19.8597L14.495 20.1797L14.735 20.0997L11.935 23.9397C11.855 24.0197 11.615 24.0997 11.535 24.0197C11.455 23.9397 11.375 23.6997 11.455 23.6197L14.255 19.7797C14.335 19.6997 14.335 19.6997 14.495 19.6997L17.615 19.8597Z" fill="#010101"/>
</g>
<path id="Vector_5" d="M14.6578 20.0996L16.8178 22.0996C17.2178 22.4196 17.2978 23.0596 16.9778 23.4596L14.2578 27.5396" stroke="#010101" stroke-width="0.534" stroke-miterlimit="10" stroke-linecap="round" stroke-linejoin="round"/>
<g id="Group_7">
<path id="Vector_6" d="M14.3356 21.2998C14.7356 21.6198 15.1356 21.8598 15.5356 22.1798C15.6156 22.2598 15.6956 22.2598 15.8556 22.4198C15.9356 22.4998 16.0156 22.6598 16.0956 22.8198C16.1756 22.9798 16.0956 23.1398 16.0956 23.2998C16.0156 23.4598 15.9356 23.6198 15.8556 23.6998C15.2956 24.4998 14.6556 25.2998 14.0156 25.9398C14.4956 25.0598 14.9756 24.2598 15.5356 23.4598C15.6156 23.3798 15.6156 23.2998 15.6956 23.2198C15.7756 23.1398 15.7756 23.0598 15.6956 22.8998C15.6956 22.8198 15.6156 22.7398 15.6156 22.6598C15.6156 22.5798 15.4556 22.4998 15.3756 22.4198C14.9756 22.0198 14.6556 21.6198 14.3356 21.2998Z" fill="#010101"/>
</g>
<path id="Vector_7" d="M23.7756 22.4199C23.4556 23.5399 23.0556 24.4999 22.4956 25.4599C22.1756 25.9399 21.8556 26.3399 21.5356 26.8199C21.3756 27.0599 21.1356 27.2199 20.8956 27.3799C20.6556 27.5399 20.5756 27.6999 20.1756 27.6999C20.0956 27.6999 20.0156 27.6199 20.0156 27.5399C20.0156 27.4599 20.0156 27.3799 20.0956 27.3799C20.2556 27.3799 20.5756 27.2999 20.8156 27.1399C21.0556 27.0599 21.2156 26.8199 21.4556 26.6599C21.8556 26.2599 22.1756 25.8599 22.4956 25.3799C22.9756 24.4999 23.4556 23.4599 23.7756 22.4199Z" fill="#010101" stroke="#010101" stroke-width="0.178" stroke-miterlimit="10"/>
<path id="Vector_8" d="M21.5366 24.8199C21.2166 25.2999 20.8966 25.6999 20.4966 26.0999C20.4166 26.1799 20.1766 26.4199 20.0166 26.4999C20.0166 26.4999 19.3766 26.8199 19.1366 26.9799C19.0566 26.9799 19.0566 26.9799 19.0566 27.0599C18.9766 27.1399 18.9766 27.1399 18.9766 27.1399C18.9766 27.2199 19.1366 27.2999 19.2966 27.2999C19.6166 27.2999 19.8566 27.1399 20.0966 26.9799C20.3366 26.8199 20.5766 26.5799 20.7366 26.3399C21.1366 25.9399 21.3766 25.4599 21.6166 24.9799C22.1766 24.0199 22.5766 22.9799 22.8966 21.9399C22.6566 22.8199 22.1766 23.8599 21.5366 24.8199Z" fill="#010101" stroke="#010101" stroke-width="0.178" stroke-miterlimit="10"/>
<g id="Group_8">
<path id="Vector_9" d="M26.0975 28.7399C26.3375 28.6599 26.5775 28.4199 26.7375 28.2599C26.9775 28.0199 27.1375 27.7799 27.2975 27.5399C27.6175 27.0599 27.8575 26.4199 28.0975 25.8599C28.0175 26.4999 27.7775 27.0599 27.6175 27.6999C27.5375 28.0199 27.2975 28.2599 27.1375 28.5799C26.9775 28.8999 26.7375 29.0599 26.4175 29.2999C26.3375 29.3799 26.0975 29.3799 26.0175 29.2199C25.9375 29.1399 26.0175 28.9799 26.0975 28.7399Z" fill="#010101"/>
</g>
<g id="Group_9">
<path id="Vector_10" d="M27.3788 29.2999C27.6188 29.2199 27.8588 28.9799 28.0188 28.8199C28.2588 28.5799 28.4188 28.3399 28.5788 28.0999C28.8988 27.6199 29.1388 26.9799 29.3788 26.4199C29.2988 27.0599 29.0588 27.6199 28.8988 28.2599C28.8188 28.5799 28.5788 28.8199 28.4188 29.1399C28.2588 29.4599 28.0188 29.6199 27.6988 29.8599C27.6188 29.9399 27.3788 29.9399 27.2988 29.7799C27.2188 29.6199 27.2988 29.4599 27.3788 29.2999Z" fill="#010101"/>
</g>
<g id="Group_10">
<path id="Vector_11" d="M10.5722 20.8999C10.8122 20.8199 11.0522 20.5799 11.2122 20.3399C11.3722 20.0999 11.5322 19.8599 11.6922 19.6199C12.0122 19.1399 12.1722 18.4999 12.3322 17.9399C12.2522 18.4999 12.0122 19.0599 11.8522 19.6199C11.7722 19.9399 11.5322 20.0999 11.3722 20.4199C11.2122 20.6599 10.9722 20.8999 10.7322 21.1399C10.6522 21.2199 10.5722 21.2199 10.4922 21.0599C10.4922 21.0599 10.4922 20.9799 10.5722 20.8999C10.4922 20.8999 10.4922 20.8999 10.5722 20.8999Z" fill="#010101"/>
</g>
<g id="Group_11">
<path id="Vector_12" d="M9.21255 19.46C9.37255 19.38 9.53255 19.22 9.69255 19.14C9.85255 18.98 10.0125 18.82 10.1725 18.66C10.4925 18.34 10.6525 17.86 10.7325 17.46C10.6525 17.94 10.5725 18.34 10.4125 18.82C10.3325 19.06 10.1725 19.3 10.0125 19.46C9.85255 19.62 9.69255 19.86 9.45255 20.02C9.37255 20.1 9.13255 20.1 9.05255 19.94C8.97255 19.86 8.97255 19.62 9.13255 19.54C9.13255 19.46 9.21255 19.46 9.21255 19.46Z" fill="#010101"/>
</g>
</g>
<g id="Group_12">
<g id="Group_13">
<path id="Vector_13" d="M25.2963 24.2595C27.8589 24.2595 29.9363 22.1821 29.9363 19.6195C29.9363 17.0569 27.8589 14.9795 25.2963 14.9795C22.7336 14.9795 20.6562 17.0569 20.6562 19.6195C20.6562 22.1821 22.7336 24.2595 25.2963 24.2595Z" fill="#FFD71C"/>
<path id="Vector_14" d="M29.6979 17.6197C30.1779 18.7397 30.2579 20.0997 29.7779 21.2997C29.2979 22.4997 28.4179 23.4597 27.2179 24.0197C26.0979 24.4997 24.6579 24.5797 23.4579 24.0997C22.2579 23.6197 21.2179 22.6597 20.7379 21.5397C20.2579 20.3397 20.2579 18.9797 20.6579 17.7797C21.1379 16.5797 22.0979 15.6197 23.2979 15.1397C24.4979 14.6597 25.8579 14.6597 26.9779 15.0597C28.2579 15.5397 29.2179 16.4997 29.6979 17.6197ZM29.3779 17.7797C28.8979 16.6597 28.0179 15.8597 26.8979 15.4597C25.7779 15.0597 24.5779 15.0597 23.5379 15.5397C22.4179 16.0197 21.6979 16.8997 21.2179 18.0197C20.8179 19.1397 20.8179 20.2597 21.2979 21.3797C21.7779 22.4197 22.5779 23.2997 23.6979 23.6997C24.8179 24.1797 26.0179 24.0997 27.0579 23.6197C28.1779 23.1397 28.9779 22.2597 29.3779 21.1397C29.8579 20.0997 29.8579 18.8997 29.3779 17.7797Z" fill="#010101"/>
</g>
<g id="Group_14">
<g id="Group_15">
<g id="Group_16">
<g id="Group_17">
<path id="Vector_15" d="M21.9394 20.0998C21.9394 19.7798 21.8594 19.4598 21.8594 19.1398C21.8594 19.0598 21.9394 18.9798 22.0194 18.9798L22.4994 18.8198C22.5794 18.8198 22.5794 18.7398 22.5794 18.8198C22.5794 18.8198 22.5794 18.8198 22.5794 18.7398L22.6594 18.4998L22.7394 18.2598C22.7394 18.1798 22.7394 18.1798 22.7394 18.1798L22.4994 17.6998C22.4194 17.6198 22.4994 17.6198 22.5794 17.5398L23.1394 16.9798C23.2194 16.8998 23.2194 16.8998 23.2994 16.8998L23.7794 17.1398C23.8594 17.2198 23.8594 17.2198 23.8594 17.1398L24.0994 17.0598L24.3394 16.9798C24.4194 16.8998 24.4194 16.9798 24.3394 16.9798L24.4194 16.8998L24.5794 16.4198C24.5794 16.3398 24.6594 16.3398 24.7394 16.3398H25.5394C25.6194 16.3398 25.6194 16.4198 25.6994 16.4198L25.8594 17.0598C25.7794 16.9798 25.9394 17.1398 26.0194 17.1398L26.3394 17.2198C26.4194 17.2998 26.4994 17.2998 26.5794 17.2998L26.8994 17.2198L26.9794 17.1398L27.0594 17.0598C27.1394 17.0598 27.1394 17.1398 27.1394 17.1398L27.3794 17.3798L27.6194 17.6198L27.6994 17.6998C27.6994 17.6998 27.6994 17.7798 27.6194 17.7798L27.5394 17.8598L27.4594 18.1798C27.3794 18.2598 27.4594 18.2598 27.4594 18.4198L27.5394 18.7398C27.6194 18.8198 27.6194 18.9798 27.6194 18.9798L28.2594 19.1398C28.3394 19.1398 28.3394 19.2198 28.3394 19.2198V20.0198C28.3394 20.0998 28.2594 20.0998 28.2594 20.0998L27.6994 20.3398C27.6994 20.2598 27.6194 20.4198 27.6194 20.4998L27.5394 20.8198C27.4594 20.8998 27.4594 20.9798 27.4594 21.0598L27.6194 21.3798L27.6994 21.4598L27.7794 21.5398C27.7794 21.5398 27.6994 21.6198 27.6994 21.6998L27.5394 22.0198L27.4594 22.1798C27.3794 22.2598 27.3794 22.2598 27.2994 22.2598C27.2194 22.2598 27.2194 22.2598 27.1394 22.1798L27.0594 22.0998L26.7394 22.0198C26.6594 21.9398 26.6594 22.0198 26.5794 22.0198L26.2594 22.0998C26.1794 22.0998 26.0194 22.1798 26.0994 22.1798L25.9394 22.7398C25.9394 22.8198 25.8594 22.8198 25.7794 22.8198H24.9794C24.8994 22.8198 24.8994 22.7398 24.8194 22.7398L24.5794 22.1798C24.6594 22.2598 24.4994 22.1798 24.4194 22.0998L24.0994 22.0198C24.0194 21.9398 24.0194 21.9398 23.9394 21.9398L23.6194 22.0198L23.5394 22.0998C23.4594 22.0998 23.4594 22.1798 23.3794 22.1798C23.2994 22.1798 23.2194 22.0998 23.2194 22.0998L22.9794 21.8598L22.6594 21.6998C22.5794 21.6998 22.5794 21.6198 22.5794 21.5398C22.5794 21.4598 22.6594 21.4598 22.6594 21.3798L22.7394 21.2998L22.8194 20.9798C22.8194 20.8998 22.8194 20.9798 22.8194 20.8998C22.8194 20.8998 22.8194 20.8998 22.8194 20.8198L22.7394 20.7398L22.6594 20.4198L22.5794 20.2598C22.5794 20.2598 22.5794 20.2598 22.6594 20.3398C22.6594 20.3398 22.6594 20.3398 22.5794 20.3398C22.4194 20.2598 22.1794 20.1798 21.9394 20.0998ZM22.3394 19.8598C22.4994 19.9398 22.6594 19.9398 22.8194 19.9398H22.8994C22.9794 20.0198 22.9794 20.0198 22.9794 20.0198C23.0594 20.0998 23.0594 20.0998 23.0594 20.0998L23.1394 20.2598L23.2194 20.5798V20.6598C23.2194 20.6598 23.2194 20.7398 23.2994 20.7398C23.2994 20.8198 23.2994 20.8198 23.2994 20.8998C23.2994 20.9798 23.2194 21.0598 23.2194 21.0598L23.0594 21.3798L22.9794 21.5398V21.4598L23.2194 21.6998L23.4594 21.9398C23.4594 21.9398 23.4594 21.9398 23.3794 21.9398L23.5394 21.8598L23.8594 21.7798C24.0194 21.6998 24.1794 21.7798 24.3394 21.7798L24.6594 21.8598L24.8194 21.9398C24.8194 21.9398 24.8994 21.9398 24.8994 22.0198L24.9794 22.0998V22.1798L25.1394 22.8198L24.9794 22.7398H25.7794L25.6194 22.8198L25.7794 22.1798C25.7794 22.1798 25.7794 22.1798 25.8594 22.0998C25.8594 22.0198 25.9394 22.0198 25.9394 22.0198C26.0194 22.0198 26.0194 21.9398 26.0194 21.9398L26.1794 21.8598L26.4994 21.7798C26.5794 21.7798 26.5794 21.6998 26.6594 21.6998C26.7394 21.6998 26.7394 21.6998 26.7394 21.6998C26.8194 21.6998 26.8194 21.7798 26.8194 21.7798L27.1394 21.9398L27.2194 22.0198L27.4594 21.7798L27.6994 21.5398C27.6994 21.5398 27.6994 21.5398 27.6994 21.6198L27.6194 21.4598L27.5394 21.1398C27.4594 20.9798 27.5394 20.8198 27.6194 20.7398L27.6994 20.4198L27.7794 20.2598C27.7794 20.2598 27.7794 20.1798 27.8594 20.1798L27.9394 20.0998H28.0194L28.6594 19.9398H28.4994V19.1398L28.5794 19.2198L27.9394 19.0598L27.8594 18.9798C27.8594 18.8998 27.7794 18.8998 27.7794 18.8998L27.6994 18.7398L27.6194 18.4198C27.6194 18.3398 27.5394 18.3398 27.5394 18.2598C27.5394 18.1798 27.5394 18.0998 27.6194 18.0998L27.6994 17.7798L27.7794 17.6198C27.7794 17.5398 27.7794 17.6198 27.7794 17.5398L27.5394 17.2998L27.4594 16.9798C27.4594 16.9798 27.4594 16.9798 27.3794 16.9798L27.2994 17.0598L26.8994 17.3798C26.8194 17.4598 26.5794 17.3798 26.4994 17.3798L26.1794 17.2998L26.0194 17.2198C26.0194 17.2198 25.9394 17.2198 25.9394 17.1398L25.8594 17.0598V16.9798L25.6194 16.3398L25.7794 16.4198H24.9794L25.1394 16.3398L24.8194 16.8998V17.0598C24.7394 17.2198 24.6594 17.2198 24.6594 17.2198L24.4994 17.3798L24.2594 17.4598C24.2594 17.4598 24.0994 17.5398 24.0194 17.5398C23.9394 17.5398 23.9394 17.5398 23.9394 17.4598L23.8594 17.3798L23.3794 17.1398L23.5394 17.0598L22.9794 17.6198L23.0594 17.4598L23.2994 17.9398L23.3794 18.0198C23.3794 18.0998 23.3794 18.0998 23.4594 18.0998C23.4594 18.1798 23.4594 18.2598 23.3794 18.3398L23.2194 18.6598L23.1394 18.9798C23.0594 19.0598 23.0594 19.0598 23.0594 19.1398C22.9794 19.2198 22.9794 19.2198 22.8994 19.2198L22.4194 19.3798L22.5794 19.2198C22.3394 19.3798 22.3394 19.6198 22.3394 19.8598Z" fill="#010101"/>
</g>
</g>
</g>
<g id="Group_18">
<path id="Vector_16" d="M27.2209 19.5396C27.3009 20.5796 26.3409 21.4596 25.3809 21.4596C24.9009 21.4596 24.3409 21.2996 24.0209 20.8996C23.7009 20.5796 23.4609 20.0196 23.4609 19.5396C23.4609 19.0596 23.7009 18.4996 24.0209 18.1796C24.3409 17.8596 24.9009 17.6196 25.3809 17.6196C26.3409 17.6196 27.3009 18.5796 27.2209 19.5396ZM26.9809 19.5396C26.9809 19.0596 26.8209 18.6596 26.5009 18.4196C26.1809 18.0996 25.7809 17.9396 25.3809 17.9396C24.5009 17.9396 23.7809 18.7396 23.7809 19.5396C23.7809 20.4196 24.5009 21.1396 25.3809 21.1396C25.7809 21.1396 26.2609 20.9796 26.5009 20.6596C26.8209 20.4996 26.9809 20.0196 26.9809 19.5396Z" fill="#010101"/>
</g>
</g>
</g>
</g>
</g>
</g>
</g>
</svg>
