<svg width="32" height="32" viewBox="0 0 32 32" fill="none" xmlns="http://www.w3.org/2000/svg">
<g id="icon_about" clip-path="url(#clip0_1434_10602)">
<g id="Group 30698">
<path id="Vector" d="M12 26C18.0751 26 23 21.0751 23 15C23 8.92487 18.0751 4 12 4C5.92487 4 1 8.92487 1 15C1 21.0751 5.92487 26 12 26Z" fill="#FFD71C"/>
<path id="Vector-29" fill-rule="evenodd" clip-rule="evenodd" d="M15.5888 13.1917C16.6579 12.0661 17.0365 11.7504 17.4916 11.6045C17.8071 11.5217 18.138 11.5168 18.4558 11.5904C18.8741 11.7121 18.9833 11.8042 20.3558 13.1676C21.561 14.3655 21.6801 14.4957 21.7964 14.7251C22.0213 15.1379 22.0575 15.6274 21.8957 16.0687C21.7766 16.4015 21.6007 16.6223 20.8705 17.3557L20.3941 17.8329C20.2688 17.9598 20.239 18.1527 20.3204 18.3114C21.378 20.1132 22.8781 21.616 24.679 22.6779C24.8868 22.7891 25.1427 22.753 25.3114 22.5887L25.7694 22.1385C26.0524 21.8485 26.3521 21.5753 26.667 21.3201C27.1607 21.0151 27.777 20.9857 28.2976 21.2423C28.5514 21.3612 28.6364 21.4391 29.8799 22.6765C31.1561 23.9508 31.1972 23.9919 31.3404 24.2849C31.6078 24.7704 31.6051 25.3594 31.3333 25.8424C31.1915 26.1142 31.1121 26.2133 30.3918 26.9482C29.9565 27.3928 29.5411 27.7977 29.4815 27.8572C28.8866 28.3481 28.1241 28.5892 27.3546 28.5297C25.9469 28.401 24.5846 27.9661 23.3632 27.2554C20.6562 25.8232 18.3518 23.7364 16.6607 21.1856C16.2909 20.6524 15.962 20.092 15.6767 19.5093C14.9166 18.2081 14.5236 16.7255 14.5395 15.2192C14.5967 14.4285 14.9759 13.6957 15.5888 13.1917Z" stroke="#010101" stroke-linecap="round" stroke-linejoin="round"/>
</g>
</g>
<defs>
<clipPath id="clip0_1434_10602">
<rect width="32" height="32" fill="white"/>
</clipPath>
</defs>
</svg>
