<svg width="32" height="32" viewBox="0 0 32 32" fill="none" xmlns="http://www.w3.org/2000/svg">
<g id="icon_11">
<g id="Group 30709">
<path id="Vector" d="M12 24C18.0751 24 23 19.0751 23 13C23 6.92487 18.0751 2 12 2C5.92487 2 1 6.92487 1 13C1 19.0751 5.92487 24 12 24Z" fill="#FFD71C"/>
<g id="Group">
<path id="Vector_2" d="M24.7463 26.1237C24.7463 26.1237 24.7463 26.0261 24.6487 26.0261L24.5512 25.9285C24.2585 25.6358 24.356 24.8553 24.4536 24.3675C24.5512 24.0748 24.6487 23.9772 24.7463 23.8797C24.9414 23.587 25.1366 23.1967 25.4293 23.0991C25.5268 23.0991 25.6244 23.0991 25.6244 23.1967C25.9171 22.904 26.4049 22.904 26.6976 23.0991C26.8927 23.1967 27.0879 23.2943 27.283 23.2943C27.6732 23.3918 28.0635 23.4894 28.2586 24.1724C28.2586 24.1724 28.3562 24.2699 28.3562 24.4651C28.7465 24.1724 29.8197 23.7821 30.3075 23.587C30.2099 23.4894 30.2099 23.3918 30.2099 23.2943C29.8197 22.3186 29.0392 21.6357 27.9659 21.2454C26.8927 20.8551 25.7219 20.8551 24.8439 21.343H24.7463L24.6487 21.2454C24.2585 20.8551 23.478 20.0746 22.5999 19.1965C21.5267 18.0258 20.2583 16.7574 19.7705 16.3672L19.6729 16.2696L19.9656 15.9769C19.3802 15.4891 18.2094 14.1232 17.2338 13.1475C16.6484 12.4646 16.1606 11.9767 15.8679 11.684L15.7703 11.5865V11.4889C16.1606 10.3181 16.063 9.34247 15.5752 8.36682V8.26926C15.5752 8.17169 15.4776 7.97656 15.3801 7.97656C15.1849 8.07413 14.5995 8.36682 14.3068 8.56195C13.9166 8.75708 13.7215 8.95221 13.5263 8.95221C13.6239 9.04978 13.6239 9.14734 13.6239 9.24491C13.9166 9.8303 13.819 10.8059 13.3312 11.4889C13.1361 11.7816 12.8434 11.9767 12.5507 11.9767C12.258 11.9767 11.9653 11.9767 11.6726 12.1719C11.575 12.1719 11.4775 12.1719 11.3799 12.1719C11.1848 12.1719 10.8921 12.1719 10.7945 11.8792C10.4042 11.684 10.2091 11.1962 10.2091 11.0011C10.2091 11.0011 10.2091 10.9035 10.2091 10.8059C10.014 10.9035 9.62372 11.0986 8.94077 11.3913C8.74564 11.4889 8.45294 11.5865 8.25781 11.684L8.35538 11.9767C9.03833 13.7329 11.2823 14.7085 13.2336 14.1232H13.3312L13.4288 14.2207C13.819 14.611 14.6971 15.4891 15.4776 16.3672C16.2581 17.1477 17.0387 18.0258 17.4289 18.416L17.5265 18.3185H17.6241V18.0258L17.8192 18.3185C18.307 18.9038 19.6729 20.2698 20.8437 21.4405C21.7218 22.3186 22.4047 23.0016 22.6974 23.2943L22.8926 23.4894H22.6974C22.5999 23.587 22.5023 23.9772 22.5023 24.3675C22.3072 24.9529 22.3072 26.4163 22.795 27.0017V27.0993C22.795 27.2944 22.8926 27.2944 22.8926 27.392L22.9901 27.2944C23.1853 27.0993 23.478 26.9042 23.9658 26.9042C24.1609 26.5139 24.5512 26.2212 24.7463 26.1237ZM17.5265 17.1477H17.4289V17.0501C17.1362 16.6598 16.4533 15.9769 15.6728 15.2939C14.7947 14.4159 13.9166 13.5378 13.5263 12.9524L13.4288 13.0499C13.1361 13.2451 12.7458 13.4402 12.4531 13.3426C11.1848 13.6353 9.91642 12.7572 9.23346 11.7816L9.1359 11.684L9.23346 11.5865C9.62372 11.2938 9.72129 11.2938 9.81885 11.3913L9.91642 11.4889C10.1115 11.8792 10.7945 12.2694 11.575 12.4646C12.258 12.6597 12.9409 12.5621 13.2336 12.2694C14.502 11.684 14.9898 10.5133 14.5995 9.04978V8.95221H14.6971C14.9898 8.75708 15.1849 8.85465 15.2825 8.95221C15.6728 9.34247 15.3801 10.8059 15.0874 11.4889C15.5752 11.8792 16.746 13.1475 17.8192 14.3183C18.307 14.9037 18.7948 15.3915 19.0875 15.6842V15.7818C18.8924 16.0745 17.7216 17.1477 17.5265 17.1477ZM23.7706 25.148C23.7706 25.6358 23.7706 25.9285 23.5755 26.0261C23.478 26.0261 23.478 26.1237 23.3804 26.1237C23.3804 26.1237 23.2828 26.1237 23.1853 26.1237H23.0877V26.0261C22.8926 24.465 22.8926 24.2699 23.6731 23.0016C22.8926 22.0259 21.8193 21.0503 20.8437 20.0746C19.9656 19.1965 19.0875 18.3185 18.4046 17.5379C18.4046 17.4404 18.99 16.6598 19.1851 16.6598C19.2827 16.6598 19.2827 16.6598 19.2827 16.7574C19.2827 16.7574 19.2827 16.7574 19.2827 16.855C19.5754 17.1477 19.7705 17.4404 20.0632 17.7331C21.3315 19.099 22.9901 20.8551 24.1609 22.0259L24.2585 22.1235C24.4536 22.3186 24.4536 22.3186 24.6487 22.2211C26.6976 21.2454 28.2586 21.6357 29.2343 23.1967C29.2343 23.3918 29.0392 23.3918 28.9416 23.3918H28.844V23.6845L28.7465 23.2943C28.5513 23.0991 28.4538 23.0016 28.2586 22.8064C28.1611 22.7089 27.9659 22.6113 27.8684 22.4162C27.6733 22.4162 27.5757 22.3186 27.3806 22.2211C27.0879 22.0259 26.8927 21.9284 26.6976 22.1235C26.6 22.1235 26.6 22.2211 26.5025 22.2211C26.1122 22.5137 25.6244 22.8064 25.3317 22.4162C23.9658 23.0016 23.8682 24.2699 23.7706 25.148Z" fill="black"/>
<path id="Vector_3" d="M31.2781 25.5383C31.2781 25.4407 31.1806 25.3432 31.1806 25.3432C31.083 25.2456 31.083 25.148 30.9854 25.0505C30.9854 25.0505 30.8879 25.148 30.7903 25.2456C30.5952 25.3432 30.4 25.4407 30.1074 25.5383C29.7171 25.6359 29.3268 25.831 28.7414 26.0261C28.7414 26.0261 28.7414 26.0261 28.6439 26.0261H28.5463C28.4487 26.0261 28.4487 26.0261 28.0585 25.148C27.9609 24.8554 27.7658 24.4651 27.6682 24.3675C27.5707 24.27 27.3755 24.1724 27.1804 24.0748C26.9853 23.8797 26.7901 23.7821 26.4974 23.6846C25.8145 23.8797 25.3267 24.1724 25.1315 24.4651C25.034 24.7578 25.034 25.0505 25.2291 25.5383C25.2291 25.5383 25.2291 25.6359 25.3267 25.6359C25.4242 25.7334 25.4242 25.831 25.4242 25.9286C25.4242 26.0261 25.4242 26.0261 25.5218 26.1237L25.8145 26.7091C25.9121 26.8067 26.1072 27.0993 26.1072 27.2945V27.392L26.0096 27.4896C25.7169 27.6847 25.3267 27.8799 25.034 27.9774C24.6437 28.075 24.2535 28.1726 23.9608 28.3677C23.7656 28.4653 23.7656 28.5628 23.7656 28.758C23.7656 28.9531 23.8632 29.1482 23.9608 29.3433C23.9608 29.3433 23.9608 29.4409 24.0583 29.4409L24.1559 29.5385C24.1559 29.5385 24.1559 29.5385 24.2535 29.4409C24.4486 29.3433 24.7413 29.2458 24.9364 29.1482C25.1315 29.0506 25.4242 28.9531 25.6194 28.8555C25.7169 28.8555 25.9121 28.758 26.0096 28.6604C26.1072 28.5628 26.3023 28.4653 26.4974 28.3677C26.6926 28.2701 26.7901 28.2701 26.9853 28.1726C27.1804 28.075 27.278 27.9774 27.4731 27.8799C27.6682 27.7823 27.7658 27.7823 27.9609 27.6847C29.1317 27.0993 30.3025 26.514 31.4733 26.0261C31.6684 25.9286 31.3757 25.6359 31.2781 25.5383ZM27.8634 27.1969C27.7658 27.4896 27.3755 27.4896 27.1804 27.4896C26.7901 27.4896 26.6926 27.0993 26.595 26.8067C26.595 26.7091 26.4974 26.6115 26.4974 26.514C26.4974 26.4164 26.3999 26.3188 26.3999 26.2213L26.1072 25.6359C26.1072 25.6359 26.0096 25.4407 26.0096 25.3432C25.9121 25.0505 26.0096 24.8554 26.2048 24.6602C26.3999 24.4651 26.595 24.4651 26.7901 24.4651C26.9853 24.4651 27.0828 24.6602 27.1804 24.8554C27.1804 25.0505 27.278 25.148 27.3755 25.3432C27.4731 25.4407 27.4731 25.5383 27.5707 25.6359C27.6682 25.7334 27.7658 25.9286 27.7658 26.0261C27.7658 26.1237 27.8634 26.2213 27.8634 26.3188C27.8634 26.514 28.0585 26.9042 27.8634 27.1969Z" fill="black"/>
<path id="Vector_4" d="M9.91896 8.75715C10.1141 9.14741 10.3092 9.53767 10.4068 9.83037C10.4068 9.92793 10.5043 10.0255 10.6019 10.1231C10.6995 10.2206 10.797 10.3182 10.797 10.4158C11.0897 10.9036 11.48 11.0987 11.7727 11.0987C12.2605 11.0987 12.8459 10.806 13.1386 10.3182C13.2362 10.1231 13.3337 9.7328 13.1386 9.44011C13.1386 9.44011 13.1386 9.44011 13.041 9.44011C12.9435 9.34254 12.163 8.0742 12.2605 7.68394C12.2605 7.48881 12.6508 7.39124 12.7483 7.39124C12.8459 7.39124 13.041 7.29368 13.1386 7.19611C13.3337 7.09855 13.4313 7.00098 13.6264 7.00098C13.724 7.00098 13.9191 6.90342 14.0167 6.90342C14.1143 6.80585 14.3094 6.80585 14.4069 6.70829C14.4069 6.70829 14.5045 6.70829 14.5045 6.61072C14.6021 6.61072 14.7972 6.51316 14.7972 6.41559C14.6996 6.31803 14.6021 6.1229 14.5045 5.92777C14.4069 5.73264 14.4069 5.63507 14.3094 5.43994C14.2118 5.43994 13.9191 5.53751 13.8216 5.63507C13.724 5.73264 13.6264 5.73264 13.6264 5.73264C13.4313 5.8302 13.3337 5.92777 13.1386 5.92777C12.9435 6.02533 12.8459 6.02533 12.6508 6.1229C12.2605 6.31803 11.8703 6.51316 11.48 6.70829C10.8946 7.09855 10.4068 7.29368 9.91896 7.58637C9.13844 7.68394 8.74818 7.97663 8.26035 8.26933C8.06522 8.36689 7.96766 8.36689 7.77253 8.46446C7.67496 8.46446 7.5774 8.56202 7.38226 8.56202C7.2847 8.56202 7.2847 8.56202 7.18714 8.65959C6.99201 8.65959 6.89444 8.75715 6.79688 8.85472C6.89444 9.04985 6.99201 9.24498 7.08957 9.53767C7.08957 9.53767 7.18714 9.63524 7.18714 9.7328C7.18714 9.83037 7.2847 9.92793 7.38226 9.92793C7.38226 9.92793 7.38226 9.92793 7.47983 9.83037C8.26035 9.53767 9.04087 9.14741 9.72383 8.75715L9.82139 8.65959L9.91896 8.75715ZM10.5043 7.97663C10.6995 7.7815 11.2849 7.48881 11.3824 7.58637H11.48V7.68394C11.48 7.7815 11.7727 8.36689 11.9678 8.75715C12.3581 9.53767 12.4556 9.7328 12.4556 9.83037C12.5532 10.1231 12.4556 10.4158 12.163 10.5133H12.0654L11.9678 10.4158C11.9678 10.4158 11.8703 10.4158 11.7727 10.4158C11.6751 10.4158 11.5776 10.5133 11.48 10.4158C11.3824 10.3182 11.3824 10.3182 11.3824 10.1231C11.3824 10.0255 10.6019 8.26933 10.4068 8.0742C10.5043 8.0742 10.5043 8.0742 10.5043 7.97663Z" fill="black"/>
</g>
</g>
</g>
</svg>
