<svg width="35" height="36" viewBox="0 0 35 36" fill="none" xmlns="http://www.w3.org/2000/svg">
<rect x="0.1875" y="0.270508" width="34.7491" height="34.7491" rx="17.3746" fill="url(#paint0_linear_842_1438)"/>
<path d="M14.6705 17.6896C14.6705 16.089 15.9673 14.7911 17.5675 14.7911C19.1677 14.7911 20.4652 16.089 20.4652 17.6896C20.4652 19.2903 19.1677 20.5882 17.5675 20.5882C15.9673 20.5882 14.6705 19.2903 14.6705 17.6896ZM13.104 17.6896C13.104 20.1555 15.1023 22.1544 17.5675 22.1544C20.0327 22.1544 22.031 20.1555 22.031 17.6896C22.031 15.2237 20.0327 13.2249 17.5675 13.2249C15.1023 13.2249 13.104 15.2237 13.104 17.6896ZM21.1646 13.0478C21.1645 13.2542 21.2256 13.4559 21.3401 13.6276C21.4547 13.7992 21.6176 13.933 21.8081 14.0121C21.9987 14.0911 22.2084 14.1119 22.4108 14.0717C22.6131 14.0315 22.799 13.9322 22.945 13.7863C23.0909 13.6405 23.1903 13.4546 23.2307 13.2522C23.271 13.0498 23.2504 12.84 23.1715 12.6493C23.0927 12.4586 22.959 12.2956 22.7875 12.1809C22.6161 12.0662 22.4144 12.0049 22.2081 12.0048H22.2077C21.9312 12.005 21.666 12.1149 21.4704 12.3104C21.2748 12.506 21.1648 12.7712 21.1646 13.0478ZM14.0557 24.7672C13.2082 24.7285 12.7476 24.5873 12.4415 24.468C12.0357 24.31 11.7461 24.1218 11.4417 23.8177C11.1372 23.5135 10.9488 23.2242 10.7915 22.8182C10.6721 22.5122 10.531 22.0513 10.4924 21.2035C10.4503 20.287 10.4419 20.0117 10.4419 17.6897C10.4419 15.3677 10.451 15.0932 10.4924 14.1759C10.531 13.3281 10.6732 12.8681 10.7915 12.5612C10.9494 12.1552 11.1376 11.8656 11.4417 11.561C11.7457 11.2565 12.035 11.068 12.4415 10.9107C12.7475 10.7913 13.2082 10.6501 14.0557 10.6116C14.972 10.5694 15.2472 10.561 17.5675 10.561C19.8878 10.561 20.1633 10.5701 21.0803 10.6116C21.9278 10.6502 22.3877 10.7924 22.6945 10.9107C23.1004 11.068 23.3899 11.2569 23.6944 11.561C23.9988 11.8652 24.1866 12.1552 24.3446 12.5612C24.4639 12.8672 24.6051 13.3281 24.6436 14.1759C24.6857 15.0932 24.6942 15.3677 24.6942 17.6897C24.6942 20.0117 24.6857 20.2862 24.6436 21.2035C24.605 22.0513 24.4631 22.512 24.3446 22.8182C24.1866 23.2242 23.9984 23.5138 23.6944 23.8177C23.3904 24.1215 23.1004 24.31 22.6945 24.468C22.3886 24.5874 21.9278 24.7286 21.0803 24.7672C20.164 24.8093 19.8888 24.8177 17.5675 24.8177C15.2462 24.8177 14.9717 24.8093 14.0557 24.7672ZM13.9838 9.04729C13.0584 9.08944 12.4261 9.23621 11.8738 9.45115C11.3019 9.67312 10.8178 9.9709 10.334 10.4541C9.85023 10.9372 9.55329 11.4223 9.33139 11.9943C9.11651 12.5471 8.96978 13.1792 8.92764 14.1049C8.88481 15.032 8.875 15.3283 8.875 17.6896C8.875 20.0509 8.88481 20.3473 8.92764 21.2744C8.96978 22.2001 9.11651 22.8322 9.33139 23.3849C9.55329 23.9566 9.8503 24.4422 10.334 24.9252C10.8177 25.4082 11.3019 25.7055 11.8738 25.9281C12.4271 26.1431 13.0584 26.2898 13.9838 26.332C14.9111 26.3741 15.2069 26.3846 17.5675 26.3846C19.9281 26.3846 20.2244 26.3748 21.1512 26.332C22.0767 26.2898 22.7086 26.1431 23.2611 25.9281C23.8327 25.7055 24.3172 25.4084 24.801 24.9252C25.2848 24.442 25.5811 23.9566 25.8036 23.3849C26.0185 22.8322 26.1659 22.2 26.2073 21.2744C26.2495 20.3466 26.2593 20.0509 26.2593 17.6896C26.2593 15.3283 26.2495 15.032 26.2073 14.1049C26.1652 13.1792 26.0185 12.5467 25.8036 11.9943C25.5811 11.4226 25.284 10.938 24.801 10.4541C24.3179 9.97014 23.8327 9.67312 23.2618 9.45115C22.7086 9.23621 22.0766 9.08874 21.1519 9.04729C20.2251 9.00513 19.9288 8.99463 17.5682 8.99463C15.2076 8.99463 14.9111 9.00444 13.9838 9.04729Z" fill="white"/>
<defs>
<linearGradient id="paint0_linear_842_1438" x1="34.2688" y1="35.0196" x2="-0.480377" y2="0.270507" gradientUnits="userSpaceOnUse">
<stop stop-color="#FBE18A"/>
<stop offset="0.21" stop-color="#FCBB45"/>
<stop offset="0.38" stop-color="#F75274"/>
<stop offset="0.52" stop-color="#D53692"/>
<stop offset="0.74" stop-color="#8F39CE"/>
<stop offset="1" stop-color="#5B4FE9"/>
</linearGradient>
</defs>
</svg>
