<svg xmlns="http://www.w3.org/2000/svg" viewBox="0 0 512 512"><path d="M256 118.6c-47.7 0-86.5 38.8-86.5 86.6 0 47.7 38.8 86.5 86.5 86.5s86.5-38.8 86.5-86.5c0-47.8-38.8-86.6-86.5-86.6zm0 150.1c-35 0-63.5-28.5-63.5-63.5s28.5-63.5 63.5-63.5 63.5 28.5 63.5 63.5-28.5 63.5-63.5 63.5z"/><path d="M256 8.5C147.6 8.5 59.4 96.7 59.4 205.1v5.7c0 55.1 32.1 119.9 95.4 192.5 46.3 53.1 92.1 90.3 94 91.9l7.2 5.8 7.2-5.8c1.9-1.6 47.6-38.7 94-91.9 63.3-72.7 95.4-137.5 95.4-192.5v-5.7C452.6 96.7 364.4 8.5 256 8.5zm173.6 202.3c0 43.4-23.3 94.8-69.2 152.8-36.3 45.9-77.5 84.1-98.8 102.8l-5.6 4.9-5.6-4.9c-21.3-18.7-62.5-56.8-98.8-102.8-45.9-58-69.2-109.4-69.2-152.8v-5.7c0-95.7 77.9-173.6 173.6-173.6s173.6 77.9 173.6 173.6v5.7z"/></svg>