<svg id="Слой_1" xmlns="http://www.w3.org/2000/svg" viewBox="0 0 512 512"><style>.st0{fill:#a0b7c4}</style><g id="Capa_1"><path class="st0" d="M170.5 347.8c20.5 28.9 40.9 54.7 54.5 71.4 2 2.4 3.8 4.7 5.6 6.8h-40.9c-4.6 0-8.3 3.7-8.3 8.3s3.7 8.3 8.3 8.3h132.7c4.6 0 8.3-3.7 8.3-8.3s-3.7-8.3-8.3-8.3h-40.9c1.8-2.2 3.6-4.4 5.6-6.8 13.5-16.6 34-42.5 54.5-71.4 20.3-28.1 38.6-57.6 54.8-88.3 16.9-33.3 25.5-60.9 25.5-82 .1-44-17.4-86.3-48.6-117.4-2.1-2.2-5.2-3-8.1-2.3-2.9.8-5.2 3-5.9 5.9-.8 2.9.1 6 2.3 8.1 28 28 43.8 66.1 43.7 105.7 0 18.6-8 43.6-23.7 74.5-15.8 30-33.7 58.8-53.5 86.2-20.2 28.5-40.4 54.1-53.8 70.5-4.5 5.5-8.5 10.3-11.9 14.4-1.6 1.8-3.9 2.9-6.3 2.9s-4.7-1-6.3-2.9c-3.4-4.1-7.4-8.9-11.9-14.4-13.4-16.4-33.6-42-53.8-70.5-19.9-27.4-37.8-56.3-53.5-86.2-15.8-30.9-23.7-56-23.7-74.5 0-60.1 35.9-114.3 91.2-137.7 37.2-15.6 79-15.6 116.2 0 2.7 1.2 5.9.8 8.2-1 2.4-1.8 3.6-4.7 3.2-7.6s-2.3-5.5-5-6.6C236.3-11 138.9 28.5 103.3 113c-8.6 20.5-13.1 42.4-13 64.6 0 21.2 8.6 48.8 25.5 82.1 16 30.5 34.3 60 54.7 88.1z"/><path class="st0" d="M322.3 444.7H189.7c-5.7 0-10.4-4.7-10.4-10.4s4.7-10.4 10.4-10.4h36.5c-.9-1.1-1.8-2.2-2.8-3.4-13.7-16.8-34.3-42.9-54.6-71.5-20.3-28.1-38.8-57.8-54.9-88.5-17.1-33.6-25.8-61.6-25.8-83.1 0-22.6 4.4-44.6 13.2-65.5 36-85.3 134.8-125.5 220.2-89.5 3.4 1.4 5.8 4.6 6.3 8.3s-1.1 7.3-4.1 9.6c-3 2.2-6.9 2.7-10.3 1.3-36.4-15.3-78.1-15.3-114.5 0-54.6 23.2-89.9 76.5-89.9 135.8 0 18.3 7.9 43 23.5 73.6 15.7 29.8 33.6 58.7 53.4 86 20.2 28.5 40.4 54 53.7 70.4 3.9 4.8 7.9 9.6 11.9 14.3 1.2 1.3 2.9 2.1 4.7 2.1 1.8 0 3.5-.8 4.7-2.1 4-4.8 7.9-9.5 11.8-14.3 13.4-16.4 33.6-42 53.7-70.4 19.8-27.3 37.7-56.2 53.4-86 15.6-30.6 23.5-55.3 23.5-73.5 0-39.4-15.3-76.4-43.1-104.2-2.7-2.6-3.8-6.5-2.8-10.1s3.8-6.5 7.4-7.4 7.5.1 10.1 2.8c31.3 31.3 49.2 74.6 49.2 118.9 0 21.5-8.7 49.4-25.8 83-16.3 30.7-34.7 60.5-55.1 88.5-20.8 29.3-41.2 55.1-54.6 71.5-1 1.2-1.9 2.3-2.8 3.4h36.5c5.7 0 10.4 4.7 10.4 10.4s-4.6 10.4-10.4 10.4zm-132.6-16.6c-3.4 0-6.2 2.8-6.2 6.2s2.8 6.2 6.2 6.2h132.7c3.4 0 6.2-2.8 6.2-6.2s-2.8-6.2-6.2-6.2H277l2.8-3.4c1.8-2.2 3.6-4.4 5.6-6.8 13.4-16.4 33.6-42 54.4-71.3 20.2-27.9 38.6-57.5 54.6-88 16.8-32.9 25.3-60.2 25.3-81.1.1-43.2-17.4-85.4-48-115.9-1.6-1.6-3.9-2.3-6-1.7-2.2.6-3.9 2.3-4.4 4.4-.6 2.2.1 4.5 1.7 6 28.7 28.7 44.4 66.7 44.4 107.2 0 18.9-8.1 44.3-23.9 75.5-15.8 30-33.8 59.1-53.7 86.5-20.2 28.5-40.4 54.1-53.9 70.6-3.9 4.8-7.8 9.5-11.9 14.4-2 2.3-4.9 3.6-7.9 3.6s-5.9-1.3-7.9-3.6c-4-4.8-8-9.6-11.9-14.4-13.4-16.4-33.7-42-53.9-70.6-19.9-27.4-37.9-56.5-53.7-86.5-15.9-31.2-24-56.6-24-75.5 0-61 36.3-115.9 92.5-139.7 37.4-15.7 80.4-15.7 117.8 0 2 .9 4.4.6 6.2-.8 1.8-1.3 2.7-3.5 2.4-5.7-.3-2.2-1.7-4.1-3.7-4.9-83.2-35.1-179.5 4-214.6 87.3-8.6 20.3-12.9 41.8-12.9 63.8 0 20.8 8.5 48.1 25.3 81.1 16 30.5 34.4 60.1 54.6 88 20.2 28.5 40.7 54.5 54.4 71.3 2 2.4 3.8 4.7 5.6 6.8l2.8 3.4h-45.4z"/><path class="st0" d="M256 102.6c4.6 0 8.3-3.7 8.3-8.3S260.6 86 256 86c-39.6 0-73.6 27.9-81.3 66.7s13 77.6 49.6 92.8c36.5 15.1 78.7 2.4 100.7-30.5s17.7-76.7-10.3-104.7c-2.1-2.2-5.2-3-8.1-2.3-2.9.8-5.2 3-5.9 5.9-.8 2.9.1 6 2.3 8.1 22.4 22.4 25.8 57.4 8.3 83.8s-51.3 36.5-80.5 24.4S185 187 191.1 156s33.3-53.4 64.9-53.4z"/><path class="st0" d="M255.8 253.9c-10.9 0-21.9-2.1-32.4-6.4-37.4-15.5-58.7-55.5-50.8-95.1S215.6 84 256 84c5.7 0 10.4 4.7 10.4 10.4s-4.7 10.4-10.4 10.4c-30.5 0-57 21.7-63 51.7s10.2 60.2 38.4 71.9 61 1.7 78-23.7 13.6-59.5-8-81.1c-2.7-2.6-3.8-6.5-2.8-10.1.9-3.6 3.8-6.5 7.4-7.4s7.5.1 10.1 2.8c28.6 28.6 33 73.7 10.5 107.3-16 24.1-43 37.7-70.8 37.7zm.2-165.8c-38.4 0-71.8 27.4-79.3 65-7.5 37.7 12.8 75.7 48.3 90.4 35.5 14.7 76.8 2.2 98.1-29.8 21.4-32 17.1-74.9-10-102-1.6-1.6-3.9-2.3-6-1.7-2.2.6-3.9 2.3-4.4 4.4s.1 4.5 1.7 6c23 23 26.6 59.4 8.5 86.4-18.1 27.1-53 37.7-83.1 25.2s-47.3-44.7-40.9-76.6c6.3-31.9 34.6-55.1 67.1-55.1 3.4 0 6.2-2.8 6.2-6.2s-2.8-6-6.2-6zm245.6 375.8l-51-91.2a25.63 25.63 0 0 0-22.6-13h-59c-4.6 0-8.3 3.7-8.3 8.3s3.7 8.3 8.3 8.3h59.1c3.3-.1 6.4 1.7 8.1 4.5l51 91.2c1.4 2.4 1.4 5.3-.1 7.7-1.7 2.8-4.8 4.5-8 4.4H33c-3.3.1-6.3-1.6-8-4.4-1.4-2.3-1.5-5.3-.1-7.7l51-91.2c1.7-2.9 4.8-4.6 8.1-4.5h59c4.6 0 8.3-3.7 8.3-8.3s-3.7-8.3-8.3-8.3H83.9c-9.3-.1-18 4.9-22.6 13l-51 91.2c-4.3 7.5-4.2 16.7.3 24.1 4.6 7.9 13.2 12.7 22.3 12.6H479c9.2.1 17.7-4.7 22.3-12.6 4.5-7.4 4.6-16.6.3-24.1z"/><path class="st0" d="M32.6 502.7c-9.7 0-18.8-5.2-23.8-13.6-4.8-8-4.9-18.1-.3-26.2l51-91.2c5-8.7 14.2-14.1 24.2-14.1H143c5.7 0 10.4 4.7 10.4 10.4s-4.7 10.4-10.4 10.4H83.8c-2.5 0-4.9 1.3-6.1 3.5l-51 91.2c-1 1.7-1 3.9 0 5.5 1.3 2.2 3.7 3.5 6.2 3.4h446.3c2.5 0 4.8-1.3 6.1-3.4 1-1.7 1.1-3.8.1-5.5l-51-91.2c-1.3-2.2-3.7-3.5-6.2-3.5H369c-5.7 0-10.4-4.7-10.4-10.4s4.7-10.4 10.4-10.4h59.3c10 0 19.3 5.4 24.2 14.1l51 91.2c4.6 8.1 4.5 18.2-.3 26.2-5 8.4-14.1 13.6-23.8 13.6H32.6zm51.2-140.9c-8.5 0-16.4 4.6-20.6 12l-51 91.2c-3.9 6.8-3.8 15.3.2 22 4.2 7.2 11.9 11.6 20.2 11.6h446.7c8.3 0 16-4.4 20.2-11.6 4-6.8 4.1-15.2.2-22l-51-91.2c-4.2-7.4-12.1-12-20.6-12H369c-3.4 0-6.2 2.8-6.2 6.2s2.8 6.2 6.2 6.2h59.3c4 0 7.7 2.1 9.7 5.6l51 91.3c1.8 3 1.7 6.8-.1 9.8-2.1 3.4-5.9 5.5-9.9 5.4H33c-4 .1-7.7-2-9.8-5.4-1.8-3-1.9-6.8-.1-9.8l51-91.2c2.1-3.5 5.9-5.7 10-5.6H143c3.4 0 6.2-2.8 6.2-6.2s-2.8-6.2-6.2-6.2H83.9c0-.1-.1-.1-.1-.1z"/></g></svg>