<svg width="25" height="24" viewBox="0 0 25 24" fill="none" xmlns="http://www.w3.org/2000/svg">
<path d="M23.0006 7.57244C23.0203 8.12438 23.4837 8.55588 24.0356 8.53622C24.5875 8.51657 25.019 8.0532 24.9994 7.50127L23.0006 7.57244ZM17.4281 1.40352V2.40352C17.4393 2.40352 17.4504 2.40334 17.4615 2.40296L17.4281 1.40352ZM7.57187 1.40352L7.53846 2.40296C7.54959 2.40334 7.56073 2.40352 7.57187 2.40352V1.40352ZM0.000633419 7.50127C-0.0190204 8.0532 0.412479 8.51657 0.964414 8.53622C1.51635 8.55588 1.97971 8.12438 1.99937 7.57244L0.000633419 7.50127ZM25 7.53684C25 6.98456 24.5523 6.53684 24 6.53684C23.4477 6.53684 23 6.98456 23 7.53684H25ZM24 16.7368L24.9994 16.7724C24.9998 16.7606 25 16.7487 25 16.7368H24ZM17.4281 22.8702L17.4615 21.8707C17.4504 21.8704 17.4393 21.8702 17.4281 21.8702V22.8702ZM7.57187 22.8702V21.8702C7.56073 21.8702 7.54959 21.8704 7.53846 21.8707L7.57187 22.8702ZM1 16.7368H0C0 16.7487 0.000211179 16.7606 0.000633419 16.7724L1 16.7368ZM2 7.53684C2 6.98456 1.55228 6.53684 1 6.53684C0.447715 6.53684 0 6.98456 0 7.53684H2ZM24.5044 8.40031C24.9813 8.12174 25.142 7.50932 24.8635 7.03244C24.5849 6.55556 23.9725 6.3948 23.4956 6.67337L24.5044 8.40031ZM15.9285 12.2518L15.4241 11.3883L15.4158 11.3933L15.9285 12.2518ZM9.07147 12.2518L9.58422 11.3932L9.57587 11.3884L9.07147 12.2518ZM1.5044 6.67337C1.02752 6.3948 0.415104 6.55556 0.136531 7.03244C-0.142043 7.50932 0.0187178 8.12174 0.495599 8.40031L1.5044 6.67337ZM24.9994 7.50127C24.8549 3.44346 21.4528 0.268445 17.3947 0.40408L17.4615 2.40296C20.4174 2.30417 22.8954 4.6168 23.0006 7.57244L24.9994 7.50127ZM17.4281 0.403522H7.57187V2.40352H17.4281V0.403522ZM7.60527 0.40408C3.54716 0.268445 0.145128 3.44346 0.000633419 7.50127L1.99937 7.57244C2.10461 4.6168 4.5826 2.30417 7.53846 2.40296L7.60527 0.40408ZM23 7.53684V16.7368H25V7.53684H23ZM23.0006 16.7013C22.8954 19.6569 20.4174 21.9695 17.4615 21.8707L17.3947 23.8696C21.4528 24.0053 24.8549 20.8302 24.9994 16.7724L23.0006 16.7013ZM17.4281 21.8702H7.57187V23.8702H17.4281V21.8702ZM7.53846 21.8707C4.5826 21.9695 2.10461 19.6569 1.99937 16.7013L0.000633419 16.7724C0.145128 20.8302 3.54716 24.0053 7.60527 23.8696L7.53846 21.8707ZM2 16.7368V7.53684H0V16.7368H2ZM23.4956 6.67337L15.4241 11.3884L16.4329 13.1153L24.5044 8.40031L23.4956 6.67337ZM15.4158 11.3933C13.6199 12.4658 11.3801 12.4658 9.58419 11.3933L8.55874 13.1104C10.9863 14.5601 14.0137 14.5601 16.4413 13.1104L15.4158 11.3933ZM9.57587 11.3884L1.5044 6.67337L0.495599 8.40031L8.56707 13.1153L9.57587 11.3884Z" fill="#FFD71C"/>
</svg>
