<svg width="512" height="512" viewBox="0 0 512 512" fill="none" xmlns="http://www.w3.org/2000/svg">
<path d="M251.287 183.593C250.524 182.835 249.571 182.295 248.528 182.031C247.486 181.767 246.391 181.789 245.359 182.093L209.859 192.568L191.541 195.6C190.311 195.804 189.176 196.385 188.292 197.264L172.921 212.542C172.342 213.118 171.886 213.805 171.582 214.563C171.278 215.321 171.131 216.133 171.152 216.949L171.707 238.8L129.519 280.708C128.567 281.656 127.961 282.896 127.798 284.23L124.264 312.82C124.152 313.728 124.249 314.65 124.548 315.516C124.847 316.381 125.34 317.166 125.989 317.811L193.851 385.261C194.495 385.902 195.277 386.387 196.136 386.682C196.996 386.976 197.911 387.072 198.813 386.961L227.552 383.423V383.399C228.873 383.247 230.105 382.658 231.052 381.725L273.252 339.8L295.277 340.352H295.427C297.012 340.352 298.532 339.724 299.656 338.607L315.027 323.329C315.918 322.445 316.508 321.304 316.715 320.066L319.768 301.86L330.3 266.591C330.611 265.551 330.634 264.446 330.366 263.395C330.099 262.343 329.551 261.383 328.781 260.618L251.287 183.593ZM195.387 207.129L209.153 204.849L233.837 229.384L204.1 258.947L183.707 238.68L183.214 219.234L195.387 207.129ZM242.348 237.843L274.248 269.55L244.504 299.113L212.604 267.407L242.348 237.843ZM200.237 374.7L136.529 311.379L138.201 297.857L213.83 373.027L200.237 374.7ZM226.816 369.016L142.26 284.97L177.769 249.7L262.324 333.743L226.816 369.016ZM305.196 316.187L293.011 328.297L273.374 327.806L253.02 307.572L282.764 278.009L307.477 302.573L305.196 316.187ZM311.028 289.187L222.628 201.318L245.352 194.612L317.775 266.6L311.028 289.187Z" fill="#9DA3B9"/>
<path d="M53.8572 401.928C53.15 401.225 52.2788 400.71 51.3224 400.428C50.366 400.147 49.3545 400.108 48.3793 400.315C47.4041 400.523 46.4959 400.97 45.7369 401.616C44.978 402.263 44.392 403.088 44.0322 404.018L34.1222 429.618L14.3442 449.238C13.4077 450.167 12.6643 451.272 12.1568 452.49C11.6493 453.708 11.3878 455.014 11.3872 456.333C11.3867 457.652 11.6471 458.958 12.1536 460.176C12.66 461.394 13.4025 462.5 14.3382 463.43L47.3822 496.274C49.2581 498.128 51.789 499.169 54.4267 499.17C57.0644 499.171 59.5964 498.133 61.4742 496.281L81.3002 476.607L107.036 466.707C107.97 466.348 108.8 465.76 109.449 464.998C110.098 464.236 110.546 463.323 110.753 462.344C110.959 461.364 110.917 460.348 110.63 459.389C110.343 458.43 109.821 457.558 109.111 456.852L53.8572 401.928ZM54.4332 486.363L24.2262 456.338L39.2522 441.431L69.4592 471.456L54.4332 486.363ZM79.4472 464.463L46.2672 431.483L51.9092 416.91L94.0862 458.832L79.4472 464.463Z" fill="#9DA3B9"/>
<path d="M487.4 25.9381C478.919 17.548 467.471 12.842 455.541 12.842C443.611 12.842 432.163 17.548 423.682 25.9381C417.498 32.0739 413.243 39.8826 411.437 48.4046C409.632 56.9265 410.356 65.7902 413.521 73.9061L401.871 77.2271C399.967 75.5546 397.5 74.6659 394.967 74.7402C392.433 74.8144 390.023 75.846 388.22 77.6271L366.342 99.3391L342.922 107.096C341.949 107.419 341.074 107.985 340.382 108.741C339.69 109.498 339.203 110.419 338.968 111.417C338.733 112.415 338.758 113.456 339.04 114.442C339.322 115.427 339.852 116.324 340.579 117.047L395.837 171.97C396.561 172.69 397.457 173.213 398.44 173.49C399.423 173.767 400.46 173.789 401.454 173.553C402.447 173.317 403.364 172.831 404.117 172.141C404.871 171.452 405.436 170.582 405.759 169.613L413.526 146.328L435.356 124.66C437.161 122.869 438.215 120.456 438.301 117.913C438.387 115.371 437.499 112.892 435.819 110.983L439.157 99.4151C447.31 102.571 456.202 103.302 464.762 101.52C473.321 99.7386 481.183 95.5202 487.4 89.3731C491.587 85.2204 494.911 80.2796 497.179 74.8358C499.447 69.392 500.615 63.553 500.615 57.6556C500.615 51.7582 499.447 45.9192 497.179 40.4754C494.911 35.0316 491.587 30.0908 487.4 25.9381ZM397.438 156.638L355.964 115.415L367.955 111.443L401.419 144.705L397.438 156.638ZM408.291 134.616L378.084 104.591L395.266 87.5361L425.474 117.561L408.291 134.616ZM426.127 101.3L411.658 86.9141L419.558 84.6621C422.077 87.9871 425.051 90.9416 428.392 93.4391L426.127 101.3ZM478.939 80.8671C472.709 87.0291 464.301 90.4852 455.539 90.4852C446.777 90.4852 438.368 87.0291 432.139 80.8671C429.074 77.8296 426.64 74.2148 424.98 70.2317C423.319 66.2486 422.465 61.976 422.465 57.6606C422.465 53.3452 423.319 49.0726 424.98 45.0895C426.64 41.1064 429.074 37.4916 432.139 34.4541C438.368 28.2919 446.777 24.8355 455.539 24.8355C464.301 24.8355 472.71 28.2919 478.939 34.4541C482.004 37.4916 484.437 41.1064 486.098 45.0895C487.758 49.0726 488.613 53.3452 488.613 57.6606C488.613 61.976 487.758 66.2486 486.098 70.2317C484.437 74.2148 482.004 77.8296 478.939 80.8671Z" fill="#9DA3B9"/>
<path d="M437.531 39.7469C435.158 42.0869 433.274 44.875 431.988 47.9494C430.702 51.0237 430.04 54.323 430.04 57.6554C430.04 60.9879 430.702 64.2872 431.988 67.3615C433.274 70.4358 435.158 73.224 437.531 75.5639C442.335 80.2866 448.803 82.9331 455.54 82.9331C462.276 82.9331 468.744 80.2866 473.548 75.5639C475.921 73.2241 477.805 70.436 479.092 67.3617C480.378 64.2873 481.04 60.988 481.04 57.6554C481.04 54.3229 480.378 51.0236 479.092 47.9492C477.805 44.8749 475.921 42.0868 473.548 39.7469C468.744 35.024 462.277 32.3774 455.54 32.3774C448.803 32.3774 442.335 35.024 437.531 39.7469ZM465.108 67.0339C462.555 69.5429 459.119 70.9487 455.54 70.9487C451.96 70.9487 448.524 69.5429 445.971 67.0339C444.726 65.8098 443.737 64.3501 443.063 62.74C442.388 61.1298 442.04 59.4013 442.04 57.6554C442.04 55.9095 442.388 54.1811 443.063 52.5709C443.737 50.9608 444.726 49.5011 445.971 48.2769C448.524 45.7673 451.96 44.3609 455.54 44.3609C459.119 44.3609 462.556 45.7673 465.108 48.2769C466.353 49.5009 467.342 50.9606 468.017 52.5708C468.692 54.181 469.04 55.9095 469.04 57.6554C469.04 59.4014 468.692 61.1299 468.017 62.7401C467.342 64.3503 466.353 65.81 465.108 67.0339Z" fill="#9DA3B9"/>
<path d="M121.2 322.466C120.068 321.358 118.545 320.743 116.961 320.754C115.378 320.764 113.863 321.401 112.747 322.524C111.631 323.647 111.004 325.166 111.002 326.749C111.001 328.333 111.626 329.852 112.741 330.977L180.602 398.427C181.733 399.535 183.257 400.15 184.84 400.14C186.423 400.129 187.938 399.493 189.055 398.37C190.171 397.247 190.798 395.728 190.8 394.145C190.801 392.562 190.176 391.042 189.062 389.917L121.2 322.466Z" fill="#9DA3B9"/>
<path d="M108.926 334.667C108.37 334.099 107.707 333.648 106.975 333.339C106.243 333.03 105.456 332.869 104.662 332.866C103.867 332.863 103.08 333.018 102.346 333.322C101.611 333.626 100.945 334.073 100.385 334.636C99.8246 335.2 99.3819 335.869 99.0825 336.605C98.783 337.341 98.6328 338.129 98.6404 338.924C98.6481 339.718 98.8135 340.503 99.127 341.234C99.4406 341.964 99.896 342.624 100.467 343.177L168.328 410.627C168.885 411.189 169.548 411.636 170.279 411.941C171.01 412.246 171.794 412.403 172.585 412.403C173.377 412.404 174.161 412.248 174.892 411.944C175.623 411.64 176.287 411.195 176.845 410.633C177.403 410.071 177.845 409.405 178.144 408.672C178.443 407.939 178.595 407.154 178.589 406.362C178.584 405.571 178.422 404.788 178.113 404.059C177.803 403.33 177.353 402.67 176.787 402.116L108.926 334.667Z" fill="#9DA3B9"/>
<path d="M96.652 346.866C95.5205 345.758 93.997 345.143 92.4136 345.153C90.8301 345.164 89.3152 345.801 88.199 346.924C87.0827 348.047 86.4557 349.566 86.4546 351.149C86.4535 352.733 87.0783 354.252 88.193 355.377L156.054 422.827C156.611 423.389 157.274 423.836 158.005 424.141C158.736 424.445 159.52 424.603 160.311 424.603C161.103 424.604 161.887 424.448 162.618 424.144C163.349 423.84 164.013 423.394 164.571 422.833C165.129 422.271 165.571 421.605 165.87 420.872C166.17 420.139 166.321 419.354 166.315 418.562C166.31 417.771 166.148 416.988 165.839 416.259C165.529 415.53 165.079 414.87 164.513 414.316L96.652 346.866Z" fill="#9DA3B9"/>
<path d="M84.3781 359.066C83.2466 357.958 81.7231 357.343 80.1396 357.354C78.5562 357.364 77.0413 358.001 75.925 359.124C74.8088 360.247 74.1818 361.766 74.1807 363.349C74.1795 364.933 74.8044 366.452 75.9191 367.577L143.78 435.026C144.336 435.594 144.999 436.045 145.731 436.354C146.463 436.663 147.25 436.824 148.044 436.827C148.839 436.83 149.626 436.675 150.36 436.371C151.095 436.067 151.761 435.621 152.321 435.057C152.881 434.493 153.324 433.824 153.624 433.088C153.923 432.352 154.073 431.564 154.066 430.769C154.058 429.975 153.893 429.19 153.579 428.459C153.265 427.729 152.81 427.069 152.239 426.516L84.3781 359.066Z" fill="#9DA3B9"/>
<path d="M72.0998 371.266C71.5437 370.698 70.8804 370.247 70.1484 369.938C69.4164 369.629 68.6302 369.468 67.8356 369.465C67.041 369.462 66.2538 369.617 65.5195 369.921C64.7853 370.225 64.1188 370.672 63.5586 371.235C62.9984 371.799 62.5557 372.468 62.2563 373.204C61.9569 373.94 61.8066 374.728 61.8142 375.523C61.8219 376.317 61.9873 377.103 62.3008 377.833C62.6144 378.563 63.0699 379.223 63.6408 379.776L131.502 447.226C132.633 448.334 134.157 448.949 135.74 448.939C137.324 448.928 138.839 448.291 139.955 447.168C141.071 446.045 141.698 444.526 141.699 442.943C141.7 441.359 141.075 439.84 139.961 438.715L72.0998 371.266Z" fill="#9DA3B9"/>
<path d="M59.83 383.465C59.2726 382.903 58.6095 382.456 57.8788 382.151C57.1482 381.846 56.3643 381.689 55.5726 381.688C54.7809 381.688 53.9968 381.844 53.2657 382.148C52.5346 382.452 51.8709 382.897 51.3127 383.459C50.7546 384.02 50.3131 384.687 50.0138 385.42C49.7144 386.153 49.5631 386.938 49.5685 387.729C49.5739 388.521 49.736 389.304 50.0453 390.033C50.3547 390.762 50.8052 391.422 51.371 391.976L119.231 459.426C119.788 459.988 120.451 460.435 121.182 460.74C121.913 461.044 122.697 461.202 123.488 461.202C124.28 461.203 125.064 461.047 125.795 460.743C126.526 460.439 127.19 459.993 127.748 459.432C128.306 458.87 128.748 458.204 129.047 457.471C129.347 456.738 129.498 455.953 129.492 455.161C129.487 454.37 129.325 453.587 129.016 452.858C128.706 452.129 128.256 451.469 127.69 450.915L59.83 383.465Z" fill="#9DA3B9"/>
<path d="M336.764 120.736C335.632 119.628 334.109 119.013 332.525 119.024C330.942 119.034 329.427 119.671 328.311 120.794C327.195 121.917 326.568 123.436 326.566 125.019C326.565 126.603 327.19 128.122 328.305 129.247L383.563 184.17C384.119 184.738 384.782 185.189 385.514 185.498C386.246 185.807 387.032 185.968 387.827 185.971C388.622 185.974 389.409 185.819 390.143 185.515C390.877 185.211 391.544 184.764 392.104 184.201C392.664 183.637 393.107 182.968 393.406 182.232C393.706 181.496 393.856 180.708 393.848 179.913C393.841 179.119 393.675 178.334 393.362 177.603C393.048 176.873 392.593 176.213 392.022 175.66L336.764 120.736Z" fill="#9DA3B9"/>
<path d="M324.49 132.936C323.358 131.828 321.835 131.213 320.251 131.224C318.668 131.234 317.153 131.871 316.037 132.994C314.921 134.117 314.294 135.636 314.292 137.219C314.291 138.803 314.916 140.322 316.031 141.447L371.289 196.37C372.42 197.478 373.944 198.093 375.527 198.082C377.111 198.072 378.626 197.435 379.742 196.312C380.858 195.189 381.485 193.67 381.486 192.087C381.487 190.503 380.863 188.984 379.748 187.859L324.49 132.936Z" fill="#9DA3B9"/>
<path d="M312.215 145.136C311.082 144.039 309.562 143.432 307.984 143.447C306.407 143.462 304.899 144.098 303.787 145.217C302.674 146.336 302.048 147.848 302.042 149.425C302.036 151.003 302.652 152.519 303.756 153.646L359.015 208.57C360.147 209.678 361.67 210.293 363.254 210.282C364.837 210.272 366.352 209.635 367.468 208.512C368.584 207.389 369.211 205.87 369.213 204.287C369.214 202.703 368.589 201.184 367.474 200.059L312.215 145.136Z" fill="#9DA3B9"/>
<path d="M299.941 157.335C298.81 156.227 297.286 155.612 295.703 155.622C294.119 155.633 292.604 156.27 291.488 157.393C290.372 158.516 289.745 160.035 289.744 161.618C289.743 163.202 290.367 164.721 291.482 165.846L346.741 220.77C347.873 221.878 349.396 222.493 350.979 222.482C352.563 222.472 354.078 221.835 355.194 220.712C356.31 219.589 356.937 218.07 356.938 216.487C356.94 214.903 356.315 213.384 355.2 212.259L299.941 157.335Z" fill="#9DA3B9"/>
<path d="M287.667 169.535C287.11 168.973 286.446 168.526 285.716 168.221C284.985 167.916 284.201 167.759 283.41 167.759C282.618 167.758 281.834 167.914 281.103 168.218C280.372 168.522 279.708 168.967 279.15 169.529C278.592 170.09 278.15 170.757 277.851 171.49C277.551 172.223 277.4 173.008 277.405 173.8C277.411 174.591 277.573 175.374 277.882 176.103C278.192 176.832 278.642 177.492 279.208 178.046L334.466 232.969C335.023 233.531 335.686 233.978 336.417 234.283C337.148 234.588 337.932 234.745 338.723 234.745C339.515 234.746 340.299 234.59 341.03 234.286C341.761 233.982 342.425 233.537 342.983 232.975C343.541 232.413 343.983 231.747 344.282 231.014C344.581 230.281 344.733 229.496 344.727 228.704C344.722 227.913 344.56 227.13 344.251 226.401C343.941 225.672 343.491 225.012 342.925 224.458L287.667 169.535Z" fill="#9DA3B9"/>
<path d="M275.393 181.735C274.262 180.627 272.738 180.012 271.155 180.023C269.571 180.033 268.056 180.67 266.94 181.793C265.824 182.916 265.197 184.435 265.196 186.018C265.195 187.602 265.82 189.121 266.934 190.246L322.192 245.169C323.324 246.277 324.847 246.892 326.431 246.881C328.014 246.871 329.529 246.234 330.645 245.111C331.761 243.988 332.388 242.469 332.39 240.886C332.391 239.302 331.766 237.783 330.651 236.658L275.393 181.735Z" fill="#9DA3B9"/>
</svg>
