<svg width="128" height="30" viewBox="0 0 128 30" fill="none" xmlns="http://www.w3.org/2000/svg">
<g id="logo">
<g id="Group 30335">
<g id="Group">
<g id="Group_2">
<path id="Vector" d="M15.0116 24.3873C15.0116 24.3873 15.0042 24.3873 15.0005 24.3873V27.1955C12.0139 27.1955 9.28113 26.1185 7.16257 24.3359L5.3125 26.4493C7.9276 28.6657 11.3114 29.9999 15.0116 29.9999C19.9181 29.9999 24.2729 27.6475 27.0131 24.0087L22.5295 20.6235C20.8155 22.9061 18.0864 24.3836 15.0116 24.3836V24.3873Z" fill="black"/>
<path id="Vector_2" d="M5.37365 7.52021L7.61727 9.21098C9.33492 7.02034 12.0052 5.61259 15.0102 5.61259C18.0152 5.61259 20.8142 7.09017 22.5318 9.3727L27.0154 5.9875C24.2752 2.35236 19.9167 0 15.0102 0C6.7235 0 0 6.71526 0 15C0 16.4445 0.205972 17.8449 0.58849 19.1681L3.28083 18.3595C2.97555 17.2936 2.80636 16.1652 2.80636 15C2.80636 12.1808 3.76634 9.58588 5.37365 7.52021Z" fill="#999999"/>
<path id="Vector_3" d="M9.01144 22.2234C10.6335 23.5723 12.7189 24.3846 14.9993 24.3883V21.5839C11.3654 21.5765 8.42295 18.6324 8.42295 15.0046C8.42295 13.4535 8.95995 12.031 9.8574 10.9063L7.61746 9.21924C6.36692 10.8144 5.61659 12.8213 5.61659 15.0083C5.61659 15.8904 5.73797 16.7468 5.96969 17.5591L3.27734 18.3677C3.95411 20.7311 5.32602 22.8041 7.1577 24.3442L9.00776 22.2308L9.01144 22.2234Z" fill="#FFD71D"/>
<path id="Vector_4" d="M14.9981 24.3876C12.7214 24.3876 10.6359 23.5716 9.01022 22.2227L7.16016 24.3361C9.27872 26.1188 12.0115 27.192 14.9981 27.1957V24.3876Z" fill="#999999"/>
<path id="Vector_5" d="M5.61473 15.0003C5.61473 12.817 6.36137 10.8065 7.61559 9.21127L5.37198 7.52051C3.76466 9.58618 2.80469 12.1811 2.80469 15.0003C2.80469 16.1654 2.9702 17.2938 3.27916 18.3598L5.9715 17.5511C5.74346 16.7425 5.61841 15.8861 5.61841 15.0003H5.61473Z" fill="#191A1A"/>
</g>
<path id="Vector_6" d="M18.5619 15.8386C19.0262 13.8728 17.8079 11.903 15.8408 11.4391C13.8737 10.9751 11.9026 12.1926 11.4383 14.1584C10.974 16.1242 12.1923 18.0939 14.1595 18.5579C16.1266 19.0218 18.0977 17.8044 18.5619 15.8386Z" fill="black"/>
</g>
<g id="Group_3">
<g id="Group_4">
<path id="Vector_7" d="M39.3463 10.3984H27.632C27.4045 10.3984 27.2891 10.5103 27.2891 10.7271V12.1957C27.2891 12.4264 27.4045 12.5418 27.632 12.5418H32.3415V20.5593C32.3415 20.7796 32.4534 20.888 32.6739 20.888H34.3079C34.5248 20.888 34.6368 20.7796 34.6368 20.5593V12.5418H39.3463C39.5772 12.5418 39.6927 12.4264 39.6927 12.1957V10.7271C39.6927 10.5103 39.5772 10.3984 39.3463 10.3984Z" fill="black"/>
<path id="Vector_8" d="M51.9271 12.6611H50.4576C50.2372 12.6611 50.1287 12.7765 50.1287 13.0073V17.3395C50.1287 17.6577 50.1042 17.9234 50.0552 18.1332C50.0027 18.343 49.9153 18.5108 49.7893 18.6332C49.6668 18.7591 49.4989 18.85 49.289 18.9059C49.079 18.9619 48.8096 18.9864 48.4772 18.9864H44.6249C44.2925 18.9864 44.0301 18.9619 43.8307 18.9059C43.6277 18.85 43.4738 18.7591 43.3653 18.6332C43.2534 18.5108 43.1799 18.343 43.1379 18.1332C43.0994 17.9234 43.0784 17.6577 43.0784 17.3395V13.0073C43.0784 12.7765 42.9665 12.6611 42.7495 12.6611H41.28C41.0491 12.6611 40.9336 12.7765 40.9336 13.0073V17.864C40.9336 18.4024 40.9931 18.864 41.1155 19.2486C41.2345 19.6332 41.4304 19.9479 41.7069 20.1927C41.9798 20.4374 42.3471 20.6157 42.802 20.7241C43.2569 20.836 43.8237 20.8885 44.5025 20.8885H48.6872C49.3589 20.8885 49.9223 20.836 50.3841 20.7241C50.8425 20.6157 51.2099 20.4374 51.4863 20.1927C51.7592 19.9479 51.9586 19.6332 52.0776 19.2486C52.1966 18.864 52.2595 18.4024 52.2595 17.864V13.0073C52.2595 12.7765 52.1476 12.6611 51.9271 12.6611Z" fill="black"/>
<path id="Vector_9" d="M61.8453 12.6611H57.6431C56.9643 12.6611 56.3975 12.7206 55.9426 12.836C55.4878 12.9513 55.1239 13.1297 54.8475 13.3744C54.5711 13.6192 54.3751 13.9339 54.2527 14.3185C54.1337 14.7031 54.0742 15.1646 54.0742 15.7031V20.5598C54.0742 20.7801 54.1897 20.8885 54.4171 20.8885H55.8901C56.1106 20.8885 56.219 20.7801 56.219 20.5598V16.1087C56.219 15.801 56.2435 15.5388 56.2925 15.322C56.345 15.1087 56.4325 14.9374 56.5584 14.8115C56.6809 14.6891 56.8488 14.5982 57.0588 14.5423C57.2687 14.4898 57.5346 14.4618 57.853 14.4618H61.8453C62.0237 14.4618 62.1147 14.3709 62.1147 14.1891V12.9339C62.1147 12.752 62.0237 12.6611 61.8453 12.6611Z" fill="black"/>
<path id="Vector_10" d="M74.4236 14.3178C74.3012 13.9331 74.1052 13.6185 73.8288 13.3737C73.5559 13.1289 73.1885 12.9506 72.7266 12.8352C72.2683 12.7199 71.705 12.6604 71.0332 12.6604H65.4069V9.97858C65.4069 9.75829 65.2985 9.6499 65.0781 9.6499H63.6085C63.3811 9.6499 63.2656 9.75829 63.2656 9.97858V17.8632C63.2656 18.4017 63.3251 18.8633 63.4441 19.2479C63.563 19.6325 63.7625 19.9472 64.0354 20.1919C64.3118 20.4367 64.6757 20.615 65.1305 20.7234C65.5854 20.8353 66.1522 20.8877 66.8345 20.8877H71.0332C71.705 20.8877 72.2683 20.8353 72.7266 20.7234C73.1885 20.615 73.5559 20.4367 73.8288 20.1919C74.1052 19.9472 74.3012 19.6325 74.4236 19.2479C74.5426 18.8633 74.6021 18.4017 74.6021 17.8632V15.7024C74.6021 15.1639 74.5426 14.7024 74.4236 14.3178ZM72.4712 17.4437C72.4712 17.7618 72.4467 18.0276 72.3977 18.2374C72.3488 18.4472 72.2613 18.615 72.1353 18.7374C72.0094 18.8633 71.8414 18.9542 71.6315 19.0101C71.4216 19.0626 71.1556 19.0905 70.8232 19.0905H67.0444C66.726 19.0905 66.4601 19.0626 66.2502 19.0101C66.0368 18.9542 65.8723 18.8633 65.7463 18.7374C65.6204 18.615 65.5329 18.4472 65.4839 18.2374C65.4349 18.0276 65.4069 17.7618 65.4069 17.4437V14.4611H70.8232C71.1556 14.4611 71.4216 14.4891 71.6315 14.5415C71.8414 14.5975 72.0094 14.6884 72.1353 14.8108C72.2613 14.9367 72.3488 15.108 72.3977 15.3213C72.4467 15.5381 72.4712 15.8003 72.4712 16.108V17.4437Z" fill="black"/>
<path id="Vector_11" d="M87.4418 14.3185C87.3228 13.9339 87.1234 13.6192 86.8504 13.3744C86.574 13.1297 86.2101 12.9513 85.7483 12.836C85.2899 12.7206 84.7231 12.6611 84.0513 12.6611H79.8107C79.1284 12.6611 78.5616 12.7206 78.1067 12.836C77.6518 12.9513 77.288 13.1297 77.0115 13.3744C76.7386 13.6192 76.5392 13.9339 76.4202 14.3185C76.3013 14.7031 76.2383 15.1646 76.2383 15.7031V17.864C76.2383 18.4024 76.3013 18.864 76.4202 19.2486C76.5392 19.6332 76.7386 19.9479 77.0115 20.1927C77.288 20.4374 77.6518 20.6157 78.1067 20.7241C78.5616 20.836 79.1284 20.8885 79.8107 20.8885H84.0513C84.7231 20.8885 85.2899 20.836 85.7483 20.7241C86.2101 20.6157 86.574 20.4374 86.8504 20.1927C87.1234 19.9479 87.3228 19.6332 87.4418 19.2486C87.5607 18.864 87.6237 18.4024 87.6237 17.864V15.7031C87.6237 15.1646 87.5607 14.7031 87.4418 14.3185ZM85.4929 17.4898C85.4929 17.808 85.4684 18.0738 85.4194 18.2835C85.3704 18.4933 85.2794 18.6612 85.1535 18.7836C85.031 18.9094 84.8631 19.0003 84.6531 19.0528C84.4432 19.1087 84.1738 19.1367 83.8414 19.1367H80.0206C79.6987 19.1367 79.4363 19.1087 79.2263 19.0528C79.0164 19.0003 78.845 18.9094 78.719 18.7836C78.5965 18.6612 78.5091 18.4933 78.4601 18.2835C78.4076 18.0738 78.3831 17.808 78.3831 17.4898V16.0633C78.3831 15.7556 78.4076 15.4933 78.4601 15.2835C78.5091 15.0737 78.5965 14.9059 78.719 14.7765C78.845 14.6472 79.0164 14.5563 79.2263 14.5073C79.4363 14.4549 79.6987 14.4304 80.0206 14.4304H83.8414C84.1738 14.4304 84.4432 14.4549 84.6531 14.5073C84.8631 14.5563 85.031 14.6472 85.1535 14.7765C85.2794 14.9059 85.3704 15.0737 85.4194 15.2835C85.4684 15.4933 85.4929 15.7556 85.4929 16.0633V17.4898Z" fill="black"/>
<path id="Vector_12" d="M99.9241 15.3357C99.4832 14.8917 98.8289 14.6714 97.9577 14.6714H89.3259C89.4204 15.1504 89.6198 15.542 89.9207 15.8462C90.3581 16.2903 91.0159 16.5141 91.8836 16.5141H97.5063C98.0277 16.5141 98.2866 16.7938 98.2866 17.3532V17.9686C98.2866 18.2274 98.2271 18.4336 98.1082 18.5805C97.9892 18.7344 97.7828 18.8078 97.4924 18.8078H89.6198C89.3889 18.8078 89.2734 18.9162 89.2734 19.1365V20.5595C89.2734 20.7798 89.3889 20.8882 89.6198 20.8882H97.9262C98.8359 20.8882 99.5077 20.6644 99.9381 20.2134C100.368 19.7658 100.582 19.1749 100.582 18.4476V17.2483C100.582 16.4197 100.361 15.7833 99.9241 15.3357Z" fill="black"/>
<path id="Vector_13" d="M113.705 10.3984H101.991C101.76 10.3984 101.645 10.5103 101.645 10.7271V12.1362C101.645 12.367 101.76 12.4824 101.991 12.4824H106.7V20.5593C106.7 20.7796 106.812 20.888 107.029 20.888H108.663C108.884 20.888 108.996 20.7796 108.996 20.5593V12.4824H113.705C113.933 12.4824 114.048 12.367 114.048 12.1362V10.7271C114.048 10.5103 113.933 10.3984 113.705 10.3984Z" fill="black"/>
<path id="Vector_14" d="M127.771 12.5243C127.624 12.0278 127.379 11.6187 127.043 11.304C126.711 10.9894 126.273 10.7621 125.738 10.6152C125.206 10.4719 124.559 10.3984 123.796 10.3984H119.164C118.401 10.3984 117.76 10.4719 117.229 10.6152C116.697 10.7621 116.266 10.9894 115.931 11.304C115.598 11.6187 115.353 12.0278 115.196 12.5243C115.042 13.0243 114.965 13.6362 114.965 14.3565V16.9334C114.965 17.6537 115.042 18.2656 115.196 18.7691C115.353 19.2726 115.598 19.6817 115.931 19.9999C116.266 20.3111 116.697 20.5384 117.229 20.6782C117.76 20.8216 118.401 20.888 119.164 20.888H123.796C124.559 20.888 125.206 20.8216 125.738 20.6782C126.273 20.5384 126.711 20.3111 127.043 19.9999C127.379 19.6817 127.624 19.2726 127.771 18.7691C127.921 18.2656 127.998 17.6537 127.998 16.9334V14.3565C127.998 13.6362 127.921 13.0243 127.771 12.5243ZM125.703 16.7691C125.703 17.1572 125.671 17.4859 125.605 17.7516C125.539 18.0139 125.434 18.2237 125.283 18.381C125.133 18.5349 124.93 18.6432 124.674 18.7097C124.422 18.7726 124.097 18.8076 123.705 18.8076H119.254C118.863 18.8076 118.541 18.7726 118.285 18.7097C118.033 18.6432 117.83 18.5349 117.68 18.381C117.53 18.2237 117.421 18.0139 117.358 17.7516C117.292 17.4859 117.26 17.1572 117.26 16.7691V14.5208C117.26 14.1292 117.292 13.8041 117.358 13.5383C117.421 13.2761 117.53 13.0628 117.68 12.9089C117.83 12.7551 118.033 12.6432 118.285 12.5803C118.541 12.5138 118.863 12.4824 119.254 12.4824H123.705C124.097 12.4824 124.422 12.5138 124.674 12.5803C124.93 12.6432 125.133 12.7551 125.283 12.9089C125.434 13.0628 125.539 13.2761 125.605 13.5383C125.671 13.8041 125.703 14.1292 125.703 14.5208V16.7691Z" fill="black"/>
</g>
<path id="Vector_15" d="M99.8615 12.4824C100.082 12.4824 100.194 12.3705 100.194 12.1502V10.7271C100.194 10.5068 100.082 10.3984 99.8615 10.3984H91.912C91.0023 10.3984 90.334 10.6222 89.9036 11.0733C89.5468 11.4474 89.3368 11.9159 89.2773 12.4824H99.8615Z" fill="black"/>
</g>
</g>
</g>
</svg>
