<svg id="Слой_1" xmlns="http://www.w3.org/2000/svg" viewBox="0 0 512 512"><style>.st0{fill:#7f96a3}</style><path class="st0" d="M497 319.5c-6.3 0-11.5 5.2-11.5 11.5v18.5h-38V211c0-22.9-18.6-41.5-41.5-41.5h-22.9l-26.8-53.6c-2-3.9-5.9-6.4-10.3-6.4H207.5v-37H226c6.3 0 11.5-5.2 11.5-11.5s-5.2-11.5-11.5-11.5H106c-6.3 0-11.5 5.2-11.5 11.5s5.2 11.5 11.5 11.5h18.5v37H106c-6.3 0-11.5 5.2-11.5 11.5v50.1l-2.3.8C80.5 176 71 185.5 66.9 197.2l-.8 2.3H26.5V181c0-6.3-5.2-11.5-11.5-11.5S3.5 174.7 3.5 181v120c0 6.3 5.2 11.5 11.5 11.5s11.5-5.2 11.5-11.5v-18.5h38V421c0 22.9 18.6 41.5 41.5 41.5h300c17.5 0 33.3-11.1 39.1-27.7l.8-2.3h39.5V451c0 6.3 5.2 11.5 11.5 11.5s11.5-5.2 11.5-11.5V331c.1-6.3-5.1-11.5-11.4-11.5zm-432.5-60h-38v-37h38v37zm83-187h37v37h-37v-37zm-30 60h221.4l18.5 37H117.5v-37zm-30 120h37v127h-37v-127zm337 168.5c0 10.2-8.3 18.5-18.5 18.5H106c-10.2 0-18.5-8.3-18.5-18.5v-18.5h337V421zm-277-41.5v-127h37v127h-37zm60 0v-127h37v127h-37zm60 0v-127h37v127h-37zm60 0v-127h37v127h-37zm97 0h-37v-127h37v127zm0-150h-337V211c0-10.2 8.3-18.5 18.5-18.5h300c10.2 0 18.5 8.3 18.5 18.5v18.5zm61 180h-38v-37h38v37z"/></svg>