<?xml version="1.0" encoding="utf-8"?>
<!-- Generator: Adobe Illustrator 23.0.0, SVG Export Plug-In . SVG Version: 6.00 Build 0)  -->
<svg version="1.1" xmlns="http://www.w3.org/2000/svg" xmlns:xlink="http://www.w3.org/1999/xlink" x="0px" y="0px"
	 viewBox="0 0 512 512" style="enable-background:new 0 0 512 512;" xml:space="preserve">
<g id="Layer_1">
	<g>
		<g>
			<g>
				<path d="M490.1,403L389.8,302.7c-10.6-10.6-27.9-10.6-38.5,0l-26.1,26.1c-7,7-9.6,17.3-6.9,26.8l0.6,2l-11.3,11.3
					c-5.3,5.3-20,3.3-38.4-5.1c-15.5-7.1-40.2-21.8-69.7-51.3c-29.5-29.5-44.1-54.2-51.3-69.7c-7.8-17.1-10.1-31-6.1-37.1v-2.3h2
					l10.3-10.3l2,0.6c2.5,0.7,5,1.1,7.5,1.1c7.3,0,14.1-2.8,19.3-8l26.1-26.1c10.6-10.6,10.6-27.9,0-38.5L109,21.9
					c-5.1-5.1-12-8-19.2-8c-7.3,0-14.1,2.8-19.2,8L44.4,48c-7,7-9.6,17.3-6.9,26.8l0.6,2l-1.4,1.5c-3.7,3.8-7.9,8-8.5,8.7L28,87.1
					C1.1,116.9-3.8,164.5,14.2,221.2C32,277.5,70.5,337.2,122.7,389.3c52.1,52.1,111.9,90.7,168.2,108.5
					c22.3,7.1,43.4,10.7,62.5,10.7c30.9,0,56.8-9.6,74.9-27.6l6.9-6.9l2,0.6c2.5,0.7,5,1.1,7.6,1.1c7.3,0,14.1-2.8,19.2-8l26.1-26.1
					C500.7,430.9,500.7,413.6,490.1,403z M89.7,36.2L195,141.5l-30.9,30.9l-3-2.8L58.7,67.3L89.7,36.2z M411.5,464.1
					c-13.8,13.8-33.7,20.7-58.1,20.7c-16.5,0-35.2-3.2-55.4-9.6c-52.8-16.7-109.1-53.2-158.6-102.7C90,323.1,53.5,266.8,36.8,214
					c-15.9-50.1-11.9-90.4,11.1-113.5l5.3-5.2l82.8,82.8l-9.6,9.6c-16,16-9.4,42.3-1.1,61.6c10.9,25.2,31.8,54.3,57.5,80
					c40.2,40.2,85.5,66.1,115.6,66.1c10.8,0,19.6-3.3,26-9.8l9.6-9.6l82.8,82.8L411.5,464.1z M451.3,446.8c-4.7,4.7-5.1,5.1-6.3,5.1
					h-0.3l-1.4,0L339.5,348l31-31l105.3,105.3L451.3,446.8z"/>
			</g>
		</g>
	</g>
	<g>
		<g>
			<g>
				<path d="M430.6,232.5c0,6.5-5.3,11.8-11.9,11.8s-11.8-5.3-11.8-11.9c0-34-13.3-66-37.3-90.1c-24.1-24.1-56.1-37.3-90.1-37.3
					c0,0,0,0,0,0c-6.5,0-11.8-5.3-11.8-11.9c0-6.5,5.3-11.9,11.8-11.9c40.4,0,78.3,15.7,106.9,44.3
					C414.9,154.2,430.6,192.2,430.6,232.5z"/>
			</g>
		</g>
	</g>
	<g>
		<g>
			<g>
				<path d="M508.5,232.5c0,6.5-5.3,11.8-11.9,11.8c-6.5,0-11.9-5.3-11.9-11.8c0-54.8-21.4-106.4-60.1-145.2
					c-38.8-38.8-90.3-60.1-145.2-60.1c-6.5,0-11.9-5.3-11.9-11.9c0-6.5,5.3-11.9,11.9-11.9c61.2,0,118.7,23.8,162,67.1
					S508.5,171.4,508.5,232.5z"/>
			</g>
		</g>
	</g>
	<g>
		<g>
			<g>
				<path d="M352.7,232.5c0,6.5-5.3,11.9-11.9,11.9c-6.5,0-11.9-5.3-11.9-11.9c0-13.4-5-25.5-14.5-35c-9.6-9.6-21.4-14.5-35-14.5
					c0,0,0,0,0,0c-3.2,0-6.1-1.2-8.4-3.5c-2.2-2.2-3.5-5.2-3.5-8.4c0-6.5,5.3-11.9,11.9-11.9c19.8,0,37.8,7.4,51.8,21.5
					C345.3,194.8,352.7,212.7,352.7,232.5z"/>
			</g>
		</g>
	</g>
</g>
<g id="Слой_2">
</g>
</svg>
