<svg width="20" height="20" viewBox="0 0 20 20" fill="none" xmlns="http://www.w3.org/2000/svg">
<path fill-rule="evenodd" clip-rule="evenodd" d="M2.17541 5.06006C3.11791 4.06631 3.45166 3.78756 3.85291 3.65881C4.13102 3.58566 4.42277 3.58137 4.70291 3.64631C5.07166 3.75381 5.16791 3.83506 6.37791 5.03881C7.44041 6.09631 7.54541 6.21131 7.64791 6.41381C7.84618 6.77829 7.87805 7.21044 7.73541 7.60006C7.63041 7.89381 7.47541 8.08881 6.83166 8.73631L6.41166 9.15756C6.30117 9.26965 6.27497 9.43995 6.34666 9.58006C7.27901 11.1708 8.60148 12.4976 10.1892 13.4351C10.3723 13.5332 10.5979 13.5014 10.7467 13.3563L11.1504 12.9588C11.3999 12.7028 11.6641 12.4616 11.9417 12.2363C12.3769 11.967 12.9202 11.941 13.3792 12.1676C13.6029 12.2726 13.6779 12.3413 14.7742 13.4338C15.8992 14.5588 15.9354 14.5951 16.0617 14.8538C16.2974 15.2824 16.295 15.8024 16.0554 16.2288C15.9304 16.4688 15.8604 16.5563 15.2254 17.2051C14.8417 17.5976 14.4754 17.9551 14.4229 18.0076C13.8985 18.441 13.2262 18.6539 12.5479 18.6013C11.3069 18.4877 10.1059 18.1037 9.02916 17.4763C6.6427 16.2119 4.61122 14.3695 3.12041 12.1176C2.7944 11.6468 2.50441 11.152 2.25291 10.6376C1.58279 9.48878 1.23636 8.17994 1.25041 6.85006C1.30082 6.15196 1.63513 5.50502 2.17541 5.06006Z" stroke="#959595" stroke-linecap="round" stroke-linejoin="round"/>
<path d="M12.7783 0.629492C12.5184 0.536206 12.2321 0.671281 12.1388 0.931189C12.0455 1.1911 12.1806 1.47742 12.4405 1.5707L12.7783 0.629492ZM18.2667 7.29942C18.3643 7.55772 18.6529 7.68794 18.9112 7.59029C19.1695 7.49263 19.2997 7.20407 19.2021 6.94577L18.2667 7.29942ZM11.3445 3.42863C11.0752 3.3678 10.8075 3.53684 10.7467 3.8062C10.6858 4.07556 10.8549 4.34323 11.1242 4.40406L11.3445 3.42863ZM15.5111 8.71836C15.5764 8.98667 15.8468 9.15123 16.1151 9.08591C16.3834 9.0206 16.548 8.75014 16.4827 8.48183L15.5111 8.71836ZM12.4405 1.5707C15.1276 2.53516 17.257 4.62894 18.2667 7.29942L19.2021 6.94577C18.0888 4.00139 15.741 1.69287 12.7783 0.629492L12.4405 1.5707ZM11.1242 4.40406C13.2871 4.89253 14.9866 6.56395 15.5111 8.71836L16.4827 8.48183C15.8684 5.95844 13.8778 4.00075 11.3445 3.42863L11.1242 4.40406Z" fill="#959595"/>
</svg>
