<svg id="Capa_1" xmlns="http://www.w3.org/2000/svg" viewBox="0 0 191.3 191.3"><style>.st0{fill:#fff}</style><path class="st0" d="M162.9 66.6c-2.8-1.8-6.5-.9-8.3 1.9s-.9 6.5 1.9 8.3c6.5 4.1 10.4 11.1 10.4 18.8s-3.9 14.8-10.4 18.8l-98.4 61.4c-6.9 4.3-15.4 4.5-22.5.6-7.2-4-11.4-11.2-11.4-19.4V34.3c0-8.2 4.3-15.4 11.4-19.4 7.2-4 15.6-3.8 22.5.6l57.3 35.7c2.8 1.8 6.5.9 8.3-1.9 1.8-2.8.9-6.5-1.9-8.3L64.5 5.2c-10.7-6.7-23.7-7-34.7-.9-11 6.1-17.6 17.3-17.6 29.9V157c0 12.6 6.6 23.8 17.6 29.9 5.3 2.9 10.9 4.4 16.6 4.4 6.2 0 12.5-1.8 18.1-5.2l98.4-61.4c10.1-6.3 16.1-17.1 16.1-29s-6-22.8-16.1-29.1z"/></svg>