<svg xmlns="http://www.w3.org/2000/svg" viewBox="0 0 21.1 21"><defs><style>path, circle{fill:#7f96a3;}</style></defs><g id="Layer_2" data-name="Layer 2"><g id="Слой_1" data-name="Слой 1"><path d="M20.62,11.85a1.13,1.13,0,0,0-.19-.28,3.88,3.88,0,0,1,.26-.31l.12-.13a.84.84,0,0,0,0-1.27l-.1-.1c-.09-.1-.17-.2-.27-.3a6.22,6.22,0,0,0,.32-.56.79.79,0,0,0-.23-1.1l-.07,0L20,7.42c.07-.18.12-.35.18-.53V6.83a.8.8,0,0,0-.47-1.06l-.07,0-.49-.21c0-.13,0-.25,0-.38l0-.24A.8.8,0,0,0,18.58,4l-.52-.11-.12,0-.06-.61A.81.81,0,0,0,17,2.45h-.11l-.55,0c0-.17-.1-.33-.15-.49l0-.08a.78.78,0,0,0-1-.57,5.19,5.19,0,0,0-.64.13c-.11-.19-.22-.38-.34-.57a.79.79,0,0,0-1-.34l-.61.27L12.29.4,12.21.32A.81.81,0,0,0,11,.21L10.9.3l-.35.25L10.21.3,10.1.23A.83.83,0,0,0,8.85.36l-.09.1L8.48.77A6.21,6.21,0,0,0,7.89.51.79.79,0,0,0,6.83.86c-.11.17-.21.35-.33.55-.24-.06-.48-.1-.68-.14a.77.77,0,0,0-.9.54c-.08.2-.14.4-.21.64a4.34,4.34,0,0,0-.51,0H4.08a.81.81,0,0,0-.86.8v.11c0,.16,0,.32-.06.48l-.36.08L2.53,4a.8.8,0,0,0-.66.92l0,.22c0,.13,0,.26.05.41l-.44.19-.11,0a.8.8,0,0,0-.48,1.1L1,7c0,.14.09.28.14.43l-.54.4A.77.77,0,0,0,.33,8.88l.33.59c-.15.17-.3.36-.44.54L0,10.29v.42L.22,11l.44.55c-.11.18-.22.37-.32.56a.78.78,0,0,0,.23,1.09c.17.13.34.26.52.38-.08.23-.15.45-.22.68a.86.86,0,0,0,.08.63.72.72,0,0,0,.41.32.62.62,0,0,0,.56-.14A.55.55,0,0,0,2,14.44s0,0,0-.19l.15-.49a.79.79,0,0,0-.32-1l-.44-.33h0L1.69,12a.78.78,0,0,0-.1-1l-.34-.39,0,0,0,0,.36-.41a.79.79,0,0,0,.11-1l-.27-.47,0,0,.42-.31a.84.84,0,0,0,.35-1.06L2,6.7l.09,0,.44-.2a.8.8,0,0,0,.5-.88L3,5l.52-.11a.82.82,0,0,0,.72-.83l.06-.5.46,0a.84.84,0,0,0,1-.69l.15-.45.52.11a.83.83,0,0,0,1-.44l.28-.47.49.22A.8.8,0,0,0,9.21,1.6l.37-.39.46.33a.79.79,0,0,0,1,0l.47-.33.35.39A.83.83,0,0,0,13,1.83l.48-.22.26.45a.82.82,0,0,0,1,.45l.5-.1,0,.06c0,.16.11.32.16.48a.79.79,0,0,0,.83.6h.57l.06.58a.82.82,0,0,0,.65.75l.6.13a1.84,1.84,0,0,0,0,.33l0,.21a.8.8,0,0,0,.53.92l.5.23-.16.47a.83.83,0,0,0,.36,1.09l.4.3L19.42,9a.82.82,0,0,0,.11,1.08l.36.4-.31.34A.86.86,0,0,0,19.45,12l.24.41-.46.34a.81.81,0,0,0-.32,1l.17.54h0l-.06,0-.48.21a.81.81,0,0,0-.49.87v.1a3.88,3.88,0,0,1,0,.48l-.3.07-.25.05a.81.81,0,0,0-.69.79c0,.16,0,.32-.05.49v.06h-.47a.84.84,0,0,0-1,.68l-.15.46-.53-.11a.81.81,0,0,0-1,.43l-.28.47-.51-.22a.8.8,0,0,0-1,.23l-.36.4-.46-.33a.79.79,0,0,0-1,0l-.46.33-.33-.37a.83.83,0,0,0-1.12-.24l-.46.2L7.41,19a.82.82,0,0,0-1-.46l-.5.1-.17-.51a.79.79,0,0,0-.87-.63H4.3l-.06-.59a.82.82,0,0,0-.64-.74l-.31-.07L2.91,16a.55.55,0,0,0-.66-.27.54.54,0,0,0-.38.63.81.81,0,0,0,.64.7l.65.13c0,.12,0,.24,0,.36l0,.22a.82.82,0,0,0,.89.82H4.7a2.53,2.53,0,0,1,.12.36l.07.2a.8.8,0,0,0,1,.6l.26-.05.33-.07a3.21,3.21,0,0,1,.19.31c0,.08.09.16.14.24a.81.81,0,0,0,1.11.33c.18-.08.36-.15.54-.25.12.15.25.29.38.43l.06.06a.81.81,0,0,0,1.15.08c.16-.11.32-.22.48-.35.16.13.33.25.54.39a.86.86,0,0,0,.49.17.82.82,0,0,0,.59-.28,5.21,5.21,0,0,0,.45-.5,5.46,5.46,0,0,0,.6.27.78.78,0,0,0,1-.34l.14-.24a3.37,3.37,0,0,1,.19-.32l.34.07.24.05a.81.81,0,0,0,1-.61c0-.07,0-.16.06-.25a2.08,2.08,0,0,1,.1-.3,1,1,0,0,1,.35,0H17a.82.82,0,0,0,.9-.83l.06-.49v-.07l.07,0,.57-.12a.81.81,0,0,0,.65-.93l0-.24c0-.13,0-.25,0-.38l.63-.28a.79.79,0,0,0,.42-1l0-.07c-.06-.19-.11-.38-.17-.59.16-.1.31-.22.46-.33l.05,0a.8.8,0,0,0,.23-1.08Z"/><path d="M16.73,11.19a.49.49,0,0,0,.37.58.67.67,0,0,0,.51-.09.55.55,0,0,0,.22-.42,4.37,4.37,0,0,0,0-1.53,7.34,7.34,0,1,0-7.31,8.11h0A7.33,7.33,0,0,0,16.38,15a4.72,4.72,0,0,0,.78-1.53l0-.08a.54.54,0,0,0-.29-.73.55.55,0,0,0-.73.33l0,.08a5.82,5.82,0,0,1-7,3.53A6.26,6.26,0,0,1,4.46,9.15a6.23,6.23,0,0,1,12.32,1.16c0,.31,0,.4,0,.57Z"/><path d="M14.87,11.29h0c.31,0,.65-.23.64-.8a.8.8,0,0,0-.22-.61.61.61,0,0,0-.46-.17c-.4,0-.65.33-.65.81a.8.8,0,0,0,.23.6A.62.62,0,0,0,14.87,11.29Z"/><path d="M9.94,14.37a.65.65,0,0,0-.18.46c0,.32.22.66.8.66h0a.85.85,0,0,0,.61-.23.57.57,0,0,0,.17-.45.7.7,0,0,0-.79-.66A.77.77,0,0,0,9.94,14.37Z"/><path d="M10.59,6.87h0a.62.62,0,0,0,.68-.47,1.07,1.07,0,0,0,0-.53.58.58,0,0,0-.33-.3,1,1,0,0,0-.75,0,.63.63,0,0,0-.4.71A.77.77,0,0,0,10.59,6.87Z"/><path d="M7.41,8.19h0a1,1,0,0,0,.82-.83.68.68,0,0,0-.65-.67A.86.86,0,0,0,7,7a.83.83,0,0,0-.29.58.65.65,0,0,0,.67.65Z"/><path d="M13.7,8.19h0a.66.66,0,0,0,.63-.67.94.94,0,0,0-.3-.58.88.88,0,0,0-.58-.25.66.66,0,0,0-.62.68.83.83,0,0,0,.29.58A.82.82,0,0,0,13.7,8.19Z"/><path d="M6.24,9.71a.75.75,0,0,0-.46.18.84.84,0,0,0-.21.61c0,.58.35.79.66.79h0a.61.61,0,0,0,.45-.18.8.8,0,0,0,.22-.61C6.9,10,6.64,9.71,6.24,9.71Z"/><path d="M7.58,14.31a.63.63,0,0,0,.47-.2.65.65,0,0,0,.19-.49h0a.94.94,0,0,0-.83-.81.66.66,0,0,0-.48.2.66.66,0,0,0-.19.48A1,1,0,0,0,7.58,14.31Z"/><path d="M13.48,14.31h0a.85.85,0,0,0,.54-.24.91.91,0,0,0,.31-.58.66.66,0,0,0-.63-.68.89.89,0,0,0-.58.24.87.87,0,0,0-.29.58A.66.66,0,0,0,13.48,14.31Z"/><circle cx="10.53" cy="10.5" r="2.5"/></g></g></svg>