<svg width="36" height="35" viewBox="0 0 36 35" fill="none" xmlns="http://www.w3.org/2000/svg">
<rect x="0.640625" y="0.0195312" width="34.7067" height="34.7067" rx="17.3533" fill="#0C0C0C"/>
<path fill-rule="evenodd" clip-rule="evenodd" d="M21.7401 15.0142C22.9025 15.8413 24.2945 16.2832 25.7207 16.2778V13.4488C25.4403 13.4496 25.1607 13.4196 24.8869 13.3592V15.613C23.4575 15.6155 22.0634 15.1686 20.9016 14.3352V20.1536C20.898 21.1083 20.6364 22.0443 20.1445 22.8623C19.6526 23.6803 18.9487 24.3498 18.1074 24.7998C17.2661 25.2498 16.3188 25.4635 15.366 25.4184C14.4132 25.3732 13.4903 25.0708 12.6953 24.5432C13.4307 25.2879 14.3703 25.7975 15.3952 26.0073C16.4201 26.2172 17.4842 26.1179 18.4527 25.7221C19.4212 25.3263 20.2506 24.6517 20.8358 23.7838C21.421 22.9159 21.7357 21.8937 21.7401 20.8467V15.0142ZM22.7717 12.1286C22.1806 11.4873 21.8179 10.6684 21.7401 9.79941V9.43164H20.9487C21.0465 9.98404 21.2594 10.5096 21.5735 10.9743C21.8876 11.439 22.2958 11.8323 22.7717 12.1286ZM14.5278 22.3036C14.2535 21.9446 14.0854 21.5157 14.0427 21.0658C13.9999 20.6158 14.0842 20.1629 14.2859 19.7586C14.4877 19.3542 14.7988 19.0147 15.1838 18.7786C15.5689 18.5425 16.0124 18.4194 16.464 18.4232C16.7133 18.4231 16.9611 18.4612 17.1989 18.5363V15.613C16.9209 15.5762 16.6406 15.5604 16.3603 15.5659V17.8385C15.7814 17.6553 15.1549 17.697 14.6052 17.9552C14.0556 18.2133 13.6232 18.6691 13.3941 19.2318C13.1649 19.7946 13.1557 20.423 13.3684 20.9922C13.5811 21.5613 14.0001 22.0295 14.542 22.3036H14.5278Z" fill="#EE1D52"/>
<path fill-rule="evenodd" clip-rule="evenodd" d="M20.9009 14.3164C22.0627 15.1497 23.4568 15.5967 24.8862 15.5941V13.3404C24.0718 13.168 23.332 12.7442 22.7711 12.1286C22.2951 11.8323 21.8869 11.439 21.5728 10.9743C21.2587 10.5096 21.0458 9.98404 20.948 9.43164H18.8658V20.8467C18.8639 21.3519 18.7039 21.8439 18.4083 22.2535C18.1128 22.6631 17.6964 22.9698 17.2178 23.1305C16.7392 23.2913 16.2224 23.2979 15.7398 23.1496C15.2572 23.0013 14.8331 22.7055 14.5271 22.3036C14.0422 22.0587 13.6538 21.6574 13.4246 21.1644C13.1955 20.6715 13.139 20.1157 13.2642 19.5866C13.3894 19.0576 13.689 18.5862 14.1147 18.2485C14.5404 17.9108 15.0674 17.7265 15.6106 17.7253C15.8598 17.7261 16.1076 17.7643 16.3455 17.8385V15.5659C15.3174 15.5906 14.3189 15.9152 13.4725 16.4999C12.6262 17.0845 11.9688 17.9038 11.5811 18.8572C11.1934 19.8105 11.0922 20.8565 11.29 21.8665C11.4878 22.8766 11.976 23.8069 12.6946 24.5432C13.4898 25.0746 14.4141 25.3801 15.3691 25.4273C16.324 25.4744 17.2739 25.2614 18.1175 24.8109C18.961 24.3605 19.6667 23.6894 20.1594 22.8693C20.652 22.0491 20.9132 21.1105 20.915 20.1536L20.9009 14.3164Z" fill="white"/>
<path fill-rule="evenodd" clip-rule="evenodd" d="M24.8879 13.34V12.7317C24.14 12.7349 23.4065 12.5256 22.7727 12.1282C23.3322 12.7455 24.0726 13.1697 24.8879 13.34ZM20.9496 9.43122C20.9496 9.32277 20.9166 9.20961 20.9025 9.10117V8.7334H18.0289V20.1531C18.0264 20.7926 17.7706 21.4049 17.3175 21.8557C16.8644 22.3065 16.2511 22.559 15.6123 22.5578C15.2361 22.5597 14.8648 22.4724 14.5288 22.3032C14.8348 22.705 15.2588 23.0009 15.7414 23.1492C16.224 23.2975 16.7409 23.2908 17.2195 23.1301C17.6981 22.9694 18.1144 22.6627 18.41 22.2531C18.7055 21.8435 18.8655 21.3515 18.8674 20.8462V9.43122H20.9496ZM16.3471 15.5607V14.9148C15.1647 14.754 13.9627 14.9988 12.937 15.6093C11.9114 16.2198 11.1225 17.16 10.6991 18.2767C10.2757 19.3934 10.2426 20.6207 10.6053 21.7586C10.9679 22.8964 11.705 23.8778 12.6963 24.5428C11.9831 23.8048 11.5001 22.8749 11.3063 21.8666C11.1126 20.8584 11.2164 19.8155 11.6051 18.8653C11.9938 17.9152 12.6506 17.0989 13.4952 16.5162C14.3399 15.9336 15.3358 15.6097 16.3613 15.5843L16.3471 15.5607Z" fill="#69C9D0"/>
</svg>
