<svg id="Capa_1" xmlns="http://www.w3.org/2000/svg" viewBox="0 0 512 512"><style>.st0{fill:#7f96a3}</style><path class="st0" d="M502 307.9h-40c-3.2 0-6 1.5-7.9 3.8h-34c5.2-18.7 7.9-38.1 7.9-57.7 0-57.2-22.3-110.9-62.7-151.3-40.4-40.4-94.1-62.6-151.3-62.6H10c-5.5 0-10 4.5-10 10s4.5 10 10 10h113.4c-22.3 10.4-42.8 24.8-60.7 42.7C22.3 143.2 0 196.9 0 254.1 0 311.2 22.3 365 62.7 405.4 102 444.7 154 466.9 209.4 468c.3 0 .7.1 1.1.1h243.7c1.8 2.3 4.7 3.8 7.9 3.8h40c5.5 0 10-4.5 10-10v-144c-.1-5.5-4.6-10-10.1-10zm-50 140.2H214c-107 0-194-87-194-194s87-194 194-194 194 87 194 194c0 18.7-2.6 37.1-7.8 54.8-.3 1-.4 1.9-.4 2.9H372c-5.5 0-10 4.5-10 10s4.5 10 10 10h80v116.3zm40 3.8h-20v-124h20v124z"/><path class="st0" d="M309.7 199.8c-.1-.2-.2-.5-.4-.7-.2-.3-.3-.6-.5-.8-19.2-32.4-54.5-54.2-94.7-54.2-60.7 0-110 49.3-110 110s49.3 110 110 110c40.4 0 75.8-21.9 94.9-54.4.1-.2.3-.4.4-.6.1-.2.3-.5.4-.7 9.1-16 14.3-34.5 14.3-54.3s-5.3-38.3-14.4-54.3zM224 164.6c25.5 2.8 47.9 16.4 62.4 36.1l-49.3 28.5c-3.7-3.4-8.2-6.1-13.1-7.6v-57zm-20 0v56.9c-4.9 1.5-9.4 4.2-13.1 7.6l-49.3-28.5c14.5-19.6 36.9-33.1 62.4-36zm-72.5 125.5c-4.8-11-7.5-23.2-7.5-36.1 0-12.8 2.7-25 7.5-36.1l49.3 28.5c-.6 2.4-.9 5-.9 7.6s.3 5.1.9 7.6l-49.3 28.5zm72.5 53.4c-25.5-2.8-47.9-16.4-62.4-36.1l49.3-28.5c3.7 3.4 8.2 6.1 13.1 7.6v57zm10-75.4c-7.7 0-14-6.3-14-14s6.3-14 14-14 14 6.3 14 14-6.3 14-14 14zm10 75.4v-56.9c4.9-1.5 9.4-4.2 13.1-7.6l49.3 28.5c-14.5 19.6-36.9 33.2-62.4 36zm72.5-53.4l-49.3-28.5c.6-2.4.9-5 .9-7.6s-.3-5.1-.9-7.6l49.3-28.5c4.9 11 7.5 23.2 7.5 36.1 0 12.9-2.7 25.1-7.5 36.1zM187.1 405.7c-51.5-9-94.4-43.2-114.9-91.5-2.2-5.1-8-7.5-13.1-5.3s-7.5 8-5.3 13.1c11.2 26.4 29 49.8 51.4 67.8 22.7 18.2 49.8 30.5 78.4 35.5.6.1 1.2.2 1.7.2 4.8 0 9-3.4 9.8-8.3 1.1-5.4-2.5-10.5-8-11.5zM63 284.3l-.2-.9c-1.1-5.4-6.3-9-11.7-7.9-5.4 1.1-9 6.3-7.9 11.7l.2.9c.9 4.8 5.1 8.1 9.8 8.1.6 0 1.3-.1 2-.2 5.4-1 8.9-6.3 7.8-11.7zm281.1 30.4c-1.9-1.9-4.4-2.9-7.1-2.9s-5.2 1.1-7.1 2.9c-1.9 1.9-2.9 4.4-2.9 7.1s1.1 5.2 2.9 7.1c1.9 1.9 4.4 2.9 7.1 2.9s5.2-1.1 7.1-2.9c1.9-1.9 2.9-4.4 2.9-7.1s-1.1-5.3-2.9-7.1z"/></svg>