<svg width="46" height="67" viewBox="0 0 46 67" fill="none" xmlns="http://www.w3.org/2000/svg">
<path d="M46 60.3836C46 62.8375 43.2143 64.2534 41.2319 62.8072L24.7673 50.7957C23.7138 50.0272 22.2845 50.0272 21.2311 50.7957L4.76809 62.806C2.78567 64.2522 0 62.8363 0 60.3824V-13C0 -14.6569 1.34315 -16 3 -16H43C44.6569 -16 46 -14.6569 46 -13V60.3836Z" fill="#FFD71C"/>
<path d="M6.5454 38.2989H4.73438V29.811H8.70554C9.60015 29.811 10.2984 30.0729 10.8002 30.5965C11.3021 31.1202 11.5639 31.7748 11.5639 32.5385C11.5639 33.3022 11.3021 33.9568 10.8002 34.4804C10.2984 35.0041 9.60015 35.2659 8.72736 35.2659H6.56722V38.277L6.5454 38.2989ZM8.46553 33.6949C8.83646 33.6949 9.12012 33.5858 9.36013 33.3895C9.60015 33.1713 9.70924 32.9094 9.70924 32.5603C9.70924 32.2112 9.60015 31.9275 9.36013 31.7312C9.12012 31.513 8.83646 31.4257 8.46553 31.4257H6.5454V33.7167H8.46553V33.6949Z" fill="black"/>
<path d="M16.6693 38.4507C15.3819 38.4507 14.3346 38.0361 13.5054 37.207C12.6763 36.3778 12.2617 35.3305 12.2617 34.0649C12.2617 32.7994 12.6763 31.7521 13.5054 30.9229C14.3346 30.0938 15.4037 29.6792 16.6693 29.6792C17.9348 29.6792 19.0258 30.0938 19.8549 30.9011C20.6841 31.7302 21.0987 32.7776 21.0987 34.0431C21.0987 35.3087 20.6841 36.3778 19.8549 37.1851C19.0258 37.9925 17.9566 38.407 16.6693 38.407V38.4507ZM14.8146 36.0723C15.2946 36.596 15.9056 36.8578 16.6693 36.8578C17.433 36.8578 18.0657 36.596 18.5458 36.0723C19.0258 35.5487 19.2658 34.8723 19.2658 34.0868C19.2658 33.3013 19.0258 32.6248 18.5458 32.1012C18.0657 31.5775 17.4548 31.3157 16.6693 31.3157C15.8838 31.3157 15.2728 31.5775 14.8146 32.1012C14.3346 32.6248 14.1164 33.3013 14.1164 34.0868C14.1164 34.8723 14.3564 35.5487 14.8146 36.0723Z" fill="black"/>
<path d="M29.6331 38.2989H27.4075L24.8328 34.9168L24.1782 35.7023V38.2989H22.3672V29.811H24.1782V33.5858L27.1675 29.811H29.3931L26.0329 33.7822L29.6331 38.277V38.2989Z" fill="black"/>
<path d="M32.272 38.2989H30.4609V29.811H32.272V38.277V38.2989Z" fill="black"/>
<path d="M38.5336 38.2989H33.9297V29.811H38.3809C39.1446 29.811 39.7555 30.0292 40.1701 30.4438C40.6065 30.8584 40.8029 31.382 40.8029 31.9712C40.8029 32.4948 40.6719 32.9094 40.3883 33.2585C40.1046 33.6076 39.7555 33.8258 39.3409 33.9131C39.7992 33.9786 40.1919 34.2186 40.4974 34.6113C40.8029 35.0041 40.9774 35.4623 40.9774 35.986C40.9774 36.6406 40.7592 37.1861 40.3228 37.6225C39.8864 38.0588 39.2755 38.277 38.5118 38.277L38.5336 38.2989ZM38.01 33.2149C38.3154 33.2149 38.5554 33.1276 38.73 32.9531C38.9046 32.7785 38.9918 32.5603 38.9918 32.2985C38.9918 32.0366 38.9046 31.7966 38.7082 31.6221C38.5336 31.4475 38.2936 31.3602 37.9881 31.3602H35.7189V33.1931H37.9881L38.01 33.2149ZM38.0754 36.7278C38.4027 36.7278 38.6864 36.6406 38.8827 36.466C39.0791 36.2915 39.1664 36.0514 39.1664 35.746C39.1664 35.4623 39.0791 35.2223 38.8827 35.0477C38.6864 34.8514 38.4245 34.7641 38.0754 34.7641H35.7407V36.7278H38.0754Z" fill="black"/>
<path d="M5.93445 47.4207H4.73438V41.7476H8.74918V42.8167H5.93445V47.4425V47.4207Z" fill="black"/>
<path d="M14.36 47.4207H12.9854L12.6363 46.4606H10.1925L9.84339 47.4207H8.46875L10.6725 41.7476H12.1781L14.36 47.4207ZM12.2872 45.3914L11.3926 42.9476L10.498 45.3914H12.2654H12.2872Z" fill="black"/>
<path d="M16.079 47.4207H14.8789V41.7476H17.5409C18.13 41.7476 18.6101 41.9221 18.9373 42.2712C19.2865 42.6203 19.4392 43.0567 19.4392 43.5804C19.4392 44.1041 19.2646 44.5405 18.9373 44.8896C18.5882 45.2387 18.13 45.4133 17.5409 45.4133H16.1008V47.4425L16.079 47.4207ZM17.3663 44.3441C17.6064 44.3441 17.8027 44.2786 17.9773 44.1259C18.13 43.995 18.2173 43.7986 18.2173 43.5586C18.2173 43.3186 18.13 43.144 17.9773 42.9913C17.8246 42.8604 17.6282 42.7731 17.3663 42.7731H16.079V44.3005H17.3663V44.3441Z" fill="black"/>
<path d="M24.8757 47.4207H23.501L23.1519 46.4606H20.7081L20.359 47.4207H18.9844L21.1882 41.7476H22.6937L24.8757 47.4207ZM22.8028 45.3914L21.9082 42.9476L21.0136 45.3914H22.781H22.8028Z" fill="black"/>
<path d="M30.5003 47.4207H29.2784V45.0423H26.5946V47.4207H25.3945V41.7476H26.5946V43.9732H29.2784V41.7476H30.5003V47.4207Z" fill="black"/>
<path d="M34.1458 47.4181H32.9239V42.7923H31.2656V41.7231H35.8041V42.7923H34.1458V47.4181Z" fill="black"/>
<path d="M37.7899 47.4207H36.5898V41.7476H37.7899V47.4207Z" fill="black"/>
<path d="M39.035 40.3718C39.1441 40.4809 39.2095 40.6118 39.2095 40.7864C39.2095 40.961 39.1441 41.0919 39.035 41.201C38.9259 41.3101 38.7949 41.3755 38.6204 41.3755C38.4458 41.3755 38.3149 41.3101 38.2058 41.201C38.0967 41.0919 38.0312 40.961 38.0312 40.7864C38.0312 40.6118 38.0967 40.5027 38.2058 40.3718C38.3149 40.2627 38.4458 40.1973 38.6204 40.1973C38.7949 40.1973 38.904 40.2627 39.035 40.3718ZM40.1259 47.3977H38.9259V41.7246H40.1259V47.3977ZM40.8242 40.3718C40.9333 40.4809 40.9987 40.6118 40.9987 40.7864C40.9987 40.961 40.9333 41.0919 40.8242 41.201C40.7151 41.3101 40.5841 41.3755 40.4096 41.3755C40.235 41.3755 40.1041 41.3101 39.995 41.201C39.8859 41.0919 39.8205 40.961 39.8205 40.7864C39.8205 40.6118 39.8859 40.5027 39.995 40.3718C40.1041 40.2627 40.235 40.1973 40.4096 40.1973C40.5841 40.1973 40.7151 40.2627 40.8242 40.3718Z" fill="black"/>
<g filter="url(#filter0_d_721_701)">
<path d="M29.7374 11.1816H25.8584C26.0492 9.24097 26.7805 7.72556 28.0523 6.63534C29.324 5.54511 30.8926 5 32.7578 5C34.7927 5 36.4036 5.54511 37.5906 6.63534C38.7988 7.72556 39.4029 9.18646 39.4029 11.018C39.4029 13.1331 38.5868 14.6594 36.9547 15.597C39.1167 16.5128 40.1977 18.2462 40.1977 20.7973C40.1977 22.9778 39.477 24.6894 38.0357 25.9323C36.6156 27.1752 34.8139 27.7966 32.6307 27.7966C30.5534 27.7966 28.8047 27.1861 27.3846 25.965C25.9644 24.7221 25.1696 23.0759 25 21.0263H29.1333C29.2604 21.9639 29.6314 22.7161 30.2461 23.2831C30.8608 23.85 31.6662 24.1334 32.6624 24.1334C33.7647 24.1334 34.6019 23.7955 35.1742 23.1195C35.7677 22.4218 36.0644 21.6041 36.0644 20.6665C36.0644 19.7507 35.7677 18.9549 35.1742 18.2789C34.6019 17.603 33.7223 17.265 32.5353 17.265H31.9948V14.1906H32.5671C33.5209 14.1906 34.2416 13.9071 34.7291 13.3402C35.2166 12.7515 35.4604 12.0428 35.4604 11.2143C35.4604 10.3421 35.206 9.64435 34.6973 9.12104C34.1886 8.59774 33.5103 8.33608 32.6624 8.33608C31.8782 8.33608 31.1999 8.58684 30.6276 9.08834C30.0765 9.58984 29.7798 10.2876 29.7374 11.1816Z" fill="white"/>
</g>
<path d="M4.94531 28.0691V25.9262C5.18609 25.9021 5.35464 25.8299 5.47503 25.7336C5.59542 25.6372 5.71581 25.4687 5.8362 25.1798C5.95659 24.8908 6.02882 24.5056 6.10105 23.9999L6.46222 20.918H10.7722V25.8299H11.326V28.0691H10.0498V26.9615H6.22144V28.0691H4.94531ZM7.37718 24.0963C7.28087 24.8668 7.04009 25.4446 6.63077 25.8299H9.44789V22.0496H7.61796L7.37718 24.0963Z" fill="black"/>
<path d="M14.9159 27.0576C14.001 27.0576 13.2546 26.7687 12.6526 26.1667C12.0507 25.5889 11.7617 24.8184 11.7617 23.9275C11.7617 23.0366 12.0507 22.2661 12.6526 21.6882C13.2546 21.1104 14.001 20.7974 14.9159 20.7974C15.8309 20.7974 16.6014 21.0863 17.1793 21.6882C17.7812 22.2661 18.0701 23.0125 18.0701 23.9275C18.0701 24.8425 17.7812 25.5889 17.1793 26.1667C16.5773 26.7446 15.8309 27.0576 14.9159 27.0576ZM13.5916 25.3481C13.9287 25.7333 14.3621 25.9019 14.9159 25.9019C15.4697 25.9019 15.9031 25.7093 16.2402 25.3481C16.5773 24.9869 16.7459 24.5054 16.7459 23.9275C16.7459 23.3496 16.5773 22.8681 16.2402 22.5069C15.9031 22.1457 15.4456 21.9531 14.9159 21.9531C14.3862 21.9531 13.9287 22.1457 13.5916 22.5069C13.2546 22.8921 13.086 23.3496 13.086 23.9275C13.086 24.5054 13.2546 24.9869 13.5916 25.3481Z" fill="black"/>
<defs>
<filter id="filter0_d_721_701" x="25" y="5" width="17.1992" height="24.7964" filterUnits="userSpaceOnUse" color-interpolation-filters="sRGB">
<feFlood flood-opacity="0" result="BackgroundImageFix"/>
<feColorMatrix in="SourceAlpha" type="matrix" values="0 0 0 0 0 0 0 0 0 0 0 0 0 0 0 0 0 0 127 0" result="hardAlpha"/>
<feOffset dx="1" dy="1"/>
<feGaussianBlur stdDeviation="0.5"/>
<feComposite in2="hardAlpha" operator="out"/>
<feColorMatrix type="matrix" values="0 0 0 0 0 0 0 0 0 0 0 0 0 0 0 0 0 0 0.25 0"/>
<feBlend mode="normal" in2="BackgroundImageFix" result="effect1_dropShadow_721_701"/>
<feBlend mode="normal" in="SourceGraphic" in2="effect1_dropShadow_721_701" result="shape"/>
</filter>
</defs>
</svg>
