<svg xmlns="http://www.w3.org/2000/svg" viewBox="0 0 30.7 31.2"><defs><style>.cls-1{fill:#ffd71c;}</style></defs><g id="Layer_2" data-name="Layer 2"><g id="Слой_1" data-name="Слой 1"><circle class="cls-1" cx="11" cy="11" r="11"/><path d="M30.67,25.93c-.09-.29-.14-.23-.36-.42-.51-.44-.52-.09-.52-.86s-.07-.69.45-1.24a.87.87,0,0,0,.26-.89c-.21-1.23-.88-1.46-1.77-1.15a4.4,4.4,0,0,1-.89-.82c-.22-.37,0-.78-.17-1.09-.22-.52-.7-.66-1.24-.81a1.28,1.28,0,0,0-1.32.27L20,13.19c.52-.39.59-1,.34-1.81-.2-.65-.33-.85-1-.88s-.44.08-.84-.28a4.68,4.68,0,0,1-.72-1c-.2-.43-.06-.34,0-.76s.18-.28.12-.59S17,6.94,16.6,6.78a1.4,1.4,0,0,0-1.72.66,3.46,3.46,0,0,1-1.62-.37c-.31-.24-.25-.66-.59-.9-.5-.34-1.45,0-1.95.19a1.49,1.49,0,0,0-1,1c0,.1,0,.23,0,.33-.08.72,0,.43-.4.78-.21.19-.44.36-.67.54a1.4,1.4,0,0,0-2,.28,3.33,3.33,0,0,0-.8,1.49c0,.56.45.56.69,1s0,.82-.06,1.26c0,.2,0,.39-.07.58h0c-.28.22-.62.23-.88.51a1.93,1.93,0,0,0,.35,2.41c.38.22.84-.13,1.2.06a4.56,4.56,0,0,1,.51.8c.19.25.6.58.61.93s-.44.57-.31,1,.89.85,1.29,1c.25.1.54.09.78.19a6.94,6.94,0,0,1,1.2.83L13.56,23c1.56,1.09,3.26,2.09,4.74,3.3-.36.31-.43.66-.18,1.27.42,1,.83,1.13,1.65.81a5.22,5.22,0,0,1,.9.85c.28.43,0,.54.12,1,.13.71.91.8,1.5,1h.14a1.86,1.86,0,0,0,1.21-.66c.06-.05.16-.27.12-.25a2.26,2.26,0,0,1,.86,0c.56.13.47.56.94.75s1.47-.37,1.88-.63c.66-.43.66-.88.39-1.52l.76-.83a1.32,1.32,0,0,0,1.62-.59A2.6,2.6,0,0,0,30.67,25.93ZM29,27.35a.78.78,0,0,0-.69.28L27.05,29c-.07.07-.17.18-.12.28.49,1.07-.71,1.29-1.12.41a.14.14,0,0,0-.12-.06,5.63,5.63,0,0,0-2.09.13s-.74.63-.68.77c-.44-.14-1.16-.33-1.25-.79,0-.22.21-.47.16-.71-.12-.47-1-1-1.33-1.32-.11-.11-.3,0-.42,0-.76.35-1.63-1.14-1.1-1.44.12-.07.46-.33.28-.48-1.76-1.48-3.85-2.69-5.74-4a18.41,18.41,0,0,0-2.8-1.94c-.94-.41-2.49-.53-1.6-2,0,0,.1-.15.05-.2-.48-.56-1-1.7-1.69-1.85s-1,.12-1.19-.74,0-.83.55-1.18.55-1.33.67-2,0-.43-.21-.91c-.17-.3-.56-1.17-.11-1.5s.55,0,.91.19c.19.12.56-.17.69-.28.57-.53,1.42-.84,1.89-1.48.08-.11,0-.26,0-.36.14-.84.57-1.08,1.31-.72a2.09,2.09,0,0,1,.24.78c0,.08,0,.1.13.11l2.29.36a.89.89,0,0,0,.69-.38c.29-.47.55-.33,1-.08.7.45.82.77.35,1.54,0,0-.1.15,0,.2.49.51.83,1.45,1.4,1.84.38.26.65-.38,1.25.06.14.11.62,1.56.24,1.67-.1,0-.71.36-.54.55,1.88,2.1,3.76,4.21,5.65,6.31.2.24.76-.2.84-.4s.93,0,1,.13a1.09,1.09,0,0,1,.17.87,1.57,1.57,0,0,0-.05.3c.27.49,1,.9,1.39,1.27.11.11.29,0,.41,0,.94-.43,1.31,1,.94,1.51s-.43.23-.49.75a4.44,4.44,0,0,0,.09,1.6c.12.2.46.13.6.28C30,26.6,29.69,27.6,29,27.35Z"/><path d="M18.2,11.59c-.31.08-.65.24-.89,0s-.28-.53-.44-.76-.39-.45-.59-.68-.1-.63.11-1c.05-.07.1-.17,0-.24l-.67-.41c-.22-.13-.66.2-.76.36s-.14.26-.21.37a.48.48,0,0,0-.17-.11,3,3,0,0,0-.88-.19c-.26,0-.64.05-.87-.07s-.3-.54-.36-.79-.11-.13-.22-.1l-.77.18c-.16,0-.72.27-.66.52s.22.6.1.78-.55.32-.73.45-.41.44-.61.51-.45-.16-.65-.28-.66.19-.76.36l-.42.68c0,.08-.1.18,0,.24s.54.26.63.5-.08.56-.14.8a4.6,4.6,0,0,0-.12.84c0,.12,0,.25,0,.38.16.06.16.09,0,.1l-.29.07c-.16,0-.72.27-.66.52l.18.77,0,0,0,0h0l.09,0h.07a.53.53,0,0,0,.16,0c.25-.07.52-.14.71.07a6.66,6.66,0,0,1,.46.78,4.85,4.85,0,0,0,.55.65c.34.37.16.62-.08,1-.05.07-.1.17,0,.23l.68.42c.21.13.66-.19.76-.36a2.22,2.22,0,0,1,.25-.42c-.18.08.17.17.23.19a5,5,0,0,0,.87.17c.23,0,.63-.06.83.08s.26.58.32.83c0,.06.17.05.2,0l.77-.18c.17,0,.72-.27.67-.52s-.23-.6-.11-.78.57-.33.75-.46.4-.42.59-.49.45.15.66.27.65-.19.75-.36l.42-.68c.05-.08.1-.18,0-.24s-.58-.28-.64-.57.12-.57.17-.81a4.92,4.92,0,0,0,.11-.77v-.19c.06-.13,0-.2-.06-.22s-.08,0,0-.06l.29-.07c.17,0,.73-.27.67-.52l-.19-.77C18.39,11.59,18.3,11.57,18.2,11.59Zm-1.41,2.16c0,.56-.22,1.06-.29,1.6a.66.66,0,0,0,.33.66.75.75,0,0,0-.36,0,3.57,3.57,0,0,0-1.12.81,7.94,7.94,0,0,0-1.17.78A.75.75,0,0,0,14,18a.6.6,0,0,0-.37-.36,2.42,2.42,0,0,0-.66-.05,4.29,4.29,0,0,1-1-.18,1.33,1.33,0,0,0-1.49.41l-.23-.14a1.24,1.24,0,0,0,.3-.86c-.08-.37-.57-.72-.79-1s-.33-.76-.64-.94a1.18,1.18,0,0,0-.92,0l-.08-.31a1.53,1.53,0,0,0,.45-.25,1.13,1.13,0,0,0,.42-1,4.71,4.71,0,0,1,.11-.84,3.93,3.93,0,0,0,.19-.75A.67.67,0,0,0,9,11.07a.8.8,0,0,0,.34,0c.48-.13.75-.52,1.12-.81a7.94,7.94,0,0,0,1.17-.78.77.77,0,0,0,.18-.33.69.69,0,0,0,.29.32,1.32,1.32,0,0,0,.55.08,4,4,0,0,1,1,.13,1.55,1.55,0,0,0,1.12.07,1.55,1.55,0,0,0,.55-.42l.21.13a1.3,1.3,0,0,0-.3.82c.06.4.58.75.8,1.07s.33.77.64.95a1.22,1.22,0,0,0,.92,0l.08.33A1.2,1.2,0,0,0,16.79,13.75Z"/><path d="M28.36,25.56c-.15-.19,0-.51,0-.73a3.29,3.29,0,0,0,0-.77c0-.1-.1-.33-.07-.43l0,0,.28-.13c.13-.06.53-.3.43-.5s-.16-.36-.25-.53-.34,0-.41,0-.31.18-.46.13-.19-.21-.25-.29a3.79,3.79,0,0,0-.53-.53,5.6,5.6,0,0,0-.49-.36c-.3-.24-.12-.54,0-.84,0-.05,0-.14,0-.16l-.55-.2a.8.8,0,0,0-.8.44,1.68,1.68,0,0,0-.1.25H25a3.3,3.3,0,0,0-.77,0c-.2,0-.58.16-.76.09s-.31-.44-.4-.62-.34,0-.42,0l-.53.25c-.13.06-.53.29-.43.5s.29.49.17.68-.4.33-.55.49a3.89,3.89,0,0,0-.41.5l0,0a3.45,3.45,0,0,0-.37-.13.83.83,0,0,0-.8.44c-.07.19-.13.37-.2.55s0,.14,0,.17.52.13.63.32,0,.56,0,.78a5,5,0,0,0,.06.77c0,.09.09.25.06.34l0,0-.28.13c-.12.06-.52.3-.43.5s.16.36.25.54.34,0,.41,0,.32-.18.46-.12.19.21.26.29a3.72,3.72,0,0,0,.52.53c.15.13.33.23.49.35s.12.54,0,.84c0,.05,0,.13,0,.16l.55.2a.8.8,0,0,0,.8-.44c0-.05.07-.16.1-.25h0a2.42,2.42,0,0,0,.76,0,2.8,2.8,0,0,1,.75-.09c.26.05.35.4.45.61s.34,0,.42,0l.41-.19a1.29,1.29,0,0,0,.39-.23l.09-.08h0a.31.31,0,0,0,0-.1.08.08,0,0,0,0,0s0,0,0,0,0,0,0,0v0c-.07-.16-.29-.47-.22-.64s.44-.37.55-.48a4.79,4.79,0,0,0,.46-.55l0,0A2.64,2.64,0,0,0,28,27a.81.81,0,0,0,.8-.44L29,26c0-.06,0-.14-.05-.16S28.48,25.73,28.36,25.56Zm-1.64,1.66c-.26.32-.68.53-.89.88,0,0,0,0,0,.06a1.06,1.06,0,0,0-.19-.06,2.47,2.47,0,0,0-.6.08,4,4,0,0,1-.91,0,1.35,1.35,0,0,0-1,.2,1.45,1.45,0,0,0-.23.19.79.79,0,0,0,0-.67,1.44,1.44,0,0,0-.39-.31,3.75,3.75,0,0,1-.53-.44c-.21-.22-.39-.59-.7-.67a1.09,1.09,0,0,0-.72.13l-.07-.16A1.5,1.5,0,0,0,21,26.1c.25-.32.11-.65.06-1a4.1,4.1,0,0,1,0-.61,3.24,3.24,0,0,0,.05-.62.57.57,0,0,0-.33-.41.29.29,0,0,0,.1,0,2.16,2.16,0,0,0,.87-.85c.26-.34.67-.55.91-.89a.29.29,0,0,0,0-.13.56.56,0,0,0,.18.07,1.93,1.93,0,0,0,.53-.07,3.76,3.76,0,0,1,.82,0,1.61,1.61,0,0,0,1.1-.15,1.55,1.55,0,0,0,.27-.23.78.78,0,0,0,0,.68,1.44,1.44,0,0,0,.39.31,4.65,4.65,0,0,1,.53.45c.22.22.39.58.7.66a1.1,1.1,0,0,0,.72-.13l.07.16a1.48,1.48,0,0,0-.43.36c-.26.33-.1.7-.06,1.08a4.09,4.09,0,0,1,0,.7,1.23,1.23,0,0,0,0,.54.52.52,0,0,0,.3.33l-.1,0C27.2,26.49,27,26.86,26.72,27.22Z"/><path d="M13.66,11.56a2.38,2.38,0,0,0-2.62.75,2.14,2.14,0,0,0,2.07,3.5,2.36,2.36,0,0,0,2-2.22A2.14,2.14,0,0,0,13.66,11.56Zm.4,2.54-.09.23a.87.87,0,0,1-.11.17.36.36,0,0,1-.07.1h0a1.14,1.14,0,0,1-.17.15h0l-.12.08-.09,0-.07,0a1.38,1.38,0,0,1-.78,0,1.84,1.84,0,0,1-.37-.17,1.72,1.72,0,0,1-.34-.3,1.42,1.42,0,0,1-.34-.83,1.47,1.47,0,0,1,0-.41.77.77,0,0,1,.05-.17.5.5,0,0,1,0-.13v0s0,0,0,0a2.43,2.43,0,0,1,.14-.2v0h0l.08-.09.09-.07h0l.07-.05.12-.06.2-.07h0l.09,0a1.13,1.13,0,0,1,.45,0,1.42,1.42,0,0,1,.81.49,1.54,1.54,0,0,1,.33.89A1.61,1.61,0,0,1,14.06,14.1Z"/><path d="M25,23.22a2,2,0,0,0-2.13.62,1.71,1.71,0,0,0,1.65,2.79,1.93,1.93,0,0,0,1.59-1.79A1.72,1.72,0,0,0,25,23.22ZM24,24Zm1.13,1.14s0,.06,0,.09v0l-.07.16h0l-.06.09a.43.43,0,0,0,0,.07h0l-.1.1h0l-.09,0,0,0H24.6l-.08,0h0l-.18,0h-.1l-.09,0-.07,0-.13-.05-.09,0h0l-.13-.11-.07-.06-.05-.06a2.61,2.61,0,0,1-.17-.28h0l0-.1,0-.19h0v-.09a1.11,1.11,0,0,1,0-.19h0v0a.14.14,0,0,0,0-.07.3.3,0,0,0,0-.1h0l.1-.14.07-.06s0,0,.06-.05l0,0,.06,0h0S23.9,24,24,24h.38l.07,0,.06,0,.08,0,.07,0a1.94,1.94,0,0,1,.26.23l0,0,.06.09.09.17v0l0,.12s0,0,0,.08,0,0,0,.07h0A1.15,1.15,0,0,1,25.1,25.12Z"/></g></g></svg>