<svg xmlns="http://www.w3.org/2000/svg" viewBox="0 0 20.38 20.38"><defs><style>.cls-1{fill:#7f96a3;}</style></defs><g id="Layer_2" data-name="Layer 2"><g id="Слой_1" data-name="Слой 1"><path class="cls-1" d="M20.32,16.65l-.09-.76c-.17-1.49-.34-3-.51-4.52l0-.12c-.18-1.66-.34-3-.48-4.33l0-.25a8.13,8.13,0,0,0-.61-2.73A6.49,6.49,0,0,0,13.23,0l-.1,0-.07,0h-1l-.36.06h0A6.45,6.45,0,0,0,6.94,3.29C5.34,6,3.71,8.79,2.14,11.48l-.1.16L.94,13.52l-.08.15h0a6.53,6.53,0,0,0-.67,1.38,4.13,4.13,0,0,0,3.47,5.3c.2,0,.41,0,.61,0H17.33a2.92,2.92,0,0,0,3-2.51.29.29,0,0,0,0-.09v-.65ZM12.6,1.07h0a5.42,5.42,0,0,1,3.88,1.62,5.54,5.54,0,0,1,0,7.8,5.46,5.46,0,0,1-3.87,1.62h0a3,3,0,0,1-.42,0l-.25,0a5.68,5.68,0,0,1-.84-.17l-.19-.06a4.83,4.83,0,0,1-.81-.35l-.16-.08a5.43,5.43,0,0,1-.7-.48L9,10.75a4.15,4.15,0,0,1-.32-.27,4,4,0,0,1-.26-.32L8.31,10a4.59,4.59,0,0,1-.47-.71L7.75,9.1a4.69,4.69,0,0,1-.34-.8l-.06-.21a5.68,5.68,0,0,1-.17-.82,2.64,2.64,0,0,1,0-.28c0-.14,0-.27,0-.41A5.5,5.5,0,0,1,12.6,1.07ZM4.14,19.32a3.08,3.08,0,1,1,3.08-3.07A3.08,3.08,0,0,1,4.14,19.32Zm11-3.72a2.94,2.94,0,0,0-.09,3.6l.08.11H7l.1-.11a4,4,0,0,0,.63-5,3.85,3.85,0,0,0-3.54-2.06,6.05,6.05,0,0,0-1.09.1l-.15,0L3,12.12,6,7l0,.19c.53,3.21,2.3,5.18,5.27,5.86a6.47,6.47,0,0,0,7-3.27l.11-.19,0,.21c.1.89.2,1.78.3,2.65L19.06,15l-.12-.06a3,3,0,0,0-2.31-.28A2.91,2.91,0,0,0,15.17,15.6Zm3.59,3.18a1.85,1.85,0,0,1-1.32.54h0a1.87,1.87,0,0,1,0-3.74h0a1.87,1.87,0,0,1,1.85,1.88A1.83,1.83,0,0,1,18.76,18.78Z"/><path class="cls-1" d="M9,7.12h.63l.5,1.19,0,0,0,0L10,8.45c-.08.07-.19.16-.29.26a.64.64,0,0,0-.2.45.49.49,0,0,0,.15.35.54.54,0,0,0,.36.16h0a.62.62,0,0,0,.44-.2l.26-.3.07-.09L10.86,9h0l.64.26.51.22h.05v.6a.53.53,0,0,0,.52.6h0a.48.48,0,0,0,.36-.14.66.66,0,0,0,.17-.46v-.6h0l.74-.31L14.32,9l0,0,.05,0,.06.07.27.28a.54.54,0,0,0,.79,0,.51.51,0,0,0,.16-.38.66.66,0,0,0-.2-.41,3.71,3.71,0,0,0-.29-.27l-.07-.07L15,8.31h0l.48-1.18h.64a.55.55,0,0,0,.57-.54.55.55,0,0,0-.58-.53h-.62L15,4.86l.07-.07.07,0,0,0,.25-.23A.71.71,0,0,0,15.68,4a.5.5,0,0,0-.16-.35.54.54,0,0,0-.81.06L14.45,4l0,0-.06.07,0,0h0L14,4l-.63-.26-.23-.09v-.6a.54.54,0,0,0-.53-.6h0a.51.51,0,0,0-.36.14.64.64,0,0,0-.17.46v.6h0l-1.17.49,0,0L10.74,4l-.27-.28a.54.54,0,0,0-.8,0A.49.49,0,0,0,9.52,4a.6.6,0,0,0,.19.43l.29.27h0l.06,0,0,0,0,0h0l-.22.53L9.68,6l0,0H9A.54.54,0,1,0,9,7.12Zm2.25-1.86a1.86,1.86,0,0,1,1.32-.55h0a1.87,1.87,0,0,1,1.31,3.2,1.9,1.9,0,0,1-1.33.55h0a1.89,1.89,0,0,1-1.87-1.88A1.83,1.83,0,0,1,11.28,5.26Z"/><path class="cls-1" d="M4.15,14.51h0a1.74,1.74,0,0,0-1.73,1.74A1.73,1.73,0,0,0,4.13,18h0a1.74,1.74,0,0,0,1.73-1.74A1.73,1.73,0,0,0,4.15,14.51Zm.45,2.22a.71.71,0,0,1-.46.19h0a.67.67,0,0,1,0-1.33h0a.67.67,0,0,1,.66.67A.68.68,0,0,1,4.6,16.73Z"/><path class="cls-1" d="M17.46,16.92h0a.51.51,0,0,0-.37.15.55.55,0,0,0-.16.38.54.54,0,0,0,.52.53.55.55,0,0,0,.54-.53A.54.54,0,0,0,17.46,16.92Z"/><path class="cls-1" d="M12.6,7.12a.55.55,0,0,0,.53-.53A.53.53,0,0,0,13,6.21a.54.54,0,0,0-.37-.16h0a.54.54,0,0,0,0,1.07Z"/></g></g></svg>