<svg width="1140" height="372" viewBox="0 0 1140 372" fill="none" xmlns="http://www.w3.org/2000/svg">
<rect width="1140" height="372" fill="url(#paint0_linear_2066_161)" fill-opacity="0.1"/>
<circle opacity="0.1" cx="126.195" cy="136" r="31.5" fill="url(#paint1_linear_2066_161)" stroke="url(#paint2_linear_2066_161)"/>
<circle opacity="0.05" cx="720" cy="252" r="9.5" fill="url(#paint3_linear_2066_161)" stroke="url(#paint4_linear_2066_161)"/>
<circle opacity="0.23" cx="740" cy="162" r="10" fill="#0A0909"/>
<ellipse opacity="0.1" cx="299.105" cy="211" rx="11.7765" ry="10" fill="url(#paint5_linear_2066_161)"/>
<ellipse opacity="0.1" cx="939.743" cy="89" rx="17.6647" ry="15" fill="url(#paint6_linear_2066_161)"/>
<path opacity="0.1" d="M921.579 262C921.579 269.935 913.974 276.5 904.415 276.5C894.855 276.5 887.25 269.935 887.25 262C887.25 254.065 894.855 247.5 904.415 247.5C913.974 247.5 921.579 254.065 921.579 262Z" stroke="url(#paint7_linear_2066_161)"/>
<defs>
<linearGradient id="paint0_linear_2066_161" x1="0" y1="186" x2="1140" y2="186" gradientUnits="userSpaceOnUse">
<stop stop-color="#E018FF"/>
<stop offset="1" stop-color="#823FFF"/>
</linearGradient>
<linearGradient id="paint1_linear_2066_161" x1="94.1953" y1="136" x2="158.195" y2="136" gradientUnits="userSpaceOnUse">
<stop stop-color="#E018FF"/>
<stop offset="1" stop-color="#823FFF"/>
</linearGradient>
<linearGradient id="paint2_linear_2066_161" x1="94.1953" y1="136" x2="158.195" y2="136" gradientUnits="userSpaceOnUse">
<stop stop-color="#E018FF"/>
<stop offset="1" stop-color="#823FFF"/>
</linearGradient>
<linearGradient id="paint3_linear_2066_161" x1="710" y1="252" x2="730" y2="252" gradientUnits="userSpaceOnUse">
<stop stop-color="#E018FF"/>
<stop offset="1" stop-color="#823FFF"/>
</linearGradient>
<linearGradient id="paint4_linear_2066_161" x1="710" y1="252" x2="730" y2="252" gradientUnits="userSpaceOnUse">
<stop stop-color="#E018FF"/>
<stop offset="1" stop-color="#823FFF"/>
</linearGradient>
<linearGradient id="paint5_linear_2066_161" x1="287.328" y1="211" x2="310.881" y2="211" gradientUnits="userSpaceOnUse">
<stop stop-color="#E018FF"/>
<stop offset="1" stop-color="#823FFF"/>
</linearGradient>
<linearGradient id="paint6_linear_2066_161" x1="922.078" y1="89" x2="957.408" y2="89" gradientUnits="userSpaceOnUse">
<stop stop-color="#E018FF"/>
<stop offset="1" stop-color="#823FFF"/>
</linearGradient>
<linearGradient id="paint7_linear_2066_161" x1="886.75" y1="262" x2="922.079" y2="262" gradientUnits="userSpaceOnUse">
<stop stop-color="#E018FF"/>
<stop offset="1" stop-color="#823FFF"/>
</linearGradient>
</defs>
</svg>
