<svg width="234" height="64" viewBox="0 0 234 64" fill="none" xmlns="http://www.w3.org/2000/svg">
<path d="M92.7904 14.4C96.4704 14.4 99.1104 15.232 100.71 16.896C102.31 18.56 103.11 21.024 103.11 24.288V27.024C103.11 29.776 102.55 31.952 101.43 33.552C100.31 35.152 98.4864 36.176 95.9584 36.624L104.166 46.8C104.326 46.96 104.374 47.2 104.31 47.52C104.246 47.84 103.99 48 103.542 48H97.3504C96.9344 48 96.6464 47.952 96.4864 47.856C96.3264 47.76 96.1664 47.6 96.0064 47.376L88.4224 37.392H72.9184V46.944C72.9184 47.648 72.5664 48 71.8624 48H66.6784C65.9424 48 65.5744 47.648 65.5744 46.944V15.84C65.5744 14.88 66.0544 14.4 67.0144 14.4H92.7904ZM72.9184 31.536H91.3024C92.9344 31.536 94.0864 31.184 94.7584 30.48C95.4304 29.776 95.7664 28.704 95.7664 27.264V25.248C95.7664 23.808 95.4304 22.736 94.7584 22.032C94.0864 21.328 92.9344 20.976 91.3024 20.976H73.5424C73.1264 20.976 72.9184 21.168 72.9184 21.552V31.536ZM131.815 21.648C133.447 21.648 134.791 21.792 135.847 22.08C136.935 22.336 137.783 22.784 138.391 23.424C139.031 24.032 139.479 24.848 139.735 25.872C139.991 26.864 140.12 28.08 140.12 29.52V34.08C140.12 35.104 139.895 35.824 139.447 36.24C138.999 36.624 138.311 36.816 137.383 36.816H113.143V37.968C113.143 39.472 113.495 40.56 114.199 41.232C114.935 41.904 116.343 42.24 118.423 42.24H138.439C139.015 42.24 139.303 42.528 139.303 43.104V47.136C139.303 47.712 139.015 48 138.439 48H117.751C115.575 48 113.751 47.824 112.279 47.472C110.839 47.12 109.671 46.56 108.775 45.792C107.911 44.992 107.287 43.984 106.903 42.768C106.519 41.52 106.327 40.032 106.327 38.304V31.392C106.327 29.664 106.519 28.192 106.903 26.976C107.287 25.728 107.911 24.72 108.775 23.952C109.671 23.152 110.839 22.576 112.279 22.224C113.751 21.84 115.575 21.648 117.751 21.648H131.815ZM113.143 32.544H132.583C133.127 32.544 133.399 32.272 133.399 31.728V29.712C133.399 28.72 133.191 28.016 132.775 27.6C132.359 27.184 131.591 26.976 130.471 26.976H118.423C116.343 26.976 114.935 27.312 114.199 27.984C113.495 28.624 113.143 29.712 113.143 31.248V32.544ZM170.314 21.648C172.458 21.648 174.266 21.84 175.738 22.224C177.21 22.576 178.378 23.152 179.242 23.952C180.138 24.72 180.778 25.728 181.162 26.976C181.546 28.192 181.738 29.664 181.738 31.392V46.944C181.738 47.648 181.386 48 180.682 48H175.978C175.274 48 174.922 47.648 174.922 46.944V33.024C174.922 32.032 174.858 31.2 174.73 30.528C174.602 29.824 174.346 29.28 173.962 28.896C173.61 28.48 173.114 28.192 172.474 28.032C171.834 27.84 171.002 27.744 169.978 27.744H157.21C156.186 27.744 155.338 27.84 154.666 28.032C153.994 28.192 153.45 28.48 153.034 28.896C152.65 29.28 152.378 29.824 152.218 30.528C152.058 31.2 151.978 32.032 151.978 33.024V46.944C151.978 47.648 151.626 48 150.922 48H146.218C145.482 48 145.114 47.648 145.114 46.944V31.392C145.114 29.664 145.306 28.192 145.69 26.976C146.074 25.728 146.698 24.72 147.562 23.952C148.458 23.152 149.626 22.576 151.066 22.224C152.538 21.84 154.362 21.648 156.538 21.648H170.314ZM190.944 21.648V20.64C190.944 18.944 191.088 17.504 191.376 16.32C191.664 15.104 192.176 14.112 192.912 13.344C193.648 12.576 194.64 12.016 195.888 11.664C197.136 11.28 198.72 11.088 200.64 11.088H206.448C207.024 11.088 207.312 11.376 207.312 11.952V15.888C207.312 16.464 207.024 16.752 206.448 16.752H201.792C200.224 16.752 199.152 17.072 198.576 17.712C198.032 18.32 197.76 19.296 197.76 20.64V21.648H206.16C206.736 21.648 207.024 21.936 207.024 22.512V26.448C207.024 27.024 206.736 27.312 206.16 27.312H197.76V46.944C197.76 47.648 197.408 48 196.704 48H192C191.296 48 190.944 47.648 190.944 46.944V27.312H186.336C185.76 27.312 185.472 27.024 185.472 26.448V22.512C185.472 21.936 185.76 21.648 186.336 21.648H190.944ZM215.365 21.648V15.312C215.365 14.608 215.717 14.256 216.421 14.256H221.173C221.877 14.256 222.229 14.608 222.229 15.312V21.648H230.629C231.205 21.648 231.493 21.936 231.493 22.512V26.448C231.493 27.024 231.205 27.312 230.629 27.312H222.229V38.448C222.229 39.792 222.501 40.784 223.045 41.424C223.589 42.032 224.661 42.336 226.261 42.336H230.917C231.493 42.336 231.781 42.624 231.781 43.2V47.136C231.781 47.712 231.493 48 230.917 48H225.109C223.189 48 221.605 47.824 220.357 47.472C219.109 47.12 218.101 46.56 217.333 45.792C216.597 45.024 216.085 44.032 215.797 42.816C215.509 41.6 215.365 40.144 215.365 38.448V27.312H210.805C210.229 27.312 209.941 27.024 209.941 26.448V22.512C209.941 21.936 210.229 21.648 210.805 21.648H215.365Z" fill="white"/>
<path d="M51.8459 18.6016L26.7287 4.13664C26.5639 4.04698 26.3792 4 26.1915 4C26.0038 4 25.8191 4.04698 25.6544 4.13664L0.537154 18.6016C0.37347 18.6963 0.237661 18.8323 0.143372 18.9959C0.049083 19.1595 -0.000363395 19.345 2.01063e-06 19.5338V48.4636C-0.000363395 48.6523 0.049083 48.8378 0.143372 49.0015C0.237661 49.1651 0.37347 49.3011 0.537154 49.3958L25.6544 63.8607C25.8186 63.952 26.0035 64 26.1915 64C26.3795 64 26.5644 63.952 26.7287 63.8607L51.8459 49.3958C52.0096 49.3011 52.1454 49.1651 52.2397 49.0015C52.3339 48.8378 52.3834 48.6523 52.383 48.4636V19.5338C52.3834 19.345 52.3339 19.1595 52.2397 18.9959C52.1454 18.8323 52.0096 18.6963 51.8459 18.6016ZM47.0115 45.367C47.0119 45.5558 46.9624 45.7413 46.8681 45.9049C46.7738 46.0685 46.638 46.2045 46.4744 46.2992L26.7287 57.6676C26.5668 57.7657 26.381 57.8176 26.1915 57.8176C26.0021 57.8176 25.8163 57.7657 25.6544 57.6676L5.90867 46.2992C5.74498 46.2045 5.60917 46.0685 5.51488 45.9049C5.4206 45.7413 5.37115 45.5558 5.37152 45.367V22.6303C5.37116 22.4416 5.42061 22.2561 5.5149 22.0925C5.60919 21.9288 5.74499 21.7928 5.90867 21.6981L25.6544 10.3298C25.8174 10.235 26.0028 10.1851 26.1915 10.1851C26.3802 10.1851 26.5656 10.235 26.7287 10.3298L46.4744 21.6981C46.638 21.7928 46.7738 21.9288 46.8681 22.0925C46.9624 22.2561 47.0119 22.4416 47.0115 22.6303V45.367ZM7.52012 23.2411V28.0413H10.9579L13.8048 25.2661C13.9033 25.1673 14.0205 25.089 14.1496 25.0357C14.2787 24.9823 14.4171 24.9551 14.5568 24.9554H18.4888C18.7737 24.9554 19.0469 25.0683 19.2484 25.2693C19.4499 25.4702 19.5631 25.7427 19.5631 26.0269C19.5631 26.3111 19.4499 26.5836 19.2484 26.7845C19.0469 26.9855 18.7737 27.0984 18.4888 27.0984H14.9973L12.1504 29.8735C12.0518 29.9723 11.9346 30.0506 11.8056 30.104C11.6765 30.1573 11.5381 30.1846 11.3984 30.1842H7.52012V32.9272H12.0537C12.3386 32.9272 12.6119 33.0401 12.8133 33.241C13.0148 33.442 13.128 33.7145 13.128 33.9987C13.128 34.2829 13.0148 34.5554 12.8133 34.7563C12.6119 34.9573 12.3386 35.0702 12.0537 35.0702H7.52012V37.8131H11.3984C11.5381 37.8128 11.6765 37.84 11.8056 37.8934C11.9346 37.9467 12.0518 38.0251 12.1504 38.1239L14.9973 40.899H18.4888C18.7737 40.899 19.0469 41.0119 19.2484 41.2128C19.4499 41.4137 19.5631 41.6863 19.5631 41.9705C19.5631 42.2546 19.4499 42.5272 19.2484 42.7281C19.0469 42.929 18.7737 43.0419 18.4888 43.0419H14.5568C14.4171 43.0423 14.2787 43.015 14.1496 42.9617C14.0205 42.9083 13.9033 42.83 13.8048 42.7312L10.9579 39.9561H7.52012V44.7563L26.1915 55.5032L44.8629 44.7563V39.9561H41.4251L38.5782 42.7312C38.4797 42.83 38.3625 42.9083 38.2334 42.9617C38.1043 43.015 37.9659 43.0423 37.8262 43.0419H33.8943C33.6093 43.0419 33.3361 42.929 33.1346 42.7281C32.9331 42.5272 32.82 42.2546 32.82 41.9705C32.82 41.6863 32.9331 41.4137 33.1346 41.2128C33.3361 41.0119 33.6093 40.899 33.8943 40.899H37.3857L40.2327 38.1239C40.3312 38.0251 40.4484 37.9467 40.5775 37.8934C40.7065 37.84 40.8449 37.8128 40.9847 37.8131H44.8629V35.0702H40.3293C40.0444 35.0702 39.7712 34.9573 39.5697 34.7563C39.3682 34.5554 39.255 34.2829 39.255 33.9987C39.255 33.7145 39.3682 33.442 39.5697 33.241C39.7712 33.0401 40.0444 32.9272 40.3293 32.9272H44.8629V30.1842H40.9847C40.8449 30.1846 40.7065 30.1573 40.5775 30.104C40.4484 30.0506 40.3312 29.9723 40.2327 29.8735L37.3857 27.0984H33.8943C33.6093 27.0984 33.3361 26.9855 33.1346 26.7845C32.9331 26.5836 32.82 26.3111 32.82 26.0269C32.82 25.7427 32.9331 25.4702 33.1346 25.2693C33.3361 25.0683 33.6093 24.9554 33.8943 24.9554H37.8262C37.9659 24.9551 38.1043 24.9823 38.2334 25.0357C38.3625 25.089 38.4797 25.1673 38.5782 25.2661L41.4251 28.0413H44.8629V23.2411L26.1915 12.4942L7.52012 23.2411ZM33.9372 33.3022C34.0068 33.3831 34.0646 33.4733 34.1091 33.5701C34.1894 33.7548 34.2159 33.9583 34.1855 34.1573C34.1551 34.3563 34.0691 34.5427 33.9372 34.6951L27.0832 44.9599C26.9844 45.1051 26.8515 45.224 26.6961 45.3061C26.5407 45.3883 26.3674 45.4313 26.1915 45.4313C26.0156 45.4313 25.8423 45.3883 25.6869 45.3061C25.5315 45.224 25.3986 45.1051 25.2998 44.9599L18.4458 34.6951C18.314 34.5427 18.2279 34.3563 18.1975 34.1573C18.1671 33.9583 18.1936 33.7548 18.2739 33.5701C18.3184 33.4733 18.3763 33.3831 18.4458 33.3022L25.2998 23.0375C25.4027 22.898 25.537 22.7846 25.6919 22.7064C25.8468 22.6282 26.0179 22.5875 26.1915 22.5875C26.3651 22.5875 26.5363 22.6282 26.6912 22.7064C26.8461 22.7846 26.9804 22.898 27.0832 23.0375L33.9372 33.3022ZM26.6212 38.006L30.1879 36.4524L26.1915 42.4312L22.1951 36.4524L25.7618 38.006C25.898 38.0626 26.044 38.0917 26.1915 38.0917C26.339 38.0917 26.4851 38.0626 26.6212 38.006ZM26.1915 25.5662L31.5201 33.5272L26.1915 35.8523L20.863 33.5272L26.1915 25.5662Z" fill="url(#paint0_linear_0_1474)"/>
<defs>
<linearGradient id="paint0_linear_0_1474" x1="0" y1="34" x2="52.383" y2="34" gradientUnits="userSpaceOnUse">
<stop stop-color="#E018FF"/>
<stop offset="1" stop-color="#823FFF"/>
</linearGradient>
</defs>
</svg>
