<svg width="148" height="149" viewBox="0 0 148 149" fill="none" xmlns="http://www.w3.org/2000/svg">
<path d="M7.9898 85.0584L8.93166 86.5872C9.41178 87.3666 10.1328 88.0048 11.0245 88.4396C11.9163 88.8744 12.9482 89.091 14.0197 89.0682L15.0293 89.0466L14.1878 89.6007C13.2948 90.1888 12.572 90.9511 12.0899 91.8132C11.6077 92.6753 11.3826 93.6077 11.4366 94.5197L11.5424 96.3084L10.6005 94.7797C10.1204 94.0003 9.39935 93.3621 8.50764 92.9272C7.61594 92.4924 6.58402 92.2759 5.51251 92.2987L4.50286 92.3203L5.34436 91.7662C6.23734 91.1781 6.96016 90.4158 7.44233 89.5537C7.92449 88.6916 8.14955 87.7591 8.09556 86.8472L7.9898 85.0584Z" fill="url(#paint0_linear_2062_133)"/>
<path d="M90.2632 130.637L91.2051 132.165C91.6852 132.945 92.4063 133.583 93.298 134.018C94.1897 134.453 95.2216 134.669 96.2931 134.646L97.3028 134.625L96.4613 135.179C95.5683 135.767 94.8455 136.529 94.3633 137.391C93.8811 138.253 93.6561 139.186 93.7101 140.098L93.8158 141.887L92.874 140.358C92.3939 139.578 91.6728 138.94 90.7811 138.505C89.8894 138.071 88.8575 137.854 87.7859 137.877L86.7763 137.898L87.6178 137.344C88.5108 136.756 89.2336 135.994 89.7158 135.132C90.1979 134.27 90.423 133.337 90.369 132.425L90.2632 130.637Z" fill="url(#paint1_linear_2062_133)"/>
<path d="M68.794 140.17C68.8478 140.712 69.0786 141.133 69.4866 141.434C69.8945 141.734 70.4481 141.884 71.1474 141.884C71.6226 141.884 72.0238 141.817 72.351 141.683C72.6782 141.553 72.9293 141.371 73.1041 141.138C73.2744 140.905 73.3596 140.64 73.3596 140.345C73.3686 140.098 73.317 139.883 73.2049 139.699C73.0884 139.515 72.9293 139.356 72.7275 139.222C72.5258 139.092 72.2927 138.977 72.0282 138.879C71.7638 138.785 71.4813 138.704 71.181 138.637L69.9438 138.341C69.3431 138.206 68.7917 138.027 68.2897 137.803C67.7876 137.579 67.3528 137.303 66.9852 136.976C66.6177 136.649 66.333 136.263 66.1313 135.819C65.9251 135.375 65.8197 134.867 65.8153 134.293C65.8197 133.45 66.0349 132.72 66.4608 132.101C66.8821 131.487 67.4918 131.009 68.2897 130.669C69.0831 130.332 70.0402 130.164 71.1608 130.164C72.2725 130.164 73.2408 130.335 74.0656 130.675C74.8859 131.016 75.527 131.52 75.9887 132.188C76.4459 132.861 76.6857 133.692 76.7081 134.683H73.8908C73.8594 134.221 73.7272 133.836 73.4941 133.526C73.2565 133.222 72.9405 132.991 72.546 132.834C72.147 132.681 71.6965 132.605 71.1945 132.605C70.7014 132.605 70.2733 132.677 69.9102 132.82C69.5426 132.964 69.2579 133.163 69.0562 133.419C68.8545 133.674 68.7536 133.968 68.7536 134.3C68.7536 134.609 68.8455 134.869 69.0293 135.08C69.2086 135.29 69.4731 135.47 69.8228 135.618C70.1679 135.765 70.5915 135.9 71.0936 136.021L72.5931 136.398C73.7541 136.68 74.6708 137.121 75.3432 137.722C76.0156 138.323 76.3495 139.132 76.345 140.15C76.3495 140.983 76.1276 141.712 75.6794 142.335C75.2266 142.958 74.6058 143.444 73.8168 143.794C73.0279 144.144 72.1313 144.318 71.1272 144.318C70.1052 144.318 69.2131 144.144 68.4511 143.794C67.6845 143.444 67.0883 142.958 66.6625 142.335C66.2366 141.712 66.017 140.99 66.0035 140.17H68.794Z" fill="white"/>
<path d="M59.3654 129.552L56.6732 139.523L53.9049 138.786L56.5971 128.815L59.3654 129.552ZM54.9355 140.438C55.3471 140.548 55.6633 140.778 55.8843 141.129C56.0998 141.483 56.1555 141.853 56.0515 142.238C55.9487 142.619 55.7153 142.907 55.3515 143.102C54.9821 143.301 54.5916 143.345 54.1801 143.236C53.7685 143.127 53.455 142.895 53.2396 142.541C53.0186 142.19 52.9595 141.824 53.0623 141.443C53.1663 141.058 53.403 140.766 53.7724 140.567C54.1363 140.372 54.524 140.329 54.9355 140.438Z" fill="white"/>
<path d="M42.6469 129.538L45.6495 124.377L48.1349 125.801L42.9412 134.728L40.5725 133.371L41.4889 131.796L41.3838 131.736C40.8834 132.142 40.3119 132.362 39.6694 132.397C39.0245 132.435 38.3696 132.264 37.7045 131.883C37.0822 131.526 36.6185 131.08 36.3134 130.544C36.0084 130.007 35.874 129.413 35.9104 128.763C35.9444 128.116 36.1632 127.446 36.5667 126.752L39.8736 121.068L42.359 122.492L39.3091 127.734C38.9874 128.278 38.8794 128.785 38.9853 129.254C39.0889 129.726 39.3896 130.105 39.8874 130.39C40.2219 130.582 40.5592 130.68 40.8994 130.684C41.2356 130.685 41.5557 130.589 41.8596 130.397C42.1574 130.206 42.4199 129.92 42.6469 129.538Z" fill="white"/>
<path d="M32.0533 113.96C32.8042 114.705 33.291 115.504 33.5138 116.357C33.7301 117.209 33.6983 118.062 33.4183 118.914C33.1351 119.764 32.6229 120.556 31.8815 121.292C31.1306 122.037 30.3272 122.547 29.4713 122.822C28.609 123.097 27.7499 123.125 26.894 122.907C26.0349 122.692 25.2347 122.217 24.4934 121.482C23.8538 120.847 23.4099 120.176 23.1618 119.469C22.9136 118.761 22.8595 118.06 22.9995 117.366C23.1395 116.671 23.4784 116.028 24.0161 115.438L25.9347 117.342C25.6229 117.759 25.4718 118.193 25.4813 118.644C25.4845 119.096 25.6722 119.506 26.0445 119.876C26.3595 120.188 26.7206 120.376 27.1279 120.44C27.5288 120.503 27.9567 120.438 28.4117 120.245C28.8667 120.053 29.3249 119.727 29.7863 119.27C30.254 118.805 30.5881 118.348 30.7886 117.896C30.9858 117.441 31.0526 117.012 30.989 116.608C30.9254 116.204 30.7361 115.845 30.4211 115.533C30.1888 115.302 29.9327 115.143 29.6527 115.054C29.3695 114.963 29.0767 114.947 28.7745 115.007C28.4658 115.067 28.1636 115.206 27.8677 115.424L25.949 113.52C26.5408 112.995 27.1868 112.658 27.8867 112.506C28.5804 112.354 29.2852 112.397 30.0011 112.634C30.717 112.871 31.4011 113.313 32.0533 113.96Z" fill="white"/>
<path d="M23.4771 102.773C24.0113 103.691 24.2845 104.588 24.2965 105.465C24.3025 106.34 24.0649 107.153 23.5839 107.904C23.0989 108.657 22.3839 109.304 21.4387 109.846C20.5169 110.374 19.6042 110.659 18.7006 110.701C17.797 110.744 16.9625 110.553 16.1971 110.129C15.4295 109.701 14.7909 109.049 14.2815 108.173C13.9388 107.584 13.7152 106.981 13.6104 106.365C13.4996 105.746 13.5223 105.139 13.6787 104.543C13.8328 103.943 14.1338 103.373 14.5815 102.832C15.0254 102.294 15.6285 101.806 16.3909 101.369L17.0735 100.978L21.459 108.517L19.9188 109.399L16.8891 104.191C16.5313 104.396 16.2594 104.656 16.0734 104.969C15.8874 105.282 15.7967 105.621 15.8011 105.985C15.7995 106.348 15.9034 106.709 16.1131 107.069C16.3317 107.445 16.6131 107.728 16.9572 107.919C17.2951 108.107 17.6573 108.199 18.0437 108.195C18.4262 108.193 18.7955 108.092 19.1517 107.893L20.6161 107.054C21.0595 106.8 21.3953 106.499 21.6235 106.152C21.8494 105.8 21.9619 105.423 21.9611 105.021C21.9603 104.618 21.8393 104.21 21.5981 103.795C21.4381 103.52 21.2526 103.29 21.0419 103.106C20.8311 102.922 20.6006 102.793 20.3503 102.72C20.1 102.646 19.8373 102.631 19.5621 102.675L18.3816 100.299C19.0015 100.098 19.6225 100.06 20.2444 100.184C20.8602 100.307 21.4474 100.585 22.006 101.02C22.5584 101.452 23.0488 102.036 23.4771 102.773Z" fill="white"/>
<path d="M19 74.574H16.9021L12.3634 69.6722C11.96 69.2553 11.5969 68.9057 11.2741 68.6233C10.9514 68.3364 10.6353 68.119 10.326 67.9711C10.0122 67.8231 9.6738 67.7492 9.3107 67.7492C8.90726 67.7492 8.55986 67.8411 8.26848 68.0248C7.97263 68.2086 7.74625 68.4597 7.58936 68.7779C7.42798 69.0962 7.34729 69.4571 7.34729 69.8605C7.34729 70.2819 7.43246 70.6495 7.60281 70.9632C7.77315 71.277 8.01745 71.5191 8.33572 71.6894C8.65399 71.8598 9.03278 71.9449 9.47208 71.9449V74.7085C8.57106 74.7085 7.78884 74.5046 7.1254 74.0966C6.46197 73.6887 5.9487 73.1172 5.5856 72.382C5.22251 71.6468 5.04096 70.7996 5.04096 69.8403C5.04096 68.8541 5.21578 67.9957 5.56543 67.265C5.9106 66.5299 6.39024 65.9583 7.00437 65.5504C7.6185 65.1425 8.32227 64.9385 9.11571 64.9385C9.6357 64.9385 10.149 65.0416 10.6555 65.2478C11.162 65.4496 11.7246 65.8104 12.3432 66.3304C12.9574 66.8504 13.6948 67.5833 14.5554 68.5292L16.5256 70.5396H16.6197L16.6197 64.757H19L19 74.574Z" fill="white"/>
<path d="M21.3084 55.1459C21.0026 56.2613 20.4681 57.1489 19.7049 57.8087C18.9429 58.4642 17.9857 58.8707 16.8335 59.0281C15.6825 59.1812 14.3797 59.0621 12.9253 58.6707C11.474 58.2848 10.295 57.7417 9.38834 57.0414C8.48281 56.3368 7.8717 55.5133 7.55502 54.571C7.23518 53.6232 7.22541 52.5932 7.52571 51.481C7.82601 50.3687 8.35284 49.4837 9.1062 48.826C9.86072 48.1639 10.8076 47.7523 11.9468 47.5914C13.0817 47.4294 14.3742 47.5435 15.8243 47.9337C17.2842 48.3219 18.4735 48.8701 19.392 49.5782C20.3117 50.2819 20.9364 51.1067 21.2661 52.0525C21.5957 52.9982 21.6098 54.0294 21.3084 55.1459ZM18.9755 54.5256C19.1812 53.7639 18.962 53.0539 18.3179 52.3956C17.6738 51.7373 16.5843 51.2064 15.0496 50.803C14.0402 50.5346 13.1717 50.4149 12.4442 50.4441C11.7178 50.469 11.1348 50.6247 10.6952 50.9114C10.2568 51.1937 9.96928 51.588 9.83257 52.0944C9.62808 52.8517 9.84355 53.5584 10.479 54.2144C11.1144 54.8704 12.1875 55.4016 13.6982 55.808C14.7206 56.0798 15.6015 56.2051 16.3409 56.1837C17.0771 56.1568 17.6672 56.0006 18.1111 55.7151C18.5507 55.4284 18.8388 55.0319 18.9755 54.5256Z" fill="white"/>
<path d="M16.1004 32.4509L28.0489 39.2969L26.5848 41.8135L17.0342 36.3414L16.9936 36.4111L17.123 40.1197L14.8827 38.8361L14.7242 34.8164L16.1004 32.4509Z" fill="white"/>
<path d="M25.9379 20.0496C26.4406 19.5507 27.0086 19.1544 27.6418 18.8608C28.2781 18.564 28.9638 18.4171 29.6988 18.4203C30.437 18.4203 31.2181 18.6176 32.0422 19.0123C32.8663 19.4007 33.7222 20.0322 34.6099 20.9069C35.4404 21.731 36.0879 22.5599 36.5524 23.3935C37.017 24.2208 37.3033 25.0323 37.4115 25.828C37.5197 26.6237 37.4481 27.3831 37.1967 28.1062C36.9422 28.8262 36.5127 29.4861 35.9081 30.086C35.2558 30.7334 34.5543 31.1802 33.8033 31.4264C33.0493 31.6696 32.3015 31.7264 31.5602 31.597C30.8188 31.4612 30.1427 31.1533 29.5318 30.6734L31.5697 28.6509C32.0056 28.9256 32.4495 29.0346 32.9013 28.9777C33.3499 28.9177 33.762 28.7014 34.1374 28.3288C34.7738 27.6973 34.9806 26.9427 34.7579 26.0648C34.532 25.1839 33.937 24.2618 32.9729 23.2988L32.9061 23.3651C33.0461 23.7945 33.0954 24.235 33.054 24.6865C33.0095 25.1349 32.8822 25.5738 32.6722 26.0033C32.4654 26.4295 32.1822 26.8211 31.8227 27.1779C31.2468 27.7494 30.5977 28.1252 29.8754 28.3052C29.1531 28.4851 28.4245 28.4694 27.6895 28.2578C26.9545 28.0462 26.2831 27.6389 25.6754 27.0358C25.0168 26.3885 24.5841 25.6591 24.3772 24.8476C24.1704 24.0361 24.1959 23.2151 24.4536 22.3847C24.7113 21.5479 25.2061 20.7695 25.9379 20.0496ZM27.575 21.6458C27.2536 21.9647 27.0436 22.3247 26.945 22.7257C26.8495 23.1235 26.8575 23.523 26.9688 23.924C27.0834 24.3218 27.3013 24.6771 27.6227 24.9897C27.944 25.3086 28.3036 25.5265 28.7013 25.6433C29.099 25.7538 29.4968 25.7633 29.8945 25.6717C30.2922 25.5738 30.6502 25.367 30.9684 25.0512C31.207 24.8144 31.3836 24.5508 31.4981 24.2603C31.6127 23.9698 31.6668 23.673 31.6604 23.3698C31.654 23.0604 31.5904 22.7604 31.4695 22.4699C31.3486 22.1794 31.172 21.9189 30.9397 21.6884C30.6279 21.3853 30.2715 21.1769 29.8706 21.0632C29.4697 20.9495 29.0656 20.94 28.6584 21.0348C28.2511 21.1295 27.89 21.3332 27.575 21.6458Z" fill="white"/>
<path d="M60.012 5.18465L63.6016 18.4793L61.1713 19.1256L53.1221 12.2976L53.0247 12.3235L55.2839 20.6911L52.4702 21.4393L48.8806 8.14461L51.3499 7.48799L59.3519 14.3216L59.4688 14.2905L57.2113 5.92939L60.012 5.18465Z" fill="white"/>
<path d="M68.231 18.0547V4.28392L77.3487 4.28392V6.68439L71.1425 6.68439V9.96571H76.7436V12.3662H71.1425V18.0547H68.231Z" fill="white"/>
<path d="M85.0288 7.5544L85.6546 5.23692L96.5845 8.14332L95.9588 10.4608L91.8844 9.37738L88.9206 20.3546L86.1393 19.615L89.1032 8.63782L85.0288 7.5544Z" fill="white"/>
<path d="M95.095 26.5429L102.236 14.268L104.687 15.672L103.814 17.1714L103.925 17.235C104.174 17.0571 104.473 16.9033 104.824 16.7734C105.18 16.6419 105.574 16.5887 106.006 16.6137C106.443 16.6371 106.913 16.7925 107.415 17.08C108.068 17.4544 108.572 17.9703 108.926 18.6277C109.282 19.2813 109.427 20.0437 109.361 20.9151C109.297 21.7826 108.967 22.7278 108.372 23.7507C107.793 24.7465 107.142 25.4948 106.421 25.9957C105.705 26.4949 104.968 26.7625 104.211 26.7987C103.46 26.8332 102.744 26.6554 102.063 26.2654C101.581 25.9891 101.217 25.6746 100.971 25.3218C100.729 24.9713 100.57 24.6147 100.496 24.2519C100.424 23.8852 100.404 23.5455 100.436 23.2329L100.36 23.1895L97.5804 27.9669L95.095 26.5429ZM102.072 20.1255C101.763 20.6564 101.568 21.1617 101.486 21.6416C101.404 22.1215 101.438 22.5521 101.59 22.9334C101.744 23.3109 102.021 23.6144 102.422 23.8439C102.826 24.0757 103.233 24.1613 103.641 24.1009C104.052 24.0367 104.444 23.8481 104.818 23.5354C105.198 23.221 105.539 22.8042 105.841 22.285C106.141 21.7696 106.333 21.2751 106.417 20.8013C106.5 20.3275 106.466 19.8999 106.315 19.5186C106.163 19.1373 105.883 18.8297 105.475 18.5957C105.07 18.3639 104.666 18.2743 104.262 18.327C103.862 18.3819 103.474 18.5627 103.099 18.8693C102.723 19.176 102.381 19.5947 102.072 20.1255Z" fill="white"/>
<path d="M113.104 34.8834C112.362 34.1477 111.879 33.3551 111.653 32.5057C111.433 31.6563 111.46 30.8053 111.734 29.9528C112.011 29.0971 112.524 28.2966 113.275 27.5514C114.033 26.7999 114.841 26.2884 115.7 26.0168C116.562 25.7421 117.42 25.7153 118.272 25.9363C119.131 26.1573 119.932 26.6357 120.673 27.3714C121.414 28.1072 121.895 28.8997 122.114 29.7491C122.34 30.5985 122.315 31.4511 122.038 32.3068C121.764 33.1593 121.249 33.9614 120.492 34.7129C119.741 35.4581 118.934 35.968 118.072 36.2427C117.213 36.5143 116.354 36.5395 115.495 36.3185C114.642 36.0975 113.845 35.6191 113.104 34.8834ZM114.688 33.3298C115.025 33.6645 115.402 33.8493 115.819 33.884C116.239 33.9156 116.674 33.8224 117.122 33.6045C117.574 33.3898 118.013 33.0709 118.439 32.6478C118.866 32.2247 119.187 31.7889 119.404 31.3405C119.623 30.8953 119.717 30.4643 119.685 30.0475C119.653 29.6307 119.469 29.2549 119.131 28.9202C118.791 28.5824 118.408 28.3945 117.981 28.3566C117.558 28.3219 117.121 28.4119 116.669 28.6266C116.22 28.8445 115.783 29.165 115.356 29.5881C114.93 30.0112 114.607 30.4454 114.387 30.8906C114.171 31.339 114.08 31.7731 114.115 32.1931C114.157 32.6131 114.348 32.992 114.688 33.3298Z" fill="white"/>
<path d="M120.705 43.7651L129.666 38.6306L131.063 41.0309L129.499 41.9268L129.553 42.0198C130.204 41.8639 130.783 41.8963 131.29 42.1172C131.801 42.3359 132.202 42.6952 132.493 43.195C132.565 43.319 132.635 43.4571 132.703 43.6094C132.771 43.7617 132.823 43.8999 132.858 44.024L130.653 45.2875C130.621 45.1512 130.558 44.9726 130.466 44.7517C130.374 44.5307 130.278 44.335 130.179 44.1645C129.967 43.8003 129.698 43.5205 129.371 43.3251C129.051 43.1314 128.703 43.0315 128.326 43.0253C127.951 43.023 127.581 43.1266 127.215 43.3361L122.145 46.241L120.705 43.7651Z" fill="white"/>
<path d="M138.644 60.1566L136.565 60.7095L134.944 54.7048L137.023 54.1519L138.644 60.1566ZM139.783 54.8792L140.529 57.6446L131.224 60.119C130.968 60.187 130.779 60.2789 130.658 60.3949C130.54 60.5096 130.472 60.6437 130.453 60.7972C130.435 60.955 130.451 61.1269 130.502 61.313C130.537 61.4428 130.582 61.5698 130.639 61.6939C130.7 61.8168 130.747 61.9111 130.778 61.9769L128.836 62.9596C128.755 62.8327 128.653 62.6512 128.529 62.4151C128.4 62.1802 128.281 61.8849 128.171 61.5292C127.965 60.8696 127.896 60.2618 127.964 59.7056C128.033 59.1538 128.245 58.6824 128.599 58.2914C128.953 57.9003 129.458 57.62 130.113 57.4504L139.783 54.8792Z" fill="white"/>
<path d="M140.164 77.6698H138.012V71.2954H140.164V77.6698ZM129.836 72.7546H140.91C141.659 72.7546 142.28 72.9002 142.773 73.1916C143.266 73.4875 143.636 73.8909 143.882 74.4019C144.129 74.913 144.252 75.4935 144.252 76.1435C144.252 76.5828 144.219 76.984 144.151 77.3471C144.084 77.7146 144.024 77.9881 143.97 78.1674L141.818 77.6564C141.854 77.5443 141.888 77.4053 141.919 77.2395C141.95 77.0781 141.966 76.9122 141.966 76.7419C141.966 76.3205 141.867 76.0269 141.67 75.861C141.477 75.6952 141.206 75.6123 140.857 75.6123H129.836V72.7546Z" fill="white"/>
<path d="M127.261 88.2294C127.786 87.3266 128.432 86.6562 129.201 86.2181C129.971 85.7861 130.805 85.5903 131.705 85.6305C132.609 85.6729 133.52 85.9571 134.437 86.483C135.363 87.0134 136.068 87.6552 136.553 88.4083C137.042 89.1637 137.289 89.9791 137.293 90.8545C137.299 91.7361 137.039 92.6282 136.514 93.531C135.988 94.4338 135.341 95.1012 134.571 95.5332C133.803 95.9713 132.967 96.1691 132.063 96.1266C131.163 96.0864 130.251 95.8011 129.325 95.2707C128.407 94.7448 127.704 94.1042 127.215 93.3488C126.73 92.5956 126.485 91.7783 126.479 90.8968C126.475 90.0213 126.735 89.1322 127.261 88.2294ZM129.179 89.3441C128.94 89.7549 128.857 90.1646 128.931 90.5734C129.008 90.9845 129.21 91.3767 129.537 91.7502C129.862 92.1276 130.285 92.4656 130.807 92.7642C131.328 93.0628 131.834 93.2574 132.326 93.3481C132.816 93.4426 133.259 93.4202 133.656 93.2811C134.054 93.1419 134.372 92.867 134.611 92.4563C134.852 92.0417 134.936 91.625 134.863 91.2062C134.788 90.7913 134.589 90.3951 134.264 90.0178C133.936 89.6443 133.512 89.3083 132.991 89.0096C132.47 88.711 131.964 88.5144 131.475 88.4199C130.983 88.3293 130.537 88.3555 130.138 88.4985C129.74 88.6477 129.42 88.9296 129.179 89.3441Z" fill="white"/>
<path d="M128.572 113.474L118.797 103.774L120.83 101.756L130.605 111.457L128.572 113.474Z" fill="white"/>
<path d="M113.273 111.194L120.615 118.458L118.587 120.481L111.245 113.217L113.273 111.194ZM120.543 120.41C120.844 120.109 121.203 119.951 121.62 119.934C122.037 119.924 122.387 120.059 122.67 120.339C122.951 120.617 123.085 120.961 123.073 121.372C123.061 121.789 122.905 122.147 122.603 122.448C122.302 122.749 121.943 122.905 121.526 122.915C121.11 122.932 120.761 122.801 120.481 122.524C120.197 122.243 120.061 121.894 120.073 121.477C120.085 121.067 120.241 120.711 120.543 120.41Z" fill="white"/>
<path d="M103.947 119.678C104.839 119.134 105.726 118.853 106.609 118.834C107.491 118.821 108.317 119.047 109.087 119.512C109.859 119.981 110.523 120.666 111.077 121.567C111.636 122.476 111.948 123.377 112.014 124.272C112.082 125.17 111.909 126.005 111.495 126.778C111.079 127.556 110.426 128.217 109.534 128.761C108.642 129.305 107.755 129.583 106.874 129.596C105.991 129.615 105.163 129.39 104.39 128.921C103.62 128.456 102.956 127.769 102.397 126.86C101.843 125.959 101.531 125.06 101.463 124.161C101.397 123.267 101.572 122.431 101.988 121.652C102.402 120.88 103.055 120.221 103.947 119.678ZM105.098 121.575C104.692 121.822 104.424 122.143 104.293 122.538C104.165 122.937 104.155 123.378 104.264 123.863C104.369 124.351 104.578 124.85 104.893 125.362C105.208 125.873 105.559 126.286 105.947 126.601C106.332 126.918 106.731 127.11 107.146 127.177C107.561 127.244 107.972 127.154 108.377 126.907C108.787 126.657 109.06 126.331 109.196 125.927C109.328 125.526 109.342 125.082 109.237 124.595C109.128 124.11 108.916 123.612 108.602 123.1C108.287 122.589 107.937 122.174 107.553 121.857C107.165 121.543 106.761 121.353 106.343 121.288C105.922 121.229 105.507 121.325 105.098 121.575Z" fill="white"/>
<defs>
<linearGradient id="paint0_linear_2062_133" x1="4.50286" y1="92.3203" x2="15.0149" y2="89.0008" gradientUnits="userSpaceOnUse">
<stop stop-color="#E018FF"/>
<stop offset="1" stop-color="#823FFF"/>
</linearGradient>
<linearGradient id="paint1_linear_2062_133" x1="86.7763" y1="137.898" x2="97.2883" y2="134.579" gradientUnits="userSpaceOnUse">
<stop stop-color="#E018FF"/>
<stop offset="1" stop-color="#823FFF"/>
</linearGradient>
</defs>
</svg>
