<svg width="125" height="36" viewBox="0 0 125 36" fill="none" xmlns="http://www.w3.org/2000/svg">
<g clip-path="url(#clip0_2224_2)">
<path d="M54.792 9.60009C56.6319 9.60009 57.9519 10.0161 58.752 10.8481C59.552 11.6801 59.952 12.9121 59.952 14.5441V15.9121C59.952 17.2881 59.672 18.3761 59.112 19.1761C58.5519 19.9761 57.6399 20.4881 56.376 20.7121L60.48 25.8001C60.56 25.8801 60.584 26.0001 60.552 26.1601C60.5199 26.32 60.392 26.4001 60.168 26.4001H57.072C56.864 26.4001 56.72 26.3761 56.64 26.3281C56.5599 26.2801 56.48 26.2001 56.4 26.0881L52.608 21.0961H44.856V25.8721C44.856 26.2241 44.6799 26.4001 44.328 26.4001H41.736C41.3679 26.4001 41.184 26.2241 41.184 25.8721V10.3201C41.184 9.84009 41.424 9.60009 41.904 9.60009H54.792ZM44.856 18.1681H54.048C54.864 18.1681 55.44 17.9921 55.776 17.6401C56.112 17.2881 56.28 16.7521 56.28 16.0321V15.0241C56.28 14.3041 56.112 13.7681 55.776 13.4161C55.44 13.0641 54.864 12.8881 54.048 12.8881H45.168C44.96 12.8881 44.856 12.9841 44.856 13.1761V18.1681ZM74.3046 13.2241C75.1206 13.2241 75.7926 13.2961 76.3206 13.4401C76.8645 13.5681 77.2885 13.7921 77.5926 14.1121C77.9125 14.4161 78.1365 14.8241 78.2646 15.3361C78.3925 15.8321 78.4566 16.4401 78.4566 17.1601V19.4401C78.4566 19.9521 78.3445 20.3121 78.1206 20.5201C77.8965 20.7121 77.5525 20.8081 77.0886 20.8081H64.9686V21.3841C64.9686 22.1361 65.1445 22.6801 65.4966 23.0161C65.8645 23.3521 66.5685 23.5201 67.6086 23.5201H77.6166C77.9046 23.5201 78.0486 23.6641 78.0486 23.9521V25.9681C78.0486 26.2561 77.9046 26.4001 77.6166 26.4001H67.2726C66.1845 26.4001 65.2725 26.3121 64.5366 26.1361C63.8166 25.9601 63.2325 25.6801 62.7846 25.2961C62.3526 24.8961 62.0406 24.3921 61.8486 23.7841C61.6566 23.1601 61.5606 22.4161 61.5606 21.5521V18.0961C61.5606 17.2321 61.6566 16.4961 61.8486 15.8881C62.0406 15.2641 62.3526 14.7601 62.7846 14.3761C63.2325 13.9761 63.8166 13.6881 64.5366 13.5121C65.2725 13.3201 66.1845 13.2241 67.2726 13.2241H74.3046ZM64.9686 18.6721H74.6886C74.9605 18.6721 75.0966 18.5361 75.0966 18.2641V17.2561C75.0966 16.7601 74.9925 16.4081 74.7846 16.2001C74.5765 15.9921 74.1925 15.8881 73.6326 15.8881H67.6086C66.5685 15.8881 65.8645 16.0561 65.4966 16.3921C65.1445 16.7121 64.9686 17.2561 64.9686 18.0241V18.6721ZM93.554 13.2241C94.6261 13.2241 95.53 13.3201 96.266 13.5121C97.0021 13.6881 97.586 13.9761 98.018 14.3761C98.4661 14.7601 98.786 15.2641 98.978 15.8881C99.17 16.4961 99.266 17.2321 99.266 18.0961V25.8721C99.266 26.2241 99.0901 26.4001 98.738 26.4001H96.386C96.034 26.4001 95.858 26.2241 95.858 25.8721V18.9121C95.858 18.4161 95.8261 18.0001 95.762 17.6641C95.698 17.3121 95.57 17.0401 95.378 16.8481C95.2021 16.6401 94.954 16.4961 94.634 16.4161C94.3141 16.3201 93.898 16.2721 93.386 16.2721H87.002C86.4901 16.2721 86.066 16.3201 85.73 16.4161C85.394 16.4961 85.1221 16.6401 84.914 16.8481C84.722 17.0401 84.586 17.3121 84.506 17.6641C84.4261 18.0001 84.386 18.4161 84.386 18.9121V25.8721C84.386 26.2241 84.2101 26.4001 83.858 26.4001H81.506C81.1381 26.4001 80.954 26.2241 80.954 25.8721V18.0961C80.954 17.2321 81.05 16.4961 81.242 15.8881C81.434 15.2641 81.746 14.7601 82.178 14.3761C82.6261 13.9761 83.21 13.6881 83.93 13.5121C84.6661 13.3201 85.5781 13.2241 86.666 13.2241H93.554ZM103.869 13.2241V12.7201C103.869 11.8721 103.941 11.1521 104.085 10.5601C104.229 9.95209 104.485 9.45609 104.853 9.07209C105.221 8.68809 105.717 8.4081 106.341 8.23209C106.965 8.04009 107.757 7.94409 108.717 7.94409H111.621C111.909 7.94409 112.053 8.08809 112.053 8.37609V10.3441C112.053 10.6321 111.909 10.7761 111.621 10.7761H109.293C108.509 10.7761 107.973 10.9361 107.685 11.2561C107.413 11.5601 107.277 12.0481 107.277 12.7201V13.2241H111.477C111.765 13.2241 111.909 13.3681 111.909 13.6561V15.6241C111.909 15.9121 111.765 16.0561 111.477 16.0561H107.277V25.8721C107.277 26.2241 107.101 26.4001 106.749 26.4001H104.397C104.045 26.4001 103.869 26.2241 103.869 25.8721V16.0561H101.565C101.277 16.0561 101.133 15.9121 101.133 15.6241V13.6561C101.133 13.3681 101.277 13.2241 101.565 13.2241H103.869ZM116.079 13.2241V10.0561C116.079 9.7041 116.255 9.52809 116.607 9.52809H118.983C119.335 9.52809 119.511 9.7041 119.511 10.0561V13.2241H123.712C124 13.2241 124.144 13.3681 124.144 13.6561V15.6241C124.144 15.9121 124 16.0561 123.712 16.0561H119.511V21.6241C119.511 22.2961 119.647 22.7921 119.919 23.1121C120.191 23.4161 120.727 23.5681 121.528 23.5681H123.856C124.144 23.5681 124.288 23.7121 124.288 24.0001V25.9681C124.288 26.2561 124.144 26.4001 123.856 26.4001H120.952C119.991 26.4001 119.199 26.3121 118.575 26.1361C117.951 25.9601 117.447 25.6801 117.063 25.2961C116.695 24.9121 116.439 24.4161 116.295 23.8081C116.151 23.2001 116.079 22.4721 116.079 21.6241V16.0561H113.799C113.511 16.0561 113.367 15.9121 113.367 15.6241V13.6561C113.367 13.3681 113.511 13.2241 113.799 13.2241H116.079Z" fill="white"/>
<path d="M27.8306 9.91548L14.6793 2.32174C14.593 2.27466 14.4963 2.25 14.398 2.25C14.2998 2.25 14.2032 2.27466 14.1169 2.32174L0.965577 9.91548C0.879874 9.9652 0.808765 10.0366 0.759396 10.1225C0.710026 10.2084 0.684136 10.3058 0.684327 10.4049V25.5924C0.684136 25.6914 0.710026 25.7888 0.759396 25.8748C0.808765 25.9607 0.879874 26.032 0.965577 26.0818L14.1169 33.6755C14.2028 33.7235 14.2996 33.7486 14.398 33.7486C14.4966 33.7486 14.5934 33.7235 14.6793 33.6755L27.8306 26.0818C27.9163 26.032 27.9874 25.9607 28.0368 25.8748C28.0861 25.7888 28.112 25.6914 28.1119 25.5924V10.4049C28.112 10.3058 28.0861 10.2084 28.0368 10.1225C27.9874 10.0366 27.9163 9.9652 27.8306 9.91548ZM25.2993 23.9668C25.2996 24.0658 25.2736 24.1632 25.2243 24.2491C25.1749 24.335 25.1038 24.4064 25.018 24.4561L14.6793 30.4242C14.5946 30.4758 14.4973 30.503 14.398 30.503C14.2989 30.503 14.2016 30.4758 14.1169 30.4242L3.77808 24.4561C3.69238 24.4064 3.62126 24.335 3.5719 24.2491C3.52253 24.1632 3.49663 24.0658 3.49682 23.9668V12.0305C3.49664 11.9314 3.52253 11.834 3.57191 11.7481C3.62128 11.6622 3.69238 11.5908 3.77808 11.5411L14.1169 5.57298C14.2022 5.52325 14.2993 5.49706 14.398 5.49706C14.4969 5.49706 14.594 5.52325 14.6793 5.57298L25.018 11.5411C25.1038 11.5908 25.1749 11.6622 25.2243 11.7481C25.2736 11.834 25.2996 11.9314 25.2993 12.0305V23.9668ZM4.62182 12.3511V14.8711H6.42182L7.91245 13.4142C7.96404 13.3624 8.02541 13.3212 8.09299 13.2932C8.16058 13.2653 8.23304 13.2509 8.30621 13.2511H10.365C10.5141 13.2511 10.6572 13.3104 10.7627 13.4159C10.8682 13.5214 10.9275 13.6644 10.9275 13.8136C10.9275 13.9628 10.8682 14.1059 10.7627 14.2114C10.6572 14.3168 10.5141 14.3761 10.365 14.3761H8.53682L7.04621 15.833C6.99461 15.8849 6.93325 15.9259 6.86567 15.954C6.79807 15.982 6.7256 15.9962 6.65245 15.9961H4.62182V17.4361H6.99558C7.14476 17.4361 7.28784 17.4954 7.39333 17.6009C7.49881 17.7064 7.55808 17.8494 7.55808 17.9986C7.55808 18.1478 7.49881 18.2909 7.39333 18.3964C7.28784 18.5018 7.14476 18.5611 6.99558 18.5611H4.62182V20.0011H6.65245C6.7256 20.0009 6.79808 20.0153 6.86567 20.0432C6.93325 20.0712 6.99462 20.1124 7.04621 20.1642L8.53682 21.6211H10.365C10.5141 21.6211 10.6572 21.6804 10.7627 21.7859C10.8682 21.8914 10.9275 22.0344 10.9275 22.1836C10.9275 22.3328 10.8682 22.4759 10.7627 22.5814C10.6572 22.6868 10.5141 22.7461 10.365 22.7461H8.30621C8.23304 22.7462 8.16058 22.732 8.09299 22.704C8.02541 22.6759 7.96404 22.6349 7.91245 22.583L6.42182 21.1261H4.62182V23.6461L14.398 29.288L24.1743 23.6461V21.1261H22.3743L20.8837 22.583C20.8321 22.6349 20.7708 22.6759 20.7032 22.704C20.6356 22.732 20.5632 22.7462 20.49 22.7461H18.4312C18.2821 22.7461 18.1389 22.6868 18.0334 22.5814C17.928 22.4759 17.8687 22.3328 17.8687 22.1836C17.8687 22.0344 17.928 21.8914 18.0334 21.7859C18.1389 21.6804 18.2821 21.6211 18.4312 21.6211H20.2593L21.75 20.1642C21.8016 20.1124 21.8629 20.0712 21.9304 20.0432C21.9981 20.0153 22.0706 20.0009 22.1437 20.0011H24.1743V18.5611H21.8006C21.6514 18.5611 21.5083 18.5018 21.4028 18.3964C21.2973 18.2909 21.238 18.1478 21.238 17.9986C21.238 17.8494 21.2973 17.7064 21.4028 17.6009C21.5083 17.4954 21.6514 17.4361 21.8006 17.4361H24.1743V15.9961H22.1437C22.0706 15.9962 21.9981 15.982 21.9306 15.954C21.8629 15.9259 21.8016 15.8849 21.75 15.833L20.2593 14.3761H18.4312C18.2821 14.3761 18.1389 14.3168 18.0334 14.2114C17.928 14.1059 17.8687 13.9628 17.8687 13.8136C17.8687 13.6644 17.928 13.5214 18.0334 13.4159C18.1389 13.3104 18.2821 13.2511 18.4312 13.2511H20.49C20.5632 13.2509 20.6356 13.2653 20.7032 13.2932C20.7708 13.3212 20.8321 13.3624 20.8837 13.4142L22.3743 14.8711H24.1743V12.3511L14.398 6.70924L4.62182 12.3511ZM18.4537 17.633C18.4902 17.6754 18.5204 17.7228 18.5437 17.7736C18.5858 17.8705 18.5996 17.9774 18.5838 18.0818C18.5678 18.1864 18.5227 18.2842 18.4537 18.3642L14.865 23.753C14.8132 23.8292 14.7436 23.8916 14.6623 23.9347C14.5809 23.9779 14.4902 24.0005 14.398 24.0005C14.306 24.0005 14.2153 23.9779 14.1339 23.9347C14.0524 23.8916 13.983 23.8292 13.9312 23.753L10.3425 18.3642C10.2734 18.2842 10.2284 18.1864 10.2125 18.0818C10.1965 17.9774 10.2104 17.8705 10.2525 17.7736C10.2758 17.7228 10.3061 17.6754 10.3425 17.633L13.9312 12.2442C13.985 12.171 14.0553 12.1115 14.1364 12.0704C14.2176 12.0294 14.3072 12.008 14.398 12.008C14.489 12.008 14.5786 12.0294 14.6598 12.0704C14.7408 12.1115 14.8111 12.171 14.865 12.2442L18.4537 17.633ZM14.623 20.1024L16.4906 19.2868L14.398 22.4255L12.3056 19.2868L14.173 20.1024C14.2443 20.132 14.3209 20.1474 14.398 20.1474C14.4753 20.1474 14.5518 20.132 14.623 20.1024ZM14.398 13.5718L17.188 17.7511L14.398 18.9718L11.6081 17.7511L14.398 13.5718Z" fill="url(#paint0_linear_2224_2)"/>
</g>
<defs>
<linearGradient id="paint0_linear_2224_2" x1="0.684326" y1="17.9993" x2="28.1119" y2="17.9993" gradientUnits="userSpaceOnUse">
<stop stop-color="#E018FF"/>
<stop offset="1" stop-color="#823FFF"/>
</linearGradient>
<clipPath id="clip0_2224_2">
<rect width="124.8" height="36" fill="white"/>
</clipPath>
</defs>
</svg>
