<svg width="150" height="150" viewBox="0 0 150 150" fill="none" xmlns="http://www.w3.org/2000/svg">
<g clip-path="url(#clip0)">
<rect width="150" height="150" fill="white"/>
<path d="M33.808 125C32.752 125 31.84 124.616 31.072 123.848C30.304 123.08 29.92 122.168 29.92 121.112V28.088C29.92 27.032 30.304 26.12 31.072 25.352C31.84 24.584 32.752 24.2 33.808 24.2H75.28C84.4 24.2 92.512 25.736 99.616 28.808C106.72 31.88 112.384 36.392 116.608 42.344C120.832 48.296 123.088 55.448 123.376 63.8C123.568 69.176 123.664 72.824 123.664 74.744C123.664 76.568 123.568 80.072 123.376 85.256C122.8 98.504 118.288 108.44 109.84 115.064C101.488 121.688 90.208 125 76 125H33.808ZM75.28 96.92C78.64 96.92 81.328 95.96 83.344 94.04C85.456 92.024 86.608 89.096 86.8 85.256C86.992 82.472 87.088 78.872 87.088 74.456C87.088 69.944 86.992 66.392 86.8 63.8C86.608 59.96 85.36 57.08 83.056 55.16C80.848 53.24 78.016 52.28 74.56 52.28H65.92V96.92H75.28Z" fill="black"/>
</g>
<defs>
<clipPath id="clip0">
<rect width="150" height="150" fill="white"/>
</clipPath>
</defs>
</svg>
