<?xml version="1.0" encoding="UTF-8"?> <svg xmlns="http://www.w3.org/2000/svg" width="1336" height="1162" viewBox="0 0 1336 1162"> <defs> <style> .cls-1 { fill: #626262; fill-rule: evenodd; } </style> </defs> <path id="_копия_2" data-name="• • • • • • • • • • • • • копия 2" class="cls-1" d="M25.54,11.286a7.225,7.225,0,0,0-10.245,0,6.989,6.989,0,0,0-2.129,5.125,6.988,6.988,0,0,0,2.129,5.125,7.225,7.225,0,0,0,10.245,0,6.99,6.99,0,0,0,2.129-5.125A6.991,6.991,0,0,0,25.54,11.286Zm76.358,0a7.225,7.225,0,0,0-10.245,0,6.989,6.989,0,0,0-2.129,5.125,6.988,6.988,0,0,0,2.129,5.125,7.225,7.225,0,0,0,10.245,0,6.989,6.989,0,0,0,2.129-5.125A6.99,6.99,0,0,0,101.9,11.286Zm76.359,0a7.225,7.225,0,0,0-10.245,0,6.987,6.987,0,0,0-2.129,5.125,6.985,6.985,0,0,0,2.129,5.125,7.225,7.225,0,0,0,10.245,0,6.989,6.989,0,0,0,2.129-5.125A6.99,6.99,0,0,0,178.257,11.286Zm76.358,0a7.225,7.225,0,0,0-10.245,0,6.99,6.99,0,0,0-2.128,5.125,6.988,6.988,0,0,0,2.128,5.125,7.225,7.225,0,0,0,10.245,0,6.989,6.989,0,0,0,2.129-5.125A6.99,6.99,0,0,0,254.615,11.286Zm76.359,0a7.225,7.225,0,0,0-10.245,0,6.99,6.99,0,0,0-2.129,5.125,6.989,6.989,0,0,0,2.129,5.125,7.225,7.225,0,0,0,10.245,0,6.989,6.989,0,0,0,2.129-5.125A6.99,6.99,0,0,0,330.974,11.286Zm76.359,0a7.226,7.226,0,0,0-10.246,0,6.99,6.99,0,0,0-2.128,5.125,6.988,6.988,0,0,0,2.128,5.125,7.226,7.226,0,0,0,10.246,0,6.992,6.992,0,0,0,2.128-5.125A6.993,6.993,0,0,0,407.333,11.286Zm76.358,0a7.225,7.225,0,0,0-10.245,0,6.99,6.99,0,0,0-2.129,5.125,6.989,6.989,0,0,0,2.129,5.125,7.225,7.225,0,0,0,10.245,0,6.989,6.989,0,0,0,2.129-5.125A6.99,6.99,0,0,0,483.691,11.286Zm76.359,0a7.226,7.226,0,0,0-10.246,0,6.99,6.99,0,0,0-2.128,5.125,6.988,6.988,0,0,0,2.128,5.125,7.226,7.226,0,0,0,10.246,0,6.992,6.992,0,0,0,2.128-5.125A6.993,6.993,0,0,0,560.05,11.286Zm76.358,0a7.225,7.225,0,0,0-10.245,0,6.99,6.99,0,0,0-2.129,5.125,6.989,6.989,0,0,0,2.129,5.125,7.225,7.225,0,0,0,10.245,0,6.989,6.989,0,0,0,2.129-5.125A6.99,6.99,0,0,0,636.408,11.286Zm76.359,0a7.225,7.225,0,0,0-10.245,0,6.987,6.987,0,0,0-2.129,5.125,6.985,6.985,0,0,0,2.129,5.125,7.225,7.225,0,0,0,10.245,0,6.988,6.988,0,0,0,2.128-5.125A6.99,6.99,0,0,0,712.767,11.286Zm76.358,0a7.225,7.225,0,0,0-10.245,0,6.99,6.99,0,0,0-2.129,5.125,6.989,6.989,0,0,0,2.129,5.125,7.225,7.225,0,0,0,10.245,0,6.989,6.989,0,0,0,2.129-5.125A6.99,6.99,0,0,0,789.125,11.286Zm76.359,0a7.225,7.225,0,0,0-10.245,0,6.987,6.987,0,0,0-2.129,5.125,6.985,6.985,0,0,0,2.129,5.125,7.225,7.225,0,0,0,10.245,0,6.989,6.989,0,0,0,2.129-5.125A6.99,6.99,0,0,0,865.484,11.286Zm76.358,0a7.225,7.225,0,0,0-10.245,0,6.99,6.99,0,0,0-2.129,5.125,6.989,6.989,0,0,0,2.129,5.125,7.225,7.225,0,0,0,10.245,0,6.989,6.989,0,0,0,2.129-5.125A6.99,6.99,0,0,0,941.842,11.286Zm76.358,0a7.219,7.219,0,0,0-10.24,0,6.988,6.988,0,0,0-2.13,5.125,6.986,6.986,0,0,0,2.13,5.125,7.219,7.219,0,0,0,10.24,0,6.986,6.986,0,0,0,2.13-5.125A6.988,6.988,0,0,0,1018.2,11.286Zm76.36,0a7.231,7.231,0,0,0-10.25,0,7.017,7.017,0,0,0-2.12,5.125,7.255,7.255,0,0,0,7.25,7.255,6.986,6.986,0,0,0,5.12-2.13,6.986,6.986,0,0,0,2.13-5.125A6.988,6.988,0,0,0,1094.56,11.286Zm76.36,0a7.231,7.231,0,0,0-10.25,0,6.988,6.988,0,0,0-2.13,5.125,7.272,7.272,0,0,0,7.26,7.255,6.986,6.986,0,0,0,5.12-2.13,6.986,6.986,0,0,0,2.13-5.125A6.988,6.988,0,0,0,1170.92,11.286Zm76.36,0a7.255,7.255,0,0,0-12.38,5.125,6.986,6.986,0,0,0,2.13,5.125,7.231,7.231,0,0,0,10.25,0,6.986,6.986,0,0,0,2.13-5.125A6.988,6.988,0,0,0,1247.28,11.286Zm76.36,0a7.255,7.255,0,0,0-12.38,5.125,6.986,6.986,0,0,0,2.13,5.125,7.231,7.231,0,0,0,10.25,0,7.016,7.016,0,0,0,2.12-5.125A7.017,7.017,0,0,0,1323.64,11.286ZM25.54,86.331a7.225,7.225,0,0,0-10.245,0,7.255,7.255,0,0,0,5.123,12.381A7.249,7.249,0,0,0,25.54,86.331Zm76.358,0a7.234,7.234,0,1,0,2.129,5.125A6.982,6.982,0,0,0,101.9,86.331Zm76.359,0a7.234,7.234,0,1,0,2.129,5.125A6.983,6.983,0,0,0,178.257,86.331Zm76.358,0a7.234,7.234,0,1,0,2.129,5.125A6.983,6.983,0,0,0,254.615,86.331Zm76.359,0a7.234,7.234,0,1,0,2.129,5.125A6.983,6.983,0,0,0,330.974,86.331Zm76.359,0a7.236,7.236,0,1,0,2.128,5.125A6.985,6.985,0,0,0,407.333,86.331Zm76.358,0a7.234,7.234,0,1,0,2.129,5.125A6.983,6.983,0,0,0,483.691,86.331Zm76.359,0a7.236,7.236,0,1,0,2.128,5.125A6.985,6.985,0,0,0,560.05,86.331Zm76.358,0a7.234,7.234,0,1,0,2.129,5.125A6.983,6.983,0,0,0,636.408,86.331Zm76.359,0a7.236,7.236,0,1,0,2.128,5.125A6.985,6.985,0,0,0,712.767,86.331Zm76.358,0a7.234,7.234,0,1,0,2.129,5.125A6.983,6.983,0,0,0,789.125,86.331Zm76.359,0a7.234,7.234,0,1,0,2.129,5.125A6.983,6.983,0,0,0,865.484,86.331Zm76.358,0a7.234,7.234,0,1,0,2.129,5.125A6.983,6.983,0,0,0,941.842,86.331Zm76.358,0a7.232,7.232,0,1,0,2.13,5.125A6.988,6.988,0,0,0,1018.2,86.331Zm76.36,0a7.232,7.232,0,1,0,2.13,5.125A6.988,6.988,0,0,0,1094.56,86.331Zm76.36,0a7.232,7.232,0,1,0,2.13,5.125A6.988,6.988,0,0,0,1170.92,86.331Zm76.36,0a7.232,7.232,0,1,0,2.13,5.125A6.994,6.994,0,0,0,1247.28,86.331Zm76.36,0a7.256,7.256,0,1,0,2.12,5.125A6.994,6.994,0,0,0,1323.64,86.331ZM25.54,161.375a7.225,7.225,0,0,0-10.245,0,7.256,7.256,0,0,0,5.123,12.381A7.249,7.249,0,0,0,25.54,161.375Zm76.358,0a7.234,7.234,0,1,0,2.129,5.126A6.985,6.985,0,0,0,101.9,161.375Zm76.359,0a7.234,7.234,0,1,0,2.129,5.126A6.986,6.986,0,0,0,178.257,161.375Zm76.358,0a7.234,7.234,0,1,0,2.129,5.126A6.985,6.985,0,0,0,254.615,161.375Zm76.359,0A7.234,7.234,0,1,0,333.1,166.5,6.986,6.986,0,0,0,330.974,161.375Zm76.359,0a7.237,7.237,0,1,0,2.128,5.126A6.987,6.987,0,0,0,407.333,161.375Zm76.358,0a7.234,7.234,0,1,0,2.129,5.126A6.985,6.985,0,0,0,483.691,161.375Zm76.359,0a7.237,7.237,0,1,0,2.128,5.126A6.987,6.987,0,0,0,560.05,161.375Zm76.358,0a7.234,7.234,0,1,0,2.129,5.126A6.985,6.985,0,0,0,636.408,161.375Zm76.359,0A7.237,7.237,0,1,0,714.9,166.5,6.987,6.987,0,0,0,712.767,161.375Zm76.358,0a7.234,7.234,0,1,0,2.129,5.126A6.985,6.985,0,0,0,789.125,161.375Zm76.359,0a7.234,7.234,0,1,0,2.129,5.126A6.986,6.986,0,0,0,865.484,161.375Zm76.358,0a7.234,7.234,0,1,0,2.129,5.126A6.985,6.985,0,0,0,941.842,161.375Zm76.358,0a7.232,7.232,0,1,0,2.13,5.126A6.99,6.99,0,0,0,1018.2,161.375Zm76.36,0a7.232,7.232,0,1,0,2.13,5.126A6.99,6.99,0,0,0,1094.56,161.375Zm76.36,0a7.232,7.232,0,1,0,2.13,5.126A6.99,6.99,0,0,0,1170.92,161.375Zm76.36,0a7.232,7.232,0,1,0,2.13,5.126A7,7,0,0,0,1247.28,161.375Zm76.36,0a7.256,7.256,0,1,0,2.12,5.126A7,7,0,0,0,1323.64,161.375ZM25.54,236.42a7.225,7.225,0,0,0-10.245,0,7.255,7.255,0,0,0,5.123,12.38A7.249,7.249,0,0,0,25.54,236.42Zm76.358,0a7.234,7.234,0,1,0,2.129,5.125A6.981,6.981,0,0,0,101.9,236.42Zm76.359,0a7.234,7.234,0,1,0,2.129,5.125A6.982,6.982,0,0,0,178.257,236.42Zm76.358,0a7.234,7.234,0,1,0,2.129,5.125A6.981,6.981,0,0,0,254.615,236.42Zm76.359,0a7.234,7.234,0,1,0,2.129,5.125A6.982,6.982,0,0,0,330.974,236.42Zm76.359,0a7.237,7.237,0,1,0,2.128,5.125A6.983,6.983,0,0,0,407.333,236.42Zm76.358,0a7.234,7.234,0,1,0,2.129,5.125A6.981,6.981,0,0,0,483.691,236.42Zm76.359,0a7.237,7.237,0,1,0,2.128,5.125A6.983,6.983,0,0,0,560.05,236.42Zm76.358,0a7.234,7.234,0,1,0,2.129,5.125A6.981,6.981,0,0,0,636.408,236.42Zm76.359,0a7.237,7.237,0,1,0,2.128,5.125A6.983,6.983,0,0,0,712.767,236.42Zm76.358,0a7.234,7.234,0,1,0,2.129,5.125A6.981,6.981,0,0,0,789.125,236.42Zm76.359,0a7.234,7.234,0,1,0,2.129,5.125A6.982,6.982,0,0,0,865.484,236.42Zm76.358,0a7.234,7.234,0,1,0,2.129,5.125A6.981,6.981,0,0,0,941.842,236.42Zm76.358,0a7.232,7.232,0,1,0,2.13,5.125A6.986,6.986,0,0,0,1018.2,236.42Zm76.36,0a7.232,7.232,0,1,0,2.13,5.125A6.986,6.986,0,0,0,1094.56,236.42Zm76.36,0a7.232,7.232,0,1,0,2.13,5.125A6.986,6.986,0,0,0,1170.92,236.42Zm76.36,0a7.232,7.232,0,1,0,2.13,5.125A6.993,6.993,0,0,0,1247.28,236.42Zm76.36,0a7.256,7.256,0,1,0,2.12,5.125A6.993,6.993,0,0,0,1323.64,236.42ZM25.54,1061.91a7.225,7.225,0,0,0-10.245,0,7.255,7.255,0,0,0,5.123,12.38A7.249,7.249,0,0,0,25.54,1061.91Zm76.358,0a7.233,7.233,0,1,0,2.129,5.12A6.981,6.981,0,0,0,101.9,1061.91Zm76.359,0a7.233,7.233,0,1,0,2.129,5.12A6.982,6.982,0,0,0,178.257,1061.91Zm76.358,0a7.233,7.233,0,1,0,2.129,5.12A6.981,6.981,0,0,0,254.615,1061.91Zm76.359,0a7.233,7.233,0,1,0,2.129,5.12A6.982,6.982,0,0,0,330.974,1061.91Zm76.359,0a7.235,7.235,0,1,0,2.128,5.12A6.983,6.983,0,0,0,407.333,1061.91Zm76.358,0a7.233,7.233,0,1,0,2.129,5.12A6.981,6.981,0,0,0,483.691,1061.91Zm76.359,0a7.235,7.235,0,1,0,2.128,5.12A6.983,6.983,0,0,0,560.05,1061.91Zm76.358,0a7.233,7.233,0,1,0,2.129,5.12A6.981,6.981,0,0,0,636.408,1061.91Zm76.359,0a7.235,7.235,0,1,0,2.128,5.12A6.983,6.983,0,0,0,712.767,1061.91Zm76.358,0a7.233,7.233,0,1,0,2.129,5.12A6.981,6.981,0,0,0,789.125,1061.91Zm76.359,0a7.233,7.233,0,1,0,2.129,5.12A6.982,6.982,0,0,0,865.484,1061.91Zm76.358,0a7.233,7.233,0,1,0,2.129,5.12A6.981,6.981,0,0,0,941.842,1061.91Zm76.358,0a7.231,7.231,0,1,0,2.13,5.12A6.986,6.986,0,0,0,1018.2,1061.91Zm76.36,0a7.231,7.231,0,1,0,2.13,5.12A6.986,6.986,0,0,0,1094.56,1061.91Zm76.36,0a7.231,7.231,0,1,0,2.13,5.12A6.986,6.986,0,0,0,1170.92,1061.91Zm76.36,0a7.231,7.231,0,1,0,2.13,5.12A6.993,6.993,0,0,0,1247.28,1061.91Zm76.36,0a7.255,7.255,0,1,0,2.12,5.12A6.993,6.993,0,0,0,1323.64,1061.91ZM25.54,1136.95a7.225,7.225,0,0,0-10.245,0,7.255,7.255,0,0,0,5.123,12.38A7.249,7.249,0,0,0,25.54,1136.95Zm76.358,0a7.233,7.233,0,1,0,2.129,5.13A6.981,6.981,0,0,0,101.9,1136.95Zm76.359,0a7.233,7.233,0,1,0,2.129,5.13A6.982,6.982,0,0,0,178.257,1136.95Zm76.358,0a7.233,7.233,0,1,0,2.129,5.13A6.981,6.981,0,0,0,254.615,1136.95Zm76.359,0a7.233,7.233,0,1,0,2.129,5.13A6.982,6.982,0,0,0,330.974,1136.95Zm76.359,0a7.235,7.235,0,1,0,2.128,5.13A6.983,6.983,0,0,0,407.333,1136.95Zm76.358,0a7.233,7.233,0,1,0,2.129,5.13A6.981,6.981,0,0,0,483.691,1136.95Zm76.359,0a7.235,7.235,0,1,0,2.128,5.13A6.983,6.983,0,0,0,560.05,1136.95Zm76.358,0a7.233,7.233,0,1,0,2.129,5.13A6.981,6.981,0,0,0,636.408,1136.95Zm76.359,0a7.235,7.235,0,1,0,2.128,5.13A6.983,6.983,0,0,0,712.767,1136.95Zm76.358,0a7.233,7.233,0,1,0,2.129,5.13A6.981,6.981,0,0,0,789.125,1136.95Zm76.359,0a7.233,7.233,0,1,0,2.129,5.13A6.982,6.982,0,0,0,865.484,1136.95Zm76.358,0a7.233,7.233,0,1,0,2.129,5.13A6.981,6.981,0,0,0,941.842,1136.95Zm76.358,0a7.231,7.231,0,1,0,2.13,5.13A6.986,6.986,0,0,0,1018.2,1136.95Zm76.36,0a7.231,7.231,0,1,0,2.13,5.13A6.986,6.986,0,0,0,1094.56,1136.95Zm76.36,0a7.231,7.231,0,1,0,2.13,5.13A6.986,6.986,0,0,0,1170.92,1136.95Zm76.36,0a7.231,7.231,0,1,0,2.13,5.13A6.993,6.993,0,0,0,1247.28,1136.95Zm76.36,0a7.255,7.255,0,1,0,2.12,5.13A6.993,6.993,0,0,0,1323.64,1136.95ZM25.54,911.82a7.225,7.225,0,0,0-10.245,0,7.255,7.255,0,0,0,5.123,12.38A7.249,7.249,0,0,0,25.54,911.82Zm76.358,0a7.233,7.233,0,1,0,2.129,5.125A6.981,6.981,0,0,0,101.9,911.82Zm76.359,0a7.233,7.233,0,1,0,2.129,5.125A6.982,6.982,0,0,0,178.257,911.82Zm76.358,0a7.233,7.233,0,1,0,2.129,5.125A6.981,6.981,0,0,0,254.615,911.82Zm76.359,0a7.233,7.233,0,1,0,2.129,5.125A6.982,6.982,0,0,0,330.974,911.82Zm76.359,0a7.235,7.235,0,1,0,2.128,5.125A6.983,6.983,0,0,0,407.333,911.82Zm76.358,0a7.233,7.233,0,1,0,2.129,5.125A6.981,6.981,0,0,0,483.691,911.82Zm76.359,0a7.235,7.235,0,1,0,2.128,5.125A6.983,6.983,0,0,0,560.05,911.82Zm76.358,0a7.233,7.233,0,1,0,2.129,5.125A6.981,6.981,0,0,0,636.408,911.82Zm76.359,0a7.235,7.235,0,1,0,2.128,5.125A6.983,6.983,0,0,0,712.767,911.82Zm76.358,0a7.233,7.233,0,1,0,2.129,5.125A6.981,6.981,0,0,0,789.125,911.82Zm76.359,0a7.233,7.233,0,1,0,2.129,5.125A6.982,6.982,0,0,0,865.484,911.82Zm76.358,0a7.233,7.233,0,1,0,2.129,5.125A6.981,6.981,0,0,0,941.842,911.82Zm76.358,0a7.231,7.231,0,1,0,2.13,5.125A6.986,6.986,0,0,0,1018.2,911.82Zm76.36,0a7.231,7.231,0,1,0,2.13,5.125A6.986,6.986,0,0,0,1094.56,911.82Zm76.36,0a7.231,7.231,0,1,0,2.13,5.125A6.986,6.986,0,0,0,1170.92,911.82Zm76.36,0a7.231,7.231,0,1,0,2.13,5.125A6.993,6.993,0,0,0,1247.28,911.82Zm76.36,0a7.255,7.255,0,1,0,2.12,5.125A6.993,6.993,0,0,0,1323.64,911.82ZM25.54,986.864a7.225,7.225,0,0,0-10.245,0,7.256,7.256,0,0,0,5.123,12.381A7.249,7.249,0,0,0,25.54,986.864Zm76.358,0a7.234,7.234,0,1,0,2.129,5.125A6.981,6.981,0,0,0,101.9,986.864Zm76.359,0a7.234,7.234,0,1,0,2.129,5.125A6.982,6.982,0,0,0,178.257,986.864Zm76.358,0a7.234,7.234,0,1,0,2.129,5.125A6.981,6.981,0,0,0,254.615,986.864Zm76.359,0a7.234,7.234,0,1,0,2.129,5.125A6.982,6.982,0,0,0,330.974,986.864Zm76.359,0a7.237,7.237,0,1,0,2.128,5.125A6.983,6.983,0,0,0,407.333,986.864Zm76.358,0a7.234,7.234,0,1,0,2.129,5.125A6.981,6.981,0,0,0,483.691,986.864Zm76.359,0a7.237,7.237,0,1,0,2.128,5.125A6.983,6.983,0,0,0,560.05,986.864Zm76.358,0a7.234,7.234,0,1,0,2.129,5.125A6.981,6.981,0,0,0,636.408,986.864Zm76.359,0a7.237,7.237,0,1,0,2.128,5.125A6.983,6.983,0,0,0,712.767,986.864Zm76.358,0a7.234,7.234,0,1,0,2.129,5.125A6.981,6.981,0,0,0,789.125,986.864Zm76.359,0a7.234,7.234,0,1,0,2.129,5.125A6.982,6.982,0,0,0,865.484,986.864Zm76.358,0a7.234,7.234,0,1,0,2.129,5.125A6.981,6.981,0,0,0,941.842,986.864Zm76.358,0a7.232,7.232,0,1,0,2.13,5.125A6.986,6.986,0,0,0,1018.2,986.864Zm76.36,0a7.232,7.232,0,1,0,2.13,5.125A6.986,6.986,0,0,0,1094.56,986.864Zm76.36,0a7.232,7.232,0,1,0,2.13,5.125A6.986,6.986,0,0,0,1170.92,986.864Zm76.36,0a7.232,7.232,0,1,0,2.13,5.125A6.993,6.993,0,0,0,1247.28,986.864Zm76.36,0a7.256,7.256,0,1,0,2.12,5.125A6.993,6.993,0,0,0,1323.64,986.864ZM25.54,761.731a7.225,7.225,0,0,0-10.245,0,7.255,7.255,0,0,0,5.123,12.38A7.249,7.249,0,0,0,25.54,761.731Zm76.358,0a7.234,7.234,0,1,0,2.129,5.125A6.981,6.981,0,0,0,101.9,761.731Zm76.359,0a7.234,7.234,0,1,0,2.129,5.125A6.982,6.982,0,0,0,178.257,761.731Zm76.358,0a7.234,7.234,0,1,0,2.129,5.125A6.981,6.981,0,0,0,254.615,761.731Zm76.359,0a7.234,7.234,0,1,0,2.129,5.125A6.982,6.982,0,0,0,330.974,761.731Zm76.359,0a7.237,7.237,0,1,0,2.128,5.125A6.983,6.983,0,0,0,407.333,761.731Zm76.358,0a7.234,7.234,0,1,0,2.129,5.125A6.981,6.981,0,0,0,483.691,761.731Zm76.359,0a7.237,7.237,0,1,0,2.128,5.125A6.983,6.983,0,0,0,560.05,761.731Zm76.358,0a7.234,7.234,0,1,0,2.129,5.125A6.981,6.981,0,0,0,636.408,761.731Zm76.359,0a7.237,7.237,0,1,0,2.128,5.125A6.983,6.983,0,0,0,712.767,761.731Zm76.358,0a7.234,7.234,0,1,0,2.129,5.125A6.981,6.981,0,0,0,789.125,761.731Zm76.359,0a7.234,7.234,0,1,0,2.129,5.125A6.982,6.982,0,0,0,865.484,761.731Zm76.358,0a7.234,7.234,0,1,0,2.129,5.125A6.981,6.981,0,0,0,941.842,761.731Zm76.358,0a7.232,7.232,0,1,0,2.13,5.125A6.986,6.986,0,0,0,1018.2,761.731Zm76.36,0a7.232,7.232,0,1,0,2.13,5.125A6.986,6.986,0,0,0,1094.56,761.731Zm76.36,0a7.232,7.232,0,1,0,2.13,5.125A6.986,6.986,0,0,0,1170.92,761.731Zm76.36,0a7.232,7.232,0,1,0,2.13,5.125A6.993,6.993,0,0,0,1247.28,761.731Zm76.36,0a7.256,7.256,0,1,0,2.12,5.125A6.993,6.993,0,0,0,1323.64,761.731ZM25.54,836.775a7.225,7.225,0,0,0-10.245,0,7.256,7.256,0,0,0,5.123,12.381A7.249,7.249,0,0,0,25.54,836.775Zm76.358,0a7.234,7.234,0,1,0,2.129,5.126A6.985,6.985,0,0,0,101.9,836.775Zm76.359,0a7.234,7.234,0,1,0,2.129,5.126A6.986,6.986,0,0,0,178.257,836.775Zm76.358,0a7.234,7.234,0,1,0,2.129,5.126A6.985,6.985,0,0,0,254.615,836.775Zm76.359,0A7.234,7.234,0,1,0,333.1,841.9,6.986,6.986,0,0,0,330.974,836.775Zm76.359,0a7.237,7.237,0,1,0,2.128,5.126A6.987,6.987,0,0,0,407.333,836.775Zm76.358,0a7.234,7.234,0,1,0,2.129,5.126A6.985,6.985,0,0,0,483.691,836.775Zm76.359,0a7.237,7.237,0,1,0,2.128,5.126A6.987,6.987,0,0,0,560.05,836.775Zm76.358,0a7.234,7.234,0,1,0,2.129,5.126A6.985,6.985,0,0,0,636.408,836.775Zm76.359,0A7.237,7.237,0,1,0,714.9,841.9,6.987,6.987,0,0,0,712.767,836.775Zm76.358,0a7.234,7.234,0,1,0,2.129,5.126A6.985,6.985,0,0,0,789.125,836.775Zm76.359,0a7.234,7.234,0,1,0,2.129,5.126A6.986,6.986,0,0,0,865.484,836.775Zm76.358,0a7.234,7.234,0,1,0,2.129,5.126A6.985,6.985,0,0,0,941.842,836.775Zm76.358,0a7.232,7.232,0,1,0,2.13,5.126A6.99,6.99,0,0,0,1018.2,836.775Zm76.36,0a7.232,7.232,0,1,0,2.13,5.126A6.99,6.99,0,0,0,1094.56,836.775Zm76.36,0a7.232,7.232,0,1,0,2.13,5.126A6.99,6.99,0,0,0,1170.92,836.775Zm76.36,0a7.232,7.232,0,1,0,2.13,5.126A7,7,0,0,0,1247.28,836.775Zm76.36,0a7.256,7.256,0,1,0,2.12,5.126A7,7,0,0,0,1323.64,836.775ZM25.54,611.642a7.225,7.225,0,0,0-10.245,0,7.256,7.256,0,0,0,5.123,12.381A7.249,7.249,0,0,0,25.54,611.642Zm76.358,0a7.234,7.234,0,1,0,2.129,5.125A6.981,6.981,0,0,0,101.9,611.642Zm76.359,0a7.234,7.234,0,1,0,2.129,5.125A6.982,6.982,0,0,0,178.257,611.642Zm76.358,0a7.234,7.234,0,1,0,2.129,5.125A6.981,6.981,0,0,0,254.615,611.642Zm76.359,0a7.234,7.234,0,1,0,2.129,5.125A6.982,6.982,0,0,0,330.974,611.642Zm76.359,0a7.237,7.237,0,1,0,2.128,5.125A6.983,6.983,0,0,0,407.333,611.642Zm76.358,0a7.234,7.234,0,1,0,2.129,5.125A6.981,6.981,0,0,0,483.691,611.642Zm76.359,0a7.237,7.237,0,1,0,2.128,5.125A6.983,6.983,0,0,0,560.05,611.642Zm76.358,0a7.234,7.234,0,1,0,2.129,5.125A6.981,6.981,0,0,0,636.408,611.642Zm76.359,0a7.237,7.237,0,1,0,2.128,5.125A6.983,6.983,0,0,0,712.767,611.642Zm76.358,0a7.234,7.234,0,1,0,2.129,5.125A6.981,6.981,0,0,0,789.125,611.642Zm76.359,0a7.234,7.234,0,1,0,2.129,5.125A6.982,6.982,0,0,0,865.484,611.642Zm76.358,0a7.234,7.234,0,1,0,2.129,5.125A6.981,6.981,0,0,0,941.842,611.642Zm76.358,0a7.232,7.232,0,1,0,2.13,5.125A6.986,6.986,0,0,0,1018.2,611.642Zm76.36,0a7.232,7.232,0,1,0,2.13,5.125A6.986,6.986,0,0,0,1094.56,611.642Zm76.36,0a7.232,7.232,0,1,0,2.13,5.125A6.986,6.986,0,0,0,1170.92,611.642Zm76.36,0a7.232,7.232,0,1,0,2.13,5.125A6.993,6.993,0,0,0,1247.28,611.642Zm76.36,0a7.256,7.256,0,1,0,2.12,5.125A6.993,6.993,0,0,0,1323.64,611.642ZM25.54,686.686a7.225,7.225,0,0,0-10.245,0,7.256,7.256,0,0,0,5.123,12.381A7.249,7.249,0,0,0,25.54,686.686Zm76.358,0a7.234,7.234,0,1,0,2.129,5.126A6.985,6.985,0,0,0,101.9,686.686Zm76.359,0a7.234,7.234,0,1,0,2.129,5.126A6.986,6.986,0,0,0,178.257,686.686Zm76.358,0a7.234,7.234,0,1,0,2.129,5.126A6.985,6.985,0,0,0,254.615,686.686Zm76.359,0a7.234,7.234,0,1,0,2.129,5.126A6.986,6.986,0,0,0,330.974,686.686Zm76.359,0a7.237,7.237,0,1,0,2.128,5.126A6.987,6.987,0,0,0,407.333,686.686Zm76.358,0a7.234,7.234,0,1,0,2.129,5.126A6.985,6.985,0,0,0,483.691,686.686Zm76.359,0a7.237,7.237,0,1,0,2.128,5.126A6.987,6.987,0,0,0,560.05,686.686Zm76.358,0a7.234,7.234,0,1,0,2.129,5.126A6.985,6.985,0,0,0,636.408,686.686Zm76.359,0a7.237,7.237,0,1,0,2.128,5.126A6.987,6.987,0,0,0,712.767,686.686Zm76.358,0a7.234,7.234,0,1,0,2.129,5.126A6.985,6.985,0,0,0,789.125,686.686Zm76.359,0a7.234,7.234,0,1,0,2.129,5.126A6.986,6.986,0,0,0,865.484,686.686Zm76.358,0a7.234,7.234,0,1,0,2.129,5.126A6.985,6.985,0,0,0,941.842,686.686Zm76.358,0a7.232,7.232,0,1,0,2.13,5.126A6.99,6.99,0,0,0,1018.2,686.686Zm76.36,0a7.232,7.232,0,1,0,2.13,5.126A6.99,6.99,0,0,0,1094.56,686.686Zm76.36,0a7.232,7.232,0,1,0,2.13,5.126A6.99,6.99,0,0,0,1170.92,686.686Zm76.36,0a7.232,7.232,0,1,0,2.13,5.126A7,7,0,0,0,1247.28,686.686Zm76.36,0a7.256,7.256,0,1,0,2.12,5.126A7,7,0,0,0,1323.64,686.686ZM25.54,461.553a7.225,7.225,0,0,0-10.245,0,7.256,7.256,0,0,0,5.123,12.381A7.249,7.249,0,0,0,25.54,461.553Zm76.358,0a7.234,7.234,0,1,0,2.129,5.125A6.981,6.981,0,0,0,101.9,461.553Zm76.359,0a7.234,7.234,0,1,0,2.129,5.125A6.982,6.982,0,0,0,178.257,461.553Zm76.358,0a7.234,7.234,0,1,0,2.129,5.125A6.981,6.981,0,0,0,254.615,461.553Zm76.359,0a7.234,7.234,0,1,0,2.129,5.125A6.982,6.982,0,0,0,330.974,461.553Zm76.359,0a7.237,7.237,0,1,0,2.128,5.125A6.983,6.983,0,0,0,407.333,461.553Zm76.358,0a7.234,7.234,0,1,0,2.129,5.125A6.981,6.981,0,0,0,483.691,461.553Zm76.359,0a7.237,7.237,0,1,0,2.128,5.125A6.983,6.983,0,0,0,560.05,461.553Zm76.358,0a7.234,7.234,0,1,0,2.129,5.125A6.981,6.981,0,0,0,636.408,461.553Zm76.359,0a7.237,7.237,0,1,0,2.128,5.125A6.983,6.983,0,0,0,712.767,461.553Zm76.358,0a7.234,7.234,0,1,0,2.129,5.125A6.981,6.981,0,0,0,789.125,461.553Zm76.359,0a7.234,7.234,0,1,0,2.129,5.125A6.982,6.982,0,0,0,865.484,461.553Zm76.358,0a7.234,7.234,0,1,0,2.129,5.125A6.981,6.981,0,0,0,941.842,461.553Zm76.358,0a7.232,7.232,0,1,0,2.13,5.125A6.986,6.986,0,0,0,1018.2,461.553Zm76.36,0a7.232,7.232,0,1,0,2.13,5.125A6.986,6.986,0,0,0,1094.56,461.553Zm76.36,0a7.232,7.232,0,1,0,2.13,5.125A6.986,6.986,0,0,0,1170.92,461.553Zm76.36,0a7.232,7.232,0,1,0,2.13,5.125A6.993,6.993,0,0,0,1247.28,461.553Zm76.36,0a7.256,7.256,0,1,0,2.12,5.125A6.993,6.993,0,0,0,1323.64,461.553ZM25.54,536.6a7.227,7.227,0,0,0-10.245,0,7.256,7.256,0,0,0,5.123,12.381A7.249,7.249,0,0,0,25.54,536.6Zm76.358,0a7.234,7.234,0,1,0,2.129,5.126A6.984,6.984,0,0,0,101.9,536.6Zm76.359,0a7.234,7.234,0,1,0,2.129,5.126A6.985,6.985,0,0,0,178.257,536.6Zm76.358,0a7.234,7.234,0,1,0,2.129,5.126A6.984,6.984,0,0,0,254.615,536.6Zm76.359,0a7.234,7.234,0,1,0,2.129,5.126A6.985,6.985,0,0,0,330.974,536.6Zm76.359,0a7.237,7.237,0,1,0,2.128,5.126A6.986,6.986,0,0,0,407.333,536.6Zm76.358,0a7.234,7.234,0,1,0,2.129,5.126A6.984,6.984,0,0,0,483.691,536.6Zm76.359,0a7.237,7.237,0,1,0,2.128,5.126A6.986,6.986,0,0,0,560.05,536.6Zm76.358,0a7.234,7.234,0,1,0,2.129,5.126A6.984,6.984,0,0,0,636.408,536.6Zm76.359,0a7.237,7.237,0,1,0,2.128,5.126A6.986,6.986,0,0,0,712.767,536.6Zm76.358,0a7.234,7.234,0,1,0,2.129,5.126A6.984,6.984,0,0,0,789.125,536.6Zm76.359,0a7.234,7.234,0,1,0,2.129,5.126A6.985,6.985,0,0,0,865.484,536.6Zm76.358,0a7.234,7.234,0,1,0,2.129,5.126A6.984,6.984,0,0,0,941.842,536.6Zm76.358,0a7.232,7.232,0,1,0,2.13,5.126A6.989,6.989,0,0,0,1018.2,536.6Zm76.36,0a7.232,7.232,0,1,0,2.13,5.126A6.989,6.989,0,0,0,1094.56,536.6Zm76.36,0a7.232,7.232,0,1,0,2.13,5.126A6.989,6.989,0,0,0,1170.92,536.6Zm76.36,0a7.232,7.232,0,1,0,2.13,5.126A7,7,0,0,0,1247.28,536.6Zm76.36,0a7.256,7.256,0,1,0,2.12,5.126A7,7,0,0,0,1323.64,536.6ZM25.54,311.464a7.225,7.225,0,0,0-10.245,0,7.256,7.256,0,0,0,5.123,12.381A7.249,7.249,0,0,0,25.54,311.464Zm76.358,0a7.234,7.234,0,1,0,2.129,5.125A6.985,6.985,0,0,0,101.9,311.464Zm76.359,0a7.234,7.234,0,1,0,2.129,5.125A6.986,6.986,0,0,0,178.257,311.464Zm76.358,0a7.234,7.234,0,1,0,2.129,5.125A6.985,6.985,0,0,0,254.615,311.464Zm76.359,0a7.234,7.234,0,1,0,2.129,5.125A6.986,6.986,0,0,0,330.974,311.464Zm76.359,0a7.237,7.237,0,1,0,2.128,5.125A6.987,6.987,0,0,0,407.333,311.464Zm76.358,0a7.234,7.234,0,1,0,2.129,5.125A6.985,6.985,0,0,0,483.691,311.464Zm76.359,0a7.237,7.237,0,1,0,2.128,5.125A6.987,6.987,0,0,0,560.05,311.464Zm76.358,0a7.234,7.234,0,1,0,2.129,5.125A6.985,6.985,0,0,0,636.408,311.464Zm76.359,0a7.237,7.237,0,1,0,2.128,5.125A6.987,6.987,0,0,0,712.767,311.464Zm76.358,0a7.234,7.234,0,1,0,2.129,5.125A6.985,6.985,0,0,0,789.125,311.464Zm76.359,0a7.234,7.234,0,1,0,2.129,5.125A6.986,6.986,0,0,0,865.484,311.464Zm76.358,0a7.234,7.234,0,1,0,2.129,5.125A6.985,6.985,0,0,0,941.842,311.464Zm76.358,0a7.232,7.232,0,1,0,2.13,5.125A6.99,6.99,0,0,0,1018.2,311.464Zm76.36,0a7.232,7.232,0,1,0,2.13,5.125A6.99,6.99,0,0,0,1094.56,311.464Zm76.36,0a7.232,7.232,0,1,0,2.13,5.125A6.99,6.99,0,0,0,1170.92,311.464Zm76.36,0a7.232,7.232,0,1,0,2.13,5.125A7,7,0,0,0,1247.28,311.464Zm76.36,0a7.256,7.256,0,1,0,2.12,5.125A7,7,0,0,0,1323.64,311.464ZM25.54,386.509a7.225,7.225,0,0,0-10.245,0,7.255,7.255,0,0,0,5.123,12.38A7.249,7.249,0,0,0,25.54,386.509Zm76.358,0a7.233,7.233,0,1,0,2.129,5.125A6.981,6.981,0,0,0,101.9,386.509Zm76.359,0a7.233,7.233,0,1,0,2.129,5.125A6.982,6.982,0,0,0,178.257,386.509Zm76.358,0a7.233,7.233,0,1,0,2.129,5.125A6.981,6.981,0,0,0,254.615,386.509Zm76.359,0a7.233,7.233,0,1,0,2.129,5.125A6.982,6.982,0,0,0,330.974,386.509Zm76.359,0a7.235,7.235,0,1,0,2.128,5.125A6.983,6.983,0,0,0,407.333,386.509Zm76.358,0a7.233,7.233,0,1,0,2.129,5.125A6.981,6.981,0,0,0,483.691,386.509Zm76.359,0a7.235,7.235,0,1,0,2.128,5.125A6.983,6.983,0,0,0,560.05,386.509Zm76.358,0a7.233,7.233,0,1,0,2.129,5.125A6.981,6.981,0,0,0,636.408,386.509Zm76.359,0a7.235,7.235,0,1,0,2.128,5.125A6.983,6.983,0,0,0,712.767,386.509Zm76.358,0a7.233,7.233,0,1,0,2.129,5.125A6.981,6.981,0,0,0,789.125,386.509Zm76.359,0a7.233,7.233,0,1,0,2.129,5.125A6.982,6.982,0,0,0,865.484,386.509Zm76.358,0a7.233,7.233,0,1,0,2.129,5.125A6.981,6.981,0,0,0,941.842,386.509Zm76.358,0a7.231,7.231,0,1,0,2.13,5.125A6.986,6.986,0,0,0,1018.2,386.509Zm76.36,0a7.231,7.231,0,1,0,2.13,5.125A6.986,6.986,0,0,0,1094.56,386.509Zm76.36,0a7.231,7.231,0,1,0,2.13,5.125A6.986,6.986,0,0,0,1170.92,386.509Zm76.36,0a7.231,7.231,0,1,0,2.13,5.125A6.993,6.993,0,0,0,1247.28,386.509Zm76.36,0a7.255,7.255,0,1,0,2.12,5.125A6.993,6.993,0,0,0,1323.64,386.509Z"></path> </svg> 