<svg width="680" height="687" viewBox="0 0 680 687" fill="none" xmlns="http://www.w3.org/2000/svg">
<circle cx="354.603" cy="361.268" r="325.287" fill="url(#paint0_radial_401_3)"/>
<circle cx="354.603" cy="361.268" r="325.287" fill="url(#paint1_radial_401_3)"/>
<circle cx="354.603" cy="361.268" r="325.287" fill="url(#paint2_radial_401_3)"/>
<mask id="mask0_401_3" style="mask-type:luminance" maskUnits="userSpaceOnUse" x="29" y="35" width="651" height="652">
<circle cx="354.603" cy="361.268" r="325.287" fill="white"/>
</mask>
<g mask="url(#mask0_401_3)">
<circle cx="354.603" cy="361.268" r="325.287" fill="url(#paint3_radial_401_3)"/>
<rect x="196.541" y="654.683" width="777.468" height="711.578" transform="rotate(-56.5217 196.541 654.683)" fill="url(#paint4_radial_401_3)"/>
<g filter="url(#filter0_d_401_3)">
<path d="M165.856 394.64L165.047 395.227L165.053 395.236L165.06 395.245L165.856 394.64ZM199.392 396.432L200.323 396.067L199.945 395.101L198.993 395.515L199.392 396.432ZM203.104 405.904L203.514 406.816L204.383 406.426L204.035 405.539L203.104 405.904ZM191.2 410L190.978 409.025L190.978 409.025L191.2 410ZM157.408 401.808L156.636 402.444L156.636 402.444L157.408 401.808ZM191.2 322.96L190.978 323.935L190.983 323.936L191.2 322.96ZM202.848 327.056L203.785 327.406L204.105 326.549L203.279 326.154L202.848 327.056ZM199.264 336.656L198.858 337.57L199.829 338.001L200.201 337.006L199.264 336.656ZM165.856 338.448L165.06 337.843L165.052 337.853L165.856 338.448ZM160.12 376.08C160.12 384.214 161.718 390.639 165.047 395.227L166.665 394.053C163.679 389.937 162.12 383.989 162.12 376.08H160.12ZM165.06 395.245C168.537 399.821 173.819 402.04 180.704 402.04V400.04C174.277 400.04 169.66 397.993 166.652 394.035L165.06 395.245ZM180.704 402.04C183.685 402.04 186.622 401.689 189.516 400.988L189.044 399.044C186.306 399.708 183.526 400.04 180.704 400.04V402.04ZM189.516 400.988C192.407 400.287 195.835 399.069 199.791 397.349L198.993 395.515C195.098 397.208 191.785 398.38 189.044 399.044L189.516 400.988ZM198.461 396.797L202.173 406.269L204.035 405.539L200.323 396.067L198.461 396.797ZM202.694 404.992C198.562 406.847 194.658 408.189 190.978 409.025L191.422 410.975C195.252 410.105 199.283 408.716 203.514 406.816L202.694 404.992ZM190.978 409.025C187.289 409.863 183.737 410.28 180.32 410.28V412.28C183.9 412.28 187.601 411.843 191.422 410.975L190.978 409.025ZM180.32 410.28C170.474 410.28 163.152 407.204 158.18 401.172L156.636 402.444C162.075 409.042 170.027 412.28 180.32 412.28V410.28ZM158.18 401.172C153.164 395.087 150.6 386.761 150.6 376.08H148.6C148.6 387.074 151.241 395.899 156.636 402.444L158.18 401.172ZM150.6 376.08V356.88H148.6V376.08H150.6ZM150.6 356.88C150.6 346.199 153.164 337.873 158.18 331.788L156.636 330.516C151.241 337.061 148.6 345.886 148.6 356.88H150.6ZM158.18 331.788C163.152 325.756 170.474 322.68 180.32 322.68V320.68C170.027 320.68 162.075 323.918 156.636 330.516L158.18 331.788ZM180.32 322.68C183.737 322.68 187.289 323.097 190.978 323.935L191.422 321.985C187.601 321.117 183.9 320.68 180.32 320.68V322.68ZM190.983 323.936C194.742 324.771 198.553 326.11 202.417 327.958L203.279 326.154C199.293 324.247 195.338 322.855 191.417 321.984L190.983 323.936ZM201.911 326.706L198.327 336.306L200.201 337.006L203.785 327.406L201.911 326.706ZM199.67 335.742C192.676 332.634 186.348 331.048 180.704 331.048V333.048C185.983 333.048 192.028 334.534 198.858 337.57L199.67 335.742ZM180.704 331.048C173.819 331.048 168.537 333.267 165.06 337.843L166.652 339.053C169.66 335.095 174.277 333.048 180.704 333.048V331.048ZM165.052 337.853C161.717 342.36 160.12 348.748 160.12 356.88H162.12C162.12 348.969 163.68 343.069 166.66 339.043L165.052 337.853ZM160.12 356.88V376.08H162.12V356.88H160.12ZM232.454 375.952V374.952H231.454V375.952H232.454ZM232.454 410V411H233.454V410H232.454ZM221.318 410H220.318V411H221.318V410ZM221.318 322.96V321.96H220.318V322.96H221.318ZM267.526 329.488L266.826 330.202L266.833 330.209L266.84 330.215L267.526 329.488ZM270.726 365.456L269.882 364.919L269.878 364.926L269.874 364.933L270.726 365.456ZM260.742 373.776L260.361 372.851L259.268 373.301L259.893 374.305L260.742 373.776ZM270.982 391.696L270.095 392.158L270.095 392.158L270.982 391.696ZM279.686 410V411H281.205L280.604 409.605L279.686 410ZM266.886 410L265.964 410.387L266.221 411H266.886V410ZM249.862 375.952L250.725 375.447L250.436 374.952H249.862V375.952ZM232.454 333.2V332.2H231.454V333.2H232.454ZM232.454 365.712H231.454V366.712H232.454V365.712ZM258.95 362.128L259.632 362.859L259.639 362.853L259.645 362.847L258.95 362.128ZM258.95 336.784L258.268 337.515L258.274 337.521L258.281 337.527L258.95 336.784ZM231.454 375.952V410H233.454V375.952H231.454ZM232.454 409H221.318V411H232.454V409ZM222.318 410V322.96H220.318V410H222.318ZM221.318 323.96H248.582V321.96H221.318V323.96ZM248.582 323.96C256.598 323.96 262.629 326.086 266.826 330.202L268.226 328.774C263.548 324.186 256.95 321.96 248.582 321.96V323.96ZM266.84 330.215C271.131 334.264 273.31 339.701 273.31 346.64H275.31C275.31 339.243 272.966 333.246 268.212 328.761L266.84 330.215ZM273.31 346.64V352.144H275.31V346.64H273.31ZM273.31 352.144C273.31 357.103 272.155 361.348 269.882 364.919L271.57 365.993C274.076 362.055 275.31 357.425 275.31 352.144H273.31ZM269.874 364.933C267.688 368.495 264.532 371.134 260.361 372.851L261.123 374.701C265.656 372.834 269.156 369.927 271.578 365.979L269.874 364.933ZM259.893 374.305C263.549 380.171 266.95 386.123 270.095 392.158L271.869 391.234C268.699 385.152 265.273 379.157 261.591 373.247L259.893 374.305ZM270.095 392.158C273.241 398.195 276.132 404.275 278.768 410.395L280.604 409.605C277.949 403.437 275.037 397.314 271.869 391.234L270.095 392.158ZM279.686 409H266.886V411H279.686V409ZM267.808 409.613C262.927 397.967 257.232 386.578 250.725 375.447L248.999 376.457C255.462 387.513 261.117 398.823 265.964 410.387L267.808 409.613ZM249.862 374.952H232.454V376.952H249.862V374.952ZM248.582 332.2H232.454V334.2H248.582V332.2ZM231.454 333.2V365.712H233.454V333.2H231.454ZM232.454 366.712H248.582V364.712H232.454V366.712ZM248.582 366.712C253.123 366.712 256.845 365.461 259.632 362.859L258.268 361.397C255.935 363.574 252.745 364.712 248.582 364.712V366.712ZM259.645 362.847C262.434 360.151 263.79 356.545 263.79 352.144H261.79C261.79 356.105 260.586 359.156 258.255 361.409L259.645 362.847ZM263.79 352.144V346.64H261.79V352.144H263.79ZM263.79 346.64C263.79 342.163 262.438 338.578 259.619 336.041L258.281 337.527C260.582 339.598 261.79 342.584 261.79 346.64H263.79ZM259.632 336.053C256.845 333.451 253.123 332.2 248.582 332.2V334.2C252.745 334.2 255.935 335.338 258.268 337.515L259.632 336.053ZM348.042 322.96L348.933 323.414L349.674 321.96H348.042V322.96ZM321.418 375.184L320.527 374.73L320.418 374.944V375.184H321.418ZM321.418 410V411H322.418V410H321.418ZM310.282 410H309.282V411H310.282V410ZM310.282 375.184H311.282V374.943L311.172 374.728L310.282 375.184ZM283.53 322.96V321.96H281.894L282.64 323.416L283.53 322.96ZM295.562 322.96L296.454 322.508L296.177 321.96H295.562V322.96ZM316.426 364.176L315.534 364.628L316.443 366.423L317.325 364.614L316.426 364.176ZM336.522 322.96V321.96H335.897L335.623 322.522L336.522 322.96ZM347.151 322.506L320.527 374.73L322.309 375.638L348.933 323.414L347.151 322.506ZM320.418 375.184V410H322.418V375.184H320.418ZM321.418 409H310.282V411H321.418V409ZM311.282 410V375.184H309.282V410H311.282ZM311.172 374.728L284.42 322.504L282.64 323.416L309.392 375.64L311.172 374.728ZM283.53 323.96H295.562V321.96H283.53V323.96ZM294.67 323.412L315.534 364.628L317.318 363.724L296.454 322.508L294.67 323.412ZM317.325 364.614L337.421 323.398L335.623 322.522L315.527 363.738L317.325 364.614ZM336.522 323.96H348.042V321.96H336.522V323.96ZM362.943 410H361.943V411H362.943V410ZM362.943 322.96V321.96H361.943V322.96H362.943ZM409.151 329.616L408.437 330.316L408.444 330.323L408.451 330.33L409.151 329.616ZM409.151 371.6L408.444 370.893L408.437 370.9L409.151 371.6ZM374.079 378.256V377.256H373.079V378.256H374.079ZM374.079 410V411H375.079V410H374.079ZM374.079 333.456V332.456H373.079V333.456H374.079ZM374.079 367.888H373.079V368.888H374.079V367.888ZM400.575 364.176L399.868 363.469L399.862 363.475L399.856 363.481L400.575 364.176ZM400.575 337.168L399.856 337.863L399.868 337.875L399.88 337.887L400.575 337.168ZM363.943 410V322.96H361.943V410H363.943ZM362.943 323.96H390.079V321.96H362.943V323.96ZM390.079 323.96C398.269 323.96 404.331 326.13 408.437 330.316L409.865 328.916C405.267 324.228 398.614 321.96 390.079 321.96V323.96ZM408.451 330.33C412.662 334.46 414.807 340.03 414.807 347.152H416.807C416.807 339.597 414.515 333.476 409.851 328.902L408.451 330.33ZM414.807 347.152V353.936H416.807V347.152H414.807ZM414.807 353.936C414.807 361.058 412.662 366.675 408.444 370.893L409.858 372.307C414.515 367.651 416.807 361.491 416.807 353.936H414.807ZM408.437 370.9C404.331 375.086 398.269 377.256 390.079 377.256V379.256C398.614 379.256 405.267 376.988 409.865 372.3L408.437 370.9ZM390.079 377.256H374.079V379.256H390.079V377.256ZM373.079 378.256V410H375.079V378.256H373.079ZM374.079 409H362.943V411H374.079V409ZM390.079 332.456H374.079V334.456H390.079V332.456ZM373.079 333.456V367.888H375.079V333.456H373.079ZM374.079 368.888H390.079V366.888H374.079V368.888ZM390.079 368.888C394.863 368.888 398.659 367.6 401.294 364.871L399.856 363.481C397.712 365.701 394.511 366.888 390.079 366.888V368.888ZM401.282 364.883C403.988 362.178 405.287 358.485 405.287 353.936H403.287C403.287 358.091 402.112 361.225 399.868 363.469L401.282 364.883ZM405.287 353.936V347.152H403.287V353.936H405.287ZM405.287 347.152C405.287 342.683 403.984 339.07 401.27 336.449L399.88 337.887C402.115 340.045 403.287 343.087 403.287 347.152H405.287ZM401.294 336.473C398.659 333.744 394.863 332.456 390.079 332.456V334.456C394.511 334.456 397.712 335.643 399.856 337.863L401.294 336.473ZM423.289 333.456H422.289V334.456H423.289V333.456ZM423.289 322.96V321.96H422.289V322.96H423.289ZM485.113 322.96H486.113V321.96H485.113V322.96ZM485.113 333.456V334.456H486.113V333.456H485.113ZM459.769 333.456V332.456H458.769V333.456H459.769ZM459.769 410V411H460.769V410H459.769ZM448.633 410H447.633V411H448.633V410ZM448.633 333.456H449.633V332.456H448.633V333.456ZM424.289 333.456V322.96H422.289V333.456H424.289ZM423.289 323.96H485.113V321.96H423.289V323.96ZM484.113 322.96V333.456H486.113V322.96H484.113ZM485.113 332.456H459.769V334.456H485.113V332.456ZM458.769 333.456V410H460.769V333.456H458.769ZM459.769 409H448.633V411H459.769V409ZM449.633 410V333.456H447.633V410H449.633ZM448.633 332.456H423.289V334.456H448.633V332.456ZM551.14 401.808L550.379 401.159L550.379 401.16L551.14 401.808ZM504.42 401.808L503.654 402.451L503.659 402.457L503.664 402.462L504.42 401.808ZM504.42 331.28L503.659 330.631L503.659 330.632L504.42 331.28ZM551.14 331.28L550.374 331.923L550.379 331.929L550.384 331.934L551.14 331.28ZM542.692 338.576L541.898 339.183L541.904 339.192L541.911 339.201L542.692 338.576ZM512.996 338.576L513.777 339.201L513.783 339.193L512.996 338.576ZM512.996 394.512L513.783 393.895L513.783 393.895L512.996 394.512ZM542.692 394.512L541.905 393.895L541.898 393.905L542.692 394.512ZM558.332 356.88V375.952H560.332V356.88H558.332ZM558.332 375.952C558.332 386.621 555.646 394.987 550.379 401.159L551.901 402.457C557.557 395.829 560.332 386.957 560.332 375.952H558.332ZM550.379 401.16C545.235 407.202 537.777 410.28 527.844 410.28V412.28C538.22 412.28 546.293 409.044 551.901 402.456L550.379 401.16ZM527.844 410.28C517.911 410.28 510.407 407.202 505.176 401.154L503.664 402.462C509.356 409.043 517.468 412.28 527.844 412.28V410.28ZM505.186 401.165C500.001 394.993 497.356 386.625 497.356 375.952H495.356C495.356 386.954 498.087 395.823 503.654 402.451L505.186 401.165ZM497.356 375.952V356.88H495.356V375.952H497.356ZM497.356 356.88C497.356 346.294 500 338.014 505.181 331.928L503.659 330.632C498.088 337.175 495.356 345.962 495.356 356.88H497.356ZM505.181 331.929C510.413 325.798 517.916 322.68 527.844 322.68V320.68C517.463 320.68 509.35 323.962 503.659 330.631L505.181 331.929ZM527.844 322.68C537.773 322.68 545.229 325.798 550.374 331.923L551.906 330.637C546.299 323.962 538.224 320.68 527.844 320.68V322.68ZM550.384 331.934C555.647 338.02 558.332 346.297 558.332 356.88H560.332C560.332 345.959 557.556 337.169 551.896 330.626L550.384 331.934ZM548.812 356.88C548.812 348.817 547.08 342.46 543.473 337.951L541.911 339.201C545.131 343.225 546.812 349.071 546.812 356.88H548.812ZM543.486 337.969C539.931 333.319 534.657 331.048 527.844 331.048V333.048C534.173 333.048 538.797 335.129 541.898 339.183L543.486 337.969ZM527.844 331.048C521.111 331.048 515.846 333.322 512.209 337.959L513.783 339.193C516.973 335.126 521.606 333.048 527.844 333.048V331.048ZM512.215 337.951C508.608 342.46 506.876 348.817 506.876 356.88H508.876C508.876 349.071 510.557 343.225 513.777 339.201L512.215 337.951ZM506.876 356.88V375.952H508.876V356.88H506.876ZM506.876 375.952C506.876 384.1 508.608 390.537 512.209 395.129L513.783 393.895C510.558 389.783 508.876 383.847 508.876 375.952H506.876ZM512.209 395.129C515.846 399.766 521.111 402.04 527.844 402.04V400.04C521.606 400.04 516.973 397.962 513.783 393.895L512.209 395.129ZM527.844 402.04C534.657 402.04 539.931 399.769 543.486 395.119L541.898 393.905C538.797 397.959 534.173 400.04 527.844 400.04V402.04ZM543.479 395.129C547.08 390.537 548.812 384.1 548.812 375.952H546.812C546.812 383.847 545.13 389.783 541.905 393.895L543.479 395.129ZM548.812 375.952V356.88H546.812V375.952H548.812Z" fill="white"/>
</g>
</g>
<g style="mix-blend-mode:soft-light">
<rect x="0.141663" width="373.392" height="366.52" fill="url(#paint5_radial_401_3)"/>
</g>
<defs>
<filter id="filter0_d_401_3" x="131.6" y="307.68" width="445.732" height="125.6" filterUnits="userSpaceOnUse" color-interpolation-filters="sRGB">
<feFlood flood-opacity="0" result="BackgroundImageFix"/>
<feColorMatrix in="SourceAlpha" type="matrix" values="0 0 0 0 0 0 0 0 0 0 0 0 0 0 0 0 0 0 127 0" result="hardAlpha"/>
<feOffset dy="4"/>
<feGaussianBlur stdDeviation="9"/>
<feComposite in2="hardAlpha" operator="out"/>
<feColorMatrix type="matrix" values="0 0 0 0 0 0 0 0 0 0.04 0 0 0 0 1 0 0 0 0.67 0"/>
<feBlend mode="normal" in2="BackgroundImageFix" result="effect1_dropShadow_401_3"/>
<feBlend mode="normal" in="SourceGraphic" in2="effect1_dropShadow_401_3" result="shape"/>
</filter>
<radialGradient id="paint0_radial_401_3" cx="0" cy="0" r="1" gradientUnits="userSpaceOnUse" gradientTransform="translate(417.598 299.417) rotate(99.2423) scale(392.229)">
<stop stop-color="#31B5FF"/>
<stop offset="1" stop-color="#FF87C8"/>
</radialGradient>
<radialGradient id="paint1_radial_401_3" cx="0" cy="0" r="1" gradientUnits="userSpaceOnUse" gradientTransform="translate(230.902 182.589) rotate(60.5646) scale(368.241)">
<stop stop-color="#5200FF"/>
<stop offset="1" stop-color="white" stop-opacity="0"/>
</radialGradient>
<radialGradient id="paint2_radial_401_3" cx="0" cy="0" r="1" gradientUnits="userSpaceOnUse" gradientTransform="translate(679.889 251.312) rotate(123.521) scale(215.699 259.623)">
<stop stop-color="white"/>
<stop offset="1" stop-color="white" stop-opacity="0"/>
</radialGradient>
<radialGradient id="paint3_radial_401_3" cx="0" cy="0" r="1" gradientUnits="userSpaceOnUse" gradientTransform="translate(375.219 315.453) rotate(106.479) scale(371.471 357.171)">
<stop offset="0.619792" stop-color="white" stop-opacity="0"/>
<stop offset="0.796875" stop-color="white" stop-opacity="0"/>
<stop offset="1" stop-color="white"/>
</radialGradient>
<radialGradient id="paint4_radial_401_3" cx="0" cy="0" r="1" gradientUnits="userSpaceOnUse" gradientTransform="translate(585.275 1010.47) rotate(90) scale(355.789 391.404)">
<stop stop-color="#FFE600"/>
<stop offset="1" stop-color="#FFE600" stop-opacity="0"/>
</radialGradient>
<radialGradient id="paint5_radial_401_3" cx="0" cy="0" r="1" gradientUnits="userSpaceOnUse" gradientTransform="translate(186.838 183.26) rotate(90) scale(183.26 187.978)">
<stop stop-color="white"/>
<stop offset="1" stop-color="white" stop-opacity="0"/>
</radialGradient>
</defs>
</svg>
