<svg width="680" height="687" viewBox="0 0 680 687" fill="none" xmlns="http://www.w3.org/2000/svg">
<circle cx="354.603" cy="361.268" r="325.287" fill="url(#paint0_radial_401_3)"/>
<circle cx="354.603" cy="361.268" r="325.287" fill="url(#paint1_radial_401_3)"/>
<circle cx="354.603" cy="361.268" r="325.287" fill="url(#paint2_radial_401_3)"/>
<mask id="mask0_401_3" style="mask-type:luminance" maskUnits="userSpaceOnUse" x="29" y="35" width="651" height="652">
<circle cx="354.603" cy="361.268" r="325.287" fill="white"/>
</mask>
<g mask="url(#mask0_401_3)">
<circle cx="354.603" cy="361.268" r="325.287" fill="url(#paint3_radial_401_3)"/>
<rect x="196.541" y="654.683" width="777.468" height="711.578" transform="rotate(-56.5217 196.541 654.683)" fill="url(#paint4_radial_401_3)"/>
<g filter="url(#filter0_d_401_3)">
<path d="M206.544 354.359V356.359H208.544V354.359H206.544ZM176.737 354.359H174.737V356.359H176.737V354.359ZM175.746 323.561L173.902 324.334L173.917 324.37L173.934 324.406L175.746 323.561ZM166.896 323.985L165.025 323.278L166.896 323.985ZM166.896 399.459L165.032 400.184L166.896 399.459ZM175.675 399.459L173.829 398.69L173.82 398.712L173.811 398.734L175.675 399.459ZM176.737 373.121V371.121H174.737V373.121H176.737ZM206.544 373.121H208.544V371.121H206.544V373.121ZM203.996 402.787L202.104 402.138L202.101 402.146L202.098 402.154L203.996 402.787ZM192.88 415.814L191.793 414.135L191.787 414.139L192.88 415.814ZM150.116 416.664L149.141 418.41L150.116 416.664ZM138.859 403.565L136.958 404.188L136.96 404.193L138.859 403.565ZM136.947 326.251L138.929 326.524L138.929 326.521L136.947 326.251ZM141.974 314.286L140.367 313.095L140.362 313.102L140.358 313.108L141.974 314.286ZM153.656 305.294L154.459 307.126L154.467 307.122L153.656 305.294ZM203.854 319.808L201.967 320.472L201.969 320.477L203.854 319.808ZM206.544 352.359H176.737V356.359H206.544V352.359ZM178.737 354.359V334.393H174.737V354.359H178.737ZM178.737 334.393C178.737 331.461 178.654 329.039 178.481 327.148C178.315 325.337 178.05 323.768 177.558 322.715L173.934 324.406C174.103 324.769 174.333 325.714 174.498 327.513C174.655 329.233 174.737 331.52 174.737 334.393H178.737ZM177.59 322.787C177.106 321.631 176.283 320.728 175.172 320.144C174.101 319.581 172.862 319.366 171.569 319.366V323.366C172.447 323.366 172.99 323.516 173.311 323.685C173.592 323.833 173.773 324.027 173.902 324.334L177.59 322.787ZM171.569 319.366C170.122 319.366 168.751 319.621 167.582 320.276C166.373 320.954 165.514 321.986 165.025 323.278L168.767 324.693C168.939 324.238 169.189 323.961 169.538 323.765C169.927 323.547 170.562 323.366 171.569 323.366V319.366ZM165.025 323.278C164.593 324.42 164.329 326.029 164.16 327.953C163.988 329.921 163.905 332.379 163.905 335.313H167.905C167.905 332.442 167.987 330.11 168.145 328.302C168.307 326.449 168.538 325.297 168.767 324.693L165.025 323.278ZM163.905 335.313V388.556H167.905V335.313H163.905ZM163.905 388.556C163.905 391.373 163.988 393.74 164.161 395.64C164.33 397.496 164.596 399.062 165.032 400.184L168.76 398.734C168.536 398.157 168.306 397.056 168.144 395.278C167.987 393.543 167.905 391.308 167.905 388.556H163.905ZM165.032 400.184C165.517 401.431 166.346 402.44 167.514 403.107C168.648 403.755 169.969 404.008 171.356 404.008V400.008C170.431 400.008 169.852 399.836 169.499 399.634C169.18 399.452 168.936 399.186 168.76 398.734L165.032 400.184ZM171.356 404.008C172.71 404.008 174.004 403.75 175.116 403.093C176.258 402.419 177.062 401.411 177.539 400.184L173.811 398.734C173.628 399.206 173.381 399.472 173.083 399.648C172.756 399.841 172.222 400.008 171.356 400.008V404.008ZM177.521 400.228C178.002 399.074 178.285 397.386 178.464 395.37C178.648 393.294 178.737 390.662 178.737 387.494H174.737C174.737 390.602 174.649 393.104 174.48 395.016C174.305 396.988 174.056 398.145 173.829 398.69L177.521 400.228ZM178.737 387.494V373.121H174.737V387.494H178.737ZM176.737 375.121H206.544V371.121H176.737V375.121ZM204.544 373.121V377.582H208.544V373.121H204.544ZM204.544 377.582C204.544 389.416 203.686 397.523 202.104 402.138L205.887 403.435C207.704 398.138 208.544 389.442 208.544 377.582H204.544ZM202.098 402.154C200.629 406.561 197.29 410.575 191.793 414.135L193.967 417.493C199.986 413.595 204.058 408.924 205.893 403.419L202.098 402.154ZM191.787 414.139C186.469 417.611 179.814 419.407 171.71 419.407V423.407C180.41 423.407 187.869 421.474 193.973 417.489L191.787 414.139ZM171.71 419.407C163.206 419.407 156.372 417.866 151.091 414.917L149.141 418.41C155.189 421.786 162.751 423.407 171.71 423.407V419.407ZM151.091 414.917C145.814 411.971 142.424 407.98 140.758 402.938L136.96 404.193C138.975 410.29 143.09 415.031 149.141 418.41L151.091 414.917ZM140.759 402.943C139.02 397.634 138.098 389.466 138.098 378.29H134.098C134.098 389.58 135.016 398.263 136.958 404.188L140.759 402.943ZM138.098 378.29V344.801H134.098V378.29H138.098ZM138.098 344.801C138.098 336.561 138.382 330.49 138.929 326.524L134.966 325.978C134.38 330.225 134.098 336.52 134.098 344.801H138.098ZM138.929 326.521C139.445 322.736 140.975 319.054 143.591 315.463L140.358 313.108C137.403 317.164 135.582 321.459 134.966 325.981L138.929 326.521ZM143.581 315.476C146.178 311.97 149.778 309.177 154.459 307.126L152.854 303.462C147.623 305.754 143.434 308.955 140.367 313.095L143.581 315.476ZM154.467 307.122C159.173 305.036 164.624 303.966 170.861 303.966V299.966C164.165 299.966 158.146 301.115 152.846 303.466L154.467 307.122ZM170.861 303.966C179.393 303.966 186.256 305.618 191.574 308.783L193.619 305.345C187.515 301.713 179.888 299.966 170.861 299.966V303.966ZM191.574 308.783C196.978 311.999 200.363 315.911 201.967 320.472L205.741 319.144C203.758 313.51 199.638 308.926 193.619 305.345L191.574 308.783ZM201.969 320.477C203.643 325.191 204.544 332.788 204.544 343.456H208.544C208.544 332.694 207.652 324.526 205.739 319.139L201.969 320.477ZM204.544 343.456V354.359H208.544V343.456H204.544ZM217.235 304.374V302.374H215.235V304.374H217.235ZM266.867 306.002L266.439 307.956L266.443 307.956L266.867 306.002ZM279.044 314.356L277.402 315.498L277.409 315.507L277.416 315.517L279.044 314.356ZM267.362 359.173L267.175 357.182L266.881 361.115L267.362 359.173ZM283.009 371.847L281.059 372.29L281.065 372.316L281.072 372.342L283.009 371.847ZM283.788 419V421H285.788V419H283.788ZM256.105 419H254.105V421H256.105V419ZM254.618 369.51L252.938 370.595L252.95 370.613L252.962 370.632L254.618 369.51ZM247.042 367.315V365.315H245.042V367.315H247.042ZM247.042 419V421H249.042V419H247.042ZM217.235 419H215.235V421H217.235V419ZM247.042 323.985V321.985H245.042V323.985H247.042ZM247.042 349.474H245.042V351.474H247.042V349.474ZM254.052 348.128L255.175 349.783L255.181 349.779L255.187 349.775L254.052 348.128ZM254.123 325.685L252.794 327.179L252.807 327.191L252.821 327.203L254.123 325.685ZM217.235 306.374H238.334V302.374H217.235V306.374ZM238.334 306.374C252.424 306.374 261.725 306.923 266.439 307.956L267.295 304.048C262.096 302.91 252.375 302.374 238.334 302.374V306.374ZM266.443 307.956C270.917 308.927 274.554 311.399 277.402 315.498L280.687 313.215C277.304 308.346 272.823 305.248 267.291 304.047L266.443 307.956ZM277.416 315.517C280.21 319.438 281.788 326.024 281.788 335.667H285.788C285.788 325.77 284.203 318.148 280.673 313.196L277.416 315.517ZM281.788 335.667C281.788 340.056 281.514 343.654 280.99 346.49C280.46 349.354 279.701 351.288 278.84 352.479L282.081 354.823C283.439 352.946 284.343 350.349 284.923 347.218C285.507 344.059 285.788 340.199 285.788 335.667H281.788ZM278.84 352.479C277.137 354.833 273.511 356.585 267.175 357.182L267.55 361.165C274.241 360.534 279.347 358.604 282.081 354.823L278.84 352.479ZM266.881 361.115C272.688 362.555 276.113 364.387 277.716 366.324L280.798 363.775C278.341 360.804 273.837 358.718 267.844 357.232L266.881 361.115ZM277.716 366.324C279.636 368.647 280.682 370.632 281.059 372.29L284.96 371.403C284.392 368.908 282.937 366.361 280.798 363.775L277.716 366.324ZM281.072 372.342C281.273 373.131 281.465 374.852 281.595 377.691C281.723 380.468 281.788 384.156 281.788 388.768H285.788C285.788 384.128 285.723 380.371 285.591 377.507C285.462 374.706 285.264 372.592 284.947 371.351L281.072 372.342ZM281.788 388.768V419H285.788V388.768H281.788ZM283.788 417H256.105V421H283.788V417ZM258.105 419V380.909H254.105V419H258.105ZM258.105 380.909C258.105 377.799 257.98 375.219 257.716 373.199C257.465 371.27 257.054 369.54 256.274 368.389L252.962 370.632C253.174 370.944 253.506 371.845 253.75 373.716C253.982 375.495 254.105 377.883 254.105 380.909H258.105ZM256.299 368.426C255.46 367.126 254.071 366.377 252.573 365.943C251.058 365.504 249.191 365.315 247.042 365.315V369.315C249 369.315 250.45 369.493 251.46 369.785C252.487 370.083 252.832 370.431 252.938 370.595L256.299 368.426ZM245.042 367.315V419H249.042V367.315H245.042ZM247.042 417H217.235V421H247.042V417ZM219.235 419V304.374H215.235V419H219.235ZM245.042 323.985V349.474H249.042V323.985H245.042ZM247.042 351.474C250.439 351.474 253.316 351.045 255.175 349.783L252.929 346.473C252.144 347.006 250.349 347.474 247.042 347.474V351.474ZM255.187 349.775C256.515 348.859 257.172 347.235 257.541 345.618C257.931 343.91 258.105 341.729 258.105 339.137H254.105C254.105 341.595 253.936 343.438 253.642 344.727C253.495 345.369 253.33 345.816 253.176 346.111C253.022 346.408 252.915 346.483 252.916 346.482L255.187 349.775ZM258.105 339.137V332.835H254.105V339.137H258.105ZM258.105 332.835C258.105 330.914 257.932 329.214 257.537 327.788C257.143 326.367 256.489 325.079 255.424 324.166L252.821 327.203C253.078 327.423 253.415 327.893 253.682 328.856C253.947 329.813 254.105 331.123 254.105 332.835H258.105ZM255.451 324.19C253.585 322.531 250.553 321.985 247.042 321.985V325.985C250.423 325.985 252.112 326.573 252.794 327.179L255.451 324.19ZM358.908 304.374L360.825 304.943L361.589 302.374H358.908V304.374ZM337.172 377.511L335.255 376.941L335.172 377.22V377.511H337.172ZM337.172 419V421H339.172V419H337.172ZM309.56 419H307.56V421H309.56V419ZM309.56 377.511H311.56V377.23L311.482 376.96L309.56 377.511ZM288.603 304.374V302.374H285.949L286.68 304.924L288.603 304.374ZM316.002 304.374L317.966 303.996L317.654 302.374H316.002V304.374ZM323.224 349.474L321.229 349.607L325.206 349.741L323.224 349.474ZM331.508 304.374V302.374H329.895L329.553 303.95L331.508 304.374ZM356.991 303.804L335.255 376.941L339.089 378.08L360.825 304.943L356.991 303.804ZM335.172 377.511V419H339.172V377.511H335.172ZM337.172 417H309.56V421H337.172V417ZM311.56 419V377.511H307.56V419H311.56ZM311.482 376.96L290.525 303.823L286.68 304.924L307.637 378.062L311.482 376.96ZM288.603 306.374H316.002V302.374H288.603V306.374ZM314.038 304.751C318.337 327.095 320.719 342.009 321.229 349.607L325.22 349.34C324.691 341.456 322.258 326.303 317.966 303.996L314.038 304.751ZM325.206 349.741C326.849 337.587 329.598 322.61 333.462 304.798L329.553 303.95C325.676 321.821 322.904 336.91 321.242 349.206L325.206 349.741ZM331.508 306.374H358.908V302.374H331.508V306.374ZM364.076 304.374V302.374H362.076V304.374H364.076ZM412.787 306.285L412.224 308.204L412.229 308.206L412.787 306.285ZM422.628 311.808L421.143 313.147L421.15 313.155L421.158 313.163L422.628 311.808ZM427.089 320.587L425.135 321.015L425.139 321.031L425.142 321.046L427.089 320.587ZM417.672 370.147L416.864 368.318L416.856 368.322L417.672 370.147ZM393.883 372.838V370.838H391.883V372.838H393.883ZM393.883 419V421H395.883V419H393.883ZM364.076 419H362.076V421H364.076V419ZM393.883 323.985V321.985H391.883V323.985H393.883ZM393.883 353.155H391.883V355.047L393.772 355.152L393.883 353.155ZM401.742 351.244L400.175 350.001L400.17 350.008L401.742 351.244ZM364.076 306.374H394.096V302.374H364.076V306.374ZM394.096 306.374C402.149 306.374 408.155 307.01 412.224 308.204L413.35 304.366C408.734 303.011 402.279 302.374 394.096 302.374V306.374ZM412.229 308.206C416.402 309.417 419.303 311.107 421.143 313.147L424.114 310.468C421.611 307.694 417.952 305.702 413.345 304.364L412.229 308.206ZM421.158 313.163C423.117 315.289 424.45 317.888 425.135 321.015L429.042 320.159C428.217 316.394 426.576 313.14 424.099 310.452L421.158 313.163ZM425.142 321.046C425.889 324.207 426.292 329.3 426.292 336.446H430.292C430.292 329.244 429.894 323.763 429.035 320.127L425.142 321.046ZM426.292 336.446V346.429H430.292V336.446H426.292ZM426.292 346.429C426.292 353.688 425.531 358.663 424.203 361.608L427.85 363.252C429.543 359.495 430.292 353.803 430.292 346.429H426.292ZM424.203 361.608C422.936 364.421 420.571 366.68 416.864 368.318L418.481 371.977C422.893 370.027 426.097 367.142 427.85 363.252L424.203 361.608ZM416.856 368.322C413.194 369.959 408.24 370.838 401.884 370.838V374.838C408.555 374.838 414.127 373.923 418.489 371.973L416.856 368.322ZM401.884 370.838H393.883V374.838H401.884V370.838ZM391.883 372.838V419H395.883V372.838H391.883ZM393.883 417H364.076V421H393.883V417ZM366.076 419V304.374H362.076V419H366.076ZM391.883 323.985V353.155H395.883V323.985H391.883ZM393.772 355.152C394.646 355.201 395.416 355.226 396.078 355.226V351.226C395.513 351.226 394.82 351.204 393.994 351.158L393.772 355.152ZM396.078 355.226C399.046 355.226 401.711 354.521 403.315 352.479L400.17 350.008C399.697 350.61 398.585 351.226 396.078 351.226V355.226ZM403.309 352.486C404.14 351.439 404.629 350.032 404.927 348.49C405.231 346.917 405.371 345.015 405.371 342.818H401.371C401.371 344.87 401.238 346.496 401 347.731C400.755 348.998 400.43 349.68 400.175 350.001L403.309 352.486ZM405.371 342.818V333.402H401.371V342.818H405.371ZM405.371 333.402C405.371 331.355 405.212 329.567 404.855 328.084C404.503 326.624 403.916 325.275 402.916 324.314L400.144 327.197C400.371 327.416 400.704 327.932 400.966 329.02C401.223 330.086 401.371 331.531 401.371 333.402H405.371ZM402.916 324.314C401.938 323.374 400.601 322.816 399.149 322.479C397.674 322.138 395.905 321.985 393.883 321.985V325.985C395.732 325.985 397.172 326.128 398.247 326.376C399.343 326.63 399.894 326.957 400.144 327.197L402.916 324.314ZM496.898 304.374H498.898V302.374H496.898V304.374ZM496.898 327.313V329.313H498.898V327.313H496.898ZM479.198 327.313V325.313H477.198V327.313H479.198ZM479.198 419V421H481.198V419H479.198ZM449.391 419H447.391V421H449.391V419ZM449.391 327.313H451.391V325.313H449.391V327.313ZM431.762 327.313H429.762V329.313H431.762V327.313ZM431.762 304.374V302.374H429.762V304.374H431.762ZM494.898 304.374V327.313H498.898V304.374H494.898ZM496.898 325.313H479.198V329.313H496.898V325.313ZM477.198 327.313V419H481.198V327.313H477.198ZM479.198 417H449.391V421H479.198V417ZM451.391 419V327.313H447.391V419H451.391ZM449.391 325.313H431.762V329.313H449.391V325.313ZM433.762 327.313V304.374H429.762V327.313H433.762ZM431.762 306.374H496.898V302.374H431.762V306.374ZM570.956 395.99L568.97 395.756L568.969 395.765L568.968 395.773L570.956 395.99ZM565.858 409.088L564.24 407.913L564.235 407.919L564.231 407.925L565.858 409.088ZM520.758 418.434L519.988 420.279L519.999 420.284L520.009 420.288L520.758 418.434ZM503.695 396.273L501.71 396.511L503.695 396.273ZM503.625 327.455L501.638 327.221L501.637 327.229L501.636 327.238L503.625 327.455ZM508.722 314.286L507.104 313.11L507.099 313.117L507.095 313.123L508.722 314.286ZM553.822 305.011L553.052 306.856L553.063 306.861L553.073 306.865L553.822 305.011ZM541.078 323.631L539.205 324.334L539.219 324.369L539.234 324.405L541.078 323.631ZM533.856 323.207L532.212 322.068L532.207 322.075L532.203 322.082L533.856 323.207ZM533.432 399.671L531.534 400.304L531.543 400.329L531.552 400.355L533.432 399.671ZM541.149 399.317L539.242 398.715L541.149 399.317ZM569.806 371.493C569.806 383.008 569.521 391.07 568.97 395.756L572.942 396.223C573.524 391.281 573.806 383.011 573.806 371.493H569.806ZM568.968 395.773C568.487 400.186 566.919 404.223 564.24 407.913L567.477 410.263C570.556 406.023 572.387 401.328 572.944 396.206L568.968 395.773ZM564.231 407.925C561.627 411.57 558.078 414.396 553.517 416.388L555.119 420.054C560.281 417.799 564.425 414.535 567.486 410.25L564.231 407.925ZM553.517 416.388C548.957 418.381 543.575 419.407 537.326 419.407V423.407C544.009 423.407 549.956 422.31 555.119 420.054L553.517 416.388ZM537.326 419.407C531.406 419.407 526.143 418.451 521.507 416.579L520.009 420.288C525.191 422.381 530.973 423.407 537.326 423.407V419.407ZM521.529 416.588C516.981 414.689 513.359 411.886 510.612 408.18L507.399 410.562C510.599 414.88 514.813 418.119 519.988 420.279L521.529 416.588ZM510.612 408.18C507.835 404.433 506.204 400.392 505.681 396.035L501.71 396.511C502.319 401.594 504.229 406.285 507.399 410.562L510.612 408.18ZM505.681 396.035C505.131 391.447 504.846 383.296 504.846 371.493H500.846C500.846 383.29 501.127 391.659 501.71 396.511L505.681 396.035ZM504.846 371.493V351.881H500.846V371.493H504.846ZM504.846 351.881C504.846 340.364 505.107 332.319 505.613 327.671L501.636 327.238C501.104 332.124 500.846 340.364 500.846 351.881H504.846ZM505.611 327.688C506.138 323.211 507.713 319.14 510.35 315.448L507.095 313.123C504.068 317.361 502.244 322.07 501.638 327.221L505.611 327.688ZM510.34 315.461C512.993 311.808 516.571 308.979 521.134 306.985L519.533 303.32C514.373 305.574 510.209 308.834 507.104 313.11L510.34 315.461ZM521.134 306.985C525.694 304.993 531.076 303.966 537.326 303.966V299.966C530.643 299.966 524.696 301.064 519.533 303.32L521.134 306.985ZM537.326 303.966C543.24 303.966 548.471 304.944 553.052 306.856L554.593 303.165C549.45 301.018 543.683 299.966 537.326 299.966V303.966ZM553.073 306.865C557.662 308.718 561.298 311.495 564.039 315.193L567.253 312.812C564.046 308.485 559.8 305.268 554.571 303.156L553.073 306.865ZM564.039 315.193C566.817 318.941 568.447 322.982 568.97 327.339L572.942 326.862C572.332 321.78 570.423 317.088 567.253 312.812L564.039 315.193ZM568.97 327.339C569.521 331.927 569.806 340.078 569.806 351.881H573.806C573.806 340.084 573.524 331.715 572.942 326.862L568.97 327.339ZM569.806 351.881V371.493H573.806V351.881H569.806ZM543.999 333.827C543.999 331.129 543.921 328.88 543.76 327.098C543.605 325.374 543.357 323.893 542.923 322.858L539.234 324.405C539.413 324.832 539.625 325.783 539.777 327.457C539.922 329.073 539.999 331.191 539.999 333.827H543.999ZM542.951 322.929C542.535 321.822 541.836 320.88 540.814 320.238C539.812 319.609 538.654 319.366 537.467 319.366V323.366C538.121 323.366 538.486 323.5 538.688 323.626C538.869 323.74 539.054 323.931 539.205 324.334L542.951 322.929ZM537.467 319.366C535.287 319.366 533.454 320.274 532.212 322.068L535.501 324.345C535.958 323.685 536.532 323.366 537.467 323.366V319.366ZM532.203 322.082C531.811 322.658 531.565 323.361 531.392 324.04C531.211 324.749 531.073 325.583 530.966 326.521C530.754 328.399 530.653 330.843 530.653 333.827H534.653C534.653 330.91 534.753 328.635 534.941 326.972C535.035 326.14 535.148 325.5 535.268 325.028C535.327 324.794 535.384 324.621 535.433 324.497C535.484 324.37 535.514 324.325 535.51 324.331L532.203 322.082ZM530.653 333.827V387.352H534.653V333.827H530.653ZM530.653 387.352C530.653 390.7 530.718 393.437 530.852 395.55C530.981 397.593 531.183 399.249 531.534 400.304L535.329 399.039C535.161 398.536 534.974 397.36 534.844 395.297C534.718 393.303 534.653 390.66 534.653 387.352H530.653ZM531.552 400.355C531.972 401.51 532.703 402.478 533.769 403.13C534.807 403.765 536.013 404.008 537.255 404.008V400.008C536.514 400.008 536.091 399.862 535.855 399.717C535.647 399.59 535.458 399.39 535.311 398.988L531.552 400.355ZM537.255 404.008C538.56 404.008 539.82 403.718 540.887 402.981C541.969 402.234 542.666 401.156 543.056 399.92L539.242 398.715C539.066 399.273 538.831 399.54 538.614 399.69C538.383 399.849 537.979 400.008 537.255 400.008V404.008ZM543.056 399.92C543.418 398.774 543.64 397.046 543.782 394.901C543.927 392.703 543.999 389.899 543.999 386.502H539.999C539.999 389.855 539.928 392.562 539.791 394.636C539.65 396.762 539.446 398.068 539.242 398.715L543.056 399.92ZM543.999 386.502V333.827H539.999V386.502H543.999Z" fill="url(#paint5_linear_401_3)"/>
</g>
</g>
<g style="mix-blend-mode:soft-light">
<rect x="0.141663" width="373.392" height="366.52" fill="url(#paint6_radial_401_3)"/>
</g>
<defs>
<filter id="filter0_d_401_3" x="118.098" y="287.966" width="471.708" height="155.441" filterUnits="userSpaceOnUse" color-interpolation-filters="sRGB">
<feFlood flood-opacity="0" result="BackgroundImageFix"/>
<feColorMatrix in="SourceAlpha" type="matrix" values="0 0 0 0 0 0 0 0 0 0 0 0 0 0 0 0 0 0 127 0" result="hardAlpha"/>
<feOffset dy="4"/>
<feGaussianBlur stdDeviation="9"/>
<feComposite in2="hardAlpha" operator="out"/>
<feColorMatrix type="matrix" values="0 0 0 0 0 0 0 0 0 0.04 0 0 0 0 1 0 0 0 0.67 0"/>
<feBlend mode="normal" in2="BackgroundImageFix" result="effect1_dropShadow_401_3"/>
<feBlend mode="normal" in="SourceGraphic" in2="effect1_dropShadow_401_3" result="shape"/>
</filter>
<radialGradient id="paint0_radial_401_3" cx="0" cy="0" r="1" gradientUnits="userSpaceOnUse" gradientTransform="translate(417.598 299.417) rotate(99.2423) scale(392.229)">
<stop stop-color="#31B5FF"/>
<stop offset="1" stop-color="#FF87C8"/>
</radialGradient>
<radialGradient id="paint1_radial_401_3" cx="0" cy="0" r="1" gradientUnits="userSpaceOnUse" gradientTransform="translate(230.902 182.589) rotate(60.5646) scale(368.241)">
<stop stop-color="#5200FF"/>
<stop offset="1" stop-color="white" stop-opacity="0"/>
</radialGradient>
<radialGradient id="paint2_radial_401_3" cx="0" cy="0" r="1" gradientUnits="userSpaceOnUse" gradientTransform="translate(679.889 251.312) rotate(123.521) scale(215.699 259.623)">
<stop stop-color="white"/>
<stop offset="1" stop-color="white" stop-opacity="0"/>
</radialGradient>
<radialGradient id="paint3_radial_401_3" cx="0" cy="0" r="1" gradientUnits="userSpaceOnUse" gradientTransform="translate(375.219 315.453) rotate(106.479) scale(371.471 357.171)">
<stop offset="0.619792" stop-color="white" stop-opacity="0"/>
<stop offset="0.796875" stop-color="white" stop-opacity="0"/>
<stop offset="1" stop-color="white"/>
</radialGradient>
<radialGradient id="paint4_radial_401_3" cx="0" cy="0" r="1" gradientUnits="userSpaceOnUse" gradientTransform="translate(585.275 1010.47) rotate(90) scale(355.789 391.404)">
<stop stop-color="#FFE600"/>
<stop offset="1" stop-color="#FFE600" stop-opacity="0"/>
</radialGradient>
<linearGradient id="paint5_linear_401_3" x1="354.5" y1="273" x2="354.5" y2="450" gradientUnits="userSpaceOnUse">
<stop stop-color="#1400FF"/>
<stop offset="1" stop-color="#FF9900"/>
</linearGradient>
<radialGradient id="paint6_radial_401_3" cx="0" cy="0" r="1" gradientUnits="userSpaceOnUse" gradientTransform="translate(186.838 183.26) rotate(90) scale(183.26 187.978)">
<stop stop-color="white"/>
<stop offset="1" stop-color="white" stop-opacity="0"/>
</radialGradient>
</defs>
</svg>
