<svg width="48" height="48" viewBox="0 0 48 48" fill="none" xmlns="http://www.w3.org/2000/svg">
<circle cx="20" cy="24" r="16" fill="white"/>
<path fill-rule="evenodd" clip-rule="evenodd" d="M22.5001 45.4016C21.8334 45.7865 21 45.3054 21 44.5356V26.5984C21 26.2135 21.4167 25.9729 21.75 26.1654L37.2808 35.1341C37.9473 35.519 37.9473 36.4811 37.2808 36.866L22.5001 45.4016Z" fill="#FF974C"/>
<path fill-rule="evenodd" clip-rule="evenodd" d="M17.4999 45.4016C18.1666 45.7865 19 45.3054 19 44.5356V26.5984C19 26.2135 18.5833 25.9729 18.25 26.1654L2.71925 35.1341C2.0527 35.519 2.05269 36.4811 2.71925 36.866L17.4999 45.4016Z" fill="#E87DE8"/>
<path fill-rule="evenodd" clip-rule="evenodd" d="M21.75 21.8347C21.4167 22.0272 21 21.7866 21 21.4017V3.46455C21 2.69471 21.8334 2.21359 22.5001 2.59857L37.2808 11.1341C37.9473 11.519 37.9473 12.4811 37.2808 12.866L21.75 21.8347Z" fill="#794CFF"/>
<path fill-rule="evenodd" clip-rule="evenodd" d="M18.25 21.8347C18.5833 22.0272 19 21.7866 19 21.4017V3.46455C19 2.69471 18.1666 2.21359 17.4999 2.59857L2.71925 11.1341C2.0527 11.519 2.05269 12.4811 2.71925 12.866L18.25 21.8347Z" fill="#1AC6FF"/>
<path fill-rule="evenodd" clip-rule="evenodd" d="M1.72005 14.5984C1.05339 14.2135 0.219971 14.6946 0.219971 15.4644V32.5354C0.219971 33.3053 1.05339 33.7864 1.72005 33.4014L17.2505 24.4329C17.5838 24.2405 17.5838 23.7594 17.2505 23.5669L1.72005 14.5984Z" fill="#2BEE6C"/>
<path fill-rule="evenodd" clip-rule="evenodd" d="M22.7495 23.5669C22.4163 23.7594 22.4163 24.2405 22.7495 24.4329L38.28 33.4014C38.9467 33.7864 39.7801 33.3053 39.7801 32.5355L39.7801 15.4644C39.7801 14.6946 38.9467 14.2135 38.28 14.5984L22.7495 23.5669Z" fill="#F4256A"/>
</svg>
