<svg width="48" height="48" viewBox="0 0 48 48" fill="none" xmlns="http://www.w3.org/2000/svg">
<path d="M0 17.96C0 14.2594 0 12.4091 0.788211 11.0272C1.3206 10.0939 2.09387 9.3206 3.02725 8.78821C4.40913 8 6.25942 8 9.96 8H30.04C33.7406 8 35.5909 8 36.9728 8.78821C37.9061 9.3206 38.6794 10.0939 39.2118 11.0272C40 12.4091 40 14.2594 40 17.96V30.04C40 33.7406 40 35.5909 39.2118 36.9728C38.6794 37.9061 37.9061 38.6794 36.9728 39.2118C35.5909 40 33.7406 40 30.04 40H9.96C6.25942 40 4.40913 40 3.02725 39.2118C2.09387 38.6794 1.3206 37.9061 0.788211 36.9728C0 35.5909 0 33.7406 0 30.04V17.96Z" fill="#794CFF"/>
<path d="M6 4.94555C6 3.71962 7.3908 3.01138 8.38226 3.73244L26.888 17.1912C27.4371 17.5905 27.4371 18.4093 26.888 18.8086L8.38226 32.2673C7.3908 32.9884 6 32.2802 6 31.0542V4.94555Z" fill="#2BEE6C"/>
<path d="M21.263 21.2912C21.8121 21.6906 21.8121 22.5093 21.263 22.9087L13.1763 28.7899C11.8544 29.7513 10 28.807 10 27.1724V17.0275C10 15.3929 11.8544 14.4486 13.1763 15.41L21.263 21.2912Z" fill="white"/>
<path d="M20 29C20 28.4477 20.4477 28 21 28H33C33.5523 28 34 28.4477 34 29V31C34 31.5523 33.5523 32 33 32H21C20.4477 32 20 31.5523 20 31V29Z" fill="white"/>
</svg>
