<svg width="48" height="48" viewBox="0 0 48 48" fill="none" xmlns="http://www.w3.org/2000/svg">
<path d="M17.0305 25.4848C18.1854 24.9073 18.7629 24.6186 19.3721 24.5218C19.7881 24.4556 20.212 24.4556 20.628 24.5218C21.2372 24.6186 21.8146 24.9073 22.9695 25.4848L36.061 32.0305C38.0914 33.0457 39.1066 33.5533 39.3879 34.2648C39.5746 34.7372 39.5746 35.2629 39.3879 35.7352C39.1066 36.4467 38.0914 36.9543 36.061 37.9695L22.9695 44.5153C21.8146 45.0927 21.2372 45.3815 20.628 45.4783C20.212 45.5444 19.7881 45.5444 19.3721 45.4783C18.7629 45.3815 18.1854 45.0927 17.0305 44.5153L3.93903 37.9695C1.90864 36.9543 0.893444 36.4467 0.612203 35.7352C0.42549 35.2629 0.42549 34.7372 0.612203 34.2648C0.893444 33.5533 1.90864 33.0457 3.93903 32.0305L17.0305 25.4848Z" fill="#2BEE6C"/>
<path d="M18.2112 13.9023C19.3373 13.3392 20.6628 13.3392 21.7889 13.9023L38.4223 22.219C39.8964 22.956 39.8964 25.0597 38.4223 25.7967L21.7889 34.1134C20.6628 34.6765 19.3373 34.6765 18.2112 34.1134L1.57774 25.7967C0.103644 25.0597 0.103643 22.956 1.57774 22.219L18.2112 13.9023Z" fill="#E87DE8"/>
<path d="M31.0079 29.504L21.7889 34.1135C20.6628 34.6765 19.3373 34.6765 18.2112 34.1135L8.99219 29.504L17.0306 25.4848C18.1855 24.9073 18.7629 24.6186 19.3721 24.5218C19.7881 24.4556 20.212 24.4556 20.628 24.5218C21.2372 24.6186 21.8147 24.9073 22.9696 25.4848L31.0079 29.504Z" fill="white"/>
<path d="M17.0305 3.48478C18.1854 2.90733 18.7629 2.6186 19.3721 2.52177C19.7881 2.45564 20.212 2.45564 20.628 2.52177C21.2372 2.6186 21.8146 2.90733 22.9695 3.48478L36.061 10.0305C38.0914 11.0457 39.1066 11.5533 39.3879 12.2648C39.5746 12.7372 39.5746 13.2629 39.3879 13.7352C39.1066 14.4467 38.0914 14.9543 36.061 15.9695L22.9695 22.5153C21.8146 23.0927 21.2372 23.3815 20.628 23.4783C20.212 23.5444 19.7881 23.5444 19.3721 23.4783C18.7629 23.3815 18.1854 23.0927 17.0305 22.5153L3.93903 15.9695C1.90864 14.9543 0.893444 14.4467 0.612203 13.7352C0.42549 13.2629 0.42549 12.7372 0.612203 12.2648C0.893444 11.5533 1.90864 11.0457 3.93903 10.0305L17.0305 3.48478Z" fill="#794CFF"/>
<path d="M30.9922 18.5039L22.9696 22.5152C21.8147 23.0927 21.2372 23.3814 20.628 23.4782C20.212 23.5444 19.7881 23.5444 19.3721 23.4782C18.7629 23.3814 18.1855 23.0927 17.0306 22.5152L9.00793 18.5039L18.2112 13.9023C19.3373 13.3392 20.6628 13.3392 21.7889 13.9023L30.9922 18.5039Z" fill="white"/>
</svg>
