<svg width="50" height="28" viewBox="0 0 50 28" fill="none" xmlns="http://www.w3.org/2000/svg">
<path d="M49.339 13.8734C49.339 21.2481 43.212 27.2468 35.6285 27.2468C28.045 27.2468 21.918 21.2481 21.918 13.8734C21.918 6.49873 28.045 0.5 35.6285 0.5C43.212 0.5 49.339 6.49873 49.339 13.8734Z" stroke="#E8F2F9"/>
<path d="M37.5628 13.7129C37.7581 13.5177 37.7581 13.2011 37.5628 13.0058L34.3809 9.82384C34.1856 9.62858 33.869 9.62858 33.6738 9.82384C33.4785 10.0191 33.4785 10.3357 33.6738 10.5309L36.5022 13.3594L33.6738 16.1878C33.4785 16.3831 33.4785 16.6996 33.6738 16.8949C33.869 17.0902 34.1856 17.0902 34.3809 16.8949L37.5628 13.7129ZM0.367188 13.8594L37.2093 13.8594L37.2093 12.8594L0.367187 12.8594L0.367188 13.8594Z" fill="#C4EF17"/>
</svg>
