<svg width="60" height="60" viewBox="0 0 60 60" fill="none" xmlns="http://www.w3.org/2000/svg">
<g clip-path="url(#clip0_82_607)">
<path d="M59.8659 41.6151L39.0967 2.38451C38.8984 2.00986 38.5108 1.77432 38.0871 1.77045C37.7175 1.77104 37.2725 1.99521 37.0674 2.366L29.8615 15.3913L22.9418 2.3626C22.7413 1.98619 22.3503 1.73096 21.9232 1.73096H21.9221C21.495 1.73096 21.1029 1.98736 20.9035 2.36482L0.134214 41.6053C-0.0550436 41.9631 -0.0437936 42.3787 0.165738 42.7253C0.374214 43.0723 0.749449 43.2694 1.15398 43.2694H11.5386C12.1763 43.2694 12.6924 42.7527 12.6924 42.1155C12.6924 41.4783 12.1763 40.9617 11.5386 40.9617H3.0707L21.9255 5.36611L28.5296 17.7904L7.0675 56.5916C6.86921 56.9488 6.87589 57.367 7.08332 57.7187C7.29062 58.0708 7.66925 58.2692 8.07718 58.2692H50.7692C51.1737 58.2692 51.55 58.0766 51.7585 57.7295C51.9669 57.3819 51.9782 56.9607 51.7878 56.6029L46.9257 47.4668C46.6259 46.9045 45.9262 46.6924 45.3651 46.9926C44.8028 47.2917 44.5887 47.9719 44.8885 48.5347L48.848 55.9616H10.0343L29.822 20.2105L38.5772 36.68C38.8758 37.2417 39.5744 37.4597 40.1378 37.1615C40.7001 36.8624 40.9142 36.1662 40.6144 35.6033L31.1549 17.8203L38.0543 5.32768L56.9293 40.9615H21.923C21.2853 40.9615 20.7692 41.4781 20.7692 42.1153C20.7692 42.7526 21.2853 43.2691 21.923 43.2691H58.8459C59.2504 43.2691 59.6256 43.077 59.8341 42.7299C60.0439 42.3837 60.0551 41.9729 59.8659 41.6151Z" fill="white"/>
</g>
<defs>
<clipPath id="clip0_82_607">
<rect width="60" height="60" fill="white"/>
</clipPath>
</defs>
</svg>
