<svg width="80" height="80" viewBox="0 0 80 80" fill="none" xmlns="http://www.w3.org/2000/svg">
<g id="star (4) 1">
<path id="Vector" d="M40.0001 72.5786C39.5925 72.5786 39.2316 72.315 39.1072 71.9268L33.8153 55.3875L18.0433 63.2133C17.683 63.3924 17.2483 63.3211 16.9636 63.0363C16.679 62.7518 16.6078 62.3172 16.7867 61.9568L24.613 46.1847L8.07311 40.8929C7.68482 40.7686 7.42139 40.4077 7.42139 39.9999C7.42139 39.5921 7.68498 39.2313 8.07311 39.1069L24.6123 33.815L16.7867 18.043C16.6078 17.6824 16.679 17.248 16.9636 16.9633C17.2481 16.6786 17.6828 16.6075 18.0433 16.7865L33.8148 24.6121L39.1075 8.07286C39.2317 7.68458 39.5927 7.42114 40.0003 7.42114C40.408 7.42114 40.7689 7.68458 40.8933 8.07286L46.1858 24.6121L61.9573 16.7865C62.3186 16.6075 62.7527 16.679 63.037 16.9633C63.3216 17.248 63.3927 17.6825 63.2139 18.043L55.3875 33.8146L71.9274 39.1072C72.3155 39.2315 72.5791 39.5924 72.5791 40C72.5791 40.4077 72.3155 40.7688 71.9272 40.893L55.3875 46.1849L63.1814 61.8913C63.2659 62.0321 63.3145 62.1969 63.3145 62.3732C63.3145 62.8891 62.8978 63.3075 62.3827 63.3107C62.2359 63.3086 62.0927 63.2802 61.9572 63.213L46.1856 55.3868L40.8931 71.9269C40.7687 72.3152 40.4078 72.5786 40.0001 72.5786ZM34.3758 53.1255C34.4998 53.1255 34.6241 53.15 34.7411 53.1997C34.9928 53.3061 35.1855 53.5171 35.2687 53.7774L40.0001 68.5649L44.7322 53.7763C44.8155 53.516 45.0083 53.3049 45.2598 53.1986C45.5112 53.0918 45.797 53.1007 46.0419 53.2221L60.2964 60.2957L53.2228 46.0411C53.1014 45.7965 53.0928 45.5107 53.1994 45.2591C53.3058 45.0075 53.5167 44.8147 53.777 44.7315L68.565 39.9999L53.7769 35.2679C53.5166 35.1846 53.3055 34.9919 53.1992 34.7404C53.0927 34.4886 53.1012 34.2032 53.2227 33.9583L60.2962 19.7038L46.0417 26.7768C45.797 26.8982 45.5112 26.9068 45.2597 26.8004C45.0081 26.6938 44.8153 26.4829 44.732 26.2227L40.0001 11.4347L35.268 26.2225C35.1847 26.4829 34.992 26.6938 34.7405 26.8002C34.4889 26.9065 34.2033 26.898 33.9584 26.7766L19.7037 19.7035L26.7769 33.9588C26.8983 34.2036 26.907 34.4893 26.8005 34.7408C26.6939 34.9925 26.483 35.1852 26.2228 35.2685L11.4353 39.9999L26.2234 44.7313C26.4837 44.8146 26.6947 45.0074 26.8011 45.2589C26.9075 45.5105 26.8989 45.7961 26.7775 46.041L19.7039 60.2961L33.9591 53.223C34.0901 53.1582 34.2328 53.1255 34.3758 53.1255Z" fill="white"/>
</g>
</svg>
