<svg width="66" height="66" viewBox="0 0 66 66" fill="none" xmlns="http://www.w3.org/2000/svg">
<path d="M27.9972 45.344L29.255 44.9213C29.4255 44.8586 29.5652 44.7326 29.645 44.5696C29.7249 44.4065 29.7388 44.2189 29.6839 44.0458C29.6609 43.9606 29.6209 43.8809 29.5662 43.8115C29.5116 43.7422 29.4435 43.6846 29.3661 43.6423C29.2886 43.6 29.2034 43.5738 29.1155 43.5653C29.0276 43.5568 28.9389 43.5662 28.8548 43.5929L27.5969 44.0156C27.4265 44.0783 27.2868 44.2043 27.207 44.3674C27.1271 44.5305 27.1132 44.7181 27.1681 44.8911C27.1911 44.9764 27.2311 45.0561 27.2857 45.1254C27.3404 45.1948 27.4085 45.2523 27.4859 45.2947C27.5634 45.337 27.6486 45.3632 27.7365 45.3717C27.8244 45.3801 27.913 45.3707 27.9972 45.344ZM22.9657 47.0347L24.2236 46.6121C24.394 46.5494 24.5337 46.4234 24.6136 46.2603C24.6935 46.0972 24.7074 45.9096 24.6524 45.7365C24.6294 45.6513 24.5894 45.5716 24.5348 45.5022C24.4802 45.4329 24.4121 45.3753 24.3346 45.333C24.2571 45.2907 24.1719 45.2645 24.084 45.256C23.9962 45.2475 23.9075 45.2569 23.8234 45.2836L22.5655 45.7063C22.3951 45.769 22.2554 45.895 22.1755 46.0581C22.0956 46.2212 22.0817 46.4088 22.1367 46.5819C22.1597 46.6671 22.1997 46.7468 22.2543 46.8161C22.3089 46.8855 22.377 46.9431 22.4545 46.9854C22.532 47.0277 22.6172 47.0539 22.7051 47.0624C22.7929 47.0709 22.8816 47.0615 22.9657 47.0347ZM17.9343 48.7255L19.1922 48.3028C19.3626 48.2401 19.5023 48.1141 19.5821 47.951C19.662 47.7879 19.6759 47.6003 19.621 47.4272C19.598 47.342 19.558 47.2623 19.5034 47.193C19.4487 47.1236 19.3806 47.066 19.3032 47.0237C19.2257 46.9814 19.1405 46.9552 19.0526 46.9467C18.9647 46.9382 18.8761 46.9476 18.7919 46.9744L17.5341 47.397C17.3636 47.4597 17.2239 47.5857 17.1441 47.7488C17.0642 47.9119 17.0503 48.0995 17.1052 48.2726C17.1282 48.3578 17.1682 48.4375 17.2229 48.5069C17.2775 48.5762 17.3456 48.6338 17.423 48.6761C17.5005 48.7184 17.5858 48.7446 17.6736 48.7531C17.7615 48.7616 17.8502 48.7522 17.9343 48.7255ZM12.9028 50.4162L14.1607 49.9935C14.3311 49.9308 14.4708 49.8048 14.5507 49.6417C14.6306 49.4786 14.6445 49.291 14.5895 49.118C14.5665 49.0327 14.5265 48.953 14.4719 48.8837C14.4173 48.8143 14.3492 48.7568 14.2717 48.7144C14.1943 48.6721 14.109 48.6459 14.0212 48.6374C13.9333 48.629 13.8446 48.6384 13.7605 48.6651L12.5026 49.0878C12.3322 49.1505 12.1925 49.2765 12.1126 49.4395C12.0327 49.6026 12.0188 49.7902 12.0738 49.9633C12.0968 50.0486 12.1368 50.1282 12.1914 50.1976C12.246 50.2669 12.3141 50.3245 12.3916 50.3668C12.4691 50.4092 12.5543 50.4353 12.6422 50.4438C12.73 50.4523 12.8187 50.4429 12.9028 50.4162ZM7.8714 52.1069L9.12926 51.6842C9.29969 51.6215 9.43938 51.4955 9.51925 51.3325C9.59913 51.1694 9.61303 50.9818 9.55808 50.8087C9.53509 50.7234 9.49509 50.6438 9.44047 50.5744C9.38585 50.5051 9.31776 50.4475 9.24029 50.4052C9.16281 50.3628 9.07758 50.3367 8.98971 50.3282C8.90184 50.3197 8.81317 50.3291 8.72903 50.3558L7.47117 50.7785C7.30074 50.8412 7.16106 50.9672 7.08118 51.1303C7.00131 51.2934 6.9874 51.481 7.04236 51.654C7.06534 51.7393 7.10535 51.819 7.15996 51.8883C7.21458 51.9577 7.28268 52.0152 7.36015 52.0576C7.43762 52.0999 7.52286 52.1261 7.61072 52.1345C7.69859 52.143 7.78727 52.1336 7.8714 52.1069Z" fill="white"/>
<path d="M38.4027 44.0156L37.1448 43.5929C37.0607 43.5662 36.972 43.5568 36.8842 43.5653C36.7963 43.5738 36.7111 43.6 36.6336 43.6423C36.5561 43.6846 36.488 43.7422 36.4334 43.8115C36.3788 43.8809 36.3388 43.9606 36.3158 44.0458C36.2608 44.2189 36.2747 44.4065 36.3546 44.5696C36.4345 44.7326 36.5742 44.8586 36.7446 44.9213L38.0025 45.344C38.0866 45.3707 38.1753 45.3801 38.2631 45.3717C38.351 45.3632 38.4363 45.337 38.5137 45.2947C38.5912 45.2523 38.6593 45.1948 38.7139 45.1254C38.7685 45.0561 38.8085 44.9764 38.8315 44.8911C38.8865 44.7181 38.8726 44.5305 38.7927 44.3674C38.7128 44.2043 38.5731 44.0783 38.4027 44.0156ZM43.4341 45.7063L42.1763 45.2836C42.0921 45.2569 42.0035 45.2475 41.9156 45.256C41.8277 45.2645 41.7425 45.2907 41.665 45.333C41.5876 45.3753 41.5195 45.4329 41.4648 45.5022C41.4102 45.5716 41.3702 45.6513 41.3472 45.7365C41.2923 45.9096 41.3062 46.0972 41.3861 46.2603C41.4659 46.4234 41.6056 46.5494 41.7761 46.6121L43.0339 47.0347C43.118 47.0615 43.2067 47.0709 43.2946 47.0624C43.3825 47.0539 43.4677 47.0277 43.5452 46.9854C43.6226 46.9431 43.6907 46.8855 43.7453 46.8161C43.8 46.7468 43.84 46.6671 43.863 46.5819C43.9179 46.4088 43.904 46.2212 43.8241 46.0581C43.7443 45.895 43.6046 45.769 43.4341 45.7063ZM48.4656 47.397L47.2077 46.9744C47.1236 46.9476 47.0349 46.9382 46.947 46.9467C46.8592 46.9552 46.7739 46.9814 46.6965 47.0237C46.619 47.066 46.5509 47.1236 46.4963 47.193C46.4417 47.2623 46.4017 47.342 46.3787 47.4272C46.3237 47.6003 46.3376 47.7879 46.4175 47.951C46.4974 48.1141 46.6371 48.2401 46.8075 48.3028L48.0654 48.7255C48.1495 48.7522 48.2382 48.7616 48.326 48.7531C48.4139 48.7446 48.4991 48.7184 48.5766 48.6761C48.6541 48.6338 48.7222 48.5762 48.7768 48.5069C48.8314 48.4375 48.8714 48.3578 48.8944 48.2726C48.9494 48.0995 48.9354 47.9119 48.8556 47.7488C48.7757 47.5857 48.636 47.4597 48.4656 47.397ZM53.497 49.0878L52.2392 48.6651C52.155 48.6384 52.0664 48.629 51.9785 48.6374C51.8906 48.6459 51.8054 48.6721 51.7279 48.7144C51.6505 48.7568 51.5824 48.8143 51.5277 48.8837C51.4731 48.953 51.4331 49.0327 51.4101 49.118C51.3552 49.291 51.3691 49.4786 51.449 49.6417C51.5288 49.8048 51.6685 49.9308 51.8389 49.9935L53.0968 50.4162C53.181 50.4429 53.2696 50.4523 53.3575 50.4438C53.4454 50.4353 53.5306 50.4092 53.6081 50.3668C53.6855 50.3245 53.7536 50.2669 53.8083 50.1976C53.8629 50.1282 53.9029 50.0486 53.9259 49.9633C53.9808 49.7902 53.9669 49.6026 53.887 49.4395C53.8071 49.2765 53.6675 49.1505 53.497 49.0878ZM58.5285 50.7785L57.2706 50.3558C57.1865 50.3291 57.0978 50.3197 57.0099 50.3282C56.9221 50.3367 56.8368 50.3628 56.7594 50.4052C56.6819 50.4475 56.6138 50.5051 56.5592 50.5744C56.5046 50.6438 56.4646 50.7234 56.4416 50.8087C56.3866 50.9818 56.4005 51.1694 56.4804 51.3324C56.5603 51.4955 56.7 51.6215 56.8704 51.6842L58.1282 52.1069C58.2124 52.1336 58.3011 52.143 58.3889 52.1345C58.4768 52.1261 58.562 52.0999 58.6395 52.0576C58.717 52.0152 58.7851 51.9577 58.8397 51.8883C58.8943 51.819 58.9343 51.7393 58.9573 51.654C59.0122 51.481 58.9983 51.2934 58.9185 51.1303C58.8386 50.9672 58.6989 50.8412 58.5285 50.7785Z" fill="white"/>
<path d="M32.9998 5.93994C32.825 5.94046 32.6574 6.01017 32.5337 6.13383C32.4101 6.25749 32.3404 6.42506 32.3398 6.59994V7.91994C32.3398 8.09498 32.4094 8.26286 32.5332 8.38663C32.6569 8.51041 32.8248 8.57994 32.9998 8.57994C33.1749 8.57994 33.3428 8.51041 33.4665 8.38663C33.5903 8.26286 33.6598 8.09498 33.6598 7.91994V6.59994C33.6593 6.42506 33.5896 6.25749 33.466 6.13383C33.3423 6.01017 33.1747 5.94046 32.9998 5.93994ZM32.9998 11.2199C32.825 11.2205 32.6574 11.2902 32.5337 11.4138C32.4101 11.5375 32.3404 11.7051 32.3398 11.8799V13.1999C32.3398 13.375 32.4094 13.5429 32.5332 13.6666C32.6569 13.7904 32.8248 13.8599 32.9998 13.8599C33.1749 13.8599 33.3428 13.7904 33.4665 13.6666C33.5903 13.5429 33.6598 13.375 33.6598 13.1999V11.8799C33.6593 11.7051 33.5896 11.5375 33.466 11.4138C33.3423 11.2902 33.1747 11.2205 32.9998 11.2199ZM32.9998 16.4999C32.825 16.5005 32.6574 16.5702 32.5337 16.6938C32.4101 16.8175 32.3404 16.9851 32.3398 17.1599V18.4799C32.3398 18.655 32.4094 18.8229 32.5332 18.9466C32.6569 19.0704 32.8248 19.1399 32.9998 19.1399C33.1749 19.1399 33.3428 19.0704 33.4665 18.9466C33.5903 18.8229 33.6598 18.655 33.6598 18.4799V17.1599C33.6593 16.9851 33.5896 16.8175 33.466 16.6938C33.3423 16.5702 33.1747 16.5005 32.9998 16.4999Z" fill="white"/>
<path d="M62.6866 13.068C62.6602 12.9414 62.5974 12.8253 62.5059 12.7339C62.4145 12.6424 62.2984 12.5796 62.1718 12.5532L33.1978 3.333C33.0699 3.28679 32.9298 3.28679 32.8018 3.333L3.8278 12.5532C3.70123 12.5796 3.58511 12.6424 3.49367 12.7339C3.40224 12.8253 3.33945 12.9414 3.313 13.068C3.30501 13.1116 3.3006 13.1557 3.2998 13.2V52.8C3.3006 52.8443 3.30501 52.8884 3.313 52.932C3.33662 53.0471 3.39073 53.1538 3.46968 53.2409C3.54863 53.328 3.64952 53.3923 3.7618 53.427L3.8278 53.4468L32.7424 62.6472L32.8018 62.667C32.9298 62.7132 33.0698 62.7132 33.1978 62.667L33.2572 62.6472L62.2378 53.427C62.3716 53.3853 62.4885 53.3021 62.5716 53.1893C62.6547 53.0765 62.6996 52.9401 62.6998 52.8V13.2C62.699 13.1557 62.6946 13.1116 62.6866 13.068ZM32.9998 4.653L59.8618 13.2L32.9998 21.747L6.13781 13.2L32.9998 4.653ZM4.6198 14.0976L32.3398 22.9218V61.1358L4.6198 52.3182V14.0976ZM61.3798 52.3182L33.6598 61.1358V22.9218L61.3798 14.0976V52.3182Z" fill="white"/>
</svg>
