<svg width="86" height="86" viewBox="0 0 86 86" fill="none" xmlns="http://www.w3.org/2000/svg">
<path d="M43 77.8536C42.8443 77.8536 42.6886 77.8103 42.5515 77.7239L13.8289 59.5833C13.5853 59.4294 13.4375 59.1614 13.4375 58.8731V27.127C13.4375 26.839 13.5851 26.5707 13.8289 26.4169L42.5515 8.27624C42.8253 8.10323 43.1744 8.10323 43.4485 8.27624L72.1711 26.4169C72.4147 26.5707 72.5625 26.8388 72.5625 27.127V58.8731C72.5625 59.1614 72.4147 59.4294 72.1711 59.5833L43.4485 77.7239C43.3116 77.8103 43.1557 77.8536 43 77.8536ZM31.5602 68.7952L43 76.0204L70.8828 58.4102V44.2189L58.2012 36.2094V51.3145C58.2012 51.6011 58.055 51.868 57.8135 52.0224L31.5602 68.7952ZM15.1172 58.4102L29.9912 67.8044L41.5163 60.4411L28.1902 52.0247C27.9465 51.8708 27.7988 51.6028 27.7988 51.3145V19.5805L15.1172 27.59V58.4102ZM29.4785 50.8516L43.0801 59.4422L56.5215 50.8545V35.1486L43 26.6087L29.4785 35.1486V50.8516ZM70.8828 42.2321V27.59L43 9.97978L29.4785 18.5196V33.1618L42.5515 24.9051C42.8253 24.7321 43.1744 24.732 43.4485 24.9051L70.8828 42.2321Z" fill="white"/>
</svg>
