<svg width="60" height="60" viewBox="0 0 60 60" fill="none" xmlns="http://www.w3.org/2000/svg">
<g clip-path="url(#clip0)">
<path fill-rule="evenodd" clip-rule="evenodd" d="M35.7907 -0.14563L26.5304 1.39401L33.8222 6.84963L29 10.973V23.9415H31V11.8906L36.7398 6.98264H57V47.8834H52V49.8785H59V4.98749H36.8198L35.7907 -0.14563ZM38 47.8834H36.8198V49.8785H38V47.8834ZM34.8002 5.08742L31.4696 2.59549L34.2093 2.13997L34.8002 5.08742Z" fill="#02ADCC"/>
<path fill-rule="evenodd" clip-rule="evenodd" d="M42 31.9222V36.2893L38 41.898L38 57.8592H52V41.898L48 36.2893V31.9222H42ZM46 33.9173H44V35.9125H46V33.9173ZM46.8988 37.9076H43.1012L41 40.9004H49L46.8988 37.9076ZM50 42.8955H40V55.8641H50V42.8955Z" fill="#02ADCC"/>
<path fill-rule="evenodd" clip-rule="evenodd" d="M21 39.9028H33V51.8737H21V39.9028ZM23 49.8786V41.898H31V49.8786H23Z" fill="#02ADCC"/>
<path fill-rule="evenodd" clip-rule="evenodd" d="M37 23.9415H17V59.8544H37V23.9415ZM19 32.9197H35V57.8592H19V32.9197ZM35 30.9246V25.9367H33V30.9246H35ZM28 25.9367H31V30.9246H28V25.9367ZM26 25.9367V30.9246H23V25.9367H26ZM19 30.9246H21V25.9367H19V30.9246Z" fill="#02ADCC"/>
<path fill-rule="evenodd" clip-rule="evenodd" d="M17 3.98996H9V11.8902L2 16.9585V57.8592H17V55.8641H4V45.8883H13V26.9343H4V18.9536H22V23.9415H24V16.9585L17 11.8902V3.98996ZM15.1492 12.9682H10.8508L5.20156 16.9585H20.7984L15.1492 12.9682ZM11 5.98512H15V10.973H11V5.98512ZM4 43.8931V28.9294H11V43.8931H4Z" fill="#02ADCC"/>
</g>
<defs>
<clipPath id="clip0">
<rect width="60" height="60" fill="white"/>
</clipPath>
</defs>
</svg>
