<svg width="60" height="60" viewBox="0 0 60 60" fill="none" xmlns="http://www.w3.org/2000/svg">
<path d="M40.8965 60H24.127V57.6621L32.9863 47.8184C34.2988 46.3301 35.2012 45.123 35.6934 44.1973C36.1973 43.2598 36.4492 42.293 36.4492 41.2969C36.4492 39.9609 36.0449 38.8652 35.2363 38.0098C34.4277 37.1543 33.3496 36.7266 32.002 36.7266C30.3848 36.7266 29.125 37.1894 28.2227 38.1152C27.332 39.0293 26.8867 40.3066 26.8867 41.9473H23.6348C23.6348 39.5918 24.3906 37.6875 25.9023 36.2344C27.4258 34.7812 29.459 34.0547 32.002 34.0547C34.3809 34.0547 36.2617 34.6816 37.6445 35.9355C39.0273 37.1777 39.7188 38.8359 39.7188 40.9102C39.7188 43.4297 38.1133 46.4297 34.9023 49.9102L28.0469 57.3457H40.8965V60Z" fill="#02ADCC"/>
<path d="M58.0703 51.4043H61.6211V54.0586H58.0703V60H54.8008V54.0586H43.1465V52.1426L54.6074 34.4062H58.0703V51.4043ZM46.8379 51.4043H54.8008V38.8535L54.4141 39.5566L46.8379 51.4043Z" fill="#02ADCC"/>
<path d="M40.435 13.565C40.0445 13.1746 39.4115 13.1746 39.021 13.565L28.275 24.31C27.4632 23.948 26.5357 23.948 25.724 24.31L20.636 19.222C20.2387 18.8384 19.6056 18.8494 19.222 19.2466C18.8477 19.6341 18.8477 20.2485 19.222 20.636L24.3 25.714C23.587 27.2065 24.219 28.9945 25.7116 29.7074C26.8572 30.2546 28.2235 30.02 29.121 29.122C30.0234 28.2272 30.2557 26.8572 29.699 25.715L40.435 14.979C40.8254 14.5885 40.8254 13.9555 40.435 13.565ZM27.707 27.707C27.3115 28.0851 26.6885 28.0851 26.293 27.707C25.9023 27.3165 25.9023 26.6834 26.2927 26.2927C26.6831 25.9021 27.3164 25.9021 27.707 26.2925C28.0976 26.683 28.0974 27.3164 27.707 27.707Z" fill="#02ADCC"/>
<path d="M14.482 8.5669L13.119 6.20605L13 6L14.7321 5L14.8259 5.16253L16.2141 7.5669C16.4902 8.04517 16.3263 8.6568 15.848 8.93293C15.3698 9.20905 14.7581 9.04517 14.482 8.5669Z" fill="#02ADCC"/>
<path d="M6.5669 17.2141L4.52942 16.0377L4 15.7321L5 14L5.47792 14.2759L7.5669 15.482C8.04516 15.7581 8.20905 16.3698 7.93292 16.848C7.6568 17.3263 7.04516 17.4902 6.5669 17.2141Z" fill="#02ADCC"/>
<path d="M8.5669 39.2321L6.0708 40.6732L6 40.7141L5 38.9821L5.04465 38.9563L7.5669 37.5001C8.04516 37.2239 8.6568 37.3878 8.93292 37.8661C9.20905 38.3444 9.04516 38.956 8.5669 39.2321Z" fill="#02ADCC"/>
<path d="M16.2141 46.8661L15.0134 48.9456L14.7321 49.433L13 48.433L13.2985 47.9159L14.482 45.8661C14.7581 45.3878 15.3698 45.2239 15.848 45.5001C16.3263 45.7762 16.4902 46.3878 16.2141 46.8661Z" fill="#02ADCC"/>
<path d="M38.5 7.56696L39.7097 5.47172L39.982 5.00006L41.7141 6.00006L41.3919 6.55802L40.232 8.56696C39.9559 9.04522 39.3443 9.20911 38.866 8.93299C38.3878 8.65686 38.2239 8.04522 38.5 7.56696Z" fill="#02ADCC"/>
<path d="M46.866 15.482L48.6334 14.4616L49.4329 14L50.4329 15.7321L49.5675 16.2317L47.866 17.2141C47.3878 17.4902 46.7761 17.3263 46.5 16.848C46.2239 16.3698 46.3878 15.7581 46.866 15.482Z" fill="#02ADCC"/>
<path d="M2.035 28H6C6.55225 28 7 27.5523 7 27C7 26.4477 6.55225 26 6 26H2.035C2.17196 22.4356 3.05375 19.0645 4.52942 16.0377L4 15.7321L5 14L5.47792 14.2759C7.38827 11.0458 10.006 8.28511 13.119 6.20605L13 6L14.7321 5L14.8259 5.16253C18.1539 3.30723 21.9523 2.19137 26 2.036V5C26 5.55225 26.4477 6 27 6C27.5523 6 28 5.55225 28 5V2.036C32.2633 2.20088 36.2537 3.4316 39.7097 5.47172L39.982 5.00006L41.7141 6.00006L41.3919 6.55802C44.3386 8.63273 46.8162 11.3298 48.6334 14.4616L49.4329 14L50.4329 15.7321L49.5675 16.2317C50.9241 19.074 51.7602 22.2159 51.952 25.536L48.052 21.636C47.6547 21.2522 47.0218 21.2632 46.638 21.6605C46.2638 22.048 46.2638 22.6624 46.638 23.05L52.22 28.632C52.3251 28.7592 52.4606 28.8579 52.614 28.919C52.6531 28.9308 52.6929 28.9405 52.733 28.948C52.8016 28.9727 52.8726 28.9899 52.945 28.999H52.974H53.002C53.0781 28.9933 53.1534 28.9785 53.226 28.955C53.2671 28.95 53.3079 28.9424 53.348 28.932C53.4834 28.8839 53.6066 28.8067 53.709 28.706L59.367 23.05C59.7506 22.6527 59.7397 22.0196 59.3425 21.636C58.955 21.2617 58.3406 21.2617 57.953 21.636L53.956 25.63C53.2416 11.2962 41.4225 0.035125 27.071 0.014C27.046 0.013 27.025 0 27 0C26.975 0 26.954 0.013 26.929 0.014C12.0728 0.034375 0.034375 12.0728 0.014 26.929C0.014 26.954 0 26.975 0 27C0 27.025 0.013 27.046 0.014 27.071C0.0342668 38.8764 7.6503 48.9505 18.3026 52.5693C18.3026 52.5693 19.3025 52.4639 19.5 51.982C19.7048 51.4823 19 50.6927 19 50.6927C17.6124 50.2248 16.2795 49.6384 15.0134 48.9456L14.7321 49.433L13 48.433L13.2985 47.9159C10.4192 46.026 7.95504 43.5569 6.0708 40.6732L6 40.7141L5 38.9821L5.04465 38.9563C3.26118 35.6806 2.18908 31.9598 2.035 28Z" fill="#02ADCC"/>
</svg>
