<svg width="60" height="60" viewBox="0 0 60 60" fill="none" xmlns="http://www.w3.org/2000/svg">
<path d="M29 14.2926H28.293H26.8879C25.6435 14.1535 24.3443 13.9603 23.1644 13.7636C22.0508 13.578 21.0603 13.3923 20.3483 13.253C19.9925 13.1834 19.7066 13.1254 19.5103 13.085C19.4121 13.0648 19.3363 13.049 19.2854 13.0382L19.2279 13.0261L19.2188 13.0242L19.2069 13.0213C19.1923 13.0179 19.1697 13.0124 19.1394 13.0049C19.0787 12.9899 18.9877 12.9668 18.8707 12.9356C18.6365 12.8732 18.2989 12.7786 17.8926 12.6514C17.0769 12.396 15.9993 12.0138 14.9304 11.5042C13.8524 10.9903 12.8355 10.3711 12.1017 9.66096C11.3701 8.95305 11 8.23709 11 7.5C11 5.52743 11.6619 3.94507 12.9114 2.84319C14.1758 1.72822 16.1623 1 19 1C21.4352 1 23.4774 2.20807 25.7071 5.10936C27.2304 7.0914 28.3853 9.46939 29 11.637V14.2926ZM31 14.2926V11.639C31.6099 9.55279 33.1923 7.19205 34.7929 5.10936C37.0227 2.20807 39.0649 1 41.5 1C44.3378 1 46.3242 1.72822 47.5886 2.84319C48.8382 3.94507 49.5 5.52743 49.5 7.5C49.5 8.23709 49.1299 8.95305 48.3984 9.66096C47.6645 10.3711 46.6477 10.9903 45.5697 11.5042C44.5008 12.0138 43.4232 12.396 42.6075 12.6514C42.2012 12.7786 41.8636 12.8732 41.6294 12.9356C41.5123 12.9668 41.4213 12.9899 41.3607 13.0049C41.3414 13.0097 41.3252 13.0136 41.3122 13.0168C41.3048 13.0186 41.2985 13.0201 41.2932 13.0213L41.2876 13.0227L41.2839 13.0234L41.222 13.0356C41.1672 13.0464 41.0859 13.0622 40.9808 13.0825C40.7704 13.123 40.4647 13.1811 40.085 13.2508C39.3253 13.3904 38.2713 13.5764 37.0941 13.7622C35.8454 13.9594 34.4778 14.1532 33.1833 14.2926H31.7363H31ZM26.7778 16.2926C26.9503 16.3115 27.1222 16.3294 27.293 16.3462V26.3281H1.03131L1.00284 16.2926H26.7778ZM32.7363 16.3481C32.9193 16.3308 33.1038 16.3122 33.2894 16.2926H58.962L58.9966 26.3281H32.7363V16.3481ZM43.3223 30.7351H54.9324V59H32.4412V33.3381L39.7568 44.7329L40.5665 45.9941L41.4202 44.7622L43.7243 41.4372L48.7401 42.183L50.9265 42.5081L49.7272 40.6513L43.3223 30.7351ZM27.7198 33.1364V59H5.10424V30.7351H16.7176L10.3013 40.7017L9.09361 42.5776L11.2976 42.2309L16.3158 41.4412L18.6254 44.7233L19.4802 45.9379L20.2841 44.689L27.7198 33.1364Z" stroke="#FA873F" stroke-width="2"/>
</svg>
