<svg width="170" height="116" viewBox="0 0 170 116" fill="none" xmlns="http://www.w3.org/2000/svg">
<circle cx="4" cy="112" r="4" fill="#DCDCDC"/>
<circle cx="31" cy="112" r="4" fill="#DCDCDC"/>
<circle cx="58" cy="112" r="4" fill="#DCDCDC"/>
<circle cx="85" cy="112" r="4" fill="#DCDCDC"/>
<circle cx="112" cy="112" r="4" fill="#DCDCDC"/>
<circle cx="139" cy="112" r="4" fill="#DCDCDC"/>
<circle cx="166" cy="112" r="4" fill="#DCDCDC"/>
<circle cx="4" cy="85" r="4" fill="#DCDCDC"/>
<circle cx="31" cy="85" r="4" fill="#DCDCDC"/>
<circle cx="58" cy="85" r="4" fill="#DCDCDC"/>
<circle cx="85" cy="85" r="4" fill="#DCDCDC"/>
<circle cx="112" cy="85" r="4" fill="#DCDCDC"/>
<circle cx="139" cy="85" r="4" fill="#DCDCDC"/>
<circle cx="166" cy="85" r="4" fill="#DCDCDC"/>
<circle cx="4" cy="58" r="4" fill="#DCDCDC"/>
<circle cx="4" cy="31" r="4" fill="#DCDCDC"/>
<circle cx="4" cy="4" r="4" fill="#DCDCDC"/>
<circle cx="31" cy="58" r="4" fill="#DCDCDC"/>
<circle cx="31" cy="31" r="4" fill="#DCDCDC"/>
<circle cx="31" cy="4" r="4" fill="#DCDCDC"/>
<circle cx="58" cy="58" r="4" fill="#DCDCDC"/>
<circle cx="85" cy="58" r="4" fill="#DCDCDC"/>
<circle cx="112" cy="58" r="4" fill="#DCDCDC"/>
<circle cx="139" cy="58" r="4" fill="#DCDCDC"/>
<circle cx="166" cy="58" r="4" fill="#DCDCDC"/>
<circle cx="58" cy="31" r="4" fill="#DCDCDC"/>
<circle cx="85" cy="31" r="4" fill="#DCDCDC"/>
<circle cx="112" cy="31" r="4" fill="#DCDCDC"/>
<circle cx="139" cy="31" r="4" fill="#DCDCDC"/>
<circle cx="166" cy="31" r="4" fill="#DCDCDC"/>
<circle cx="58" cy="4" r="4" fill="#DCDCDC"/>
<circle cx="85" cy="4" r="4" fill="#DCDCDC"/>
<circle cx="112" cy="4" r="4" fill="#DCDCDC"/>
<circle cx="139" cy="4" r="4" fill="#DCDCDC"/>
<circle cx="166" cy="4" r="4" fill="#DCDCDC"/>
</svg>
