<svg width="116" height="89" viewBox="0 0 116 89" fill="none" xmlns="http://www.w3.org/2000/svg">
<circle cx="4" cy="85" r="4" fill="#ACEAF4"/>
<circle cx="31" cy="85" r="4" fill="#ACEAF4"/>
<circle cx="58" cy="85" r="4" fill="#ACEAF4"/>
<circle cx="85" cy="85" r="4" fill="#ACEAF4"/>
<circle cx="112" cy="85" r="4" fill="#ACEAF4"/>
<circle cx="4" cy="58" r="4" fill="#ACEAF4"/>
<circle cx="31" cy="58" r="4" fill="#ACEAF4"/>
<circle cx="58" cy="58" r="4" fill="#ACEAF4"/>
<circle cx="85" cy="58" r="4" fill="#ACEAF4"/>
<circle cx="112" cy="58" r="4" fill="#ACEAF4"/>
<circle cx="4" cy="31" r="4" fill="#ACEAF4"/>
<circle cx="4" cy="4" r="4" fill="#ACEAF4"/>
<circle cx="31" cy="31" r="4" fill="#ACEAF4"/>
<circle cx="31" cy="4" r="4" fill="#ACEAF4"/>
<circle cx="58" cy="31" r="4" fill="#ACEAF4"/>
<circle cx="85" cy="31" r="4" fill="#ACEAF4"/>
<circle cx="112" cy="31" r="4" fill="#ACEAF4"/>
<circle cx="58" cy="4" r="4" fill="#ACEAF4"/>
<circle cx="85" cy="4" r="4" fill="#ACEAF4"/>
<circle cx="112" cy="4" r="4" fill="#ACEAF4"/>
</svg>
