<?xml version="1.0" encoding="UTF-8"?>
<svg width="80px" height="80px" viewBox="0 0 80 80" version="1.1" xmlns="http://www.w3.org/2000/svg" xmlns:xlink="http://www.w3.org/1999/xlink">
    <!-- Generator: Sketch 52.6 (67491) - http://www.bohemiancoding.com/sketch -->
    <title>icon-home</title>
    <desc>Created with Sketch.</desc>
    <g id="icon-home" stroke="none" stroke-width="1" fill="none" fill-rule="evenodd">
        <g id="Home" transform="translate(5.000000, 4.000000)">
            <polygon id="Path" fill="#00BFFF" fill-rule="nonzero" points="35.0000077 4.39968045 17.2150679 24.7916721 21.7291714 24.7916721 21.7291714 42.4891119 48.2708439 42.4891119 48.2708439 24.7916721 52.7849474 24.7916721"></polygon>
            <g id="Group" transform="translate(0.000000, 32.756417)" fill="#FAA477" stroke="#FAA477" stroke-width="0.5">
                <path d="M40.2208421,37.0192389 C40.2208421,37.0192389 34.9551359,26.7682751 45.0827022,19.6695556 C55.2102685,12.5708361 58.043923,8.62884804 58.043923,8.62884804 C58.043923,8.62884804 63.7157191,7.05160411 61.2836673,11.7833359 C58.8516154,16.5150677 54.8019351,19.6695556 54.8019351,19.6695556 C54.8019351,19.6695556 62.4974496,18.0923116 64.5234116,11.7833359 C66.5493735,5.47436017 64.5234116,1.92500042 69.3852716,0.742628368 C69.3852716,0.742628368 71.8150798,12.5708361 64.5234116,19.6695556 C57.2317433,26.7682751 48.7262927,29.5278911 48.3202029,37.0192389 L40.2208421,37.0192389 Z" id="Path"></path>
                <path d="M29.7791732,37.0192389 C29.7791732,37.0192389 35.0448795,26.7682751 24.9173131,19.6695556 C14.7897468,12.5708361 11.9560924,8.62884804 11.9560924,8.62884804 C11.9560924,8.62884804 6.28429625,7.05160411 8.71634806,11.7833359 C11.1483999,16.5150677 15.1980802,19.6695556 15.1980802,19.6695556 C15.1980802,19.6695556 7.50256574,18.0923116 5.47660376,11.7833359 C3.45064178,5.47436017 5.47660376,1.92500042 0.614743724,0.742628368 C0.614743724,0.742628368 -1.8150645,12.5708361 5.47660376,19.6695556 C12.768272,26.7682751 21.2737226,29.5278911 21.6798124,37.0192389 L29.7791732,37.0192389 Z" id="Path"></path>
            </g>
            <path d="M34.4732127,22.8747486 C32.7695559,22.874253 31.3887248,21.4930201 31.3887248,19.7893633 L31.3887248,17.8105167 C31.3887248,17.391205 31.0488056,17.0512858 30.6294939,17.0512858 C30.2101821,17.0512858 29.8702629,17.391205 29.8702629,17.8105167 L29.8702629,19.7884659 C29.8702629,21.4924727 28.4888844,22.8738512 26.7848777,22.8738512 C26.3655659,22.8738512 26.0256467,23.2137703 26.0256467,23.6330821 C26.0256467,24.0523939 26.3655659,24.392313 26.7848777,24.392313 C27.6030899,24.3920749 28.387869,24.7169417 28.9665179,25.2954209 C29.5451658,25.8739001 29.8702629,26.6585904 29.8702629,27.4768009 L29.8702629,29.45475 C29.8702629,29.8740618 30.2101821,30.213981 30.6294939,30.213981 C31.0488056,30.213981 31.3887248,29.8740618 31.3887248,29.45475 L31.3887248,27.4768009 C31.3887248,25.7732877 32.7696995,24.392313 34.4732127,24.392313 C34.8925244,24.392313 35.2324436,24.0523939 35.2324436,23.6330821 C35.2324436,23.2137703 34.8925244,22.8738512 34.4732127,22.8738512" id="Path" fill="#FFD534" fill-rule="nonzero"></path>
            <path d="M17.4210295,5.45119735 L17.4210295,8.2422236 M17.4210295,12.3740194 L17.4210295,15.1650456 M22.2770562,10.3081215 L19.4860299,10.3081215 M15.3551316,10.3081215 L12.5641053,10.3081215 M39.9960344,28.8437666 L39.9960344,31.6347928 M39.9960344,35.7665886 L39.9960344,38.5576148 M44.8529585,33.7006907 L42.0619323,33.7006907 M37.9301365,33.7006907 L35.1391103,33.7006907 M43.695266,7.66696706 C45.6283433,4.79247925 48.7182158,2.42953002 52.0046268,1.31670926 C54.227576,0.564657816 56.7673201,0.636452703 57.8074485,3.11337632 C58.9498847,5.83260769 56.4218072,9.83965984 53.3615501,9.64760852 C52.4506525,9.59017261 51.9059088,8.87760835 52.2038576,7.97299277 C52.3393704,7.56465935 52.6202679,7.22094132 52.9218064,6.91222331 C54.4914222,5.3058127 56.769115,4.45953046 59.0037309,4.46491508 C60.3687312,4.46850482 61.9105264,4.95132544 62.4606547,6.20145392 C63.1023215,7.66068501 62.0505264,9.32722384 60.798603,10.3161984" id="Shape" stroke="#000000" stroke-width="1.641026" stroke-linecap="round" stroke-linejoin="round"></path>
            <polygon id="Path" fill="#00BFFF" fill-rule="nonzero" points="41.2820603 9.42307898 45.7692408 9.42307898 45.7692408 16.6025677 41.2820603 16.6025677"></polygon>
        </g>
    </g>
</svg>