<?xml version="1.0" encoding="UTF-8"?>
<svg width="80px" height="80px" viewBox="0 0 80 80" version="1.1" xmlns="http://www.w3.org/2000/svg" xmlns:xlink="http://www.w3.org/1999/xlink">
    <!-- Generator: Sketch 52.6 (67491) - http://www.bohemiancoding.com/sketch -->
    <title>icon-cleaner</title>
    <desc>Created with Sketch.</desc>
    <defs>
        <path d="M0.535890286,36.7919302 C0.535890286,56.877895 16.8196923,73.1569109 36.8984781,73.1569109 C56.9868358,73.1569109 73.2634588,56.877895 73.2634588,36.7919302 C73.2634588,16.7107514 56.9868358,0.429342383 36.8984781,0.429342383 C16.819792,0.429342383 0.535890286,16.7107514 0.535890286,36.7919302 Z" id="path-1"></path>
        <path d="M0.535887295,36.7919302 C0.535887295,56.877895 16.8196893,73.1569109 36.8984751,73.1569109 C56.9868329,73.1569109 73.2634559,56.877895 73.2634559,36.7919302 C73.2634559,16.7107514 56.9868329,0.429342383 36.8984751,0.429342383 C16.819789,0.429342383 0.535887295,16.7107514 0.535887295,36.7919302 Z" id="path-3"></path>
        <path d="M0.535890286,36.7919302 C0.535890286,56.877895 16.8196923,73.1569109 36.8984781,73.1569109 C56.9868358,73.1569109 73.2634588,56.877895 73.2634588,36.7919302 C73.2634588,16.7107514 56.9868358,0.429342383 36.8984781,0.429342383 C16.819792,0.429342383 0.535890286,16.7107514 0.535890286,36.7919302 Z" id="path-5"></path>
        <path d="M0.594539493,36.8505584 C0.594539493,56.9365232 16.8783415,73.2155392 36.9571273,73.2155392 C57.0454851,73.2155392 73.3221081,56.9365232 73.3221081,36.8505584 C73.3221081,16.7693796 57.0454851,0.487970651 36.9571273,0.487970651 C16.8784412,0.487970651 0.594539493,16.7693796 0.594539493,36.8505584 Z" id="path-7"></path>
        <path d="M0.535890286,36.7919302 C0.535890286,56.877895 16.8196923,73.1569109 36.8984781,73.1569109 C56.9868358,73.1569109 73.2634588,56.877895 73.2634588,36.7919302 C73.2634588,16.7107514 56.9868358,0.429342383 36.8984781,0.429342383 C16.819792,0.429342383 0.535890286,16.7107514 0.535890286,36.7919302 Z" id="path-9"></path>
        <path d="M0.535890286,36.7919302 C0.535890286,56.877895 16.8196923,73.1569109 36.8984781,73.1569109 C56.9868358,73.1569109 73.2634588,56.877895 73.2634588,36.7919302 C73.2634588,16.7107514 56.9868358,0.429342383 36.8984781,0.429342383 C16.819792,0.429342383 0.535890286,16.7107514 0.535890286,36.7919302 Z" id="path-11"></path>
        <path d="M0.572213888,0.726524885 L17.4493778,0.726524885 C21.5766683,2.89495319 25.2504471,5.83381476 28.272176,9.38427486 L28.272176,56.5115311 C21.3688669,64.641836 11.2379721,69.3229044 0.572213888,69.3104409 L0.572213888,0.726534856 L28.2770617,0.724113109 L28.2770617,74.2362834 L0.569820898,74.2362834 L0.569820898,0.7265061 L0.572242644,0.7265061 L0.572213888,0.726524885 Z" id="path-13"></path>
        <path d="M0.594539493,36.8505584 C0.594539493,56.9365232 16.8783415,73.2155392 36.9571273,73.2155392 C57.0454851,73.2155392 73.3221081,56.9365232 73.3221081,36.8505584 C73.3221081,16.7693796 57.0454851,0.487970651 36.9571273,0.487970651 C16.8784412,0.487970651 0.594539493,16.7693796 0.594539493,36.8505584 Z" id="path-15"></path>
        <polygon id="path-17" points="0.340649181 0 9.84129018 0 9.84129018 13.5809192 0.340649181 13.5809192"></polygon>
    </defs>
    <g id="icon-cleaner" stroke="none" stroke-width="1" fill="none" fill-rule="evenodd">
        <g id="Group" transform="translate(0.000000, 3.000000)">
            <g id="Clipped" transform="translate(0.230769, 0.230769)">
                <mask id="mask-2" fill="white">
                    <use xlink:href="#path-1"></use>
                </mask>
                <g id="j"></g>
                <polygon id="Path" fill="#FEFEFE" mask="url(#mask-2)" points="-26.4206095 109.907063 99.3190775 109.907063 99.3190775 -15.8326235 -26.4206095 -15.8326235"></polygon>
            </g>
            <g transform="translate(0.230769, 0.230769)" id="Clipped">
                <g>
                    <mask id="mask-4" fill="white">
                        <use xlink:href="#path-3"></use>
                    </mask>
                    <g id="Path"></g>
                    <path d="M47.1763125,48.8255816 L46.1155896,46.9850528 C45.3906989,45.7269081 45.0082731,44.3007356 45.0064285,42.8487088 L45.0064285,39.225771 L28.7904279,39.225771 L28.7904279,42.8487088 C28.7904279,44.3017626 28.4077917,45.7281644 27.6812669,46.9874757 L26.6205439,48.8255816 L26.6157004,48.8352685 C27.6099162,50.4330284 28.9611302,51.7784374 30.5631476,52.7657654 C32.0922885,53.7003678 33.810695,54.2819941 35.593124,54.4682585 L36.8960275,56.0884128 L38.201354,54.4658456 C39.9850293,54.279991 41.7049315,53.6992451 43.2361662,52.7657754 C44.836698,51.7782031 46.1862848,50.4327592 47.1787776,48.8352784 L47.1739342,48.8255915 L47.1763559,48.8255915 L47.1763125,48.8255816 Z" id="Path" fill="#E79970" mask="url(#mask-4)"></path>
                </g>
            </g>
            <g id="Clipped" transform="translate(0.230769, 0.230769)">
                <mask id="mask-6" fill="white">
                    <use xlink:href="#path-5"></use>
                </mask>
                <g id="j"></g>
                <path d="M64.579037,62.2444753 C64.3647726,54.7934506 58.2775551,48.8562916 50.8235292,48.8279745 C49.9588022,49.9926131 48.9910469,51.0770765 47.9319591,52.0682732 C44.7255612,55.0567095 40.9476374,56.7906804 36.8984781,56.7906804 C32.8493187,56.7906804 29.0762308,55.0567095 25.864997,52.0682732 C24.8065574,51.0764514 23.8388519,49.9920448 22.9734269,48.8279745 C15.5192814,48.8550346 9.4320918,54.7932811 9.22031213,62.2444753 C9.21304692,62.3122843 9.19609467,62.3776712 9.19609467,62.4479025 L9.19609467,76.0048917 C9.19743106,77.1541952 10.1294986,78.0851782 11.2787941,78.0851782 L62.5181054,78.0851782 C63.6683462,78.0851782 64.6008048,77.1527195 64.6008048,76.0024788 L64.6008048,62.4503752 C64.6008048,62.3777227 64.5862744,62.3147575 64.5790091,62.2469481" id="Path" fill="#00BFFF" fill-rule="nonzero" mask="url(#mask-6)"></path>
            </g>
            <g transform="translate(0.172117, 0.172117)" id="Clipped">
                <g>
                    <mask id="mask-8" fill="white">
                        <use xlink:href="#path-7"></use>
                    </mask>
                    <g id="k"></g>
                    <path d="M37.0079973,9.62765895 L36.9571405,9.63250244 L36.9087056,9.62765895 C28.190413,9.77780714 23.6472507,14.3985043 23.6472507,28.6553237 C23.6472507,36.295943 32.5181164,46.8814363 36.9087056,46.8814363 L36.9571405,46.8765928 L37.0055756,46.8814363 C41.3986276,46.8814363 50.2695232,35.7898255 50.2695232,28.6553237 C50.2695232,14.3984844 45.7238981,9.7778191 37.0080683,9.62765895" id="Path" fill="#FAA477" mask="url(#mask-8)"></path>
                </g>
            </g>
            <g id="Clipped" transform="translate(0.230769, 0.230769)">
                <mask id="mask-10" fill="white">
                    <use xlink:href="#path-9"></use>
                </mask>
                <g id="j"></g>
                <path d="M50.3609841,32.7621341 C50.0655305,33.5613112 49.1791658,34.0989384 48.4550669,33.980276 C47.7261201,33.8664534 47.365279,33.1326638 47.5953461,32.3334897 C48.217735,30.2265712 48.5325629,28.0494185 48.4453802,25.9521816 C48.4138974,25.1554265 48.9660561,24.6202232 49.7628112,24.7340398 C50.5595664,24.8502843 51.3272587,25.581652 51.3732739,26.383249 C51.4895174,28.4901674 51.1214117,30.6648973 50.3609791,32.7621341 M23.2035279,32.7621341 C23.4989815,33.5613112 24.3829233,34.0989384 25.1070223,33.980276 C25.83839,33.8664534 26.1968101,33.1326638 25.966743,32.3334897 C25.3377494,30.266923 25.0514231,28.1112972 25.1191308,25.9521816 C25.1481918,25.1554265 24.596033,24.6202232 23.8016998,24.7340398 C23.0049446,24.8502843 22.2348294,25.581652 22.1912371,26.383249 C22.0725717,28.4901674 22.4406774,30.6648973 23.2035319,32.7621341" id="Shape" fill="#F8E5BD" fill-rule="nonzero" mask="url(#mask-10)"></path>
            </g>
            <g id="Clipped" transform="translate(0.230769, 0.230769)">
                <mask id="mask-12" fill="white">
                    <use xlink:href="#path-11"></use>
                </mask>
                <g id="j"></g>
                <g id="Group" mask="url(#mask-12)">
                    <g transform="translate(36.326194, 3.846423)" id="Clipped">
                        <g>
                            <mask id="mask-14" fill="white">
                                <use xlink:href="#path-13"></use>
                            </mask>
                            <g id="Path"></g>
                            <path d="M8.68022414,38.9998628 L8.68022414,36.9147404 C8.88607318,36.616865 9.08465649,36.3093029 9.28566171,36.0017408 C10.363335,34.5051047 11.3393062,32.8873733 12.1191121,31.2551144 C11.4676613,35.4447423 10.1211644,39.1572777 9.17911381,41.7775923 C8.85258427,40.8877249 8.68376178,39.9477223 8.68023312,38.9998488 M28.2746378,72.1560287 L28.2746378,58.5990394 C28.2746378,58.5288087 28.2625289,58.4634217 28.2552637,58.3956123 C28.0385007,50.9456844 21.9527449,45.0099213 14.4997559,44.9791115 L14.4513209,44.9766898 L10.8477564,44.9766898 L10.8501781,44.9863768 L10.8501781,44.9766898 L9.78703222,43.136161 C9.65867918,42.9206254 9.55696612,42.6905593 9.45283115,42.465337 C28.0058861,11.3047118 8.22984349,2.37088049 3.76414428,1.13819124 C2.72152828,0.868045547 1.64930899,0.728933031 0.572283783,0.724072269 L0.572283783,74.2362426 L26.1944321,74.2362426 C27.3437356,74.2362434 28.2757955,73.3052606 28.2771316,72.1559561" id="Shape" fill="#E6E7E7" fill-rule="nonzero" mask="url(#mask-14)"></path>
                        </g>
                    </g>
                </g>
            </g>
            <g transform="translate(0.172117, 0.172117)" id="Clipped">
                <g>
                    <mask id="mask-16" fill="white">
                        <use xlink:href="#path-15"></use>
                    </mask>
                    <g id="k"></g>
                    <path d="M40.1465041,5.04328735 C44.7066566,6.30259861 65.2188628,15.5584865 44.7066566,48.257007 C45.9780724,43.4159274 54.5825484,27.1781506 42.5561458,14.9192589 C42.3688215,14.9796806 42.1823298,15.0426515 41.9967214,15.1081556 C38.2381709,16.415895 34.8961502,18.7892132 32.5833847,22.0222531 C31.413681,23.6545119 30.4909937,25.4272293 30.3481122,27.0740256 C30.1422632,25.4950407 30.0817195,24.2744859 30.1422632,23.2258675 C27.199842,27.0086371 25.6281259,31.8109702 26.3788668,37.5262791 C26.3788668,37.5262791 16.3358844,30.0333871 20.2639484,17.3821846 C24.1944453,4.72854927 35.5887595,3.78650867 40.146509,5.04332724 L40.1465041,5.04328735 Z" id="Path" fill="#222222" mask="url(#mask-16)"></path>
                </g>
            </g>
            <path d="M68.5374872,17.4653861 C66.4842814,17.4643499 64.8203753,15.7996055 64.8203753,13.7463996 L64.8203753,11.3609171 C64.79342,10.8750364 64.3915663,10.494859 63.9049387,10.494859 C63.4183112,10.494859 63.0164583,10.8750364 62.9895022,11.3609171 L62.9895022,13.7463996 C62.988984,15.8004929 61.3236717,17.4653861 59.2695785,17.4653861 C58.942692,17.4653861 58.6406368,17.6397773 58.4771935,17.9228691 C58.3137503,18.2059608 58.3137503,18.5547442 58.4771935,18.837836 C58.6406368,19.1209277 58.942692,19.2953199 59.2695785,19.2953199 C61.3240406,19.2953199 62.9895022,20.9607915 62.9895022,23.0152436 L62.9895022,25.3997889 C62.9895022,25.90537 63.3993567,26.3152254 63.9049387,26.3152254 C64.4105198,26.3152254 64.8203753,25.9053709 64.8203753,25.3997889 L64.8203753,23.0152436 C64.8203753,20.9613 66.485428,19.2962572 68.5393617,19.2962572 C69.0335372,19.2804329 69.4259537,18.8752494 69.4259537,18.3808206 C69.4259537,17.8863919 69.0335372,17.4812088 68.5393617,17.4653841" id="Path" fill="#FFD534" fill-rule="nonzero"></path>
            <g transform="translate(68.677377, 22.694370)" id="Clipped">
                <g>
                    <mask id="mask-18" fill="white">
                        <use xlink:href="#path-17"></use>
                    </mask>
                    <g id="Path"></g>
                    <path d="M9.05770843,6.00781209 C7.29954838,6.00729393 5.87456241,4.5818789 5.87456241,2.82372882 L5.87456241,0.784522001 C5.87456241,0.35227712 5.5241588,0.00187351216 5.09191392,0.00187351216 C4.65966904,0.00187351216 4.30926543,0.35227712 4.30926543,0.784522001 L4.30926543,2.82372882 C4.30926551,4.58188887 2.88426948,6.00729361 1.1261194,6.00781209 C0.839872869,5.99790168 0.571025369,6.14495737 0.424965205,6.39133469 C0.278904043,6.63771101 0.278904043,6.9441494 0.424965205,7.19052573 C0.571026366,7.43690205 0.839873866,7.58395829 1.1261194,7.57404832 C2.88376097,7.57404825 4.30874695,8.99861552 4.30926543,10.7562571 L4.30926543,12.7982757 C4.30926543,13.2305206 4.65966904,13.5809242 5.09191392,13.5809242 C5.5241588,13.5809242 5.87456241,13.2305206 5.87456241,12.7982757 L5.87456241,10.7562571 C5.87508057,8.99861552 7.30007683,7.57404832 9.05770843,7.57404832 C9.49047179,7.57404832 9.84129517,7.22322395 9.84129517,6.79046158 C9.84129517,6.35769822 9.49047079,6.00687484 9.05770843,6.00687484" id="Path" fill="#FAE12E" mask="url(#mask-18)"></path>
                </g>
            </g>
        </g>
    </g>
</svg>