<?xml version="1.0" encoding="UTF-8"?>
<svg width="80px" height="80px" viewBox="0 0 80 80" version="1.1" xmlns="http://www.w3.org/2000/svg" xmlns:xlink="http://www.w3.org/1999/xlink">
    <!-- Generator: Sketch 52.6 (67491) - http://www.bohemiancoding.com/sketch -->
    <title>icon-garant</title>
    <desc>Created with Sketch.</desc>
    <defs>
        <polygon id="path-1" points="0.187415319 0.541874043 19.7893728 0.541874043 19.7893728 26.2251081 0.188181277 26.2251081"></polygon>
        <polygon id="path-3" points="0.368311489 0.541874043 19.969503 0.541874043 19.969503 26.2251081 0.368311489 26.2251081"></polygon>
    </defs>
    <g id="icon-garant" stroke="none" stroke-width="1" fill="none" fill-rule="evenodd">
        <g id="Guarant" transform="translate(0.000000, 13.000000)">
            <path d="M55.4372766,27.705617 C56.2993872,31.1198298 53.4050468,34.309966 49.9240085,33.7819404 C47.9449702,33.4821174 45.9812936,34.4096894 44.9558809,36.1287064 C43.1518043,39.1517957 38.8494043,39.3620255 36.7601362,36.5263523 C35.5730894,34.9153651 33.529166,34.1829481 31.5891064,34.6733906 C28.1748936,35.5355013 24.9839489,32.6411609 25.511966,29.1601226 C25.8128689,27.1811268 24.8854094,25.2169991 23.166017,24.1919949 C20.1421106,22.3879183 19.9318809,18.0855183 22.7667413,15.9970672 C24.3784774,14.8101736 25.1115498,12.7658672 24.621337,10.8252289 C23.7584094,7.41101617 26.6535668,4.22088 30.1346051,4.74808851 C32.1132945,5.04840851 34.0768689,4.12105362 35.1019243,2.40213957 C36.9068094,-0.621766809 41.2092094,-0.831179574 43.2968519,2.00367915 C44.484086,3.61543234 46.5287753,4.34820681 48.4695072,3.85745787 C51.88372,2.99534723 55.0746647,5.88968766 54.5458306,9.37072596 C54.245086,11.3499004 55.1728902,13.3140706 56.8925966,14.3388536 C59.9173115,16.1421132 60.1259157,20.4461387 57.291057,22.5337813 C55.6792528,23.7206068 54.9464187,25.765126 55.4372783,27.7056196" id="Path" fill="#00BFFF" fill-rule="nonzero"></path>
            <g id="Group" transform="translate(23.955660, 27.617617)">
                <g id="Clipped">
                    <mask id="mask-2" fill="white">
                        <use xlink:href="#path-1"></use>
                    </mask>
                    <g id="Path"></g>
                    <path d="M8.04988936,0.541874043 L0.25586383,21.1640868 C-0.0114068085,21.8713753 0.554913191,22.5582911 1.23368511,22.3513209 L7.20326809,20.5317634 L10.4765106,25.8445719 C10.8488962,26.4491898 11.7289362,26.3082204 11.9962043,25.6017472 L19.7894128,4.97876851" id="Path" fill="#00BFFF" fill-rule="nonzero" mask="url(#mask-2)"></path>
                </g>
            </g>
            <g id="Group" transform="translate(35.944511, 27.617617)">
                <g id="Clipped">
                    <mask id="mask-4" fill="white">
                        <use xlink:href="#path-3"></use>
                    </mask>
                    <g id="Path"></g>
                    <path d="M12.1086809,0.541874043 L19.9018894,21.1640868 C20.1699745,21.8713753 19.60284,22.5582911 18.9240681,22.3513209 L12.9544851,20.5317634 L9.68124255,25.8445719 C9.30885702,26.4491898 8.42881702,26.3082204 8.16154894,25.6017472 L0.368340426,4.97876851" id="Path" fill="#00BFFF" fill-rule="nonzero" mask="url(#mask-4)"></path>
                </g>
            </g>
            <path d="M51.4428936,19.0674894 C51.4428936,25.3703404 46.3321617,30.4802553 40.0292766,30.4802553 C33.7256085,30.4802553 28.6156596,25.3703404 28.6156596,19.0666383 C28.6156596,12.7637872 33.7255745,7.65387234 40.0292766,7.65387234 C46.3321277,7.65387234 51.4428936,12.7637872 51.4428936,19.0666383" id="Path" fill="#FFFFFF"></path>
            <path d="M46.0586383,15.0570213 C44.4146723,16.6933787 42.8785277,18.4527745 41.4905447,20.3085787 C40.6596826,21.4197787 39.9125447,22.6185021 39.2377021,23.8083489 C38.9231166,24.3629336 38.2533532,25.9564085 37.7177957,25.4378553 C37.3083268,25.0410715 37.0033813,24.4507149 36.6370383,23.9806128 C36.0662145,23.247046 35.4669447,22.5360681 34.8406043,21.8492936 C34.3836936,21.3477319 33.7253447,20.3968681 35.2280017,19.7004681 C35.9733677,19.3554383 36.4373804,20.382663 36.7347166,20.734034 C37.3058502,21.4086936 37.8520868,22.1040426 38.3723421,22.8186723 C39.5337719,20.8365277 40.7578655,18.9561191 42.14864,17.1688085 C42.8521455,16.2653872 43.6500272,15.3759234 44.4712443,14.5138553 C45.539057,13.3935234 47.3811591,13.777623 46.0586315,15.0567694 C46.0586315,15.0567694 46.3037038,14.8129651 46.0586315,15.0567694" id="Path" stroke="#222222" fill="#222222"></path>
            <g id="Group" transform="translate(0.000000, 6.446357)">
                <g transform="translate(0.330638, 0.459830)" fill="#000000" id="Path">
                    <g transform="translate(13.015228, 12.765957) rotate(-45.000000) translate(-13.015228, -12.765957) translate(4.079055, 3.829784)">
                        <g transform="translate(0.520426, 0.391234)">
                            <g transform="translate(0.692800, 0.822026)">
                                <path d="M14.3413661,7.8225471 C13.6216919,7.8225471 13.0376125,7.23846352 13.0376125,6.51879351 L13.0376125,1.30376211 C13.0376125,0.58408784 13.6216961,8.51064093e-06 14.3413661,8.51064093e-06 C15.0610404,8.51064093e-06 15.6451197,0.584092096 15.6451197,1.30376211 L15.6451197,6.51879351 C15.6451197,7.23846777 15.0610361,7.8225471 14.3413661,7.8225471 Z"></path>
                                <path d="M6.518785,15.6451112 L1.30375359,15.6451112 C0.58407933,15.6451112 6.66134021e-16,15.0610276 6.66134021e-16,14.3413576 C6.66134021e-16,13.6216834 0.584083585,13.037604 1.30375359,13.037604 L6.518785,13.037604 C7.23845926,13.037604 7.82253859,13.6216876 7.82253859,14.3413576 C7.82253859,15.0610319 7.23845501,15.6451112 6.518785,15.6451112 Z"></path>
                                <path d="M8.96400277,10.2651096 C8.63024097,10.2651096 8.29647916,10.137341 8.04093866,9.88441242 L2.82590726,4.66938102 C2.31744157,4.16091533 2.31744157,3.3343338 2.82590726,2.82586556 C3.33437295,2.31739987 4.16095448,2.31739987 4.66942272,2.82586556 L9.88445412,8.04089696 C10.3929198,8.54936265 10.3929198,9.37594418 9.88445412,9.88441242 C9.62891787,10.1399487 9.29515522,10.2651096 8.96139001,10.2651096 L8.96399758,10.2651096 L8.96400277,10.2651096 Z"></path>
                            </g>
                        </g>
                    </g>
                </g>
                <g transform="translate(53.332000, 0.459830)" fill="#000000" id="Path">
                    <g transform="translate(13.367751, 12.765957) rotate(45.000000) translate(-13.367751, -12.765957) translate(4.431578, 3.829784)">
                        <g transform="translate(0.285021, 0.391234)">
                            <g transform="translate(0.077106, 0.822026)">
                                <path d="M1.79266438,7.8225471 C1.07299012,7.8225471 0.48891079,7.23846352 0.48891079,6.51879351 L0.48891079,1.30376211 C0.48891079,0.58408784 1.07299437,8.51064093e-06 1.79266438,8.51064093e-06 C2.51233865,8.51064093e-06 3.09641798,0.584092096 3.09641798,1.30376211 L3.09641798,6.51879351 C3.09641798,7.23846777 2.51233439,7.8225471 1.79266438,7.8225471 Z"></path>
                                <path d="M14.8302174,15.6451112 L9.61518595,15.6451112 C8.89551169,15.6451112 8.31143236,15.0610276 8.31143236,14.3413576 C8.31143236,13.6216834 8.89551594,13.037604 9.61518595,13.037604 L14.8302174,13.037604 C15.5498916,13.037604 16.133971,13.6216876 16.133971,14.3413576 C16.133971,15.0610319 15.5498874,15.6451112 14.8302174,15.6451112 Z"></path>
                                <path d="M7.00769579,10.4300458 C6.67393398,10.4300458 6.34017217,10.3022772 6.08463167,10.0493486 C5.57616598,9.54088295 5.57616598,8.71430142 6.08463167,8.20583318 L11.2996631,2.99080178 C11.8081288,2.48233609 12.6347103,2.48233609 13.1431785,2.99080178 C13.6516442,3.49926747 13.6516442,4.325849 13.1431785,4.83431724 L7.92814713,10.0493486 C7.67261088,10.3048849 7.33884823,10.4300458 7.00508302,10.4300458 L7.00769053,10.4300458 L7.00769579,10.4300458 Z"></path>
                            </g>
                        </g>
                    </g>
                </g>
                <path d="M48.4572766,27.3339574 C46.9970979,27.552257 45.7119319,28.4142213 44.9558723,29.6823489 C43.1526128,32.7062553 38.8502128,32.9156681 36.7609447,30.0799949 C35.5735745,28.4684289 33.5290043,27.735697 31.5882894,28.2262162" id="Path" stroke="#000000" stroke-width="2" stroke-linecap="round" stroke-linejoin="round"></path>
            </g>
        </g>
    </g>
</svg>