<svg width="87.000000" height="49.000000" viewBox="0 0 87 49" fill="none" xmlns="http://www.w3.org/2000/svg" xmlns:xlink="http://www.w3.org/1999/xlink">
	<desc>
			Created with Pixso.
	</desc>
	<defs/>
	<path id="ФАЙНО" d="M44.53 2C45.65 2 46.08 1.37 46.09 0.68L48.81 0.68C48.8 2.71 47.14 4.03 44.53 4.03C41.89 4.03 40.24 2.71 40.25 0.68L42.93 0.68C42.92 1.34 43.36 2 44.53 2ZM0.96 13.28C0.96 9.15 3.9 6.59 7.9 6.59L7.99 6.59L7.99 4.72L12.06 4.72L12.06 6.59L12.18 6.59C16.22 6.59 19.09 9.18 19.09 13.31C19.09 17.21 16.22 19.68 12.18 19.68L12.06 19.68L12.06 21.65L7.99 21.65L7.99 19.68L7.9 19.68C3.84 19.68 0.96 17.25 0.96 13.28ZM77.71 4.77C82.06 4.77 85.5 7.65 85.5 13C85.5 18.34 82.06 21.22 77.71 21.22C73.34 21.22 69.93 18.31 69.93 13C69.93 7.65 73.34 4.77 77.71 4.77ZM25.16 17.93L24.25 21L19.56 21L24.84 4.99L30.78 4.99L36.06 21L31.37 21L30.45 17.93L25.16 17.93ZM37.59 21L37.59 4.99L41.93 4.99L41.93 13.37L42.06 13.37L47.75 4.99L51.43 4.99L51.43 21L47.09 21L47.09 12.59L46.99 12.59L41.21 21L37.59 21ZM57.84 21L53.5 21L53.5 4.99L57.84 4.99L57.84 11.25L63.59 11.25L63.59 4.99L67.93 4.99L67.93 21L63.59 21L63.59 14.74L57.84 14.74L57.84 21ZM77.71 17.43C79.87 17.43 81.03 15.87 81.03 13C81.03 10.12 79.87 8.56 77.71 8.56C75.56 8.56 74.4 10.12 74.4 13C74.4 15.87 75.56 17.43 77.71 17.43ZM27.74 9.4L26.15 14.68L29.46 14.68L27.87 9.4L27.74 9.4ZM7.99 10.15L7.9 10.15C6.27 10.15 4.9 10.99 4.9 13.28C4.9 15.37 6.34 16.12 7.9 16.12L7.99 16.12L7.99 10.15ZM12.21 10.15L12.06 10.15L12.06 16.12L12.21 16.12C13.81 16.12 15.12 15.31 15.12 13.31C15.12 11.03 13.81 10.15 12.21 10.15Z" fill="#0B1F35" fill-opacity="1.000000" fill-rule="evenodd"/>
	<path id="КЛІН" d="M17.08 43L11.38 43L6.25 36.23L5.62 36.23L5.62 43L1.07 43L1.07 26.27L5.62 26.27L5.62 32.57L6.2 32.57L11.01 26.27L16.72 26.27L10.35 34.3L17.08 43ZM18.85 43L17.73 43L17.73 39.5L18.2 39.43C19.86 39.17 20.64 37.77 20.81 33.29L21.07 26.27L33.19 26.27L33.19 43L28.81 43L28.81 29.79L25.25 29.79L24.99 35.06C24.69 40.91 23.09 43 18.85 43ZM35.34 26.27L39.89 26.27L39.89 43L35.34 43L35.34 26.27ZM46.58 43L42.04 43L42.04 26.27L46.58 26.27L46.58 32.8L52.59 32.8L52.59 26.27L57.14 26.27L57.14 43L52.59 43L52.59 36.46L46.58 36.46L46.58 43Z" fill="#1FC6FF" fill-opacity="1.000000" fill-rule="evenodd"/>
</svg>
