<svg width="40" height="40" viewBox="0 0 40 40" fill="none" xmlns="http://www.w3.org/2000/svg">
<path fill-rule="evenodd" clip-rule="evenodd" d="M8.00005 24.7V2.30005H17V24.7H8.00005ZM9.20005 3.50005H15.8V23.5H9.20005V3.50005Z" fill="white"/>
<path d="M20.2 14.7848L19 16L19 11.61C19 11.61 19.6804 12.1664 20.2 12.1664V14.7848Z" fill="white"/>
<path fill-rule="evenodd" clip-rule="evenodd" d="M5.8001 26.4V0H30.2001V7.92812L34.8288 13.0197L33.7486 14.1H31.6V14.9H32.6V18.1H32.1331C32.7771 18.5979 35.5585 20.909 36.0001 24C36.3476 26.4327 36.212 33.2133 36.097 37.1224C36.0497 38.732 34.7279 40 33.1177 40H23.8869C22.2749 40 20.9522 38.7304 20.9058 37.119C20.8965 36.7973 20.8871 36.4562 20.8778 36.1H11C10.3372 36.1 9.796 35.8454 9.42656 35.4298C9.06694 35.0253 8.9 34.5028 8.9 34C8.9 33.4971 9.06694 32.9746 9.42657 32.5701C9.796 32.1545 10.3372 31.9 11 31.9H14.5C14.7342 31.9 14.8903 31.7214 14.8755 31.4877C14.869 31.3838 14.8241 31.2782 14.7187 31.1915C14.6123 31.104 14.4014 31.0024 14.0145 30.9999L14 31C13.1045 31 12.3465 30.4114 12.0916 29.6H3.40002V26.4H5.8001ZM28.15 27.955V19.2H25.8707C24.4299 20.2094 22.5679 21.8921 22.1837 24.1973C22.087 24.7777 22.0287 25.8388 22 27.1733V27.6H21.992C21.9908 27.6701 21.9897 27.7409 21.9887 27.8123C22.2298 27.5878 22.5562 27.4 23 27.4C23.8126 27.4 24.232 28.0296 24.4534 28.362L24.4885 28.4145C24.7765 28.8414 24.8652 28.9 25 28.9C25.1348 28.9 25.2235 28.8414 25.5115 28.4145L25.5466 28.362C25.768 28.0296 26.1874 27.4 27 27.4C27.5355 27.4 27.9002 27.6734 28.15 27.955ZM28.15 29.8298V34.5H28C27.4478 34.5 27 34.9477 27 35.5V36.9C27 37.4523 27.4478 37.9 28 37.9H29.4C29.9523 37.9 30.4 37.4523 30.4 36.9V35.5C30.4 34.9477 29.9523 34.5 29.4 34.5H29.35V30.0594C29.9516 29.9146 30.285 29.4162 30.4767 29.1297L30.5063 29.0856C30.801 28.6486 30.8814 28.6 31 28.6C31.1186 28.6 31.199 28.6486 31.4937 29.0856L31.5233 29.1297C31.7493 29.4676 32.1725 30.1 33 30.1C33.8275 30.1 34.2507 29.4676 34.4767 29.1297L34.5063 29.0856C34.801 28.6486 34.8814 28.6 35 28.6C35.006 28.6 35.012 28.6002 35.0178 28.6005C35.0216 29.0542 35.0229 29.5244 35.022 30.0052C35.0172 32.4772 34.9549 35.1373 34.8975 37.0872C34.8695 38.0397 34.0872 38.7999 33.1177 38.7999H23.8869C22.9159 38.7999 22.1328 38.0385 22.1053 37.0845C22.0477 35.0838 21.984 32.3415 21.9783 29.8412L21.9781 29.7295C22.2079 29.5315 22.3659 29.2953 22.4767 29.1297L22.5063 29.0856C22.801 28.6486 22.8814 28.6 23 28.6C23.1186 28.6 23.199 28.6486 23.4937 29.0856L23.5233 29.1297C23.7493 29.4676 24.1725 30.1 25 30.1C25.8275 30.1 26.2507 29.4676 26.4767 29.1297L26.5063 29.0856C26.801 28.6486 26.8814 28.6 27 28.6C27.1186 28.6 27.199 28.6486 27.4937 29.0856L27.5233 29.1297C27.6536 29.3244 27.8493 29.6169 28.15 29.8298ZM35 27.4C34.9998 27.4 35.0002 27.4 35 27.4C34.1874 27.4 33.768 28.0296 33.5466 28.362L33.5115 28.4145C33.2235 28.8414 33.1348 28.9 33 28.9C32.8652 28.9 32.7765 28.8414 32.4885 28.4145L32.4534 28.362C32.232 28.0296 31.8126 27.4 31 27.4C30.1874 27.4 29.768 28.0296 29.5466 28.362L29.5115 28.4145C29.4492 28.5069 29.3962 28.582 29.35 28.643V19.2H31.5878C31.6429 19.2452 31.7047 19.297 31.7721 19.3549C32.0762 19.6166 32.488 20.0001 32.9128 20.4814C33.7806 21.465 34.6097 22.7525 34.8121 24.1697C34.9129 24.8752 34.9713 26.0202 35 27.4ZM24.9 18.1H25.3517C23.929 19.07 21.7568 20.87 21.1037 23.5L20.2 23.5V18.7496L19 19.7408L19 24.7H20.9153C20.8865 25.0205 20.863 25.3905 20.8441 25.8H7.0001V1.2H29.0001L29 6.90002H28V2.30005H19V7.5C19.2023 7.30205 19.7256 6.90616 20.2 6.90616V3.50005H26.8V6.90002H20.9V8H20C19.1716 8 18.5 8.67157 18.5 9.5C18.5 10.3284 19.1716 11 20 11H20.9V11.6H23.2515L23.7265 12.075C22.7036 13.5116 20.263 16.2499 18.1159 18.0391C17.8614 18.2512 17.827 18.6296 18.0391 18.8841C18.2512 19.1387 18.6296 19.1731 18.8842 18.961C20.9529 17.237 23.294 14.6599 24.4887 13.0647L25.1789 14.1H25.9V14.9H24.9V18.1ZM15.4283 27.6H20.7917C20.7875 27.86 20.7843 28.1272 20.7821 28.4H15.9085C15.8129 28.0955 15.6464 27.8224 15.4283 27.6ZM15.9085 29.6H20.7779C20.7786 30.5133 20.7874 31.4627 20.801 32.4H19.8752C19.6438 31.8702 19.1151 31.5 18.5 31.5C17.6716 31.5 17 32.1716 17 33C17 33.8284 17.6716 34.5 18.5 34.5C19.1151 34.5 19.6438 34.1298 19.8752 33.6H20.8211C20.8295 34.0428 20.8387 34.4779 20.8483 34.9H11C10.6628 34.9 10.454 34.7795 10.3234 34.6326C10.1831 34.4746 10.1 34.2471 10.1 34C10.1 33.7528 10.1831 33.5253 10.3235 33.3673C10.454 33.2204 10.6628 33.1 11 33.1H14.5C15.5307 33.1 16.1246 32.2285 16.0732 31.4122C16.0476 31.0065 15.8681 30.6023 15.5211 30.2987C15.6938 30.0966 15.8269 29.8597 15.9085 29.6ZM14 29.7999L14.0114 29.7999C14.448 29.7939 14.8 29.438 14.8 29C14.8 28.5582 14.4419 28.2 14 28.2C13.5582 28.2 13.2 28.5582 13.2 29C13.2 29.4391 13.5538 29.7955 13.9918 29.8L14 29.7999ZM4.60002 27.6H12.5718C12.3537 27.8224 12.1872 28.0955 12.0916 28.4H4.60002V27.6ZM18.5 33.3C18.6657 33.3 18.8 33.1657 18.8 33C18.8 32.8343 18.6657 32.7 18.5 32.7C18.3344 32.7 18.2 32.8343 18.2 33C18.2 33.1657 18.3344 33.3 18.5 33.3ZM27.1 14.9V14.1H30.4V14.9H27.1ZM31.4 16.1V16.9H26.1V16.1H31.4ZM22.1 10.4V8.10002H28.7346L33.0983 12.9H25.8211L24.9663 11.6178L23.7486 10.4H22.1ZM28.2 36.7V35.7H29.2V36.7H28.2ZM20.8 9.2H20C19.8343 9.2 19.7 9.33431 19.7 9.5C19.7 9.66569 19.8343 9.8 20 9.8H20.8V9.2Z" fill="white"/>
</svg>
