<svg width="40" height="40" viewBox="0 0 40 40" fill="none" xmlns="http://www.w3.org/2000/svg">
<g clip-path="url(#clip0)">
<path d="M19.9 7H21.1V6H19.9V7Z" fill="#02ADCC"/>
<path d="M22.4 7H23.6V6H22.4V7Z" fill="#02ADCC"/>
<path d="M24.9 7H26.1V6H24.9V7Z" fill="#02ADCC"/>
<path d="M19.9 10V11H21.1V10H19.9Z" fill="#02ADCC"/>
<path d="M22.4 10V11H23.6V10H22.4Z" fill="#02ADCC"/>
<path d="M24.9 10V11H26.1V10H24.9Z" fill="#02ADCC"/>
<path d="M19.9 14V15H21.1V14H19.9Z" fill="#02ADCC"/>
<path d="M22.4 14V15H23.6V14H22.4Z" fill="#02ADCC"/>
<path d="M24.9 14V15H26.1V14H24.9Z" fill="#02ADCC"/>
<path d="M24.9 18V19H26.1V18H24.9Z" fill="#02ADCC"/>
<path d="M24.9 22V23H26.1V22H24.9Z" fill="#02ADCC"/>
<path d="M24.9 26V27H26.1V26H24.9Z" fill="#02ADCC"/>
<path d="M14 10.1V8.9H9.00002V10.1H14Z" fill="#02ADCC"/>
<path d="M14.4 21V32.5H15.6V21H14.4Z" fill="#02ADCC"/>
<path d="M16.9 21V32.5H18.1V21H16.9Z" fill="#02ADCC"/>
<path d="M19.4 21V32.5H20.6V21H19.4Z" fill="#02ADCC"/>
<path d="M2.90002 15.5V16.5H4.10002V15.5H2.90002Z" fill="#02ADCC"/>
<path d="M5.40002 15.5V16.5H6.60002V15.5H5.40002Z" fill="#02ADCC"/>
<path d="M7.90002 15.5V16.5H9.10003V15.5H7.90002Z" fill="#02ADCC"/>
<path d="M2.90002 19.5V20.5H4.10002V19.5H2.90002Z" fill="#02ADCC"/>
<path d="M5.40002 19.5V20.5H6.60002V19.5H5.40002Z" fill="#02ADCC"/>
<path d="M7.90002 19.5V20.5H9.10003V19.5H7.90002Z" fill="#02ADCC"/>
<path d="M2.90002 23.5V24.5H4.10002V23.5H2.90002Z" fill="#02ADCC"/>
<path d="M5.40002 23.5V24.5H6.60002V23.5H5.40002Z" fill="#02ADCC"/>
<path d="M7.90002 23.5V24.5H9.10003V23.5H7.90002Z" fill="#02ADCC"/>
<path d="M2.90002 27.5V28.5H4.10002V27.5H2.90002Z" fill="#02ADCC"/>
<path d="M5.40002 27.5V28.5H6.60002V27.5H5.40002Z" fill="#02ADCC"/>
<path d="M7.90002 27.5V28.5H9.10003V27.5H7.90002Z" fill="#02ADCC"/>
<path d="M23 38.1H20V36.9H23V38.1Z" fill="#02ADCC"/>
<path fill-rule="evenodd" clip-rule="evenodd" d="M10.9 2.4V0.5H12.1V2.4H15.6V5.4H16.4V2.4H29.1V29.6039C29.4299 29.5343 29.7352 29.5 30 29.5V8.5C30 7.39543 30.8954 6.5 32 6.5C33.1046 6.5 34 7.39543 34 8.5V29.5C35.9582 29.5 37.5414 30.7227 38.5444 31.8C38.9756 32.2631 39.2996 32.6993 39.5 33V40H38.5V33H37.5V40H36.5V33H35.5V40H34.5V33H33.5V40H32.5V33H31.5V40H30.5V33H29.5V40H28.5V33H27.5V40H26.5V33H25.8486L25.5 33.2485V34.6V40H24.5V34.6H16.835C16.85 34.9833 16.7474 35.3981 16.4993 35.7703C15.9643 36.573 14.843 37.1 13.0001 37.1C11.6399 37.1 11.1849 37.7569 11.1605 38.0498C11.1492 38.1847 11.1985 38.3652 11.4476 38.5411C11.7116 38.7274 12.2009 38.9 13.0001 38.9L23.6 39V40.1L13.0001 40C12.0493 40 11.2885 39.8976 10.7556 39.5214C10.2079 39.1348 9.91336 38.5653 9.96462 37.9502C10.0652 36.7431 11.3602 35.9 13.0001 35.9C14.6574 35.9 15.286 35.427 15.5008 35.1047C15.6123 34.9375 15.6436 34.7714 15.6355 34.6379L15.6348 34.628L15.634 34.6181L15.6321 34.6H-0.0999756V11.4H5.40002V5.4H7.40002V2.4H10.9ZM27.2417 31.8H36.7852C35.971 31.1557 35.026 30.7 34 30.7H32.8V26.6H31.2V30.7H30C29.7669 30.7 29.4556 30.7427 29.1 30.8373C28.2567 31.0191 27.8791 31.2783 27.2417 31.8ZM14.4 3.6V5.4H8.60003V3.6H14.4ZM16.4 6.6V18.4H12.1V16.1H14V14.9H12.1V13.1H14V11.9H12.1V11.4H6.60002V6.6H16.4ZM22.4 33.4H12.1V19.6H22.4V33.4ZM10.9 33.4H8.60003V30.4H3.40002V33.4H1.10002V12.6H10.9V33.4ZM7.40002 33.4H6.60002V32.5H5.40002V33.4H4.60002V31.6H7.40002V33.4ZM31.2 8.5V25.4H32.8V8.5C32.8 8.05817 32.4418 7.7 32 7.7C31.5582 7.7 31.2 8.05817 31.2 8.5ZM26.1241 31.0274C25.8364 31.2577 25.5626 31.515 25.3121 31.8C24.922 32.1966 24.5415 32.7652 24.4 33V33.4H23.6V18H22.4V18.4H21.1V18H19.9V18.4H17.6V3.6H27.9V29.9816C27.3141 30.2252 26.7117 30.563 26.1588 30.9998L26.1446 31.0069L26.1241 31.0274ZM21.1 7H19.9V6H21.1V7ZM23.6 7H22.4V6H23.6V7ZM26.1 7H24.9V6H26.1V7ZM19.9 11V10H21.1V11H19.9ZM22.4 11V10H23.6V11H22.4ZM24.9 11V10H26.1V11H24.9ZM19.9 15V14H21.1V15H19.9ZM22.4 15V14H23.6V15H22.4ZM24.9 15V14H26.1V15H24.9ZM24.9 19V18H26.1V19H24.9ZM24.9 23V22H26.1V23H24.9ZM24.9 27V26H26.1V27H24.9Z" fill="#02ADCC"/>
</g>
<defs>
<clipPath id="clip0">
<rect width="40" height="40" fill="white"/>
</clipPath>
</defs>
</svg>
