<svg width="40" height="40" viewBox="0 0 40 40" fill="none" xmlns="http://www.w3.org/2000/svg">
<g clip-path="url(#clip0)">
<path fill-rule="evenodd" clip-rule="evenodd" d="M32.4216 34.0072C31.9552 33.7645 31.3619 33.7645 30.8956 34.0072C30.7835 34.0655 30.6505 34.1722 30.5341 34.2857C30.4178 34.3991 30.3081 34.529 30.2481 34.6387C29.9983 35.095 29.9983 35.6761 30.2481 36.1325C30.3082 36.2424 30.4179 36.3722 30.5344 36.4857C30.6509 36.5993 30.7841 36.706 30.8965 36.7645C30.9888 36.8125 31.1404 36.8713 31.2386 36.8971C31.6125 36.9951 32.0781 36.9427 32.4216 36.764C32.5336 36.7057 32.6666 36.599 32.783 36.4855C32.8994 36.372 33.009 36.2422 33.0691 36.1325C33.3188 35.6761 33.3188 35.095 33.0691 34.6387C33.009 34.529 32.8994 34.3991 32.783 34.2857C32.6666 34.1722 32.5336 34.0655 32.4216 34.0072ZM31.9897 35.7503C31.9555 35.7752 31.9163 35.7993 31.8809 35.8167L31.8784 35.818C31.8425 35.8354 31.7974 35.852 31.7543 35.8642C31.7094 35.8769 31.6751 35.8823 31.6586 35.8823C31.6107 35.8823 31.5274 35.8588 31.4402 35.8168C31.3525 35.7744 31.2853 35.7251 31.2594 35.6909C31.0764 35.4492 31.1398 35.1146 31.3947 34.9601C31.4611 34.9198 31.5593 34.8969 31.6641 34.8984C31.7688 34.8999 31.8664 34.9257 31.9318 34.9678C32.1828 35.1298 32.2393 35.451 32.0577 35.6909C32.0497 35.7015 32.0266 35.7235 31.9897 35.7503Z" fill="#FA873F"/>
<path fill-rule="evenodd" clip-rule="evenodd" d="M31.3218 40.0896C30.4868 39.9592 29.7613 39.4199 29.2174 38.6036C28.6736 37.7873 28.3076 36.6893 28.1895 35.4247C28.1699 35.2153 28.1651 34.8294 28.1713 34.4581C28.1774 34.088 28.1945 33.7206 28.2208 33.5503C28.2367 33.447 28.2595 33.2382 28.2711 33.088L28.2841 32.9197H20.681L20.6653 38.2842L16.7438 37.1355L12.7289 37.5836L10.415 36.9148L9.39701 37.1948C9.10887 37.2741 8.83288 37.3462 8.62019 37.3984C8.51392 37.4245 8.42289 37.4458 8.3538 37.4606C8.31933 37.468 8.2896 37.4739 8.26582 37.478C8.24484 37.4816 8.22083 37.4853 8.20216 37.4852C7.99372 37.4837 7.81341 37.3675 7.73098 37.1774C7.67888 37.0573 7.66664 36.9142 7.66179 36.5805C7.66007 36.4626 7.65616 36.3541 7.65131 36.2744C7.64962 36.2467 7.64785 36.223 7.64608 36.204L7.61758 36.195C7.56505 36.1785 7.49006 36.1557 7.39796 36.1281C7.21386 36.073 6.96262 35.9994 6.68872 35.9205L5.71901 35.6412L4.66217 35.9333C4.0894 36.0916 3.78121 36.1754 3.59505 36.2028C3.50027 36.2167 3.42686 36.2178 3.36128 36.2016C3.29476 36.1853 3.24569 36.1532 3.2 36.1215C3.2 36.1215 3.19791 36.1201 3.18995 36.1173L3.18778 36.1165C3.17977 36.1139 3.1588 36.1068 3.13962 36.0946C3.08608 36.0603 3.06342 36.0029 3.04912 35.9354C3.02066 35.8011 3.00451 35.5128 2.99424 34.8667C2.97643 33.7463 2.97664 31.5188 2.97704 27.0663L2.97717 24.7249C2.97717 19.2749 2.97738 16.5111 2.98502 15.0816C2.98885 14.3672 2.99453 13.9845 3.00305 13.766C3.01162 13.5462 3.02326 13.4859 3.04079 13.4191C3.13838 13.047 3.30707 12.7607 3.58951 12.4861C3.98671 12.0998 4.43537 11.9216 5.00504 11.9216C5.20047 11.9216 5.35913 11.9363 5.52437 11.9792C5.65429 12.013 5.78561 12.0636 5.93971 12.1352C5.94327 12.0569 5.94548 11.9513 5.94548 11.834C5.94548 11.5544 5.9519 11.371 5.98238 11.2115C6.01338 11.0492 6.06832 10.9162 6.15714 10.7357C6.47043 10.099 7.10398 9.6865 7.83413 9.6386C8.31704 9.60692 8.79575 9.74831 9.18972 10.0383C9.21853 10.0595 9.24565 10.0788 9.26902 10.0947L9.32522 10.0076C9.44657 9.81906 9.63832 9.63898 9.85398 9.49363C10.07 9.34803 10.3165 9.23288 10.5521 9.179C10.6707 9.15189 10.8395 9.13945 11.0029 9.13945C11.1662 9.13945 11.335 9.15189 11.4536 9.179C12.2202 9.35434 12.8281 9.97507 12.9909 10.7479L13.0306 10.936L13.1426 10.9608C13.3695 11.0111 13.6749 11.1568 13.8936 11.3161L13.9626 11.3664L14.0101 11.2933C14.0731 11.1962 14.2056 11.0429 14.3074 10.9476C14.3547 10.9032 14.3973 10.8607 14.4275 10.8283C14.4401 10.8147 14.4498 10.8037 14.4566 10.7956L14.4602 10.7724L14.4785 10.6586C14.4944 10.5611 14.5174 10.4218 14.5457 10.2509C14.6024 9.90931 14.6805 9.44145 14.7665 8.92982L15.0777 7.07748L15.1106 0.915842L15.1963 0.74569C15.3819 0.377325 15.8069 0.082603 16.2961 -0.0393653C16.4232 -0.0710715 16.5431 -0.0848857 17.536 -0.0922276C18.5353 -0.0996161 20.4282 -0.0999756 24.1154 -0.0999756C27.8026 -0.0999756 29.6955 -0.0996226 30.6948 -0.0922373C31.6877 -0.0848988 31.8076 -0.0710862 31.9347 -0.0393653C32.8319 0.00217861 33.1456 0.731812 33.1903 1.09144V6.2639L33.193 6.27021C33.1964 6.27891 33.1995 6.28865 33.2021 6.29752C33.2075 6.31599 33.2138 6.34108 33.2208 6.37096C33.2348 6.43123 33.253 6.51675 33.2739 6.62074C33.3158 6.82902 33.3694 7.11439 33.4246 7.42672C33.4797 7.73837 33.5313 8.0258 33.57 8.23782C33.5894 8.34386 33.6055 8.43086 33.6173 8.49253L33.625 8.53243L33.6397 8.53367C33.6984 8.53829 33.7924 8.542 33.9339 8.54483C34.2162 8.55047 34.679 8.55248 35.4062 8.55248H37.3586V15.4113C37.3586 18.2618 37.3569 19.9556 37.3507 20.9469C37.3477 21.4424 37.3435 21.7632 37.3378 21.9655C37.3349 22.0664 37.3317 22.1391 37.3279 22.1897C37.326 22.2149 37.3239 22.236 37.3214 22.253C37.3193 22.2672 37.3157 22.288 37.3075 22.3066C37.3045 22.3134 37.3008 22.32 37.2972 22.3258C37.2943 22.3306 37.2915 22.3347 37.2893 22.3379C37.2856 22.3434 37.2814 22.3493 37.2768 22.3557L37.2675 22.3683C37.2506 22.3908 37.2277 22.4199 37.1999 22.4544C37.1443 22.5236 37.067 22.6167 36.9739 22.7271C36.7876 22.9479 36.5368 23.2389 36.2663 23.547L35.3087 24.6375L35.3083 27.1359C35.3078 29.7346 35.2987 30.0133 35.1794 30.4722C35.1082 30.7459 34.8979 31.2054 34.7422 31.426L34.671 31.5268L34.835 32.5405C35.1173 34.285 35.1422 34.527 35.0961 35.1985C34.9852 36.8115 34.5028 38.1445 33.6717 39.1024C33.3068 39.5228 32.7058 39.9101 32.2187 40.0341C32.1151 40.0605 31.9341 40.0807 31.7633 40.0914C31.5936 40.102 31.4163 40.1044 31.3218 40.0896ZM26.8318 9.61772V16.8171H36.2711V9.61772H34.6657V11.8554H33.5782V9.61772H30.9629V14.66H29.8755V9.61772H26.8318ZM26.8318 19.025V17.9118L36.2405 17.9137V19.025H26.8318ZM26.8318 20.0902V21.561L36.2558 21.5463V20.1049L26.8318 20.0902ZM29.3683 22.6633C30.5411 22.6591 32.4698 22.6591 33.6541 22.6633L35.5882 22.6702L32.9783 25.6485H29.7886L27.4408 22.6703L29.3683 22.6633ZM29.9183 26.8484L29.9155 26.8825L29.9084 26.9669L29.8964 27.1066C29.88 27.2974 29.8565 27.5667 29.8281 27.8896C29.7714 28.5352 29.6953 29.395 29.6177 30.2677C29.4624 32.0125 29.301 33.811 29.2765 34.053C29.2362 34.4518 29.2592 35.2921 29.3224 35.7139C29.4345 36.4635 29.6069 37.0268 29.8955 37.5928C30.2331 38.255 30.6376 38.693 31.075 38.8956C31.2404 38.9722 31.3658 39.0138 31.4869 39.0296C31.6075 39.0453 31.7303 39.0364 31.8914 39.0031C32.3784 38.9025 32.8488 38.4959 33.2262 37.8657C33.602 37.2381 33.8767 36.4024 33.9783 35.4729C33.9984 35.2892 34.0045 34.9703 33.9984 34.6599C33.9923 34.3476 33.9742 34.0574 33.9488 33.9279C33.9265 33.8136 33.6425 32.039 33.3649 30.2911C33.2259 29.4161 33.0883 28.5465 32.9854 27.8924C32.934 27.5653 32.8912 27.292 32.8613 27.0989C32.8464 27.0023 32.8346 26.9257 32.8266 26.8723L32.8234 26.8508C32.778 26.8467 32.7066 26.8434 32.6 26.8407C32.369 26.8351 31.9839 26.8331 31.3679 26.8331C30.631 26.8331 30.247 26.8338 30.0468 26.8408C29.9855 26.8429 29.9449 26.8456 29.9183 26.8484ZM34.1896 27.6655L34.1895 27.5655C34.1892 26.6694 34.1881 26.1928 34.1814 25.9467L34.1808 25.9262C34.1361 25.9777 34.0849 26.0363 34.0343 26.0939L33.8413 26.3136L34.1038 27.9691C34.1335 28.1561 34.1622 28.3363 34.1892 28.5049C34.1895 28.2489 34.1897 27.9646 34.1896 27.6655ZM28.4345 31.2289C28.4086 31.5025 28.3855 31.7617 28.3792 31.8544H20.681V30.7118H24.5726C25.6702 30.7118 26.6693 30.7143 27.3948 30.7184C27.7576 30.7204 28.0518 30.7228 28.2556 30.7255C28.3484 30.7267 28.4221 30.728 28.475 30.7293C28.4736 30.7535 28.4718 30.7819 28.4695 30.8139C28.4618 30.9224 28.4495 31.0695 28.4345 31.2289ZM23.7055 25.7912L23.3529 26.2466C23.2479 26.3823 23.1515 26.508 23.0809 26.6012L23.073 26.6117L23.0845 26.6121C23.2129 26.6158 23.3997 26.6198 23.631 26.6238C24.0934 26.6317 24.7327 26.6397 25.437 26.6456L25.7516 26.6483C26.9153 26.658 27.5026 26.663 27.814 26.6831C27.981 26.6939 28.0826 26.7096 28.154 26.7398C28.221 26.768 28.2591 26.8094 28.2892 26.8421L28.3034 26.8574C28.3418 26.8974 28.3728 26.9384 28.39 26.9989C28.4054 27.0528 28.4078 27.1163 28.4078 27.1955C28.4078 27.2748 28.4054 27.3383 28.39 27.3922C28.3728 27.4527 28.3418 27.4937 28.3035 27.5337C28.2978 27.5396 28.2918 27.5463 28.2854 27.5536C28.2558 27.5869 28.2163 27.6314 28.1504 27.6602C28.0753 27.6931 27.9664 27.7087 27.7818 27.7181C27.4482 27.735 26.8164 27.7323 25.562 27.727L22.2113 27.7134L21.4506 28.6869C21.2335 28.9648 21.0363 29.2232 20.8936 29.4157C20.8302 29.5013 20.7778 29.5733 20.7394 29.6281C20.8191 29.6327 20.9447 29.6363 21.1422 29.639C21.6644 29.646 22.673 29.6465 24.6189 29.6465H28.572L28.5741 29.6334C28.5842 29.5718 28.657 28.7682 28.7278 27.9559C28.763 27.5519 28.7976 27.1484 28.8233 26.8387C28.8362 26.6838 28.8469 26.5524 28.8543 26.4562C28.858 26.4081 28.8609 26.369 28.8629 26.3402L28.8651 26.3055L28.8656 26.2951L28.8657 26.2919C28.8657 26.2818 28.8624 26.2596 28.8349 26.212C28.8073 26.1642 28.7609 26.0995 28.6861 26.005L28.515 25.7889L23.7055 25.7912ZM27.6335 24.6745L27.6637 24.7134L27.6173 24.7148C27.4413 24.7194 27.1434 24.7198 26.6653 24.7172C26.0038 24.7137 25.2193 24.7036 24.9222 24.6949L24.5756 24.6847L24.757 24.4493C24.8407 24.3406 24.9233 24.2277 24.9891 24.1329C25.0524 24.0416 25.1062 23.9588 25.1261 23.9148L25.1556 23.8495H26.9847L27.3488 24.3112C27.4571 24.4485 27.5581 24.5774 27.6335 24.6745ZM19.7327 29.0946C19.8333 28.9785 20.6822 27.9039 21.3753 27.0148C22.0202 26.1875 22.9433 25.0058 23.5505 24.23C23.7062 24.0311 23.8549 23.8349 23.9688 23.679C24.0258 23.6011 24.0738 23.5337 24.1096 23.4814C24.1473 23.4262 24.1666 23.3946 24.1713 23.3844C24.2107 23.2994 24.227 23.2171 24.2281 23.0472C24.2287 22.9413 24.2259 22.8861 24.2149 22.8373C24.204 22.7892 24.184 22.742 24.1398 22.6544C23.9757 22.3293 23.6828 22.1489 23.3198 22.1489C23.1061 22.1489 22.8861 22.2226 22.7271 22.3454L22.7216 22.3503C22.7177 22.354 22.7127 22.359 22.7064 22.3655C22.6937 22.3785 22.6774 22.396 22.6576 22.4179C22.6179 22.4618 22.5658 22.5217 22.5033 22.5949C22.3784 22.7411 22.2137 22.9391 22.0276 23.1662C21.6555 23.6202 21.1992 24.1893 20.8079 24.6912C20.6427 24.9031 20.5348 25.0349 20.4357 25.1073C20.3825 25.1463 20.3296 25.17 20.2706 25.1813C20.2141 25.1921 20.1566 25.1903 20.0973 25.1855C20.001 25.1777 19.9153 25.1548 19.8401 25.1095C19.7645 25.064 19.706 24.9997 19.6583 24.9194C19.6484 24.9027 19.6449 24.8856 19.644 24.8811L19.6422 24.8715C19.6415 24.8666 19.6408 24.8616 19.6402 24.857C19.6383 24.8413 19.6367 24.821 19.6352 24.7968C19.6322 24.748 19.6295 24.6778 19.6269 24.5845C19.6218 24.3977 19.6173 24.1147 19.6133 23.7181C19.6053 22.9249 19.5992 21.675 19.5935 19.8264L19.5783 14.8661L19.5184 14.7394C19.421 14.5335 19.2848 14.3909 19.0923 14.2909C18.8571 14.1687 18.5782 14.149 18.3448 14.2348C18.1498 14.3066 17.926 14.4996 17.829 14.679L17.7584 14.8093L17.7433 17.8179C17.7357 19.3201 17.7317 20.0801 17.7218 20.4745C17.7169 20.6703 17.7104 20.7814 17.7003 20.8495C17.6951 20.8843 17.6883 20.9129 17.6779 20.9379C17.6667 20.9646 17.6534 20.9823 17.6443 20.9943C17.553 21.1134 17.4424 21.1963 17.3155 21.2295C17.1876 21.263 17.055 21.2429 16.9269 21.1776C16.8304 21.1285 16.7394 21.0495 16.6929 20.9629C16.6695 20.9193 16.6582 20.871 16.6501 20.7703C16.6421 20.6693 16.6368 20.503 16.6331 20.2147C16.6257 19.6366 16.6248 18.5567 16.6245 16.4998L16.6238 12.2083L16.5615 12.0606C16.4383 11.7688 16.2225 11.5853 15.9086 11.5074C15.4908 11.4039 15.0784 11.5906 14.8634 11.9884L14.7902 12.124L14.775 16.4752C14.7673 18.6556 14.7634 19.7507 14.7536 20.3108C14.7487 20.5896 14.7423 20.7402 14.7326 20.8267C14.7277 20.87 14.7214 20.9034 14.7114 20.9311C14.7001 20.9626 14.6856 20.9816 14.6759 20.9943C14.6119 21.0779 14.5468 21.1422 14.4649 21.1833C14.3826 21.2246 14.2935 21.2374 14.1908 21.2368C13.9705 21.2355 13.7966 21.1687 13.687 21.011C13.6581 20.9694 13.6453 20.9247 13.6365 20.8329C13.6277 20.7419 13.6216 20.5887 13.6169 20.3179C13.6074 19.7746 13.6031 18.7436 13.5957 16.7533L13.5805 12.6584L13.5219 12.5358C13.4806 12.4493 13.4023 12.3464 13.3088 12.2538C13.215 12.1609 13.1146 12.087 13.0344 12.0517C12.9436 12.0119 12.8062 11.9887 12.6616 11.9881C12.5169 11.9876 12.3802 12.0097 12.2907 12.0486C12.1006 12.1313 11.9017 12.3259 11.8086 12.5222L11.7302 12.6878L11.7416 16.6781C11.7458 18.1474 11.7463 19.1594 11.7426 19.8154C11.7408 20.1433 11.7378 20.3829 11.7338 20.5464C11.7318 20.6281 11.7294 20.6915 11.7267 20.7379C11.7243 20.7792 11.7212 20.8184 11.7145 20.8424C11.6872 20.9398 11.6241 21.0295 11.5493 21.098C11.4745 21.1664 11.3796 21.2212 11.2803 21.2393C11.1819 21.2573 11.0721 21.2386 10.9775 21.2016C10.8831 21.1647 10.7899 21.1042 10.7312 21.024L10.6429 20.9032L10.6122 14.9259L10.5551 14.8052C10.5178 14.7267 10.4485 14.6326 10.3659 14.5471C10.2829 14.4613 10.1944 14.3922 10.1236 14.3577C9.65938 14.1317 9.11155 14.3081 8.86562 14.7632L8.79243 14.8986L8.78463 25.6218C8.78248 28.5776 8.78315 31.2646 8.78596 33.2127C8.78736 34.1867 8.78931 34.9759 8.7917 35.5216C8.79289 35.7945 8.7942 36.0063 8.79561 36.1498L8.79666 36.243C8.83637 36.2326 8.88483 36.2197 8.94043 36.2048C9.09847 36.1624 9.31339 36.1038 9.54702 36.0395L10.4245 35.7976L11.6211 36.1471C11.942 36.2409 12.2456 36.3257 12.476 36.3869C12.5913 36.4175 12.6877 36.4421 12.7586 36.4588C12.7941 36.4672 12.8225 36.4734 12.8432 36.4775C12.8621 36.4812 12.8692 36.482 12.8692 36.482L12.8709 36.4819L12.882 36.4811L12.9198 36.4777C12.9512 36.4748 12.9943 36.4705 13.0479 36.4651C13.155 36.4542 13.3031 36.4386 13.4815 36.4194C13.8383 36.3811 14.3158 36.3285 14.8278 36.271C15.3401 36.2135 15.8167 36.1613 16.1719 36.1234C16.3494 36.1044 16.4968 36.0891 16.6032 36.0785C16.7051 36.0683 16.7778 36.0615 16.7977 36.0616C16.8105 36.0616 16.8239 36.0639 16.8316 36.0652C16.8414 36.067 16.853 36.0694 16.8658 36.0722C16.8916 36.0779 16.9253 36.0861 16.9656 36.0963C17.0465 36.1169 17.1565 36.1465 17.2875 36.1828C17.5497 36.2555 17.8977 36.3556 18.2684 36.4656C18.6385 36.5754 18.9808 36.6755 19.2342 36.7484C19.3609 36.7848 19.4651 36.8144 19.5394 36.8349L19.5717 36.8438C19.5778 36.7675 19.5826 36.6343 19.5863 36.4038C19.5943 35.8976 19.5971 34.937 19.6009 33.1206L19.6089 29.2373L19.7327 29.0946ZM4.95151 34.7397C4.61191 34.8312 4.24581 34.9322 4.06429 34.9859L4.07989 13.6728L4.15174 13.5234C4.24169 13.3363 4.42065 13.1569 4.60459 13.0686C4.66447 13.0399 4.70439 13.0255 4.75578 13.017C4.81064 13.0079 4.88162 13.0048 5.00513 13.0047C5.13426 13.0046 5.20289 13.0071 5.25513 13.0164C5.30311 13.0249 5.34012 13.0396 5.40446 13.0727C5.58466 13.1652 5.75972 13.3373 5.83955 13.4954L5.89969 13.6144L5.91487 16.5745C5.92049 17.6701 5.92668 18.4205 5.93475 18.9026C5.93878 19.1435 5.94329 19.3182 5.94848 19.4358C5.95106 19.4944 5.95387 19.5401 5.957 19.5732C5.95855 19.5896 5.96033 19.6045 5.96251 19.617C5.96359 19.6232 5.96501 19.6303 5.96696 19.6374C5.96848 19.6429 5.97212 19.6554 5.97992 19.6685C6.0853 19.845 6.2435 19.9479 6.44308 19.9623C6.54752 19.9698 6.64435 19.9562 6.73113 19.9162C6.81834 19.8759 6.8891 19.8117 6.94539 19.728C6.97408 19.6853 6.9851 19.6338 6.99309 19.5407C7.00136 19.4444 7.0072 19.2846 7.01183 19.0087C7.02111 18.4556 7.02565 17.424 7.03291 15.4717L7.04812 11.3753L7.10397 11.2576C7.13504 11.1921 7.21146 11.081 7.27041 11.0174C7.59405 10.6681 8.06902 10.6046 8.46677 10.8552C8.55963 10.9137 8.67106 11.0158 8.71564 11.0789C8.76153 11.144 8.7907 11.1872 8.8123 11.234C8.83308 11.279 8.84845 11.3312 8.85933 11.4124C8.88192 11.5811 8.88313 11.8545 8.88307 12.4081L8.88296 13.3497L8.73153 13.426C8.29585 13.6453 7.92561 14.0937 7.75139 14.6022L7.67445 14.8268L7.66638 25.0416C7.6632 29.0652 7.65922 31.6054 7.6523 33.1398C7.64884 33.9081 7.64464 34.4239 7.63944 34.7472C7.63702 34.8974 7.6344 35.0053 7.63157 35.0777C7.58203 35.0639 7.51797 35.0458 7.44257 35.0243C7.26409 34.9733 7.02295 34.9032 6.76226 34.8264C6.5011 34.7495 6.25783 34.6793 6.07622 34.6282C5.98547 34.6027 5.9098 34.5819 5.85488 34.5673C5.82749 34.56 5.80474 34.5542 5.78765 34.5501C5.77918 34.548 5.77097 34.5462 5.76442 34.5448C5.76036 34.544 5.74892 34.5417 5.73781 34.5413C5.72523 34.5409 5.71262 34.5432 5.7098 34.5437C5.70419 34.5447 5.69776 34.546 5.69106 34.5475C5.67751 34.5504 5.65962 34.5546 5.63838 34.5597C5.59572 34.5701 5.53714 34.5849 5.46759 34.6029C5.32838 34.6389 5.14375 34.6879 4.95151 34.7397ZM10.7536 10.2413C10.7024 10.2498 10.6627 10.264 10.6032 10.2926C10.4201 10.3804 10.2394 10.5616 10.1495 10.7486L10.0775 10.8984L10.0599 13.2168L10.1606 13.2376C10.2694 13.2602 10.4465 13.3221 10.5601 13.3766L10.6178 13.4043L10.631 13.0496C10.6461 12.6405 10.6632 12.4889 10.7235 12.3059C10.7685 12.1696 10.8071 12.069 10.8584 11.9726C10.9096 11.8762 10.9716 11.7873 11.06 11.6727C11.2359 11.4445 11.5244 11.222 11.8123 11.0896L11.9364 11.0325L11.9286 10.9846C11.8826 10.7026 11.6695 10.4206 11.4025 10.2926C11.343 10.264 11.3033 10.2498 11.2521 10.2413C11.1973 10.2323 11.1264 10.2294 11.0028 10.2294C10.8793 10.2294 10.8084 10.2323 10.7536 10.2413ZM15.6935 10.4028L15.624 10.4026C15.6544 10.2263 15.7771 9.48483 15.9159 8.63883L16.1835 7.007L24.2153 6.99955C27.127 6.99686 29.156 6.99727 30.457 7.00126C31.1075 7.00325 31.5758 7.00614 31.8812 7.00998C32.0341 7.0119 32.1456 7.01405 32.2186 7.01642L32.2337 7.01712L32.2446 7.01764C32.252 7.06312 32.2625 7.12602 32.2752 7.20058C32.3006 7.34975 32.3347 7.5463 32.3696 7.74504C32.4275 8.07478 32.4883 8.41556 32.5147 8.55248H25.7444L25.7444 20.0692H20.6822L20.6656 14.676L20.5776 14.4411C20.3436 13.8167 19.7934 13.3234 19.1526 13.1653C19.0256 13.1339 18.8467 13.1195 18.6714 13.1195C18.4956 13.1195 18.3134 13.1339 18.179 13.1648C18.0659 13.1908 17.8903 13.2537 17.7833 13.3064C17.7615 13.3171 17.7403 13.3274 17.7205 13.3369L17.7178 13.2614C17.7135 13.1257 17.7095 12.938 17.7069 12.7312C17.7023 12.3662 17.6994 12.1712 17.687 12.0409C17.6739 11.9031 17.6495 11.8332 17.6075 11.721C17.4975 11.4271 17.2762 11.1078 17.0394 10.9013C16.6956 10.6015 16.161 10.404 15.6935 10.4028ZM20.9609 22.7544L21.1376 22.5335C21.502 22.0782 21.7228 21.8111 21.9003 21.6359C22.0822 21.4562 22.22 21.3718 22.4152 21.279C22.5498 21.2151 22.682 21.1674 22.818 21.1344H20.681V22.7544H20.9609ZM24.6896 21.6079C24.4301 21.3692 24.1422 21.212 23.8211 21.1344H25.7444V21.6182C25.7444 21.8111 25.7474 21.9647 25.7535 22.0762C25.7565 22.1318 25.7604 22.1785 25.7653 22.215C25.7677 22.2333 25.7706 22.2504 25.7742 22.2655C25.7774 22.2791 25.7825 22.2976 25.7919 22.3149L25.8798 22.4427C25.9212 22.4987 25.9732 22.5666 26.0258 22.6331C26.0672 22.6854 26.1072 22.7366 26.141 22.7804C26.0614 22.7831 25.9468 22.7843 25.7864 22.7843H25.3201L25.3155 22.7562C25.2585 22.408 25.1065 22.0803 24.8786 21.8064C24.8555 21.7787 24.8317 21.7516 24.8071 21.725C24.7697 21.6846 24.7305 21.6455 24.6896 21.6079ZM16.5478 0.980186L16.4226 1.03656C16.3491 1.06969 16.2606 1.12706 16.2295 1.15735C16.2095 1.17686 16.205 1.18242 16.202 1.1875C16.2001 1.1909 16.1956 1.19969 16.1917 1.22733C16.1832 1.28876 16.1826 1.39919 16.1826 1.63965V2.01838H32.0482V1.62034C32.0482 1.48566 32.0482 1.38835 32.0441 1.31401C32.0399 1.23668 32.0316 1.19568 32.0207 1.17014C32.012 1.14979 32 1.13498 31.9719 1.11665C31.9389 1.0952 31.8927 1.07439 31.8161 1.03999L31.683 0.980186H16.5478ZM16.1826 5.9269V3.08363H32.0482V5.9269H16.1826Z" fill="#FA873F"/>
</g>
<defs>
<clipPath id="clip0">
<rect width="40" height="40" fill="white"/>
</clipPath>
</defs>
</svg>
