<?xml version="1.0" standalone="no"?>
<!DOCTYPE svg PUBLIC "-//W3C//DTD SVG 20010904//EN"
 "http://www.w3.org/TR/2001/REC-SVG-20010904/DTD/svg10.dtd">
<svg version="1.0" xmlns="http://www.w3.org/2000/svg"
 width="500.000000pt" height="500.000000pt" viewBox="0 0 500.000000 500.000000"
 preserveAspectRatio="xMidYMid meet">
<metadata>
Created by potrace 1.11, written by Peter Selinger 2001-2013
</metadata>
<g transform="translate(0.000000,500.000000) scale(0.100000,-0.100000)"
fill="#000000" stroke="none">
<path d="M2328 4996 c-1 -2 -37 -6 -78 -10 -161 -14 -359 -56 -528 -111 -543
-179 -1001 -532 -1317 -1014 -117 -178 -242 -445 -295 -626 -26 -92 -59 -222
-64 -255 -3 -19 -13 -80 -22 -135 -19 -114 -26 -441 -13 -575 59 -590 302
-1110 714 -1526 137 -138 235 -220 375 -314 75 -50 295 -180 305 -180 3 0 28
-11 57 -24 112 -51 323 -127 391 -141 10 -2 26 -6 35 -9 53 -16 267 -54 362
-64 46 -5 136 -8 199 -8 132 1 167 13 232 78 128 130 60 367 -119 407 -26 5
-99 13 -162 16 -63 3 -131 8 -150 11 -131 19 -270 51 -374 85 -116 38 -387
162 -394 180 -2 5 -8 9 -13 9 -17 0 -156 98 -246 174 -92 76 -189 172 -268
266 -42 50 -185 253 -185 263 0 2 -17 36 -39 75 -51 93 -124 274 -155 387 -54
196 -71 334 -71 565 1 220 14 311 80 555 79 292 290 636 531 867 117 111 261
219 409 305 153 89 438 192 605 218 25 4 54 9 65 11 98 19 433 26 540 11 287
-40 511 -114 750 -247 99 -55 126 -73 240 -162 239 -186 419 -404 558 -675 60
-117 71 -145 122 -299 31 -95 57 -205 71 -299 3 -22 7 -51 10 -65 2 -14 6 -81
10 -150 8 -169 29 -231 98 -283 70 -54 144 -68 228 -43 65 19 118 65 152 131
24 48 25 55 22 190 -7 222 -34 396 -97 615 -95 328 -272 657 -499 925 -35 42
-216 223 -270 270 -194 171 -522 365 -750 444 -52 18 -104 37 -115 42 -63 27
-281 75 -450 100 -71 10 -478 22 -487 15z"/>
<path d="M2310 3735 c-101 -17 -221 -50 -289 -81 -31 -14 -72 -33 -91 -42 -36
-16 -109 -63 -190 -120 -87 -63 -223 -212 -294 -322 -74 -115 -155 -314 -171
-416 -3 -22 -9 -64 -15 -94 -13 -82 -5 -312 14 -405 57 -262 162 -455 356
-645 178 -176 376 -282 625 -336 143 -31 364 -27 530 10 266 58 534 231 704
456 120 158 180 284 229 480 23 91 26 126 26 270 1 176 -13 267 -59 406 -141
421 -495 734 -940 830 -99 21 -331 26 -435 9z"/>
<path d="M4527 1868 c-107 -23 -151 -68 -217 -220 -6 -13 -14 -30 -19 -38 -5
-8 -19 -35 -32 -60 -37 -73 -127 -210 -187 -285 -200 -250 -410 -418 -706
-566 -77 -39 -151 -80 -164 -92 -12 -11 -34 -44 -48 -73 -61 -125 -13 -266
111 -328 70 -36 140 -37 222 -2 373 159 711 417 969 742 88 111 186 257 239
360 19 37 39 72 43 78 23 31 83 192 84 225 2 167 -141 293 -295 259z"/>
</g>
</svg>
