<svg width="40" height="40" viewBox="0 0 40 40" fill="none" xmlns="http://www.w3.org/2000/svg">
<g clip-path="url(#clip0)">
<path d="M20.7188 38.733C20.2004 38.602 19.7691 38.2565 19.5318 37.7823L19.3929 37.5048L2.69575 37.4695L2.41194 37.3933C1.21469 37.0718 0.346733 36.1672 0.0635561 34.9458C0.003023 34.6847 0.000267299 34.3712 0.000267299 27.7465C0.000267299 20.0975 -0.0170981 20.6751 0.228108 20.16C0.460848 19.6711 0.904018 19.2844 1.45037 19.0935C1.6385 19.0278 1.76734 19.0131 2.29956 18.9968L2.92697 18.9777L2.97462 18.79C3.06911 18.418 3.35801 18.106 3.7233 17.9815C3.83309 17.9441 3.96166 17.9331 4.16394 17.9437L4.44955 17.9587L4.47001 15.7021L4.56485 15.509C4.75553 15.1207 5.0705 14.9305 5.56184 14.9067L5.86893 14.8919L6.92665 12.5534C7.7641 10.7019 8.00441 10.2001 8.08063 10.1436C8.17442 10.0742 8.22217 10.0718 9.94017 10.051C10.91 10.0392 12.4174 10.0247 13.29 10.0187C15.0936 10.0063 14.9995 9.99234 15.1281 10.2915C15.1982 10.4544 16.7474 14.376 16.8778 14.7205L16.9453 14.899L20.3977 14.9082C23.8427 14.9174 23.8505 14.9175 24.0079 14.9903C24.2343 15.095 24.4309 15.2866 24.5401 15.509C24.6272 15.6865 24.6359 15.7401 24.6467 16.1713C24.6532 16.4293 24.6711 16.6404 24.6864 16.6404C24.7018 16.6404 25.786 16.1875 27.0959 15.6339C28.8424 14.8957 29.5128 14.6273 29.6101 14.6273C29.7163 14.6273 29.7666 14.6512 29.863 14.7476C29.9756 14.8603 29.9822 14.8788 29.9666 15.0405C29.9562 15.1498 29.9253 15.2378 29.8825 15.2806C29.8453 15.3178 28.6571 15.8377 27.242 16.4361L24.669 17.524L24.6505 18.8622L26.144 18.8346C28.4707 18.7916 28.4512 18.7912 28.5566 18.8903C28.6884 19.0142 28.7313 19.19 28.6673 19.3434C28.5605 19.5989 28.6453 19.5876 26.5473 19.6258L24.669 19.66L24.6513 21.1954L27.2188 22.7479C28.6309 23.6018 29.8296 24.3387 29.8826 24.3857C30.1706 24.6407 29.9012 25.1474 29.5323 25.0447C29.466 25.0262 28.3449 24.3647 27.0411 23.5747L24.6706 22.1382L24.6287 22.3436C24.5525 22.7174 24.3655 22.9498 24.0037 23.1201L23.816 23.2085L14.9278 23.2269V26.1258H15.4748C16.0948 26.1258 16.2153 26.1557 16.3258 26.337C16.3906 26.4432 16.3947 26.5072 16.3948 27.4123L16.3949 28.3746L16.5229 28.3952C17.3438 28.5271 17.9113 28.8014 18.4266 29.3152C18.8318 29.7192 19.1032 30.1827 19.2683 30.7526C19.3441 31.0145 19.3463 31.0627 19.3463 32.4721V33.9222L19.2621 34.0928C19.1541 34.3115 18.9154 34.5504 18.698 34.6573L18.5274 34.7411H3.95819L3.80978 34.6619C3.57256 34.5353 3.37928 34.3338 3.27199 34.1013L3.17365 33.8881L3.1621 32.8211C3.14499 31.2435 3.19552 30.8344 3.48288 30.2247C3.94234 29.2499 4.76535 28.624 5.84808 28.4259L6.15895 28.3691V27.3885C6.15895 26.4343 6.16098 26.4054 6.23292 26.3139C6.36007 26.1523 6.47921 26.1258 7.0791 26.1258H7.62611V23.2256H6.54144C5.33763 23.2256 5.18238 23.2058 4.90881 23.0176C4.82485 22.9598 4.71081 22.85 4.6554 22.7735C4.48189 22.534 4.45296 22.3669 4.45296 21.6048V20.9177L4.16211 20.933C3.82667 20.9506 3.64861 20.8997 3.38991 20.7123C3.13769 20.5297 3.02002 20.3129 2.93451 19.8733L2.91623 19.7795H2.44637C2.13398 19.7795 1.90835 19.7971 1.77315 19.8321C1.40031 19.9284 1.0671 20.2143 0.896575 20.584L0.819151 20.7519V34.7752L0.924416 35.0693C1.19613 35.8282 1.83096 36.4136 2.61045 36.6241C2.81853 36.6803 3.34221 36.6846 11.0909 36.6942L19.3495 36.7044L19.4243 36.4721C19.5571 36.0598 19.7993 35.7422 20.1627 35.5039C20.4288 35.3295 20.7399 35.2367 21.1376 35.2132C21.8362 35.172 22.3217 35.3282 22.7358 35.7275L22.963 35.9466L24.5492 35.958C25.2202 35.9711 25.2694 35.9476 25.3614 36.2082C25.4084 36.3414 25.4242 36.3547 25.3614 36.4721C25.2553 36.6703 25.1105 36.6579 24.6599 36.6579H23.2761L23.2872 36.9546C23.2872 37.0554 23.2776 37.1859 23.2658 37.2446L23.2445 37.5048H24.6599C25.1388 37.5048 25.2149 37.4774 25.3062 37.6698C25.3794 37.824 25.3605 37.9067 25.2234 38.0357C25.1373 38.1166 25.118 38.1192 24.5181 38.1297L22.9014 38.1404L22.7104 38.3033C22.2831 38.6678 22.0402 38.7539 21.3935 38.7705C21.052 38.7792 20.8597 38.7685 20.7188 38.733ZM21.904 37.8942C22.5473 37.5918 22.6812 36.7662 22.1651 36.2835C21.9185 36.0528 21.7717 36.0114 21.2515 36.0256C20.848 36.0367 20.8011 36.045 20.6561 36.1302C20.3207 36.3274 20.1496 36.6188 20.1496 36.993C20.1496 37.277 20.2274 37.4757 20.4144 37.6698C20.6605 37.9251 20.9005 38.0025 21.3937 37.9855C21.6629 37.9761 21.7708 37.9569 21.904 37.8942ZM18.375 33.9217C18.5811 33.8151 18.5842 33.791 18.572 32.3928L18.561 31.1244L18.4649 30.8514C18.2227 30.163 17.8094 29.7006 17.1674 29.3997C16.6335 29.1495 16.8983 29.1595 11.1205 29.1713C6.29334 29.1811 5.95848 29.1856 5.76656 29.2427C5.07092 29.4499 4.52818 29.9041 4.21144 30.5444C3.99321 30.9855 3.97653 31.1264 3.97586 32.5345L3.97536 33.774L4.17483 33.9734H11.2249C17.4599 33.9734 18.2865 33.9674 18.375 33.9217ZM15.6102 26.9447H6.94369V28.2071H15.6102V26.9447ZM14.143 23.2256H8.41085V26.1258H14.143V23.2256ZM19.4552 15.6872L5.40232 15.7022L5.23946 15.8916L5.25475 22.2763L5.3353 22.3415C5.41406 22.4053 5.58282 22.4067 12.9355 22.4067H19.4552V15.6872ZM21.8541 15.6851H20.2741V22.4068H21.8541V15.6851ZM23.7696 22.3415L23.8501 22.2763V15.8576L23.7725 15.7799C23.6985 15.7058 23.6705 15.7022 23.1754 15.7022H22.6559L22.6385 22.4068H23.1638C23.6301 22.4068 23.6981 22.3994 23.7696 22.3415ZM4.32444 20.0553L4.43587 19.9557V18.9209L4.32444 18.8214C4.14792 18.6636 3.86847 18.7081 3.77717 18.9085C3.71919 19.0358 3.72454 19.8732 3.78401 19.9805C3.8916 20.1746 4.15075 20.2105 4.32444 20.0553ZM8.61979 13.3308C9.10053 12.1743 9.2896 11.7559 9.36111 11.6901C9.45584 11.6031 9.46632 11.6016 10.1538 11.5793C10.5369 11.5669 11.2394 11.569 12.0332 11.569C13.2318 11.569 13.4928 11.5774 13.5727 11.6187C13.6827 11.6756 13.6725 11.6532 14.4744 13.6161L14.9971 14.8956L15.6768 14.8929C16.0069 14.9005 16.0923 14.8933 16.0785 14.8588C16.0688 14.8348 15.7309 13.9783 15.3275 12.9555C14.9241 11.9328 14.5671 11.0294 14.5342 10.9481L14.4744 10.8001L11.7583 10.8211C10.2643 10.8326 8.93256 10.8504 8.79873 10.8607L8.55541 10.8793L7.72688 12.7107C7.2712 13.718 6.86255 14.6231 6.81876 14.722L6.73915 14.9019L7.97445 14.8833L8.61979 13.3308ZM14.1213 14.8853C14.1213 14.8702 13.8922 14.2982 13.6121 13.6143L13.1028 12.3707L12.4776 12.3624C12.1337 12.3578 11.609 12.3531 10.9931 12.3671L9.87329 12.3925L9.36386 13.6161C9.08366 14.2891 8.85441 14.8534 8.85441 14.8701C8.85441 14.8875 10.03 14.9004 11.6181 14.9004C13.1382 14.9004 14.1213 14.9003 14.1213 14.8853ZM34.1453 36.5844C33.7606 36.5288 33.4471 36.3654 33.1824 36.0824C32.8751 35.754 32.7334 35.3888 32.7362 34.9328C32.7403 34.2873 33.093 33.7411 33.6886 33.4583C33.9167 33.35 33.9866 33.3336 34.2815 33.3194C34.5577 33.3061 34.6579 33.3158 34.8569 33.3765C35.3264 33.5191 35.7467 33.9069 35.9213 34.3587C36.0354 34.6541 36.0517 35.1125 35.9588 35.4182C35.7187 36.2086 34.953 36.701 34.1453 36.5844ZM34.6819 35.7506C35.3581 35.4681 35.4269 34.5764 34.8009 34.2085C34.6632 34.1275 34.6032 34.114 34.3841 34.1147C34.1893 34.1152 34.0957 34.1329 33.9917 34.1883C33.5055 34.4479 33.3782 35.0886 33.7309 35.5006C33.9595 35.7677 34.3778 35.8777 34.6819 35.7506ZM2.00336 12.5574C1.94157 12.527 1.87247 12.4697 1.84982 12.4302C1.82607 12.3888 1.80141 12.1633 1.79156 11.8978L1.77451 11.4372L1.31388 11.4192C1.06054 11.4094 0.827318 11.3889 0.795606 11.3737C0.626234 11.2927 0.566891 10.9774 0.689831 10.8118C0.803347 10.6589 0.888505 10.6364 1.35654 10.6359L1.79156 10.6354V9.70728L1.90757 9.59128C2.00576 9.49309 2.0476 9.47527 2.17999 9.47527C2.30455 9.47527 2.3591 9.49553 2.44784 9.57475L2.55926 9.67422L2.58144 10.6303L3.53751 10.6525L3.63698 10.7639C3.74681 10.8869 3.76981 11.0708 3.69569 11.2334C3.62505 11.3885 3.51077 11.4202 3.02163 11.4202H2.57637V11.867C2.57637 12.3695 2.54341 12.4713 2.35093 12.5626C2.21344 12.6279 2.14418 12.6268 2.00336 12.5574ZM16.9549 7.00213C16.0435 6.80382 15.465 5.8788 15.6965 4.98991C15.9272 4.10435 16.8313 3.56722 17.7071 3.79536C18.1485 3.91032 18.5702 4.2434 18.7676 4.63285C19.0382 5.16694 18.9956 5.81129 18.6555 6.32813C18.4336 6.66529 18.0572 6.91257 17.6274 7.00368C17.3542 7.06159 17.2268 7.06126 16.9549 7.00213ZM17.614 6.18164C17.9439 6.04379 18.1431 5.75134 18.1446 5.40245C18.1456 5.16034 18.0866 5.00113 17.9293 4.82194C17.7549 4.62332 17.5799 4.54696 17.2991 4.54696C17.0157 4.54696 16.8478 4.62145 16.6584 4.83108C16.2656 5.26591 16.4269 5.94129 16.9812 6.18203C17.1309 6.24707 17.4579 6.24687 17.614 6.18164ZM34.8571 4.10072C34.6677 3.99911 34.633 3.89952 34.6208 3.42314L34.6096 2.98196H34.2188C33.7851 2.98196 33.6473 2.94438 33.5289 2.79382C33.4128 2.64625 33.4289 2.46348 33.5716 2.30759L33.6883 2.18013L34.6084 2.1579L34.632 1.23652L34.7595 1.11975C34.9154 0.976927 35.0981 0.960844 35.2457 1.07696C35.3963 1.19541 35.4338 1.33313 35.4338 1.76696V2.15779L36.354 2.18017L36.4654 2.29172C36.5608 2.38716 36.5769 2.42728 36.5769 2.56963C36.5769 2.88679 36.4038 2.98199 35.8273 2.98199H35.4338V3.37546C35.4338 3.79081 35.3984 3.93728 35.2706 4.05113C35.1805 4.13136 34.9629 4.15744 34.8571 4.10072Z" fill="white"/>
<path d="M24.6559 32.9419C22.7501 32.6035 21.2468 31.743 20.8636 29.2486C20.7796 28.7017 20.7771 27.6675 20.8586 27.1182C20.9739 26.3395 21.2604 25.3916 21.4396 25.1959C21.7024 24.9088 22.1514 25.112 22.1513 25.5179C22.1513 25.5964 22.0912 25.8262 22.0177 26.0285C21.789 26.6584 21.6965 27.1729 21.6729 27.947C21.6565 28.4822 21.6658 28.7208 21.7162 29.0649C21.9819 30.8767 22.9638 31.3165 24.2803 31.8247C24.6059 31.9503 24.7002 31.9676 25.1495 31.984C25.5761 31.9996 25.7014 31.9884 25.9649 31.913C26.3344 31.8069 26.8139 31.5535 27.126 31.2994C27.4245 31.0564 27.888 30.4981 28.0969 30.1299C28.4107 29.5766 28.6137 29.5719 29.0824 30.107C29.4318 30.506 29.6739 30.6622 30.0541 30.7341C31.2497 30.96 32.3007 29.4429 32.0729 27.8199C32.0093 27.3668 32.0324 27.2248 32.1953 27.0685C32.3293 26.94 32.4212 26.9402 32.9287 27.0698C33.3021 27.1654 33.9181 27.136 34.2814 27.0051C34.8233 26.81 35.2664 26.4901 35.6938 25.9857C36.4372 25.1082 36.8232 23.9469 36.8227 22.5895C36.8224 21.9447 36.7541 21.45 36.5936 20.9336C36.4599 20.5032 36.4253 20.2476 36.484 20.1226C36.5067 20.0742 36.6458 19.9323 36.7931 19.8074C37.5755 19.1442 38.0097 18.244 38.1164 17.0637C38.222 15.8971 37.8798 14.7129 37.2092 13.9245C36.7628 13.3996 36.3274 13.1479 35.675 13.0374C35.3591 12.9839 35.3078 12.9628 35.218 12.8496L35.1169 12.722L35.1387 11.9293C35.1559 11.3001 35.1478 11.0492 35.0992 10.7139C34.7777 8.49348 33.3856 6.87022 31.7204 6.7741C31.231 6.74588 30.9362 6.79862 30.459 6.99984C29.8463 7.25816 29.6906 7.17714 29.5377 6.52049C29.3071 5.53059 28.7224 4.66081 28.0234 4.26786C26.3306 3.3162 24.476 4.84982 24.31 7.33859C24.2777 7.82303 24.1903 7.99208 23.9427 8.04876C23.857 8.06839 23.7481 8.02512 23.4459 7.85129L23.0589 7.62867H22.6643C22.2832 7.62867 22.2601 7.63432 21.9893 7.78674C20.7201 8.50202 20.4496 10.7708 21.4893 11.9793C21.7292 12.2582 22.0585 12.48 22.3129 12.5342C22.5178 12.5779 22.6998 12.7918 22.6998 12.989C22.6998 13.2106 22.642 13.3451 22.5061 13.4396C22.3436 13.5525 22.2189 13.5456 21.8611 13.4035C20.9588 13.0453 20.2613 12.0696 20.0486 10.8681C19.9707 10.4284 19.9894 9.49424 20.0836 9.11043C20.3854 7.88175 21.1243 6.98365 22.0697 6.69638C22.3816 6.60161 22.9385 6.59987 23.2425 6.69261C23.3677 6.73087 23.4784 6.76215 23.4885 6.76215C23.4985 6.76215 23.5184 6.67315 23.5327 6.56437C23.5981 6.06671 23.8905 5.26622 24.1918 4.7599C24.5154 4.21615 25.0691 3.65862 25.572 3.37044C26.155 3.03631 26.9515 2.91458 27.5942 3.0614C28.2625 3.21403 28.7655 3.53614 29.3151 4.16332C29.7582 4.66887 30.0149 5.10701 30.2106 5.69144C30.2898 5.92795 30.3283 5.99654 30.3709 5.97682C30.4018 5.96252 30.5771 5.91492 30.7605 5.87104C31.1785 5.77105 31.8741 5.76421 32.2982 5.85592C34.0549 6.23593 35.505 8.01104 35.909 10.2759C35.9902 10.7312 36.0496 11.557 36.0216 11.8415L35.998 12.0819L36.1588 12.1282C36.812 12.3164 37.3223 12.6514 37.8022 13.2071C39.0019 14.5965 39.3371 16.7855 38.6408 18.6833C38.4404 19.2293 38.1707 19.6811 37.7744 20.1344L37.4082 20.5533L37.5023 20.9374C37.9289 22.6782 37.6555 24.5941 36.7731 26.0484C36.5188 26.4675 36.0309 27.0298 35.6848 27.3027C35.3321 27.5807 34.7969 27.8711 34.4296 27.9837C34.2074 28.0519 33.9882 28.0795 33.5548 28.0939L32.9764 28.1132L32.9539 28.5209C32.8687 30.064 32.0339 31.3157 30.8619 31.6575C30.1823 31.8557 29.3911 31.6736 28.8289 31.1896L28.6347 31.0224L28.2152 31.5029C27.472 32.3543 26.7599 32.7819 25.8129 32.9456C25.3889 33.019 25.0861 33.0185 24.6559 32.9419Z" fill="white"/>
<path d="M20.7188 38.733C20.2004 38.602 19.7691 38.2565 19.5318 37.7823L19.3929 37.5048L2.69575 37.4695L2.41194 37.3933C1.21469 37.0718 0.346733 36.1672 0.0635561 34.9458C0.003023 34.6847 0.000267299 34.3712 0.000267299 27.7465C0.000267299 20.0975 -0.0170981 20.6751 0.228108 20.16C0.460848 19.6711 0.904018 19.2844 1.45037 19.0935C1.6385 19.0278 1.76734 19.0131 2.29956 18.9968L2.92697 18.9777L2.97462 18.79C3.06911 18.418 3.35801 18.106 3.7233 17.9815C3.83309 17.9441 3.96166 17.9331 4.16394 17.9437L4.44955 17.9587L4.47001 15.7021L4.56485 15.509C4.75553 15.1207 5.0705 14.9305 5.56184 14.9067L5.86893 14.8919L6.92665 12.5534C7.7641 10.7019 8.00441 10.2001 8.08063 10.1436C8.17442 10.0742 8.22217 10.0718 9.94017 10.051C10.91 10.0392 12.4174 10.0247 13.29 10.0187C15.0936 10.0063 14.9995 9.99234 15.1281 10.2915C15.1982 10.4544 16.7474 14.376 16.8778 14.7205L16.9453 14.899L20.3977 14.9082C23.8427 14.9174 23.8505 14.9175 24.0079 14.9903C24.2343 15.095 24.4309 15.2866 24.5401 15.509C24.6272 15.6865 24.6359 15.7401 24.6467 16.1713C24.6532 16.4293 24.6711 16.6404 24.6864 16.6404C24.7018 16.6404 25.786 16.1875 27.0959 15.6339C28.8424 14.8957 29.5128 14.6273 29.6101 14.6273C29.7163 14.6273 29.7666 14.6512 29.863 14.7476C29.9756 14.8603 29.9822 14.8788 29.9666 15.0405C29.9562 15.1498 29.9253 15.2378 29.8825 15.2806C29.8453 15.3178 28.6571 15.8377 27.242 16.4361L24.669 17.524L24.6505 18.8622L26.144 18.8346C28.4707 18.7916 28.4512 18.7912 28.5566 18.8903C28.6884 19.0142 28.7313 19.19 28.6673 19.3434C28.5605 19.5989 28.6453 19.5876 26.5473 19.6258L24.669 19.66L24.6513 21.1954L27.2188 22.7479C28.6309 23.6018 29.8296 24.3387 29.8826 24.3857C30.1706 24.6407 29.9012 25.1474 29.5323 25.0447C29.466 25.0262 28.3449 24.3647 27.0411 23.5747L24.6706 22.1382L24.6287 22.3436C24.5525 22.7174 24.3655 22.9498 24.0037 23.1201L23.816 23.2085L14.9278 23.2269V26.1258H15.4748C16.0948 26.1258 16.2153 26.1557 16.3258 26.337C16.3906 26.4432 16.3947 26.5072 16.3948 27.4123L16.3949 28.3746L16.5229 28.3952C17.3438 28.5271 17.9113 28.8014 18.4266 29.3152C18.8318 29.7192 19.1032 30.1827 19.2683 30.7526C19.3441 31.0145 19.3463 31.0627 19.3463 32.4721V33.9222L19.2621 34.0928C19.1541 34.3115 18.9154 34.5504 18.698 34.6573L18.5274 34.7411H3.95819L3.80978 34.6619C3.57256 34.5353 3.37928 34.3338 3.27199 34.1013L3.17365 33.8881L3.1621 32.8211C3.14499 31.2435 3.19552 30.8344 3.48288 30.2247C3.94234 29.2499 4.76535 28.624 5.84808 28.4259L6.15895 28.3691V27.3885C6.15895 26.4343 6.16098 26.4054 6.23292 26.3139C6.36007 26.1523 6.47921 26.1258 7.0791 26.1258H7.62611V23.2256H6.54144C5.33763 23.2256 5.18238 23.2058 4.90881 23.0176C4.82485 22.9598 4.71081 22.85 4.6554 22.7735C4.48189 22.534 4.45296 22.3669 4.45296 21.6048V20.9177L4.16211 20.933C3.82667 20.9506 3.64861 20.8997 3.38991 20.7123C3.13769 20.5297 3.02002 20.3129 2.93451 19.8733L2.91623 19.7795H2.44637C2.13398 19.7795 1.90835 19.7971 1.77315 19.8321C1.40031 19.9284 1.0671 20.2143 0.896575 20.584L0.819151 20.7519V34.7752L0.924416 35.0693C1.19613 35.8282 1.83096 36.4136 2.61045 36.6241C2.81853 36.6803 3.34221 36.6846 11.0909 36.6942L19.3495 36.7044L19.4243 36.4721C19.5571 36.0598 19.7993 35.7422 20.1627 35.5039C20.4288 35.3295 20.7399 35.2367 21.1376 35.2132C21.8362 35.172 22.3217 35.3282 22.7358 35.7275L22.963 35.9466L24.5492 35.958C25.2202 35.9711 25.2694 35.9476 25.3614 36.2082C25.4084 36.3414 25.4242 36.3547 25.3614 36.4721C25.2553 36.6703 25.1105 36.6579 24.6599 36.6579H23.2761L23.2872 36.9546C23.2872 37.0554 23.2776 37.1859 23.2658 37.2446L23.2445 37.5048H24.6599C25.1388 37.5048 25.2149 37.4774 25.3062 37.6698C25.3794 37.824 25.3605 37.9067 25.2234 38.0357C25.1373 38.1166 25.118 38.1192 24.5181 38.1297L22.9014 38.1404L22.7104 38.3033C22.2831 38.6678 22.0402 38.7539 21.3935 38.7705C21.052 38.7792 20.8597 38.7685 20.7188 38.733ZM21.904 37.8942C22.5473 37.5918 22.6812 36.7662 22.1651 36.2835C21.9185 36.0528 21.7717 36.0114 21.2515 36.0256C20.848 36.0367 20.8011 36.045 20.6561 36.1302C20.3207 36.3274 20.1496 36.6188 20.1496 36.993C20.1496 37.277 20.2274 37.4757 20.4144 37.6698C20.6605 37.9251 20.9005 38.0025 21.3937 37.9855C21.6629 37.9761 21.7708 37.9569 21.904 37.8942ZM18.375 33.9217C18.5811 33.8151 18.5842 33.791 18.572 32.3928L18.561 31.1244L18.4649 30.8514C18.2227 30.163 17.8094 29.7006 17.1674 29.3997C16.6335 29.1495 16.8983 29.1595 11.1205 29.1713C6.29334 29.1811 5.95848 29.1856 5.76656 29.2427C5.07092 29.4499 4.52818 29.9041 4.21144 30.5444C3.99321 30.9855 3.97653 31.1264 3.97586 32.5345L3.97536 33.774L4.17483 33.9734H11.2249C17.4599 33.9734 18.2865 33.9674 18.375 33.9217ZM15.6102 26.9447H6.94369V28.2071H15.6102V26.9447ZM14.143 23.2256H8.41085V26.1258H14.143V23.2256ZM19.4552 15.6872L5.40232 15.7022L5.23946 15.8916L5.25475 22.2763L5.3353 22.3415C5.41406 22.4053 5.58282 22.4067 12.9355 22.4067H19.4552V15.6872ZM21.8541 15.6851H20.2741V22.4068H21.8541V15.6851ZM23.7696 22.3415L23.8501 22.2763V15.8576L23.7725 15.7799C23.6985 15.7058 23.6705 15.7022 23.1754 15.7022H22.6559L22.6385 22.4068H23.1638C23.6301 22.4068 23.6981 22.3994 23.7696 22.3415ZM4.32444 20.0553L4.43587 19.9557V18.9209L4.32444 18.8214C4.14792 18.6636 3.86847 18.7081 3.77717 18.9085C3.71919 19.0358 3.72454 19.8732 3.78401 19.9805C3.8916 20.1746 4.15075 20.2105 4.32444 20.0553ZM8.61979 13.3308C9.10053 12.1743 9.2896 11.7559 9.36111 11.6901C9.45584 11.6031 9.46632 11.6016 10.1538 11.5793C10.5369 11.5669 11.2394 11.569 12.0332 11.569C13.2318 11.569 13.4928 11.5774 13.5727 11.6187C13.6827 11.6756 13.6725 11.6532 14.4744 13.6161L14.9971 14.8956L15.6768 14.8929C16.0069 14.9005 16.0923 14.8933 16.0785 14.8588C16.0688 14.8348 15.7309 13.9783 15.3275 12.9555C14.9241 11.9328 14.5671 11.0294 14.5342 10.9481L14.4744 10.8001L11.7583 10.8211C10.2643 10.8326 8.93256 10.8504 8.79873 10.8607L8.55541 10.8793L7.72688 12.7107C7.2712 13.718 6.86255 14.6231 6.81876 14.722L6.73915 14.9019L7.97445 14.8833L8.61979 13.3308ZM14.1213 14.8853C14.1213 14.8702 13.8922 14.2982 13.6121 13.6143L13.1028 12.3707L12.4776 12.3624C12.1337 12.3578 11.609 12.3531 10.9931 12.3671L9.87329 12.3925L9.36386 13.6161C9.08366 14.2891 8.85441 14.8534 8.85441 14.8701C8.85441 14.8875 10.03 14.9004 11.6181 14.9004C13.1382 14.9004 14.1213 14.9003 14.1213 14.8853ZM34.1453 36.5844C33.7606 36.5288 33.4471 36.3654 33.1824 36.0824C32.8751 35.754 32.7334 35.3888 32.7362 34.9328C32.7403 34.2873 33.093 33.7411 33.6886 33.4583C33.9167 33.35 33.9866 33.3336 34.2815 33.3194C34.5577 33.3061 34.6579 33.3158 34.8569 33.3765C35.3264 33.5191 35.7467 33.9069 35.9213 34.3587C36.0354 34.6541 36.0517 35.1125 35.9588 35.4182C35.7187 36.2086 34.953 36.701 34.1453 36.5844ZM34.6819 35.7506C35.3581 35.4681 35.4269 34.5764 34.8009 34.2085C34.6632 34.1275 34.6032 34.114 34.3841 34.1147C34.1893 34.1152 34.0957 34.1329 33.9917 34.1883C33.5055 34.4479 33.3782 35.0886 33.7309 35.5006C33.9595 35.7677 34.3778 35.8777 34.6819 35.7506ZM2.00336 12.5574C1.94157 12.527 1.87247 12.4697 1.84982 12.4302C1.82607 12.3888 1.80141 12.1633 1.79156 11.8978L1.77451 11.4372L1.31388 11.4192C1.06054 11.4094 0.827318 11.3889 0.795606 11.3737C0.626234 11.2927 0.566891 10.9774 0.689831 10.8118C0.803347 10.6589 0.888505 10.6364 1.35654 10.6359L1.79156 10.6354V9.70728L1.90757 9.59128C2.00576 9.49309 2.0476 9.47527 2.17999 9.47527C2.30455 9.47527 2.3591 9.49553 2.44784 9.57475L2.55926 9.67422L2.58144 10.6303L3.53751 10.6525L3.63698 10.7639C3.74681 10.8869 3.76981 11.0708 3.69569 11.2334C3.62505 11.3885 3.51077 11.4202 3.02163 11.4202H2.57637V11.867C2.57637 12.3695 2.54341 12.4713 2.35093 12.5626C2.21344 12.6279 2.14418 12.6268 2.00336 12.5574ZM16.9549 7.00213C16.0435 6.80382 15.465 5.8788 15.6965 4.98991C15.9272 4.10435 16.8313 3.56722 17.7071 3.79536C18.1485 3.91032 18.5702 4.2434 18.7676 4.63285C19.0382 5.16694 18.9956 5.81129 18.6555 6.32813C18.4336 6.66529 18.0572 6.91257 17.6274 7.00368C17.3542 7.06159 17.2268 7.06126 16.9549 7.00213ZM17.614 6.18164C17.9439 6.04379 18.1431 5.75134 18.1446 5.40245C18.1456 5.16034 18.0866 5.00113 17.9293 4.82194C17.7549 4.62332 17.5799 4.54696 17.2991 4.54696C17.0157 4.54696 16.8478 4.62145 16.6584 4.83108C16.2656 5.26591 16.4269 5.94129 16.9812 6.18203C17.1309 6.24707 17.4579 6.24687 17.614 6.18164ZM34.8571 4.10072C34.6677 3.99911 34.633 3.89952 34.6208 3.42314L34.6096 2.98196H34.2188C33.7851 2.98196 33.6473 2.94438 33.5289 2.79382C33.4128 2.64625 33.4289 2.46348 33.5716 2.30759L33.6883 2.18013L34.6084 2.1579L34.632 1.23652L34.7595 1.11975C34.9154 0.976927 35.0981 0.960844 35.2457 1.07696C35.3963 1.19541 35.4338 1.33313 35.4338 1.76696V2.15779L36.354 2.18017L36.4654 2.29172C36.5608 2.38716 36.5769 2.42728 36.5769 2.56963C36.5769 2.88679 36.4038 2.98199 35.8273 2.98199H35.4338V3.37546C35.4338 3.79081 35.3984 3.93728 35.2706 4.05113C35.1805 4.13136 34.9629 4.15744 34.8571 4.10072Z" stroke="white" stroke-width="0.3"/>
<path d="M24.6559 32.9419C22.7501 32.6035 21.2468 31.743 20.8636 29.2486C20.7796 28.7017 20.7771 27.6675 20.8586 27.1182C20.9739 26.3395 21.2604 25.3916 21.4396 25.1959C21.7024 24.9088 22.1514 25.112 22.1513 25.5179C22.1513 25.5964 22.0912 25.8262 22.0177 26.0285C21.789 26.6584 21.6965 27.1729 21.6729 27.947C21.6565 28.4822 21.6658 28.7208 21.7162 29.0649C21.9819 30.8767 22.9638 31.3165 24.2803 31.8247C24.6059 31.9503 24.7002 31.9676 25.1495 31.984C25.5761 31.9996 25.7014 31.9884 25.9649 31.913C26.3344 31.8069 26.8139 31.5535 27.126 31.2994C27.4245 31.0564 27.888 30.4981 28.0969 30.1299C28.4107 29.5766 28.6137 29.5719 29.0824 30.107C29.4318 30.506 29.6739 30.6622 30.0541 30.7341C31.2497 30.96 32.3007 29.4429 32.0729 27.8199C32.0093 27.3668 32.0324 27.2248 32.1953 27.0685C32.3293 26.94 32.4212 26.9402 32.9287 27.0698C33.3021 27.1654 33.9181 27.136 34.2814 27.0051C34.8233 26.81 35.2664 26.4901 35.6938 25.9857C36.4372 25.1082 36.8232 23.9469 36.8227 22.5895C36.8224 21.9447 36.7541 21.45 36.5936 20.9336C36.4599 20.5032 36.4253 20.2476 36.484 20.1226C36.5067 20.0742 36.6458 19.9323 36.7931 19.8074C37.5755 19.1442 38.0097 18.244 38.1164 17.0637C38.222 15.8971 37.8798 14.7129 37.2092 13.9245C36.7628 13.3996 36.3274 13.1479 35.675 13.0374C35.3591 12.9839 35.3078 12.9628 35.218 12.8496L35.1169 12.722L35.1387 11.9293C35.1559 11.3001 35.1478 11.0492 35.0992 10.7139C34.7777 8.49348 33.3856 6.87022 31.7204 6.7741C31.231 6.74588 30.9362 6.79862 30.459 6.99984C29.8463 7.25816 29.6906 7.17714 29.5377 6.52049C29.3071 5.53059 28.7224 4.66081 28.0234 4.26786C26.3306 3.3162 24.476 4.84982 24.31 7.33859C24.2777 7.82303 24.1903 7.99208 23.9427 8.04876C23.857 8.06839 23.7481 8.02512 23.4459 7.85129L23.0589 7.62867H22.6643C22.2832 7.62867 22.2601 7.63432 21.9893 7.78674C20.7201 8.50202 20.4496 10.7708 21.4893 11.9793C21.7292 12.2582 22.0585 12.48 22.3129 12.5342C22.5178 12.5779 22.6998 12.7918 22.6998 12.989C22.6998 13.2106 22.642 13.3451 22.5061 13.4396C22.3436 13.5525 22.2189 13.5456 21.8611 13.4035C20.9588 13.0453 20.2613 12.0696 20.0486 10.8681C19.9707 10.4284 19.9894 9.49424 20.0836 9.11043C20.3854 7.88175 21.1243 6.98365 22.0697 6.69638C22.3816 6.60161 22.9385 6.59987 23.2425 6.69261C23.3677 6.73087 23.4784 6.76215 23.4885 6.76215C23.4985 6.76215 23.5184 6.67315 23.5327 6.56437C23.5981 6.06671 23.8905 5.26622 24.1918 4.7599C24.5154 4.21615 25.0691 3.65862 25.572 3.37044C26.155 3.03631 26.9515 2.91458 27.5942 3.0614C28.2625 3.21403 28.7655 3.53614 29.3151 4.16332C29.7582 4.66887 30.0149 5.10701 30.2106 5.69144C30.2898 5.92795 30.3283 5.99654 30.3709 5.97682C30.4018 5.96252 30.5771 5.91492 30.7605 5.87104C31.1785 5.77105 31.8741 5.76421 32.2982 5.85592C34.0549 6.23593 35.505 8.01104 35.909 10.2759C35.9902 10.7312 36.0496 11.557 36.0216 11.8415L35.998 12.0819L36.1588 12.1282C36.812 12.3164 37.3223 12.6514 37.8022 13.2071C39.0019 14.5965 39.3371 16.7855 38.6408 18.6833C38.4404 19.2293 38.1707 19.6811 37.7744 20.1344L37.4082 20.5533L37.5023 20.9374C37.9289 22.6782 37.6555 24.5941 36.7731 26.0484C36.5188 26.4675 36.0309 27.0298 35.6848 27.3027C35.3321 27.5807 34.7969 27.8711 34.4296 27.9837C34.2074 28.0519 33.9882 28.0795 33.5548 28.0939L32.9764 28.1132L32.9539 28.5209C32.8687 30.064 32.0339 31.3157 30.8619 31.6575C30.1823 31.8557 29.3911 31.6736 28.8289 31.1896L28.6347 31.0224L28.2152 31.5029C27.472 32.3543 26.7599 32.7819 25.8129 32.9456C25.3889 33.019 25.0861 33.0185 24.6559 32.9419Z" stroke="white" stroke-width="0.3"/>
</g>
<defs>
<clipPath id="clip0">
<rect width="40" height="40" fill="white"/>
</clipPath>
</defs>
</svg>
