<svg width="40" height="40" viewBox="0 0 40 40" fill="none" xmlns="http://www.w3.org/2000/svg">
<g clip-path="url(#clip0)">
<path d="M2.97468 36.2075C2.96992 36.1932 2.92252 36.1781 2.86932 36.174C2.81612 36.1698 2.76232 36.1501 2.74977 36.1303C2.73721 36.1104 2.72678 36.1031 2.72656 36.1138C2.72636 36.1246 2.69488 36.1177 2.65663 36.0983C2.61837 36.079 2.57286 36.0683 2.55548 36.0745C2.5381 36.0807 2.51699 36.0678 2.50857 36.0459C2.50014 36.0239 2.4838 36.0118 2.47225 36.019C2.46069 36.0261 2.42438 36.0061 2.39155 35.9746C2.35873 35.943 2.31647 35.9138 2.29765 35.9096C2.24533 35.898 1.79041 35.428 1.79041 35.3855C1.79041 35.3649 1.77902 35.3481 1.76512 35.3481C1.7512 35.3481 1.73983 35.3254 1.73983 35.2976C1.73983 35.2697 1.72844 35.247 1.71454 35.247C1.70062 35.247 1.68925 35.2242 1.68925 35.1964C1.68925 35.1686 1.67786 35.1458 1.66396 35.1458C1.65004 35.1458 1.63867 35.123 1.63867 35.0952C1.63867 35.0674 1.62727 35.0446 1.61337 35.0446C1.59946 35.0446 1.58808 35.0154 1.58808 34.9796C1.58808 34.8465 1.56719 34.8423 0.898275 34.8423C0.180804 34.8423 0.161167 34.8375 0.0624938 34.6395L0.000214052 34.5146L1.83409e-06 33.0598C-0.000150901 32.2114 0.00925078 31.6051 0.0225621 31.6051C0.0351203 31.6051 0.0453875 31.5762 0.0453875 31.541C0.0453875 31.4556 0.199385 31.3016 0.28481 31.3016C0.320048 31.3016 0.348881 31.2902 0.348881 31.2763C0.348881 31.2602 0.555423 31.251 0.917927 31.251H1.48697V30.1761C1.48697 29.4764 1.4958 29.1013 1.51226 29.1013C1.52671 29.1013 1.53756 29.0254 1.53756 28.9242C1.53756 28.8231 1.5484 28.7472 1.56285 28.7472C1.57748 28.7472 1.58814 28.6666 1.58814 28.556C1.58814 28.435 1.59743 28.3706 1.61343 28.3805C1.62887 28.39 1.63872 28.3512 1.63872 28.2808C1.63872 28.2174 1.65011 28.1655 1.66401 28.1655C1.67793 28.1655 1.6893 28.1206 1.6893 28.0658C1.6893 28.011 1.70069 27.9591 1.71459 27.9505C1.72851 27.9419 1.73988 27.8964 1.73988 27.8494C1.73988 27.8023 1.75127 27.7568 1.76517 27.7482C1.77909 27.7396 1.79046 27.7055 1.79046 27.6723C1.79046 27.6392 1.80186 27.605 1.81576 27.5965C1.82967 27.5879 1.84105 27.5537 1.84105 27.5206C1.84105 27.4874 1.85244 27.4533 1.86634 27.4447C1.88025 27.4361 1.89163 27.402 1.89163 27.3688C1.89163 27.3357 1.90302 27.3016 1.91692 27.293C1.93084 27.2844 1.94221 27.2564 1.94221 27.2308C1.94221 27.2052 1.97635 27.1194 2.01808 27.0401C2.05981 26.9607 2.09396 26.8821 2.09396 26.8653C2.09396 26.8264 2.25402 26.5073 2.30194 26.4506C2.32188 26.4271 2.36855 26.3441 2.40565 26.2664C2.44276 26.1886 2.49565 26.1046 2.5232 26.0796C2.55075 26.0547 2.56664 26.0235 2.5585 26.0104C2.55035 25.9972 2.56771 25.9696 2.59703 25.9491C2.62636 25.9286 2.65036 25.8967 2.65036 25.8783C2.65036 25.86 2.66731 25.8309 2.68802 25.8137C2.70872 25.7965 2.72055 25.7741 2.71429 25.764C2.70803 25.7539 2.7423 25.7074 2.79044 25.6607C2.83858 25.6141 2.87798 25.5634 2.87798 25.5481C2.87798 25.5327 2.9235 25.4758 2.97914 25.4214C3.03478 25.3671 3.0803 25.3105 3.0803 25.2956C3.0803 25.2807 3.17135 25.178 3.28263 25.0674C3.39391 24.9567 3.48496 24.8514 3.48496 24.8332C3.48496 24.8151 3.50197 24.7937 3.52275 24.7857C3.54354 24.7777 3.55425 24.761 3.54655 24.7486C3.53885 24.7361 3.55079 24.7259 3.57307 24.7259C3.59535 24.7259 3.70365 24.6349 3.81374 24.5236C3.93765 24.3984 4.03416 24.3213 4.06706 24.3213C4.0963 24.3213 4.11318 24.3099 4.10459 24.296C4.096 24.2821 4.1086 24.2707 4.1326 24.2707C4.15661 24.2707 4.1692 24.2636 4.16059 24.255C4.14099 24.2354 4.20481 24.1695 4.24337 24.1695C4.25909 24.1695 4.26493 24.1581 4.25633 24.1442C4.24774 24.1303 4.25958 24.1189 4.28263 24.1189C4.30569 24.1189 4.35645 24.0848 4.39544 24.0431C4.43442 24.0013 4.4902 23.9672 4.51939 23.9672C4.54859 23.9672 4.57247 23.9558 4.57247 23.9419C4.57247 23.928 4.58741 23.9166 4.60564 23.9166C4.62388 23.9166 4.66324 23.8939 4.6931 23.866C4.72296 23.8382 4.76076 23.8155 4.7771 23.8155C4.79343 23.8155 4.82521 23.7944 4.84771 23.7686C4.89331 23.7164 5.053 23.6275 5.053 23.6543C5.053 23.6637 5.07364 23.6476 5.09886 23.6186C5.12409 23.5895 5.1608 23.5621 5.18046 23.5578C5.2001 23.5534 5.2316 23.5356 5.25044 23.5181C5.26928 23.5005 5.29516 23.4927 5.30795 23.5006C5.32074 23.5085 5.3312 23.5043 5.3312 23.4912C5.3312 23.467 5.47331 23.3983 5.48999 23.4145C5.49506 23.4194 5.51814 23.4045 5.54128 23.3814C5.56442 23.3582 5.60344 23.3424 5.628 23.3462C5.65254 23.35 5.67832 23.3451 5.68527 23.3352C5.71093 23.2989 5.94154 23.1832 5.98817 23.1832C6.01468 23.1832 6.0434 23.1718 6.05199 23.1579C6.06058 23.144 6.09473 23.1326 6.12787 23.1326C6.161 23.1326 6.19514 23.1212 6.20374 23.1073C6.21233 23.0934 6.24648 23.082 6.27961 23.082C6.31275 23.082 6.34689 23.0706 6.35548 23.0567C6.36408 23.0428 6.39822 23.0315 6.43136 23.0315C6.46449 23.0315 6.49863 23.0201 6.50723 23.0062C6.51582 22.9922 6.54997 22.9809 6.5831 22.9809C6.61624 22.9809 6.65038 22.9695 6.65898 22.9556C6.66757 22.9417 6.73084 22.9303 6.79957 22.9303C6.8683 22.9303 6.92453 22.9189 6.92453 22.905C6.92453 22.8911 6.97006 22.8797 7.0257 22.8797C7.08134 22.8797 7.12686 22.8683 7.12686 22.8544C7.12686 22.8405 7.15249 22.8291 7.18382 22.8291H7.24077L7.2407 18.7804C7.24065 16.0297 7.24899 14.7248 7.26672 14.7101C7.28106 14.6982 7.29136 14.6223 7.28959 14.5415C7.2879 14.4607 7.29886 14.3786 7.3141 14.3591C7.32936 14.3396 7.342 14.2827 7.34221 14.2326C7.34241 14.1826 7.3535 14.1246 7.36679 14.1037C7.38009 14.0829 7.39211 14.0279 7.39349 13.9816C7.39497 13.9353 7.4074 13.8897 7.42135 13.8804C7.43531 13.8711 7.44474 13.8313 7.44233 13.7919C7.43991 13.7526 7.45045 13.7068 7.46575 13.6902C7.48105 13.6735 7.49733 13.6433 7.50192 13.6229C7.50652 13.6024 7.51912 13.58 7.52995 13.5729C7.54077 13.5658 7.54654 13.5399 7.54274 13.5154C7.53897 13.4908 7.55017 13.4564 7.56763 13.4389C7.5851 13.4215 7.59648 13.3873 7.59292 13.3631C7.58935 13.3388 7.59968 13.3046 7.61587 13.2871C7.63206 13.2696 7.649 13.2385 7.65353 13.218C7.65804 13.1974 7.67234 13.1768 7.6853 13.1721C7.69826 13.1675 7.70299 13.1542 7.69582 13.1426C7.68865 13.131 7.69817 13.1061 7.71697 13.0873C7.73576 13.0685 7.74823 13.0333 7.74467 13.009C7.74111 12.9847 7.75428 12.9488 7.77395 12.9291C7.79362 12.9095 7.80971 12.8755 7.80971 12.8536C7.80971 12.8318 7.8211 12.8139 7.835 12.8139C7.84891 12.8139 7.86029 12.7936 7.86029 12.7689C7.86029 12.7442 7.88305 12.7075 7.91087 12.6874C7.93869 12.6674 7.96145 12.6363 7.96145 12.6183C7.96145 12.5745 8.01446 12.4825 8.06894 12.4318C8.09328 12.4092 8.1132 12.3721 8.1132 12.3494C8.1132 12.3267 8.12266 12.3081 8.13422 12.3081C8.14578 12.3081 8.17139 12.2768 8.19113 12.2385C8.21085 12.2003 8.25831 12.1388 8.29656 12.1019C8.33482 12.0651 8.36611 12.0161 8.36611 11.993C8.36611 11.97 8.4344 11.8842 8.51786 11.8023C8.60132 11.7203 8.66961 11.6349 8.66961 11.6125C8.66961 11.59 8.681 11.5787 8.6949 11.5873C8.70881 11.5959 8.72019 11.59 8.72019 11.5743C8.72019 11.5358 8.7861 11.4719 8.8057 11.4915C8.81431 11.5002 8.82135 11.493 8.82135 11.4759C8.82135 11.4352 8.88654 11.3701 8.90686 11.3904C8.91547 11.399 8.92251 11.3871 8.92251 11.3639C8.92251 11.3407 8.94033 11.3217 8.96209 11.3217C8.98386 11.3217 9.0571 11.2648 9.12484 11.1953C9.19258 11.1257 9.26369 11.0688 9.28286 11.0688C9.30204 11.0688 9.35042 11.0347 9.3904 10.993C9.43038 10.9512 9.47605 10.9171 9.49188 10.9171C9.50773 10.9171 9.54827 10.8876 9.58199 10.8517C9.61572 10.8157 9.69098 10.7645 9.74926 10.7379C9.80753 10.7113 9.86154 10.6794 9.86926 10.6669C9.87699 10.6544 9.92806 10.6208 9.98275 10.5923C10.0374 10.5638 10.1029 10.5293 10.1283 10.5156C10.1537 10.502 10.1915 10.4858 10.2124 10.4796C10.2457 10.4696 10.2495 10.2391 10.2436 8.56824L10.237 6.6682H9.94523C9.62278 6.6682 9.55523 6.6476 9.444 6.51542L9.37776 6.4367L9.37786 5.3448C9.37796 4.30713 9.38041 4.2489 9.42724 4.17209C9.45434 4.12764 9.50786 4.07073 9.54616 4.04563C9.61304 4.00181 10.0968 4 21.745 4C33.3933 4 33.877 4.0017 33.9439 4.04563C33.9822 4.07073 34.0357 4.12764 34.0629 4.17209C34.1097 4.2489 34.1121 4.30713 34.1122 5.3448V6.4367L34.046 6.51542C33.9348 6.64763 33.8673 6.6682 33.5445 6.6682H33.2524V13.2818C33.2524 16.9193 33.2588 19.8954 33.2665 19.8954C33.2742 19.8954 33.3882 19.832 33.5199 19.7545C33.9545 19.4987 34.4996 19.3039 35.0481 19.2085C35.3318 19.1591 36.1162 19.1659 36.4138 19.2203C37.3191 19.3858 38.1113 19.7962 38.7411 20.426C39.5215 21.2064 39.9565 22.2096 39.997 23.3223C40.0375 24.4364 39.6665 25.4747 38.9222 26.3294C38.3562 26.9795 37.485 27.4941 36.6449 27.6747L36.4404 27.7186L36.4326 29.4658C36.4283 30.4268 36.4153 31.2387 36.4037 31.27L36.3826 31.3269H37.3087H38.2347V31.7442V32.1615H35.4945H32.7543L32.8149 32.2839C32.8482 32.3512 32.8919 32.4679 32.9119 32.5431C32.9612 32.7283 32.9592 33.1039 32.9081 33.276C32.7637 33.7626 32.3719 34.1491 31.898 34.2726C31.767 34.3067 31.0729 34.3112 25.9633 34.3112C20.8368 34.3112 20.177 34.3155 20.177 34.3492C20.177 34.37 20.1884 34.3871 20.2023 34.3871C20.2162 34.3871 20.2276 34.4162 20.2276 34.4518C20.2276 34.4885 20.2385 34.5098 20.2528 34.5009C20.2668 34.4923 20.2781 34.5087 20.2781 34.5373C20.2781 34.566 20.2895 34.5894 20.3034 34.5894C20.3173 34.5894 20.3287 34.6185 20.3287 34.6541C20.3287 34.6908 20.3397 34.7121 20.354 34.7032C20.3679 34.6946 20.3793 34.7104 20.3793 34.7382C20.3793 34.766 20.3907 34.7958 20.4046 34.8044C20.4185 34.813 20.4299 34.8421 20.4299 34.8691C20.4299 34.8961 20.4413 34.9182 20.4552 34.9182C20.4691 34.9182 20.4805 34.941 20.4805 34.9688C20.4805 34.9966 20.4918 35.0194 20.5058 35.0194C20.5197 35.0194 20.5311 35.0471 20.5311 35.0811C20.5311 35.1151 20.5424 35.1499 20.5563 35.1585C20.5703 35.1671 20.5816 35.1962 20.5816 35.2232C20.5816 35.2502 20.593 35.2723 20.6069 35.2723C20.6208 35.2723 20.6322 35.295 20.6322 35.3229C20.6322 35.3507 20.6436 35.3734 20.6575 35.3734C20.6714 35.3734 20.6828 35.3962 20.6828 35.424C20.6828 35.4518 20.6942 35.4746 20.7081 35.4746C20.722 35.4746 20.7334 35.4974 20.7334 35.5252C20.7334 35.553 20.7448 35.5758 20.7587 35.5758C20.7726 35.5758 20.784 35.6099 20.784 35.6516C20.784 35.6934 20.7954 35.7275 20.8093 35.7275C20.8232 35.7275 20.8345 35.773 20.8345 35.8287C20.8345 35.8843 20.8232 35.9298 20.8093 35.9298C20.7953 35.9298 20.784 35.9587 20.784 35.9939C20.784 36.0333 20.7502 36.0918 20.6963 36.1457L20.6086 36.2333H16.7269C13.6491 36.2333 12.8409 36.2268 12.8249 36.2017C12.8138 36.1843 12.7878 36.1701 12.7671 36.1701C12.729 36.1701 12.635 36.0098 12.6188 35.9172C12.6139 35.8894 12.6003 35.8606 12.5886 35.8533C12.5629 35.8374 12.5694 35.7797 12.6027 35.7275C12.616 35.7066 12.6271 35.6714 12.6273 35.6492C12.6275 35.627 12.6433 35.59 12.6624 35.567C12.6815 35.544 12.6882 35.5252 12.6774 35.5252C12.6666 35.5252 12.6746 35.5053 12.6952 35.4809C12.7158 35.4566 12.7984 35.3029 12.8787 35.1394C12.9591 34.9759 13.0352 34.8357 13.0479 34.8278C13.0607 34.82 13.065 34.8037 13.0576 34.7917C13.0502 34.7798 13.0557 34.7628 13.0698 34.7541C13.084 34.7453 13.0955 34.7189 13.0955 34.6953C13.0955 34.6313 13.2596 34.3055 13.3188 34.2519C13.3471 34.2263 13.3653 34.1921 13.3591 34.176C13.3459 34.1417 13.6576 33.8307 13.705 33.8307C13.7227 33.8307 13.7618 33.8076 13.7919 33.7793C13.8562 33.7189 14.0913 33.6284 14.184 33.6284C14.2196 33.6284 14.263 33.6141 14.2804 33.5968C14.3037 33.5734 14.453 33.5651 14.8482 33.5651H15.3844L15.3911 32.8476L15.3978 32.1301L14.2724 32.1403C13.46 32.1476 13.1388 32.1587 13.1175 32.18C13.1013 32.1962 13.0868 32.2608 13.0853 32.3234C13.0839 32.3861 13.0685 32.4515 13.0512 32.4689C13.0339 32.4862 13.0197 32.5487 13.0197 32.6077C13.0197 32.6666 13.0083 32.7219 12.9944 32.7305C12.9805 32.7391 12.9691 32.7733 12.9691 32.8064C12.9691 32.8395 12.9577 32.8737 12.9438 32.8823C12.9299 32.8909 12.9185 32.9368 12.9185 32.9843C12.9185 33.0319 12.8958 33.108 12.868 33.1536C12.8403 33.1991 12.8175 33.2559 12.8174 33.2799C12.8174 33.3038 12.7946 33.3639 12.7668 33.4134C12.7389 33.4629 12.7162 33.5179 12.7162 33.5357C12.7162 33.583 12.5932 33.8216 12.5506 33.857C12.5304 33.8738 12.5139 33.9035 12.5139 33.9231C12.5139 33.9427 12.4968 33.9653 12.4761 33.9732C12.4553 33.9812 12.4447 33.9981 12.4525 34.0107C12.4663 34.033 12.4024 34.1301 12.2976 34.2461C12.2691 34.2776 12.25 34.3162 12.2551 34.3317C12.2603 34.3472 12.2236 34.4008 12.1736 34.4508C12.1236 34.5008 12.0893 34.5525 12.0974 34.5656C12.1056 34.5787 12.0938 34.5894 12.0713 34.5894C12.0488 34.5894 12.0374 34.6008 12.046 34.6147C12.0546 34.6286 12.0432 34.64 12.0207 34.64C11.9982 34.64 11.9868 34.6514 11.9954 34.6653C12.004 34.6792 11.9926 34.6906 11.9701 34.6906C11.9476 34.6906 11.9362 34.702 11.9448 34.7159C11.9534 34.7298 11.942 34.7412 11.9195 34.7412C11.897 34.7412 11.8856 34.7526 11.8942 34.7665C11.9028 34.7804 11.8915 34.7918 11.8689 34.7918C11.8464 34.7918 11.8351 34.8031 11.8436 34.817C11.8522 34.831 11.8409 34.8423 11.8184 34.8423C11.7959 34.8423 11.7845 34.8537 11.7931 34.8676C11.8017 34.8815 11.7903 34.8929 11.7678 34.8929C11.7453 34.8929 11.7339 34.9043 11.7425 34.9182C11.7511 34.9321 11.7397 34.9435 11.7172 34.9435C11.6947 34.9435 11.6833 34.9549 11.6919 34.9688C11.7005 34.9827 11.6891 34.9941 11.6666 34.9941C11.6441 34.9941 11.6327 35.0055 11.6413 35.0194C11.6499 35.0333 11.6385 35.0447 11.616 35.0447C11.5935 35.0447 11.5821 35.0561 11.5907 35.07C11.5993 35.0839 11.5912 35.0952 11.5725 35.0952C11.5539 35.0952 11.5223 35.118 11.5022 35.1458C11.4822 35.1736 11.4533 35.1964 11.4381 35.1964C11.4229 35.1964 11.3778 35.2306 11.3378 35.2723C11.2978 35.314 11.2491 35.3482 11.2294 35.3482C11.2098 35.3482 11.1618 35.3823 11.1228 35.424C11.0839 35.4658 11.0338 35.4999 11.0115 35.4999C10.9893 35.4999 10.9711 35.5113 10.9711 35.5252C10.9711 35.5391 10.9525 35.5505 10.9298 35.5505C10.9071 35.5505 10.8701 35.5716 10.8476 35.5973C10.7996 35.6523 10.6425 35.7377 10.6419 35.7092C10.6417 35.6984 10.6332 35.7022 10.623 35.7177C10.598 35.7553 10.4401 35.8352 10.4396 35.8104C10.4394 35.7996 10.4309 35.8034 10.4206 35.8188C10.3959 35.8562 10.2601 35.921 10.2124 35.9182C10.1915 35.917 10.1604 35.9295 10.1432 35.946C10.126 35.9625 10.0921 35.9731 10.0679 35.9696C10.0436 35.966 10.0092 35.9777 9.99132 35.9955C9.97348 36.0134 9.93715 36.0238 9.91059 36.0187C9.88396 36.0136 9.85574 36.0265 9.84765 36.0476C9.83959 36.0686 9.81877 36.0807 9.80139 36.0745C9.78402 36.0683 9.74134 36.0766 9.70656 36.093C9.67179 36.1094 9.61488 36.1213 9.58011 36.1196C9.54533 36.1179 9.49981 36.1299 9.47894 36.1466C9.45807 36.1632 9.38464 36.1765 9.31576 36.1762C9.24376 36.1757 9.18641 36.1878 9.18087 36.2044C9.16793 36.2432 2.98761 36.2463 2.97468 36.2075ZM5.68522 35.3473C5.68522 35.3131 5.51765 35.1458 5.48341 35.1458C5.44818 35.1458 4.97707 34.6737 4.97707 34.6383C4.97707 34.6231 4.93155 34.567 4.87591 34.5135C4.82027 34.4601 4.77474 34.4025 4.77474 34.3855C4.77474 34.3685 4.7406 34.322 4.69887 34.2821C4.65714 34.2422 4.623 34.1926 4.623 34.1719C4.623 34.1511 4.61161 34.1342 4.59771 34.1342C4.58379 34.1342 4.57242 34.1134 4.57242 34.088C4.57242 34.0626 4.54401 34.0151 4.50929 33.9825C4.47457 33.9499 4.45183 33.9175 4.45876 33.9106C4.4657 33.9037 4.4525 33.8772 4.42945 33.8517C4.4064 33.8262 4.39676 33.8054 4.40803 33.8054C4.41929 33.8054 4.4079 33.7826 4.38274 33.7548C4.35756 33.727 4.34618 33.7042 4.35744 33.7042C4.36871 33.7042 4.35732 33.6815 4.33215 33.6536C4.30698 33.6258 4.2956 33.6031 4.30686 33.6031C4.31813 33.6031 4.30674 33.5803 4.28157 33.5525C4.25639 33.5247 4.24501 33.5019 4.25628 33.5019C4.26754 33.5019 4.25615 33.4791 4.23099 33.4513C4.20581 33.4235 4.19443 33.4007 4.2057 33.4007C4.21696 33.4007 4.20909 33.3808 4.1882 33.3565C4.1673 33.3321 4.15238 33.2815 4.15501 33.244C4.15764 33.2065 4.14788 33.178 4.13331 33.1808C4.11874 33.1835 4.10631 33.1619 4.10567 33.1327C4.10504 33.1036 4.09208 33.0638 4.07686 33.0442C4.06165 33.0247 4.05133 32.978 4.05392 32.9405C4.05651 32.903 4.04671 32.8745 4.03215 32.8773C4.01757 32.88 4.00514 32.847 4.00451 32.804C4.00387 32.7609 3.98983 32.7093 3.97329 32.6894C3.95675 32.6695 3.9464 32.6137 3.95027 32.5654C3.95415 32.5171 3.94397 32.4549 3.92766 32.427C3.91135 32.3992 3.89933 32.3025 3.90095 32.2121C3.90264 32.1216 3.89212 32.0396 3.87775 32.0296C3.83884 32.0028 3.83733 31.1226 3.87606 31.0838C3.89262 31.0672 3.90435 30.9959 3.9022 30.9248C3.89969 30.8422 3.90875 30.7958 3.92733 30.7958C3.946 30.7958 3.95451 30.7509 3.95115 30.67C3.94799 30.5937 3.95847 30.5338 3.97779 30.5177C3.99531 30.5032 4.00679 30.4576 4.00328 30.4164C3.99978 30.3752 4.01177 30.3292 4.02994 30.3141C4.04812 30.299 4.05888 30.2654 4.05386 30.2394C4.04886 30.2133 4.06023 30.1792 4.07915 30.1635C4.09808 30.1478 4.10946 30.1136 4.10445 30.0876C4.09944 30.0616 4.11081 30.0275 4.12974 30.0117C4.14866 29.9961 4.16004 29.9619 4.15503 29.9359C4.15002 29.9099 4.16207 29.8752 4.18181 29.8588C4.20156 29.8424 4.21141 29.8188 4.20373 29.8064C4.19605 29.7939 4.20748 29.777 4.22915 29.7687C4.25082 29.7603 4.26282 29.7443 4.25581 29.7329C4.24881 29.7216 4.2573 29.6969 4.27493 29.6781C4.29245 29.6592 4.31053 29.6271 4.31512 29.6067C4.31971 29.5863 4.33233 29.5638 4.34316 29.5568C4.35398 29.5497 4.3597 29.5235 4.35586 29.4987C4.35202 29.4738 4.37355 29.4278 4.4037 29.3963C4.43385 29.3649 4.46221 29.3227 4.46673 29.3025C4.47125 29.2822 4.48548 29.2619 4.49834 29.2572C4.51122 29.2526 4.52174 29.2295 4.52174 29.2059C4.52174 29.1823 4.5445 29.1466 4.57232 29.1266C4.60014 29.1065 4.6229 29.07 4.6229 29.0453C4.6229 29.0207 4.64566 28.9863 4.67348 28.969C4.7013 28.9516 4.72406 28.9219 4.72406 28.903C4.72406 28.8841 4.75821 28.8368 4.79994 28.7978C4.84167 28.7588 4.87581 28.7138 4.87581 28.6977C4.87581 28.6817 4.9441 28.6015 5.02755 28.5196C5.11102 28.4377 5.1793 28.358 5.1793 28.3425C5.1793 28.3269 5.19069 28.3213 5.20459 28.3299C5.21851 28.3385 5.22989 28.3271 5.22989 28.3046C5.22989 28.2821 5.24128 28.2707 5.25518 28.2793C5.26909 28.2879 5.28047 28.2765 5.28047 28.254C5.28047 28.2315 5.29186 28.2201 5.30576 28.2287C5.31967 28.2373 5.33105 28.226 5.33105 28.2034C5.33105 28.1809 5.34244 28.1696 5.35634 28.1782C5.37025 28.1867 5.38163 28.1754 5.38163 28.1529C5.38163 28.1304 5.39302 28.119 5.40692 28.1276C5.42084 28.1362 5.43221 28.1248 5.43221 28.1023C5.43221 28.0798 5.4436 28.0684 5.4575 28.077C5.47142 28.0856 5.48279 28.0742 5.48279 28.0517C5.48279 28.0292 5.49416 28.0178 5.50809 28.0264C5.522 28.035 5.53338 28.0236 5.53338 28.0011C5.53338 27.9786 5.54379 27.9666 5.55653 27.9745C5.56925 27.9824 5.61526 27.9589 5.65876 27.9223C5.70225 27.8857 5.74393 27.8618 5.75136 27.8692C5.75881 27.8767 5.79806 27.8481 5.83859 27.8056C5.91552 27.7251 6.03804 27.6501 6.05874 27.6708C6.06536 27.6774 6.08927 27.6609 6.11188 27.634C6.15505 27.5828 6.68623 27.3057 6.74136 27.3056C6.75895 27.3056 6.79308 27.2956 6.81723 27.2833C6.84139 27.271 6.8896 27.2496 6.92438 27.2358C6.95915 27.222 7.01944 27.1979 7.05835 27.1823C7.09725 27.1667 7.15633 27.1539 7.18963 27.1539C7.22293 27.1539 7.25721 27.1425 7.26581 27.1286C7.2744 27.1147 7.32562 27.1033 7.37962 27.1033C7.43361 27.1033 7.48483 27.0919 7.49342 27.078C7.50202 27.0641 7.57134 27.0527 7.64746 27.0527C7.74175 27.0527 7.79012 27.0416 7.79924 27.0178C7.80944 26.9912 7.86984 26.9837 8.05352 26.9862C8.19559 26.9881 8.30349 26.9785 8.31653 26.9628C8.34254 26.9315 8.53147 26.9339 8.61098 26.9667C8.64142 26.9792 8.77489 26.988 8.90759 26.9862C9.08501 26.9838 9.15652 26.9922 9.17781 27.0178C9.19578 27.0395 9.25779 27.0527 9.34127 27.0527C9.41525 27.0527 9.48281 27.0641 9.49141 27.078C9.5 27.0919 9.54553 27.1033 9.59257 27.1033C9.63962 27.1033 9.68514 27.1147 9.69374 27.1286C9.70233 27.1425 9.74284 27.1539 9.78375 27.1539C9.82466 27.1539 9.85813 27.1652 9.85813 27.1791C9.85813 27.1931 9.90298 27.2044 9.9578 27.2044C10.0126 27.2044 10.0645 27.2158 10.0731 27.2297C10.0817 27.2436 10.108 27.2549 10.1315 27.2548C10.155 27.2547 10.2683 27.3019 10.3833 27.3598C10.4982 27.4177 10.6002 27.4572 10.6098 27.4476C10.6194 27.4379 10.6278 26.7126 10.6284 25.8356C10.6292 24.6595 10.6219 24.2347 10.6003 24.2168C10.5842 24.2035 10.5743 24.1732 10.5782 24.1494C10.5821 24.1257 10.5682 24.0868 10.5474 24.063C10.5266 24.0392 10.5165 24.0016 10.525 23.9795C10.5335 23.9574 10.5307 23.9453 10.5188 23.9526C10.4939 23.968 10.4173 23.8912 10.4198 23.8534C10.4207 23.8395 10.3984 23.8163 10.3701 23.8018C10.3419 23.7874 10.3 23.76 10.2771 23.7409C10.2541 23.7219 10.1827 23.6797 10.1183 23.6471L10.0013 23.5878H8.94337C8.25494 23.5878 7.88544 23.5967 7.88544 23.6131C7.88544 23.6276 7.80956 23.6384 7.7084 23.6384C7.60724 23.6384 7.53136 23.6493 7.53136 23.6637C7.53136 23.6778 7.46392 23.689 7.37962 23.689C7.29532 23.689 7.22787 23.7003 7.22787 23.7143C7.22787 23.7282 7.19373 23.7396 7.152 23.7396C7.11027 23.7396 7.07613 23.751 7.07613 23.7649C7.07613 23.7788 7.0306 23.7902 6.97496 23.7902C6.91932 23.7902 6.8738 23.8016 6.8738 23.8155C6.8738 23.8294 6.82895 23.8408 6.77413 23.8408C6.71931 23.8408 6.66742 23.8521 6.65883 23.866C6.65024 23.88 6.62145 23.8913 6.59488 23.8913C6.5683 23.8913 6.50603 23.9141 6.4565 23.9419C6.40697 23.9697 6.3447 23.9925 6.31812 23.9925C6.29155 23.9925 6.26277 24.0039 6.25417 24.0178C6.24558 24.0317 6.21215 24.0431 6.1799 24.0431C6.14765 24.0431 6.10687 24.0604 6.08927 24.0816C6.07167 24.1028 6.05129 24.1142 6.04397 24.1069C6.03665 24.0995 6.00982 24.1124 5.98435 24.1355C5.95887 24.1585 5.93803 24.1682 5.93803 24.1569C5.93803 24.1456 5.91527 24.157 5.88745 24.1822C5.85963 24.2074 5.83687 24.2187 5.83687 24.2075C5.83687 24.1962 5.81411 24.2076 5.78629 24.2328C5.75847 24.2579 5.73571 24.2693 5.73571 24.2581C5.73571 24.2468 5.71294 24.2582 5.68512 24.2833C5.6573 24.3085 5.63454 24.3199 5.63454 24.3086C5.63454 24.2974 5.61178 24.3088 5.58396 24.3339C5.55614 24.3591 5.53338 24.3701 5.53338 24.3584C5.53338 24.3467 5.49924 24.3698 5.4575 24.4098C5.41578 24.4498 5.38163 24.4729 5.38163 24.4612C5.38163 24.4495 5.35887 24.4606 5.33105 24.4857C5.30323 24.5109 5.28047 24.5222 5.28047 24.511C5.28047 24.4997 5.25964 24.5093 5.23416 24.5324C5.20869 24.5554 5.17929 24.5657 5.16882 24.5553C5.15836 24.5448 5.15359 24.5534 5.15824 24.5742C5.16288 24.5951 5.15395 24.6098 5.1384 24.6069C5.12285 24.6041 5.08389 24.6297 5.0518 24.6638C5.01971 24.698 4.98005 24.7259 4.96367 24.7259C4.9473 24.7259 4.89817 24.7601 4.8545 24.8018C4.81084 24.8436 4.76289 24.8777 4.74795 24.8777C4.73301 24.8777 4.66536 24.9346 4.59761 25.0041C4.52987 25.0737 4.46219 25.1306 4.44722 25.1306C4.41167 25.1306 3.88947 25.6528 3.88947 25.6884C3.88947 25.7033 3.83256 25.771 3.76301 25.8387C3.69346 25.9065 3.63656 25.9757 3.63656 25.9924C3.63656 26.0092 3.60526 26.0531 3.56701 26.09C3.52875 26.1269 3.48131 26.1879 3.46157 26.2255C3.44182 26.2632 3.41622 26.294 3.40466 26.294C3.3931 26.294 3.38318 26.3139 3.38262 26.3382C3.38198 26.3626 3.34791 26.4219 3.30674 26.4701C3.26558 26.5182 3.2319 26.5708 3.2319 26.5868C3.2319 26.6028 3.20654 26.6482 3.17555 26.6876C3.09786 26.7863 2.80195 27.3819 2.80195 27.4394C2.80195 27.4652 2.78589 27.5023 2.76627 27.522C2.74665 27.5416 2.73659 27.5806 2.74393 27.6087C2.75142 27.6374 2.74499 27.6597 2.72904 27.6597C2.71351 27.6597 2.70079 27.689 2.70079 27.7247C2.70079 27.7605 2.68361 27.8069 2.66263 27.8279C2.64162 27.8489 2.63092 27.8766 2.63883 27.8894C2.64674 27.9022 2.64114 27.9126 2.62642 27.9126C2.6117 27.9126 2.59963 27.9572 2.59963 28.0117C2.59963 28.0661 2.58682 28.115 2.57117 28.1202C2.55552 28.1254 2.54129 28.171 2.53956 28.2214C2.53786 28.2718 2.52787 28.3216 2.51744 28.332C2.507 28.3424 2.49847 28.3875 2.49847 28.4322C2.49847 28.4769 2.48333 28.526 2.46479 28.5413C2.44324 28.5592 2.43374 28.6122 2.43842 28.6886C2.44243 28.7542 2.43286 28.8234 2.41716 28.8423C2.40144 28.8612 2.3901 28.9496 2.39193 29.0387C2.39384 29.1277 2.3815 29.2271 2.36468 29.2596C2.3213 29.3432 2.32437 34.5013 2.36782 34.5448C2.38402 34.561 2.3973 34.6104 2.3973 34.6546C2.3973 34.6988 2.41459 34.7493 2.43571 34.7668C2.49277 34.8142 2.55637 34.9618 2.53477 34.9967C2.52389 35.0143 2.52658 35.0206 2.54114 35.0116C2.55499 35.0031 2.60408 35.035 2.65022 35.0826C2.69636 35.1302 2.74216 35.1642 2.75201 35.1581C2.76185 35.152 2.79035 35.1696 2.81532 35.1972C2.87027 35.2579 2.99532 35.3229 3.05727 35.3229C3.08213 35.3229 3.1095 35.3343 3.1181 35.3482C3.14009 35.3837 5.68522 35.3829 5.68522 35.3473ZM9.02363 35.3481C9.02363 35.3341 9.09057 35.3229 9.17388 35.3229C9.25652 35.3229 9.33117 35.3115 9.33976 35.2976C9.34835 35.2836 9.39316 35.2723 9.43932 35.2723C9.48548 35.2723 9.53652 35.2563 9.55274 35.2367C9.56897 35.2172 9.60166 35.2043 9.62539 35.2082C9.64913 35.212 9.68452 35.2024 9.70405 35.1868C9.72356 35.1712 9.75881 35.1585 9.78236 35.1585C9.8059 35.1585 9.84398 35.1429 9.86699 35.1238C9.88999 35.1047 9.90881 35.0979 9.90881 35.1087C9.90881 35.1195 9.93157 35.1078 9.95939 35.0826C9.98721 35.0574 10.01 35.046 10.01 35.0573C10.01 35.0686 10.0327 35.0573 10.0606 35.032C10.0884 35.0068 10.1111 34.9954 10.1111 35.0067C10.1111 35.018 10.1339 35.0067 10.1617 34.9814C10.1895 34.9562 10.2123 34.9449 10.2123 34.9561C10.2123 34.9674 10.2351 34.9561 10.2629 34.9308C10.2907 34.9057 10.3135 34.8943 10.3135 34.9055C10.3135 34.9168 10.3362 34.9055 10.364 34.8803C10.3919 34.8551 10.4146 34.8441 10.4146 34.8558C10.4146 34.8675 10.4488 34.8444 10.4905 34.8044C10.5322 34.7644 10.5664 34.7416 10.5664 34.7538C10.5664 34.766 10.5977 34.747 10.6359 34.7117C10.7099 34.6433 10.7904 34.6027 10.8319 34.6128C10.8458 34.6162 10.8487 34.6104 10.8382 34.5999C10.8121 34.5738 10.8956 34.4856 10.9277 34.5054C10.9419 34.5142 10.9464 34.5097 10.9376 34.4955C10.9288 34.4813 10.9441 34.4494 10.9716 34.4245C10.9991 34.3996 11.0216 34.3891 11.0216 34.4011C11.0216 34.4131 11.0728 34.3726 11.1354 34.3112C11.198 34.2498 11.2492 34.187 11.2492 34.1718C11.2492 34.1285 11.4144 33.9792 11.4383 34.0009C11.4501 34.0116 11.4523 34.0074 11.4432 33.9916C11.4342 33.9758 11.4437 33.9488 11.4645 33.9316C11.4852 33.9144 11.5021 33.8867 11.5021 33.8699C11.5021 33.8532 11.5313 33.8121 11.567 33.7786C11.6027 33.745 11.6501 33.6776 11.6724 33.6287C11.6947 33.5798 11.7293 33.5206 11.7492 33.4971C11.8056 33.4305 12.008 33.0161 12.008 32.9671C12.008 32.9429 12.0193 32.9162 12.0332 32.9076C12.0472 32.899 12.0585 32.8648 12.0585 32.8317C12.0585 32.7986 12.0699 32.7644 12.0838 32.7558C12.0977 32.7472 12.1091 32.7067 12.1091 32.6658C12.1091 32.6249 12.1205 32.5914 12.1344 32.5914C12.1483 32.5914 12.1597 32.5459 12.1597 32.4903C12.1597 32.4346 12.1711 32.3891 12.185 32.3891C12.1994 32.3891 12.2103 32.3137 12.2103 32.2136C12.2103 32.117 12.2217 32.031 12.2356 32.0224C12.2508 32.013 12.2609 31.8371 12.2609 31.5798C12.2609 31.3224 12.2508 31.1466 12.2356 31.1372C12.2217 31.1286 12.2103 31.0539 12.2103 30.9713C12.2103 30.888 12.199 30.8211 12.185 30.8211C12.1711 30.8211 12.1597 30.7755 12.1597 30.7199C12.1597 30.6643 12.1483 30.6187 12.1344 30.6187C12.1205 30.6187 12.1091 30.5846 12.1091 30.5429C12.1091 30.5011 12.0977 30.467 12.0838 30.467C12.0699 30.467 12.0585 30.4328 12.0585 30.3911C12.0585 30.3494 12.0471 30.3152 12.0332 30.3152C12.0193 30.3152 12.008 30.2811 12.008 30.2394C12.008 30.1976 11.9966 30.1635 11.9827 30.1635C11.9688 30.1635 11.9574 30.1407 11.9574 30.1129C11.9574 30.0851 11.946 30.0623 11.9321 30.0623C11.9182 30.0623 11.9068 30.0396 11.9068 30.0117C11.9068 29.9839 11.8954 29.9612 11.8815 29.9612C11.8676 29.9612 11.8562 29.9384 11.8562 29.9106C11.8562 29.8828 11.8448 29.86 11.8309 29.86C11.817 29.86 11.8056 29.8372 11.8056 29.8094C11.8056 29.7816 11.7942 29.7588 11.7803 29.7588C11.7664 29.7588 11.755 29.7285 11.755 29.6914C11.755 29.6543 11.748 29.631 11.7394 29.6396C11.7183 29.6607 11.6539 29.5941 11.6539 29.5513C11.6539 29.5325 11.6311 29.5007 11.6033 29.4806C11.5755 29.4606 11.5527 29.4176 11.5527 29.385C11.5527 29.3521 11.5415 29.3328 11.5274 29.3415C11.5135 29.3501 11.5021 29.3388 11.5021 29.3162C11.5021 29.2937 11.4908 29.2824 11.4768 29.291C11.4629 29.2995 11.4516 29.2882 11.4516 29.2657C11.4516 29.2432 11.4402 29.2318 11.4263 29.2404C11.4123 29.249 11.401 29.2376 11.401 29.2151C11.401 29.1926 11.3896 29.1812 11.3757 29.1898C11.3618 29.1984 11.3504 29.1871 11.3504 29.1648C11.3504 29.1111 11.0127 28.7725 10.9592 28.7725C10.9362 28.7725 10.9245 28.7611 10.9331 28.7472C10.9417 28.7333 10.9303 28.7219 10.9078 28.7219C10.8853 28.7219 10.8739 28.7105 10.8825 28.6966C10.8911 28.6827 10.8797 28.6713 10.8572 28.6713C10.8347 28.6713 10.8233 28.6599 10.8319 28.646C10.8405 28.6321 10.8298 28.6207 10.8081 28.6207C10.7864 28.6207 10.7687 28.6094 10.7687 28.5955C10.7687 28.5815 10.7453 28.5702 10.7166 28.5702C10.688 28.5702 10.6716 28.5588 10.6802 28.5449C10.6888 28.531 10.6774 28.5196 10.6549 28.5196C10.6324 28.5196 10.621 28.5082 10.6296 28.4943C10.6382 28.4804 10.6268 28.469 10.6043 28.469C10.5818 28.469 10.5704 28.4576 10.579 28.4437C10.5879 28.4294 10.5666 28.4184 10.5299 28.4184C10.4943 28.4184 10.4652 28.407 10.4652 28.3931C10.4652 28.3792 10.4473 28.3678 10.4255 28.3678C10.3784 28.3678 10.3091 28.3048 10.3315 28.2823C10.3401 28.2737 10.3168 28.2667 10.2797 28.2667C10.2426 28.2667 10.2123 28.2553 10.2123 28.2414C10.2123 28.2275 10.1895 28.2161 10.1617 28.2161C10.1339 28.2161 10.1111 28.2047 10.1111 28.1908C10.1111 28.1769 10.083 28.1655 10.0487 28.1655C10.0143 28.1655 9.94569 28.1427 9.89616 28.1149C9.84663 28.0871 9.78436 28.0643 9.75779 28.0643C9.73121 28.0643 9.70243 28.053 9.69384 28.0391C9.68524 28.0251 9.65109 28.0138 9.61796 28.0138C9.58483 28.0138 9.55069 28.0024 9.54209 27.9885C9.5335 27.9746 9.48797 27.9632 9.44092 27.9632C9.39388 27.9632 9.34836 27.9518 9.33976 27.9379C9.33117 27.924 9.27426 27.9126 9.21331 27.9126C9.15235 27.9126 9.09545 27.9012 9.08685 27.8873C9.07824 27.8733 8.96485 27.862 8.83394 27.862C8.70304 27.862 8.58966 27.8507 8.58103 27.8367C8.57244 27.8228 8.5326 27.8114 8.49251 27.8114C8.45243 27.8114 8.41259 27.8228 8.404 27.8367C8.39528 27.8509 8.27728 27.862 8.13695 27.862C7.9862 27.862 7.88553 27.8721 7.88553 27.8873C7.88553 27.9012 7.8293 27.9126 7.76057 27.9126C7.69184 27.9126 7.62857 27.924 7.61998 27.9379C7.61138 27.9518 7.56518 27.9632 7.51732 27.9632C7.46946 27.9632 7.43029 27.9745 7.43029 27.9885C7.43029 28.0024 7.39615 28.0138 7.35442 28.0138C7.31269 28.0138 7.27855 28.0251 7.27855 28.0391C7.27855 28.053 7.2444 28.0643 7.20268 28.0643C7.16094 28.0643 7.1268 28.0757 7.1268 28.0896C7.1268 28.1035 7.11265 28.1149 7.09536 28.1149C7.0478 28.1149 6.50234 28.3912 6.46785 28.4327C6.45131 28.4527 6.42565 28.469 6.41087 28.469C6.39608 28.469 6.35912 28.4924 6.32873 28.5209C6.29834 28.5495 6.24972 28.5746 6.2207 28.5768C6.19167 28.579 6.17337 28.5862 6.18005 28.5929C6.19719 28.61 5.98419 28.8231 5.94992 28.8231C5.93437 28.8231 5.89525 28.8512 5.86299 28.8855C5.83072 28.9199 5.79431 28.9418 5.78208 28.9342C5.76984 28.9267 5.76193 28.9298 5.76447 28.9413C5.77514 28.9892 5.72057 29.0718 5.58765 29.2088C5.51003 29.2887 5.45702 29.3542 5.46984 29.3542C5.48265 29.3542 5.44869 29.3997 5.39436 29.4553C5.34003 29.511 5.30534 29.5565 5.31728 29.5565C5.32922 29.5565 5.31834 29.5793 5.2932 29.6071C5.26802 29.6349 5.25664 29.6577 5.26791 29.6577C5.27917 29.6577 5.26804 29.6802 5.24316 29.7077C5.21828 29.7351 5.18613 29.7504 5.17171 29.7414C5.15574 29.7316 5.15171 29.7414 5.16138 29.7666C5.1701 29.7893 5.1635 29.8228 5.1467 29.8409C5.1299 29.859 5.11241 29.8905 5.10781 29.9109C5.10321 29.9313 5.08615 29.9565 5.06988 29.9669C5.05361 29.9772 5.04913 29.9859 5.05991 29.9861C5.0707 29.9863 5.06428 30.0178 5.04563 30.056C5.02698 30.0943 5.01274 30.1426 5.01397 30.1635C5.01524 30.1844 5.0016 30.2166 4.98375 30.2351C4.96591 30.2536 4.95777 30.2792 4.96568 30.292C4.97359 30.3048 4.96377 30.3152 4.94372 30.3152C4.91877 30.3152 4.90941 30.339 4.91384 30.3911C4.91779 30.4376 4.9083 30.467 4.88937 30.467C4.86935 30.467 4.86015 30.5027 4.86327 30.5683C4.86609 30.6277 4.854 30.6813 4.83405 30.6979C4.81534 30.7134 4.80003 30.7652 4.80003 30.813C4.80003 30.8608 4.79051 30.894 4.77886 30.8868C4.76721 30.8796 4.75517 30.9444 4.75211 31.0308C4.74906 31.1171 4.73582 31.1986 4.72271 31.2118C4.69034 31.2444 4.6917 31.9517 4.72419 31.9718C4.73811 31.9804 4.74948 32.0601 4.74948 32.1488C4.74948 32.2376 4.76088 32.3173 4.77478 32.3259C4.78869 32.3345 4.80007 32.3854 4.80007 32.4391C4.80007 32.4927 4.81262 32.5408 4.82799 32.5459C4.84335 32.5511 4.85884 32.5896 4.86241 32.6317C4.866 32.6737 4.87979 32.7302 4.89307 32.7572C4.90635 32.7843 4.91609 32.8235 4.9147 32.8443C4.91343 32.8652 4.92018 32.8881 4.92998 32.8952C4.93976 32.9023 4.95152 32.9247 4.95611 32.9451C4.96072 32.9655 4.97771 32.9966 4.9939 33.0141C5.01008 33.0316 5.02023 33.066 5.01645 33.0906C5.01267 33.1151 5.01835 33.141 5.02924 33.1481C5.04006 33.1552 5.05268 33.1777 5.05727 33.1981C5.06187 33.2185 5.07995 33.2506 5.09747 33.2694C5.11499 33.2882 5.12284 33.3141 5.11494 33.3269C5.10703 33.3397 5.11187 33.3502 5.12566 33.3502C5.13945 33.3502 5.15794 33.3729 5.16674 33.4006C5.17555 33.4283 5.19867 33.4669 5.21813 33.4864C5.23758 33.5059 5.25676 33.5367 5.26073 33.555C5.2647 33.5732 5.29451 33.6157 5.32696 33.6494C5.36217 33.686 5.38097 33.7298 5.37358 33.7581C5.36677 33.7842 5.36878 33.8008 5.37807 33.795C5.40139 33.7806 5.4954 33.8519 5.47715 33.8702C5.46904 33.8783 5.53531 33.9596 5.62441 34.051C5.71351 34.1423 5.78642 34.2325 5.78642 34.2515C5.78642 34.2704 5.80328 34.2859 5.82388 34.2859C5.84448 34.2859 5.93449 34.3591 6.02387 34.4484C6.11325 34.5378 6.19174 34.6056 6.19827 34.5991C6.2048 34.5925 6.24768 34.627 6.29354 34.6756C6.3394 34.7242 6.3854 34.7588 6.39576 34.7523C6.40614 34.7459 6.43003 34.755 6.44887 34.7725C6.4677 34.7901 6.49992 34.8077 6.52046 34.8118C6.54099 34.8159 6.57526 34.8386 6.59661 34.8624C6.61796 34.8861 6.6521 34.9093 6.67248 34.9138C6.69287 34.9183 6.71335 34.9326 6.71802 34.9455C6.72268 34.9585 6.73599 34.9632 6.74759 34.9561C6.7592 34.9489 6.7841 34.9573 6.80294 34.9749C6.82178 34.9924 6.85399 35.0104 6.87453 35.0149C6.89506 35.0195 6.91568 35.0338 6.92035 35.0467C6.92501 35.0597 6.93831 35.0644 6.94992 35.0572C6.96152 35.0501 6.98639 35.0596 7.00519 35.0784C7.02399 35.0972 7.05922 35.1097 7.08348 35.1061C7.10774 35.1025 7.14192 35.1129 7.15943 35.1291C7.17693 35.1452 7.20796 35.1622 7.22836 35.1668C7.24877 35.1714 7.27126 35.1832 7.27834 35.193C7.28543 35.2027 7.31968 35.2094 7.35445 35.2078C7.38923 35.2061 7.44289 35.22 7.4737 35.2386C7.50451 35.2571 7.55287 35.2723 7.58118 35.2723C7.60949 35.2723 7.63266 35.2837 7.63266 35.2976C7.63266 35.3116 7.7001 35.3229 7.7844 35.3229C7.8687 35.3229 7.93615 35.3341 7.93615 35.3482C7.93615 35.3642 8.13426 35.3735 8.4799 35.3735C8.82554 35.3735 9.02363 35.3642 9.02363 35.3481ZM8.21432 34.6147C8.21432 34.6003 8.13844 34.5894 8.03728 34.5894C7.93612 34.5894 7.86024 34.5786 7.86024 34.5641C7.86024 34.5502 7.81472 34.5388 7.75908 34.5388C7.70344 34.5388 7.65792 34.5274 7.65792 34.5135C7.65792 34.4996 7.62444 34.4883 7.58353 34.4883C7.54263 34.4883 7.50212 34.4769 7.49352 34.463C7.48493 34.449 7.45807 34.4377 7.43384 34.4377C7.37851 34.4377 7.25372 34.3808 7.25346 34.3555C7.25335 34.345 7.23842 34.3365 7.22029 34.3365C7.17232 34.3365 6.93387 34.2139 6.89817 34.1709C6.88141 34.1507 6.85625 34.1342 6.84226 34.1342C6.80149 34.1342 6.63462 33.9888 6.35906 33.7133C6.05708 33.4113 5.95973 33.2935 5.9125 33.1731C5.89341 33.1244 5.87079 33.0789 5.86226 33.072C5.85373 33.065 5.83096 33.0195 5.81167 32.9708C5.79239 32.9221 5.77027 32.8766 5.76253 32.8696C5.7327 32.8428 5.68522 32.7421 5.68522 32.7056C5.68522 32.6845 5.67383 32.6673 5.65993 32.6673C5.64601 32.6673 5.63464 32.6332 5.63464 32.5914C5.63464 32.5497 5.62325 32.5156 5.60935 32.5156C5.59543 32.5156 5.58406 32.4764 5.58406 32.4285C5.58406 32.3807 5.57266 32.3345 5.55876 32.3259C5.54485 32.3173 5.53347 32.2604 5.53347 32.1994C5.53347 32.1385 5.52208 32.0816 5.50818 32.073C5.49289 32.0635 5.48289 31.8835 5.48289 31.6177C5.48289 31.3519 5.49288 31.1719 5.50818 31.1625C5.5221 31.1539 5.53347 31.0906 5.53347 31.0219C5.53347 30.9532 5.54487 30.8969 5.55876 30.8969C5.57268 30.8969 5.58406 30.8514 5.58406 30.7958C5.58406 30.7401 5.59545 30.6946 5.60935 30.6946C5.62326 30.6946 5.63464 30.6605 5.63464 30.6187C5.63464 30.577 5.64603 30.5429 5.65993 30.5429C5.67385 30.5429 5.68522 30.5201 5.68522 30.4923C5.68522 30.4645 5.69661 30.4417 5.71051 30.4417C5.72443 30.4417 5.7358 30.4076 5.7358 30.3658C5.7358 30.3241 5.74719 30.29 5.76109 30.29C5.77501 30.29 5.78638 30.2714 5.78638 30.2487C5.78638 30.226 5.8063 30.1888 5.83064 30.1662C5.88164 30.1188 5.93813 30.0244 5.93813 29.9866C5.93813 29.9723 5.97227 29.925 6.014 29.8813C6.05573 29.8377 6.08987 29.7892 6.08987 29.7736C6.08987 29.7374 6.62544 29.2024 6.66174 29.2024C6.67674 29.2024 6.70962 29.1797 6.73479 29.1519C6.75997 29.124 6.79449 29.1013 6.81149 29.1013C6.8285 29.1013 6.85604 29.0849 6.87269 29.0648C6.91182 29.0177 7.35428 28.7978 7.41003 28.7978C7.43344 28.7978 7.45964 28.7864 7.46823 28.7725C7.47682 28.7586 7.50937 28.7472 7.54054 28.7472C7.57171 28.7472 7.60803 28.7364 7.62124 28.7233C7.63446 28.7101 7.69291 28.6965 7.75114 28.6931C7.80937 28.6897 7.85489 28.6754 7.8523 28.6613C7.84957 28.6464 7.91082 28.6356 7.99934 28.6354C8.0828 28.6352 8.15899 28.6237 8.16864 28.6098C8.19347 28.5739 8.79253 28.5734 8.82224 28.6093C8.83503 28.6248 8.90289 28.6356 8.97304 28.6335C9.05237 28.6311 9.11112 28.6423 9.12844 28.6632C9.14375 28.6816 9.19404 28.6967 9.2402 28.6967C9.28636 28.6967 9.33117 28.7081 9.33976 28.722C9.34835 28.7359 9.3825 28.7473 9.41564 28.7473C9.44877 28.7473 9.48291 28.7587 9.49151 28.7726C9.5001 28.7865 9.52808 28.7979 9.55366 28.7979C9.57925 28.7979 9.66509 28.832 9.74442 28.8738C9.82375 28.9155 9.90457 28.9496 9.92402 28.9496C9.94348 28.9496 9.95948 28.9582 9.95959 28.9686C9.95979 28.9887 10.0801 29.0508 10.1187 29.0508C10.1312 29.0508 10.1733 29.0849 10.2123 29.1267C10.2513 29.1684 10.2946 29.2025 10.3085 29.2025C10.3224 29.2025 10.389 29.2593 10.4564 29.3286C10.5238 29.3979 10.5989 29.4548 10.6233 29.4551C10.6476 29.4553 10.6675 29.474 10.6675 29.4968C10.6675 29.5195 10.7244 29.5941 10.794 29.6626C10.8665 29.7339 10.9204 29.8098 10.9204 29.8404C10.9204 29.8698 10.9275 29.8868 10.9361 29.8782C10.9572 29.8571 11.0216 29.9237 11.0216 29.9665C11.0216 29.9853 11.0444 30.0171 11.0722 30.0371C11.1 30.0572 11.1228 30.1002 11.1228 30.1327C11.1228 30.1657 11.134 30.185 11.1481 30.1762C11.162 30.1676 11.1734 30.184 11.1734 30.2127C11.1734 30.2413 11.1847 30.2648 11.1986 30.2648C11.2126 30.2648 11.2239 30.2932 11.2239 30.328C11.2239 30.3628 11.2353 30.3912 11.2492 30.3912C11.2631 30.3912 11.2745 30.4254 11.2745 30.4671C11.2745 30.5088 11.283 30.543 11.2935 30.5432C11.3244 30.5436 11.3757 30.6738 11.3757 30.7521C11.3757 30.7921 11.3907 30.8398 11.4091 30.8582C11.4275 30.8766 11.441 30.9355 11.4392 30.9892C11.4373 31.0428 11.4477 31.0947 11.4623 31.1045C11.4984 31.1288 11.5022 32.0607 11.4664 32.1079C11.4519 32.1271 11.4391 32.1946 11.438 32.258C11.4369 32.3232 11.4229 32.3777 11.4059 32.3834C11.3893 32.3889 11.3757 32.4259 11.3757 32.4657C11.3757 32.5054 11.3643 32.545 11.3504 32.5536C11.3365 32.5622 11.3251 32.5963 11.3251 32.6295C11.3251 32.6626 11.3137 32.6967 11.2998 32.7053C11.2859 32.7139 11.2745 32.7413 11.2745 32.7662C11.2745 32.8285 11.086 33.1869 11.0562 33.1813C11.0429 33.1788 11.0303 33.2004 11.0281 33.2293C11.026 33.2583 10.9895 33.3178 10.947 33.3616C10.9046 33.4054 10.8699 33.4522 10.8699 33.4657C10.8699 33.4992 10.327 34.0382 10.3102 34.0214C10.3028 34.014 10.2701 34.0364 10.2375 34.0711C10.2049 34.1059 10.1645 34.1343 10.1478 34.1343C10.131 34.1343 10.1037 34.1507 10.087 34.1708C10.0479 34.2179 9.60545 34.4378 9.5497 34.4378C9.52629 34.4378 9.50009 34.4491 9.4915 34.4631C9.48291 34.477 9.44876 34.4883 9.41563 34.4883C9.38249 34.4883 9.34835 34.4997 9.33975 34.5136C9.33116 34.5276 9.27927 34.5389 9.22445 34.5389C9.16963 34.5389 9.12478 34.5503 9.12478 34.5642C9.12478 34.5787 9.04891 34.5895 8.94774 34.5895C8.84658 34.5895 8.77071 34.6003 8.77071 34.6148C8.77071 34.6301 8.66111 34.6401 8.4925 34.6401C8.3239 34.6401 8.21432 34.63 8.21432 34.6147ZM8.55755 33.7519C8.56516 33.7396 8.65539 33.7295 8.75807 33.7295C8.86075 33.7295 8.9518 33.7181 8.9604 33.7042C8.96899 33.6903 9.00314 33.6789 9.03627 33.6789C9.0694 33.6789 9.10355 33.6676 9.11214 33.6537C9.12073 33.6397 9.15416 33.6284 9.18641 33.6284C9.21866 33.6284 9.25912 33.6114 9.2763 33.5907C9.29349 33.57 9.31686 33.5588 9.32824 33.5658C9.33961 33.5728 9.3565 33.5662 9.36576 33.5513C9.38312 33.5233 9.50389 33.4659 9.53334 33.4717C9.54244 33.4734 9.56375 33.4583 9.5807 33.4379C9.59765 33.4174 9.62808 33.4007 9.64833 33.4007C9.66859 33.4007 9.7289 33.3552 9.78236 33.2996C9.83581 33.2439 9.89234 33.1984 9.90798 33.1984C9.95013 33.1984 10.0606 33.0803 10.0606 33.0352C10.0606 33.0137 10.0795 32.9961 10.1027 32.9961C10.1259 32.9961 10.1377 32.9889 10.1289 32.9801C10.1201 32.9713 10.1467 32.9326 10.1879 32.8941C10.2291 32.8556 10.2629 32.811 10.2629 32.7951C10.2629 32.7792 10.2916 32.7375 10.3266 32.7025C10.3616 32.6674 10.3837 32.6281 10.3757 32.6151C10.3676 32.6021 10.3784 32.5914 10.3997 32.5914C10.4234 32.5914 10.4328 32.577 10.424 32.5541C10.4162 32.5336 10.4285 32.498 10.4516 32.475C10.4746 32.452 10.4877 32.4184 10.4808 32.4003C10.4739 32.3823 10.4839 32.3545 10.5031 32.3385C10.5224 32.3226 10.5318 32.2931 10.5241 32.2731C10.5164 32.2531 10.5256 32.218 10.5446 32.1952C10.5635 32.1724 10.5792 32.1355 10.5794 32.1133C10.5796 32.0911 10.5907 32.0559 10.6039 32.035C10.6359 31.9847 10.6374 31.178 10.6054 31.1836C10.5921 31.1859 10.5806 31.165 10.5797 31.1372C10.5789 31.1094 10.567 31.0695 10.5533 31.0487C10.5396 31.0278 10.5277 30.9804 10.5269 30.9433C10.5261 30.9062 10.5105 30.8579 10.4922 30.8358C10.4739 30.8138 10.4678 30.7958 10.4786 30.7958C10.4894 30.7958 10.4778 30.773 10.4525 30.7452C10.4273 30.7174 10.4159 30.6946 10.4272 30.6946C10.4385 30.6946 10.4306 30.6747 10.4097 30.6503C10.3706 30.6048 10.3286 30.5165 10.3334 30.4899C10.3348 30.4817 10.2854 30.4252 10.2236 30.3645C10.1617 30.3038 10.1111 30.2427 10.1111 30.2286C10.1111 30.1938 9.87954 29.9612 9.84489 29.9612C9.82957 29.9612 9.78434 29.927 9.74436 29.8853C9.70438 29.8436 9.65606 29.8094 9.63698 29.8094C9.61788 29.8094 9.60948 29.7978 9.61829 29.7835C9.62709 29.7692 9.62493 29.7601 9.61345 29.7632C9.57657 29.7732 9.47879 29.731 9.47879 29.7051C9.47879 29.6913 9.46717 29.6872 9.45298 29.6959C9.43879 29.7047 9.39356 29.6836 9.35248 29.649C9.30847 29.612 9.2583 29.5913 9.23032 29.5986C9.2042 29.6054 9.16668 29.5949 9.14693 29.5751C9.12718 29.5554 9.09117 29.5421 9.06691 29.5457C9.04265 29.5492 9.00874 29.5389 8.99156 29.5227C8.97438 29.5065 8.90342 29.4942 8.83387 29.4953C8.76432 29.4963 8.69215 29.4855 8.6735 29.4713C8.62502 29.4342 8.41095 29.4329 8.36599 29.4694C8.34423 29.4871 8.26543 29.4984 8.18117 29.4959C8.09355 29.4933 8.02423 29.5037 8.00935 29.5216C7.99563 29.5382 7.96499 29.5485 7.94126 29.5446C7.91753 29.5407 7.87861 29.5545 7.85479 29.5753C7.83096 29.5961 7.79481 29.6068 7.77444 29.599C7.75408 29.5912 7.72315 29.6019 7.70572 29.623C7.68828 29.644 7.65331 29.6557 7.628 29.6491C7.59895 29.6415 7.58197 29.6508 7.58197 29.6741C7.58197 29.6945 7.57151 29.7047 7.55872 29.6968C7.54593 29.6889 7.51718 29.7008 7.49484 29.7231C7.4725 29.7454 7.43744 29.7573 7.41693 29.7494C7.3945 29.7408 7.37964 29.7498 7.37964 29.7722C7.37964 29.7927 7.36167 29.8094 7.33972 29.8094C7.31777 29.8094 7.25606 29.8549 7.20261 29.9105C7.14915 29.9662 7.09102 30.0117 7.07344 30.0117C7.02917 30.0117 6.9244 30.114 6.9244 30.1572C6.9244 30.1767 6.87888 30.2364 6.82324 30.2899C6.7676 30.3434 6.72208 30.398 6.72208 30.4113C6.72208 30.4246 6.70513 30.4495 6.68442 30.4667C6.66371 30.4839 6.65337 30.5087 6.66145 30.5217C6.66953 30.5348 6.65233 30.5661 6.62324 30.5914C6.59414 30.6166 6.57033 30.6488 6.57033 30.6628C6.57033 30.6769 6.55444 30.7016 6.53501 30.7177C6.51557 30.7338 6.50499 30.7673 6.51147 30.7921C6.51797 30.8169 6.50541 30.852 6.48357 30.8701C6.46174 30.8883 6.44388 30.9279 6.44388 30.9582C6.44388 30.9884 6.43359 31.024 6.42104 31.0373C6.36861 31.0924 6.32041 31.8458 6.36636 31.8917C6.38117 31.9065 6.39329 31.9726 6.39329 32.0385C6.39329 32.1045 6.40469 32.1655 6.41859 32.1741C6.4325 32.1827 6.44388 32.2122 6.44388 32.2397C6.44388 32.2672 6.46193 32.3172 6.48399 32.3509C6.50606 32.3846 6.51771 32.4225 6.50988 32.4351C6.50205 32.4478 6.51945 32.4796 6.54854 32.5058C6.59503 32.5477 6.65057 32.6461 6.65673 32.6976C6.658 32.7073 6.67309 32.7295 6.69046 32.7469C6.70786 32.7643 6.72208 32.7911 6.72208 32.8065C6.72208 32.8218 6.76301 32.8736 6.81304 32.9215C6.86308 32.9695 6.91409 33.0345 6.9264 33.066C6.93871 33.0976 6.9746 33.1335 7.00615 33.1459C7.03769 33.1583 7.11424 33.2207 7.17626 33.2846C7.23827 33.3484 7.30143 33.4007 7.31662 33.4007C7.33181 33.4007 7.35846 33.4149 7.37585 33.4323C7.39324 33.4497 7.41543 33.4649 7.42517 33.466C7.46914 33.4713 7.57867 33.5266 7.59391 33.5513C7.60318 33.5663 7.62006 33.5728 7.63143 33.5658C7.6428 33.5588 7.66618 33.5699 7.68336 33.5907C7.70055 33.6114 7.74101 33.6283 7.77326 33.6283C7.80551 33.6283 7.83893 33.6397 7.84753 33.6536C7.85612 33.6675 7.88866 33.6789 7.91983 33.6789C7.951 33.6789 7.98733 33.6897 8.00056 33.703C8.0138 33.7162 8.10996 33.7304 8.21427 33.7346C8.33112 33.7392 8.40209 33.7525 8.39914 33.7691C8.39347 33.8011 8.53679 33.7855 8.55755 33.7519ZM19.6603 35.34C19.6673 35.3215 19.6391 35.2419 19.5976 35.1629C19.5561 35.084 19.5289 35.0194 19.5373 35.0194C19.5457 35.0194 19.5356 34.9994 19.515 34.9751C19.4943 34.9508 19.4471 34.8672 19.41 34.7894C19.3319 34.6257 19.288 34.581 19.1243 34.4981L19.005 34.4377H16.7078C15.1932 34.4377 14.4106 34.4463 14.4106 34.463C14.4106 34.4769 14.379 34.4883 14.3403 34.4883C14.299 34.4883 14.255 34.5091 14.2336 34.5388C14.2135 34.5667 14.1769 34.5894 14.1521 34.5894C14.1258 34.5894 14.1071 34.6081 14.1071 34.6344C14.1071 34.6592 14.0843 34.6958 14.0565 34.7159C14.0287 34.7359 14.0059 34.7726 14.0059 34.7973C14.0059 34.8221 13.9946 34.8423 13.9807 34.8423C13.9667 34.8423 13.9554 34.8651 13.9554 34.8929C13.9554 34.9207 13.944 34.9435 13.9301 34.9435C13.9162 34.9435 13.9048 34.9663 13.9048 34.9941C13.9048 35.0219 13.8934 35.0447 13.8795 35.0447C13.8656 35.0447 13.8542 35.0674 13.8542 35.0952C13.8542 35.1231 13.8428 35.1458 13.8289 35.1458C13.815 35.1458 13.8036 35.1686 13.8036 35.1964C13.8036 35.2242 13.7922 35.247 13.7783 35.247C13.7644 35.247 13.753 35.2754 13.753 35.3102V35.3734H16.7002C19.1222 35.3734 19.6497 35.3675 19.6603 35.34ZM1.45205 33.9721C1.48179 33.9607 1.48647 33.8096 1.48091 33.041L1.47427 32.1236H1.17078H0.867291L0.860651 33.031C0.856769 33.5615 0.863727 33.9503 0.877431 33.9668C0.901111 33.9954 1.37989 33.9998 1.45205 33.9721ZM31.738 33.5516C31.8724 33.5155 32.0364 33.383 32.1257 33.2385C32.2303 33.0694 32.2454 32.8349 32.164 32.6457C32.0961 32.4878 31.9094 32.3103 31.7662 32.2674C31.6897 32.2445 30.0817 32.2374 25.0227 32.2374C17.7671 32.2374 18.3102 32.2264 18.1128 32.377C18.0663 32.4124 18.0274 32.4275 18.0222 32.412C18.0172 32.3971 18.0134 32.5992 18.0138 32.8612L18.0144 33.3375L18.1099 33.4182C18.1624 33.4626 18.2281 33.5061 18.2558 33.5149C18.2835 33.5236 18.3012 33.5388 18.2952 33.5486C18.2892 33.5583 18.4663 33.5658 18.6889 33.5651C18.9115 33.5645 19.0972 33.5699 19.1017 33.5772C19.1181 33.6036 31.639 33.5782 31.738 33.5516ZM17.1549 33.2699C17.1554 33.1077 17.147 32.9804 17.1362 32.987C17.1255 32.9936 17.1168 32.9529 17.1168 32.8964C17.1168 32.84 17.1253 32.7938 17.1358 32.7938C17.1606 32.7938 17.1605 16.6429 17.1357 16.6181C17.1253 16.6076 16.9291 16.5982 16.6997 16.597C16.3743 16.5953 16.2799 16.6023 16.2698 16.6286C16.2446 16.6941 16.2561 33.5163 16.2812 33.5415C16.295 33.5553 16.4902 33.5656 16.7299 33.5653L17.1541 33.5647L17.1549 33.2699ZM22.7313 26.5078C22.7433 21.9754 22.7465 21.6976 22.7885 21.6335C22.8129 21.5962 22.8698 21.5455 22.9149 21.5208C22.9923 21.4785 23.2095 21.4761 26.8203 21.4761C30.6424 21.4761 30.6437 21.4761 30.7135 21.5282C30.7519 21.5569 30.8068 21.6118 30.8355 21.6502L30.8877 21.72L30.8942 26.5235L30.9007 31.3269H31.7098H32.5189V28.8589V26.3909L32.3701 26.2097C31.9063 25.6449 31.5825 24.9439 31.452 24.2222C31.3768 23.8062 31.3775 23.1383 31.4535 22.7171C31.5817 22.0066 31.8935 21.3262 32.3499 20.7609L32.5189 20.5516V13.6099V6.6682H21.7449H10.971L10.9729 8.43224C10.974 9.40247 10.9806 10.1821 10.9876 10.1647C10.9947 10.1473 11.0336 10.1331 11.0742 10.1331C11.1147 10.1331 11.1479 10.1217 11.1479 10.1078C11.1479 10.0939 11.1935 10.0825 11.2491 10.0825C11.3047 10.0825 11.3503 10.0711 11.3503 10.0572C11.3503 10.0433 11.3951 10.0319 11.4499 10.0319C11.5047 10.0319 11.5566 10.0205 11.5652 10.0066C11.5738 9.99269 11.6542 9.98131 11.7438 9.98131C11.8355 9.98131 11.9067 9.97026 11.9067 9.95603C11.9067 9.94009 12.0753 9.93073 12.3619 9.93073H12.8171V9.41763C12.8171 8.93564 12.8206 8.89771 12.874 8.79225C12.9077 8.72577 12.967 8.65912 13.0195 8.62883C13.1071 8.5782 13.1463 8.5776 16.7839 8.57101C19.3424 8.56636 20.4904 8.57271 20.5606 8.5915C20.616 8.60644 20.7032 8.65692 20.7542 8.7037L20.847 8.78876V10.8119V12.8351L20.787 12.899C20.7541 12.9341 20.6858 12.9834 20.6353 13.0085C20.5505 13.0507 20.4304 13.0547 19.045 13.0616C17.5773 13.0689 17.5465 13.0701 17.5465 13.1185C17.5465 13.1457 17.5579 13.168 17.5718 13.168C17.5858 13.168 17.5971 13.2021 17.5971 13.2439C17.5971 13.2856 17.6085 13.3197 17.6224 13.3197C17.6363 13.3197 17.6477 13.3539 17.6477 13.3956C17.6477 13.4373 17.6591 13.4715 17.673 13.4715C17.6869 13.4715 17.6983 13.5049 17.6983 13.5458C17.6983 13.5868 17.7097 13.6273 17.7236 13.6359C17.7375 13.6445 17.7489 13.6786 17.7489 13.7117C17.7489 13.7449 17.7602 13.779 17.7742 13.7876C17.7881 13.7962 17.7995 13.8417 17.7995 13.8888C17.7995 13.9358 17.8108 13.9813 17.8247 13.9899C17.8387 13.9985 17.85 14.0441 17.85 14.0911C17.85 14.1381 17.8614 14.1837 17.8753 14.1923C17.8892 14.2009 17.9006 14.2691 17.9006 14.344C17.9006 14.4189 17.912 14.4872 17.9259 14.4958C17.9398 14.5043 17.9512 14.5613 17.9512 14.6224V14.7334L19.2347 14.7414C20.364 14.7484 20.5289 14.7543 20.6068 14.791C20.7135 14.8414 20.7962 14.926 20.8327 15.0222C20.8509 15.0703 20.8597 15.7152 20.8597 17.0147C20.8597 19.0988 20.8631 19.0453 20.7207 19.1573C20.5837 19.2651 20.5176 19.2708 19.241 19.2862L18.0144 19.301V20.5909V21.8807L19.2916 21.8934L20.5688 21.906L20.6723 21.9653C20.8728 22.0802 20.8597 21.9283 20.8596 24.1355C20.8595 26.0436 20.8579 26.1068 20.8101 26.1853C20.7037 26.3598 20.736 26.3558 19.3043 26.3699L18.0145 26.3825L18.0143 28.861L18.0142 31.3395L20.3664 31.3269L22.7185 31.3143L22.7313 26.5078ZM23.0648 19.2612C22.885 19.2379 22.7743 19.1829 22.696 19.0779C22.643 19.0067 22.6428 19 22.6428 17.0122C22.6428 15.0411 22.6434 15.0171 22.6947 14.9465C22.7233 14.9072 22.8029 14.8467 22.8717 14.8119L22.9969 14.7487H26.6388H30.2807L30.4282 14.8211C30.6936 14.9514 30.6725 14.7627 30.6726 17.0071C30.6726 18.7087 30.6677 18.9718 30.6342 19.0366C30.5827 19.1361 30.3882 19.2316 30.1741 19.2626C29.9646 19.2929 23.2988 19.2916 23.0648 19.2612ZM26.1835 17.0122V15.6844L24.8747 15.6779L23.5659 15.6713V17.0122V18.3531L24.8747 18.3465L26.1835 18.34V17.0122ZM29.7369 17.012V15.6713L28.4281 15.6779L27.1193 15.6845L27.1127 16.9869C27.1091 17.7033 27.1117 18.3036 27.1183 18.321C27.1277 18.3458 27.4144 18.3526 28.4337 18.3526H29.7369L29.7369 17.012ZM22.8704 12.9686C22.8148 12.9428 22.7408 12.8909 22.706 12.8531L22.6428 12.7845L22.6363 10.7949C22.63 8.85472 22.6311 8.80326 22.6796 8.7241C22.7069 8.67946 22.7749 8.61971 22.8305 8.59133C22.9309 8.54008 22.957 8.53973 26.6571 8.53973C30.2137 8.53973 30.3866 8.54185 30.4708 8.58586C30.5257 8.61463 30.5805 8.67411 30.6163 8.74392L30.6738 8.85586L30.6669 10.8077C30.6601 12.7343 30.6593 12.7605 30.6079 12.8295C30.5792 12.8679 30.5243 12.9228 30.4859 12.9514C30.4162 13.0035 30.4092 13.0036 26.6938 13.0095C23.1162 13.0152 22.9677 13.0136 22.8704 12.9686ZM26.1962 10.778V9.47549H24.8811H23.5659V10.778V12.0805H24.8811H26.1962V10.778ZM29.7369 10.778V9.47549H28.4218H27.1067V10.7611C27.1067 11.4682 27.1143 12.0543 27.1235 12.0636C27.1328 12.0729 27.7246 12.0805 28.4387 12.0805H29.7369L29.7369 10.778ZM15.3969 28.8484V26.3699H14.2564C12.9829 26.3699 12.9961 26.3715 12.8872 26.1964L12.8299 26.1043V24.1271C12.8299 22.1697 12.8303 22.1493 12.8821 22.0801C12.9107 22.0417 12.9656 21.9868 13.004 21.9581C13.0718 21.9075 13.1076 21.9058 14.2354 21.8987L15.3969 21.8914V20.5899V19.2884L14.4422 19.288C13.4083 19.2873 13.2435 19.2746 13.0343 19.1788C12.801 19.072 12.8173 19.2345 12.8173 17.0102C12.8173 14.7649 12.7961 14.9516 13.0652 14.8195L13.2093 14.7487L14.2778 14.7409L15.3464 14.7331V14.6728C15.3464 14.6397 15.335 14.6056 15.3211 14.597C15.3072 14.5884 15.2958 14.5429 15.2958 14.4958C15.2958 14.4488 15.2844 14.4032 15.2705 14.3946C15.2566 14.3861 15.2452 14.3599 15.2452 14.3364C15.2452 14.2807 15.0253 13.8382 14.9782 13.7991C14.9581 13.7825 14.9417 13.7565 14.9417 13.7415C14.9417 13.7265 14.907 13.6784 14.8646 13.6346C14.8221 13.5908 14.7856 13.531 14.7834 13.5017C14.7812 13.4724 14.7741 13.4536 14.7677 13.46C14.7459 13.4818 14.6647 13.389 14.6808 13.3607C14.6897 13.3451 14.6872 13.3413 14.6753 13.3521C14.6634 13.3629 14.5876 13.3063 14.5069 13.2264C14.4261 13.1465 14.36 13.0916 14.36 13.1044C14.36 13.1172 14.3145 13.0832 14.2589 13.0289C14.2032 12.9746 14.1577 12.9399 14.1577 12.9518C14.1577 12.9638 14.1349 12.9529 14.1071 12.9278C14.0793 12.9026 14.0565 12.8912 14.0565 12.9025C14.0565 12.9137 14.034 12.9026 14.0065 12.8777C13.979 12.8528 13.962 12.8236 13.9687 12.8128C13.9754 12.802 13.9609 12.7964 13.9365 12.8004C13.9121 12.8044 13.8722 12.7902 13.8479 12.769C13.8235 12.7477 13.8036 12.7391 13.8036 12.7499C13.8036 12.7607 13.7848 12.754 13.7618 12.7349C13.7388 12.7158 13.7018 12.7 13.6796 12.6998C13.6574 12.6996 13.6222 12.6884 13.6013 12.6749C13.5804 12.6614 13.5452 12.6502 13.523 12.65C13.5008 12.6498 13.4666 12.6368 13.4471 12.6212C13.4276 12.6056 13.3922 12.596 13.3685 12.5998C13.3447 12.6037 13.312 12.5908 13.2958 12.5713C13.2786 12.5505 13.2196 12.5358 13.1541 12.5358C13.0924 12.5358 13.0483 12.5254 13.0562 12.5127C13.0645 12.4992 12.898 12.4883 12.6551 12.4864C12.3919 12.4843 12.2338 12.4929 12.2235 12.5095C12.2146 12.524 12.1581 12.5358 12.0981 12.5358C12.0374 12.5358 11.9763 12.5509 11.9606 12.5698C11.9442 12.5896 11.8906 12.6018 11.8324 12.5991C11.7774 12.5964 11.7347 12.601 11.7374 12.6093C11.7402 12.6175 11.7357 12.6243 11.7273 12.6243C11.719 12.6243 11.6917 12.6414 11.6665 12.6622C11.6414 12.6831 11.6015 12.7002 11.578 12.7002C11.5545 12.7002 11.5164 12.7158 11.4934 12.7349C11.4704 12.754 11.4515 12.7607 11.4515 12.7499C11.4515 12.7391 11.4288 12.7508 11.401 12.776C11.3731 12.8012 11.3504 12.8126 11.3504 12.8013C11.3504 12.79 11.3276 12.8014 11.2998 12.8266C11.272 12.8518 11.2492 12.8632 11.2492 12.8519C11.2492 12.8406 11.2284 12.8502 11.2029 12.8733C11.1774 12.8964 11.148 12.9067 11.1376 12.8962C11.1271 12.8857 11.1223 12.8927 11.127 12.9118C11.1316 12.9308 11.1145 12.9498 11.089 12.9541C10.9667 12.9745 10.9727 12.7121 10.9718 18.1187C10.9714 20.9042 10.9805 23.1832 10.992 23.1832C11.0036 23.1832 11.028 23.2111 11.0463 23.2453C11.0645 23.2794 11.0911 23.305 11.1054 23.3022C11.1196 23.2993 11.144 23.3214 11.1596 23.3513C11.1752 23.3811 11.2035 23.4242 11.2226 23.4472C11.2776 23.5134 11.3757 23.7187 11.3757 23.7674C11.3757 23.7919 11.3902 23.8269 11.4079 23.8453C11.4256 23.8637 11.4391 23.9186 11.4378 23.9673C11.4366 24.0159 11.4473 24.0785 11.4615 24.1064C11.4786 24.1396 11.4879 24.8209 11.4886 26.0977L11.4896 28.0385L11.8053 28.3549C11.979 28.529 12.1104 28.6714 12.0973 28.6714C12.0843 28.6714 12.1172 28.7161 12.1706 28.7708C12.2346 28.8363 12.2623 28.8841 12.2519 28.9112C12.2433 28.9337 12.2459 28.9462 12.2578 28.9388C12.2697 28.9315 12.2998 28.948 12.3247 28.9755C12.3495 29.003 12.3603 29.0255 12.3486 29.0255C12.3369 29.0255 12.356 29.0568 12.3911 29.095C12.4263 29.1333 12.4742 29.2068 12.4977 29.2583C12.5212 29.3099 12.5522 29.3594 12.5666 29.3683C12.5904 29.383 12.6456 29.4932 12.6508 29.5363C12.6518 29.5461 12.6671 29.5683 12.6845 29.5856C12.7019 29.603 12.7165 29.6406 12.7169 29.6691C12.7173 29.6976 12.7515 29.7889 12.7928 29.8721C12.8341 29.9552 12.8679 30.0427 12.8679 30.0666C12.8679 30.0904 12.8792 30.117 12.8932 30.1256C12.9071 30.1342 12.9185 30.1797 12.9185 30.2268C12.9185 30.2738 12.9298 30.3193 12.9437 30.3279C12.9577 30.3365 12.969 30.3707 12.969 30.4038C12.969 30.4369 12.9804 30.4711 12.9943 30.4797C13.0082 30.4883 13.0196 30.5445 13.0196 30.6045C13.0196 30.6703 13.0346 30.7262 13.0572 30.745C13.0822 30.7657 13.0917 30.8087 13.0854 30.8731C13.0802 30.9264 13.0893 30.9962 13.1056 31.0283C13.1219 31.0604 13.1348 31.1407 13.1343 31.2068L13.1335 31.3269H14.2652H15.397L15.3969 28.8484ZM26.4518 30.2141C26.4506 29.609 26.4419 27.5633 26.4327 25.668L26.4158 22.2221H24.9403H23.4648V26.7747V31.3273L24.9595 31.3207L26.4542 31.3142L26.4518 30.2141ZM30.1606 26.7682L30.167 22.2221H28.6597H27.1524L27.1678 25.5542C27.1762 27.3869 27.1901 29.4355 27.1985 30.1068L27.2138 31.3273L28.684 31.3208L30.1542 31.3142L30.1606 26.7682ZM34.7304 31.2573C34.7194 31.2191 34.7063 30.3966 34.7013 29.4295L34.6923 27.6713L34.4124 27.5851C34.1287 27.4977 33.6463 27.2781 33.4181 27.1325C33.3493 27.0886 33.2839 27.0527 33.2727 27.0527C33.2484 27.0527 33.2449 31.2857 33.2692 31.31C33.2785 31.3193 33.6156 31.3269 34.0182 31.3269H34.7504L34.7304 31.2573ZM35.674 31.053C35.6985 31.0225 35.7056 30.6532 35.7056 29.3999V27.7861H35.5665H35.4274V29.4029V31.0197L35.4922 31.0707C35.5606 31.1245 35.6211 31.1186 35.674 31.053ZM36.3658 26.9766C37.6105 26.74 38.6401 25.8499 39.0662 24.6422C39.2095 24.2361 39.2548 23.9552 39.2548 23.474C39.2548 23.1294 39.244 22.9934 39.2003 22.7885C39.0939 22.2905 38.9035 21.838 38.6338 21.4425C38.4644 21.194 37.9743 20.7035 37.7271 20.535C37.3265 20.2619 36.8187 20.0523 36.3243 19.9561C36.016 19.896 35.3995 19.8955 35.0733 19.955C34.3532 20.0862 33.7022 20.4299 33.1757 20.9567C32.4227 21.7102 32.0558 22.706 32.1415 23.7639C32.2016 24.5061 32.4784 25.1797 32.9618 25.7596C33.7893 26.7527 35.0929 27.2187 36.3658 26.9766ZM15.3969 24.1316V22.8291H14.575H13.753V24.1316V25.4341H14.575H15.3969V24.1316ZM19.924 24.1314V22.8286L18.9693 22.8352L18.0146 22.8418L18.0129 24.119C18.012 24.8215 18.0155 25.4048 18.0207 25.4152C18.0259 25.4256 18.4563 25.4342 18.9771 25.4342H19.924L19.924 24.1314ZM10.3701 18.3531C10.3693 15.9014 10.3816 13.8092 10.3701 13.8375C10 14 10.1743 13.9563 10.1519 13.9749C10.1295 13.9935 10.1111 14.0231 10.1111 14.0405C10.1111 14.058 10.0942 14.0863 10.0735 14.1035C10.0528 14.1207 10.0416 14.1441 10.0486 14.1554C10.0556 14.1668 10.0499 14.1833 10.0357 14.192C10.0216 14.2007 10.01 14.2334 10.01 14.2646C10.01 14.2957 9.99893 14.3323 9.98541 14.3458C9.9719 14.3593 9.95714 14.3946 9.95262 14.4243C9.9481 14.4539 9.93213 14.4935 9.91714 14.5122C9.90214 14.531 9.8943 14.5734 9.8997 14.6065C9.90509 14.6397 9.89595 14.6831 9.87936 14.7031C9.86277 14.7231 9.84838 14.7938 9.8474 14.8603C9.84634 14.9268 9.83354 14.9971 9.81879 15.0167C9.80017 15.0413 9.79245 16.2216 9.7935 18.8837L9.79499 22.7153L9.99732 22.7296C10.1086 22.7375 10.3423 22.8034 10.3528 22.806C10.3632 22.8085 10.371 20.8047 10.3701 18.3531ZM8.92246 18.8331C8.92246 16.2535 8.93101 14.9383 8.94775 14.9383C8.96239 14.9383 8.97304 14.8578 8.97304 14.7472C8.97304 14.6262 8.98234 14.5617 8.99833 14.5716C9.01378 14.5812 9.02363 14.5424 9.02363 14.4719C9.02363 14.4085 9.035 14.3566 9.04892 14.3566C9.06283 14.3566 9.07421 14.3274 9.07421 14.2916C9.07421 14.2558 9.09027 14.2105 9.10989 14.1909C9.12952 14.1713 9.14011 14.1343 9.13343 14.1087C9.12674 14.0832 9.13846 14.048 9.15947 14.0306C9.18047 14.0131 9.19126 13.9822 9.18345 13.9618C9.17564 13.9415 9.18945 13.9025 9.21416 13.8752C9.23887 13.8479 9.24987 13.8255 9.2386 13.8255C9.22734 13.8255 9.23873 13.8028 9.26389 13.775C9.28907 13.7471 9.30045 13.7244 9.28918 13.7244C9.27792 13.7244 9.28931 13.7016 9.31447 13.6738C9.33965 13.646 9.35103 13.6232 9.33976 13.6232C9.3285 13.6232 9.33807 13.6024 9.36119 13.5769C9.38424 13.5514 9.39711 13.5246 9.38979 13.5173C9.38247 13.51 9.39382 13.4896 9.41503 13.472C9.43622 13.4544 9.45357 13.4261 9.45357 13.4091C9.45357 13.392 9.47633 13.3575 9.50416 13.3324C9.53197 13.3072 9.55474 13.273 9.55474 13.2565C9.55474 13.2399 9.5775 13.2058 9.60532 13.1806C9.63314 13.1554 9.6559 13.1218 9.6559 13.106C9.6559 13.0901 9.70142 13.0326 9.75706 12.9783C9.8127 12.924 9.85823 12.8669 9.85823 12.8514C9.85823 12.814 9.99611 12.6832 10.018 12.6997C10.0275 12.7069 10.0295 12.705 10.0224 12.6956C10.0057 12.6736 10.1111 12.561 10.1483 12.561C10.164 12.561 10.2212 12.5155 10.2755 12.4598C10.3298 12.4042 10.3877 12.3587 10.404 12.3587C10.4203 12.3587 10.4478 12.3417 10.465 12.321C10.4822 12.3003 10.5081 12.2907 10.5226 12.2996C10.537 12.3086 10.5417 12.3043 10.5329 12.2901C10.5241 12.2759 10.5395 12.2439 10.567 12.219C10.5944 12.1941 10.6169 12.183 10.6169 12.1943C10.6169 12.2055 10.6397 12.1941 10.6675 12.169C10.6953 12.1438 10.7181 12.1324 10.7181 12.1437C10.7181 12.1549 10.7389 12.1454 10.7644 12.1223C10.7899 12.0992 10.8193 12.0889 10.8298 12.0994C10.8402 12.1098 10.845 12.107 10.8403 12.0931C10.8357 12.0792 10.8393 12.0678 10.8482 12.0678C10.8572 12.0678 10.8857 12.0493 10.9115 12.0267C10.9373 12.0041 10.9779 11.9888 11.0018 11.9927C11.0258 11.9967 11.0428 11.9872 11.0398 11.9717C11.0367 11.9563 11.0581 11.9431 11.0873 11.9425C11.1164 11.9418 11.1591 11.9257 11.1821 11.9066C11.2051 11.8875 11.2239 11.8804 11.2239 11.8908C11.2239 11.9011 11.2423 11.8943 11.2648 11.8757C11.2873 11.8571 11.3339 11.8403 11.3684 11.8384C11.403 11.8365 11.4387 11.8236 11.4477 11.8096C11.4568 11.7956 11.4843 11.7872 11.5088 11.791C11.5334 11.7948 11.5691 11.7823 11.5882 11.7632C11.6089 11.7424 11.6597 11.732 11.7143 11.7373C11.774 11.7431 11.8056 11.7356 11.8056 11.7154C11.8056 11.6947 11.848 11.6859 11.9346 11.6885C12.1566 11.6952 12.1626 11.682 12.1542 11.2079L12.147 10.8033L12.0838 10.809C12.049 10.8122 11.9523 10.8261 11.8688 10.8398C11.7854 10.8536 11.6716 10.8722 11.6159 10.8812C11.5603 10.8902 11.4977 10.9116 11.4768 10.9287C11.456 10.9459 11.4066 10.9576 11.3671 10.9549C11.3249 10.952 11.2897 10.9646 11.2816 10.9855C11.2741 11.0051 11.2552 11.0163 11.2396 11.0103C11.224 11.0044 11.1828 11.0112 11.1481 11.0253C11.1133 11.0394 11.063 11.0552 11.0362 11.0604C11.0095 11.0656 10.9725 11.0824 10.954 11.0977C10.9356 11.113 10.9204 11.1167 10.9204 11.1059C10.9204 11.0951 10.9005 11.1031 10.8762 11.1237C10.8518 11.1443 10.699 11.2265 10.5365 11.3063C10.374 11.3862 10.2275 11.4678 10.2109 11.4878C10.1944 11.5077 10.1669 11.524 10.1499 11.524C10.1329 11.524 10.0984 11.5468 10.0732 11.5746C10.048 11.6024 10.0144 11.6252 9.99853 11.6252C9.98264 11.6252 9.92519 11.6707 9.87086 11.7264C9.81653 11.782 9.75977 11.8275 9.74473 11.8275C9.72969 11.8275 9.65609 11.8896 9.58117 11.9655C9.50624 12.0413 9.43266 12.0964 9.41764 12.0879C9.40262 12.0793 9.3991 12.082 9.40981 12.0938C9.43521 12.1217 9.25076 12.3108 9.21792 12.2905C9.20411 12.2819 9.20002 12.2866 9.2088 12.3008C9.21758 12.315 9.20226 12.3469 9.17477 12.3718C9.14728 12.3967 9.12478 12.4302 9.12478 12.4463C9.12478 12.4624 9.09064 12.5083 9.04891 12.5483C9.00718 12.5883 8.97304 12.6338 8.97304 12.6495C8.97304 12.6651 8.93889 12.7107 8.89716 12.7507C8.85543 12.7906 8.82129 12.8369 8.82129 12.8535C8.82129 12.87 8.80458 12.8974 8.78416 12.9144C8.76374 12.9313 8.74952 12.9583 8.75255 12.9744C8.75558 12.9904 8.74099 12.9998 8.72013 12.9951C8.69925 12.9905 8.69075 12.9953 8.70121 13.0057C8.71166 13.0162 8.70136 13.0456 8.67832 13.0711C8.65527 13.0965 8.64562 13.1174 8.65689 13.1174C8.66816 13.1174 8.65676 13.1401 8.6316 13.168C8.60642 13.1958 8.59504 13.2185 8.60631 13.2185C8.61757 13.2185 8.60618 13.2413 8.58102 13.2691C8.55584 13.2969 8.54446 13.3197 8.55573 13.3197C8.56699 13.3197 8.5556 13.3425 8.53044 13.3703C8.50526 13.3981 8.49351 13.4209 8.50432 13.4209C8.51514 13.4209 8.50837 13.4397 8.48928 13.4627C8.47019 13.4857 8.45457 13.5238 8.45457 13.5473C8.45457 13.5709 8.43896 13.609 8.41986 13.632C8.40077 13.655 8.39363 13.6738 8.40399 13.6738C8.41435 13.6738 8.40722 13.6926 8.38813 13.7156C8.36903 13.7386 8.35324 13.7756 8.35303 13.7978C8.35283 13.82 8.34162 13.8552 8.32812 13.8761C8.31463 13.897 8.30326 13.9311 8.30283 13.952C8.30241 13.9728 8.29102 14.007 8.27754 14.0278C8.26405 14.0487 8.25268 14.0942 8.25225 14.129C8.25183 14.1638 8.24058 14.2093 8.22728 14.2302C8.21398 14.251 8.20196 14.306 8.20059 14.3523C8.1991 14.3987 8.18693 14.4442 8.1733 14.4535C8.15966 14.4628 8.14961 14.5374 8.15095 14.6192C8.15244 14.7103 8.14068 14.7807 8.12063 14.8008C8.09408 14.8273 8.08786 15.5797 8.08786 18.7639C8.08786 20.9256 8.09546 22.7018 8.10473 22.7111C8.114 22.7203 8.30179 22.7279 8.52203 22.7279H8.92247L8.92246 18.8331ZM15.3969 17.0122V15.6718H14.575H13.753V17.0122V18.3526H14.575H15.3969V17.0122ZM19.924 17.0122V15.6718H18.9691H18.0142L18.0175 17.0059C18.0195 17.7396 18.0223 18.3428 18.0241 18.3463C18.0258 18.3498 18.454 18.3526 18.9756 18.3526H19.924L19.924 17.0122ZM17.1337 15.716C17.1657 15.6652 17.1604 15.1154 17.1279 15.1154C17.1095 15.1154 17.1013 15.0405 17.1037 14.8941C17.1056 14.7724 17.0945 14.6443 17.0788 14.6096C17.0631 14.5748 17.0519 14.5179 17.054 14.4831C17.0561 14.4483 17.0442 14.3971 17.0276 14.3693C17.0111 14.3415 16.9988 14.2846 17.0002 14.2428C17.0017 14.2011 16.9882 14.1514 16.9702 14.1325C16.9519 14.1131 16.9427 14.0654 16.9493 14.0234C16.957 13.9748 16.9491 13.9443 16.9263 13.9356C16.9044 13.9271 16.894 13.8911 16.8983 13.8375C16.9019 13.7909 16.8944 13.755 16.8815 13.7576C16.8686 13.7602 16.8535 13.7348 16.8478 13.7011C16.8421 13.6674 16.825 13.6247 16.8096 13.6062C16.7943 13.5877 16.7906 13.5726 16.8014 13.5726C16.8122 13.5726 16.8051 13.5527 16.7855 13.5284C16.7242 13.452 16.6942 13.3846 16.701 13.3386C16.7047 13.3142 16.6979 13.3002 16.6861 13.3075C16.6743 13.3148 16.6299 13.2481 16.5875 13.1592C16.545 13.0703 16.4931 12.9834 16.4721 12.9659C16.4511 12.9484 16.4339 12.9202 16.4339 12.9032C16.4339 12.8862 16.4111 12.8517 16.3833 12.8265C16.3555 12.8014 16.3327 12.7672 16.3327 12.7507C16.3327 12.7341 16.3099 12.7 16.2821 12.6748C16.2543 12.6496 16.2315 12.616 16.2315 12.6001C16.2315 12.5842 16.186 12.5268 16.1304 12.4725C16.0747 12.4181 16.0292 12.362 16.0292 12.3478C16.0292 12.3133 15.6459 11.9287 15.6115 11.9287C15.5968 11.9287 15.5287 11.8718 15.4602 11.8023C15.3917 11.7327 15.3178 11.6758 15.296 11.6758C15.2742 11.6758 15.2399 11.653 15.2199 11.6252C15.1998 11.5974 15.1706 11.5746 15.155 11.5746C15.1394 11.5746 15.106 11.5519 15.0808 11.5241C15.0556 11.4962 15.0182 11.4735 14.9976 11.4735C14.9771 11.4735 14.9417 11.4536 14.9191 11.4292C14.8661 11.3722 14.7759 11.3217 14.7271 11.3217C14.706 11.3217 14.6887 11.3132 14.6886 11.3028C14.6884 11.2806 14.5663 11.2206 14.5215 11.2206C14.5045 11.2206 14.4864 11.2078 14.4812 11.1921C14.476 11.1765 14.4409 11.1637 14.4032 11.1637C14.3655 11.1637 14.3347 11.1537 14.3347 11.1415C14.3347 11.1294 14.319 11.1194 14.2999 11.1194C14.2807 11.1194 14.2515 11.1031 14.235 11.0832C14.2185 11.0633 14.1832 11.0513 14.1566 11.0564C14.1299 11.0615 14.1016 11.0551 14.0935 11.042C14.0854 11.0289 14.0533 11.0182 14.0221 11.0182C13.991 11.0182 13.9546 11.0076 13.9414 10.9945C13.9282 10.9814 13.8843 10.9647 13.8437 10.9575C13.8032 10.9502 13.7582 10.9324 13.7438 10.918C13.7294 10.9036 13.6693 10.8918 13.6103 10.8918C13.5514 10.8918 13.4961 10.8804 13.4875 10.8665C13.4789 10.8526 13.4106 10.8412 13.3357 10.8412C13.2609 10.8412 13.1926 10.8298 13.184 10.8159C13.1592 10.7759 13.0519 10.7865 13.0349 10.8306C13.0265 10.8526 13.0196 11.035 13.0196 11.2358C13.0196 11.6008 13.0196 11.601 13.0828 11.6298C13.1176 11.6457 13.146 11.666 13.146 11.6749C13.146 11.6839 13.2001 11.6896 13.2662 11.6877C13.3322 11.6858 13.4084 11.6954 13.4354 11.7089C13.4625 11.7224 13.5179 11.7363 13.5587 11.7397C13.5994 11.7432 13.6399 11.7571 13.6486 11.7706C13.6573 11.7841 13.6846 11.792 13.7091 11.7882C13.7337 11.7845 13.7678 11.7953 13.785 11.8123C13.8022 11.8292 13.8475 11.8414 13.8858 11.8393C13.9268 11.837 13.9553 11.8484 13.9553 11.8672C13.9553 11.8847 13.975 11.8961 13.9991 11.8925C14.0231 11.889 14.0582 11.9015 14.077 11.9203C14.0958 11.9391 14.1216 11.948 14.1344 11.9401C14.1472 11.9322 14.1577 11.9425 14.1577 11.9629C14.1577 11.9838 14.1769 11.9973 14.2014 11.9937C14.2255 11.9902 14.2605 12.0027 14.2793 12.0215C14.2981 12.0403 14.324 12.0492 14.3367 12.0413C14.3495 12.0334 14.36 12.0436 14.36 12.0641C14.36 12.0853 14.3791 12.0984 14.4043 12.0945C14.4286 12.0907 14.4553 12.0982 14.4637 12.111C14.472 12.1239 14.5005 12.138 14.5269 12.1424C14.5533 12.1468 14.5721 12.1632 14.5686 12.1787C14.5652 12.1942 14.5766 12.2041 14.5939 12.2006C14.6113 12.1971 14.6235 12.2062 14.621 12.2207C14.6184 12.2352 14.6396 12.2488 14.6681 12.2509C14.6965 12.2531 14.7413 12.2743 14.7677 12.2982C14.794 12.322 14.8411 12.3549 14.8723 12.3712C14.9035 12.3875 14.9262 12.4141 14.9227 12.4303C14.9192 12.4466 14.9306 12.457 14.948 12.4535C14.9654 12.4501 14.9768 12.4615 14.9733 12.4788C14.9698 12.4962 14.9847 12.5104 15.0064 12.5104C15.0281 12.5104 15.0388 12.5218 15.0302 12.5357C15.0216 12.5497 15.033 12.561 15.0555 12.561C15.078 12.561 15.0894 12.5724 15.0808 12.5863C15.0722 12.6002 15.0836 12.6116 15.1061 12.6116C15.1286 12.6116 15.14 12.623 15.1314 12.6369C15.1228 12.6508 15.1341 12.6622 15.1567 12.6622C15.1792 12.6622 15.1905 12.6736 15.1819 12.6875C15.1734 12.7014 15.1792 12.7128 15.1949 12.7128C15.2335 12.7128 15.2973 12.7787 15.2777 12.7983C15.2691 12.8069 15.2817 12.8139 15.3057 12.8139C15.3297 12.8139 15.3423 12.8253 15.3337 12.8392C15.3251 12.8531 15.3365 12.8645 15.359 12.8645C15.3815 12.8645 15.3929 12.8759 15.3843 12.8898C15.3757 12.9037 15.3812 12.9151 15.3966 12.9151C15.4317 12.9151 15.5334 13.0195 15.5439 13.0664C15.5483 13.0857 15.5739 13.1207 15.6008 13.1441C15.6278 13.1675 15.6498 13.2052 15.6498 13.2279C15.6498 13.2506 15.6619 13.2692 15.6766 13.2692C15.6913 13.2692 15.6964 13.2806 15.6878 13.2945C15.6792 13.3084 15.6899 13.3198 15.7116 13.3198C15.7341 13.3198 15.751 13.3414 15.751 13.3703C15.751 13.3982 15.7631 13.4209 15.7778 13.4209C15.7925 13.4209 15.798 13.4316 15.7899 13.4446C15.7819 13.4576 15.804 13.4969 15.839 13.5319C15.8741 13.567 15.9027 13.6132 15.9027 13.6347C15.9027 13.6562 15.9141 13.6738 15.928 13.6738C15.942 13.6738 15.9533 13.7019 15.9533 13.7363C15.9533 13.7706 15.9761 13.8393 16.0039 13.8888C16.0317 13.9383 16.0545 14.0006 16.0545 14.0272C16.0545 14.0538 16.0666 14.083 16.0815 14.0922C16.0964 14.1014 16.1029 14.1235 16.0961 14.1414C16.0892 14.1592 16.0983 14.1951 16.1163 14.221C16.1343 14.2469 16.1558 14.308 16.164 14.3567C16.1721 14.4054 16.1922 14.5078 16.2086 14.5843C16.225 14.6608 16.2427 14.9396 16.2481 15.2039C16.2534 15.4682 16.2629 15.6987 16.2691 15.7161C16.2776 15.7396 16.3868 15.7477 16.6971 15.7477C17.0029 15.7477 17.1191 15.7392 17.1337 15.716ZM19.924 10.8157V9.50033L18.6152 9.50688L17.3064 9.51344L17.2998 10.7906C17.2962 11.4931 17.2988 12.082 17.3054 12.0994C17.3148 12.1242 17.6015 12.131 18.6208 12.131H19.924L19.924 10.8157ZM16.3773 10.4808L16.3707 9.51343L15.0618 9.50687L13.753 9.50032V9.74081V9.9813H13.6883C13.6516 9.9813 13.6304 9.99225 13.6392 10.0066C13.6478 10.0205 13.7111 10.0319 13.7798 10.0319C13.8486 10.0319 13.9048 10.0433 13.9048 10.0572C13.9048 10.0711 13.9389 10.0825 13.9807 10.0825C14.0224 10.0825 14.0565 10.0938 14.0565 10.1078C14.0565 10.1217 14.1021 10.133 14.1577 10.133C14.2133 10.133 14.2589 10.1444 14.2589 10.1583C14.2589 10.1723 14.2866 10.1836 14.3206 10.1836C14.3545 10.1836 14.3894 10.195 14.398 10.2089C14.4066 10.2228 14.4347 10.2342 14.4606 10.2342C14.4864 10.2342 14.5118 10.247 14.517 10.2627C14.5223 10.2783 14.5567 10.2911 14.5935 10.2911C14.6304 10.2911 14.6665 10.3066 14.6737 10.3255C14.681 10.3444 14.7044 10.3531 14.7258 10.3449C14.7472 10.3367 14.7647 10.3426 14.7647 10.358C14.7647 10.3734 14.7804 10.386 14.7995 10.386C14.8187 10.386 14.8479 10.4022 14.8644 10.4221C14.8809 10.442 14.9162 10.4541 14.9428 10.449C14.9694 10.4438 14.9978 10.4503 15.0059 10.4634C15.014 10.4764 15.0427 10.4871 15.0697 10.4871C15.0967 10.4871 15.1188 10.4985 15.1188 10.5124C15.1188 10.5263 15.1342 10.5377 15.153 10.5377C15.1718 10.5377 15.2157 10.5641 15.2505 10.5964C15.2853 10.6286 15.3524 10.6703 15.3996 10.689C15.4469 10.7076 15.509 10.7438 15.5377 10.7694C15.5664 10.795 15.5987 10.8159 15.6095 10.8159C15.6203 10.8159 15.66 10.845 15.6977 10.8806C15.7354 10.9162 15.7941 10.9595 15.8282 10.9769C15.8622 10.9943 15.8886 11.0277 15.8867 11.051C15.8847 11.0744 15.8919 11.0882 15.9025 11.0816C15.9414 11.0576 16.0704 11.1479 16.2063 11.2943C16.2828 11.3766 16.354 11.445 16.3646 11.4461C16.3752 11.4472 16.3809 11.0129 16.3773 10.4808ZM10.4526 10.3607C10.4612 10.3468 10.4562 10.3354 10.4414 10.3354C10.4267 10.3354 10.4146 10.3468 10.4146 10.3607C10.4146 10.3746 10.4197 10.386 10.4258 10.386C10.4319 10.386 10.444 10.3746 10.4526 10.3607ZM10.5537 10.3101C10.5623 10.2962 10.5573 10.2848 10.5426 10.2848C10.5278 10.2848 10.5158 10.2962 10.5158 10.3101C10.5158 10.324 10.5208 10.3354 10.5269 10.3354C10.5331 10.3354 10.5451 10.324 10.5537 10.3101ZM33.3788 5.34042V4.74608H21.745H10.1111V5.34042V5.93476H21.745H33.3788V5.34042Z" fill="#02ADCC" stroke="#02ADCC" stroke-width="0.3"/>
</g>
<defs>
<clipPath id="clip0">
<rect width="40" height="40" fill="white"/>
</clipPath>
</defs>
</svg>
