<svg width="40" height="40" viewBox="0 0 40 40" fill="none" xmlns="http://www.w3.org/2000/svg">
<g clip-path="url(#clip0)">
<path fill-rule="evenodd" clip-rule="evenodd" d="M17.0781 29.783C17.0781 28.1991 18.4046 26.9151 20.041 26.9151C21.6774 26.9151 23.004 28.1991 23.004 29.783V31.934C23.004 32.9239 22.1749 33.7264 21.1521 33.7264H18.9299C17.9072 33.7264 17.0781 32.9239 17.0781 31.934V29.783ZM21.8929 29.783V31.934C21.8929 32.3299 21.5612 32.6509 21.1521 32.6509H18.9299C18.5208 32.6509 18.1892 32.3299 18.1892 31.934V29.783C18.1892 28.7931 19.0183 27.9906 20.041 27.9906C21.0638 27.9906 21.8929 28.7931 21.8929 29.783Z" fill="#FA873F"/>
<path d="M20.4114 22.6132H16.3373V21.5377H20.4114V22.6132Z" fill="#FA873F"/>
<path d="M22.2632 22.6132V21.5377H23.7447V22.6132H22.2632Z" fill="#FA873F"/>
<path fill-rule="evenodd" clip-rule="evenodd" d="M18.7447 9.16981C18.7447 5.21003 22.0611 2 26.1521 2C30.2431 2 33.5595 5.21003 33.5595 9.16981V18.3684C33.5595 18.3684 37.5 18.1207 37.5 22C37.5 25.8793 33.5595 25.6317 33.5595 25.6317V32.4717H33.7447C34.3584 32.4717 34.8558 32.9532 34.8558 33.5472V34.9811H35.7115C37.3382 34.9811 38.7744 36.0084 39.252 37.5135L40.041 40H15.5966C14.6272 40 13.8029 39.3993 13.4991 38.5615C13.1458 38.7908 12.7206 38.9245 12.2632 38.9245C11.0359 38.9245 10.041 37.9615 10.041 36.7736V32.8302C10.041 31.6423 11.0359 30.6792 12.2632 30.6792C12.668 30.6792 13.0475 30.784 13.3743 30.967V29.6H5.44097V22C5.44097 21.6686 5.33449 21.0269 5.02208 20.4888C4.72514 19.9775 4.27455 19.6001 3.54099 19.6001C2.67202 19.6001 2.11554 19.8678 1.76992 20.2134C1.41755 20.5658 1.22829 21.0554 1.20277 21.5912C1.14986 22.7018 1.77539 23.6986 2.60587 23.9001H4.04103V25.1001H3.14087L3.14096 32.0001C3.14096 32.221 3.32004 32.4001 3.54096 32.4001H10.041V33.6001H8.36208L6.36208 36.6001H3.44097V33.597C2.6039 33.5454 1.94097 32.8501 1.94096 32.0001L1.94087 24.944C0.615108 24.405 -0.0595779 22.8715 0.00412947 21.5341C0.0411282 20.7573 0.32064 19.9656 0.921396 19.3649C1.46145 18.8248 2.21766 18.4825 3.17347 18.4132C4.26992 15.6357 6.05982 15.1025 8.5 15.1025C10.6432 11.6035 14 10 18.7447 10.0539V9.16981ZM32.4484 9.5283H31.3373V32.4717H32.4484V9.5283ZM30.2262 15.2805V9.16981C30.2262 6.99193 28.4022 5.22641 26.1521 5.22641C23.9021 5.22641 22.0781 6.99193 22.0781 9.16981V10.4168C24.8257 11.2215 26.9275 13.1429 28.14 14.8385C28.4534 14.8277 28.7867 14.8494 29.1396 14.9082C29.5507 14.9767 29.9134 15.1087 30.2262 15.2805ZM26.8358 15.1025C25.7644 13.7596 24.1218 12.3656 22.0781 11.675V13.4866C22.6036 13.5719 23.004 14.0143 23.004 14.5472V17.2657C25.4041 18.2973 27.0781 20.6245 27.0781 23.3302V24.4001C27.7754 24.4028 28.8112 24.4815 29.6974 24.7208C29.8746 24.7687 30.0531 24.8248 30.2262 24.8913V16.8169C30.2184 16.8069 30.2104 16.7969 30.2021 16.7869C29.9556 16.4865 29.541 16.1916 28.9423 16.0919C28.5507 16.0266 28.2093 16.0224 27.9146 16.0583C26.6098 16.2174 26.141 17.1588 26.141 17.5001H24.941C24.941 16.6715 25.5997 15.5945 26.8358 15.1025ZM25.7818 4.16355C23.0909 4.34736 20.9669 6.5185 20.9669 9.16981V13.4717H19.8558V9.16981C19.8558 5.92434 22.4768 3.2714 25.7818 3.08584V4.16355ZM7.83778 26.3169C8.86802 25.9591 10.5993 25.6481 13.3743 25.6051V28.4H6.64097V27.0252C6.64986 27.0062 6.68245 26.9485 6.78607 26.8578C6.95897 26.7066 7.28221 26.5098 7.83778 26.3169ZM25.9669 35.9013V25.6V24.4V23.3302C25.9669 21.1369 24.6539 19.2382 22.743 18.3344C22.3221 19.1697 21.4362 19.7453 20.4114 19.7453C19.3324 19.7453 18.4073 19.1072 18.0169 18.1997C15.9415 19.038 14.4855 21.0208 14.4855 23.3302V24.4V25.6V37.8491C14.4855 38.443 14.9829 38.9245 15.5966 38.9245H17.0781V38.0283C17.0781 37.0384 17.9072 36.2358 18.9299 36.2358H21.5225C22.5452 36.2358 23.3743 37.0384 23.3743 38.0283V38.9245H24.4564L24.9041 37.5135C25.1062 36.8767 25.4798 36.3254 25.9669 35.9013ZM27.0781 25.6001V30.967C27.4049 30.784 27.7844 30.6792 28.1892 30.6792C29.1002 30.6792 29.8831 31.2099 30.2262 31.9692V26.2274C30.0397 26.0991 29.7539 25.979 29.3846 25.8793C28.6347 25.6768 27.7133 25.6029 27.0781 25.6001ZM33.5595 19.5687C33.5595 19.5687 36.3907 19.3307 36.5 22C36.6093 24.6693 33.5595 24.4314 33.5595 24.4314V19.5687ZM28.1363 31.7559C27.5472 31.7826 27.0781 32.2534 27.0781 32.8302V35.2338C27.504 35.07 27.9661 34.9811 28.4446 34.9811H29.3003V33.5472C29.3003 33.4115 29.3262 33.2817 29.3736 33.1622L29.2849 32.6498C29.197 32.1419 28.7387 31.7547 28.1892 31.7547C28.1714 31.7547 28.1538 31.7551 28.1363 31.7559ZM38.5374 38.9245L38.1899 37.8293C37.8555 36.7757 36.8502 36.0566 35.7115 36.0566H34.6978C34.3164 37.1009 33.2875 37.8491 32.0781 37.8491C30.8686 37.8491 29.8397 37.1009 29.4583 36.0566H28.4446C27.3415 36.0566 26.3634 36.7315 25.9995 37.7317C25.9878 37.7639 25.9767 37.7964 25.9663 37.8293L25.6187 38.9245H38.5374ZM33.7447 34.9811V33.5472H30.4114V34.9811C30.4271 35.2499 30.5052 35.8413 30.692 36.0566C30.991 36.4889 31.5002 36.7736 32.0781 36.7736C32.6559 36.7736 33.1651 36.4889 33.4641 36.0566C33.6651 35.8284 33.7349 35.2445 33.7447 34.9811ZM21.8929 14.5472V17.2358C21.8929 18.0278 21.2296 18.6698 20.4114 18.6698C19.5932 18.6698 18.9299 18.0278 18.9299 17.2358V14.5472H21.8929ZM32.4053 8.45283C32.0672 5.66006 29.7782 3.4445 26.8929 3.1172V4.20177C29.1637 4.51617 30.96 6.25479 31.2848 8.45283H32.4053ZM13.3743 32.8302C13.3743 32.2362 12.8769 31.7547 12.2632 31.7547C11.6496 31.7547 11.1521 32.2362 11.1521 32.8302V36.7736C11.1521 37.3675 11.6496 37.8491 12.2632 37.8491C12.8769 37.8491 13.3743 37.3675 13.3743 36.7736V32.8302ZM18.9299 37.3113H21.5225C21.9316 37.3113 22.2632 37.6323 22.2632 38.0283V38.7453H18.1892V38.0283C18.1892 37.6323 18.5208 37.3113 18.9299 37.3113ZM4.64097 35.4001V33.6001H6.91986L5.71986 35.4001H4.64097ZM18.7447 11.2581C14.5 11 11.605 12.5546 9.83441 15.6733C10.1526 15.7881 10.4725 15.9551 10.7599 16.1903C11.2743 16.6112 11.6469 16.9554 11.9764 17.6481H10.5631C10.3623 17.4267 10.1526 17.2439 10 17.119C7.93027 15.6733 5.5 16.5 4.50063 18.5533C5.22929 18.8027 5.73407 19.3253 6.05982 19.8863C6.49743 20.6399 6.64097 21.4981 6.64097 22V25.5244C6.87252 25.4032 7.13962 25.289 7.44416 25.1832C8.64284 24.767 10.5203 24.4479 13.3743 24.405V23.3302C13.3743 20.4874 15.2222 18.0624 17.8188 17.119V14.5472C17.8188 14.0143 18.2192 13.5719 18.7447 13.4866V11.2581Z" fill="#FA873F"/>
</g>
<defs>
<clipPath id="clip0">
<rect width="40" height="40" fill="white"/>
</clipPath>
</defs>
</svg>
