<svg width="127" height="21" viewBox="0 0 127 21" fill="none" xmlns="http://www.w3.org/2000/svg">
<path d="M5.903 7.256V9.344H11.183V13.352H5.903V15.752H11.903V20H0.575V3.008H11.903V7.256H5.903ZM22.7909 20L20.5109 16.952L18.8069 20H12.9509L17.4869 12.872L12.7109 6.464H18.6629L20.9429 9.536L22.6709 6.464H28.5269L23.8469 13.424L28.7429 20H22.7909ZM48.0142 6.368C49.7422 6.368 51.0782 6.888 52.0222 7.928C52.9822 8.968 53.4622 10.376 53.4622 12.152V20H48.1582V12.824C48.1582 12.248 47.9822 11.8 47.6302 11.48C47.2942 11.144 46.8382 10.976 46.2622 10.976C45.6702 10.976 45.2062 11.144 44.8702 11.48C44.5342 11.8 44.3662 12.248 44.3662 12.824V20H39.0622V12.824C39.0622 12.248 38.8862 11.8 38.5342 11.48C38.1982 11.144 37.7422 10.976 37.1662 10.976C36.5742 10.976 36.1102 11.144 35.7742 11.48C35.4382 11.8 35.2702 12.248 35.2702 12.824V20H29.9422V6.464H35.2702V8.288C35.6542 7.712 36.1742 7.248 36.8302 6.896C37.5022 6.544 38.2862 6.368 39.1822 6.368C40.1582 6.368 41.0222 6.584 41.7742 7.016C42.5262 7.432 43.1262 8.024 43.5742 8.792C44.0702 8.088 44.7022 7.512 45.4702 7.064C46.2382 6.6 47.0862 6.368 48.0142 6.368ZM62.2023 20.168C60.8423 20.168 59.6183 19.888 58.5303 19.328C57.4423 18.768 56.5863 17.968 55.9623 16.928C55.3543 15.872 55.0503 14.64 55.0503 13.232C55.0503 11.824 55.3543 10.6 55.9623 9.56C56.5863 8.504 57.4423 7.696 58.5303 7.136C59.6183 6.576 60.8423 6.296 62.2023 6.296C63.5623 6.296 64.7863 6.576 65.8743 7.136C66.9623 7.696 67.8103 8.504 68.4183 9.56C69.0423 10.6 69.3543 11.824 69.3543 13.232C69.3543 14.64 69.0423 15.872 68.4183 16.928C67.8103 17.968 66.9623 18.768 65.8743 19.328C64.7863 19.888 63.5623 20.168 62.2023 20.168ZM62.2023 15.56C62.6983 15.56 63.1143 15.368 63.4503 14.984C63.7863 14.584 63.9543 14 63.9543 13.232C63.9543 12.464 63.7863 11.888 63.4503 11.504C63.1143 11.104 62.6983 10.904 62.2023 10.904C61.7063 10.904 61.2903 11.104 60.9543 11.504C60.6183 11.888 60.4503 12.464 60.4503 13.232C60.4503 14 60.6103 14.584 60.9303 14.984C61.2663 15.368 61.6903 15.56 62.2023 15.56Z" fill="white"/>
<path d="M70.5481 11.48C70.5481 9.8 70.8841 8.304 71.5561 6.992C72.2441 5.68 73.2201 4.664 74.4841 3.944C75.7481 3.208 77.2361 2.84 78.9481 2.84C80.4201 2.84 81.7321 3.12 82.8841 3.68C84.0521 4.224 84.9961 5 85.7161 6.008C86.4521 7.016 86.9401 8.192 87.1801 9.536H81.5641C81.3081 8.976 80.9401 8.544 80.4601 8.24C79.9961 7.92 79.4601 7.76 78.8521 7.76C77.9561 7.76 77.2441 8.096 76.7161 8.768C76.2041 9.44 75.9481 10.344 75.9481 11.48C75.9481 12.616 76.2041 13.52 76.7161 14.192C77.2441 14.864 77.9561 15.2 78.8521 15.2C79.4601 15.2 79.9961 15.048 80.4601 14.744C80.9401 14.424 81.3081 13.984 81.5641 13.424H87.1801C86.9401 14.768 86.4521 15.944 85.7161 16.952C84.9961 17.96 84.0521 18.744 82.8841 19.304C81.7321 19.848 80.4201 20.12 78.9481 20.12C77.2361 20.12 75.7481 19.76 74.4841 19.04C73.2201 18.304 72.2441 17.28 71.5561 15.968C70.8841 14.656 70.5481 13.16 70.5481 11.48ZM95.5304 20.168C94.1704 20.168 92.9464 19.888 91.8584 19.328C90.7704 18.768 89.9144 17.968 89.2904 16.928C88.6824 15.872 88.3784 14.64 88.3784 13.232C88.3784 11.824 88.6824 10.6 89.2904 9.56C89.9144 8.504 90.7704 7.696 91.8584 7.136C92.9464 6.576 94.1704 6.296 95.5304 6.296C96.8904 6.296 98.1144 6.576 99.2024 7.136C100.29 7.696 101.138 8.504 101.746 9.56C102.37 10.6 102.682 11.824 102.682 13.232C102.682 14.64 102.37 15.872 101.746 16.928C101.138 17.968 100.29 18.768 99.2024 19.328C98.1144 19.888 96.8904 20.168 95.5304 20.168ZM95.5304 15.56C96.0264 15.56 96.4424 15.368 96.7784 14.984C97.1144 14.584 97.2824 14 97.2824 13.232C97.2824 12.464 97.1144 11.888 96.7784 11.504C96.4424 11.104 96.0264 10.904 95.5304 10.904C95.0344 10.904 94.6184 11.104 94.2824 11.504C93.9464 11.888 93.7784 12.464 93.7784 13.232C93.7784 14 93.9384 14.584 94.2584 14.984C94.5944 15.368 95.0184 15.56 95.5304 15.56ZM107.044 5.384C106.116 5.384 105.372 5.136 104.812 4.64C104.252 4.144 103.972 3.52 103.972 2.768C103.972 2 104.252 1.368 104.812 0.871999C105.372 0.359999 106.116 0.103999 107.044 0.103999C107.956 0.103999 108.692 0.359999 109.252 0.871999C109.812 1.368 110.092 2 110.092 2.768C110.092 3.52 109.812 4.144 109.252 4.64C108.692 5.136 107.956 5.384 107.044 5.384ZM109.684 6.464V20H104.356V6.464H109.684ZM121.571 6.368C123.123 6.368 124.331 6.888 125.195 7.928C126.075 8.968 126.515 10.376 126.515 12.152V20H121.211V12.824C121.211 12.184 121.035 11.68 120.683 11.312C120.347 10.928 119.891 10.736 119.315 10.736C118.723 10.736 118.259 10.928 117.923 11.312C117.587 11.68 117.419 12.184 117.419 12.824V20H112.091V6.464H117.419V8.528C117.835 7.888 118.387 7.368 119.075 6.968C119.779 6.568 120.611 6.368 121.571 6.368Z" fill="#CE0927"/>
</svg>
