<svg width="174" height="39" viewBox="0 0 174 39" fill="none" xmlns="http://www.w3.org/2000/svg">
<path d="M2.656 31V8.6H12.832C15.264 8.6 17.408 9.06933 19.264 10.008C21.12 10.9253 22.5707 12.216 23.616 13.88C24.6613 15.544 25.184 17.5173 25.184 19.8C25.184 22.0613 24.6613 24.0347 23.616 25.72C22.5707 27.384 21.12 28.6853 19.264 29.624C17.408 30.5413 15.264 31 12.832 31H2.656ZM7.84 26.744H12.576C14.0693 26.744 15.36 26.4667 16.448 25.912C17.5573 25.336 18.4107 24.5253 19.008 23.48C19.6267 22.4347 19.936 21.208 19.936 19.8C19.936 18.3707 19.6267 17.144 19.008 16.12C18.4107 15.0747 17.5573 14.2747 16.448 13.72C15.36 13.144 14.0693 12.856 12.576 12.856H7.84V26.744ZM84.516 31.384C82.724 31.384 81.0067 31.1493 79.364 30.68C77.7213 30.1893 76.3987 29.56 75.396 28.792L77.156 24.888C78.116 25.5707 79.2467 26.136 80.548 26.584C81.8707 27.0107 83.204 27.224 84.548 27.224C85.572 27.224 86.3933 27.128 87.012 26.936C87.652 26.7227 88.1213 26.4347 88.42 26.072C88.7187 25.7093 88.868 25.2933 88.868 24.824C88.868 24.2267 88.6333 23.7573 88.164 23.416C87.6947 23.0533 87.076 22.7653 86.308 22.552C85.54 22.3173 84.6867 22.104 83.748 21.912C82.8307 21.6987 81.9027 21.4427 80.964 21.144C80.0467 20.8453 79.204 20.4613 78.436 19.992C77.668 19.5227 77.0387 18.904 76.548 18.136C76.0787 17.368 75.844 16.3867 75.844 15.192C75.844 13.912 76.1853 12.7493 76.868 11.704C77.572 10.6373 78.6173 9.79467 80.004 9.176C81.412 8.536 83.172 8.216 85.284 8.216C86.692 8.216 88.0787 8.38667 89.444 8.728C90.8093 9.048 92.0147 9.53867 93.06 10.2L91.46 14.136C90.4147 13.5387 89.3693 13.1013 88.324 12.824C87.2787 12.5253 86.2547 12.376 85.252 12.376C84.2493 12.376 83.428 12.4933 82.788 12.728C82.148 12.9627 81.6893 13.272 81.412 13.656C81.1347 14.0187 80.996 14.4453 80.996 14.936C80.996 15.512 81.2307 15.9813 81.7 16.344C82.1693 16.6853 82.788 16.9627 83.556 17.176C84.324 17.3893 85.1667 17.6027 86.084 17.816C87.0227 18.0293 87.9507 18.2747 88.868 18.552C89.8067 18.8293 90.66 19.2027 91.428 19.672C92.196 20.1413 92.8147 20.76 93.284 21.528C93.7747 22.296 94.02 23.2667 94.02 24.44C94.02 25.6987 93.668 26.8507 92.964 27.896C92.26 28.9413 91.204 29.784 89.796 30.424C88.4093 31.064 86.6493 31.384 84.516 31.384Z" fill="#A661FF"/>
<path d="M37.2855 31.256C35.3228 31.256 33.5948 30.872 32.1015 30.104C30.6295 29.336 29.4882 28.2907 28.6775 26.968C27.8668 25.624 27.4615 24.0987 27.4615 22.392C27.4615 20.664 27.8562 19.1387 28.6455 17.816C29.4562 16.472 30.5548 15.4267 31.9415 14.68C33.3282 13.912 34.8962 13.528 36.6455 13.528C38.3308 13.528 39.8455 13.8907 41.1895 14.616C42.5548 15.32 43.6322 16.344 44.4215 17.688C45.2108 19.0107 45.6055 20.6 45.6055 22.456C45.6055 22.648 45.5948 22.872 45.5735 23.128C45.5522 23.3627 45.5308 23.5867 45.5095 23.8H31.5255V20.888H42.8855L40.9655 21.752C40.9655 20.856 40.7842 20.0773 40.4215 19.416C40.0588 18.7547 39.5575 18.2427 38.9175 17.88C38.2775 17.496 37.5308 17.304 36.6775 17.304C35.8242 17.304 35.0668 17.496 34.4055 17.88C33.7655 18.2427 33.2642 18.7653 32.9015 19.448C32.5388 20.1093 32.3575 20.8987 32.3575 21.816V22.584C32.3575 23.5227 32.5602 24.3547 32.9655 25.08C33.3922 25.784 33.9788 26.328 34.7255 26.712C35.4935 27.0747 36.3895 27.256 37.4135 27.256C38.3308 27.256 39.1308 27.1173 39.8135 26.84C40.5175 26.5627 41.1575 26.1467 41.7335 25.592L44.3895 28.472C43.6002 29.368 42.6082 30.0613 41.4135 30.552C40.2188 31.0213 38.8428 31.256 37.2855 31.256ZM53.2885 31L46.0565 13.784H51.2085L57.2245 28.6H54.6645L60.9045 13.784H65.7045L58.4405 31H53.2885ZM105.53 31.256C103.674 31.256 102.021 30.8827 100.57 30.136C99.1196 29.368 97.9783 28.312 97.1463 26.968C96.3356 25.624 95.9303 24.0987 95.9303 22.392C95.9303 20.664 96.3356 19.1387 97.1463 17.816C97.9783 16.472 99.1196 15.4267 100.57 14.68C102.021 13.912 103.674 13.528 105.53 13.528C107.344 13.528 108.922 13.912 110.266 14.68C111.61 15.4267 112.602 16.504 113.242 17.912L109.37 19.992C108.922 19.1813 108.357 18.584 107.674 18.2C107.013 17.816 106.288 17.624 105.498 17.624C104.645 17.624 103.877 17.816 103.194 18.2C102.512 18.584 101.968 19.128 101.562 19.832C101.178 20.536 100.986 21.3893 100.986 22.392C100.986 23.3947 101.178 24.248 101.562 24.952C101.968 25.656 102.512 26.2 103.194 26.584C103.877 26.968 104.645 27.16 105.498 27.16C106.288 27.16 107.013 26.9787 107.674 26.616C108.357 26.232 108.922 25.624 109.37 24.792L113.242 26.904C112.602 28.2907 111.61 29.368 110.266 30.136C108.922 30.8827 107.344 31.256 105.53 31.256ZM116.117 31V13.784H120.885V18.648L120.213 17.24C120.725 16.024 121.546 15.1067 122.677 14.488C123.807 13.848 125.183 13.528 126.805 13.528V18.136C126.591 18.1147 126.399 18.104 126.229 18.104C126.058 18.0827 125.877 18.072 125.685 18.072C124.319 18.072 123.21 18.4667 122.357 19.256C121.525 20.024 121.109 21.2293 121.109 22.872V31H116.117ZM129.804 31V13.784H134.796V31H129.804ZM132.3 11.384C131.383 11.384 130.636 11.1173 130.06 10.584C129.484 10.0507 129.196 9.38933 129.196 8.6C129.196 7.81067 129.484 7.14933 130.06 6.616C130.636 6.08267 131.383 5.816 132.3 5.816C133.217 5.816 133.964 6.072 134.54 6.584C135.116 7.07467 135.404 7.71467 135.404 8.504C135.404 9.336 135.116 10.0293 134.54 10.584C133.985 11.1173 133.239 11.384 132.3 11.384ZM149.605 31.256C148.154 31.256 146.885 30.936 145.797 30.296C144.709 29.656 143.856 28.6853 143.237 27.384C142.64 26.0613 142.341 24.3973 142.341 22.392C142.341 20.3653 142.629 18.7013 143.205 17.4C143.781 16.0987 144.613 15.128 145.701 14.488C146.789 13.848 148.09 13.528 149.605 13.528C151.226 13.528 152.677 13.9013 153.957 14.648C155.258 15.3733 156.282 16.3973 157.029 17.72C157.797 19.0427 158.181 20.6 158.181 22.392C158.181 24.2053 157.797 25.7733 157.029 27.096C156.282 28.4187 155.258 29.4427 153.957 30.168C152.677 30.8933 151.226 31.256 149.605 31.256ZM139.429 37.208V13.784H144.197V17.304L144.101 22.424L144.421 27.512V37.208H139.429ZM148.741 27.16C149.573 27.16 150.309 26.968 150.949 26.584C151.61 26.2 152.133 25.656 152.517 24.952C152.922 24.2267 153.125 23.3733 153.125 22.392C153.125 21.3893 152.922 20.536 152.517 19.832C152.133 19.128 151.61 18.584 150.949 18.2C150.309 17.816 149.573 17.624 148.741 17.624C147.909 17.624 147.162 17.816 146.501 18.2C145.84 18.584 145.317 19.128 144.933 19.832C144.549 20.536 144.357 21.3893 144.357 22.392C144.357 23.3733 144.549 24.2267 144.933 24.952C145.317 25.656 145.84 26.2 146.501 26.584C147.162 26.968 147.909 27.16 148.741 27.16ZM168.563 31.256C166.536 31.256 164.957 30.744 163.827 29.72C162.696 28.6747 162.131 27.128 162.131 25.08V9.976H167.123V25.016C167.123 25.7413 167.315 26.3067 167.699 26.712C168.083 27.096 168.605 27.288 169.267 27.288C170.056 27.288 170.728 27.0747 171.283 26.648L172.627 30.168C172.115 30.5307 171.496 30.808 170.771 31C170.067 31.1707 169.331 31.256 168.563 31.256ZM159.475 18.008V14.168H171.411V18.008H159.475Z" fill="white"/>
</svg>
