<svg width="48" height="48" viewBox="0 0 48 48" fill="none" xmlns="http://www.w3.org/2000/svg">
<rect x="3" y="3" width="42" height="42" rx="6" fill="url(#paint0_radial)"/>
<rect x="3" y="3" width="42" height="42" rx="6" fill="url(#paint1_radial)"/>
<rect x="3" y="3" width="42" height="42" rx="6" fill="url(#paint2_radial)"/>
<path d="M34.5 15.75C34.5 16.9926 33.4926 18 32.25 18C31.0074 18 30 16.9926 30 15.75C30 14.5074 31.0074 13.5 32.25 13.5C33.4926 13.5 34.5 14.5074 34.5 15.75Z" fill="white"/>
<path fill-rule="evenodd" clip-rule="evenodd" d="M24 31.5C28.1421 31.5 31.5 28.1421 31.5 24C31.5 19.8579 28.1421 16.5 24 16.5C19.8579 16.5 16.5 19.8579 16.5 24C16.5 28.1421 19.8579 31.5 24 31.5ZM24 28.5C26.4853 28.5 28.5 26.4853 28.5 24C28.5 21.5147 26.4853 19.5 24 19.5C21.5147 19.5 19.5 21.5147 19.5 24C19.5 26.4853 21.5147 28.5 24 28.5Z" fill="white"/>
<path fill-rule="evenodd" clip-rule="evenodd" d="M9 23.4C9 18.3595 9 15.8393 9.98094 13.9141C10.8438 12.2206 12.2206 10.8438 13.9141 9.98094C15.8393 9 18.3595 9 23.4 9H24.6C29.6405 9 32.1607 9 34.0859 9.98094C35.7794 10.8438 37.1562 12.2206 38.0191 13.9141C39 15.8393 39 18.3595 39 23.4V24.6C39 29.6405 39 32.1607 38.0191 34.0859C37.1562 35.7794 35.7794 37.1562 34.0859 38.0191C32.1607 39 29.6405 39 24.6 39H23.4C18.3595 39 15.8393 39 13.9141 38.0191C12.2206 37.1562 10.8438 35.7794 9.98094 34.0859C9 32.1607 9 29.6405 9 24.6V23.4ZM23.4 12H24.6C27.1697 12 28.9166 12.0023 30.2669 12.1127C31.5821 12.2201 32.2547 12.4149 32.7239 12.654C33.8529 13.2292 34.7708 14.1471 35.346 15.2761C35.5851 15.7453 35.7799 16.4179 35.8873 17.7331C35.9977 19.0834 36 20.8303 36 23.4V24.6C36 27.1697 35.9977 28.9166 35.8873 30.2669C35.7799 31.5821 35.5851 32.2547 35.346 32.7239C34.7708 33.8529 33.8529 34.7708 32.7239 35.346C32.2547 35.5851 31.5821 35.7799 30.2669 35.8873C28.9166 35.9977 27.1697 36 24.6 36H23.4C20.8303 36 19.0834 35.9977 17.7331 35.8873C16.4179 35.7799 15.7453 35.5851 15.2761 35.346C14.1471 34.7708 13.2292 33.8529 12.654 32.7239C12.4149 32.2547 12.2201 31.5821 12.1127 30.2669C12.0023 28.9166 12 27.1697 12 24.6V23.4C12 20.8303 12.0023 19.0834 12.1127 17.7331C12.2201 16.4179 12.4149 15.7453 12.654 15.2761C13.2292 14.1471 14.1471 13.2292 15.2761 12.654C15.7453 12.4149 16.4179 12.2201 17.7331 12.1127C19.0834 12.0023 20.8303 12 23.4 12Z" fill="white"/>
<defs>
<radialGradient id="paint0_radial" cx="0" cy="0" r="1" gradientUnits="userSpaceOnUse" gradientTransform="translate(18 34.5) rotate(-55.3758) scale(38.2794)">
<stop stop-color="#B13589"/>
<stop offset="0.79309" stop-color="#C62F94"/>
<stop offset="1" stop-color="#8A3AC8"/>
</radialGradient>
<radialGradient id="paint1_radial" cx="0" cy="0" r="1" gradientUnits="userSpaceOnUse" gradientTransform="translate(16.5 46.5) rotate(-65.1363) scale(33.8914)">
<stop stop-color="#E0E8B7"/>
<stop offset="0.444662" stop-color="#FB8A2E"/>
<stop offset="0.71474" stop-color="#E2425C"/>
<stop offset="1" stop-color="#E2425C" stop-opacity="0"/>
</radialGradient>
<radialGradient id="paint2_radial" cx="0" cy="0" r="1" gradientUnits="userSpaceOnUse" gradientTransform="translate(0.750002 4.5) rotate(-8.1301) scale(58.3363 12.4775)">
<stop offset="0.156701" stop-color="#406ADC"/>
<stop offset="0.467799" stop-color="#6A45BE"/>
<stop offset="1" stop-color="#6A45BE" stop-opacity="0"/>
</radialGradient>
</defs>
</svg>
