<svg width="113" height="30" viewBox="0 0 113 30" fill="none" xmlns="http://www.w3.org/2000/svg">
<path d="M16.816 0.599998V23H12.4V4.824H4.496V23H0.0800002V0.599998H16.816ZM30.1063 6.552C32.2609 6.552 34.0956 7.37333 35.6103 9.016C37.1463 10.6373 37.9143 12.632 37.9143 15C37.9143 17.368 37.1463 19.3733 35.6103 21.016C34.0956 22.6373 32.2609 23.448 30.1063 23.448C27.8663 23.448 26.1383 22.6693 24.9223 21.112V29.4H20.7943V7H24.9223V8.888C26.1383 7.33067 27.8663 6.552 30.1063 6.552ZM26.1703 18.264C27.0023 19.096 28.0583 19.512 29.3383 19.512C30.6183 19.512 31.6743 19.096 32.5063 18.264C33.3596 17.4107 33.7863 16.3227 33.7863 15C33.7863 13.6773 33.3596 12.6 32.5063 11.768C31.6743 10.9147 30.6183 10.488 29.3383 10.488C28.0583 10.488 27.0023 10.9147 26.1703 11.768C25.3383 12.6 24.9223 13.6773 24.9223 15C24.9223 16.3227 25.3383 17.4107 26.1703 18.264ZM76.7215 9.528C78.1295 11.0427 78.8335 12.8667 78.8335 15C78.8335 17.1333 78.1295 18.9573 76.7215 20.472C75.3135 21.9867 73.3828 22.9147 70.9295 23.256V29.4H66.8975V23.256C64.4442 22.9147 62.5135 21.9867 61.1055 20.472C59.6975 18.9573 58.9935 17.1333 58.9935 15C58.9935 12.8667 59.6975 11.0427 61.1055 9.528C62.5135 8.01333 64.4442 7.08533 66.8975 6.744V0.599998H70.9295V6.744C73.3828 7.08533 75.3135 8.01333 76.7215 9.528ZM63.0575 15C63.0575 16.0667 63.3882 16.984 64.0495 17.752C64.7108 18.52 65.6602 19.0427 66.8975 19.32V10.68C65.6602 10.9573 64.7108 11.48 64.0495 12.248C63.3882 12.9947 63.0575 13.912 63.0575 15ZM70.9295 19.288C72.1668 19.0107 73.1055 18.4987 73.7455 17.752C74.4068 16.984 74.7375 16.0667 74.7375 15C74.7375 13.912 74.4068 12.9947 73.7455 12.248C73.1055 11.48 72.1668 10.9573 70.9295 10.68V19.288ZM93.2838 7H96.3558V23H92.3238V13.912L84.8038 23H81.7318V7H85.7638V16.088L93.2838 7ZM112.746 7V10.968H107.754V23H103.626V10.968H98.57V7H112.746Z" fill="#383838"/>
<path d="M54.4575 21.016C52.8148 22.6373 50.8095 23.448 48.4415 23.448C46.0735 23.448 44.0682 22.6373 42.4255 21.016C40.8042 19.3733 39.9935 17.368 39.9935 15C39.9935 12.632 40.8042 10.6373 42.4255 9.016C44.0682 7.37333 46.0735 6.552 48.4415 6.552C50.8095 6.552 52.8148 7.37333 54.4575 9.016C56.1002 10.6373 56.9215 12.632 56.9215 15C56.9215 17.368 56.1002 19.3733 54.4575 21.016ZM45.3375 18.168C46.1695 19 47.2042 19.416 48.4415 19.416C49.6788 19.416 50.7135 19 51.5455 18.168C52.3775 17.336 52.7935 16.28 52.7935 15C52.7935 13.72 52.3775 12.664 51.5455 11.832C50.7135 11 49.6788 10.584 48.4415 10.584C47.2042 10.584 46.1695 11 45.3375 11.832C44.5268 12.664 44.1215 13.72 44.1215 15C44.1215 16.28 44.5268 17.336 45.3375 18.168Z" fill="#F06D27"/>
</svg>
