<svg width="48" height="48" viewBox="0 0 48 48" fill="none" xmlns="http://www.w3.org/2000/svg">
<path d="M12.6764 29.689C12.9108 27.7481 13.7068 26.6615 15.2069 25.5475C17.3532 24.0388 20.0342 24.8922 20.0342 24.8922V19.8295C20.686 19.8128 21.338 19.8515 21.9827 19.9449V26.4602C21.9827 26.4602 19.3025 25.6068 17.1562 27.1162C15.657 28.2294 14.8593 29.3169 14.6258 31.2577C14.6184 32.3116 14.8162 33.6892 15.727 34.8804C15.5018 34.765 15.2723 34.6334 15.0384 34.4857C13.0321 33.1385 12.6667 31.1173 12.6764 29.689ZM33.0527 10.4685C31.5763 8.85058 31.018 7.21708 30.8161 6.06958H32.6734C32.6734 6.06958 32.3031 9.07836 35.0021 12.0372L35.0395 12.077C34.3121 11.6194 33.645 11.0794 33.0527 10.4685ZM42.0001 15.0554V21.4396C42.0001 21.4396 39.63 21.3467 37.876 20.9005C35.4269 20.2765 33.8528 19.3193 33.8528 19.3193C33.8528 19.3193 32.7654 18.6367 32.6775 18.5891V31.7726C32.6775 32.5066 32.4765 34.3398 31.8636 35.8688C31.0635 37.8689 29.8288 39.1818 29.6017 39.4502C29.6017 39.4502 28.1001 41.2248 25.4508 42.4199C23.0628 43.498 20.9661 43.4707 20.3394 43.498C20.3394 43.498 16.7151 43.6415 13.4537 41.5221C12.7485 41.0549 12.0902 40.5258 11.4873 39.9416L11.5036 39.9533C14.7657 42.0728 18.3893 41.9293 18.3893 41.9293C19.0168 41.902 21.1135 41.9293 23.5007 40.8512C26.1475 39.6561 27.6516 37.8814 27.6516 37.8814C27.8763 37.6131 29.1167 36.3002 29.9135 34.2993C30.5247 32.7711 30.7274 30.9371 30.7274 30.203V17.0212C30.8153 17.0695 31.9019 17.7521 31.9019 17.7521C31.9019 17.7521 33.4768 18.7101 35.9258 19.3333C37.6806 19.7796 40.0499 19.8724 40.0499 19.8724V14.8697C40.8606 15.0515 41.5516 15.1006 42.0001 15.0554Z" fill="#EE1D52"/>
<path d="M40.0508 14.8697V19.8708C40.0508 19.8708 37.6815 19.778 35.9267 19.3318C33.4776 18.7077 31.9027 17.7506 31.9027 17.7506C31.9027 17.7506 30.8161 17.068 30.7282 17.0196V30.2046C30.7282 30.9387 30.5272 32.7726 29.9143 34.3008C29.1143 36.3017 27.8796 37.6146 27.6525 37.883C27.6525 37.883 26.15 39.6577 23.5015 40.8527C21.1143 41.9308 19.0177 41.9035 18.3901 41.9308C18.3901 41.9308 14.7666 42.0744 11.5044 39.9549L11.4882 39.9432C11.1437 39.6097 10.8196 39.2575 10.5172 38.8885C9.47617 37.6193 8.83806 36.1184 8.67772 35.6902C8.67744 35.6883 8.67744 35.6865 8.67772 35.6847C8.41971 34.9405 7.87765 33.1533 7.95171 31.4223C8.08275 28.3683 9.15712 26.4937 9.44117 26.0241C10.1935 24.7435 11.1719 23.5977 12.333 22.6378C13.3576 21.8094 14.5189 21.1504 15.7693 20.6876C17.1211 20.1442 18.5686 19.853 20.0342 19.8295V24.8922C20.0342 24.8922 17.3532 24.0419 15.2077 25.5475C13.7077 26.6615 12.9117 27.7481 12.6773 29.689C12.6675 31.1173 13.033 33.1385 15.0376 34.4865C15.2715 34.6347 15.501 34.7663 15.7262 34.8812C16.0764 35.3364 16.5027 35.7331 16.9878 36.0552C18.946 37.2948 20.5869 37.3814 22.6852 36.5763C24.0843 36.0381 25.1375 34.825 25.6258 33.481C25.9327 32.6416 25.9286 31.7967 25.9286 30.9231V6.06958H30.8121C31.0139 7.21708 31.5723 8.85058 33.0487 10.4685C33.641 11.0794 34.3081 11.6194 35.0355 12.077C35.2503 12.2993 36.3491 13.3985 37.7596 14.0732C38.489 14.422 39.2577 14.6893 40.0508 14.8697Z" fill="#383838"/>
<path d="M6.73389 34.1354V34.1393L6.85506 34.4677C6.84114 34.4295 6.79611 34.3132 6.73389 34.1354Z" fill="#69C9D0"/>
<path d="M15.7692 20.6875C14.5188 21.1502 13.3575 21.8093 12.3329 22.6377C11.1714 23.5998 10.1932 24.748 9.44187 26.031C9.15781 26.4991 8.08345 28.3752 7.95241 31.4292C7.87834 33.1602 8.42041 34.9474 8.67842 35.6916C8.67814 35.6934 8.67814 35.6953 8.67842 35.6971C8.8412 36.1214 9.47687 37.6223 10.5179 38.8954C10.8202 39.2644 11.1444 39.6166 11.4889 39.9501C10.3854 39.2186 9.40119 38.3342 8.56854 37.3259C7.5365 36.0676 6.90002 34.5823 6.73398 34.1439C6.73379 34.1408 6.73379 34.1377 6.73398 34.1346V34.1291C6.47516 33.3857 5.93147 31.5977 6.00716 29.8644C6.1382 26.8103 7.21256 24.9358 7.49662 24.4662C8.24776 23.183 9.226 22.0348 10.3876 21.0728C11.412 20.2442 12.5734 19.5851 13.824 19.1226C14.604 18.8124 15.4167 18.5836 16.2478 18.44C17.5004 18.2305 18.7797 18.2123 20.0382 18.3862V19.8294C18.5712 19.8524 17.1223 20.1436 15.7692 20.6875Z" fill="#69C9D0"/>
<path d="M30.8162 6.06953H25.9327V30.9238C25.9327 31.7975 25.9327 32.64 25.6299 33.4817C25.1367 34.825 24.0876 36.038 22.6893 36.5763C20.5902 37.3844 18.9493 37.2947 16.9919 36.0552C16.5059 35.7345 16.0786 35.3392 15.7271 34.8851C17.3948 35.7377 18.8875 35.7229 20.7367 35.0114C22.1342 34.4732 23.1849 33.2601 23.6765 31.916C23.9842 31.0767 23.9801 30.2318 23.9801 29.3589V4.5H30.7234C30.7234 4.5 30.6477 5.11783 30.8162 6.06953ZM40.0508 13.4866V14.8697C39.2592 14.6889 38.4918 14.4217 37.7637 14.0732C36.3532 13.3984 35.2544 12.2993 35.0396 12.077C35.2889 12.2339 35.5476 12.3766 35.8144 12.5044C37.5293 13.3251 39.2182 13.57 40.0508 13.4866Z" fill="#69C9D0"/>
</svg>
