<svg width="48" height="48" viewBox="0 0 48 48" fill="none" xmlns="http://www.w3.org/2000/svg">
<path fill-rule="evenodd" clip-rule="evenodd" d="M24 46.5C35.598 46.5 45 37.098 45 25.5C45 13.902 35.598 4.5 24 4.5C12.402 4.5 3 13.902 3 25.5C3 29.2663 3.9915 32.8011 5.72771 35.8575L3 46.5L13.9723 43.9557C16.9521 45.5782 20.3684 46.5 24 46.5ZM24 43.2692C33.8137 43.2692 41.7692 35.3137 41.7692 25.5C41.7692 15.6863 33.8137 7.73077 24 7.73077C14.1863 7.73077 6.23077 15.6863 6.23077 25.5C6.23077 29.2891 7.41675 32.8012 9.43776 35.6853L7.84615 41.6538L13.9199 40.1354C16.784 42.1118 20.2569 43.2692 24 43.2692Z" fill="#BFC8D0"/>
<path d="M42 24C42 33.9411 33.9411 42 24 42C20.2082 42 16.6903 40.8276 13.789 38.8255L7.63636 40.3636L9.24864 34.3176C7.20139 31.396 6 27.8383 6 24C6 14.0589 14.0589 6 24 6C33.9411 6 42 14.0589 42 24Z" fill="url(#paint0_linear)"/>
<path fill-rule="evenodd" clip-rule="evenodd" d="M24 45C35.598 45 45 35.598 45 24C45 12.402 35.598 3 24 3C12.402 3 3 12.402 3 24C3 27.7663 3.9915 31.3011 5.72771 34.3575L3 45L13.9723 42.4557C16.9521 44.0782 20.3684 45 24 45ZM24 41.7692C33.8137 41.7692 41.7692 33.8137 41.7692 24C41.7692 14.1863 33.8137 6.23077 24 6.23077C14.1863 6.23077 6.23077 14.1863 6.23077 24C6.23077 27.7891 7.41675 31.3012 9.43776 34.1853L7.84615 40.1538L13.9199 38.6354C16.784 40.6118 20.2569 41.7692 24 41.7692Z" fill="white"/>
<path d="M18.75 14.25C18.2507 13.2471 17.4848 13.3359 16.711 13.3359C15.3281 13.3359 13.1719 14.9923 13.1719 18.0751C13.1719 20.6015 14.2852 23.3672 18.0366 27.5043C21.6571 31.4969 26.4141 33.5623 30.3633 33.492C34.3125 33.4217 35.125 30.0233 35.125 28.8756C35.125 28.3669 34.8094 28.1131 34.5919 28.0441C33.2461 27.3983 30.764 26.1948 30.1992 25.9687C29.6345 25.7426 29.3396 26.0484 29.1563 26.2148C28.6441 26.7029 27.6289 28.1413 27.2813 28.4648C26.9337 28.7883 26.4154 28.6246 26.1998 28.5023C25.4062 28.1838 23.2544 27.2267 21.5392 25.5641C19.418 23.5078 19.2935 22.8003 18.8939 22.1706C18.5741 21.6668 18.8087 21.3577 18.9258 21.2226C19.3828 20.6953 20.0139 19.8811 20.2969 19.4765C20.5799 19.0719 20.3552 18.4576 20.2204 18.0751C19.6407 16.4296 19.1495 15.0522 18.75 14.25Z" fill="white"/>
<defs>
<linearGradient id="paint0_linear" x1="39.75" y1="10.5" x2="6" y2="42" gradientUnits="userSpaceOnUse">
<stop stop-color="#5BD066"/>
<stop offset="1" stop-color="#27B43E"/>
</linearGradient>
</defs>
</svg>
