<svg width="90.000000" height="41.000000" viewBox="0 0 90 41" fill="none" xmlns="http://www.w3.org/2000/svg" xmlns:xlink="http://www.w3.org/1999/xlink">
	<desc>
			Created with Pixso.
	</desc>
	<defs>
		<clipPath id="clip21_2">
			<rect id="anonymous-cyber-crime-criminal-hack-hacker-svgrepo-com" width="41.000000" height="41.000000" fill="white" fill-opacity="0"/>
		</clipPath>
	</defs>
	<g clip-path="url(#clip21_2)">
		<path id="path" d="M38.06 33.09C38.02 32.6 37.92 32.12 37.75 31.66C37.58 31.2 37.36 30.76 37.08 30.36C36.8 29.95 36.47 29.59 36.1 29.28C35.72 28.96 35.31 28.7 34.87 28.49L31.67 26.98L33.4 23.41C33.63 22.93 33.81 22.42 33.93 21.89C34.05 21.37 34.11 20.83 34.11 20.29C34.11 19.75 34.05 19.22 33.93 18.69C33.81 18.16 33.63 17.66 33.4 17.17L28.81 7.69C25.44 0.74 15.55 0.74 12.18 7.69L7.59 17.17C7.36 17.66 7.18 18.16 7.06 18.69C6.94 19.22 6.88 19.75 6.88 20.29C6.88 20.83 6.94 21.37 7.06 21.89C7.18 22.42 7.36 22.93 7.59 23.41L9.32 26.98L6.12 28.49C5.68 28.7 5.27 28.96 4.89 29.28C4.52 29.59 4.19 29.95 3.91 30.36C3.63 30.76 3.41 31.2 3.24 31.66C3.07 32.12 2.97 32.6 2.93 33.09L2.64 36.56C2.63 36.68 2.63 36.81 2.65 36.93C2.66 37.06 2.69 37.18 2.73 37.29C2.77 37.41 2.82 37.53 2.89 37.63C2.95 37.74 3.03 37.84 3.11 37.93C3.19 38.02 3.29 38.1 3.39 38.18C3.49 38.25 3.6 38.31 3.71 38.36C3.83 38.41 3.94 38.45 4.07 38.47C4.19 38.5 4.31 38.51 4.44 38.51L36.55 38.51C36.68 38.51 36.8 38.5 36.92 38.47C37.05 38.45 37.16 38.41 37.28 38.36C37.39 38.31 37.5 38.25 37.6 38.18C37.7 38.1 37.8 38.02 37.88 37.93C37.96 37.84 38.04 37.74 38.1 37.63C38.17 37.53 38.22 37.41 38.26 37.29C38.3 37.18 38.33 37.06 38.34 36.93C38.36 36.81 38.36 36.68 38.35 36.56L38.06 33.09ZM29.14 20.83C29.14 21.09 29.13 21.36 29.11 21.62C29.08 21.89 29.04 22.15 29 22.41C28.95 22.68 28.89 22.94 28.81 23.19C28.74 23.45 28.65 23.7 28.56 23.95C28.46 24.2 28.35 24.44 28.24 24.68C28.12 24.92 27.99 25.15 27.85 25.38C27.71 25.6 27.56 25.82 27.39 26.04C27.23 26.25 27.06 26.45 26.88 26.65C26.7 26.85 26.52 27.04 26.32 27.22C26.12 27.4 25.92 27.57 25.7 27.73C25.49 27.89 25.27 28.04 25.04 28.18C24.82 28.32 24.58 28.45 24.35 28.57C24.11 28.68 23.86 28.79 23.61 28.89C23.37 28.98 23.11 29.07 22.86 29.14C22.6 29.21 22.34 29.27 22.08 29.32C21.82 29.37 21.55 29.41 21.29 29.43L21.29 27.31C21.29 27.21 21.27 27.11 21.23 27.01C21.19 26.91 21.13 26.83 21.06 26.75C20.98 26.68 20.9 26.62 20.8 26.58C20.7 26.54 20.6 26.52 20.5 26.52C20.39 26.52 20.29 26.54 20.19 26.58C20.09 26.62 20.01 26.68 19.93 26.75C19.86 26.83 19.8 26.91 19.76 27.01C19.72 27.11 19.7 27.21 19.7 27.31L19.7 29.43C19.44 29.41 19.17 29.37 18.91 29.32C18.65 29.27 18.39 29.21 18.13 29.14C17.88 29.07 17.62 28.98 17.37 28.89C17.13 28.79 16.88 28.68 16.64 28.57C16.41 28.45 16.17 28.32 15.95 28.18C15.72 28.04 15.5 27.89 15.29 27.73C15.07 27.57 14.87 27.4 14.67 27.22C14.47 27.04 14.29 26.85 14.11 26.65C13.93 26.45 13.76 26.25 13.59 26.04C13.43 25.82 13.28 25.6 13.14 25.38C13 25.15 12.87 24.92 12.75 24.68C12.64 24.44 12.53 24.2 12.43 23.95C12.33 23.7 12.25 23.45 12.18 23.19C12.1 22.94 12.04 22.68 11.99 22.41C11.94 22.15 11.91 21.89 11.88 21.62C11.86 21.36 11.85 21.09 11.85 20.83L11.85 16.29C11.85 16.13 11.86 15.98 11.89 15.84C11.92 15.69 11.96 15.54 12.02 15.4C12.08 15.26 12.15 15.13 12.24 15C12.32 14.88 12.42 14.76 12.52 14.65C12.63 14.55 12.75 14.45 12.87 14.37C13 14.28 13.13 14.21 13.27 14.15C13.41 14.1 13.56 14.05 13.7 14.02C13.85 13.99 14 13.98 14.15 13.98L26.84 13.98C26.99 13.98 27.14 13.99 27.29 14.02C27.43 14.05 27.58 14.1 27.72 14.15C27.86 14.21 27.99 14.28 28.12 14.37C28.24 14.45 28.36 14.55 28.47 14.65C28.57 14.76 28.67 14.88 28.75 15C28.84 15.13 28.91 15.26 28.97 15.4C29.03 15.54 29.07 15.69 29.1 15.84C29.13 15.98 29.14 16.13 29.14 16.29L29.14 20.83Z" fill="#3A9C99" fill-opacity="1.000000" fill-rule="nonzero"/>
		<path id="path" d="M25.77 22.1C25.67 22.07 25.56 22.06 25.46 22.07C25.35 22.08 25.25 22.11 25.16 22.16C25.07 22.21 24.99 22.28 24.92 22.36C24.86 22.44 24.81 22.53 24.78 22.63C24.75 22.74 24.7 22.85 24.63 22.94C24.56 23.04 24.48 23.12 24.39 23.19C24.29 23.26 24.19 23.31 24.08 23.35C23.97 23.39 23.86 23.41 23.74 23.41C23.62 23.41 23.51 23.39 23.4 23.35C23.29 23.31 23.18 23.26 23.09 23.19C23 23.12 22.91 23.04 22.85 22.94C22.78 22.85 22.73 22.74 22.7 22.63C22.67 22.53 22.62 22.44 22.55 22.36C22.49 22.27 22.41 22.21 22.31 22.16C22.22 22.11 22.12 22.08 22.02 22.07C21.91 22.06 21.81 22.07 21.71 22.1C21.61 22.13 21.52 22.17 21.44 22.24C21.35 22.31 21.29 22.39 21.24 22.48C21.19 22.57 21.16 22.67 21.15 22.77C21.14 22.88 21.15 22.98 21.18 23.08C21.26 23.36 21.38 23.61 21.55 23.85C21.71 24.09 21.91 24.29 22.14 24.46C22.37 24.63 22.62 24.76 22.9 24.86C23.17 24.95 23.45 24.99 23.74 24.99C24.03 24.99 24.31 24.95 24.58 24.86C24.85 24.76 25.1 24.63 25.34 24.46C25.57 24.29 25.76 24.09 25.93 23.85C26.09 23.61 26.22 23.36 26.3 23.08C26.33 22.98 26.34 22.88 26.33 22.77C26.32 22.67 26.29 22.57 26.24 22.48C26.19 22.39 26.12 22.31 26.04 22.24C25.96 22.17 25.87 22.13 25.77 22.1Z" fill="#3A9C99" fill-opacity="1.000000" fill-rule="nonzero"/>
		<path id="path" d="M19.28 22.1C19.18 22.07 19.08 22.06 18.97 22.07C18.87 22.08 18.77 22.11 18.68 22.16C18.58 22.21 18.5 22.28 18.44 22.36C18.37 22.44 18.32 22.53 18.29 22.63C18.26 22.74 18.21 22.85 18.14 22.94C18.08 23.04 18 23.12 17.9 23.19C17.81 23.26 17.7 23.31 17.59 23.35C17.48 23.39 17.37 23.41 17.25 23.41C17.13 23.41 17.02 23.39 16.91 23.35C16.8 23.31 16.7 23.26 16.6 23.19C16.51 23.12 16.43 23.04 16.36 22.94C16.29 22.85 16.24 22.74 16.21 22.63C16.18 22.53 16.13 22.44 16.07 22.36C16 22.28 15.92 22.21 15.83 22.16C15.74 22.11 15.64 22.08 15.53 22.07C15.43 22.06 15.33 22.07 15.22 22.1C15.12 22.13 15.03 22.17 14.95 22.24C14.87 22.31 14.8 22.39 14.75 22.48C14.7 22.57 14.67 22.67 14.66 22.77C14.65 22.88 14.66 22.98 14.69 23.08C14.77 23.36 14.9 23.61 15.06 23.85C15.23 24.09 15.42 24.29 15.65 24.46C15.89 24.63 16.14 24.76 16.41 24.86C16.68 24.95 16.96 24.99 17.25 24.99C17.54 24.99 17.82 24.95 18.09 24.86C18.37 24.76 18.62 24.63 18.85 24.46C19.08 24.29 19.28 24.09 19.44 23.85C19.61 23.61 19.73 23.36 19.81 23.08C19.84 22.98 19.85 22.88 19.84 22.77C19.83 22.67 19.8 22.57 19.75 22.48C19.7 22.39 19.63 22.31 19.55 22.24C19.47 22.17 19.38 22.13 19.28 22.1Z" fill="#3A9C99" fill-opacity="1.000000" fill-rule="nonzero"/>
		<path id="path" d="M25.54 18.21L22.66 18.21C22.55 18.21 22.45 18.23 22.35 18.27C22.26 18.31 22.17 18.36 22.1 18.44C22.02 18.51 21.96 18.6 21.92 18.7C21.88 18.79 21.86 18.9 21.86 19C21.86 19.11 21.88 19.21 21.92 19.3C21.96 19.4 22.02 19.49 22.1 19.56C22.17 19.64 22.26 19.69 22.35 19.73C22.45 19.77 22.55 19.79 22.66 19.79L25.54 19.79C25.65 19.79 25.75 19.77 25.84 19.73C25.94 19.69 26.03 19.64 26.1 19.56C26.18 19.49 26.23 19.4 26.27 19.3C26.31 19.21 26.33 19.11 26.33 19C26.33 18.9 26.31 18.79 26.27 18.7C26.23 18.6 26.18 18.51 26.1 18.44C26.03 18.36 25.94 18.31 25.84 18.27C25.75 18.23 25.65 18.21 25.54 18.21Z" fill="#3A9C99" fill-opacity="1.000000" fill-rule="nonzero"/>
		<path id="path" d="M15.45 19.79L18.33 19.79C18.44 19.79 18.54 19.77 18.64 19.73C18.73 19.69 18.82 19.64 18.89 19.56C18.97 19.49 19.03 19.4 19.07 19.3C19.11 19.21 19.13 19.11 19.13 19C19.13 18.9 19.11 18.79 19.07 18.7C19.03 18.6 18.97 18.51 18.89 18.44C18.82 18.36 18.73 18.31 18.64 18.27C18.54 18.23 18.44 18.21 18.33 18.21L15.45 18.21C15.34 18.21 15.24 18.23 15.15 18.27C15.05 18.31 14.96 18.36 14.89 18.44C14.81 18.51 14.76 18.6 14.72 18.7C14.68 18.79 14.66 18.9 14.66 19C14.66 19.11 14.68 19.21 14.72 19.3C14.76 19.4 14.81 19.49 14.89 19.56C14.96 19.64 15.05 19.69 15.15 19.73C15.24 19.77 15.34 19.79 15.45 19.79Z" fill="#3A9C99" fill-opacity="1.000000" fill-rule="nonzero"/>
	</g>
	<path id="ANGEL" d="M70.82 19.67L70.66 22.34L71.46 22.34L71.46 25.31Q71.46 25.37 71.43 25.39Q71.41 25.42 71.35 25.42L70.15 25.42Q70.11 25.42 70.08 25.39Q70.06 25.37 70.06 25.31L70.06 16.68Q70.06 16.62 70.08 16.6Q70.11 16.57 70.15 16.57L71.35 16.57Q71.41 16.57 71.43 16.6Q71.46 16.63 71.46 16.68L71.46 18.45L74.18 18.76L74.18 16.77Q74.18 15.24 73.5 14.58Q72.83 13.91 71.3 13.91L70.22 13.91Q68.67 13.91 68 14.58Q67.34 15.24 67.34 16.77L67.34 25.22Q67.34 26.74 68 27.4Q68.67 28.07 70.22 28.07L71.3 28.07Q72.83 28.07 73.5 27.4Q74.18 26.74 74.18 25.22L74.18 19.67L70.82 19.67ZM51.06 16.66L49.4 28L52.1 28L52.39 25.99L54.63 25.99L54.94 28L57.63 28L55.58 14L50.91 14L50.64 16.66L51.06 16.66ZM58.62 16.66L58.62 28L61.34 28L61.34 20.4L63.62 28L66.34 28L66.34 14L63.62 14L63.62 21.59L61.34 14L58.51 14L58.24 16.66L58.62 16.66ZM75.36 16.66L75.36 28L80.82 28L80.98 25.33L78.08 25.33L78.08 22.32L80.38 22.32L80.54 19.66L78.08 19.66L78.08 16.66L80.82 16.66L80.98 14L75.25 14L74.98 16.66L75.36 16.66ZM82.16 16.68L82.16 28.01L84.88 28.01L84.88 28L88.53 28L88.69 25.33L84.88 25.33L84.88 14.02L82.05 14.02L81.78 16.68L82.16 16.68ZM54.25 23.34L52.77 23.34L53.52 18.34L54.25 23.34Z" fill="#FFFFFF" fill-opacity="1.000000" fill-rule="evenodd"/>
</svg>
