<svg width="14" height="25" viewBox="0 0 14 25" fill="none" xmlns="http://www.w3.org/2000/svg">
<path d="M8.64758 25H4.69753C4.03774 25 3.50103 24.456 3.50103 23.7873V14.7572H1.19649C0.53671 14.7572 0 14.213 0 13.5445V9.67503C0 9.00631 0.53671 8.46233 1.19649 8.46233H3.50103V6.52466C3.50103 4.60339 4.09627 2.96879 5.2222 1.79787C6.3532 0.621605 7.93378 0 9.79307 0L12.8056 0.00495908C13.4642 0.00610352 14 0.550079 14 1.21765V4.81033C14 5.47905 13.4635 6.02303 12.8039 6.02303L10.7756 6.02379C10.157 6.02379 9.99952 6.14948 9.96583 6.18801C9.91032 6.25191 9.84426 6.43253 9.84426 6.9313V8.46214H12.6515C12.8628 8.46214 13.0675 8.51498 13.2435 8.61454C13.6231 8.8295 13.859 9.23595 13.859 9.67522L13.8575 13.5447C13.8575 14.213 13.3208 14.757 12.661 14.757H9.84426V23.7873C9.84426 24.456 9.30736 25 8.64758 25ZM4.94707 23.5344H8.39804V14.101C8.39804 13.6545 8.75654 13.2914 9.1969 13.2914H12.4115L12.4128 9.92794H9.19671C8.75635 9.92794 8.39804 9.56478 8.39804 9.11827V6.9313C8.39804 6.35872 8.45544 5.70755 8.88187 5.21812C9.39713 4.62646 10.2092 4.55818 10.7752 4.55818L12.554 4.55742V1.47018L9.79195 1.46561C6.80391 1.46561 4.94707 3.40424 4.94707 6.52466V9.11827C4.94707 9.56459 4.58876 9.92794 4.1484 9.92794H1.44603V13.2914H4.1484C4.58876 13.2914 4.94707 13.6545 4.94707 14.101V23.5344ZM12.8028 1.47057H12.8029H12.8028Z" fill="white"/>
</svg>
