<svg width="197" height="53" viewBox="0 0 197 53" fill="none" xmlns="http://www.w3.org/2000/svg">
<path d="M6.87602 13.84H10.8L17.028 43H13.176L11.844 35.656H5.90402L4.50002 43H0.684021L6.87602 13.84ZM11.304 32.74L8.85602 19.6L6.44402 32.74H11.304ZM27.5108 43.324C25.4708 43.324 23.8748 42.916 22.7228 42.1C21.5948 41.284 20.8148 40.144 20.3828 38.68C19.9508 37.216 19.7348 35.38 19.7348 33.172V13.84H23.6228V33.352C23.6228 35.56 23.8748 37.24 24.3788 38.392C24.9068 39.544 25.9508 40.12 27.5108 40.12C29.0708 40.12 30.1028 39.544 30.6068 38.392C31.1348 37.24 31.3988 35.56 31.3988 33.352V13.84H35.2508V33.172C35.2508 35.38 35.0348 37.216 34.6028 38.68C34.1708 40.144 33.3908 41.284 32.2628 42.1C31.1348 42.916 29.5508 43.324 27.5108 43.324ZM42.7376 16.864H37.8056V13.84H51.5936V16.864H46.8056V43H42.7376V16.864ZM61.8567 43.324C59.0007 43.324 56.9487 42.52 55.7007 40.912C54.4767 39.28 53.8647 36.928 53.8647 33.856V22.804C53.8647 19.78 54.4887 17.488 55.7367 15.928C56.9847 14.368 59.0247 13.588 61.8567 13.588C64.6887 13.588 66.7167 14.38 67.9407 15.964C69.1887 17.524 69.8127 19.804 69.8127 22.804V33.892C69.8127 36.916 69.1887 39.244 67.9407 40.876C66.6927 42.508 64.6647 43.324 61.8567 43.324ZM61.8567 40.12C63.3687 40.12 64.3887 39.676 64.9167 38.788C65.4447 37.9 65.7087 36.556 65.7087 34.756V21.976C65.7087 20.2 65.4447 18.892 64.9167 18.052C64.3887 17.188 63.3687 16.756 61.8567 16.756C60.3207 16.756 59.2887 17.188 58.7607 18.052C58.2327 18.892 57.9687 20.2 57.9687 21.976V34.756C57.9687 36.556 58.2327 37.9 58.7607 38.788C59.2887 39.676 60.3207 40.12 61.8567 40.12ZM82.0375 13.84H93.3415V16.864H86.1055V26.512H91.9735V29.392H86.1055V40.084H93.4135V43H82.0375V13.84ZM100.982 27.736L95.0057 13.84H98.7857L103.214 24.136L107.246 13.84H111.026L104.906 28.06L111.314 43H107.534L102.782 32.02L98.6777 43H94.8977L100.982 27.736ZM114.065 13.84H121.301C123.821 13.84 125.645 14.524 126.773 15.892C127.925 17.26 128.501 19.264 128.501 21.904C128.501 24.28 127.889 26.128 126.665 27.448C125.441 28.768 123.665 29.428 121.337 29.428H118.133V43H114.065V13.84ZM120.005 26.512C121.205 26.512 122.129 26.38 122.777 26.116C123.449 25.852 123.929 25.396 124.217 24.748C124.505 24.1 124.649 23.164 124.649 21.94C124.649 20.452 124.541 19.36 124.325 18.664C124.109 17.968 123.677 17.476 123.029 17.188C122.405 16.9 121.409 16.756 120.041 16.756H118.133V26.512H120.005ZM131.362 13.84H137.23C140.182 13.84 142.342 14.452 143.71 15.676C145.102 16.876 145.798 18.844 145.798 21.58C145.798 25.324 144.598 27.592 142.198 28.384L146.338 43H142.414L138.598 29.32H135.43V43H131.362V13.84ZM136.978 26.404C138.73 26.404 139.978 26.056 140.722 25.36C141.49 24.664 141.874 23.404 141.874 21.58C141.874 20.38 141.742 19.444 141.478 18.772C141.214 18.076 140.746 17.572 140.074 17.26C139.402 16.924 138.454 16.756 137.23 16.756H135.43V26.404H136.978ZM150.03 13.84H161.334V16.864H154.098V26.512H159.966V29.392H154.098V40.084H161.406V43H150.03V13.84ZM171.566 43.324C169.118 43.324 167.246 42.568 165.95 41.056C164.678 39.544 163.97 37.468 163.826 34.828L167.426 33.856C167.546 35.728 167.906 37.24 168.506 38.392C169.13 39.544 170.15 40.12 171.566 40.12C172.622 40.12 173.414 39.832 173.942 39.256C174.494 38.656 174.77 37.804 174.77 36.7C174.77 35.5 174.518 34.504 174.014 33.712C173.51 32.92 172.706 32.044 171.602 31.084L166.706 26.764C165.722 25.9 165.002 24.976 164.546 23.992C164.114 22.984 163.898 21.76 163.898 20.32C163.898 18.184 164.51 16.528 165.734 15.352C166.958 14.176 168.626 13.588 170.738 13.588C173.042 13.588 174.782 14.2 175.958 15.424C177.134 16.648 177.842 18.544 178.082 21.112L174.626 22.048C174.506 20.344 174.17 19.036 173.618 18.124C173.09 17.188 172.13 16.72 170.738 16.72C169.706 16.72 168.914 16.996 168.362 17.548C167.81 18.076 167.534 18.868 167.534 19.924C167.534 20.788 167.678 21.52 167.966 22.12C168.254 22.696 168.746 23.284 169.442 23.884L174.374 28.204C175.646 29.332 176.654 30.556 177.398 31.876C178.166 33.196 178.55 34.696 178.55 36.376C178.55 38.512 177.902 40.204 176.606 41.452C175.31 42.7 173.63 43.324 171.566 43.324ZM188.582 43.324C186.134 43.324 184.262 42.568 182.966 41.056C181.694 39.544 180.986 37.468 180.842 34.828L184.442 33.856C184.562 35.728 184.922 37.24 185.522 38.392C186.146 39.544 187.166 40.12 188.582 40.12C189.638 40.12 190.43 39.832 190.958 39.256C191.51 38.656 191.786 37.804 191.786 36.7C191.786 35.5 191.534 34.504 191.03 33.712C190.526 32.92 189.722 32.044 188.618 31.084L183.722 26.764C182.738 25.9 182.018 24.976 181.562 23.992C181.13 22.984 180.914 21.76 180.914 20.32C180.914 18.184 181.526 16.528 182.75 15.352C183.974 14.176 185.642 13.588 187.754 13.588C190.058 13.588 191.798 14.2 192.974 15.424C194.15 16.648 194.858 18.544 195.098 21.112L191.642 22.048C191.522 20.344 191.186 19.036 190.634 18.124C190.106 17.188 189.146 16.72 187.754 16.72C186.722 16.72 185.93 16.996 185.378 17.548C184.826 18.076 184.55 18.868 184.55 19.924C184.55 20.788 184.694 21.52 184.982 22.12C185.27 22.696 185.762 23.284 186.458 23.884L191.39 28.204C192.662 29.332 193.67 30.556 194.414 31.876C195.182 33.196 195.566 34.696 195.566 36.376C195.566 38.512 194.918 40.204 193.622 41.452C192.326 42.7 190.646 43.324 188.582 43.324Z" fill="white"/>
<path d="M0 5.5H80" stroke="white" stroke-width="3"/>
<path d="M0 48.5H80" stroke="white" stroke-width="3"/>
</svg>
