<svg width="25" height="19" viewBox="0 0 25 19" fill="none" xmlns="http://www.w3.org/2000/svg">
<path d="M24.7936 0.329932C24.5487 0.0331927 24.1427 -0.0768511 23.7816 0.0552015L0.849204 8.29881C0.391059 8.46444 0.069481 8.8661 0.00978113 9.34707C-0.0493466 9.82576 0.16275 10.2902 0.560622 10.5576L3.83859 12.7835C4.15616 12.9992 4.56452 13.0223 4.9046 12.8438L12.0152 9.11389L6.47339 13.2301C6.21323 13.4234 6.05778 13.7317 6.05778 14.0547V17.8675C6.05778 18.2608 6.27465 18.6211 6.62369 18.8082C6.97331 18.9953 7.39559 18.9767 7.72766 18.7589L10.2181 17.1156L12.6671 18.7767C12.8817 18.923 13.1373 19 13.3951 19C13.4823 19 13.5699 18.9911 13.6561 18.9732C14 18.9019 14.3042 18.6905 14.4909 18.3934L24.8663 1.37497C25.0683 1.0473 25.0393 0.627998 24.7936 0.329932ZM13.3404 17.4689L10.8042 15.7486C10.6278 15.6287 10.4245 15.5687 10.2213 15.5687C10.0226 15.5687 9.82364 15.6262 9.6495 15.7412L7.52339 17.1441V14.2698L17.309 7.00143C17.746 6.6768 17.856 6.08598 17.5648 5.62721C17.2734 5.16844 16.6899 5.01343 16.2075 5.26653L4.45065 11.4337L1.67814 9.55103L22.7957 1.95991L13.3404 17.4689Z" fill="white"/>
</svg>
