<svg width="26" height="26" viewBox="0 0 26 26" fill="none" xmlns="http://www.w3.org/2000/svg">
<path d="M21.6408 3.63191C19.3304 1.32148 16.2592 0.0492554 12.9916 0.0492554C12.9914 0.0492554 12.9907 0.0492554 12.9905 0.0492554C11.3743 0.0494478 9.79942 0.362355 8.30975 0.979509C6.81988 1.59666 5.48511 2.48901 4.34221 3.63191C2.03197 5.94215 0.759755 9.01387 0.759755 12.2811C0.759755 14.2296 1.22989 16.1659 2.12069 17.8911L0.0646627 23.7648C-0.0802445 24.1791 0.0223259 24.6294 0.332924 24.9398C0.550188 25.1573 0.836154 25.2727 1.1302 25.2727C1.25625 25.2727 1.38365 25.2516 1.50796 25.2081L7.38161 23.1522C9.10683 24.043 11.0432 24.5132 12.9916 24.5132C16.2589 24.5132 19.3304 23.2408 21.6408 20.9305C23.9511 18.6203 25.2235 15.5486 25.2235 12.2813C25.2235 9.01387 23.9513 5.94215 21.6408 3.63191ZM20.5947 19.8844C18.5639 21.9154 15.8636 23.0337 12.9916 23.0337C11.2346 23.0337 9.48921 22.5992 7.94392 21.7767C7.66373 21.6277 7.33254 21.6021 7.03522 21.7062L1.69886 23.5739L3.56668 18.2375C3.67079 17.9398 3.64501 17.6086 3.49606 17.3286C2.67376 15.7837 2.23904 14.0383 2.23904 12.2811C2.23904 9.40914 3.3575 6.70883 5.38832 4.67801C7.41894 2.64739 10.1189 1.52893 12.9907 1.52854H12.9916C15.8638 1.52854 18.5639 2.647 20.5947 4.67801C22.6257 6.70883 23.7442 9.40895 23.7442 12.2811C23.7442 15.1533 22.6257 17.8536 20.5947 19.8844Z" fill="white"/>
<path d="M17.5374 13.3738C16.9748 12.8111 16.0591 12.8111 15.4964 13.3738L14.881 13.9892C13.3528 13.1565 12.1162 11.9199 11.2833 10.3917L11.8988 9.77632C12.4617 9.21362 12.4617 8.29799 11.8988 7.7353L10.2403 6.07685C9.67763 5.51416 8.762 5.51416 8.1993 6.07685L6.87262 7.40353C6.11268 8.16348 6.07477 9.46995 6.76582 11.0824C7.36585 12.4824 8.46391 14.0212 9.85775 15.415C11.2516 16.8088 12.7903 17.9069 14.1903 18.5069C14.9564 18.8352 15.6533 18.999 16.2554 18.999C16.9207 18.999 17.4703 18.7991 17.8692 18.4001L19.1959 17.0732V17.0734C19.4686 16.8008 19.6187 16.4384 19.6187 16.0529C19.6187 15.6673 19.4686 15.3049 19.1959 15.0324L17.5374 13.3738ZM16.8231 17.354C16.6062 17.5709 15.9392 17.6469 14.7732 17.1473C13.542 16.6197 12.1678 15.6328 10.9039 14.3689C9.63991 13.1049 8.65327 11.7309 8.1256 10.4997C7.62583 9.3337 7.70185 8.66651 7.91872 8.44964L9.22 7.14836L10.8273 8.75581L10.0569 9.52634C9.70861 9.87465 9.62451 10.4029 9.84794 10.8409C10.8607 12.8269 12.4459 14.412 14.4319 15.4248C14.87 15.6482 15.3983 15.5643 15.7466 15.2158L16.5169 14.4455L18.1244 16.0529L16.8231 17.354Z" fill="white"/>
</svg>
