<svg width="17" height="16" viewBox="0 0 17 16" fill="none" xmlns="http://www.w3.org/2000/svg">
<g clip-path="url(#clip0_201_63)">
<path fill-rule="evenodd" clip-rule="evenodd" d="M15.8448 15.1508C15.4542 15.5413 14.8211 15.5413 14.4305 15.1508L1.28783 2.00813C0.897303 1.61761 0.897302 0.984445 1.28783 0.59392C1.67835 0.203395 2.31152 0.203394 2.70204 0.593917L15.8448 13.7365C16.2353 14.1271 16.2353 14.7602 15.8448 15.1508Z" fill="white"/>
<path fill-rule="evenodd" clip-rule="evenodd" d="M1.28764 15.1508C1.67817 15.5413 2.31133 15.5413 2.70186 15.1508L15.8446 2.00813C16.2351 1.61761 16.2351 0.984445 15.8446 0.59392C15.4541 0.203395 14.8209 0.203394 14.4304 0.593918L1.28764 13.7365C0.897122 14.1271 0.89712 14.7602 1.28764 15.1508Z" fill="white"/>
</g>
<defs>
<clipPath id="clip0_201_63">
<rect width="17" height="16" fill="white"/>
</clipPath>
</defs>
</svg>
