<svg width="24" height="17" viewBox="0 0 24 17" fill="none" xmlns="http://www.w3.org/2000/svg">
<path fill-rule="evenodd" clip-rule="evenodd" d="M23.7048 1.99463C23.7048 2.54691 23.2571 2.99463 22.7048 2.99463H6.29051C5.73823 2.99463 5.29051 2.54691 5.29051 1.99463C5.29051 1.44234 5.73823 0.994629 6.29051 0.994629H22.7048C23.2571 0.994629 23.7048 1.44234 23.7048 1.99463ZM23.7048 9.0162C23.7048 9.56849 23.2571 10.0162 22.7048 10.0162H1.08252C0.53023 10.0162 0.0825195 9.56849 0.0825195 9.0162C0.0825195 8.46392 0.53023 8.0162 1.08252 8.0162H22.7048C23.2571 8.0162 23.7048 8.46392 23.7048 9.0162ZM23.7048 15.9448C23.7048 16.497 23.2571 16.9448 22.7048 16.9448H6.29051C5.73823 16.9448 5.29051 16.497 5.29051 15.9448C5.29051 15.3925 5.73823 14.9448 6.29051 14.9448H22.7048C23.2571 14.9448 23.7048 15.3925 23.7048 15.9448Z" fill="white"/>
</svg>
