<svg width="70" height="70" viewBox="0 0 70 70" fill="none" xmlns="http://www.w3.org/2000/svg">
<path d="M17.5 0C15.0938 0 13.125 1.96875 13.125 4.375V65.625C13.125 68.0312 15.0938 70 17.5 70H61.25C63.6562 70 65.625 68.0312 65.625 65.625V17.5L48.125 0H17.5Z" fill="#E2E5E7"/>
<path d="M52.5 17.5H65.625L48.125 0V13.125C48.125 15.5312 50.0938 17.5 52.5 17.5Z" fill="#B0B7BD"/>
<path d="M65.625 30.625L52.5 17.5H65.625V30.625Z" fill="#CAD1D8"/>
<path d="M56.875 56.875C56.875 58.0781 55.8906 59.0625 54.6875 59.0625H6.5625C5.35938 59.0625 4.375 58.0781 4.375 56.875V35C4.375 33.7969 5.35938 32.8125 6.5625 32.8125H54.6875C55.8906 32.8125 56.875 33.7969 56.875 35V56.875Z" fill="#F15642"/>
<path d="M13.9103 41.4465C13.9103 40.869 14.3653 40.239 15.0981 40.239H19.1384C21.4134 40.239 23.4609 41.7615 23.4609 44.6796C23.4609 47.4446 21.4134 48.9846 19.1384 48.9846H16.2181V51.2946C16.2181 52.0646 15.7281 52.4999 15.0981 52.4999C14.5206 52.4999 13.9103 52.0646 13.9103 51.2946V41.4465ZM16.2181 42.4418V46.7993H19.1384C20.3109 46.7993 21.2384 45.7646 21.2384 44.6796C21.2384 43.4568 20.3109 42.4418 19.1384 42.4418H16.2181Z" fill="white"/>
<path d="M26.8866 52.4999C26.3091 52.4999 25.6791 52.1849 25.6791 51.4171V41.4815C25.6791 40.8537 26.3091 40.3965 26.8866 40.3965H30.8919C38.885 40.3965 38.71 52.4999 31.0494 52.4999H26.8866ZM27.9891 42.5315V50.3671H30.8919C35.6147 50.3671 35.8247 42.5315 30.8919 42.5315H27.9891Z" fill="white"/>
<path d="M41.545 42.6715V45.4518H46.0053C46.6353 45.4518 47.2653 46.0818 47.2653 46.6921C47.2653 47.2696 46.6353 47.7421 46.0053 47.7421H41.545V51.4149C41.545 52.0274 41.1097 52.4977 40.4972 52.4977C39.7272 52.4977 39.2569 52.0274 39.2569 51.4149V41.4793C39.2569 40.8515 39.7294 40.3943 40.4972 40.3943H46.6375C47.4075 40.3943 47.8625 40.8515 47.8625 41.4793C47.8625 42.0393 47.4075 42.6693 46.6375 42.6693H41.545V42.6715Z" fill="white"/>
<path d="M54.6875 59.0625H13.125V61.25H54.6875C55.8906 61.25 56.875 60.2656 56.875 59.0625V56.875C56.875 58.0781 55.8906 59.0625 54.6875 59.0625Z" fill="#CAD1D8"/>
</svg>
