<svg width="39" height="45" viewBox="0 0 39 45" fill="none" xmlns="http://www.w3.org/2000/svg">
<path d="M2.6 0.642857C1.95 1.28571 1.49805 2.89286 1.49805 2.89286V21.0937V23.4643C1.49805 27.1205 1.49805 25.0714 1.49805 27V39.7266V42.5674C1.49805 42.5674 1.625 43.7143 2.275 44.3571C2.925 45 4.225 45 4.225 45C4.96082 45 9.35391 45 11.7 45H15.6C18.266 45 23.5525 45 25.025 45H35.75C35.75 45 37.7001 44.6785 38.35 44.0357C39 43.3929 39 41.7857 39 41.7857V9.22852L31.5796 7.33887L29.6689 0H5.2C5.2 0 3.25 0 2.6 0.642857Z" fill="#E2E5E7"/>
<path d="M39 17.3571L29.9 9H39V17.3571Z" fill="#CAD1D8"/>
<path d="M39 9.22852H29.6689V0L39 9.22852Z" fill="#B0B7BD"/>
<path d="M17.4941 5.27344H6.83008V7.91016H17.4941V5.27344Z" fill="#95A5A5"/>
<path d="M17.4941 10.5469H6.83008V13.1836H17.4941V10.5469Z" fill="#95A5A5"/>
<path d="M33.668 15.8203H6.83008V18.457H33.668V15.8203Z" fill="#95A5A5"/>
<path d="M33.668 21.0938H6.60258V23.7305H33.668V21.0938Z" fill="#95A5A5"/>
<path d="M27.0029 39.7266C30.678 39.7266 33.668 36.7695 33.668 33.1348C33.668 29.5 30.678 26.543 27.0029 26.543C23.3278 26.543 20.3379 29.5 20.3379 33.1348C20.3379 36.7695 23.3278 39.7266 27.0029 39.7266Z" fill="#F15642"/>
<path d="M27.0029 37.0898C24.7943 37.0898 23.0039 35.3191 23.0039 33.1348C23.0039 30.9504 24.7943 29.1797 27.0029 29.1797C29.2115 29.1797 31.002 30.9504 31.002 33.1348C31.002 35.3191 29.2115 37.0898 27.0029 37.0898Z" fill="#FA9689"/>
<path d="M20.3379 15.8203H6.83008V18.457H20.3379V15.8203Z" fill="#95A5A5"/>
<path d="M20.3379 21.0938H6.60258V23.7305H20.3379V21.0938Z" fill="#95A5A5"/>
</svg>
