<?xml version="1.0" encoding="UTF-8"?>
<!DOCTYPE svg PUBLIC "-//W3C//DTD SVG 1.1//EN" "http://www.w3.org/Graphics/SVG/1.1/DTD/svg11.dtd">
<!-- Creator: CorelDRAW 2019 (64-Bit) -->
<svg xmlns="http://www.w3.org/2000/svg" xml:space="preserve" width="815px" height="236px" version="1.1" style="shape-rendering:geometricPrecision; text-rendering:geometricPrecision; image-rendering:optimizeQuality; fill-rule:evenodd; clip-rule:evenodd"
viewBox="0 0 317.9 92.12"
 xmlns:xlink="http://www.w3.org/1999/xlink">
 <defs>
  <style type="text/css">
   <![CDATA[
    .fil2 {fill:#FEFEFE}
    .fil1 {fill:#E31E24}
    .fil3 {fill:#B1B8C2}
    .fil0 {fill:#E31E24;fill-rule:nonzero}
   ]]>
  </style>
 </defs>
 <g id="Слой_x0020_1">
  <metadata id="CorelCorpID_0Corel-Layer"/>
  <g id="_2110665739376">
   <path class="fil0" d="M309.45 0c-2.34,0 -4.33,0.81 -5.98,2.46 -1.66,1.66 -2.47,3.65 -2.47,5.99 0,2.34 0.81,4.33 2.47,5.99 1.65,1.65 3.64,2.46 5.98,2.46 2.34,0 4.34,-0.81 5.99,-2.46 1.65,-1.66 2.46,-3.65 2.46,-5.99 0,-2.34 -0.81,-4.33 -2.46,-5.99 -1.65,-1.65 -3.65,-2.46 -5.99,-2.46zm0 1.65c1.9,0 3.53,0.66 4.84,1.97 1.31,1.31 1.96,2.9 1.96,4.77 0,1.9 -0.65,3.52 -1.96,4.83 -1.31,1.31 -2.94,1.97 -4.84,1.97 -1.9,0 -3.49,-0.66 -4.8,-2 -1.31,-1.34 -1.96,-2.93 -1.96,-4.8 0,-1.87 0.65,-3.46 1.96,-4.77 1.31,-1.31 2.9,-1.97 4.8,-1.97zm-3.58 2.72l0 8.01c0.78,0.22 1.56,0.22 2.33,0l0 -2.65 1.13 0 1.99 2.65c0.84,0.22 1.69,0.22 2.53,0l-2.21 -2.99c1.06,-0.35 1.59,-1.1 1.59,-2.25 0,-0.9 -0.25,-1.59 -0.75,-2.06 -0.5,-0.46 -1.22,-0.68 -2.12,-0.68l-4.49 -0.03zm2.3 1.71l1.56 0c0.78,0 1.19,0.34 1.19,1 0,0.65 -0.41,1 -1.19,1l-1.56 0 0 -2z"/>
   <polygon class="fil1" points="0,73.66 14.48,18.8 207.73,18.8 219.5,43.74 193.02,73.66 "/>
   <path class="fil2" d="M24.07 52.39l-2.27 8.27 -8.47 0 8.17 -29.61 21.83 0c5.86,0 9.34,0.98 8.66,7.74 -0.1,1.07 -0.32,2.12 -0.61,3.16 -0.88,3.16 -2.45,5.31 -4.98,6.94 1.51,0.83 2.49,2.02 2.28,4.12 -0.05,0.56 -0.26,1.29 -0.4,1.83 -0.44,1.74 -0.92,3.47 -1.4,5.19l-0.17 0.63 -8.48 0 0.32 -1.1c0.38,-1.33 1.2,-3.84 1.35,-5.19 0.2,-2.01 -2.08,-1.98 -3.55,-1.98l-12.28 0zm64.84 -1.89c-2.09,7.62 -5.66,10.16 -13.56,10.16l-12.25 0c-5.26,0 -9.71,-1.33 -9.09,-7.46 0.1,-1.06 0.32,-2.12 0.6,-3.15l2.41 -8.76c2.16,-7.89 5.75,-10.57 13.88,-10.57l12.25 0c5.32,0 9.52,1.21 8.9,7.42 -0.12,1.22 -0.41,2.43 -0.73,3.6l-2.41 8.76zm10.76 -19.45l22.2 0c5.46,0 9.22,1.76 8.61,7.82 -0.11,1.15 -0.38,2.31 -0.68,3.44l-2.06 7.39c-2.05,7.35 -5.69,10.96 -13.52,10.96l-22.72 0 8.17 -29.61zm73.83 8.91l-14.58 20.7 -10.68 0 -3.22 -21.19 -6.15 21.19 -8.14 0 8.17 -29.61 13.83 0 2.94 21.36 14.74 -21.36 14 0 -8.16 29.61 -8.47 0 5.72 -20.7zm26.23 -8.91l-8.17 29.61 -8.46 0 8.17 -29.61 8.46 0zm-171.77 7.27l-1.89 6.79 12.8 0c3.17,0 4.18,-2.23 4.47,-5.09 0.16,-1.56 -0.65,-1.7 -2.09,-1.7l-13.29 0zm35.18 11.5c-0.14,0.53 -0.29,1.08 -0.35,1.63 -0.21,2.13 1.78,1.94 3.43,1.94l8.84 0c3.67,0 4.72,-0.51 5.71,-4.07l2.06 -7.43c0.15,-0.56 0.31,-1.17 0.37,-1.75 0.23,-2.28 -1.68,-2.14 -3.49,-2.14l-8.6 0c-3.74,0 -4.89,0.77 -5.9,4.39l-2.07 7.43zm38.83 3.57l10.87 0c3.62,0 5.55,-0.44 6.56,-4.11l2.02 -7.35c0.12,-0.37 0.23,-0.87 0.27,-1.26 0.24,-2.4 -2.43,-2.35 -4.19,-2.35l-11.36 0 -4.17 15.07z"/>
   <polygon class="fil3" points="206.81,92.12 219.2,92.12 237.79,71.12 247.71,92.12 260.99,92.12 242.16,52.24 "/>
   <polygon class="fil1" points="217.77,0.57 204.49,0.57 225.25,44.56 183.15,92.12 195.92,92.12 238.38,44.22 "/>
   <polygon class="fil3" points="277.07,0.57 264.18,0.57 248.76,17.99 240.54,0.57 226.78,0.57 244.26,37.59 "/>
   <polygon class="fil1" points="300.23,0.57 287.96,0.57 248.04,45.61 270,92.12 283.76,92.12 261.3,44.56 "/>
  </g>
 </g>
</svg>
