<?xml version="1.0" standalone="no"?>
<!DOCTYPE svg PUBLIC "-//W3C//DTD SVG 20010904//EN"
 "http://www.w3.org/TR/2001/REC-SVG-20010904/DTD/svg10.dtd">
<svg version="1.0" xmlns="http://www.w3.org/2000/svg"
 width="1040.000000pt" height="1040.000000pt" viewBox="0 0 1040.000000 1040.000000"
 preserveAspectRatio="xMidYMid meet">
<metadata>
Created by potrace 1.14, written by Peter Selinger 2001-2017
</metadata>
<g transform="translate(0.000000,1040.000000) scale(0.100000,-0.100000)"
fill="#000000" stroke="none">
<path d="M2166 7408 c-9 -12 -16 -38 -16 -58 0 -19 -8 -51 -19 -70 -10 -19
-21 -63 -24 -98 -3 -34 -10 -69 -17 -77 -6 -7 -16 -44 -22 -81 -5 -37 -16 -73
-23 -80 -7 -7 -15 -36 -19 -65 -4 -29 -14 -61 -22 -73 -8 -11 -14 -35 -14 -53
0 -18 -9 -50 -20 -70 -11 -21 -20 -56 -20 -78 0 -22 -7 -53 -16 -70 -9 -16
-20 -64 -26 -105 -5 -41 -14 -78 -20 -81 -6 -4 -15 -35 -19 -69 -4 -34 -14
-69 -22 -78 -8 -9 -17 -41 -21 -71 -4 -30 -14 -63 -22 -75 -8 -11 -14 -35 -14
-54 0 -18 -9 -50 -20 -72 -11 -22 -20 -55 -20 -74 0 -19 -8 -57 -19 -83 -10
-26 -21 -75 -25 -108 -4 -32 -13 -66 -20 -75 -8 -8 -17 -38 -21 -67 -4 -29
-13 -57 -21 -64 -8 -6 -14 -29 -14 -53 0 -23 -8 -57 -18 -76 -11 -19 -22 -57
-25 -84 -4 -27 -11 -54 -17 -61 -5 -6 -14 -43 -20 -82 -5 -38 -16 -83 -25 -99
-8 -16 -15 -47 -15 -69 0 -22 -8 -56 -18 -75 -11 -19 -22 -55 -26 -79 -4 -24
-13 -53 -21 -64 -8 -12 -15 -42 -15 -67 0 -28 -8 -56 -20 -75 -11 -16 -20 -45
-20 -63 0 -18 -9 -54 -19 -80 -11 -26 -22 -71 -25 -101 -3 -29 -10 -59 -16
-66 -6 -8 -16 -44 -21 -80 -5 -37 -16 -76 -24 -88 -8 -12 -15 -37 -15 -56 0
-18 -8 -48 -19 -65 -10 -17 -21 -55 -24 -84 -3 -29 -13 -62 -22 -74 -8 -13
-15 -41 -15 -63 0 -22 -7 -53 -16 -70 -19 -36 -33 -155 -22 -184 7 -21 11 -21
430 -21 484 0 461 -4 471 81 4 28 13 59 20 68 8 9 17 37 20 64 4 26 13 57 21
70 7 12 17 46 20 76 4 29 14 60 22 68 8 8 14 33 14 56 0 23 7 56 16 72 9 17
20 60 25 97 5 37 15 78 23 90 7 13 17 50 21 82 4 33 13 65 19 72 7 7 16 36 19
65 4 28 13 59 20 68 8 9 17 43 21 76 4 32 13 66 20 75 8 8 16 26 18 40 l3 25
646 0 c602 0 648 -1 666 -17 11 -10 27 -18 37 -18 9 0 37 -20 61 -45 49 -48
49 -50 45 -190 -1 -38 -10 -95 -20 -125 -10 -30 -21 -81 -24 -113 -4 -32 -12
-68 -20 -80 -8 -12 -17 -47 -21 -77 -3 -30 -12 -62 -19 -70 -7 -8 -16 -37 -20
-63 -3 -27 -13 -58 -21 -70 -8 -12 -15 -40 -15 -62 0 -22 -9 -57 -20 -78 -11
-20 -20 -52 -20 -70 0 -18 -7 -55 -17 -82 -16 -48 -16 -49 7 -67 22 -18 54
-18 714 -16 l692 3 31 25 c18 14 32 29 32 33 1 5 20 28 44 51 49 49 148 162
160 183 5 7 24 29 43 48 19 19 34 37 34 41 0 3 19 25 43 48 74 74 192 206 201
227 5 10 13 19 18 19 5 0 13 11 18 25 5 14 16 25 25 25 8 0 15 4 15 9 0 5 19
29 43 54 98 104 199 218 239 268 23 30 60 73 82 95 51 51 173 187 222 245 20
24 40 46 45 47 5 2 9 8 9 14 0 5 19 29 43 52 65 66 109 115 162 181 55 69 55
69 137 156 104 109 124 133 137 157 16 29 4 131 -15 139 -7 3 -16 21 -20 40
-4 19 -12 37 -19 39 -7 3 -16 22 -20 42 -4 20 -15 47 -26 60 -10 14 -19 34
-19 44 0 11 -9 31 -20 45 -11 14 -20 32 -20 40 0 8 -9 26 -20 40 -11 14 -20
34 -20 43 0 10 -7 23 -15 30 -8 7 -20 30 -25 51 -6 22 -15 39 -20 39 -5 0 -12
16 -16 35 -3 19 -12 39 -20 46 -7 6 -16 26 -20 45 -3 18 -12 38 -19 44 -8 6
-17 25 -20 41 -4 17 -13 33 -21 36 -7 3 -16 20 -20 39 -3 18 -12 38 -19 44 -8
6 -17 26 -21 43 -3 18 -15 43 -25 56 -11 13 -19 34 -19 46 0 12 -9 32 -20 45
-11 13 -20 31 -20 40 0 9 -9 27 -20 40 -11 13 -20 31 -20 40 0 9 -9 27 -20 40
-11 13 -20 29 -20 37 0 8 -9 32 -20 54 -11 21 -29 57 -40 78 -11 22 -20 46
-20 54 0 8 -6 20 -13 26 -8 6 -19 29 -26 51 -6 22 -16 40 -21 40 -4 0 -11 13
-15 29 -3 16 -12 35 -20 41 -8 6 -17 26 -20 43 -4 18 -13 39 -20 47 -8 8 -18
27 -24 42 -14 37 -34 40 -333 36 -224 -3 -259 -5 -274 -20 -16 -15 -15 -18 5
-44 11 -14 21 -37 21 -51 0 -13 6 -26 14 -29 8 -3 17 -17 21 -31 3 -15 15 -38
26 -51 10 -14 19 -36 19 -49 0 -14 9 -36 20 -50 11 -14 20 -36 20 -48 0 -12 9
-32 20 -45 11 -13 20 -30 20 -37 0 -8 9 -26 20 -40 11 -14 20 -33 20 -43 0 -9
9 -27 20 -40 11 -13 20 -30 20 -37 0 -8 9 -26 20 -40 11 -14 20 -36 20 -48 0
-12 9 -32 20 -45 11 -13 20 -33 20 -45 0 -13 6 -28 14 -34 8 -7 18 -26 21 -42
4 -17 13 -33 21 -36 8 -3 17 -23 20 -45 4 -22 13 -42 20 -45 7 -3 16 -21 20
-40 4 -19 13 -37 20 -40 8 -3 17 -22 20 -44 4 -21 15 -46 25 -55 11 -9 19 -27
19 -39 0 -12 9 -34 20 -48 11 -14 20 -32 20 -40 0 -7 9 -24 20 -37 11 -13 20
-31 20 -40 0 -9 9 -27 20 -40 11 -13 20 -33 20 -45 0 -13 7 -28 15 -35 8 -7
17 -27 21 -46 3 -18 12 -38 20 -45 7 -6 16 -27 20 -46 4 -19 13 -37 20 -40 7
-3 16 -21 20 -40 4 -19 13 -37 20 -40 7 -3 16 -21 20 -40 4 -19 12 -37 19 -39
32 -13 22 -43 -32 -101 -30 -32 -71 -79 -91 -105 -20 -27 -40 -48 -44 -48 -4
0 -8 -5 -8 -11 0 -6 -27 -37 -60 -69 -33 -32 -60 -60 -60 -63 0 -3 -27 -34
-60 -69 -33 -35 -60 -66 -60 -70 0 -4 -18 -24 -40 -44 -22 -21 -40 -41 -40
-46 0 -5 -28 -37 -62 -72 -61 -60 -166 -177 -180 -200 -14 -22 -44 -57 -98
-115 -30 -33 -73 -79 -95 -103 -23 -23 -63 -70 -90 -103 -28 -33 -56 -64 -62
-68 -7 -4 -13 -13 -13 -19 0 -5 -27 -36 -60 -68 -33 -32 -60 -60 -60 -63 0 -3
-18 -24 -40 -47 -22 -23 -40 -45 -40 -49 0 -4 -28 -36 -63 -72 -34 -36 -87
-93 -117 -128 -62 -71 -149 -161 -156 -161 -13 0 -1 89 16 118 11 18 20 47 20
65 0 17 7 46 16 62 9 17 20 61 25 99 5 38 14 75 20 82 6 7 15 45 20 84 4 38
15 80 23 92 7 13 17 48 21 78 3 30 12 58 18 62 22 13 34 311 18 424 -4 28 -15
59 -24 68 -9 10 -17 27 -17 40 0 25 -129 166 -152 166 -39 0 -15 41 32 55 14
4 32 13 40 21 9 7 25 17 37 21 43 17 283 237 283 261 0 6 9 16 20 22 11 6 20
17 20 24 0 7 9 21 20 31 11 10 20 26 20 35 0 9 9 25 20 35 11 10 20 26 20 36
0 10 8 26 19 36 10 10 22 29 26 43 4 13 14 30 21 38 8 7 14 23 14 34 0 11 8
35 19 52 10 17 22 49 26 70 3 21 12 48 20 60 7 12 15 45 19 75 3 30 12 61 20
70 7 9 17 48 20 86 4 39 14 85 23 104 12 27 15 81 16 285 1 240 0 253 -21 291
-12 22 -22 50 -22 63 0 12 -7 25 -15 28 -8 3 -17 21 -21 40 -3 19 -11 38 -18
42 -6 4 -22 24 -36 44 -14 21 -44 52 -67 69 -24 16 -43 34 -43 40 0 5 -7 9
-15 9 -9 0 -18 7 -21 15 -6 15 -85 65 -104 65 -6 0 -23 9 -38 19 -15 10 -50
21 -79 24 -29 3 -62 13 -75 21 -13 8 -52 17 -88 21 -36 4 -84 13 -108 21 -36
12 -232 14 -1212 14 l-1169 0 -15 -22z m1997 -782 c12 -8 39 -17 61 -21 21 -3
45 -12 53 -18 38 -32 73 -74 73 -88 0 -8 7 -24 15 -35 16 -21 21 -135 6 -162
-5 -9 -14 -66 -20 -126 -6 -63 -17 -116 -25 -125 -7 -9 -16 -34 -19 -55 -4
-22 -13 -44 -22 -48 -8 -5 -15 -22 -15 -38 0 -16 -4 -31 -9 -35 -11 -6 -71
-93 -71 -101 0 -10 -99 -104 -110 -104 -5 0 -10 -5 -10 -11 0 -5 -17 -17 -37
-26 -21 -8 -41 -19 -44 -24 -3 -6 -23 -12 -45 -16 -21 -3 -46 -12 -54 -19 -32
-28 -201 -35 -745 -32 l-540 3 3 65 c3 39 11 77 22 95 9 17 20 54 23 83 3 29
13 62 22 74 8 13 15 36 15 53 0 17 9 47 20 68 11 20 20 54 20 75 0 20 8 53 18
72 11 19 22 64 25 99 4 35 12 70 17 76 6 7 15 41 21 75 5 34 16 72 23 83 8 12
16 44 20 71 3 27 13 57 21 66 8 9 15 22 15 28 0 19 1243 17 1273 -2z"/>
<path d="M6333 7390 c-30 -12 -32 -69 -3 -95 11 -10 20 -25 20 -32 0 -8 9 -26
20 -40 11 -14 20 -36 20 -48 0 -12 9 -30 20 -40 11 -10 20 -30 20 -45 0 -15 6
-33 14 -39 8 -7 18 -25 21 -41 3 -16 12 -34 20 -40 8 -6 17 -26 21 -43 3 -18
15 -43 25 -56 11 -13 19 -30 19 -38 0 -7 7 -16 15 -19 8 -3 17 -22 21 -42 3
-21 14 -49 25 -64 10 -15 19 -36 19 -47 0 -11 7 -26 15 -35 8 -8 18 -28 21
-45 4 -16 15 -38 25 -47 11 -9 19 -27 19 -39 0 -12 9 -30 20 -40 11 -10 20
-28 20 -40 0 -12 9 -30 20 -40 11 -10 20 -29 20 -42 0 -14 9 -36 20 -50 11
-14 20 -33 20 -42 0 -9 9 -29 20 -46 11 -16 20 -37 20 -46 0 -9 6 -22 14 -28
8 -7 18 -26 21 -42 4 -17 13 -33 20 -36 8 -2 17 -19 21 -36 3 -18 15 -43 25
-56 11 -13 19 -34 19 -47 0 -12 6 -29 13 -36 8 -7 19 -23 26 -36 8 -15 21 -22
41 -22 27 0 60 22 60 40 0 4 30 39 68 77 37 38 90 95 117 127 28 33 59 68 71
80 11 12 43 48 70 81 27 32 57 67 67 77 9 10 17 23 17 28 0 6 7 10 15 10 8 0
15 3 15 8 0 4 19 28 43 53 135 147 193 212 199 224 10 17 63 78 118 135 70 73
141 153 158 179 9 13 33 41 54 63 21 22 38 44 38 49 0 5 7 9 15 9 8 0 15 5 15
11 0 6 19 30 43 53 59 59 137 146 155 176 9 14 22 29 29 33 7 4 13 21 13 37 0
22 -6 31 -23 35 -12 3 -137 5 -278 3 l-256 -3 -54 -56 c-30 -30 -72 -77 -94
-104 -22 -26 -58 -66 -80 -89 -51 -53 -115 -126 -115 -132 0 -3 -26 -32 -57
-65 -32 -32 -65 -67 -73 -77 -99 -116 -126 -148 -135 -154 -17 -13 -35 -9 -35
7 0 9 -7 18 -15 21 -8 3 -17 21 -21 40 -3 18 -12 38 -19 44 -8 6 -17 25 -20
41 -4 17 -13 33 -21 36 -7 3 -16 21 -20 41 -4 21 -15 48 -25 61 -11 13 -19 31
-19 40 0 9 -9 30 -20 46 -11 17 -20 37 -20 46 0 9 -9 26 -20 39 -11 13 -20 31
-20 40 0 9 -9 27 -20 40 -11 13 -20 31 -20 40 0 9 -8 26 -17 38 -10 11 -23 29
-29 39 -10 17 -32 18 -290 20 -154 1 -289 -2 -301 -7z"/>
<path d="M8905 7391 c-21 -9 -182 -178 -199 -209 -5 -9 -15 -21 -23 -25 -7 -4
-13 -13 -13 -18 0 -6 -28 -39 -62 -73 -73 -73 -115 -119 -165 -178 -74 -89
-129 -153 -173 -198 -85 -88 -152 -165 -163 -187 -5 -13 -14 -23 -19 -23 -5 0
-13 -11 -18 -25 -5 -14 -16 -25 -25 -25 -8 0 -15 -5 -15 -11 0 -6 -27 -37 -60
-69 -33 -32 -60 -61 -60 -65 0 -4 -23 -30 -51 -59 -28 -28 -69 -75 -91 -103
-22 -29 -44 -53 -49 -53 -5 0 -9 -5 -9 -11 0 -6 -19 -30 -42 -53 -24 -24 -70
-73 -103 -111 -33 -38 -77 -84 -97 -103 -21 -20 -38 -41 -38 -49 0 -7 -9 -18
-20 -25 -11 -7 -20 -17 -20 -22 0 -4 -27 -34 -60 -66 -33 -32 -60 -62 -60 -66
0 -5 -8 -14 -17 -20 -10 -7 -27 -28 -37 -48 -18 -33 -18 -38 -4 -68 83 -172
112 -229 119 -233 4 -3 11 -20 15 -38 3 -17 15 -43 25 -56 11 -13 19 -34 19
-46 0 -12 9 -30 20 -40 11 -10 20 -31 20 -47 0 -16 6 -31 14 -34 8 -3 18 -20
22 -37 3 -18 15 -40 25 -50 11 -10 19 -28 19 -40 0 -12 9 -30 20 -40 11 -9 20
-27 20 -39 0 -13 9 -36 20 -53 11 -16 20 -36 20 -43 0 -8 9 -25 20 -39 11 -14
20 -35 20 -47 0 -12 7 -32 17 -45 26 -38 63 -111 63 -125 0 -7 9 -23 20 -36
11 -13 20 -32 20 -44 0 -12 9 -34 20 -51 11 -16 20 -38 20 -48 0 -10 6 -20 14
-23 8 -3 18 -20 22 -37 3 -18 12 -39 19 -47 7 -8 16 -26 20 -40 4 -14 16 -33
26 -43 11 -10 19 -29 19 -43 0 -14 9 -37 20 -51 11 -14 20 -35 20 -45 0 -11 9
-31 20 -45 11 -14 20 -33 20 -43 0 -9 9 -27 20 -40 11 -13 20 -31 20 -40 0 -9
9 -27 20 -40 11 -13 20 -31 20 -41 0 -10 7 -25 16 -34 9 -9 20 -31 23 -48 11
-54 27 -57 332 -57 321 0 317 -1 295 82 -6 25 -19 55 -29 66 -9 10 -17 24 -17
31 0 7 -9 24 -20 38 -11 14 -20 36 -20 48 0 12 -9 30 -20 40 -11 10 -20 26
-20 37 0 10 -9 35 -20 55 -11 21 -20 43 -20 49 0 6 -7 17 -15 24 -8 7 -17 28
-21 47 -4 19 -12 37 -19 40 -7 2 -16 16 -20 31 -4 15 -13 34 -20 42 -7 8 -18
34 -24 56 -6 23 -18 47 -26 54 -8 7 -15 21 -15 32 0 11 -9 31 -20 45 -11 14
-20 36 -20 48 0 12 -9 30 -20 40 -11 10 -20 28 -20 40 0 12 -9 30 -20 40 -11
10 -20 28 -20 40 0 12 -9 30 -20 40 -11 10 -20 27 -20 37 0 11 -9 37 -20 59
-11 21 -29 57 -40 78 -11 22 -20 46 -20 54 0 8 -6 20 -14 26 -8 7 -18 26 -21
42 -4 17 -13 33 -20 36 -8 2 -17 19 -21 36 -3 18 -15 43 -25 56 -11 13 -19 34
-19 46 0 12 -9 32 -20 45 -11 13 -20 33 -20 45 0 12 -9 30 -20 40 -11 10 -20
28 -20 40 0 12 -9 30 -20 40 -11 10 -20 27 -20 37 0 11 -9 31 -20 45 -11 14
-20 36 -20 48 0 12 -7 28 -15 35 -8 7 -17 27 -21 46 -3 18 -12 38 -20 45 -24
20 -16 37 44 97 78 80 165 180 176 203 5 10 13 19 18 19 5 0 13 11 18 25 5 14
16 25 25 25 8 0 15 5 15 10 0 6 21 33 48 59 26 27 63 67 82 90 19 22 59 67 88
98 29 32 57 68 62 81 5 12 16 22 25 22 8 0 15 5 15 11 0 6 19 30 43 53 23 23
59 62 79 86 20 25 48 60 63 78 15 18 51 57 81 88 30 30 54 58 54 61 0 3 10 16
23 28 59 59 138 146 187 205 29 36 57 67 61 68 5 2 9 8 9 14 0 5 19 29 43 52
23 24 56 58 73 77 68 76 130 148 149 173 11 15 46 54 78 87 62 63 69 88 27
100 -35 10 -491 9 -515 0z"/>
<path d="M6877 5122 c-31 -37 -64 -74 -72 -83 -8 -9 -15 -19 -15 -23 0 -4 -28
-35 -62 -70 -35 -34 -80 -82 -100 -106 -20 -25 -48 -60 -63 -78 -15 -18 -51
-57 -81 -88 -30 -30 -54 -57 -54 -60 0 -3 -19 -25 -42 -48 -48 -48 -149 -162
-161 -181 -4 -7 -32 -39 -62 -70 -30 -31 -55 -58 -55 -61 0 -4 -50 -61 -110
-123 -19 -20 -62 -68 -94 -106 -32 -39 -63 -71 -67 -73 -5 -2 -9 -8 -9 -14 0
-6 -27 -36 -60 -68 -33 -32 -60 -60 -60 -63 0 -3 -27 -34 -60 -69 -33 -35 -60
-66 -60 -70 0 -3 -18 -25 -40 -48 -22 -23 -40 -46 -40 -50 0 -5 -9 -14 -20
-20 -23 -12 -26 -42 -6 -59 10 -9 88 -11 281 -9 253 3 267 4 281 23 8 11 32
38 52 60 20 23 68 78 107 123 38 45 73 82 77 82 5 0 8 5 8 10 0 6 25 36 56 68
31 31 88 95 128 142 39 47 77 89 83 93 7 4 13 13 13 19 0 5 27 36 60 68 33 32
60 60 60 63 0 2 20 26 44 53 l45 48 12 -27 c7 -15 15 -27 19 -27 4 0 13 -20
19 -44 6 -24 17 -49 26 -56 8 -7 15 -19 15 -27 0 -12 11 -36 51 -113 51 -97
69 -136 69 -150 0 -9 9 -25 20 -35 11 -10 20 -28 20 -39 0 -12 9 -34 20 -51
11 -16 20 -37 20 -45 0 -9 9 -23 20 -33 11 -9 20 -27 20 -40 0 -12 9 -30 20
-40 11 -9 20 -27 20 -39 0 -13 14 -38 31 -55 l30 -33 268 0 c303 0 309 1 297
64 -4 20 -13 39 -21 42 -7 3 -16 22 -20 42 -4 20 -15 47 -26 60 -10 14 -19 32
-19 41 0 9 -9 30 -20 46 -11 17 -20 37 -20 46 0 9 -9 26 -20 39 -11 13 -20 33
-20 45 0 12 -9 30 -20 40 -11 10 -20 27 -20 37 0 11 -9 31 -20 45 -11 14 -20
32 -20 40 0 8 -9 26 -20 40 -11 14 -20 36 -20 48 0 12 -6 28 -14 34 -8 7 -18
27 -22 44 -3 18 -15 43 -25 56 -11 13 -19 30 -19 38 0 8 -9 26 -20 40 -11 14
-20 34 -20 43 0 10 -6 23 -14 29 -8 7 -18 25 -21 41 -3 16 -12 34 -20 40 -8 6
-17 26 -20 43 -4 18 -16 46 -26 63 -10 17 -19 38 -19 46 0 8 -9 23 -20 33 -11
10 -20 31 -20 46 0 18 -7 32 -20 39 -11 6 -20 20 -20 31 0 12 -9 32 -20 46
-11 14 -20 36 -20 48 0 12 -6 28 -14 34 -8 6 -19 31 -25 55 -6 24 -17 49 -26
56 -8 7 -15 21 -15 31 0 10 -5 21 -11 25 -6 3 -17 22 -25 40 -12 29 -19 34
-47 34 -27 0 -41 -10 -90 -68z"/>
</g>
</svg>
