<svg width="354" height="79" viewBox="0 0 354 79" fill="none" xmlns="http://www.w3.org/2000/svg">
<path d="M0.413086 73L14.1582 37.209H19.2607L33.9092 73H28.5137L24.3389 62.1602H9.37305L5.44238 73H0.413086ZM10.7402 58.3027H22.874L19.1387 48.3906C17.9993 45.3796 17.153 42.9056 16.5996 40.9688C16.1439 43.2637 15.501 45.5423 14.6709 47.8047L10.7402 58.3027ZM37.6934 73V37.209H50.0225C52.8057 37.209 54.9297 37.3799 56.3945 37.7217C58.4453 38.1937 60.195 39.0482 61.6436 40.2852C63.5316 41.8802 64.9395 43.9229 65.8672 46.4131C66.8112 48.887 67.2832 51.7191 67.2832 54.9092C67.2832 57.6273 66.9658 60.0361 66.3311 62.1357C65.6963 64.2354 64.8825 65.9769 63.8896 67.3604C62.8968 68.7275 61.8063 69.8099 60.6182 70.6074C59.4463 71.3887 58.0221 71.9827 56.3457 72.3896C54.6855 72.7965 52.7731 73 50.6084 73H37.6934ZM42.4297 68.7764H50.0713C52.4313 68.7764 54.2786 68.5566 55.6133 68.1172C56.9642 67.6777 58.0384 67.0592 58.8359 66.2617C59.959 65.1387 60.8298 63.6331 61.4482 61.7451C62.083 59.8408 62.4004 57.5378 62.4004 54.8359C62.4004 51.0924 61.7819 48.2197 60.5449 46.2178C59.3242 44.1995 57.835 42.8486 56.0771 42.165C54.8076 41.6768 52.765 41.4326 49.9492 41.4326H42.4297V68.7764ZM73.8262 73V37.209H86.1553C88.9385 37.209 91.0625 37.3799 92.5273 37.7217C94.5781 38.1937 96.3278 39.0482 97.7764 40.2852C99.6644 41.8802 101.072 43.9229 102 46.4131C102.944 48.887 103.416 51.7191 103.416 54.9092C103.416 57.6273 103.099 60.0361 102.464 62.1357C101.829 64.2354 101.015 65.9769 100.022 67.3604C99.0296 68.7275 97.9391 69.8099 96.751 70.6074C95.5791 71.3887 94.1549 71.9827 92.4785 72.3896C90.8184 72.7965 88.9059 73 86.7412 73H73.8262ZM78.5625 68.7764H86.2041C88.5641 68.7764 90.4115 68.5566 91.7461 68.1172C93.097 67.6777 94.1712 67.0592 94.9688 66.2617C96.0918 65.1387 96.9626 63.6331 97.5811 61.7451C98.2158 59.8408 98.5332 57.5378 98.5332 54.8359C98.5332 51.0924 97.9147 48.2197 96.6777 46.2178C95.457 44.1995 93.9678 42.8486 92.21 42.165C90.9404 41.6768 88.8978 41.4326 86.082 41.4326H78.5625V68.7764ZM123.68 73V37.209H137.107C139.842 37.209 142.031 37.5752 143.675 38.3076C145.335 39.0238 146.629 40.1387 147.557 41.6523C148.501 43.1497 148.973 44.7204 148.973 46.3643C148.973 47.8942 148.558 49.3346 147.728 50.6855C146.897 52.0365 145.644 53.127 143.968 53.957C146.132 54.5918 147.793 55.6742 148.948 57.2041C150.12 58.734 150.706 60.5407 150.706 62.624C150.706 64.3005 150.348 65.863 149.632 67.3115C148.932 68.7438 148.061 69.8506 147.02 70.6318C145.978 71.4131 144.668 72.0072 143.089 72.4141C141.526 72.8047 139.606 73 137.327 73H123.68ZM128.416 52.248H136.155C138.255 52.248 139.76 52.1097 140.672 51.833C141.876 51.4749 142.78 50.8809 143.382 50.0508C144 49.2207 144.31 48.179 144.31 46.9258C144.31 45.7376 144.025 44.696 143.455 43.8008C142.885 42.8893 142.072 42.2708 141.014 41.9453C139.956 41.6035 138.141 41.4326 135.569 41.4326H128.416V52.248ZM128.416 68.7764H137.327C138.857 68.7764 139.931 68.7194 140.55 68.6055C141.64 68.4102 142.552 68.0846 143.284 67.6289C144.017 67.1732 144.619 66.514 145.091 65.6514C145.563 64.7725 145.799 63.7633 145.799 62.624C145.799 61.2894 145.457 60.1338 144.773 59.1572C144.09 58.1644 143.138 57.4727 141.917 57.082C140.713 56.6751 138.971 56.4717 136.692 56.4717H128.416V68.7764ZM153.294 73L167.039 37.209H172.142L186.79 73H181.395L177.22 62.1602H162.254L158.323 73H153.294ZM163.621 58.3027H175.755L172.02 48.3906C170.88 45.3796 170.034 42.9056 169.48 40.9688C169.025 43.2637 168.382 45.5423 167.552 47.8047L163.621 58.3027ZM190.379 73V37.209H195.115V68.7764H212.742V73H190.379ZM214.476 73L228.221 37.209H233.323L247.972 73H242.576L238.401 62.1602H223.436L219.505 73H214.476ZM224.803 58.3027H236.937L233.201 48.3906C232.062 45.3796 231.215 42.9056 230.662 40.9688C230.206 43.2637 229.563 45.5423 228.733 47.8047L224.803 58.3027ZM251.707 73V37.209H256.565L275.364 65.3096V37.209H279.905V73H275.047L256.248 44.875V73H251.707ZM313.426 60.4512L318.162 61.6475C317.169 65.5374 315.379 68.5078 312.791 70.5586C310.219 72.5931 307.07 73.6104 303.343 73.6104C299.485 73.6104 296.344 72.8291 293.919 71.2666C291.51 69.6878 289.671 67.4092 288.401 64.4307C287.148 61.4521 286.521 58.2539 286.521 54.8359C286.521 51.1087 287.229 47.8617 288.646 45.0947C290.078 42.3115 292.104 40.2038 294.725 38.7715C297.361 37.3229 300.258 36.5986 303.416 36.5986C306.997 36.5986 310.008 37.5101 312.449 39.333C314.891 41.1559 316.591 43.7194 317.552 47.0234L312.889 48.1221C312.059 45.5179 310.854 43.6217 309.275 42.4336C307.697 41.2454 305.711 40.6514 303.318 40.6514C300.568 40.6514 298.265 41.3105 296.409 42.6289C294.57 43.9473 293.276 45.7214 292.527 47.9512C291.779 50.1647 291.404 52.4515 291.404 54.8115C291.404 57.8551 291.844 60.5163 292.723 62.7949C293.618 65.0573 295.001 66.75 296.873 67.873C298.745 68.9961 300.771 69.5576 302.952 69.5576C305.605 69.5576 307.851 68.7926 309.69 67.2627C311.53 65.7327 312.775 63.4622 313.426 60.4512ZM324.119 73V37.209H349.998V41.4326H328.855V52.3945H348.655V56.5938H328.855V68.7764H350.828V73H324.119Z" fill="url(#paint0_radial_239_66)"/>
<path d="M50.8462 0V6.56325H49V0M95.5575 0V6.56325H97.4037V0M163.309 0V6.56325H165.156V0M56.4988 0V6.56325H58.345V0M115.489 0V6.56325H117.336V0M121.68 0V6.56325H123.526V0M204.947 0V6.56325H206.793V0M222.302 0V6.56325H224.148V0M303.154 0V6.56325H305V0M239.156 0V6.56325H241.003V0M245.347 0V6.56325H247.193V0M265.275 0V6.56325H267.121V0M271.466 0V6.56325H273.312V0M139.784 0V6.56325H141.631V0M160.571 0V6.56325H162.417V0" fill="url(#paint1_radial_239_66)"/>
<defs>
<radialGradient id="paint0_radial_239_66" cx="0" cy="0" r="1" gradientUnits="userSpaceOnUse" gradientTransform="translate(177 55.5) rotate(90) scale(50.5 380.362)">
<stop stop-color="white"/>
<stop offset="1" stop-color="white" stop-opacity="0"/>
</radialGradient>
<radialGradient id="paint1_radial_239_66" cx="0" cy="0" r="1" gradientUnits="userSpaceOnUse" gradientTransform="translate(177 3.28162) rotate(90) scale(5.03007 196.198)">
<stop stop-color="white"/>
<stop offset="1" stop-color="white" stop-opacity="0"/>
</radialGradient>
</defs>
</svg>
