<svg width="537" height="84" viewBox="0 0 537 84" fill="none" xmlns="http://www.w3.org/2000/svg">
<path d="M2.58203 61.501L7.0498 61.1104C7.26139 62.9007 7.74967 64.3737 8.51465 65.5293C9.2959 66.6686 10.5003 67.5964 12.1279 68.3125C13.7555 69.0124 15.5866 69.3623 17.6211 69.3623C19.4277 69.3623 21.0228 69.0938 22.4062 68.5566C23.7897 68.0195 24.8151 67.2871 25.4824 66.3594C26.166 65.4154 26.5078 64.39 26.5078 63.2832C26.5078 62.1602 26.1823 61.1836 25.5312 60.3535C24.8802 59.5072 23.806 58.7992 22.3086 58.2295C21.3483 57.8551 19.2243 57.2773 15.9365 56.4961C12.6488 55.6986 10.3457 54.9499 9.02734 54.25C7.31836 53.3548 6.04069 52.248 5.19434 50.9297C4.36426 49.5951 3.94922 48.1058 3.94922 46.4619C3.94922 44.6553 4.46191 42.9707 5.4873 41.4082C6.5127 39.8294 8.01009 38.6331 9.97949 37.8193C11.9489 37.0055 14.138 36.5986 16.5469 36.5986C19.1999 36.5986 21.5355 37.0299 23.5537 37.8926C25.5882 38.7389 27.1507 39.9922 28.2412 41.6523C29.3317 43.3125 29.9176 45.1924 29.999 47.292L25.458 47.6338C25.2139 45.3714 24.3838 43.6624 22.9678 42.5068C21.568 41.3512 19.4928 40.7734 16.7422 40.7734C13.8776 40.7734 11.7861 41.3024 10.4678 42.3604C9.16569 43.402 8.51465 44.6634 8.51465 46.1445C8.51465 47.4303 8.97852 48.4883 9.90625 49.3184C10.8177 50.1484 13.194 51.0029 17.0352 51.8818C20.8926 52.7445 23.5374 53.5013 24.9697 54.1523C27.0531 55.1126 28.5911 56.3333 29.584 57.8145C30.5768 59.2793 31.0732 60.972 31.0732 62.8926C31.0732 64.7969 30.528 66.5954 29.4375 68.2881C28.347 69.9645 26.7764 71.2747 24.7256 72.2188C22.6911 73.1465 20.3962 73.6104 17.8408 73.6104C14.6019 73.6104 11.8838 73.1383 9.68652 72.1943C7.50553 71.2503 5.78841 69.8343 4.53516 67.9463C3.29818 66.042 2.64714 63.8936 2.58203 61.501ZM37.6406 73V37.209H63.5195V41.4326H42.377V52.3945H62.1768V56.5938H42.377V68.7764H64.3496V73H37.6406ZM70.8438 73V37.209H75.7021L94.501 65.3096V37.209H99.042V73H94.1836L75.3848 44.875V73H70.8438ZM107.025 73V37.209H119.354C122.138 37.209 124.262 37.3799 125.727 37.7217C127.777 38.1937 129.527 39.0482 130.976 40.2852C132.864 41.8802 134.271 43.9229 135.199 46.4131C136.143 48.887 136.615 51.7191 136.615 54.9092C136.615 57.6273 136.298 60.0361 135.663 62.1357C135.028 64.2354 134.215 65.9769 133.222 67.3604C132.229 68.7275 131.138 69.8099 129.95 70.6074C128.778 71.3887 127.354 71.9827 125.678 72.3896C124.018 72.7965 122.105 73 119.94 73H107.025ZM111.762 68.7764H119.403C121.763 68.7764 123.611 68.5566 124.945 68.1172C126.296 67.6777 127.37 67.0592 128.168 66.2617C129.291 65.1387 130.162 63.6331 130.78 61.7451C131.415 59.8408 131.732 57.5378 131.732 54.8359C131.732 51.0924 131.114 48.2197 129.877 46.2178C128.656 44.1995 127.167 42.8486 125.409 42.165C124.14 41.6768 122.097 41.4326 119.281 41.4326H111.762V68.7764ZM156.928 73V37.209H164.057L172.528 62.5508C173.31 64.9108 173.879 66.6768 174.237 67.8486C174.644 66.5465 175.279 64.6341 176.142 62.1113L184.711 37.209H191.083V73H186.518V43.0439L176.117 73H171.845L161.493 42.5312V73H156.928ZM197.284 55.5684C197.284 49.6276 198.879 44.9808 202.069 41.6279C205.259 38.2588 209.377 36.5742 214.423 36.5742C217.727 36.5742 220.705 37.3636 223.358 38.9424C226.011 40.5212 228.03 42.7266 229.413 45.5586C230.813 48.3743 231.513 51.5726 231.513 55.1533C231.513 58.7829 230.78 62.0299 229.315 64.8945C227.851 67.7591 225.775 69.932 223.09 71.4131C220.404 72.8779 217.507 73.6104 214.398 73.6104C211.029 73.6104 208.018 72.7965 205.365 71.1689C202.712 69.5413 200.702 67.3197 199.335 64.5039C197.968 61.6882 197.284 58.7096 197.284 55.5684ZM202.167 55.6416C202.167 59.9548 203.323 63.3564 205.634 65.8467C207.961 68.3206 210.875 69.5576 214.374 69.5576C217.938 69.5576 220.868 68.3044 223.163 65.7979C225.474 63.2913 226.63 59.735 226.63 55.1289C226.63 52.2155 226.133 49.6764 225.141 47.5117C224.164 45.3307 222.724 43.6462 220.819 42.458C218.931 41.2536 216.807 40.6514 214.447 40.6514C211.094 40.6514 208.205 41.807 205.78 44.1182C203.371 46.4131 202.167 50.2542 202.167 55.6416ZM237.592 73V37.209H242.45L261.249 65.3096V37.209H265.79V73H260.932L242.133 44.875V73H237.592ZM273.871 73V37.209H299.75V41.4326H278.607V52.3945H298.407V56.5938H278.607V68.7764H300.58V73H273.871ZM307.196 73V37.209H323.065C326.256 37.209 328.681 37.5345 330.341 38.1855C332.001 38.8203 333.327 39.9515 334.32 41.5791C335.313 43.2067 335.81 45.0052 335.81 46.9746C335.81 49.5137 334.988 51.654 333.344 53.3955C331.7 55.137 329.161 56.2438 325.727 56.7158C326.98 57.318 327.932 57.9121 328.583 58.498C329.966 59.7676 331.277 61.3545 332.514 63.2588L338.739 73H332.782L328.046 65.5537C326.662 63.4053 325.523 61.7614 324.628 60.6221C323.733 59.4827 322.927 58.6852 322.211 58.2295C321.511 57.7738 320.795 57.4564 320.062 57.2773C319.525 57.1634 318.646 57.1064 317.426 57.1064H311.933V73H307.196ZM311.933 53.0049H322.113C324.278 53.0049 325.971 52.7852 327.191 52.3457C328.412 51.89 329.34 51.1738 329.975 50.1973C330.609 49.2044 330.927 48.1302 330.927 46.9746C330.927 45.2819 330.308 43.8903 329.071 42.7998C327.851 41.7093 325.914 41.1641 323.261 41.1641H311.933V53.0049ZM341.815 55.5684C341.815 49.6276 343.41 44.9808 346.601 41.6279C349.791 38.2588 353.909 36.5742 358.954 36.5742C362.258 36.5742 365.237 37.3636 367.89 38.9424C370.543 40.5212 372.561 42.7266 373.944 45.5586C375.344 48.3743 376.044 51.5726 376.044 55.1533C376.044 58.7829 375.312 62.0299 373.847 64.8945C372.382 67.7591 370.307 69.932 367.621 71.4131C364.936 72.8779 362.038 73.6104 358.93 73.6104C355.561 73.6104 352.549 72.7965 349.896 71.1689C347.243 69.5413 345.233 67.3197 343.866 64.5039C342.499 61.6882 341.815 58.7096 341.815 55.5684ZM346.698 55.6416C346.698 59.9548 347.854 63.3564 350.165 65.8467C352.493 68.3206 355.406 69.5576 358.905 69.5576C362.47 69.5576 365.399 68.3044 367.694 65.7979C370.006 63.2913 371.161 59.735 371.161 55.1289C371.161 52.2155 370.665 49.6764 369.672 47.5117C368.695 45.3307 367.255 43.6462 365.351 42.458C363.463 41.2536 361.339 40.6514 358.979 40.6514C355.626 40.6514 352.737 41.807 350.312 44.1182C347.903 46.4131 346.698 50.2542 346.698 55.6416ZM403.925 83.5225C401.5 80.4626 399.449 76.8818 397.772 72.7803C396.096 68.6787 395.258 64.4307 395.258 60.0361C395.258 56.1624 395.884 52.4515 397.138 48.9033C398.603 44.7855 400.865 40.6839 403.925 36.5986H407.074C405.105 39.984 403.803 42.401 403.168 43.8496C402.175 46.0957 401.394 48.4395 400.824 50.8809C400.124 53.9245 399.774 56.9844 399.774 60.0605C399.774 67.8893 402.208 75.71 407.074 83.5225H403.925ZM409.101 73L422.943 54.3477L410.736 37.209H416.376L422.87 46.3887C424.221 48.293 425.181 49.7578 425.751 50.7832C426.549 49.4811 427.493 48.1221 428.583 46.7061L435.785 37.209H440.937L428.363 54.0791L441.913 73H436.054L427.045 60.2314C426.54 59.499 426.02 58.7015 425.482 57.8389C424.685 59.141 424.115 60.0361 423.773 60.5244L414.789 73H409.101ZM445.941 73V37.209H453.07L461.542 62.5508C462.323 64.9108 462.893 66.6768 463.251 67.8486C463.658 66.5465 464.293 64.6341 465.155 62.1113L473.725 37.209H480.097V73H475.531V43.0439L465.131 73H460.858L450.507 42.5312V73H445.941ZM487.812 73V37.209H503.681C506.871 37.209 509.296 37.5345 510.956 38.1855C512.616 38.8203 513.943 39.9515 514.936 41.5791C515.928 43.2067 516.425 45.0052 516.425 46.9746C516.425 49.5137 515.603 51.654 513.959 53.3955C512.315 55.137 509.776 56.2438 506.342 56.7158C507.595 57.318 508.547 57.9121 509.198 58.498C510.582 59.7676 511.892 61.3545 513.129 63.2588L519.354 73H513.397L508.661 65.5537C507.278 63.4053 506.138 61.7614 505.243 60.6221C504.348 59.4827 503.542 58.6852 502.826 58.2295C502.126 57.7738 501.41 57.4564 500.678 57.2773C500.141 57.1634 499.262 57.1064 498.041 57.1064H492.548V73H487.812ZM492.548 53.0049H502.729C504.893 53.0049 506.586 52.7852 507.807 52.3457C509.027 51.89 509.955 51.1738 510.59 50.1973C511.225 49.2044 511.542 48.1302 511.542 46.9746C511.542 45.2819 510.924 43.8903 509.687 42.7998C508.466 41.7093 506.529 41.1641 503.876 41.1641H492.548V53.0049ZM526.19 83.5225H523.041C527.908 75.71 530.341 67.8893 530.341 60.0605C530.341 57.0007 529.991 53.9652 529.291 50.9541C528.738 48.5127 527.965 46.1689 526.972 43.9229C526.337 42.458 525.027 40.0166 523.041 36.5986H526.19C529.25 40.6839 531.513 44.7855 532.978 48.9033C534.231 52.4515 534.857 56.1624 534.857 60.0361C534.857 64.4307 534.011 68.6787 532.318 72.7803C530.642 76.8818 528.599 80.4626 526.19 83.5225Z" fill="url(#paint0_radial_239_142)"/>
<path d="M142.846 0V6.56325H141V0M187.557 0V6.56325H189.404V0M255.309 0V6.56325H257.156V0M148.499 0V6.56325H150.345V0M207.489 0V6.56325H209.336V0M213.68 0V6.56325H215.526V0M296.947 0V6.56325H298.793V0M314.302 0V6.56325H316.148V0M395.154 0V6.56325H397V0M331.156 0V6.56325H333.003V0M337.347 0V6.56325H339.193V0M357.275 0V6.56325H359.121V0M363.466 0V6.56325H365.312V0M231.784 0V6.56325H233.631V0M252.571 0V6.56325H254.417V0" fill="url(#paint1_radial_239_142)"/>
<defs>
<radialGradient id="paint0_radial_239_142" cx="0" cy="0" r="1" gradientUnits="userSpaceOnUse" gradientTransform="translate(268.5 55.5) rotate(90) scale(50.5 576.989)">
<stop stop-color="white"/>
<stop offset="1" stop-color="white" stop-opacity="0"/>
</radialGradient>
<radialGradient id="paint1_radial_239_142" cx="0" cy="0" r="1" gradientUnits="userSpaceOnUse" gradientTransform="translate(269 3.28162) rotate(90) scale(5.03007 196.198)">
<stop stop-color="white"/>
<stop offset="1" stop-color="white" stop-opacity="0"/>
</radialGradient>
</defs>
</svg>
