<svg width="134" height="134" viewBox="0 0 134 134" fill="none" xmlns="http://www.w3.org/2000/svg">
<path d="M42.5411 74V60H47.4411C48.5344 60 49.4411 60.1867 50.1611 60.56C50.8811 60.92 51.4144 61.42 51.7611 62.06C52.1211 62.6867 52.3011 63.4 52.3011 64.2C52.3011 64.96 52.1278 65.66 51.7811 66.3C51.4478 66.9267 50.9211 67.4267 50.2011 67.8C49.4811 68.1733 48.5611 68.36 47.4411 68.36H44.6611V74H42.5411ZM44.6611 66.62H47.3411C48.3411 66.62 49.0544 66.4067 49.4811 65.98C49.9211 65.54 50.1411 64.9467 50.1411 64.2C50.1411 63.4267 49.9211 62.8267 49.4811 62.4C49.0544 61.96 48.3411 61.74 47.3411 61.74H44.6611V66.62ZM56.3966 74V60H58.5166V72.32H64.8766V74H56.3966ZM68.2583 74L73.4183 60H75.7383L80.8583 74H78.6183L77.4183 70.58H71.6983L70.4983 74H68.2583ZM72.2983 68.9H76.8183L74.5583 62.52L72.2983 68.9ZM86.8277 74V68.84L82.1877 60H84.5877L87.8877 66.76L91.1677 60H93.5477L88.9477 68.84V74H86.8277Z" fill="white"/>
<path d="M51.4035 125.347L52.4419 125.544C52.4505 125.956 52.5479 126.32 52.7338 126.636C52.9198 126.951 53.1671 127.211 53.4756 127.414C53.7841 127.617 54.1282 127.754 54.5078 127.826C55.027 127.924 55.5221 127.882 55.9933 127.7C56.4617 127.517 56.8685 127.193 57.2137 126.729C57.556 126.265 57.7975 125.662 57.9382 124.919C58.0788 124.177 58.0747 123.527 57.9258 122.97C57.7741 122.412 57.5138 121.962 57.1448 121.62C56.773 121.278 56.3275 121.058 55.8083 120.959C55.4287 120.888 55.0582 120.89 54.6968 120.966C54.3354 121.042 54.0104 121.193 53.7219 121.419C53.4334 121.645 53.2097 121.948 53.0509 122.328L52.0125 122.132C52.2296 121.565 52.5411 121.104 52.947 120.747C53.3523 120.393 53.8176 120.15 54.3428 120.018C54.8674 119.889 55.4173 119.879 55.9923 119.988C56.7236 120.127 57.3401 120.428 57.8419 120.894C58.3436 121.359 58.6954 121.952 58.8972 122.672C59.099 123.393 59.1143 124.205 58.943 125.11C58.7717 126.014 58.4604 126.765 58.0091 127.362C57.5577 127.958 57.0135 128.382 56.3764 128.631C55.7393 128.88 55.0551 128.936 54.3238 128.797C53.7488 128.689 53.241 128.477 52.8004 128.162C52.3593 127.85 52.0151 127.454 51.7678 126.973C51.52 126.495 51.3986 125.953 51.4035 125.347Z" fill="white"/>
<path d="M39.6254 118.946C39.9943 118.103 40.4654 117.441 41.0386 116.96C41.6118 116.479 42.2368 116.188 42.9135 116.087C43.5902 115.986 44.2695 116.085 44.9515 116.383C45.6334 116.682 46.167 117.113 46.5522 117.679C46.9374 118.244 47.1479 118.901 47.1838 119.648C47.2196 120.396 47.053 121.191 46.6842 122.034C46.3153 122.878 45.8442 123.54 45.271 124.021C44.6977 124.502 44.0728 124.793 43.3961 124.894C42.7194 124.995 42.0401 124.896 41.3581 124.598C40.6762 124.299 40.1426 123.867 39.7574 123.302C39.3722 122.737 39.1616 122.08 39.1258 121.333C39.09 120.585 39.2565 119.79 39.6254 118.946ZM40.5624 119.356C40.2596 120.049 40.1198 120.684 40.1431 121.261C40.1638 121.838 40.3171 122.334 40.6031 122.751C40.8865 123.166 41.2702 123.48 41.7544 123.692C42.2385 123.904 42.7305 123.973 43.2306 123.9C43.728 123.826 44.1968 123.602 44.6368 123.227C45.0742 122.851 45.4443 122.317 45.7472 121.624C46.05 120.932 46.1911 120.298 46.1704 119.721C46.1471 119.143 45.9938 118.647 45.7104 118.232C45.4244 117.815 45.0394 117.501 44.5552 117.289C44.0711 117.077 43.5803 117.008 43.0829 117.082C42.5829 117.155 42.1141 117.379 41.6767 117.755C41.2367 118.13 40.8653 118.664 40.5624 119.356Z" fill="white"/>
<path d="M28.3754 111.166C28.9299 110.431 29.5418 109.897 30.211 109.562C30.8802 109.227 31.5556 109.089 32.2373 109.148C32.9189 109.207 33.5568 109.46 34.1509 109.909C34.7449 110.357 35.1637 110.901 35.4072 111.54C35.6507 112.18 35.7032 112.867 35.5646 113.603C35.426 114.338 35.0794 115.073 34.5249 115.808C33.9704 116.542 33.3585 117.077 32.6893 117.412C32.0201 117.747 31.3447 117.885 30.663 117.826C29.9814 117.767 29.3435 117.513 28.7494 117.065C28.1553 116.617 27.7365 116.073 27.493 115.433C27.2495 114.794 27.1971 114.107 27.3357 113.371C27.4743 112.636 27.8209 111.901 28.3754 111.166ZM29.1917 111.782C28.7364 112.385 28.4531 112.971 28.3417 113.538C28.2281 114.103 28.262 114.622 28.4435 115.094C28.6228 115.564 28.9233 115.958 29.345 116.276C29.7668 116.594 30.2293 116.776 30.7326 116.821C31.2336 116.865 31.7416 116.755 32.2566 116.493C32.7693 116.228 33.2533 115.795 33.7086 115.192C34.1638 114.588 34.4483 114.004 34.5619 113.438C34.6733 112.871 34.6394 112.353 34.4602 111.883C34.2787 111.411 33.977 111.016 33.5553 110.698C33.1335 110.38 32.6721 110.199 32.1711 110.155C31.6678 110.11 31.1598 110.219 30.6471 110.484C30.1321 110.746 29.647 111.179 29.1917 111.782Z" fill="white"/>
<path d="M27.3041 103.788L20.8304 109.641L20.1216 108.857L25.8999 103.633L23.1792 100.624L23.8746 99.9949L27.3041 103.788Z" fill="white"/>
<path d="M18.0915 90.1903L9.99918 93.4582L8.85669 90.6291C8.62905 90.0654 8.53876 89.5611 8.58583 89.1162C8.63026 88.6724 8.77963 88.2949 9.03394 87.9839C9.28562 87.6739 9.60902 87.4392 10.0042 87.2796C10.3519 87.1392 10.664 87.0851 10.9405 87.1175C11.216 87.1472 11.46 87.2355 11.6726 87.3825C11.8841 87.5269 12.0683 87.7022 12.2251 87.9085L12.3041 87.8766C12.2199 87.6226 12.2063 87.3386 12.2633 87.0245C12.3203 86.7104 12.4623 86.4095 12.6892 86.1218C12.9162 85.834 13.243 85.604 13.6698 85.4317C14.0755 85.2678 14.4775 85.2127 14.876 85.2663C15.2745 85.3198 15.6489 85.5072 15.9992 85.8284C16.3495 86.1495 16.6533 86.6289 16.9108 87.2664L18.0915 90.1903ZM16.8265 89.5615L16.0415 87.6174C15.783 86.9773 15.4757 86.5729 15.1195 86.4042C14.7597 86.2339 14.402 86.2206 14.0464 86.3642C13.7724 86.4748 13.5477 86.6467 13.3723 86.88C13.1942 87.1143 13.0875 87.3887 13.0521 87.7032C13.0141 88.0188 13.0664 88.3531 13.2089 88.7061L14.0132 90.6976L16.8265 89.5615ZM13.1597 91.0422L12.4257 89.2246C12.247 88.7821 11.9681 88.4596 11.5892 88.2572C11.2103 88.0548 10.8075 88.0398 10.3807 88.2121C10.0251 88.3557 9.77349 88.6013 9.62586 88.9489C9.4756 89.2976 9.50898 89.7407 9.72599 90.278L10.4728 92.1273L13.1597 91.0422Z" fill="white"/>
<path d="M14.1541 78.1484L5.56256 79.6819L5.0444 76.7789C4.9246 76.1077 4.94093 75.5363 5.09338 75.0646C5.24304 74.5935 5.49797 74.219 5.85816 73.9412C6.21835 73.6633 6.65155 73.4792 7.15775 73.3889C7.72828 73.2871 8.24957 73.3296 8.72159 73.5167C9.19032 73.7014 9.56728 74.0511 9.8525 74.5658L13.0549 71.99L13.2705 73.1982L10.2337 75.6102C10.249 75.6797 10.2634 75.7521 10.2769 75.8276L10.6123 77.707L13.9684 77.108L14.1541 78.1484ZM9.67261 77.8747L9.34314 76.0289C9.22034 75.3409 8.98451 74.8766 8.63565 74.6358C8.28678 74.3951 7.85505 74.3206 7.34046 74.4125C6.82307 74.5048 6.43561 74.7269 6.17809 75.0788C5.91727 75.4284 5.84901 75.9513 5.97331 76.6477L6.29978 78.4768L9.67261 77.8747Z" fill="white"/>
<path d="M13.0278 68.1593L13.0039 69.267L4.34766 65.8753L4.37115 64.7846L13.1654 61.7687L13.1415 62.8764L10.6516 63.7008L10.5757 67.2284L13.0278 68.1593ZM9.64552 66.8759L9.70718 64.013L5.7405 65.3256L5.73903 65.3938L9.64552 66.8759Z" fill="white"/>
<path d="M7.20379 48.0588L15.6668 50.1902L15.417 51.1819L7.61081 54.1201L7.59 54.2028L14.2348 55.8762L13.9767 56.9011L5.51367 54.7697L5.76345 53.7779L13.5904 50.8273L13.6112 50.7447L6.94986 49.0671L7.20379 48.0588Z" fill="white"/>
<path d="M19.0706 42.4749L17.8247 44.8626L10.0874 40.8255L11.3884 38.332C11.78 37.5815 12.27 37.02 12.8584 36.6477C13.4443 36.2741 14.0999 36.0954 14.8251 36.1118C15.5479 36.1268 16.3097 36.3432 17.1107 36.7611C17.9167 37.1817 18.5357 37.6873 18.9677 38.278C19.3971 38.8674 19.6248 39.5181 19.6506 40.2301C19.6739 40.9408 19.4806 41.6891 19.0706 42.4749ZM17.4824 43.492L18.2079 42.1017C18.7086 41.1421 18.8084 40.2874 18.5075 39.5375C18.2054 38.7839 17.5821 38.1607 16.6376 37.6679C15.7006 37.179 14.8431 37.0231 14.0649 37.2003C13.2867 37.3775 12.6611 37.9194 12.188 38.8262L11.4074 40.3223L17.4824 43.492Z" fill="white"/>
<path d="M18.2789 27.7943L25.1192 33.2142L24.4629 34.0425L17.6226 28.6226L18.2789 27.7943Z" fill="white"/>
<path d="M29.1127 17.1271L34.8119 23.7365L34.0373 24.4044L25.961 22.3206L25.8964 22.3762L30.3712 27.5657L29.5708 28.2558L23.8716 21.6464L24.6462 20.9785L32.7466 23.0641L32.8111 23.0084L28.3252 17.8061L29.1127 17.1271Z" fill="white"/>
<path d="M42.1826 12.5476C41.7549 12.1228 41.2767 11.86 40.748 11.7592C40.2219 11.6572 39.6787 11.7511 39.1185 12.0408C38.6593 12.2784 38.3031 12.613 38.0498 13.0447C37.7965 13.4764 37.6783 13.9805 37.6951 14.5572C37.7119 15.1338 37.8939 15.7577 38.2411 16.4289C38.5883 17.1001 38.9937 17.6085 39.4571 17.9541C39.9205 18.2997 40.4054 18.4918 40.9116 18.5306C41.4179 18.5694 41.9107 18.4648 42.3901 18.2168C42.8266 17.991 43.1651 17.6992 43.4054 17.3414C43.6469 16.9797 43.7761 16.5803 43.793 16.1429C43.8085 15.7031 43.7013 15.2484 43.4712 14.7789L41.4273 15.8362L40.9966 15.0035L43.9488 13.4763L44.3796 14.309C44.7098 14.9474 44.8607 15.573 44.8323 16.1858C44.8064 16.7974 44.6222 17.3564 44.2797 17.863C43.9385 18.3658 43.46 18.7764 42.8444 19.0949C42.158 19.4499 41.4714 19.6004 40.7845 19.5463C40.1002 19.4909 39.4589 19.2405 38.8607 18.7952C38.265 18.3485 37.7557 17.7163 37.3328 16.8988C36.9098 16.0812 36.6882 15.3003 36.6678 14.556C36.6499 13.8104 36.8123 13.1443 37.1549 12.5576C37.5001 11.9697 38.0032 11.5047 38.6643 11.1627C39.2093 10.8808 39.7594 10.7322 40.3144 10.7169C40.8682 10.6992 41.3912 10.8044 41.8835 11.0327C42.3745 11.2585 42.7972 11.5964 43.1515 12.0464L42.1826 12.5476Z" fill="white"/>
<path d="M60.1352 13.6337L59.0317 13.7333L61.4382 4.75316L62.5247 4.65503L66.5013 13.0587L65.3978 13.1583L64.3012 10.7757L60.7871 11.0931L60.1352 13.6337ZM61.0338 10.1295L63.8859 9.87192L62.1396 6.07611L62.0717 6.08224L61.0338 10.1295Z" fill="white"/>
<path d="M79.4622 5.60735L78.2866 14.2551L77.2732 14.1173L73.4839 6.68692L73.3994 6.67544L72.4764 13.4652L71.4292 13.3229L72.6048 4.67517L73.6182 4.81293L77.4221 12.2625L77.5066 12.274L78.4319 5.4673L79.4622 5.60735Z" fill="white"/>
<path d="M86.3329 16.7783L83.8213 15.8061L86.9716 7.66724L89.5944 8.68245C90.384 8.98804 90.9965 9.41247 91.432 9.95574C91.8686 10.4964 92.1191 11.128 92.1837 11.8506C92.2493 12.5705 92.119 13.3517 91.7929 14.1942C91.4647 15.042 91.0312 15.7135 90.4923 16.2086C89.9544 16.701 89.3331 16.9997 88.6284 17.1047C87.9247 17.207 87.1595 17.0982 86.3329 16.7783ZM85.1453 15.3133L86.6078 15.8794C87.6172 16.2701 88.4777 16.2741 89.1893 15.8916C89.9046 15.5074 90.4546 14.8186 90.8391 13.8251C91.2206 12.8395 91.28 11.9699 91.0172 11.2163C90.7545 10.4627 90.1462 9.9013 89.1925 9.53213L87.6187 8.923L85.1453 15.3133Z" fill="white"/>
<path d="M104.318 28.1255L102.377 26.2592L108.425 19.9673L110.452 21.9163C111.063 22.503 111.464 23.1309 111.656 23.8002C111.85 24.4675 111.837 25.1468 111.618 25.8383C111.4 26.5278 110.979 27.1982 110.353 27.8495C109.723 28.5049 109.064 28.9569 108.375 29.2056C107.689 29.4523 107.001 29.488 106.31 29.3128C105.621 29.1355 104.957 28.7398 104.318 28.1255ZM103.788 26.3157L104.919 27.4024C105.699 28.1525 106.492 28.4884 107.296 28.4102C108.104 28.332 108.877 27.9088 109.615 27.1407C110.348 26.3788 110.738 25.5996 110.787 24.803C110.835 24.0063 110.491 23.2537 109.754 22.5449L108.537 21.3755L103.788 26.3157Z" fill="white"/>
<path d="M110.909 35.5954L118.209 30.8127L121.096 35.2185L120.312 35.7322L118.004 32.2105L115.538 33.8265L117.695 37.1201L116.911 37.6339L114.753 34.3403L112.273 35.9656L114.617 39.5444L113.833 40.0582L110.909 35.5954Z" fill="white"/>
<path d="M124.959 42.9642L119.016 47.9997L119.052 48.0953L126.84 47.9024L127.234 48.9379L117.938 49.0486L117.549 48.0291L124.565 41.9288L124.959 42.9642Z" fill="white"/>
<path d="M120.134 56.8759L128.766 55.5922L129.541 60.8019L128.613 60.9398L127.994 56.7754L125.077 57.2092L125.656 61.1038L124.729 61.2417L124.15 57.3471L121.216 57.7834L121.846 62.0152L120.918 62.1531L120.134 56.8759Z" fill="white"/>
<path d="M121.066 68.55L129.789 68.8337L129.755 69.8899L121.969 69.6367L121.837 73.6914L120.9 73.6609L121.066 68.55Z" fill="white"/>
<path d="M123.044 84.3835C122.146 84.1811 121.407 83.8441 120.826 83.3724C120.245 82.9008 119.84 82.3423 119.613 81.697C119.386 81.0517 119.354 80.366 119.518 79.6399C119.681 78.9138 120.004 78.308 120.486 77.8226C120.969 77.3372 121.573 77.006 122.3 76.8292C123.027 76.6523 123.84 76.6651 124.738 76.8675C125.636 77.0698 126.375 77.4068 126.956 77.8785C127.537 78.3501 127.941 78.9086 128.169 79.5539C128.396 80.1993 128.428 80.885 128.264 81.6111C128.101 82.3372 127.778 82.9429 127.295 83.4284C126.813 83.9138 126.209 84.2449 125.482 84.4218C124.754 84.5986 123.942 84.5859 123.044 84.3835ZM123.269 83.3858C124.006 83.5519 124.656 83.5688 125.219 83.4365C125.781 83.3069 126.239 83.0622 126.594 82.7024C126.948 82.3454 127.184 81.9092 127.3 81.3937C127.416 80.8782 127.391 80.3819 127.225 79.9047C127.058 79.4303 126.749 79.0126 126.297 78.6516C125.845 78.2935 125.25 78.0313 124.513 77.8652C123.776 77.699 123.126 77.6807 122.564 77.8103C122.001 77.9427 121.543 78.1873 121.189 78.5443C120.834 78.9041 120.598 79.3417 120.482 79.8572C120.366 80.3727 120.391 80.8677 120.558 81.3421C120.724 81.8193 121.033 82.237 121.486 82.5951C121.937 82.9561 122.532 83.2196 123.269 83.3858Z" fill="white"/>
<path d="M116.861 88.3718L124.697 92.2138L123.399 94.8616C123.097 95.4763 122.74 95.9244 122.327 96.2059C121.915 96.4911 121.475 96.6362 121.007 96.6411C120.54 96.6461 120.075 96.5353 119.614 96.309C119.152 96.0826 118.779 95.7825 118.494 95.4086C118.207 95.0373 118.048 94.6015 118.015 94.1012C117.984 93.6021 118.118 93.0477 118.417 92.4381L119.258 90.7239L116.396 89.3207L116.861 88.3718ZM120.099 91.1367L119.274 92.8202C118.965 93.4502 118.904 93.9754 119.09 94.3958C119.275 94.8187 119.602 95.1452 120.071 95.3754C120.543 95.6067 120.999 95.6642 121.439 95.5477C121.882 95.4324 122.259 95.0559 122.572 94.4182L123.39 92.75L120.099 91.1367Z" fill="white"/>
<path d="M117.278 105.118L116.449 106.069L109.039 103.544L108.972 103.621L112.483 110.617L111.654 111.568L105.076 105.832L105.726 105.087L110.724 109.445L110.78 109.381L107.574 102.967L108.201 102.248L114.992 104.55L115.048 104.486L110.05 100.128L110.7 99.3828L117.278 105.118Z" fill="white"/>
<path d="M99.6488 110.385L104.587 117.58L100.245 120.561L99.7145 119.788L103.186 117.405L101.517 114.974L98.2706 117.202L97.74 116.429L100.986 114.201L99.308 111.756L95.7806 114.177L95.25 113.404L99.6488 110.385Z" fill="white"/>
<path d="M86.4281 127.046L83.2207 118.93L84.1718 118.554L91.113 123.179L91.1923 123.147L88.674 116.775L89.6568 116.386L92.8642 124.503L91.9131 124.879L84.9498 120.244L84.8705 120.275L87.3951 126.664L86.4281 127.046Z" fill="white"/>
<path d="M79.3681 127.832L79.5259 128.756L73.0739 129.858L72.916 128.934L75.6212 128.472L74.3097 120.793L75.3514 120.615L76.6629 128.294L79.3681 127.832Z" fill="white"/>
</svg>
