<svg width="401" height="134" viewBox="0 0 401 134" fill="none" xmlns="http://www.w3.org/2000/svg">
<path d="M29.7725 67.4512L34.5088 68.6475C33.516 72.5374 31.7256 75.5078 29.1377 77.5586C26.5661 79.5931 23.4167 80.6104 19.6895 80.6104C15.832 80.6104 12.6908 79.8291 10.2656 78.2666C7.85677 76.6878 6.01758 74.4092 4.74805 71.4307C3.49479 68.4521 2.86816 65.2539 2.86816 61.8359C2.86816 58.1087 3.57617 54.8617 4.99219 52.0947C6.42448 49.3115 8.45085 47.2038 11.0713 45.7715C13.708 44.3229 16.6051 43.5986 19.7627 43.5986C23.3434 43.5986 26.3545 44.5101 28.7959 46.333C31.2373 48.1559 32.9382 50.7194 33.8984 54.0234L29.2354 55.1221C28.4053 52.5179 27.2008 50.6217 25.6221 49.4336C24.0433 48.2454 22.0576 47.6514 19.665 47.6514C16.9144 47.6514 14.6113 48.3105 12.7559 49.6289C10.9167 50.9473 9.62272 52.7214 8.87402 54.9512C8.12533 57.1647 7.75098 59.4515 7.75098 61.8115C7.75098 64.8551 8.19043 67.5163 9.06934 69.7949C9.96452 72.0573 11.348 73.75 13.2197 74.873C15.0915 75.9961 17.1178 76.5576 19.2988 76.5576C21.9518 76.5576 24.1979 75.7926 26.0371 74.2627C27.8763 72.7327 29.1214 70.4622 29.7725 67.4512ZM36.4375 80L50.1826 44.209H55.2852L69.9336 80H64.5381L60.3633 69.1602H45.3975L41.4668 80H36.4375ZM46.7646 65.3027H58.8984L55.1631 55.3906C54.0238 52.3796 53.1774 49.9056 52.624 47.9688C52.1683 50.2637 51.5254 52.5423 50.6953 54.8047L46.7646 65.3027ZM73.791 80V44.209H89.6602C92.8503 44.209 95.2754 44.5345 96.9355 45.1855C98.5957 45.8203 99.9222 46.9515 100.915 48.5791C101.908 50.2067 102.404 52.0052 102.404 53.9746C102.404 56.5137 101.582 58.654 99.9385 60.3955C98.2946 62.137 95.7555 63.2438 92.3213 63.7158C93.5745 64.318 94.5267 64.9121 95.1777 65.498C96.5612 66.7676 97.8714 68.3545 99.1084 70.2588L105.334 80H99.377L94.6406 72.5537C93.2572 70.4053 92.1178 68.7614 91.2227 67.6221C90.3275 66.4827 89.5218 65.6852 88.8057 65.2295C88.1058 64.7738 87.3896 64.4564 86.6572 64.2773C86.1201 64.1634 85.2412 64.1064 84.0205 64.1064H78.5273V80H73.791ZM78.5273 60.0049H88.708C90.8727 60.0049 92.5654 59.7852 93.7861 59.3457C95.0068 58.89 95.9346 58.1738 96.5693 57.1973C97.2041 56.2044 97.5215 55.1302 97.5215 53.9746C97.5215 52.2819 96.903 50.8903 95.666 49.7998C94.4453 48.7093 92.5085 48.1641 89.8555 48.1641H78.5273V60.0049ZM109.851 80V44.209H122.18C124.963 44.209 127.087 44.3799 128.552 44.7217C130.603 45.1937 132.352 46.0482 133.801 47.2852C135.689 48.8802 137.097 50.9229 138.024 53.4131C138.968 55.887 139.44 58.7191 139.44 61.9092C139.44 64.6273 139.123 67.0361 138.488 69.1357C137.854 71.2354 137.04 72.9769 136.047 74.3604C135.054 75.7275 133.964 76.8099 132.775 77.6074C131.604 78.3887 130.179 78.9827 128.503 79.3896C126.843 79.7965 124.93 80 122.766 80H109.851ZM114.587 75.7764H122.229C124.589 75.7764 126.436 75.5566 127.771 75.1172C129.121 74.6777 130.196 74.0592 130.993 73.2617C132.116 72.1387 132.987 70.6331 133.605 68.7451C134.24 66.8408 134.558 64.5378 134.558 61.8359C134.558 58.0924 133.939 55.2197 132.702 53.2178C131.481 51.1995 129.992 49.8486 128.234 49.165C126.965 48.6768 124.922 48.4326 122.106 48.4326H114.587V75.7764ZM185.437 67.4512L190.173 68.6475C189.18 72.5374 187.39 75.5078 184.802 77.5586C182.23 79.5931 179.081 80.6104 175.354 80.6104C171.496 80.6104 168.355 79.8291 165.93 78.2666C163.521 76.6878 161.682 74.4092 160.412 71.4307C159.159 68.4521 158.532 65.2539 158.532 61.8359C158.532 58.1087 159.24 54.8617 160.656 52.0947C162.089 49.3115 164.115 47.2038 166.735 45.7715C169.372 44.3229 172.269 43.5986 175.427 43.5986C179.007 43.5986 182.019 44.5101 184.46 46.333C186.901 48.1559 188.602 50.7194 189.562 54.0234L184.899 55.1221C184.069 52.5179 182.865 50.6217 181.286 49.4336C179.707 48.2454 177.722 47.6514 175.329 47.6514C172.578 47.6514 170.275 48.3105 168.42 49.6289C166.581 50.9473 165.287 52.7214 164.538 54.9512C163.789 57.1647 163.415 59.4515 163.415 61.8115C163.415 64.8551 163.854 67.5163 164.733 69.7949C165.629 72.0573 167.012 73.75 168.884 74.873C170.756 75.9961 172.782 76.5576 174.963 76.5576C177.616 76.5576 179.862 75.7926 181.701 74.2627C183.54 72.7327 184.785 70.4622 185.437 67.4512ZM196.179 80V44.209H200.915V58.9062H219.519V44.209H224.255V80H219.519V63.1299H200.915V80H196.179ZM232.263 80V44.209H258.142V48.4326H236.999V59.3945H256.799V63.5938H236.999V75.7764H258.972V80H232.263ZM291.052 67.4512L295.788 68.6475C294.795 72.5374 293.005 75.5078 290.417 77.5586C287.845 79.5931 284.696 80.6104 280.969 80.6104C277.111 80.6104 273.97 79.8291 271.545 78.2666C269.136 76.6878 267.297 74.4092 266.027 71.4307C264.774 68.4521 264.147 65.2539 264.147 61.8359C264.147 58.1087 264.855 54.8617 266.271 52.0947C267.704 49.3115 269.73 47.2038 272.351 45.7715C274.987 44.3229 277.884 43.5986 281.042 43.5986C284.623 43.5986 287.634 44.5101 290.075 46.333C292.517 48.1559 294.217 50.7194 295.178 54.0234L290.515 55.1221C289.685 52.5179 288.48 50.6217 286.901 49.4336C285.323 48.2454 283.337 47.6514 280.944 47.6514C278.194 47.6514 275.891 48.3105 274.035 49.6289C272.196 50.9473 270.902 52.7214 270.153 54.9512C269.405 57.1647 269.03 59.4515 269.03 61.8115C269.03 64.8551 269.47 67.5163 270.349 69.7949C271.244 72.0573 272.627 73.75 274.499 74.873C276.371 75.9961 278.397 76.5576 280.578 76.5576C283.231 76.5576 285.477 75.7926 287.316 74.2627C289.156 72.7327 290.401 70.4622 291.052 67.4512ZM301.452 80V44.209H306.188V61.958L323.962 44.209H330.383L315.368 58.7109L331.042 80H324.792L312.048 61.8848L306.188 67.5977V80H301.452ZM335.095 80V44.209H360.974V48.4326H339.831V59.3945H359.631V63.5938H339.831V75.7764H361.804V80H335.095ZM368.42 80V44.209H384.289C387.479 44.209 389.904 44.5345 391.564 45.1855C393.225 45.8203 394.551 46.9515 395.544 48.5791C396.537 50.2067 397.033 52.0052 397.033 53.9746C397.033 56.5137 396.211 58.654 394.567 60.3955C392.924 62.137 390.384 63.2438 386.95 63.7158C388.203 64.318 389.156 64.9121 389.807 65.498C391.19 66.7676 392.5 68.3545 393.737 70.2588L399.963 80H394.006L389.27 72.5537C387.886 70.4053 386.747 68.7614 385.852 67.6221C384.956 66.4827 384.151 65.6852 383.435 65.2295C382.735 64.7738 382.019 64.4564 381.286 64.2773C380.749 64.1634 379.87 64.1064 378.649 64.1064H373.156V80H368.42ZM373.156 60.0049H383.337C385.502 60.0049 387.194 59.7852 388.415 59.3457C389.636 58.89 390.563 58.1738 391.198 57.1973C391.833 56.2044 392.15 55.1302 392.15 53.9746C392.15 52.2819 391.532 50.8903 390.295 49.7998C389.074 48.7093 387.137 48.1641 384.484 48.1641H373.156V60.0049Z" fill="url(#paint0_radial_206_6)"/>
<path opacity="0.47" d="M160.403 130H159.18V119.263H160.499V123.093C161.055 122.395 161.766 122.046 162.63 122.046C163.108 122.046 163.56 122.144 163.985 122.339C164.415 122.529 164.766 122.8 165.04 123.152C165.318 123.499 165.535 123.918 165.691 124.412C165.848 124.905 165.926 125.432 165.926 125.994C165.926 127.327 165.596 128.357 164.937 129.084C164.278 129.812 163.487 130.176 162.564 130.176C161.646 130.176 160.926 129.792 160.403 129.026V130ZM160.389 126.052C160.389 126.985 160.516 127.659 160.77 128.074C161.185 128.752 161.746 129.092 162.454 129.092C163.03 129.092 163.528 128.843 163.948 128.345C164.368 127.842 164.578 127.095 164.578 126.104C164.578 125.088 164.375 124.338 163.97 123.855C163.57 123.372 163.084 123.13 162.513 123.13C161.937 123.13 161.438 123.381 161.019 123.884C160.599 124.382 160.389 125.105 160.389 126.052ZM167.479 132.996L167.332 131.758C167.62 131.836 167.872 131.875 168.086 131.875C168.379 131.875 168.614 131.826 168.79 131.729C168.965 131.631 169.109 131.494 169.222 131.318C169.305 131.187 169.439 130.859 169.625 130.337C169.649 130.264 169.688 130.156 169.742 130.015L166.79 122.222H168.211L169.83 126.726C170.04 127.297 170.228 127.898 170.394 128.528C170.545 127.922 170.726 127.332 170.936 126.755L172.598 122.222H173.917L170.958 130.132C170.64 130.986 170.394 131.575 170.218 131.897C169.983 132.332 169.715 132.649 169.412 132.849C169.109 133.054 168.748 133.157 168.328 133.157C168.074 133.157 167.791 133.103 167.479 132.996ZM184.288 127.151L185.584 127.319C185.442 128.213 185.079 128.914 184.493 129.421C183.912 129.924 183.196 130.176 182.347 130.176C181.282 130.176 180.425 129.829 179.776 129.136C179.131 128.438 178.809 127.439 178.809 126.14C178.809 125.3 178.948 124.565 179.227 123.936C179.505 123.306 179.927 122.834 180.494 122.522C181.065 122.205 181.685 122.046 182.354 122.046C183.199 122.046 183.89 122.261 184.427 122.69C184.964 123.115 185.308 123.721 185.459 124.507L184.178 124.705C184.056 124.182 183.838 123.789 183.526 123.525C183.218 123.262 182.845 123.13 182.405 123.13C181.741 123.13 181.202 123.369 180.787 123.848C180.372 124.321 180.164 125.073 180.164 126.104C180.164 127.148 180.364 127.908 180.765 128.381C181.165 128.855 181.688 129.092 182.332 129.092C182.85 129.092 183.282 128.933 183.628 128.616C183.975 128.298 184.195 127.81 184.288 127.151ZM189.949 130L185.789 119.263H187.327L190.118 127.063C190.342 127.688 190.53 128.274 190.682 128.821C190.848 128.235 191.041 127.649 191.26 127.063L194.161 119.263H195.611L191.407 130H189.949ZM198.877 130L195.918 122.222H197.31L198.98 126.88C199.161 127.383 199.327 127.905 199.478 128.447C199.595 128.037 199.759 127.544 199.969 126.968L201.697 122.222H203.052L200.108 130H198.877ZM208.15 130.645L209.432 130.835C209.485 131.23 209.634 131.519 209.878 131.699C210.206 131.943 210.652 132.065 211.219 132.065C211.829 132.065 212.3 131.943 212.632 131.699C212.964 131.455 213.189 131.113 213.306 130.674C213.375 130.405 213.406 129.841 213.401 128.982C212.825 129.661 212.107 130 211.248 130C210.179 130 209.351 129.614 208.765 128.843C208.179 128.071 207.886 127.146 207.886 126.067C207.886 125.325 208.021 124.641 208.289 124.016C208.558 123.386 208.946 122.9 209.454 122.559C209.966 122.217 210.567 122.046 211.255 122.046C212.173 122.046 212.93 122.417 213.526 123.159V122.222H214.742V128.945C214.742 130.156 214.617 131.013 214.368 131.516C214.124 132.024 213.733 132.424 213.196 132.717C212.664 133.01 212.007 133.157 211.226 133.157C210.298 133.157 209.549 132.947 208.978 132.527C208.406 132.112 208.13 131.484 208.15 130.645ZM209.241 125.972C209.241 126.992 209.444 127.737 209.849 128.206C210.254 128.674 210.762 128.909 211.373 128.909C211.978 128.909 212.486 128.677 212.896 128.213C213.306 127.744 213.511 127.012 213.511 126.016C213.511 125.063 213.299 124.346 212.874 123.862C212.454 123.379 211.946 123.137 211.351 123.137C210.765 123.137 210.267 123.376 209.856 123.855C209.446 124.329 209.241 125.034 209.241 125.972ZM221.817 129.041C221.329 129.456 220.857 129.749 220.403 129.919C219.954 130.09 219.471 130.176 218.953 130.176C218.099 130.176 217.442 129.968 216.983 129.553C216.524 129.133 216.294 128.599 216.294 127.949C216.294 127.568 216.38 127.222 216.551 126.909C216.727 126.592 216.954 126.338 217.232 126.147C217.515 125.957 217.833 125.813 218.184 125.715C218.443 125.647 218.833 125.581 219.356 125.518C220.42 125.391 221.204 125.239 221.707 125.063C221.712 124.883 221.714 124.768 221.714 124.719C221.714 124.182 221.59 123.804 221.341 123.584C221.004 123.286 220.503 123.137 219.839 123.137C219.219 123.137 218.76 123.247 218.462 123.467C218.169 123.682 217.952 124.065 217.811 124.617L216.521 124.441C216.639 123.889 216.832 123.445 217.1 123.108C217.369 122.766 217.757 122.505 218.265 122.324C218.772 122.139 219.361 122.046 220.03 122.046C220.694 122.046 221.233 122.124 221.648 122.28C222.063 122.437 222.369 122.634 222.564 122.874C222.759 123.108 222.896 123.406 222.974 123.767C223.018 123.992 223.04 124.397 223.04 124.983V126.741C223.04 127.966 223.067 128.743 223.121 129.07C223.179 129.392 223.292 129.702 223.458 130H222.081C221.944 129.727 221.856 129.407 221.817 129.041ZM221.707 126.096C221.229 126.292 220.511 126.458 219.554 126.594C219.012 126.672 218.628 126.76 218.404 126.858C218.179 126.956 218.006 127.1 217.884 127.29C217.762 127.476 217.701 127.683 217.701 127.913C217.701 128.264 217.833 128.557 218.096 128.792C218.365 129.026 218.755 129.143 219.268 129.143C219.776 129.143 220.228 129.033 220.623 128.813C221.019 128.589 221.309 128.284 221.495 127.898C221.636 127.6 221.707 127.161 221.707 126.58V126.096ZM225.091 130V122.222H226.277V123.328C226.849 122.473 227.674 122.046 228.753 122.046C229.222 122.046 229.651 122.131 230.042 122.302C230.438 122.468 230.733 122.688 230.928 122.961C231.124 123.235 231.26 123.56 231.338 123.936C231.387 124.18 231.412 124.607 231.412 125.217V130H230.093V125.269C230.093 124.731 230.042 124.331 229.939 124.067C229.837 123.799 229.654 123.586 229.39 123.43C229.131 123.269 228.826 123.188 228.475 123.188C227.913 123.188 227.427 123.367 227.017 123.723C226.612 124.08 226.409 124.756 226.409 125.752V130H225.091ZM233.199 130.645L234.48 130.835C234.534 131.23 234.683 131.519 234.927 131.699C235.254 131.943 235.701 132.065 236.268 132.065C236.878 132.065 237.349 131.943 237.681 131.699C238.013 131.455 238.238 131.113 238.355 130.674C238.423 130.405 238.455 129.841 238.45 128.982C237.874 129.661 237.156 130 236.297 130C235.228 130 234.4 129.614 233.814 128.843C233.228 128.071 232.935 127.146 232.935 126.067C232.935 125.325 233.069 124.641 233.338 124.016C233.606 123.386 233.995 122.9 234.502 122.559C235.015 122.217 235.616 122.046 236.304 122.046C237.222 122.046 237.979 122.417 238.575 123.159V122.222H239.791V128.945C239.791 130.156 239.666 131.013 239.417 131.516C239.173 132.024 238.782 132.424 238.245 132.717C237.713 133.01 237.056 133.157 236.275 133.157C235.347 133.157 234.598 132.947 234.026 132.527C233.455 132.112 233.179 131.484 233.199 130.645ZM234.29 125.972C234.29 126.992 234.493 127.737 234.898 128.206C235.303 128.674 235.811 128.909 236.421 128.909C237.027 128.909 237.535 128.677 237.945 128.213C238.355 127.744 238.56 127.012 238.56 126.016C238.56 125.063 238.348 124.346 237.923 123.862C237.503 123.379 236.995 123.137 236.399 123.137C235.813 123.137 235.315 123.376 234.905 123.855C234.495 124.329 234.29 125.034 234.29 125.972Z" fill="url(#paint1_radial_206_6)"/>
<path d="M73.8462 0V6.56325H72V0M118.557 0V6.56325H120.404V0M186.309 0V6.56325H188.156V0M79.4988 0V6.56325H81.345V0M138.489 0V6.56325H140.336V0M144.68 0V6.56325H146.526V0M227.947 0V6.56325H229.793V0M245.302 0V6.56325H247.148V0M326.154 0V6.56325H328V0M262.156 0V6.56325H264.003V0M268.347 0V6.56325H270.193V0M288.275 0V6.56325H290.121V0M294.466 0V6.56325H296.312V0M162.784 0V6.56325H164.631V0M183.571 0V6.56325H185.417V0" fill="url(#paint2_radial_206_6)"/>
<defs>
<radialGradient id="paint0_radial_206_6" cx="0" cy="0" r="1" gradientUnits="userSpaceOnUse" gradientTransform="translate(200.5 62.5) rotate(90) scale(50.5 430.862)">
<stop stop-color="white"/>
<stop offset="1" stop-color="white" stop-opacity="0"/>
</radialGradient>
<radialGradient id="paint1_radial_206_6" cx="0" cy="0" r="1" gradientUnits="userSpaceOnUse" gradientTransform="translate(199.5 125) rotate(90) scale(14.1489 83.883)">
<stop stop-color="white"/>
<stop offset="1" stop-color="white" stop-opacity="0"/>
</radialGradient>
<radialGradient id="paint2_radial_206_6" cx="0" cy="0" r="1" gradientUnits="userSpaceOnUse" gradientTransform="translate(200 3.28162) rotate(90) scale(5.03007 196.198)">
<stop stop-color="white"/>
<stop offset="1" stop-color="white" stop-opacity="0"/>
</radialGradient>
</defs>
</svg>
