<?xml version="1.0" encoding="UTF-8"?>
<svg width="72px" height="72px" viewBox="0 0 72 72" version="1.1" xmlns="http://www.w3.org/2000/svg" xmlns:xlink="http://www.w3.org/1999/xlink">
    <title>fgm</title>
    <defs>
        <path d="M1.69329412,12.39125 L0,12.39125 L0,0.618125 L2.87164706,0 L6.41041176,0 L4.69858824,6.195625 L4.19141176,8.634375 L4.42894118,11.10875 C4.88629412,11.699375 5.25605882,12.02125 5.53835294,12.073125 C5.82058824,12.125625 6.24923529,12.125625 6.82435294,12.073125 C6.79994118,13.20875 6.75670588,13.945625 6.69452941,14.284375 C6.63241176,14.623125 6.60235294,15.07875 6.60447059,15.650625 L7.38335294,15.8675 C8.46111765,15.989375 9,16.160625 9,16.38125 C9,16.601875 8.95264706,17.76625 8.85788235,19.874375 L8.52282353,22.609375 L8.20529412,25 L3.31582353,25 L1.69329412,12.39125 Z" id="path-1"></path>
        <path d="M9.33016,1.24501454 C9.67592889,1.24501454 10.5727378,0.560427704 10.5727378,0.353759981 C10.5727378,0.147738094 12.00752,-0.134492515 12.5071644,0.0721752081 C12.8403022,0.209738411 13.1419556,0.600469576 13.4121867,1.24501454 C13.7032,2.37135363 13.8823378,3.30975426 13.9496,4.05957059 C14.0168,4.80938693 14.0168,5.86920485 13.9496,7.23902436 L9.87286222,11.4944419 L9.87286222,14.3535607 L11.12104,15.8538392 L11.12104,16.9549907 L9.00567111,23.0510427 L9.00567111,26.0690373 L10.5727378,26.0690373 L10.5727378,31 L6.80076444,31 L5.77552889,21.4635762 L3.00950222,20.7092391 L4.11133333,10.2893108 L2.17012444,15.6103588 C1.60757333,16.1567366 1.10898667,16.3162583 0.674426667,16.0869863 C0.239866667,15.8583601 0.0150577778,15.2803363 0,14.3535607 C2.67288,5.26470175 4.04332444,0.650844833 4.11133333,0.510698283 C4.21337778,0.301447214 5.47219556,0.235571877 6.21394667,0.235571877 C6.95563556,0.235571877 7,1.24501454 7.37146667,1.24501454 C7.74293333,1.24501454 8.98439111,1.24501454 9.33016,1.24501454 Z" id="path-3"></path>
        <path d="M3.19675145,0 L5.14519117,0 C6.83759946,2.2446 7.75611556,3.4824 7.90073944,3.7128 C8.11764817,4.059 7.93308881,4.995 7.78337139,5.2494 C7.68361396,5.4192 7.40097695,5.4534 6.93556873,5.3526 C6.73269431,5.2878 6.59999147,5.2164 6.53756857,5.1384 C6.44393422,5.0214 5.75961237,5.1324 5.69231268,5.2494 C5.64744622,5.3274 5.46505432,5.5776 5.14519117,6 L2.98607417,6 C2.81728308,5.5458 2.69232892,5.2686 2.61126585,5.169 C2.53957705,5.0802 2.46897198,5.0358 2.39955902,5.0358 C2.1189811,5.0358 1.78470432,5.0358 1.60334196,5.0358 C1.48245178,5.0358 1.35099522,5.1414 1.20902648,5.3526 C0.747032012,5.5488 0.432912619,5.5146 0.266559932,5.2494 C0.0170850861,4.8522 -0.144770118,4.1118 0.187826884,3.7128 C0.409612406,3.4476 1.41255114,2.2098 3.19675145,0 Z" id="path-5"></path>
        <path d="M4.2331345,0.7 C5.28225146,0.7 5.28225146,0.7 6.16476023,0.7 C6.38527485,0.7 6.7598538,0.39 7.01414035,0.230625 C7.18364327,0.124375 7.55140351,0.0475 8.11742105,0 L11,8.668125 L7.32329825,8.668125 L6.44921637,15 L3.62060819,15 L3.29710526,8.668125 L-2.52112188e-23,8.668125 L2.35425731,0 C2.84417544,0.079375 3.15847953,0.15625 3.29710526,0.230625 C3.6395848,0.415625 3.79789474,0.7 4.2331345,0.7 Z" id="path-7"></path>
        <path d="M0.467936508,0 L11.0230476,0 L11.7102222,0.375875 L12,2.27785417 C11.3486984,2.58527083 10.9527619,3.08514583 10.8121905,3.77747917 C10.6013968,4.816625 10.1363175,7.37541667 10.0138413,7.85527083 C9.93212698,8.1743125 9.59060317,9.77727083 8.98926984,12.6635 L8.62730159,14.4427708 L9.41320635,15.8151667 L8.27028571,31 L3.74990476,31 L2.90768254,26.0923125 L6.23396825,26.0923125 L6.66546032,25.2333542 L6.66546032,23.6781875 L3.96679365,16.5378542 L3.96679365,15.3094792 C4.98812698,14.8929167 5.54355556,14.6035833 5.63295238,14.4427708 C5.76704762,14.201875 5.72774603,12.9095625 5.72774603,12.6635 C5.72774603,12.4994583 4.18057143,10.7582917 1.08609524,7.44 L1.76751724e-22,7.44 L1.76751724e-22,0.9474375 L0.467936508,0 Z" id="path-9"></path>
        <path d="M0,11.1830405 L2.37108967,0.616005531 C2.60301274,0.255587319 3.01115375,0.0760061196 3.5953845,0.0760061196 C4.17961525,0.0760061196 4.73711524,0.255587319 5.26794855,0.616005531 L7.56012797,0.616005531 C8.05006385,0.36044767 8.37256384,0.180238564 8.52775614,0.0760061196 C8.76044844,-0.0809704534 9.42371765,0.0496340555 9.63121765,0.0760061196 C9.76948687,0.0929595895 10.0271792,0.160145563 10.4042945,0.276308227 C11.0891663,0.276308227 11.6369227,0.276308227 12.0476278,0.276308227 C12.6637176,0.276308227 14.0805765,1.38330702 14.3619226,1.65456254 C14.6432688,1.92581806 15.1025636,3.95709491 14.9794867,4.70681503 C14.8974995,5.20662843 14.4625636,5.95006948 13.6748714,6.93588235 L12.0476278,8.31602038 L12.0476278,10.349181 L12.0476278,11.0781802 L11.6245509,11.8398305 L11.6245509,13.6212006 L12.3726278,16.9980807 L8.69814075,17.1268015 L7.56012797,27 L5.26794855,27 L3.94435885,16.9980807 L0.54166665,16.9980807 L1.34788457,12.0275745 L1.34788457,11.1830405 L0,11.1830405 Z" id="path-11"></path>
        <path d="M0.962155464,6.63092876 C1.76264605,5.79852928 5.35707008,1.40538008 5.91208718,0.858446905 C6.46716861,0.310882161 6.93232028,0.212989963 7.625963,0.050046822 C8.0883486,-0.0585819389 8.6058628,0.00962681793 9.17844129,0.254673092 C9.84577409,0.644978758 10.3183877,1.07191505 10.5963466,1.53611354 C11.013317,2.23272704 11.0517205,2.27946267 10.9573521,3.22680652 C10.8629195,4.1735188 10.984241,4.01815441 10.2434463,5.07475858 C9.50265156,6.13136275 9.02598527,6.54314156 8.37441269,6.91134254 C7.72277579,7.28017507 5.09307029,7.01870817 4.68883669,7.28017507 C4.28453877,7.54164197 3.84994263,7.90100107 3.84994263,8.40435644 C3.84994263,8.9077118 4.68883669,9.55758968 4.68883669,10.2535716 C4.68883669,10.9495536 4.30557384,11.6082733 3.84994263,11.8318465 C3.39424709,12.0560512 2.43235897,12.0560512 1.82317817,11.8318465 C1.21399737,11.6082733 0.326986384,10.726612 0.08041933,9.67442875 C-0.166147724,8.62224552 0.161664879,7.46269665 0.962155464,6.63092876 Z" id="path-13"></path>
        <path d="M2,5 C3.10457143,5 4,3.88071429 4,2.5 C4,1.11928571 3.10457143,0 2,0 C0.895428571,0 0,1.11928571 0,2.5 C0,3.88071429 0.895428571,5 2,5 Z" id="path-15"></path>
        <path d="M3,7 C4.65684848,7 6,5.43327273 6,3.5 C6,1.56672727 4.65684848,0 3,0 C1.34315152,0 0,1.56672727 0,3.5 C0,5.43327273 1.34315152,7 3,7 Z" id="path-17"></path>
        <path d="M3.5,7 C5.43297222,7 7,5.43316667 7,3.5 C7,1.56683333 5.43297222,0 3.5,0 C1.56702778,0 0,1.56683333 0,3.5 C0,5.43316667 1.56702778,7 3.5,7 Z" id="path-19"></path>
        <path d="M3.5,8 C5.43301709,8 7,6.20923077 7,4 C7,1.79076923 5.43301709,0 3.5,0 C1.56698291,0 0,1.79076923 0,4 C0,6.20923077 1.56698291,8 3.5,8 Z" id="path-21"></path>
        <path d="M1.51870475,3.52759202 C0.952199058,3.75798169 0.553127897,4.09416254 0.321491271,4.53495911 C-0.0258929609,5.19556623 -0.130751666,6.03366743 0.202703257,7.048675 C0.472309623,7.86914434 0.945057636,8.13244682 1.36314902,8.42866212 C1.49218957,8.51976007 1.65241197,8.56677838 1.82246267,8.6449463 C2.71096873,9.05518097 4.54850616,9.11454158 5.17589071,8.79893123 C5.80320455,8.48273316 6.65762976,7.93908406 6.86798354,6.94112063 C7.0782666,5.94256948 7.06391305,4.48441443 6.62962973,4.13706674 C6.34015466,3.90550161 6.03865936,3.64455004 5.72514386,3.35362431 C5.72514386,2.90401181 5.72514386,2.63894614 5.72514386,2.55725184 C5.72514386,2.47555754 5.97721485,2.3868105 6.48135684,2.29042298 C6.58020543,2.03476098 6.62962973,1.82200317 6.62962973,1.65332501 C6.62962973,1.40001392 6.48135684,0.504903022 5.37174952,0.184003121 C4.2621422,-0.13689678 2.87310022,0.0276672718 2.14559435,0.184003121 C1.41815918,0.34033897 1.06978505,0.776433708 0.82881508,1.16198377 C0.668168431,1.41882124 0.668168431,1.79496764 0.82881508,2.29042298 C1.2887651,2.35918725 1.51870475,2.44793429 1.51870475,2.55725184 C1.51870475,2.66715712 1.51870475,2.99040793 1.51870475,3.52759202 Z" id="path-23"></path>
    </defs>
    <g id="Page-1" stroke="none" stroke-width="1" fill="none" fill-rule="evenodd">
        <g id="fgm">
            <circle id="Oval" fill="#F7941D" cx="36" cy="36" r="36"></circle>
            <g id="live-saved-humanitarian-context" transform="translate(13.000000, 17.000000)">
                <g id="Fill-550-Clipped" transform="translate(0.000000, 14.000000)">
                    <mask id="mask-2" fill="white">
                        <use xlink:href="#path-1"></use>
                    </mask>
                    <g id="path-1"></g>
                    <polygon id="Fill-550" fill="#FFFFFF" fill-rule="nonzero" mask="url(#mask-2)" points="-2.94117647 -3.125 11.9411765 -3.125 11.9411765 28.125 -2.94117647 28.125"></polygon>
                </g>
                <g id="Fill-553-Clipped" transform="translate(6.000000, 8.000000)">
                    <mask id="mask-4" fill="white">
                        <use xlink:href="#path-3"></use>
                    </mask>
                    <g id="path-3"></g>
                    <polygon id="Fill-553" fill="#FFFFFF" fill-rule="nonzero" mask="url(#mask-4)" points="-3.11111111 -3.22934167 17.1111111 -3.22934167 17.1111111 34.2291832 -3.11111111 34.2291832"></polygon>
                </g>
                <g id="Fill-556-Clipped" transform="translate(18.000000, 17.000000)">
                    <mask id="mask-6" fill="white">
                        <use xlink:href="#path-5"></use>
                    </mask>
                    <g id="path-5"></g>
                    <polygon id="Fill-556" fill="#FFFFFF" fill-rule="nonzero" mask="url(#mask-6)" points="-2.70931084 -3 10.7093364 -3 10.7093364 9 -2.70931084 9"></polygon>
                </g>
                <g id="Fill-559-Clipped" transform="translate(17.000000, 24.000000)">
                    <mask id="mask-8" fill="white">
                        <use xlink:href="#path-7"></use>
                    </mask>
                    <g id="path-7"></g>
                    <polygon id="Fill-559" fill="#FFFFFF" fill-rule="nonzero" mask="url(#mask-8)" points="-3.21637427 -3.125 14.2163743 -3.125 14.2163743 18.125 -3.21637427 18.125"></polygon>
                </g>
                <g id="Fill-562-Clipped" transform="translate(23.000000, 8.000000)">
                    <mask id="mask-10" fill="white">
                        <use xlink:href="#path-9"></use>
                    </mask>
                    <g id="path-9"></g>
                    <polygon id="Fill-562" fill="#FFFFFF" fill-rule="nonzero" mask="url(#mask-10)" points="-3.17460317 -3.22916667 15.1746032 -3.22916667 15.1746032 34.2291667 -3.17460317 34.2291667"></polygon>
                </g>
                <g id="Fill-565-Clipped" transform="translate(33.000000, 12.000000)">
                    <mask id="mask-12" fill="white">
                        <use xlink:href="#path-11"></use>
                    </mask>
                    <g id="path-11"></g>
                    <polygon id="Fill-565" fill="#FFFFFF" fill-rule="nonzero" mask="url(#mask-12)" points="-3.2051281 -3.139502 18.2051276 -3.139502 18.2051276 30.1395315 -3.2051281 30.1395315"></polygon>
                </g>
                <g id="Fill-568-Clipped" transform="translate(35.000000, 13.000000)">
                    <mask id="mask-14" fill="white">
                        <use xlink:href="#path-13"></use>
                    </mask>
                    <g id="path-13"></g>
                    <polygon id="Fill-568" fill="#F7941D" fill-rule="nonzero" mask="url(#mask-14)" points="-3.21636166 -3.15765944 14.2163729 -3.15765944 14.2163729 15.1576549 -3.21636166 15.1576549"></polygon>
                </g>
                <g id="Fill-571-Clipped" transform="translate(41.000000, 14.000000)">
                    <mask id="mask-16" fill="white">
                        <use xlink:href="#path-15"></use>
                    </mask>
                    <g id="path-15"></g>
                    <polygon id="Fill-571" fill="#FFFFFF" fill-rule="nonzero" mask="url(#mask-16)" points="-3.17460317 -3.57142857 7.17460317 -3.57142857 7.17460317 8.57142857 -3.17460317 8.57142857"></polygon>
                </g>
                <g id="Fill-574-Clipped" transform="translate(2.000000, 6.000000)">
                    <mask id="mask-18" fill="white">
                        <use xlink:href="#path-17"></use>
                    </mask>
                    <g id="path-17"></g>
                    <polygon id="Fill-574" fill="#FFFFFF" fill-rule="nonzero" mask="url(#mask-18)" points="-3.03030303 -3.18181818 9.03030303 -3.18181818 9.03030303 10.1818182 -3.03030303 10.1818182"></polygon>
                </g>
                <g id="Fill-577-Clipped" transform="translate(11.000000, 1.000000)">
                    <mask id="mask-20" fill="white">
                        <use xlink:href="#path-19"></use>
                    </mask>
                    <g id="path-19"></g>
                    <polygon id="Fill-577" fill="#FFFFFF" fill-rule="nonzero" mask="url(#mask-20)" points="-3.24074074 -2.91666667 10.2407407 -2.91666667 10.2407407 9.91666667 -3.24074074 9.91666667"></polygon>
                </g>
                <g id="Fill-580-Clipped" transform="translate(25.000000, 0.000000)">
                    <mask id="mask-22" fill="white">
                        <use xlink:href="#path-21"></use>
                    </mask>
                    <g id="path-21"></g>
                    <polygon id="Fill-580" fill="#FFFFFF" fill-rule="nonzero" mask="url(#mask-22)" points="-2.99145299 -3.07692308 9.99145299 -3.07692308 9.99145299 11.0769231 -2.99145299 11.0769231"></polygon>
                </g>
                <g id="Fill-583-Clipped" transform="translate(36.000000, 3.000000)">
                    <mask id="mask-24" fill="white">
                        <use xlink:href="#path-23"></use>
                    </mask>
                    <g id="path-23"></g>
                    <polygon id="Fill-583" fill="#FFFFFF" fill-rule="nonzero" mask="url(#mask-24)" points="-3.53537168 -2.93859976 10.5353513 -2.93859976 10.5353513 11.9385783 -3.53537168 11.9385783"></polygon>
                </g>
            </g>
        </g>
    </g>
</svg>