<?xml version="1.0" encoding="UTF-8"?>
<svg width="20px" height="16px" viewBox="0 0 20 16" version="1.1" xmlns="http://www.w3.org/2000/svg" xmlns:xlink="http://www.w3.org/1999/xlink">
    <title>Fill-1</title>
    <g id="Page-1" stroke="none" stroke-width="1" fill="none" fill-rule="evenodd">
        <g id="icon_twiiter_white" fill="#1DA1F2" fill-rule="nonzero">
            <path d="M6.21386434,16 C13.6701364,16 17.7476393,9.84498091 17.7476393,4.50778183 C17.7476393,4.33285683 17.7439883,4.1586835 17.736042,3.98547661 C18.5274461,3.41538647 19.2155489,2.70408923 19.7582567,1.89421548 C19.031926,2.21560929 18.2502936,2.43230582 17.430326,2.53002329 C18.26726,2.03005349 18.9098328,1.23886417 19.2128643,0.295622177 C18.4294065,0.758437863 17.5621909,1.09486514 16.6388145,1.27612566 C15.8991685,0.491057107 14.8456453,0 13.6799082,0 C11.4411044,0 9.62559983,1.8089543 9.62559983,4.03884538 C9.62559983,4.35583654 9.6612506,4.66402239 9.73072664,4.95975195 C6.3618365,4.79105509 3.37436661,3.18365649 1.37523909,0.739753424 C1.02678506,1.33647425 0.826195797,2.03005349 0.826195797,2.76980691 C0.826195797,4.17113979 1.54189569,5.40817847 2.63010315,6.131932 C1.96530225,6.11152945 1.34044738,5.92951725 0.79408863,5.62670049 C0.793229576,5.64355944 0.793229576,5.66041839 0.793229576,5.67813639 C0.793229576,7.63452594 2.19069671,9.26769619 4.04550305,9.63805612 C3.70499527,9.73029711 3.3466621,9.78012228 2.97683908,9.78012228 C2.71568647,9.78012228 2.46172844,9.75435064 2.21475024,9.70721002 C2.73082731,11.3120315 4.22730049,12.4798089 6.00167784,12.5125603 C4.61408984,13.596043 2.86634318,14.2416225 0.967080758,14.2416225 C0.639888323,14.2416225 0.317313307,14.2229381 0,14.1856766 C1.79413561,15.331226 3.92426896,16 6.21386434,16" id="Fill-1"></path>
        </g>
    </g>
</svg>