<?xml version="1.0" encoding="UTF-8"?>
<svg width="72px" height="72px" viewBox="0 0 72 72" version="1.1" xmlns="http://www.w3.org/2000/svg" xmlns:xlink="http://www.w3.org/1999/xlink">
    <title>maternal-health</title>
    <defs>
        <path d="M5,10 C7.76141647,10 10,7.76098118 10,5 C10,2.23830576 7.76141647,0 5,0 C2.23858353,0 0,2.23830576 0,5 C0,7.76098118 2.23858353,10 5,10 Z" id="path-1"></path>
        <path d="M0.0995659798,20.1634471 C0.0995659798,20.1634471 2.01547619,15.6166929 2.01547619,12.3710955 C2.01547619,9.125498 3.29457018,-0.621714788 9.03663443,0.0312949758 C9.03663443,0.0312949758 12.2260405,0.0312949758 13.5052028,3.27689244 C14.7842968,6.52248991 16.057861,7.82434131 18.6105191,9.125498 C21.163109,10.4273494 21.7999252,14.9741035 19.8896131,17.5722488 C17.9737029,20.1696993 16.700207,20.1696993 16.700207,20.1696993 L16.700207,26.6657571 L11.5948907,26.6657571 L10.3157967,39 L7.12632231,39 L7.12632231,26.6601995 L4.57366417,26.6601995 L4.57366417,21.4652985 L4.57366417,19.5159948 C4.57366417,19.5159948 5.85282642,15.6166929 5.85282642,13.6673893 C5.85282642,11.717391 5.21607847,7.81878378 5.21607847,7.81878378 C5.21607847,7.81878378 4.57926225,16.9122921 3.30016826,18.2141435 C3.30016826,18.2141435 3.30016826,21.4597409 1.38425805,21.4597409 C-0.531583888,21.4597409 0.0995659798,20.1634471 0.0995659798,20.1634471 Z" id="path-3"></path>
    </defs>
    <g id="Page-1" stroke="none" stroke-width="1" fill="none" fill-rule="evenodd">
        <g id="maternal-health">
            <circle id="Oval" fill="#F7941D" cx="36" cy="36" r="36"></circle>
            <g id="Fill-354-Clipped" transform="translate(31.000000, 11.000000)">
                <mask id="mask-2" fill="white">
                    <use xlink:href="#path-1"></use>
                </mask>
                <g id="path-1"></g>
                <polygon id="Fill-354" fill="#FFFFFF" fill-rule="nonzero" mask="url(#mask-2)" points="-3.56541829 -3.5653166 13.5654183 -3.5653166 13.5654183 13.5653166 -3.56541829 13.5653166"></polygon>
            </g>
            <g id="Fill-357-Clipped" transform="translate(26.000000, 22.000000)">
                <mask id="mask-4" fill="white">
                    <use xlink:href="#path-3"></use>
                </mask>
                <g id="path-3"></g>
                <polygon id="Fill-357" fill="#FFFFFF" fill-rule="nonzero" mask="url(#mask-4)" points="-3.41343672 -3.47342232 24.4134796 -3.47342232 24.4134796 42.4734562 -3.41343672 42.4734562"></polygon>
            </g>
        </g>
    </g>
</svg>