<?xml version="1.0" encoding="UTF-8"?>
<svg width="72px" height="72px" viewBox="0 0 72 72" version="1.1" xmlns="http://www.w3.org/2000/svg" xmlns:xlink="http://www.w3.org/1999/xlink">
    <title>family planning</title>
    <defs>
        <path d="M9.312,38.5454545 L48,16.4109235 L38.688,0 L0,22.134531 L9.312,38.5454545 Z M18.9060267,30.4966315 C17.7780267,31.1408587 16.344,30.7493956 15.7020267,29.6167768 C15.06,28.484158 15.4500267,27.0446879 16.5780267,26.3999252 C17.7060267,25.7551626 19.14,26.1466256 19.7820267,27.2792444 C20.4300267,28.4059725 20.0340267,29.8518689 18.9060267,30.4966315 Z M24.4380267,27.3338672 C23.3100267,27.9780943 21.876,27.5866313 21.2340267,26.4540125 C20.592,25.3213937 20.9820267,23.881388 22.1100267,23.2371608 C23.2380267,22.5923982 24.672,22.9838612 25.3140267,24.11648 C25.956,25.2490988 25.5660267,26.6891045 24.4380267,27.3338672 Z M30.444,23.8937049 C29.316,24.537932 27.8820267,24.146469 27.24,23.0138502 C26.5980267,21.8812314 26.988,20.4412257 28.116,19.7969986 C29.244,19.1522359 30.6780267,19.543699 31.32,20.6763178 C31.968,21.8089366 31.572,23.2489422 30.444,23.8937049 Z M35.9700267,20.7368312 C34.8420267,21.3815939 33.408,20.9895953 32.7660267,19.8569765 C32.124,18.7243577 32.5140267,17.284352 33.6420267,16.6401249 C34.7700267,15.9953622 36.204,16.3868253 36.8460267,17.5194441 C37.4940267,18.6461722 37.0980267,20.0920685 35.9700267,20.7368312 Z M41.496,17.5735313 C40.368,18.218294 38.9340267,17.8268309 38.292,16.6942121 C37.6500267,15.5615933 38.04,14.1215877 39.168,13.4773605 C40.296,12.8325978 41.7300267,13.2240609 42.372,14.3566797 C43.02,15.4834078 42.624,16.9293042 41.496,17.5735313 Z M34.38,5.02475756 C35.508,4.3799949 36.9420267,4.77145795 37.584,5.90407675 C38.2260267,7.03669556 37.836,8.47670121 36.708,9.12146388 C35.58,9.76569103 34.1460267,9.37422798 33.504,8.24160918 C32.856,7.11541658 33.252,5.66898472 34.38,5.02475756 Z M28.848,8.18752194 C29.976,7.54275928 31.4100267,7.93422233 32.052,9.06737665 C32.6940267,10.1994599 32.304,11.6394656 31.176,12.2842283 C30.048,12.9289909 28.6140267,12.5375279 27.972,11.4043736 C27.3300267,10.2722903 27.72,8.83228461 28.848,8.18752194 Z M23.3220267,11.3502863 C24.4500267,10.7060592 25.884,11.0975222 26.5260267,12.230141 C27.168,13.3627598 26.7780267,14.8027655 25.6500267,15.4469926 C24.5220267,16.0917553 23.088,15.7002923 22.4460267,14.5676735 C21.804,13.4350547 22.1940267,11.995049 23.3220267,11.3502863 Z M17.316,14.7845579 C18.444,14.1397952 19.8780267,14.5312583 20.52,15.6638771 C21.1620267,16.7964959 20.772,18.2365016 19.644,18.8812642 C18.516,19.5254914 17.0820267,19.1340283 16.44,18.0014095 C15.792,16.8752169 16.188,15.4293206 17.316,14.7845579 Z M11.7900267,17.9473223 C12.9180267,17.3025596 14.352,17.6945582 14.9940267,18.827177 C15.636,19.9597958 15.2460267,21.3992659 14.1180267,22.0440286 C12.9900267,22.6887913 11.556,22.2973282 10.9140267,21.1647094 C10.2660267,20.0379813 10.6620267,18.592085 11.7900267,17.9473223 Z M6.264,21.1100867 C7.392,20.465324 8.82602667,20.8573226 9.468,21.9899414 C10.1100267,23.1225602 9.72,24.5625658 8.592,25.206793 C7.464,25.8515557 6.03002667,25.4600926 5.388,24.3274738 C4.74,23.194855 5.136,21.7548493 6.264,21.1100867 Z M7.368,27.827614 L39.5700267,9.40475246 L40.392,10.8506488 L8.19002667,29.2735103 L7.368,27.827614 Z M11.052,29.5567989 C12.18,28.9120363 13.6140267,29.3034993 14.256,30.4361181 C14.8980267,31.5687369 14.508,33.0087426 13.38,33.6535052 C12.252,34.2977324 10.8180267,33.9062693 10.176,32.7736505 C9.53402667,31.6410317 9.924,30.2015616 11.052,29.5567989 Z" id="path-1"></path>
    </defs>
    <g id="Page-1" stroke="none" stroke-width="1" fill="none" fill-rule="evenodd">
        <g id="family-planning">
            <circle id="Oval" fill="#F7941D" cx="36" cy="36" r="36"></circle>
            <g transform="translate(12.363636, 16.727273)">
                <mask id="mask-2" fill="white">
                    <use xlink:href="#path-1"></use>
                </mask>
                <g id="path-1"></g>
                <polygon id="Fill-342" fill="#FFFFFF" fill-rule="nonzero" mask="url(#mask-2)" points="-3.63636364 -2.90909091 50.1818182 -2.90909091 50.1818182 41.4545455 -3.63636364 41.4545455"></polygon>
            </g>
        </g>
    </g>
</svg>