<?xml version="1.0" encoding="UTF-8"?>
<svg width="95px" height="98px" viewBox="0 0 95 98" version="1.1" xmlns="http://www.w3.org/2000/svg" xmlns:xlink="http://www.w3.org/1999/xlink">
    <title>Group</title>
    <g id="Page-1" stroke="none" stroke-width="1" fill="none" fill-rule="evenodd">
        <g id="Group" transform="translate(0.340023, 0.389427)" fill="#ED8B00">
            <path d="M0.117475182,96.7033307 L0.117475182,56.2412736 C-0.699695448,39.9626546 2.7463823,26.8629408 10.4557084,16.9421323 C18.1650346,7.02132383 27.6618754,1.37394639 38.946231,0 L38.946231,16.9421323 C30.4223918,19.9396812 24.780214,24.7474067 22.0196976,31.3653088 C19.2591812,37.9832109 18.4298997,46.2751991 19.5318531,56.2412736 L38.946231,56.2412736 L38.946231,96.7033307 L0.117475182,96.7033307 Z" id="Path"></path>
            <path d="M55.1712442,96.7033307 L55.1712442,56.2412736 C54.3540736,39.9626546 57.8001513,26.8629408 65.5094775,16.9421323 C73.2188036,7.02132383 82.7156444,1.37394639 94,0 L94,16.9421323 C85.4761608,19.9396812 79.8339831,24.7474067 77.0734667,31.3653088 C74.3129503,37.9832109 73.4836687,46.2751991 74.5856221,56.2412736 L94,56.2412736 L94,96.7033307 L55.1712442,96.7033307 Z" id="Path"></path>
        </g>
    </g>
</svg>